<svg xmlns="http://www.w3.org/2000/svg" width="36.03" height="32.948" viewBox="0 0 36.03 32.948">
  <path id="anal-img" d="M46.84,43.426l1.066,1.065V65.458a.713.713,0,0,1-.72.72H42.2a.713.713,0,0,1-.72-.72V45.988l2.535-2.562a5.222,5.222,0,0,0,2.822,0Zm3.542,7.17a5.182,5.182,0,0,0,3.4,1.24,5.261,5.261,0,0,0,3.024-.98v14.6a.713.713,0,0,1-.72.72H51.1a.713.713,0,0,1-.72-.72Zm15.293-9.158v24.02a.713.713,0,0,1-.72.72H59.973a.713.713,0,0,1-.72-.72V44.722l3.168-3.168a6.015,6.015,0,0,0,1.411.23A4.87,4.87,0,0,0,65.675,41.438ZM38.95,52.037c.029-.029.057,0,.057.029V65.429a.713.713,0,0,1-.72.72H33.305a.713.713,0,0,1-.72-.72V54.34a5,5,0,0,0,1.843.345,5.194,5.194,0,0,0,4.522-2.65ZM63.832,33.23a3.283,3.283,0,0,1,3.312,3.341,3.344,3.344,0,0,1-3.34,3.341,3.288,3.288,0,0,1-1.815-.547l-5.472,5.472a3.287,3.287,0,0,1,.547,1.814,3.341,3.341,0,0,1-6.682,0,3.388,3.388,0,0,1,.519-1.758l-3.658-3.657a3.283,3.283,0,0,1-3.629,0L37.25,47.688A3.287,3.287,0,0,1,37.8,49.5a3.34,3.34,0,1,1-3.341-3.34,3.279,3.279,0,0,1,1.814.547l6.365-6.451a3.29,3.29,0,0,1-.547-1.815,3.341,3.341,0,0,1,6.682,0,3.283,3.283,0,0,1-.548,1.815l3.658,3.628a3.2,3.2,0,0,1,1.872-.576,3.279,3.279,0,0,1,1.814.548l5.472-5.472a3.29,3.29,0,0,1-.547-1.815,3.343,3.343,0,0,1,3.341-3.34Z" transform="translate(-31.116 -33.23)" fill="#c23994"/>
</svg>
