<svg xmlns="http://www.w3.org/2000/svg" width="146.788" height="46.336" viewBox="0 0 146.788 46.336">
  <g id="buddy-img" transform="translate(-0.001 4)">
    <path id="Path_7185" data-name="Path 7185" d="M20.764,16.817a4.861,4.861,0,1,0,4.861,4.861A4.861,4.861,0,0,0,20.764,16.817Zm-19.211.991L10.459,8.9V21.2c-.008.16-.012.32-.012.483a10.313,10.313,0,1,0,5.455-9.1V3.458l1.1-1.1a5.338,5.338,0,0,1,7.527,0L39.975,17.808a5.338,5.338,0,0,1,0,7.527L24.527,40.783a5.338,5.338,0,0,1-7.527,0L1.553,25.335a5.338,5.338,0,0,1,0-7.527Z" fill="#75b233" fill-rule="evenodd"/>
    <path id="Path_7186" data-name="Path 7186" d="M20.764,16.817a4.861,4.861,0,1,0,4.861,4.861A4.861,4.861,0,0,0,20.764,16.817ZM15.9,3.458l1.1-1.1a5.338,5.338,0,0,1,7.527,0L39.975,17.808a5.338,5.338,0,0,1,0,7.527l-9.511,9.511c-14.415,2.4-18.855-8.407-18.855-8.407A10.317,10.317,0,1,0,15.9,12.577Z" fill="#548c14" fill-rule="evenodd"/>
    <text id="buddy" transform="translate(48.789 33)" fill="#1b1b1b" font-size="34.59" font-family="SegoeUI, Segoe UI"><tspan x="0" y="0">buddy</tspan></text>
  </g>
</svg>
