<svg id="dp-13" xmlns="http://www.w3.org/2000/svg" xmlns:xlink="http://www.w3.org/1999/xlink" width="26.412" height="26.868" viewBox="0 0 26.412 26.868">
  <defs>
    <clipPath id="clip-path">
      <rect id="Rectangle_2828" data-name="Rectangle 2828" width="26.412" height="26.868" fill="none"/>
    </clipPath>
  </defs>
  <g id="Group_4467" data-name="Group 4467" transform="translate(0 0)">
    <g id="Group_4466" data-name="Group 4466" clip-path="url(#clip-path)">
      <path id="Path_7187" data-name="Path 7187" d="M255.552,378.539v6.831a3.643,3.643,0,0,1-3.643,3.643h-2.277a3.64,3.64,0,0,1-3.643-3.643v-6.831a3.643,3.643,0,0,1,3.643-3.643h2.277a3.643,3.643,0,0,1,3.643,3.643Zm0,0" transform="translate(-245.989 -372.163)" fill="#e0e0d6"/>
    </g>
  </g>
  <path id="Path_7188" data-name="Path 7188" d="M255.929,380.066V386.9a3.643,3.643,0,0,1-3.643,3.643h-2.277a3.646,3.646,0,0,1-3.36-2.231,14.94,14.94,0,0,0,8.292-10.737,3.626,3.626,0,0,1,.987,2.494Zm0,0" transform="translate(-246.366 -373.69)" fill="#d6d6cb"/>
  <path id="Path_7189" data-name="Path 7189" d="M256.152,380.96v6.831a1.817,1.817,0,0,1-1.821,1.822h-2.277a1.817,1.817,0,0,1-1.822-1.822V380.96a1.818,1.818,0,0,1,1.822-1.822h2.277a1.818,1.818,0,0,1,1.821,1.822Zm0,0" transform="translate(-248.411 -374.584)" fill="#69b3c5"/>
  <path id="Path_7190" data-name="Path 7190" d="M251.143,387.791V380.96a1.823,1.823,0,0,1,1.821-1.822h-.911a1.824,1.824,0,0,0-1.822,1.822v6.831a1.824,1.824,0,0,0,1.822,1.822h.911a1.823,1.823,0,0,1-1.821-1.822Zm0,0" transform="translate(-248.411 -374.584)" fill="#63a7ba"/>
  <path id="Path_7191" data-name="Path 7191" d="M254.331,379.138h-2.277a1.824,1.824,0,0,0-1.822,1.822h5.92a1.823,1.823,0,0,0-1.821-1.822Zm0,0" transform="translate(-248.411 -374.584)" fill="#c7c6bb"/>
  <path id="Path_7192" data-name="Path 7192" d="M252.964,379.138h-.911a1.824,1.824,0,0,0-1.822,1.822h.911a1.823,1.823,0,0,1,1.821-1.822Zm0,0" transform="translate(-248.411 -374.584)" fill="#bfbeb3"/>
  <path id="Path_7193" data-name="Path 7193" d="M259.179,393.994h-2.732a.911.911,0,0,1,0-1.822h.911a1.366,1.366,0,0,1,1.366-1.366h.455Zm0,0" transform="translate(-251.437 -381.243)" fill="#ebebe3"/>
  <path id="Path_7194" data-name="Path 7194" d="M281.956,397.632h-.01a1.9,1.9,0,0,1-1.242-1.779v-1.865H276.15v1.865a1.9,1.9,0,0,1-1.242,1.779h-.01l-2.391.456v11.839h11.84v-11.84Zm0,0" transform="translate(-261.122 -383.059)" fill="#f8c599"/>
  <path id="Path_7195" data-name="Path 7195" d="M285.547,395.12v-1.132h-4.554v1.132a4.1,4.1,0,0,0,4.554,0Zm0,0" transform="translate(-265.965 -383.059)" fill="#f8b279"/>
  <path id="Path_7196" data-name="Path 7196" d="M281.956,401.354h-.01a1.89,1.89,0,0,1-.99-.844l-2.53.843-2.529-.843a1.892,1.892,0,0,1-.99.844h-.01l-2.391.456v11.839h11.84v-11.84Zm0,0" transform="translate(-261.122 -386.781)" fill="#d6d6cb"/>
  <path id="Path_7197" data-name="Path 7197" d="M279.195,404.277l2.41-3.013-2.732-.911-.8.911h.01Zm0,0" transform="translate(-264.3 -386.691)" fill="#ebebe3"/>
  <path id="Path_7198" data-name="Path 7198" d="M288.707,404.277l-2.411-3.013,2.733-.911.8.911h-.01Zm0,0" transform="translate(-268.991 -386.691)" fill="#ebebe3"/>
  <path id="Path_7199" data-name="Path 7199" d="M285.086,402.475l-.911,1.139v5.949l.911,2.475.911-2.475v-5.949Zm0,0" transform="translate(-267.781 -387.902)" fill="#5684bb"/>
  <path id="Path_7200" data-name="Path 7200" d="M285.086,402.475l-.911,1.139v5.949l.911,2.475.911-2.475v-5.949Zm0,0" transform="translate(-267.781 -387.902)" fill="#5684bb"/>
  <path id="Path_7201" data-name="Path 7201" d="M296.3,380.2h-.456v2.732h.456a1.366,1.366,0,1,0,0-2.732Zm0,0" transform="translate(-274.44 -375.19)" fill="#f8b279"/>
  <path id="Path_7202" data-name="Path 7202" d="M273.9,380.2h-.023a1.366,1.366,0,1,0,0,2.732h.456V380.2Zm0,0" transform="translate(-261.122 -375.19)" fill="#f8b279"/>
  <path id="Path_7203" data-name="Path 7203" d="M284.947,373.692v3.187a4.1,4.1,0,1,1-8.2,0v-3.187a4.1,4.1,0,0,1,4.1-4.1h.093a4.1,4.1,0,0,1,4.006,4.1Zm0,0" transform="translate(-263.544 -369.137)" fill="#f8c599"/>
  <path id="Path_7204" data-name="Path 7204" d="M289.59,373.693v3.187a4.1,4.1,0,0,1-4.7,4.054,5.007,5.007,0,0,0,2.825-4.509v-2.733a5.012,5.012,0,0,0-2.127-4.1,4.1,4.1,0,0,1,4.006,4.1Zm0,0" transform="translate(-268.187 -369.139)" fill="#f8bc89"/>
  <path id="Path_7205" data-name="Path 7205" d="M285.731,371.713h-3.825c-.358.5-.842,1.148-1.388,1.822h5.213Zm0,0" transform="translate(-265.694 -370.347)" fill="#f8bc89"/>
  <path id="Path_7206" data-name="Path 7206" d="M276.75,374.146v-2.732c0-1.509,1.02-1.822,2.277-1.822h1.366a35.6,35.6,0,0,1-3.643,4.554Zm0,0" transform="translate(-263.544 -369.137)" fill="#ef7711"/>
  <path id="Path_7207" data-name="Path 7207" d="M276.925,371.713a2.134,2.134,0,0,0-.175.911v.911h1.618c.547-.674,1.03-1.324,1.388-1.822Zm0,0" transform="translate(-263.544 -370.347)" fill="#e46c10"/>
  <path id="Path_7208" data-name="Path 7208" d="M291,374.146v-2.732c0-1.509-1.02-1.822-2.277-1.822h-1.366A35.6,35.6,0,0,0,291,374.146Zm0,0" transform="translate(-269.597 -369.137)" fill="#ef7711"/>
  <path id="Path_7209" data-name="Path 7209" d="M284.078,386.85h-.964v.911h.964a6.549,6.549,0,0,0,1.9-.279l-.264-.872a5.632,5.632,0,0,1-1.637.24Zm0,0" transform="translate(-267.176 -378.848)" fill="#f19f5e"/>
  <path id="Path_7210" data-name="Path 7210" d="M281.3,380.883a.683.683,0,1,1-.683-.683.683.683,0,0,1,.683.683Zm0,0" transform="translate(-265.36 -375.19)" fill="#713620"/>
  <path id="Path_7211" data-name="Path 7211" d="M290.845,380.883a.683.683,0,1,1-.683-.683.683.683,0,0,1,.683.683Zm0,0" transform="translate(-270.808 -375.19)" fill="#713620"/>
  <path id="Path_7212" data-name="Path 7212" d="M284.645,370.808h-7.286a1.139,1.139,0,0,1,0-2.277h5.009a2.277,2.277,0,0,1,2.277,2.277Zm0,0" transform="translate(-263.241 -368.531)" fill="#f58313"/>
  <path id="Path_7213" data-name="Path 7213" d="M289.321,368.54c-.031,0-.061-.009-.093-.009h-.986l1.419,2.277h1.073Zm0,0" transform="translate(-270.102 -368.531)" fill="#ef7711"/>
  <path id="Path_7214" data-name="Path 7214" d="M278.251,368.531a1.135,1.135,0,0,0-.466.1l1.355,2.174h1.073l-1.418-2.277Zm0,0" transform="translate(-264.134 -368.531)" fill="#ef7711"/>
  <path id="Path_7215" data-name="Path 7215" d="M282.939,368.531l1.418,2.277h1.073l-1.418-2.277Zm0,0" transform="translate(-267.076 -368.531)" fill="#ef7711"/>
  <g id="Group_4469" data-name="Group 4469" transform="translate(0 0)">
    <g id="Group_4468" data-name="Group 4468" clip-path="url(#clip-path)">
      <path id="Path_7216" data-name="Path 7216" d="M265.082,406.36v9.015h3.188v-11.84l-.841.12a2.732,2.732,0,0,0-2.346,2.7Zm0,0" transform="translate(-256.885 -388.507)" fill="#e0e0d6"/>
      <path id="Path_7217" data-name="Path 7217" d="M303.274,406.36v9.015h-3.188v-11.84l.842.12a2.733,2.733,0,0,1,2.346,2.705Zm0,0" transform="translate(-276.861 -388.507)" fill="#e0e0d6"/>
      <path id="Path_7218" data-name="Path 7218" d="M303.274,407.145v9.015h-3.188v-8.129a14.563,14.563,0,0,0,2.029-3.12,2.73,2.73,0,0,1,1.159,2.234Zm0,0" transform="translate(-276.861 -389.292)" fill="#d6d6cb"/>
    </g>
  </g>
  <path id="Path_7219" data-name="Path 7219" d="M284.347,402.93v11.84h-11.84V402.93l2.391-.456h.01l3.19,8.671.328.892.522-1.419,3-8.144h.01Zm0,0" transform="translate(-261.122 -387.902)" fill="#4e577f"/>
  <path id="Path_7220" data-name="Path 7220" d="M284.347,408.193v9.84h-11.84v-1.227a25.891,25.891,0,0,0,5.591-2.4l.328.892.522-1.419a16,16,0,0,0,5.4-5.689Zm0,0" transform="translate(-261.122 -391.165)" fill="#464d75"/>
  <rect id="Rectangle_2830" data-name="Rectangle 2830" width="0.911" height="3.187" transform="translate(16.849 23.681)" fill="#3d4368"/>
  <rect id="Rectangle_2831" data-name="Rectangle 2831" width="3.643" height="1.822" transform="translate(19.582 22.314)" fill="#eeb432"/>
  <rect id="Rectangle_2832" data-name="Rectangle 2832" width="3.643" height="0.911" transform="translate(19.582 23.225)" fill="#f0a91f"/>
  <path id="Path_7221" data-name="Path 7221" d="M285.086,402.475l-.911,1.139v1.138l.911-1.366.911,1.366v-1.138Zm0,0" transform="translate(-267.781 -387.902)" fill="#507ab1"/>
  <path id="Path_7222" data-name="Path 7222" d="M256.845,424.749l-.249,2.732h3.643v-2.732Zm0,0" transform="translate(-252.042 -400.613)" fill="#ebebe3"/>
  <path id="Path_7223" data-name="Path 7223" d="M260.57,419.446h-3.188l-.207,2.277h3.395Zm0,0" transform="translate(-252.373 -397.587)" fill="#ebebe3"/>
  <path id="Path_7224" data-name="Path 7224" d="M256.607,408.834v3.349H252.7a2.638,2.638,0,0,1-.3-.018,2.721,2.721,0,0,1-.919-.271l-.742-.371a.911.911,0,0,1-.5-.814v-1.9a.547.547,0,0,1,.791-.489l.454.227a2.723,2.723,0,0,0,1.221.289h2.087l-.416-.834a.886.886,0,1,1,1.615-.725l.309.774Zm0,0" transform="translate(-248.411 -390.324)" fill="#f8c599"/>
  <path id="Path_7225" data-name="Path 7225" d="M259.484,410.6v3.349h-3.909a2.638,2.638,0,0,1-.3-.018,10.813,10.813,0,0,0,3.9-4.116Zm0,0" transform="translate(-251.287 -392.092)" fill="#f8bc89"/>
</svg>
