<svg id="dp-2" xmlns="http://www.w3.org/2000/svg" width="26.413" height="26.413" viewBox="0 0 26.413 26.413">
  <path id="Path_7447" data-name="Path 7447" d="M272.4,297.3v19.126H247.811a1.822,1.822,0,0,1-1.822-1.822V297.3Zm0,0" transform="translate(-245.989 -293.655)" fill="#d6d6d4"/>
  <path id="Path_7448" data-name="Path 7448" d="M247.811,307.938a1.822,1.822,0,0,0-1.822,1.822V290.634a1.822,1.822,0,0,1,1.822-1.822Zm0,0" transform="translate(-245.989 -288.812)" fill="#ebebe9"/>
  <path id="Path_7449" data-name="Path 7449" d="M275.451,297.3v19.126H251.333l22.2-19.126Zm0,0" transform="translate(-249.039 -293.655)" fill="#c7c7c5"/>
  <path id="Path_7450" data-name="Path 7450" d="M255.236,300.48a1.822,1.822,0,1,0,1.822,1.822,1.822,1.822,0,0,0-1.822-1.822Zm0,2.732a.911.911,0,1,1,.911-.911.91.91,0,0,1-.911.911Zm0,0" transform="translate(-250.226 -295.471)" fill="#b0b0ae"/>
  <path id="Path_7451" data-name="Path 7451" d="M255.236,323.816a1.821,1.821,0,1,0,1.822,1.822,1.822,1.822,0,0,0-1.822-1.822Zm0,2.732a.911.911,0,1,1,.911-.911.911.911,0,0,1-.911.911Zm0,0" transform="translate(-250.226 -308.788)" fill="#b0b0ae"/>
  <path id="Path_7452" data-name="Path 7452" d="M254.369,315.835l1.044-1.044,1.044,1.044.644-.644-1.044-1.044L257.1,313.1l-.644-.644-1.044,1.044-1.044-1.044-.644.644,1.044,1.044-1.044,1.044Zm0,0" transform="translate(-250.404 -302.307)" fill="#b0b0ae"/>
  <path id="Path_7453" data-name="Path 7453" d="M266.143,307.239a3.459,3.459,0,0,0-.274-.232l.628-.122-.173-.894-1.933.375a.456.456,0,0,0-.355.558l.456,1.821.884-.221-.228-.913a2.7,2.7,0,0,1,.373.292,2.939,2.939,0,0,1,.687,2.916l.892.184a3.784,3.784,0,0,0-.955-3.764Zm0,0" transform="translate(-256.28 -298.616)" fill="#b0b0ae"/>
  <path id="Path_7454" data-name="Path 7454" d="M297.664,307.9a1.822,1.822,0,1,0,1.822,1.822,1.822,1.822,0,0,0-1.822-1.822Zm0,2.732a.911.911,0,1,1,.911-.911.91.91,0,0,1-.911.911Zm0,0" transform="translate(-274.439 -299.708)" fill="#b0b0ae"/>
  <path id="Path_7455" data-name="Path 7455" d="M278.727,289.873a4.09,4.09,0,0,1,4.1,4.1v2.277a4.1,4.1,0,1,1-8.2,0v-2.277a4.09,4.09,0,0,1,4.1-4.1Zm0,0" transform="translate(-262.333 -289.417)" fill="#f6c8a3"/>
  <path id="Path_7456" data-name="Path 7456" d="M283.275,315.941v-2.732h-5.464v2.732l2.732,10.474Zm0,0" transform="translate(-264.149 -302.735)" fill="#f6c8a3"/>
  <path id="Path_7457" data-name="Path 7457" d="M281.659,314.125a2.45,2.45,0,0,0,1.616-.61v-3.489h-5.464v3.489a2.45,2.45,0,0,0,1.616.61Zm0,0" transform="translate(-264.149 -300.918)" fill="#f8b784"/>
  <path id="Path_7458" data-name="Path 7458" d="M279.151,320.964l-3.74-.935-1.822-.456-2.732.911-2.732-.911-1.822.456-3.74.935a2.276,2.276,0,0,0-1.725,2.208v8.241h20.037v-8.241a2.276,2.276,0,0,0-1.725-2.208Zm0,0" transform="translate(-254.464 -306.367)" fill="#374559"/>
  <path id="Path_7459" data-name="Path 7459" d="M277.811,319.572l2.732,10.474,2.732-10.474-2.732.911Zm0,0" transform="translate(-264.149 -306.366)" fill="#bfbfbd"/>
  <path id="Path_7460" data-name="Path 7460" d="M283.875,327.766v-5.343l-.911-.729-.911.729v5.343l.911,3.491Zm0,0" transform="translate(-266.57 -307.577)" fill="#95573a"/>
  <path id="Path_7461" data-name="Path 7461" d="M272.663,323.671l-.455,1.822,4.1,4.554-2.732-10.474-1.822.456-1.366,3.188Zm0,0" transform="translate(-259.912 -306.367)" fill="#4c5d72"/>
  <path id="Path_7462" data-name="Path 7462" d="M287.818,323.671l.455,1.822-4.1,4.554,2.732-10.474,1.822.456,1.366,3.188Zm0,0" transform="translate(-267.781 -306.367)" fill="#4c5d72"/>
  <rect id="Rectangle_2902" data-name="Rectangle 2902" width="0.911" height="5.465" transform="translate(10.019 18.671)" fill="#21313d"/>
  <rect id="Rectangle_2903" data-name="Rectangle 2903" width="0.911" height="5.465" transform="translate(21.859 18.671)" fill="#21313d"/>
  <path id="Path_7463" data-name="Path 7463" d="M297.514,334.423h2.733v4.1H297.97l-2.742.392-.446-3.124Zm0,0" transform="translate(-273.834 -314.841)" fill="#f6c8a3"/>
  <path id="Path_7464" data-name="Path 7464" d="M292.432,340.729l-1.984.4-.565-3.39,2.1-.132Zm0,0" transform="translate(-271.038 -316.657)" fill="#e0e0de"/>
  <path id="Path_7465" data-name="Path 7465" d="M273.873,341.3l-8.935,1.943h-2.733a1.367,1.367,0,0,1-1.366-1.367v-3.188l12.469-.779Zm0,0" transform="translate(-254.464 -316.832)" fill="#374559"/>
  <path id="Path_7466" data-name="Path 7466" d="M293.721,299.419h.456a1.366,1.366,0,0,1,0,2.732h-.456Zm0,0" transform="translate(-273.229 -294.865)" fill="#f8b784"/>
  <path id="Path_7467" data-name="Path 7467" d="M272.208,299.419h-.456a1.366,1.366,0,0,0,0,2.733h.456Zm0,0" transform="translate(-259.912 -294.865)" fill="#f8b784"/>
  <path id="Path_7468" data-name="Path 7468" d="M279.177,300.1a.683.683,0,1,1-.683-.683.683.683,0,0,1,.683.683Zm0,0" transform="translate(-264.149 -294.865)" fill="#79432a"/>
  <path id="Path_7469" data-name="Path 7469" d="M288.723,300.1a.683.683,0,1,1-.683-.683.683.683,0,0,1,.683.683Zm0,0" transform="translate(-269.597 -294.865)" fill="#79432a"/>
  <path id="Path_7470" data-name="Path 7470" d="M283.27,302.416h-1.821a.455.455,0,0,1-.432-.6l.911-2.732.864.288-.711,2.133h1.19Zm0,0" transform="translate(-265.965 -294.674)" fill="#f3a468"/>
  <path id="Path_7471" data-name="Path 7471" d="M290.967,294.116h-1.539a11.235,11.235,0,0,0,1.651,2.949c.063.081.127.16.192.239v-1.822a3.15,3.15,0,0,0-.3-1.366Zm0,0" transform="translate(-270.779 -291.839)" fill="#79432a"/>
  <path id="Path_7472" data-name="Path 7472" d="M274.629,295.43V292.3a1.466,1.466,0,0,1,1.821-1.422v1.366a14.926,14.926,0,0,1-1.821,3.188Zm0,0" transform="translate(-262.333 -289.965)" fill="#79432a"/>
  <path id="Path_7473" data-name="Path 7473" d="M279.843,307.161h-2.232a2.452,2.452,0,0,1-2.254-1.486,9.027,9.027,0,0,1-.729-3.553v-2.7l.787,2.484a1.143,1.143,0,0,0,1.658.44,1.145,1.145,0,0,1,.634-.192h2.04a1.145,1.145,0,0,1,.634.192l.08.053a1.143,1.143,0,0,0,1.615-.363l.749-2.615v2.7a9.026,9.026,0,0,1-.729,3.553,2.452,2.452,0,0,1-2.254,1.486Zm0,0" transform="translate(-262.333 -294.865)" fill="#79432a"/>
  <path id="Path_7474" data-name="Path 7474" d="M281.84,309.353h-.847v-.911h.847a3.393,3.393,0,0,0,1.655-.394l.459.787a4.262,4.262,0,0,1-2.114.517Zm0,0" transform="translate(-265.965 -299.79)" fill="#f6c8a3"/>
  <path id="Path_7475" data-name="Path 7475" d="M285.246,291.089h-6.375v-1.366a3.109,3.109,0,0,1,2.2-.911h1.9a2.278,2.278,0,0,1,1.61.667c.032.033.064.066.094.1a2.266,2.266,0,0,1,.573,1.51Zm0,0" transform="translate(-264.754 -288.812)" fill="#79432a"/>
  <path id="Path_7476" data-name="Path 7476" d="M283.648,288.812l-1.889,2.277h-1.183l1.888-2.277Zm0,0" transform="translate(-265.728 -288.812)" fill="#8c5137"/>
  <path id="Path_7477" data-name="Path 7477" d="M288.706,289.867l-1.489,1.51h-1.28l2.033-2.061a2.279,2.279,0,0,1,.642.451c.032.033.064.066.094.1Zm0,0" transform="translate(-268.786 -289.1)" fill="#8c5137"/>
  <path id="Path_7478" data-name="Path 7478" d="M286.907,319.572l-2.732.911,2.064,1.651Zm0,0" transform="translate(-267.781 -306.366)" fill="#e0e0de"/>
  <path id="Path_7479" data-name="Path 7479" d="M280.543,320.484l-2.732-.911.668,2.562Zm0,0" transform="translate(-264.149 -306.367)" fill="#e0e0de"/>
  <path id="Path_7480" data-name="Path 7480" d="M263.572,334.423h-2.733v4.1h2.277l2.742.392.446-3.124Zm0,0" transform="translate(-254.464 -314.841)" fill="#f6c8a3"/>
  <path id="Path_7481" data-name="Path 7481" d="M290.61,338.691v3.188a1.367,1.367,0,0,1-1.366,1.367h-2.733l-8.616-1.874.247-3.459Zm0,0" transform="translate(-264.198 -316.832)" fill="#3d4d63"/>
  <rect id="Rectangle_2904" data-name="Rectangle 2904" width="0.911" height="0.911" transform="translate(15.483 23.225)" fill="#21313d"/>
  <rect id="Rectangle_2905" data-name="Rectangle 2905" width="0.911" height="0.911" transform="translate(17.305 23.225)" fill="#21313d"/>
  <path id="Path_7482" data-name="Path 7482" d="M274.833,341.2l-2.3-.467.446-3.124,2.1.132Zm0,0" transform="translate(-261.135 -316.657)" fill="#e0e0de"/>
</svg>
