<svg xmlns="http://www.w3.org/2000/svg" width="109.113" height="77.929" viewBox="0 0 109.113 77.929">
  <g id="epro-logo" transform="translate(152 171)">
    <circle id="Ellipse_218" data-name="Ellipse 218" cx="8.086" cy="8.086" r="8.086" transform="translate(-90.039 -109.243)" fill="#464646"/>
    <circle id="Ellipse_219" data-name="Ellipse 219" cx="8.086" cy="8.086" r="8.086" transform="translate(-74.549 -124.632)" fill="#464646"/>
    <circle id="Ellipse_220" data-name="Ellipse 220" cx="8.086" cy="8.086" r="8.086" transform="translate(-59.059 -140.122)" fill="#464646"/>
    <circle id="Ellipse_221" data-name="Ellipse 221" cx="8.086" cy="8.086" r="8.086" transform="translate(-121.02 -140.122)" fill="#464646"/>
    <circle id="Ellipse_222" data-name="Ellipse 222" cx="8.086" cy="8.086" r="8.086" transform="translate(-105.529 -155.51)" fill="#464646"/>
    <circle id="Ellipse_223" data-name="Ellipse 223" cx="8.086" cy="8.086" r="8.086" transform="translate(-90.039 -171)" fill="#464646"/>
    <circle id="Ellipse_224" data-name="Ellipse 224" cx="8.086" cy="8.086" r="8.086" transform="translate(-74.549 -155.51)" fill="#464646"/>
    <g id="Group_4309" data-name="Group 4309" transform="translate(-315.309 -231.279)">
      <circle id="Ellipse_22" data-name="Ellipse 22" cx="8.086" cy="8.086" r="8.086" transform="translate(194.289 60.279)" fill="#bb85ff"/>
      <circle id="Ellipse_23" data-name="Ellipse 23" cx="8.086" cy="8.086" r="8.086" transform="translate(178.799 75.667)" fill="#bb85ff"/>
      <circle id="Ellipse_24" data-name="Ellipse 24" cx="8.086" cy="8.086" r="8.086" transform="translate(163.309 91.157)" fill="#bb85ff"/>
      <circle id="Ellipse_25" data-name="Ellipse 25" cx="8.086" cy="8.086" r="8.086" transform="translate(225.269 91.157)" fill="#bb85ff"/>
      <circle id="Ellipse_26" data-name="Ellipse 26" cx="8.086" cy="8.086" r="8.086" transform="translate(209.779 106.545)" fill="#bb85ff"/>
      <circle id="Ellipse_27" data-name="Ellipse 27" cx="8.086" cy="8.086" r="8.086" transform="translate(194.289 122.036)" fill="#bb85ff"/>
      <circle id="Ellipse_28" data-name="Ellipse 28" cx="8.086" cy="8.086" r="8.086" transform="translate(178.799 106.545)" fill="#bb85ff"/>
    </g>
  </g>
</svg>
