<svg xmlns="http://www.w3.org/2000/svg" width="42.947" height="51.56" viewBox="0 0 42.947 51.56">
  <g id="imme-img" transform="translate(-8)">
    <path id="Path_7183" data-name="Path 7183" d="M45.085,15.341l3.086-3.086L45.134,9.218l-3.3,3.3A21.338,21.338,0,0,0,31.621,8.7v-4.4h4.295V0H23.032V4.295h4.295V8.7a21.338,21.338,0,0,0-10.212,3.822l-3.3-3.3-3.036,3.037,3.086,3.086a21.474,21.474,0,1,0,31.223,0Zm-15.611,31.9A17.179,17.179,0,1,1,46.653,30.063,17.179,17.179,0,0,1,29.474,47.242Z" fill="#f7b500"/>
    <path id="Path_7184" data-name="Path 7184" d="M36.884,32V44.884H24A12.884,12.884,0,1,0,36.884,32Z" transform="translate(-7.411 -14.821)" fill="#f7b500"/>
  </g>
</svg>
