<svg xmlns="http://www.w3.org/2000/svg" width="518" height="513" viewBox="0 0 518 513">
  <g id="ippp-img" transform="translate(-348 -6645)">
    <path id="Rectangle_3289" data-name="Rectangle 3289" d="M56.5,0h0A56.5,56.5,0,0,1,113,56.5V113a0,0,0,0,1,0,0H56.5A56.5,56.5,0,0,1,0,56.5v0A56.5,56.5,0,0,1,56.5,0Z" transform="translate(526 6794) rotate(-90)" fill="#2758d0"/>
    <path id="Rectangle_3295" data-name="Rectangle 3295" d="M34.5,0h0A34.5,34.5,0,0,1,69,34.5V69a0,0,0,0,1,0,0H34.5A34.5,34.5,0,0,1,0,34.5v0A34.5,34.5,0,0,1,34.5,0Z" transform="translate(554 7016) rotate(-90)" fill="#f5b41d" opacity="0.29"/>
    <path id="Rectangle_3298" data-name="Rectangle 3298" d="M14,0h0A14,14,0,0,1,28,14V90a0,0,0,0,1,0,0H14A14,14,0,0,1,0,76V14A14,14,0,0,1,14,0Z" transform="translate(468 6698) rotate(90)" fill="#f5b41d" opacity="0.29"/>
    <path id="Rectangle_3291" data-name="Rectangle 3291" d="M50,0h0a50,50,0,0,1,50,50v50a0,0,0,0,1,0,0H50A50,50,0,0,1,0,50v0A50,50,0,0,1,50,0Z" transform="translate(673 7158) rotate(180)" fill="#70c217"/>
    <path id="Rectangle_3297" data-name="Rectangle 3297" d="M78.5,0h0A78.5,78.5,0,0,1,157,78.5V157a0,0,0,0,1,0,0H78.5A78.5,78.5,0,0,1,0,78.5v0A78.5,78.5,0,0,1,78.5,0Z" transform="translate(505 6984) rotate(90)" fill="#cb2026"/>
    <path id="Rectangle_3292" data-name="Rectangle 3292" d="M59.5,0h0A59.5,59.5,0,0,1,119,59.5V120a0,0,0,0,1,0,0H59.5A59.5,59.5,0,0,1,0,60.5v-1A59.5,59.5,0,0,1,59.5,0Z" transform="translate(712 7062) rotate(-90)" fill="#ffff97"/>
    <g id="Group_7608" data-name="Group 7608" transform="translate(544.359 6722.297)">
      <g id="Group_13" data-name="Group 13" transform="translate(0)">
        <g id="Group_12" data-name="Group 12">
          <path id="Path_3" data-name="Path 3" d="M300.1,339.906A4.573,4.573,0,0,0,296.084,335H272v4.46s.446,2.23,4.906,4.014v-3.568Z" transform="translate(-271.636 -335)" fill="#fff"/>
          <path id="Path_4" data-name="Path 4" d="M271.956,345s1.784,2.676,3.568,2.676h16.948s16.948,8.92,0,19.624H271.956V355.7s4.46.892,4.46,6.244H291.58s8.92-6.244,0-9.812H275.524S270.172,349.46,271.956,345Z" transform="translate(-271.592 -336.08)" fill="#ffc017"/>
        </g>
      </g>
      <path id="Path_8257" data-name="Path 8257" d="M8.862-11.883H1.173V1.388H8.862V-.777H3.831V-4.289H8.292V-6.4H3.831V-9.719H8.862ZM21.715-7.744c0,1.2-.664,1.974-2.145,1.974H17.348V-9.662H19.57C21.051-9.662,21.715-8.921,21.715-7.744Zm-7.025-4.12V1.388h2.658V-3.776H18.6l2.924,5.164H24.6L21.43-3.985A3.827,3.827,0,0,0,24.449-7.8c0-2.221-1.595-4.063-4.784-4.063ZM32.935-5.846V-9.7h2.107c1.5,0,2.164.721,2.164,1.937,0,1.177-.664,1.918-2.164,1.918Zm7.006-1.918c0-2.3-1.595-4.1-4.784-4.1H30.277V1.388h2.658V-3.7h2.221C38.574-3.7,39.941-5.751,39.941-7.763Z" transform="translate(34.484 29.193)" fill="#fff"/>
      <path id="Path_8256" data-name="Path 8256" d="M9.857-2.287c0-4.4-6.4-3-6.4-5.5,0-1.019.733-1.5,1.715-1.465A1.647,1.647,0,0,1,6.963-7.772H9.715c-.161-2.251-1.912-3.556-4.467-3.556-2.573,0-4.4,1.358-4.4,3.609C.834-3.2,7.267-4.824,7.267-2.126c0,.893-.7,1.519-1.876,1.519A1.712,1.712,0,0,1,3.5-2.269H.816C.852.09,2.853,1.448,5.444,1.448,8.285,1.448,9.857-.321,9.857-2.287Zm1.412-1.161c0,3.288,2.251,4.9,4.985,4.9s5.093-1.608,5.093-4.9v-7.7H18.827V-3.43A2.319,2.319,0,0,1,16.29-.821,2.314,2.314,0,0,1,13.771-3.43v-7.719h-2.5ZM29.656-7.272c0,1.126-.625,1.858-2.019,1.858H25.546V-9.077h2.091C29.03-9.077,29.656-8.38,29.656-7.272Zm-6.611-3.877V1.323h2.5v-4.86h1.179l2.752,4.86h2.895L29.388-3.734a3.6,3.6,0,0,0,2.841-3.592c0-2.091-1.5-3.824-4.5-3.824ZM33.783,1.323h2.5V-3.948H40.27V-5.932H36.285v-3.2h5.2v-2.019h-7.7Z" transform="translate(34.507 11.806)" fill="#fff"/>
    </g>
    <text id="HALA_Chatbot" data-name="HALA
Chatbot" transform="translate(425 7105)" fill="#fff" font-size="15" font-family="Poppins-SemiBold, Poppins" font-weight="600"><tspan x="-19.56" y="0">HALA</tspan><tspan x="-31.493" y="17">Chatbot</tspan></text>
    <path id="Rectangle_3287" data-name="Rectangle 3287" d="M85,0h0a85,85,0,0,1,85,85v85a0,0,0,0,1,0,0H85A85,85,0,0,1,0,85v0A85,85,0,0,1,85,0Z" transform="translate(351 6745)" fill="#f5b41d"/>
    <path id="Rectangle_3288" data-name="Rectangle 3288" d="M88,0h0a88,88,0,0,1,88,88v89a0,0,0,0,1,0,0H88A88,88,0,0,1,0,89V88A88,88,0,0,1,88,0Z" transform="translate(866 6645) rotate(90)" fill="#43467b"/>
    <path id="Rectangle_3294" data-name="Rectangle 3294" d="M40,0H227.935A19.065,19.065,0,0,1,247,19.065v1.869A19.065,19.065,0,0,1,227.935,40H0a0,0,0,0,1,0,0v0A40,40,0,0,1,40,0Z" transform="translate(582 6863)" fill="#343433" opacity="0.29"/>
    <path id="Rectangle_3296" data-name="Rectangle 3296" d="M10.486,0H66a0,0,0,0,1,0,0V0A22,22,0,0,1,44,22H10.486A10.486,10.486,0,0,1,0,11.514V10.486A10.486,10.486,0,0,1,10.486,0Z" transform="translate(370 6943)" fill="#343433" opacity="0.29"/>
    <path id="Rectangle_3299" data-name="Rectangle 3299" d="M10.486,0H66a0,0,0,0,1,0,0V0A22,22,0,0,1,44,22H10.486A10.486,10.486,0,0,1,0,11.514V10.486A10.486,10.486,0,0,1,10.486,0Z" transform="translate(811 7135) rotate(180)" fill="#343433" opacity="0.29"/>
    <g id="paypal" transform="translate(734.144 6965.771)">
      <path id="Path_8184" data-name="Path 8184" d="M192.1,76.344a6.185,6.185,0,0,0-6.328-1.351,1.742,1.742,0,0,0-1.17,1.393l-.488,3.35a10.333,10.333,0,0,1-10.183,8.839h-6.965a1.741,1.741,0,0,0-1.689,1.32l-5.224,20.9a1.741,1.741,0,0,0,1.689,2.163h8.707a1.741,1.741,0,0,0,1.689-1.32l3.152-12.611h6.791a11.294,11.294,0,0,0,11.005-8.6l1.285-5.151A9.158,9.158,0,0,0,192.1,76.344Z" transform="translate(-133.876 -64.196)" fill="#03a9f4"/>
      <g id="Group_7602" data-name="Group 7602" transform="translate(0 52.241)">
        <path id="Path_8185" data-name="Path 8185" d="M1.741,348.09a1.741,1.741,0,0,1-1.689-2.163L1.793,339v-.073L3.535,332a1.741,1.741,0,0,1,1.689-1.32h4.43a4.354,4.354,0,0,1,4.225,5.409l-.435,1.741a4.354,4.354,0,0,1-4.224,3.3H4.844l-1.41,5.645A1.741,1.741,0,0,1,1.741,348.09Zm3.974-10.448h3.5a.871.871,0,0,0,.843-.662l.435-1.741a.867.867,0,0,0-.843-1.083H6.585Z" transform="translate(0 -330.677)" fill="#283593"/>
        <path id="Path_8186" data-name="Path 8186" d="M87.277,383.772H84.8a4.827,4.827,0,0,1-4.684-6h0l.23-.926a4.646,4.646,0,0,1,4.527-3.528h2.48a4.827,4.827,0,0,1,4.674,6l-.23.926A4.646,4.646,0,0,1,87.277,383.772Zm-3.782-5.151a1.344,1.344,0,0,0,1.3,1.668h2.48a1.167,1.167,0,0,0,1.135-.885l.23-.926a1.345,1.345,0,0,0-1.3-1.668H84.86a1.167,1.167,0,0,0-1.135.885Z" transform="translate(-66.914 -366.358)" fill="#283593"/>
        <path id="Path_8187" data-name="Path 8187" d="M129.741,383.781a1.741,1.741,0,0,1-1.689-2.163l1.741-6.966a1.743,1.743,0,0,1,3.382.843l-1.741,6.965A1.741,1.741,0,0,1,129.741,383.781Z" transform="translate(-107.104 -366.368)" fill="#283593"/>
      </g>
      <g id="Group_7603" data-name="Group 7603" transform="translate(41.792 52.24)">
        <path id="Path_8188" data-name="Path 8188" d="M257.741,348.089a1.741,1.741,0,0,1-1.689-2.163L257.793,339v-.073L259.535,332a1.741,1.741,0,0,1,1.689-1.32h4.43a4.354,4.354,0,0,1,4.225,5.409l-.435,1.741a4.353,4.353,0,0,1-4.224,3.3h-4.374l-1.41,5.645A1.742,1.742,0,0,1,257.741,348.089Zm3.974-10.448h3.507a.871.871,0,0,0,.843-.662l.435-1.741a.867.867,0,0,0-.843-1.083h-3.072Z" transform="translate(-256 -330.676)" fill="#03a9f4"/>
        <path id="Path_8189" data-name="Path 8189" d="M343.277,383.772H340.8a4.827,4.827,0,0,1-4.684-6h0l.23-.926a4.646,4.646,0,0,1,4.527-3.528h2.48a4.827,4.827,0,0,1,4.684,6l-.23.926A4.646,4.646,0,0,1,343.277,383.772Zm-3.782-5.151a1.344,1.344,0,0,0,1.3,1.668h2.48a1.167,1.167,0,0,0,1.135-.885l.23-.926a1.345,1.345,0,0,0-1.3-1.668h-2.48a1.167,1.167,0,0,0-1.135.885Z" transform="translate(-322.914 -366.358)" fill="#03a9f4"/>
        <path id="Path_8190" data-name="Path 8190" d="M385.741,383.781a1.741,1.741,0,0,1-1.689-2.163l1.741-6.966a1.743,1.743,0,0,1,3.382.843h0l-1.741,6.965A1.741,1.741,0,0,1,385.741,383.781Z" transform="translate(-363.104 -366.368)" fill="#03a9f4"/>
      </g>
      <g id="Group_7604" data-name="Group 7604" transform="translate(27.86 59.204)">
        <path id="Path_8191" data-name="Path 8191" d="M175.886,382.038a1.742,1.742,0,0,1-1.449-.777l-3.483-5.224a1.742,1.742,0,0,1,2.9-1.933l3.483,5.224a1.741,1.741,0,0,1-1.449,2.71Z" transform="translate(-170.661 -373.329)" fill="#283593"/>
        <path id="Path_8192" data-name="Path 8192" d="M172.408,387.278a1.741,1.741,0,0,1-1.337-2.856l8.707-10.448a1.742,1.742,0,1,1,2.675,2.232h0l-8.707,10.448A1.74,1.74,0,0,1,172.408,387.278Z" transform="translate(-170.666 -373.345)" fill="#283593"/>
      </g>
      <path id="Path_8193" data-name="Path 8193" d="M428.407,348.081a1.741,1.741,0,0,1-1.689-2.163l3.483-13.931a1.743,1.743,0,1,1,3.382.843h0L430.1,346.761A1.741,1.741,0,0,1,428.407,348.081Z" transform="translate(-357.013 -278.427)" fill="#03a9f4"/>
      <path id="Path_8194" data-name="Path 8194" d="M141.719,13.688a8.8,8.8,0,0,0-6.638-3.012H115.369a1.741,1.741,0,0,0-1.713,1.431l-6.965,38.31a1.741,1.741,0,0,0,1.713,2.051h10.448a1.741,1.741,0,0,0,1.689-1.32L123.7,38.537h5.6A13.833,13.833,0,0,0,142.934,26.7l.871-5.952h0A8.87,8.87,0,0,0,141.719,13.688Z" transform="translate(-89.25 -10.676)" fill="#283593"/>
    </g>
    <g id="google_analytics-ar21" transform="translate(709.152 6714.703)">
      <g id="Group_7605" data-name="Group 7605" transform="translate(39.482 0)">
        <path id="Path_8195" data-name="Path 8195" d="M74.9,7.506l2.7,7.1H72.367l2.536-7.1ZM73.888,5.128,67.973,20.673h2.2L71.69,16.45h6.589L79.8,20.673H82L76.082,5.128h-2.2Zm31.928,15.558h2.038V5.139h-2.038V20.684ZM85.04,11.55a4.325,4.325,0,0,1,3.38-1.859c2.7,0,4.055,1.859,4.055,4.563v6.589H90.437V14.591c0-2.2-1.183-3.042-2.7-3.042a3.147,3.147,0,0,0-2.872,3.211v5.915H82.823V9.874h2.038l.17,1.69Zm9.125,5.926c0-2.378,2.2-3.718,4.733-3.718a4.616,4.616,0,0,1,2.872.676v-.34a2.526,2.526,0,0,0-2.7-2.536,2.477,2.477,0,0,0-2.536,1.521l-1.859-.845c.34-1.014,1.69-2.536,4.393-2.536,2.536,0,4.733,1.521,4.733,4.563v6.422h-1.859V19.161h-.17a4.071,4.071,0,0,1-3.548,1.859c-2.2,0-4.055-1.352-4.055-3.548m7.6-1.352a4.248,4.248,0,0,0-2.536-.676c-2.038,0-2.872,1.183-2.872,2.038,0,1.183,1.183,1.69,2.2,1.69a3.3,3.3,0,0,0,3.211-3.042" transform="translate(-67.973 20.325)" fill="#fff"/>
        <path id="Path_8196" data-name="Path 8196" d="M105.95,24.926l2.378-5.576-4.223-9.8h2.038l3.211,7.435,3.211-7.435H114.6l-6.589,15.377h-2.038Zm29.742-11.831a3.207,3.207,0,0,0-2.872-2.2,3.456,3.456,0,0,0-3.211,3.718,3.456,3.456,0,0,0,3.211,3.718,3.27,3.27,0,0,0,2.872-2.038l1.69,1.014a4.964,4.964,0,0,1-4.563,3.042,5.5,5.5,0,0,1-5.239-5.746c0-3.38,2.378-5.746,5.239-5.746a4.952,4.952,0,0,1,4.563,3.042l-1.69,1.183Z" transform="translate(-63.197 20.818)" fill="#fff" fill-rule="evenodd"/>
        <path id="Path_8197" data-name="Path 8197" d="M140.671,20.511c2.7,0,4.056-1.521,4.056-3.38,0-4.055-5.915-2.536-5.915-4.9,0-.845.676-1.352,1.859-1.352a3.364,3.364,0,0,1,2.872,1.352l1.183-1.183A6.289,6.289,0,0,0,140.5,9.01c-2.536,0-3.887,1.521-3.887,3.38,0,3.887,6.083,2.536,6.083,4.563,0,1.014-.676,1.69-2.038,1.69a3.321,3.321,0,0,1-2.7-1.69l-1.5,1.194c1.014,1.014,2.536,2.378,4.223,2.378Zm-19.264-.337h2.038V9.359h-2.038Z" transform="translate(-60.91 20.838)" fill="#fff"/>
        <path id="Path_8198" data-name="Path 8198" d="M123.24,4.7a1.352,1.352,0,1,1,0,2.7,1.454,1.454,0,0,1-1.352-1.352A1.454,1.454,0,0,1,123.24,4.7Zm-2.872,14.364.34,1.521H118.67c-1.859,0-2.7-1.352-2.7-3.38V11.946h-2.038V9.908h2.038V6.718H118V9.928h2.378v2.038H118v5.576c0,1.521,1.183,1.521,2.378,1.521Z" transform="translate(-61.899 20.268)" fill="#fff" fill-rule="evenodd"/>
        <path id="Path_8199" data-name="Path 8199" d="M78.113-9.076V-6.54h5.915A5.078,5.078,0,0,1,82.676-3.5a6.069,6.069,0,0,1-4.563,1.859,6.457,6.457,0,0,1-6.422-6.589,6.564,6.564,0,0,1,6.422-6.589,6.534,6.534,0,0,1,4.393,1.69l1.69-1.69a8.788,8.788,0,0,0-6.083-2.536,9.161,9.161,0,0,0-9.125,8.944A9.159,9.159,0,0,0,78.113.535,7.9,7.9,0,0,0,84.365-2a7.981,7.981,0,0,0,2.2-5.746,4.172,4.172,0,0,0-.17-1.521h-8.28Zm15.038-2.038a5.6,5.6,0,0,0-5.746,5.746A5.6,5.6,0,0,0,93.151.378,5.7,5.7,0,0,0,97.229-1.29,5.7,5.7,0,0,0,98.9-5.368,5.6,5.6,0,0,0,93.151-11.114Zm0,9.284A3.4,3.4,0,0,1,89.94-5.378a3.393,3.393,0,0,1,3.211-3.537,3.3,3.3,0,0,1,3.212,3.544,3.305,3.305,0,0,1-3.211,3.548Zm27.7-8.1a4.386,4.386,0,0,0-3.211-1.352,5.636,5.636,0,0,0-5.407,5.746A5.637,5.637,0,0,0,117.645.208a3.98,3.98,0,0,0,3.042-1.352h.17V-.3c0,2.2-1.183,3.38-3.042,3.38a3.225,3.225,0,0,1-2.872-2.038l-2.2.845a5.593,5.593,0,0,0,5.07,3.38c3.042,0,5.576-1.69,5.576-6.083V-11.292h-2.378v1.352Zm-2.872,8.111a3.276,3.276,0,0,1-3.042-3.548,3.276,3.276,0,0,1,3.042-3.548,3.276,3.276,0,0,1,3.042,3.548A3.276,3.276,0,0,1,117.983-1.821ZM105.646-11.1A5.6,5.6,0,0,0,99.9-5.359,5.6,5.6,0,0,0,105.646.387a5.7,5.7,0,0,0,4.078-1.668,5.7,5.7,0,0,0,1.668-4.078A5.5,5.5,0,0,0,105.646-11.1Zm0,9.284a3.4,3.4,0,0,1-3.211-3.548,3.4,3.4,0,0,1,3.211-3.548,3.3,3.3,0,0,1,3.211,3.548A3.3,3.3,0,0,1,105.646-1.821Zm19.625-15.366h2.536V.387h-2.536Zm9.463,15.377a3.27,3.27,0,0,1-2.872-1.69l7.774-3.211-.34-.676a5.443,5.443,0,0,0-4.9-3.718,5.431,5.431,0,0,0-5.407,5.746,5.7,5.7,0,0,0,1.668,4.078A5.7,5.7,0,0,0,134.734.387a6.147,6.147,0,0,0,4.9-2.536L137.6-3.5a3.27,3.27,0,0,1-2.872,1.69Zm-.17-7.1a2.263,2.263,0,0,1,2.2,1.352l-5.239,2.2C131.522-7.9,133.212-8.908,134.564-8.908Z" transform="translate(-67.839 17.353)" fill="#fff"/>
      </g>
      <g id="Group_7607" data-name="Group 7607" transform="translate(0 0.967)">
        <path id="Path_8200" data-name="Path 8200" d="M25.821,6.311V35.995c0,3.321,2.294,5.172,4.722,5.172,2.249,0,4.722-1.574,4.722-5.172V6.536a4.728,4.728,0,0,0-4.722-4.947A4.8,4.8,0,0,0,25.821,6.311Z" transform="translate(-1.084 -1.589)" fill="#f9ab00"/>
        <g id="Group_7606" data-name="Group 7606" transform="translate(0 15.067)">
          <path id="Path_8201" data-name="Path 8201" d="M14.9,19.619V34.236c0,3.321,2.294,5.172,4.722,5.172,2.249,0,4.722-1.574,4.722-5.172V19.844A4.728,4.728,0,0,0,19.619,14.9,4.8,4.8,0,0,0,14.9,19.619Z" transform="translate(-2.528 -14.897)" fill="#e37400"/>
          <circle id="Ellipse_263" data-name="Ellipse 263" cx="4.722" cy="4.722" r="4.722" transform="translate(0 15.067)" fill="#e37400"/>
        </g>
      </g>
    </g>
    <g id="chatbot" transform="translate(382.411 6997.158)">
      <path id="Path_8202" data-name="Path 8202" d="M53.736,22A42.735,42.735,0,0,0,26.45,97.627l.174-.082v-2.3a6.81,6.81,0,0,1,6.8-6.8H74.044a6.81,6.81,0,0,1,6.8,6.8v2.3l.174.082A42.735,42.735,0,0,0,53.736,22Z" transform="translate(-11 -22)" fill="#26a6fe"/>
      <g id="Group_7641" data-name="Group 7641" transform="translate(9.62 26.339)">
        <g id="Group_7627" data-name="Group 7627" transform="translate(19.51 36.547)">
          <path id="Path_8203" data-name="Path 8203" d="M178,382.523h27.211v3.56H178Z" transform="translate(-178 -382.523)" fill="#fff"/>
        </g>
        <g id="Group_7628" data-name="Group 7628" transform="translate(19.51 36.547)">
          <path id="Path_8204" data-name="Path 8204" d="M178,382.523h6.977v3.56H178Z" transform="translate(-178 -382.523)" fill="#eaf6ff"/>
        </g>
        <g id="Group_7629" data-name="Group 7629" transform="translate(5.83 39.933)">
          <path id="Path_8205" data-name="Path 8205" d="M147.169,401.93H106.553a6.977,6.977,0,0,0-6.977,6.977v2.378a42.735,42.735,0,0,0,54.57,0v-2.378A6.977,6.977,0,0,0,147.169,401.93Z" transform="translate(-99.576 -401.93)" fill="#d8ecfe"/>
        </g>
        <path id="Path_8206" data-name="Path 8206" d="M106.829,408.907a6.977,6.977,0,0,1,6.977-6.977h-7.252a6.977,6.977,0,0,0-6.977,6.977v2.378a42.84,42.84,0,0,0,7.252,4.864Z" transform="translate(-93.747 -361.997)" fill="#c4e2ff"/>
        <g id="Group_7630" data-name="Group 7630" transform="translate(27.25 46.224)">
          <path id="Path_8207" data-name="Path 8207" d="M228.9,445.228l4.992-5.786a.872.872,0,0,0-.66-1.442h-9.984a.872.872,0,0,0-.66,1.442l4.992,5.786A.872.872,0,0,0,228.9,445.228Z" transform="translate(-222.373 -438)" fill="#fff"/>
        </g>
        <path id="Path_8208" data-name="Path 8208" d="M226.185,439.442a.872.872,0,0,1,.66-1.442h-3.6a.872.872,0,0,0-.66,1.442l4.992,5.786a.872.872,0,0,0,1.321,0l1.139-1.32Z" transform="translate(-195.124 -391.776)" fill="#eaf6ff"/>
        <g id="Group_7633" data-name="Group 7633" transform="translate(0 16.92)">
          <g id="Group_7631" data-name="Group 7631">
            <path id="Path_8209" data-name="Path 8209" d="M71.691,281.639v-7.571a20.828,20.828,0,0,1,.4-4.069H70.817a4.664,4.664,0,0,0-4.664,4.664v3.964a4.664,4.664,0,0,0,4.664,4.664h1.047A7.978,7.978,0,0,1,71.691,281.639Z" transform="translate(-66.153 -269.999)" fill="#fff"/>
          </g>
          <g id="Group_7632" data-name="Group 7632" transform="translate(60.292 0)">
            <path id="Path_8210" data-name="Path 8210" d="M413.076,270H411.8a20.826,20.826,0,0,1,.4,4.069v7.571a7.992,7.992,0,0,1-.173,1.653h1.047a4.664,4.664,0,0,0,4.664-4.664v-3.964A4.664,4.664,0,0,0,413.076,270Z" transform="translate(-411.802 -270)" fill="#fff"/>
          </g>
        </g>
        <g id="Group_7634" data-name="Group 7634" transform="translate(5.364 0)">
          <path id="Path_8211" data-name="Path 8211" d="M144.244,209.722H105.065A8.162,8.162,0,0,1,96.9,201.56v-7.571A20.989,20.989,0,0,1,117.891,173h13.526a20.989,20.989,0,0,1,20.989,20.989v7.571A8.162,8.162,0,0,1,144.244,209.722Z" transform="translate(-96.903 -173)" fill="#d8ecfe"/>
        </g>
        <path id="Path_8212" data-name="Path 8212" d="M105.99,201.559v-2.713a11.346,11.346,0,0,1,3.368-16.263A20.971,20.971,0,0,1,126.978,173h-9.087A20.989,20.989,0,0,0,96.9,193.989v7.571a8.162,8.162,0,0,0,8.162,8.162h9.088a8.162,8.162,0,0,1-8.162-8.162Z" transform="translate(-91.538 -173)" fill="#c4e2ff"/>
        <g id="Group_7635" data-name="Group 7635" transform="translate(12.36 7.924)">
          <path id="Path_8213" data-name="Path 8213" d="M148.376,241.159a11.365,11.365,0,1,1,0-22.729h18.781a11.365,11.365,0,1,1,0,22.729Z" transform="translate(-137.011 -218.43)" fill="#116d9a"/>
        </g>
        <g id="Group_7636" data-name="Group 7636" transform="translate(12.36 7.924)">
          <path id="Path_8214" data-name="Path 8214" d="M144.335,229.795A11.378,11.378,0,0,1,155.7,218.43h-7.324a11.365,11.365,0,1,0,0,22.729H155.7A11.378,11.378,0,0,1,144.335,229.795Z" transform="translate(-137.011 -218.43)" fill="#005e89"/>
        </g>
        <g id="Group_7637" data-name="Group 7637" transform="translate(25.886 20.572)">
          <path id="Path_8215" data-name="Path 8215" d="M227.847,295.133H215.72a1.166,1.166,0,0,1-1.166-1.166V292.1a1.166,1.166,0,0,1,1.166-1.166h12.127a1.166,1.166,0,0,1,1.166,1.166v1.866A1.166,1.166,0,0,1,227.847,295.133Z" transform="translate(-214.554 -290.935)" fill="#fed402"/>
        </g>
        <g id="Group_7640" data-name="Group 7640" transform="translate(19.648 13.809)">
          <g id="Group_7638" data-name="Group 7638">
            <path id="Path_8216" data-name="Path 8216" d="M182.989,257.528h-3.032a1.166,1.166,0,0,1-1.166-1.166V253.33a1.166,1.166,0,0,1,1.166-1.166h3.032a1.166,1.166,0,0,1,1.166,1.166v3.032A1.166,1.166,0,0,1,182.989,257.528Z" transform="translate(-178.791 -252.164)" fill="#fed402"/>
          </g>
          <g id="Group_7639" data-name="Group 7639" transform="translate(21.572)">
            <path id="Path_8217" data-name="Path 8217" d="M306.657,257.528h-3.032a1.166,1.166,0,0,1-1.166-1.166V253.33a1.166,1.166,0,0,1,1.166-1.166h3.032a1.166,1.166,0,0,1,1.166,1.166v3.032A1.166,1.166,0,0,1,306.657,257.528Z" transform="translate(-302.459 -252.164)" fill="#fed402"/>
          </g>
        </g>
      </g>
    </g>
    <g id="mastercard" transform="translate(596.457 7081.079)">
      <circle id="Ellipse_266" data-name="Ellipse 266" cx="27.036" cy="27.036" r="27.036" transform="translate(-0.001 0)" fill="#3c80ad"/>
      <path id="Path_8233" data-name="Path 8233" d="M63.634,121.955a12.452,12.452,0,1,0,8.44,21.659h0a12.5,12.5,0,0,0,1.262-1.334H70.792A12.054,12.054,0,0,1,69.865,141h4.39a12.452,12.452,0,0,0,.724-1.332H69.141a12.12,12.12,0,0,1-.52-1.308H75.5a12.425,12.425,0,0,0,.639-3.949,12.562,12.562,0,0,0-.286-2.667h-7.6a12.679,12.679,0,0,1,.354-1.308h6.881a12.48,12.48,0,0,0-.536-1.333H69.14a12.011,12.011,0,0,1,.712-1.308H74.24a12.373,12.373,0,0,0-.964-1.332H70.83a11.383,11.383,0,0,1,1.246-1.257,12.358,12.358,0,0,0-8.361-3.246Z" transform="translate(-45.437 -108.041)" fill="#931b1d"/>
      <path id="Path_8234" data-name="Path 8234" d="M222.228,134.411a12.425,12.425,0,1,1-24.85.005v-.005a12.425,12.425,0,1,1,24.85-.007S222.228,134.407,222.228,134.411Z" transform="translate(-174.86 -108.041)" fill="#f16622"/>
      <path id="Path_8235" data-name="Path 8235" d="M222.228,135.622a12.425,12.425,0,1,1-24.85.006v-.006a12.425,12.425,0,1,1,24.85-.007S222.228,135.62,222.228,135.622Z" transform="translate(-174.86 -109.115)" fill="#f7981d"/>
      <path id="Path_8236" data-name="Path 8236" d="M63.634,123.193a12.452,12.452,0,1,0,8.44,21.659h0a12.311,12.311,0,0,0,1.262-1.334H70.792a11.952,11.952,0,0,1-.927-1.282h4.39a12.558,12.558,0,0,0,.724-1.334H69.141a12.219,12.219,0,0,1-.52-1.308H75.5a12.432,12.432,0,0,0,.639-3.95,12.558,12.558,0,0,0-.286-2.667h-7.6a12.679,12.679,0,0,1,.354-1.308h6.881a12.5,12.5,0,0,0-.536-1.334H69.14a12.127,12.127,0,0,1,.712-1.308H74.24a12.6,12.6,0,0,0-.964-1.333H70.83a11.533,11.533,0,0,1,1.246-1.257,12.359,12.359,0,0,0-8.361-3.246Z" transform="translate(-45.437 -109.138)" fill="#cb2026"/>
      <g id="Group_7663" data-name="Group 7663" transform="translate(7.03 23.291)">
        <path id="Path_8237" data-name="Path 8237" d="M183.473,214.808l.166-1.127c-.09,0-.224.038-.341.038-.46,0-.511-.245-.482-.426l.372-2.3h.7l.169-1.247h-.66l.134-.774h-1.323c-.029.029-.781,4.36-.781,4.886a.983.983,0,0,0,1.054,1.124A3.474,3.474,0,0,0,183.473,214.808Z" transform="translate(-167.759 -208.422)" fill="#fff"/>
        <path id="Path_8238" data-name="Path 8238" d="M203.035,217.534a2.079,2.079,0,0,0,2.285,2.319,3.347,3.347,0,0,0,1.4-.218l.234-1.279a4.092,4.092,0,0,1-1.4.328c-1.42,0-1.171-1.062-1.171-1.062h2.689a9.613,9.613,0,0,0,.173-1.21,1.776,1.776,0,0,0-1.886-1.938C204.019,214.475,203.035,215.911,203.035,217.534Zm2.32-1.873c.746,0,.608.841.608.909H204.5C204.495,216.484,204.633,215.662,205.355,215.662Z" transform="translate(-186.901 -213.297)" fill="#fff"/>
        <path id="Path_8239" data-name="Path 8239" d="M269.32,210.535l.237-1.447a3.167,3.167,0,0,1-1.095.328,1.312,1.312,0,0,1-1.315-1.49c0-1.566.807-2.427,1.707-2.427a2.351,2.351,0,0,1,1.215.38l.216-1.4a4.731,4.731,0,0,0-1.49-.326c-1.527,0-3.014,1.326-3.014,3.822,0,1.652.8,2.745,2.382,2.745A6.082,6.082,0,0,0,269.32,210.535Z" transform="translate(-242.489 -204.149)" fill="#fff"/>
        <path id="Path_8240" data-name="Path 8240" d="M116.5,214.654a4.57,4.57,0,0,0-1.6.292l-.192,1.142a4.182,4.182,0,0,1,1.442-.233c.493,0,.852.055.852.457a.853.853,0,0,1-.044.333s-.388-.033-.568-.033c-1.144,0-2.346.489-2.346,1.965a1.257,1.257,0,0,0,1.277,1.429,1.718,1.718,0,0,0,1.357-.609l-.044.507h1.165l.52-3.652A1.565,1.565,0,0,0,116.5,214.654Zm.284,2.972c.025.223-.14,1.269-.937,1.269a.483.483,0,0,1-.518-.5c0-.362.2-.8,1.167-.8A.861.861,0,0,1,116.78,217.626Z" transform="translate(-108.058 -213.455)" fill="#fff"/>
        <path id="Path_8241" data-name="Path 8241" d="M150.836,220.045c.3,0,2,.076,2-1.685,0-1.647-1.577-1.322-1.577-1.984,0-.328.257-.433.727-.433.187,0,.9.06.9.06l.167-1.171a6.187,6.187,0,0,0-1.22-.1c-.98,0-1.972.39-1.972,1.73,0,1.519,1.656,1.366,1.656,2.005,0,.427-.463.462-.82.462a4.3,4.3,0,0,1-1.174-.2l-.176,1.158A4.132,4.132,0,0,0,150.836,220.045Z" transform="translate(-139.343 -213.521)" fill="#fff"/>
        <path id="Path_8242" data-name="Path 8242" d="M363.451,205.423l-.285,1.774a1.748,1.748,0,0,0-1.277-.689c-1.213,0-2.223,1.464-2.223,3.148,0,1.086.538,2.15,1.641,2.15a1.65,1.65,0,0,0,1.231-.554l-.058.473h1.287l1.011-6.3Zm-.614,3.461c0,.7-.347,1.634-1.063,1.634-.476,0-.7-.4-.7-1.029,0-1.027.46-1.707,1.041-1.707C362.592,207.782,362.837,208.111,362.837,208.884Z" transform="translate(-325.662 -205.275)" fill="#fff"/>
        <path id="Path_8243" data-name="Path 8243" d="M62.894,211.72l.806-4.76.117,4.76h.912l1.7-4.76-.753,4.76H67.03l1.044-6.312H65.979l-1.3,3.872-.068-3.872h-1.93l-1.058,6.312Z" transform="translate(-61.619 -205.264)" fill="#fff"/>
        <path id="Path_8244" data-name="Path 8244" d="M240.905,220.387c.385-2.194.456-3.976,1.376-3.651a5.138,5.138,0,0,1,.491-1.537,1.375,1.375,0,0,0-.255-.017c-.591,0-1.031.811-1.031.811l.117-.745h-1.232l-.824,5.139Z" transform="translate(-219.247 -213.923)" fill="#fff"/>
        <path id="Path_8245" data-name="Path 8245" d="M304.459,214.654a4.566,4.566,0,0,0-1.6.292l-.191,1.142a4.172,4.172,0,0,1,1.441-.233c.492,0,.853.055.853.457a.845.845,0,0,1-.044.333s-.388-.033-.57-.033c-1.144,0-2.345.489-2.345,1.965a1.257,1.257,0,0,0,1.277,1.429,1.715,1.715,0,0,0,1.357-.609l-.043.507h1.165l.52-3.652A1.565,1.565,0,0,0,304.459,214.654Zm.284,2.972c.025.223-.139,1.269-.937,1.269a.482.482,0,0,1-.517-.5c0-.362.2-.8,1.165-.8A.864.864,0,0,1,304.743,217.626Z" transform="translate(-274.576 -213.455)" fill="#fff"/>
        <path id="Path_8246" data-name="Path 8246" d="M338.252,220.387c.385-2.194.457-3.976,1.376-3.651a5.107,5.107,0,0,1,.492-1.537,1.4,1.4,0,0,0-.256-.017c-.593,0-1.031.811-1.031.811l.118-.745h-1.233l-.825,5.139h1.358Z" transform="translate(-305.488 -213.923)" fill="#fff"/>
      </g>
    </g>
    <g id="visa" transform="translate(384.09 6799.95)">
      <path id="Path_8247" data-name="Path 8247" d="M115.041,151.988a6.8,6.8,0,0,1-6.8,6.8H6.8a6.8,6.8,0,0,1-6.8-6.8V86.251a6.8,6.8,0,0,1,6.8-6.8H108.241a6.8,6.8,0,0,1,6.8,6.8v65.736Z" transform="translate(0 -79.451)" fill="#fff"/>
      <path id="Path_8248" data-name="Path 8248" d="M49.182,205.079l-2.7-12.958c-.462-1.787-1.805-2.319-3.484-2.389H30.612l-.11.592C40.148,192.662,46.53,198.3,49.182,205.079Z" transform="translate(-23.649 -164.953)" fill="#f79f1a"/>
      <g id="Group_7664" data-name="Group 7664" transform="translate(0 0)">
        <path id="Path_8249" data-name="Path 8249" d="M196.5,190.892h-8l-5,29.328h7.989Z" transform="translate(-142.269 -165.852)" fill="#059bbf"/>
        <path id="Path_8250" data-name="Path 8250" d="M81.454,220.26l12.585-29.279H85.57l-7.829,20-.836-3.02c-1.535-3.633-5.921-8.863-11.07-12.155l7.156,24.46Z" transform="translate(-51.043 -165.921)" fill="#059bbf"/>
        <path id="Path_8251" data-name="Path 8251" d="M264.179,208.9c.03-3.33-2.108-5.869-6.715-7.967-2.8-1.355-4.506-2.258-4.486-3.633,0-1.215,1.445-2.519,4.577-2.519a14.759,14.759,0,0,1,5.982,1.124l.723.331,1.084-6.354a20.724,20.724,0,0,0-7.166-1.225c-7.9,0-13.46,3.975-13.51,9.676-.05,4.216,3.975,6.565,7.006,7.97,3.111,1.432,4.155,2.349,4.135,3.633-.02,1.964-2.479,2.86-4.778,2.86a16.773,16.773,0,0,1-7.529-1.538l-1.022-.47-1.123,6.572a25.22,25.22,0,0,0,8.9,1.558C258.658,218.921,264.119,215,264.179,208.9Z" transform="translate(-187.126 -164.121)" fill="#059bbf"/>
        <path id="Path_8252" data-name="Path 8252" d="M350.462,215.929c.913,0,9.073.01,10.238.01.241,1.021.974,4.4.974,4.4h7.417l-6.474-29.308h-6.173c-1.917,0-3.342.522-4.185,2.429l-11.874,26.879h8.4S350.151,216.722,350.462,215.929Zm5.48-14.2c-.04.08.663-1.7,1.064-2.8l.542,2.529s1.526,7.006,1.847,8.472H352.76C353.423,208.241,355.942,201.726,355.942,201.726Z" transform="translate(-263.904 -165.957)" fill="#059bbf"/>
        <path id="Path_8253" data-name="Path 8253" d="M108.241,79.451H6.8a6.8,6.8,0,0,0-6.8,6.8v7.058H115.041V86.251A6.8,6.8,0,0,0,108.241,79.451Z" transform="translate(0 -79.451)" fill="#059bbf"/>
      </g>
      <path id="Path_8254" data-name="Path 8254" d="M108.241,384.729H6.8a6.8,6.8,0,0,1-6.8-6.8v-7.058H115.041v7.058A6.8,6.8,0,0,1,108.241,384.729Z" transform="translate(0 -305.392)" fill="#f79f1a"/>
      <path id="Path_8255" data-name="Path 8255" d="M4.835,151.988V86.251a6.8,6.8,0,0,1,6.8-6.8H6.8a6.8,6.8,0,0,0-6.8,6.8v65.736a6.8,6.8,0,0,0,6.8,6.8h4.835A6.8,6.8,0,0,1,4.835,151.988Z" transform="translate(0 -79.451)" fill="#202121" opacity="0.15"/>
    </g>
  </g>
</svg>
