<svg xmlns="http://www.w3.org/2000/svg" width="808.249" height="413.008" viewBox="0 0 808.249 413.008">
  <g id="page-4-img" transform="translate(-879.751 -123.338)">
    <path id="Path_7029" data-name="Path 7029" d="M937.974,788.051,789.31,787.6l-68-.206-14.6-.044-52.95-.159-64.531-.2-55.94-.166-3.169-.011-14.754-.044-129.436-.391-64.982-.2-6.13-.018-35.6-.107-92.779-.28S71.345,518.925,226.931,420.126c200.431-127.278,343.364,56.09,420.142,49.142C759.992,459.048,980.975,381.69,937.974,788.051Z" transform="translate(734.29 -251.705)" fill="#f6f6f6"/>
    <g id="Group_4417" data-name="Group 4417" transform="translate(1425.063 309.045)">
      <path id="Path_7030" data-name="Path 7030" d="M2163.668,825.461s38.207-58.343,54.565-50.707S2163.668,825.461,2163.668,825.461Z" transform="translate(-2153.302 -774.064)" fill="#dfebfd"/>
      <path id="Path_7031" data-name="Path 7031" d="M2158.435,868.3s81.906-62.47,108.651-45.891-20.658,24.891-38.547,26.535S2158.435,868.3,2158.435,868.3Z" transform="translate(-2149.509 -807.071)" fill="#dfebfd"/>
      <path id="Path_7032" data-name="Path 7032" d="M2128.743,854.594s-.111-2.4-.316-5.915c-.4-6.848-1.16-17.9-2.157-23.519-1.508-8.495,3.839-16.034,13.249-9.235s-8.469,35.7-8.469,35.7Z" transform="translate(-2126.017 -802.49)" fill="#dfebfd"/>
    </g>
    <path id="Path_7033" data-name="Path 7033" d="M944.873,1454.614l-37.327-.1a11.8,11.8,0,0,0-3.521-.009l-20.453-.054c-7.291-5.41-8.415-21.845-8.415-21.845,6.131,4.353,19.6,4.6,20.838,2.4s-16.951-7.9-19.544-9.53-5.683-8.9,1.076-19.188,24.66-.518,24.66-.518,6.464,24,10.075,25.708-1.52-21.6-1.52-21.6c7.526,1.684,23.183,16.713,23.183,16.713s-8.73,22.672-4.812,23.434,6.7-20.469,6.7-20.469c6.365,4.431,10.254,14.824,10.254,14.824A13.626,13.626,0,0,1,944.873,1454.614Z" transform="translate(206.745 -919.754)" fill="#cde0fb"/>
    <path id="Path_7034" data-name="Path 7034" d="M474.812,639.457c9.373-16.1,37.219-2.795,37.219-2.795s11.727,35.741,17.321,38.021-4.059-32.515-4.059-32.515c11.507,1.93,36.392,23.364,36.392,23.364s-11.343,34.969-5.359,35.8,8.463-31.476,8.463-31.476c9.978,6.175,16.7,21.561,16.7,21.561,7.118,24.027-24.1,31.926-24.1,31.926s-3.669,12.2.134,28.356h0a43.355,43.355,0,0,1,1.566,7.963l-2.959-.8c-.028-.859-.088-1.7-.186-2.513a.017.017,0,0,0,0-.015c0-.012,0-.024,0-.036-.08-.512-.2-1.241-.346-2.131v0s0,0,0,0c-.428-2.013-.687-3.484-.82-4.532a.026.026,0,0,1,0-.009c-1.215-6.284-3.171-14.571-5.365-16.789a5.924,5.924,0,0,0,1-1.187l-1,1.187c-7.984,9.492-33.8,4.491-47.127-2.2s-6.111-9.014,3.223-13.43,24.8,1.567,30.18.3-.809-5.649-10.41-7.454-16.834,6.336-32.418,3.7-19.476-34.333-19.476-34.333c9.617,6.077,29.986,5.347,31.682,1.924S478.8,670.79,474.752,668.537,465.44,655.558,474.812,639.457Z" transform="translate(499.417 -361.706)" fill="#dfebfd"/>
    <path id="Path_7035" data-name="Path 7035" d="M1252.737,940.111c10.883-14.995,37.105.953,37.105.953s8.033,36.536,13.34,39.35-.768-32.578-.768-32.578c11.193,3.06,33.674,26.753,33.674,26.753s-14.717,33.467-8.88,34.889,11.519-30.3,11.519-30.3c9.256,7.106,14.373,23,14.373,23,4.642,24.485-27.038,29.181-27.038,29.181s-4.85,11.708-2.7,28.071h0a43.135,43.135,0,0,1,.755,8.036l-2.849-1.083c.058-.852.082-1.688.068-2.505a.018.018,0,0,0,0-.015c0-.012,0-.024,0-.036-.028-.514-.07-1.247-.13-2.143v0s0,0,0,0c-.222-2.034-.332-3.516-.358-4.566a.028.028,0,0,1,0-.01c-.575-6.339-1.682-14.734-3.632-17.148a5.9,5.9,0,0,0,1.106-1.075l-1.106,1.075c-8.848,8.594-33.887,1.067-46.41-6.882s-5.146-9.53,4.531-12.967,24.377,4.028,29.831,3.311-.236-5.67-9.555-8.416-17.289,4.587-32.445.42-15.841-35.917-15.841-35.917c8.908,6.974,29.136,8.287,31.156,5.069s-24.927-13.064-28.71-15.7S1241.854,955.106,1252.737,940.111Z" transform="translate(-63.051 -580.692)" fill="#dfebfd"/>
    <g id="Group_4418" data-name="Group 4418" transform="translate(1244.03 507.507)">
      <path id="Path_7036" data-name="Path 7036" d="M1486.714,1525.828s-3.947,13.84-3.187,19.218l-14.946-.039a13.526,13.526,0,0,1,2.947-9.713S1479.169,1527.354,1486.714,1525.828Z" transform="translate(-1468.514 -1517.306)" fill="#dfebfd"/>
      <path id="Path_7037" data-name="Path 7037" d="M1591.367,1522.774l-56.667-.148c2.243-5.71,2.871-21.185,2.871-21.185s20.188-7.525,27.707-6.094c0,0-13.857,19.214-9.9,19.083s19.31-19.451,19.31-19.451,20.162-1.852,22.264,10.189C1598.843,1515.975,1594.459,1521.435,1591.367,1522.774Z" transform="translate(-1516.477 -1494.876)" fill="#dfebfd"/>
    </g>
    <path id="Path_7038" data-name="Path 7038" d="M2031.572,1581.141l-53.637-.141c3.476-1.486,8.015-2.888,12.886-4.552C2003.026,1572.277,2019.659,1578.027,2031.572,1581.141Z" transform="translate(-593.645 -1045.42)" fill="#dfebfd"/>
    <path id="Path_7039" data-name="Path 7039" d="M1947.562,1309.062l-48.552-.13c1.013-2.149-5.182-6.55-14.149-9.311-11.416-3.515-21.322,5.383-39.893.035s-18.939-44.388-18.939-44.388c10.845,8.705,35.692,10.621,38.224,6.693s-30.45-16.428-35.059-19.723-9.528-17.048,4.071-35.319,45.6,1.72,45.6,1.72,9.331,45.033,15.813,48.573-.461-40.06-.461-40.06c13.716,3.927,41,33.387,41,33.387s-18.587,40.922-11.432,42.756,14.609-37.074,14.609-37.074c11.274,8.873,17.327,28.489,17.327,28.489C1957.708,1295.935,1953.558,1303.716,1947.562,1309.062Z" transform="translate(-482.381 -773.117)" fill="#dfebfd"/>
    <g id="Group_4425" data-name="Group 4425" transform="translate(943.066 364.223)">
      <g id="Group_4424" data-name="Group 4424" transform="translate(6.755 0)">
        <g id="Group_4423" data-name="Group 4423">
          <g id="Group_4422" data-name="Group 4422">
            <path id="Path_7040" data-name="Path 7040" d="M605.406,1133.61c0-.1-1.481-3.164-1.01-3.4s1.315-.2,1.414.337A18.721,18.721,0,0,1,605.406,1133.61Z" transform="translate(-548.04 -1087.23)" fill="#ffb27d"/>
            <path id="Path_7041" data-name="Path 7041" d="M480.1,988.889s-8.686-10.438-13.284-3.759c0,0-3.431,1.423-4.671,7.262-1.266,5.958,2.7,10.486,4.744,9.367,1.314-.718,2.308,1.581,2.308,1.581Z" transform="translate(-444.841 -980.578)" fill="#233862"/>
            <path id="Path_7042" data-name="Path 7042" d="M544.552,1123.764c6.906-2.544,13.557-14.361,13.557-14.361l-2.178-1.524c-1.814,2.653-9.974,7.748-9.974,7.748-.186-2.236-.457-4.265-.791-6.1-2.265-12.489-7.448-16.189-8.839-16.974a3.159,3.159,0,0,0-.351-.178s0,.092.015.266c.02.376.064,1.133.137,2.171C536.667,1102.542,538.781,1125.892,544.552,1123.764Z" transform="translate(-498.524 -1059.91)" fill="#ffb27d"/>
            <path id="Path_7043" data-name="Path 7043" d="M457.377,977.965s-1.168-4.672-8.029-3.212c0,0,3.285-.414,4.185.851,0,0-2.6-1.192-4.233-.195s-1.9,4.355-1.654,5.377,2.044,4.063,3.236,4.063a5.486,5.486,0,0,0,2.6-1.046Z" transform="translate(-434.458 -974.47)" fill="#233862"/>
            <path id="Path_7044" data-name="Path 7044" d="M445.71,1107.44c3.412-7.651,5.044-9.814,5.1-12.221.045-1.9-.894-3.958-2.717-8.994a18.776,18.776,0,0,1-.908-3.641c-1.442-9.709,4.172-20.205,7.662-20.921.971-.256,2.617-3.764,2.6-9.414l.437.086,7.348,1.455s-.167,2.313-.172,4.491c0,1.816.1,3.536.516,3.753.529.048.841.079.841.079s6.127,8.509,6.642,16.422-4.906,11.352.041,27.166C478.148,1121.853,443.825,1111.667,445.71,1107.44Z" transform="translate(-433.057 -1030.834)" fill="#ffb27d"/>
            <path id="Path_7045" data-name="Path 7045" d="M497.463,1054.016s-.167,2.313-.172,4.491c-4.112-.116-6.285-3.867-7.176-5.946Z" transform="translate(-465.291 -1031.06)" fill="#e8945b"/>
            <path id="Path_7046" data-name="Path 7046" d="M480.16,1009.919a21.609,21.609,0,0,1-2.672-6.316c-.369-2.079.689-9.783,8.432-8.674a10.517,10.517,0,0,1,4.362,1.649c1.681,1.135,4.107,3.586,1.395,10.309l-.7,2.271Z" transform="translate(-456.095 -989.217)" fill="#233862"/>
            <path id="Path_7047" data-name="Path 7047" d="M495.879,1022.133s-9.729.161-9.735-5.9-1.267-10.12,4.944-10.479,7.421,1.952,7.915,3.974S498.41,1021.935,495.879,1022.133Z" transform="translate(-462.334 -997.114)" fill="#ffb27d"/>
            <path id="Path_7048" data-name="Path 7048" d="M487.286,1002.07s-2.664,7.11-6.751,8.161-5.861-.044-5.861-.044a11.576,11.576,0,0,0,3.786-6.839S485.277,998.686,487.286,1002.07Z" transform="translate(-454.101 -993.578)" fill="#233862"/>
            <path id="Path_7049" data-name="Path 7049" d="M518.084,1004.357a8.593,8.593,0,0,1,2.474,3.13c.485,1.544.7,4.72,1.629,4.612,0,0,2.007-4.832-.249-7.566C519.547,1001.635,518.084,1004.357,518.084,1004.357Z" transform="translate(-485.559 -995.288)" fill="#233862"/>
            <path id="Path_7050" data-name="Path 7050" d="M471.416,1331.45a96.128,96.128,0,0,0,6.132,17.2l3.208-.222a90.7,90.7,0,0,1-1.483-17.6,73.682,73.682,0,0,1,3.732-23.4c9.6-27.416,8.048-47.368,8.048-47.368L473,1262.171l-.841.1c-.075,8.29-.289,19.546-.476,28.348-.165,7.916-.311,13.845-.311,13.845C467.9,1311.938,469.162,1322.489,471.416,1331.45Z" transform="translate(-450.149 -1181.428)" fill="#163560"/>
            <path id="Path_7051" data-name="Path 7051" d="M399.954,1139.865l2.92.876s9.634-15.986,10.511-20.145c.286-1.354.986-4.064,1.8-7.1,1.692-6.287,3.875-13.981,3.875-13.981l.719-3.115,2.452-10.621a33.289,33.289,0,0,0-7.443,1.628,3.416,3.416,0,0,0-1.846,1.364c-2.018,4.437-4.032,15.635-5.448,23.622-.789,4.452-1.391,7.907-1.705,8.64C404.917,1123.076,402.241,1134.317,399.954,1139.865Z" transform="translate(-399.954 -1055.132)" fill="#ffb27d"/>
            <path id="Path_7052" data-name="Path 7052" d="M438.9,1319.888a44.412,44.412,0,0,0,5.608,18.24l1.533,1.115s1.45-7.8,2.477-17.089c.978-8.825,2.319-18.164,3.835-21.014,6.02-11.3,7.832-53.98,7.832-53.98l-18.3-.908c-1.841,3.094-2.643,8.17-2.834,13.941-.482,14.565,2.942,33.556,3.454,36.3a.016.016,0,0,0,0,.007.954.954,0,0,1-.12.613C438.746,1304.324,438.219,1312.571,438.9,1319.888Z" transform="translate(-427.993 -1171.422)" fill="#1c468a"/>
            <path id="Path_7053" data-name="Path 7053" d="M500.856,1003.186s-1.9,7.445-7.056,9.829c0,0,5.158-4.574,5.6-9.488S500.856,1003.186,500.856,1003.186Z" transform="translate(-467.961 -993.877)" fill="#233862"/>
            <path id="Path_7054" data-name="Path 7054" d="M427.754,1137.983a4.33,4.33,0,0,0,.114,1.463c.389,1.225,1.727,1.784,4.96,1.45,1.976-.206,2.857-3.517,3.25-6.342q1.78,6.063,5,6.787c3.135.7,18.946,2.62,19.981-4.9,1.139-8.267-2.27-22.905-2.458-30.8a39.061,39.061,0,0,0,.574-7.314c-.132-5.622-1.782-8.773-3.051-10.042a4.326,4.326,0,0,0-2.162-.7c-.737-.125-1.759-.271-3.207-.461a5.517,5.517,0,0,0-.577-.045c.267.478,3.849,5.9,3.57,7.3-.293,1.46-12.993.145-13.869-.657s-2.262-6.951-2.262-6.951-4.5.491-6.7,2.091l.023.029a1.855,1.855,0,0,0-.578.609c-2.347,4.469-4.691,15.746-6.34,23.791a11.715,11.715,0,0,0,8.57,1.256C431.176,1123.815,427.964,1133.762,427.754,1137.983Z" transform="translate(-417.395 -1055.854)" fill="#f99746"/>
            <path id="Path_7055" data-name="Path 7055" d="M608.348,1128.341c0-.3-.252-4.646.521-5.559s2.353-2.211,2.85-2.171,2.44,2.621,1.855,4.6-3.049,4.655-3.049,4.655Z" transform="translate(-550.941 -1080.373)" fill="#ffb27d"/>
            <g id="Group_4419" data-name="Group 4419" transform="translate(53.589 33.443)">
              <path id="Rectangle_2770" data-name="Rectangle 2770" d="M1.026,0H4.24A1.026,1.026,0,0,1,5.266,1.026V8.5A1.026,1.026,0,0,1,4.24,9.529H1.025A1.025,1.025,0,0,1,0,8.5V1.026A1.026,1.026,0,0,1,1.026,0Z" transform="translate(5.044 10.64) rotate(-163.318)" fill="#f1a34f"/>
              <path id="Path_7056" data-name="Path 7056" d="M598.878,1106.575l4.085,1.224a.5.5,0,0,0,.624-.336l2.448-8.168a.5.5,0,0,0-.336-.624l-4.085-1.224a.5.5,0,0,0-.624.336l-2.448,8.168A.5.5,0,0,0,598.878,1106.575Z" transform="translate(-597.437 -1097.016)" fill="#d86713"/>
            </g>
            <path id="Path_7057" data-name="Path 7057" d="M439.579,1513.7a44.414,44.414,0,0,0,5.608,18.24l1.56,1.421s1.423-8.111,2.449-17.4C448.115,1516.041,443.347,1516.215,439.579,1513.7Z" transform="translate(-428.669 -1365.23)" fill="#ffb27d"/>
            <path id="Path_7058" data-name="Path 7058" d="M477.194,1517.717a96.123,96.123,0,0,0,6.132,17.2l3.208-.222a90.694,90.694,0,0,1-1.483-17.6C483.963,1517.646,481.716,1518.2,477.194,1517.717Z" transform="translate(-455.927 -1367.695)" fill="#d9935c"/>
            <g id="Group_4420" data-name="Group 4420" transform="translate(23.886 162.488)">
              <path id="Path_7059" data-name="Path 7059" d="M488.372,1572.047h2.048c.686-.108,1.193-.307,1.9-.4a1.9,1.9,0,0,1,1.658.4l.019.02h8.7c.219-.312.009-1.036-.2-1.569a1.236,1.236,0,0,0-.814-.745,9.386,9.386,0,0,1-4.407-2.013c-.937-.847-4.525-3.114-4.525-3.114l-.019,0c-.079,0-.454.117-2.086,1.495-.844.711-2.282-1-2.282-1a2.049,2.049,0,0,0-.471.639,2.162,2.162,0,0,0-.187,1.336,8.662,8.662,0,0,1-.623,3.226c-.2.6-.374,1.021-.374,1.021S486.61,1571.826,488.372,1572.047Z" transform="translate(-486.707 -1564.622)" fill="#233862"/>
              <path id="Path_7060" data-name="Path 7060" d="M491.011,1565.752a6.489,6.489,0,0,0,2.206,1.112c.924.121,2.653-2.238,2.653-2.238l-.019,0c-.079,0-.454.117-2.086,1.495-.844.711-2.282-1-2.282-1A2.048,2.048,0,0,0,491.011,1565.752Z" transform="translate(-489.826 -1564.622)" fill="#466aa5"/>
              <path id="Path_7061" data-name="Path 7061" d="M488.372,1587.028h2.048c.686-.108,1.193-.306,1.9-.4a1.9,1.9,0,0,1,1.658.4l.019.02h8.7c.219-.312.009-1.036-.2-1.569-.264-.235-.339,1.02-.485,1.22a38.825,38.825,0,0,1-7.5-.219,4.2,4.2,0,0,0-3.284-.4c-1.461.349-3.615-.546-4.147-.784-.2.6-.374,1.02-.374,1.02S486.61,1586.807,488.372,1587.028Z" transform="translate(-486.707 -1579.603)" fill="#466aa5"/>
            </g>
            <g id="Group_4421" data-name="Group 4421" transform="translate(12.956 162.488)">
              <path id="Path_7062" data-name="Path 7062" d="M448.677,1572.047h2.048c.686-.108,1.193-.307,1.9-.4a1.9,1.9,0,0,1,1.658.4l.019.02H463c.219-.312.008-1.036-.2-1.569a1.237,1.237,0,0,0-.815-.745,9.385,9.385,0,0,1-4.407-2.013c-.937-.847-4.526-3.114-4.526-3.114l-.019,0c-.079,0-.454.117-2.086,1.495-.844.711-2.282-1-2.282-1a2.051,2.051,0,0,0-.472.639,2.162,2.162,0,0,0-.187,1.336,8.663,8.663,0,0,1-.623,3.226c-.2.6-.374,1.021-.374,1.021S446.914,1571.826,448.677,1572.047Z" transform="translate(-447.011 -1564.622)" fill="#233862"/>
              <path id="Path_7063" data-name="Path 7063" d="M451.314,1565.752a6.493,6.493,0,0,0,2.206,1.112c.924.121,2.652-2.238,2.652-2.238l-.019,0c-.079,0-.454.117-2.086,1.495-.844.711-2.282-1-2.282-1A2.05,2.05,0,0,0,451.314,1565.752Z" transform="translate(-450.129 -1564.622)" fill="#466aa5"/>
              <path id="Path_7064" data-name="Path 7064" d="M448.677,1587.028h2.048c.686-.108,1.193-.306,1.9-.4a1.9,1.9,0,0,1,1.658.4l.019.02H463c.219-.312.008-1.036-.2-1.569-.264-.235-.339,1.02-.485,1.22a38.824,38.824,0,0,1-7.5-.219,4.2,4.2,0,0,0-3.284-.4c-1.461.349-3.615-.546-4.147-.784-.2.6-.374,1.02-.374,1.02S446.914,1586.807,448.677,1587.028Z" transform="translate(-447.011 -1579.603)" fill="#466aa5"/>
            </g>
            <path id="Path_7065" data-name="Path 7065" d="M537.907,1091.343s6.068,3.053,8.088,15.375a10.486,10.486,0,0,1-4.786,3.527,5.6,5.6,0,0,1-1.246.213C536.526,1110.642,537.907,1091.343,537.907,1091.343Z" transform="translate(-499.725 -1059.164)" fill="#f99746"/>
            <path id="Path_7066" data-name="Path 7066" d="M614.153,1114.637s-1.875-2.885-2.333-2.725c-.654.229,1.7,3.89,1.7,3.89s-1.745-2.736-2.017-2.531c-.621.469.368,2.188,1.347,3.506,0,0-1.754-1.607-1.811-1.318-.2,1.014,1.926,3.469,1.926,3.469l1.188-2.714Z" transform="translate(-552.911 -1074.065)" fill="#ffb27d"/>
            <path id="Path_7067" data-name="Path 7067" d="M623.791,1114.1c-.091-.353-.549-7.243-.745-6.59s-.662,4.266-.662,4.266Z" transform="translate(-561.142 -1070.846)" fill="#ffb27d"/>
          </g>
        </g>
        <path id="Path_7068" data-name="Path 7068" d="M514.887,1051.071s.168.714,1.945.6c0,0,1.492-.092,1.446-.877A4.8,4.8,0,0,0,514.887,1051.071Z" transform="translate(-483.242 -1029.649)" fill="#fff"/>
      </g>
      <path id="Path_7069" data-name="Path 7069" d="M384.537,1282.216s-3.524,2.342-4.062,3.33-1.8,4.623-1.8,4.623.9.135,1.8-1.436,3.86-1.436,4.847-2.289a13.358,13.358,0,0,0,2.136-3.351Z" transform="translate(-377.782 -1197.484)" fill="#ffb27d"/>
      <path id="Path_7070" data-name="Path 7070" d="M399.9,1288.2s-.586,2.758-1.3,3.566-1.705,2.154-2.109,1.8.449-3.366.449-3.366Z" transform="translate(-390.608 -1201.823)" fill="#ffb27d"/>
      <path id="Path_7071" data-name="Path 7071" d="M378.606,1295.45c-.09.135-3.186,3.426-3.186,3.426s1.122.508,1.436,0S378.606,1295.45,378.606,1295.45Z" transform="translate(-375.42 -1207.074)" fill="#ffb27d"/>
    </g>
    <g id="Group_4426" data-name="Group 4426" transform="translate(1182.695 274.229)">
      <path id="Path_7072" data-name="Path 7072" d="M1313,682.807l28.714,4.457-18.928-13.245-1.022,4.159-7.011,1.181Z" transform="translate(-1294.482 -666.749)" fill="#9ec3f6"/>
      <path id="Path_7073" data-name="Path 7073" d="M1292.977,685l-23.785-12.636-23.446-1.469Z" transform="translate(-1245.746 -664.488)" fill="#fff"/>
      <path id="Path_7074" data-name="Path 7074" d="M1348.54,654.884l18.928,13.245-14.527-20.516Z" transform="translate(-1320.238 -647.614)" fill="#fff"/>
    </g>
    <g id="Group_4427" data-name="Group 4427" transform="translate(1598.094 359.453)">
      <path id="Path_7075" data-name="Path 7075" d="M2777.976,986.169l-23.512,3.354,15.6-10.635.793,3.409,5.718,1.036Z" transform="translate(-2754.464 -972.902)" fill="#9ec3f6"/>
      <path id="Path_7076" data-name="Path 7076" d="M2754.464,988.424l19.566-10.088,19.176-.965Z" transform="translate(-2754.464 -971.803)" fill="#fff"/>
      <path id="Path_7077" data-name="Path 7077" d="M2770.066,963.133l-15.6,10.635,12.079-16.621Z" transform="translate(-2754.464 -957.147)" fill="#fff"/>
    </g>
    <path id="Path_7078" data-name="Path 7078" d="M701.058,910.706H843.944v37.531h-101.6v39.943H831.88v37.53H742.342v72.65H701.058Z" transform="translate(331.667 -564.039)" fill="#699ff0"/>
    <path id="Path_7079" data-name="Path 7079" d="M1239.786,924.21h37.056l78.287,183.974h-42.014l-16.7-40.97H1219.17l-16.7,40.97H1161.5Zm42.275,107.514-24.269-59.236-24.269,59.236Z" transform="translate(-2 -573.825)" fill="#699ff0"/>
    <path id="Path_7080" data-name="Path 7080" d="M2008.6,1078.166a99.554,99.554,0,0,1-54.279,15.657c-56.367,0-96.815-42.014-96.815-94.466,0-51.93,40.97-94.466,97.337-94.466s96.815,42.014,96.815,94.466a92.331,92.331,0,0,1-16.179,52.452l18.789,15.918-25.574,28.444Zm-29.749-26.357s18.232-9.381,25.835-26.878a62.824,62.824,0,0,0,4.958-25.574c0-31.315-22.964-57.41-55.323-57.41s-54.8,25.574-54.8,57.41c0,31.315,22.964,57.41,55.323,57.41A58.868,58.868,0,0,0,1978.85,1051.809Z" transform="translate(-506.373 -559.826)" fill="#699ff0"/>
    <g id="Group_4431" data-name="Group 4431" transform="translate(1382.709 405.102)">
      <path id="Path_7081" data-name="Path 7081" d="M2152.543,1238.053s-3.08,4.558-4.837,14.139c-1.539,8.392-2.887,11.49-5.109,13.211s-14.6,6.8-14.6,6.8l.926,2.168s18.145-2.471,20.183-5.5,9.808-20.949,9.205-25.076S2152.543,1238.053,2152.543,1238.053Z" transform="translate(-2085.098 -1206.359)" fill="#f4a269"/>
      <g id="Group_4428" data-name="Group 4428" transform="translate(0 115.379)">
        <path id="Path_7082" data-name="Path 7082" d="M1989.257,1554.1c-.185,1.768-2.685,1.709-5.512,1.292s-2.094.324-6.068.257-5.3-1.423-5.476-2c-.156-.509,1.77-.873,3.832-1.308.259-.054.519-.111.78-.168,2.326-.515,3.907-2.194,5.928-3.641,1.914-1.37,4.486-6.466,4.486-6.466l5.433-.077s-2.428,4.563-3.349,6.534a6.545,6.545,0,0,0-.186,3.725A6.954,6.954,0,0,1,1989.257,1554.1Z" transform="translate(-1972.193 -1541.997)" fill="#ffb27d"/>
        <path id="Path_7083" data-name="Path 7083" d="M1983.745,1582.4c-2.826-.417-2.094.324-6.068.257s-5.3-1.423-5.476-2c-.156-.509,1.77-.873,3.832-1.308l.023.038a11.132,11.132,0,0,0,5.8,1.225c2.674-.185,5.429-1.213,7.274-1.355a6.955,6.955,0,0,1,.131,1.849C1989.072,1582.873,1986.572,1582.815,1983.745,1582.4Z" transform="translate(-1972.193 -1568.998)" fill="#c65447"/>
      </g>
      <path id="Path_7084" data-name="Path 7084" d="M2079.407,1362.256s-35.614.173-42.261,4.369-21.781,47.409-21.781,47.409a4.852,4.852,0,0,0,2.643,1.753,5.489,5.489,0,0,0,3.679-.594s20.279-20.17,21.358-25.678.816-10.424,3.273-10.555,33.092,3.724,37.726-4.439.8-16.245.8-16.245Z" transform="translate(-2003.478 -1293.48)" fill="#ef7e29"/>
      <g id="Group_4429" data-name="Group 4429" transform="translate(18.934 114.321)">
        <path id="Path_7085" data-name="Path 7085" d="M2058.008,1550.5c-.037,1.777-2.533,1.928-5.384,1.749s-2.06.5-6.025.763-5.4-.974-5.624-1.531c-.2-.494,1.691-1.018,3.709-1.624.254-.075.509-.154.763-.233,2.275-.708,3.71-2.514,5.6-4.125,1.792-1.526,3.929-6.818,3.929-6.818l5.408-.531s-2.038,4.75-2.79,6.792a6.547,6.547,0,0,0,.126,3.727A6.95,6.95,0,0,1,2058.008,1550.5Z" transform="translate(-2040.96 -1538.152)" fill="#ffb27d"/>
        <path id="Path_7086" data-name="Path 7086" d="M2052.624,1579.936c-2.851-.179-2.06.5-6.025.763s-5.4-.974-5.624-1.531c-.2-.494,1.691-1.018,3.709-1.624l.026.036a11.136,11.136,0,0,0,5.878.735c2.649-.408,5.308-1.663,7.135-1.959a6.951,6.951,0,0,1,.285,1.832C2057.971,1579.964,2055.475,1580.115,2052.624,1579.936Z" transform="translate(-2040.96 -1565.837)" fill="#c65447"/>
      </g>
      <path id="Path_7087" data-name="Path 7087" d="M2132.467,1380.682s-31.367,1.484-37.847,5.935-15.578,41.935-15.578,41.935a5.527,5.527,0,0,0,6.907,2.22s12.594-15.175,13.458-20.721,2.217-8.4,4.667-8.626,26.524,4.473,37.525-5.9C2148.427,1389.08,2132.467,1380.682,2132.467,1380.682Z" transform="translate(-2049.623 -1309.718)" fill="#f99746"/>
      <path id="Path_7088" data-name="Path 7088" d="M2223.614,1152.126a19.063,19.063,0,0,1-1.861-6.463c.068.344.964,4.711,2.825,7.092,7.266,4.106,18.743,19.527,18.672,22.437,0,0,7.05-9.335,7.127-9.389,0,0,7.934-11.6-2.761-17.231-5.436-2.861-5.684-6.982-5.7-10.574s-2.69-18.885-12.882-14.157a6.817,6.817,0,0,0-2.472-.472,2.058,2.058,0,0,1,.955.378,8.138,8.138,0,0,0-4.337,1.133C2219.486,1127.315,2217.358,1147.094,2223.614,1152.126Z" transform="translate(-2151.509 -1122.943)" fill="#b5453c"/>
      <path id="Path_7089" data-name="Path 7089" d="M2244.688,1218.66a35.351,35.351,0,0,0-5.842,0,18.78,18.78,0,0,0-5.07,1.272c-2.765,1.156-2.475,6.05,3.326,5.144S2245.094,1220.112,2244.688,1218.66Z" transform="translate(-2160.525 -1192.217)" fill="#ffb27d"/>
      <path id="Path_7090" data-name="Path 7090" d="M2238.58,1203.322c-.034.018-.828,4.211,2.971,4.043,2.493-.11,7.871-3.127,7.4-5.262-.226-1.015-2.11-3.648-2.49-9.658l-.453.121-7.632,2.047s.338,2.422.5,4.715C2239,1201.253,2239.007,1203.087,2238.58,1203.322Z" transform="translate(-2165.084 -1173.309)" fill="#ffb27d"/>
      <path id="Path_7091" data-name="Path 7091" d="M2238.372,1194.933s.338,2.422.5,4.715c4.32-.411,6.344-4.511,7.136-6.762Z" transform="translate(-2165.084 -1173.628)" fill="#f4a269"/>
      <path id="Path_7092" data-name="Path 7092" d="M2231.924,1148.549a22.794,22.794,0,0,0,2.369-6.835c.242-2.214-1.412-10.249-9.483-8.537a11.1,11.1,0,0,0-4.476,2.042c-1.689,1.313-4.071,4.063-.744,10.948l.9,2.341Z" transform="translate(-2150.262 -1130.187)" fill="#b5453c"/>
      <path id="Path_7093" data-name="Path 7093" d="M2222.575,1162.3s10.251-.514,9.833-6.893.623-10.741-5.939-10.682-7.673,2.576-8.052,4.739S2219.9,1162.266,2222.575,1162.3Z" transform="translate(-2150.588 -1138.725)" fill="#ffb27d"/>
      <path id="Path_7094" data-name="Path 7094" d="M2230.813,1141.4s3.3,7.3,7.679,8.116,6.166-.458,6.166-.458a12.212,12.212,0,0,1-4.465-6.933S2232.69,1137.7,2230.813,1141.4Z" transform="translate(-2159.606 -1135.247)" fill="#b5453c"/>
      <path id="Path_7095" data-name="Path 7095" d="M2220.456,1144.419a9.064,9.064,0,0,0-2.385,3.469c-.4,1.658-.408,5.017-1.391,4.969,0,0-2.451-4.946-.27-7.981C2218.725,1141.656,2220.456,1144.419,2220.456,1144.419Z" transform="translate(-2148.515 -1137.707)" fill="#b5453c"/>
      <path id="Path_7096" data-name="Path 7096" d="M2195.877,1261.852c.829.992,3.419,1.3,6.188,1.752a18.594,18.594,0,0,1,6.094,1.766c3.7,2.17,15.768,9.5,19.307,9.168,1.372-.129,1.115-2.748.284-6.223-1.308-5.488-4.046-13.109-4.046-16.423a96.233,96.233,0,0,0-1.405-10.981q-.1-.591-.2-1.194c-1.59-9.514-3.791-20.731-3.791-20.731s-2.455,5.357-7.24,5.357-3.672-4.085-3.672-4.085-4.365.513-5.4,1.624a42.713,42.713,0,0,0-4.166,7.222s-.106,1.666,4.02,2.459a54.164,54.164,0,0,0-1.124,7.538c-.088,2.228,1.52,9.2,1.983,13.535a8,8,0,0,1-.064,3.288,6.382,6.382,0,0,1-2.526,2.083C2197.792,1259.367,2194.892,1260.673,2195.877,1261.852Z" transform="translate(-2134.146 -1192.544)" fill="#2b478b"/>
      <path id="Path_7097" data-name="Path 7097" d="M2210.633,1304.95c-2.648,4.514,7.181,5.872,8.809,6.828,3.695,2.169,14.995,10.035,18.533,9.7,1.372-.129,1.115-2.748.284-6.223-1.308-5.488-4.046-13.109-4.046-16.422a96.251,96.251,0,0,0-1.406-10.981l-4.259-4.09s-4.564,11.8-8.915,13.729a36.59,36.59,0,0,1-6.411,2.087,8.005,8.005,0,0,1-.064,3.288A6.382,6.382,0,0,1,2210.633,1304.95Z" transform="translate(-2144.657 -1239.485)" fill="#233862"/>
      <path id="Path_7098" data-name="Path 7098" d="M2221.841,1230.278s3.642-2.212,7.163,1.984-2.5,34.186-7.72,35.726c-5.8,1.711-22.537-.274-22.537-.274l.322-2.616s17.822-3.417,18.563-4.369S2219.989,1230.762,2221.841,1230.278Z" transform="translate(-2136.369 -1200.303)" fill="#ffb27d"/>
      <path id="Path_7099" data-name="Path 7099" d="M2272.437,1218.984s7.479.675,9.651,3.135,2.807,9.126,2.807,9.126-6.586,5.317-14.522,3.253Z" transform="translate(-2188.274 -1192.541)" fill="#2b478b"/>
      <path id="Path_7100" data-name="Path 7100" d="M2177.785,1355.376s-5.8-1.123-6.458-.842-4.305,3.557-3.931,4.212,1.872,1.123,3.557.561,5.335-.842,5.99-1.684A5.5,5.5,0,0,0,2177.785,1355.376Z" transform="translate(-2113.631 -1290.736)" fill="#ffb27d"/>
      <g id="Group_4430" data-name="Group 4430" transform="translate(32.511 57.563)">
        <rect id="Rectangle_2771" data-name="Rectangle 2771" width="9.879" height="1.167" transform="translate(36.852 14.654) rotate(180)" fill="#9e332e"/>
        <path id="Path_7101" data-name="Path 7101" d="M2119.342,1346.5c-.1-.386-9.081-14.494-9.081-14.494H2090.27l10.027,14.115Z" transform="translate(-2090.27 -1332.009)" fill="#9e332e"/>
        <path id="Path_7102" data-name="Path 7102" d="M2118.5,1346.663c-.1-.386-9.11-14.654-9.11-14.654H2090.27l9.539,14.654Z" transform="translate(-2090.27 -1332.009)" fill="#b5453c"/>
        <path id="Path_7103" data-name="Path 7103" d="M2131.425,1356.068a1.6,1.6,0,0,0,1.392,1.035.713.713,0,0,0,.679-1.035,1.6,1.6,0,0,0-1.391-1.035A.713.713,0,0,0,2131.425,1356.068Z" transform="translate(-2120.05 -1348.694)" fill="#9e332e"/>
      </g>
    </g>
    <g id="Group_4433" data-name="Group 4433" transform="translate(1541.625 357.595)">
      <path id="Path_7104" data-name="Path 7104" d="M2696.118,1207.019s4.77,2.712,6.1,2.711,6.576-1.013,8.038-.266a17.094,17.094,0,0,1,4.6,4.731c.892,1.764-3.592.985-5.711-.518a1.335,1.335,0,0,0-1.059-.219c-1.1.239-3.379.654-4.479.246-1.481-.548-9.281-1.157-9.281-1.157Z" transform="translate(-2654.42 -1136.363)" fill="#ea9963"/>
      <path id="Path_7105" data-name="Path 7105" d="M2569.023,1059.948s4.945,35.141,13.132,38.289c4.04,1.553,21.893,5.074,27.174,5.427,0,0,1.293-1.05.979-5.322,0,0-18.705-6.867-21.363-10.6-3.954-5.558,2.456-22.707-2.507-27.927S2573.117,1052.351,2569.023,1059.948Z" transform="translate(-2563.613 -1026.231)" fill="#ed7d2b"/>
      <path id="Path_7106" data-name="Path 7106" d="M2558.46,1287.449a61.628,61.628,0,0,0,4.83,6.91c5.314,6.709,11.1,12.24,12.107,17.469a23.71,23.71,0,0,0,.934,3.346c.421,1.2.941,2.457,1.542,3.759a115.849,115.849,0,0,0,8.994,15.376c5.821,8.625,11.294,15.821,11.294,15.821l10.037-.428c-.4-1.006-4.779-12.914-10.636-27.467-2.378-5.908-4.906-12.192-7.347-18.252q-.487-1.214-.972-2.414c-.746-1.855-1.48-3.68-2.2-5.458-5.5-13.665-9.878-24.547-9.878-24.547s-21.979-8.325-24.261-2.931C2551.025,1273.083,2552.558,1277.44,2558.46,1287.449Z" transform="translate(-2551.384 -1179.696)" fill="#233862"/>
      <path id="Path_7107" data-name="Path 7107" d="M2720.4,1555.774s.514,8.283,2.116,8.4c.213.016,8.127.016,8.127.016l10.1-.058a3.278,3.278,0,0,0-3.02-2.949c-2.953-.515-7.9-2.591-9.685-6.493C2726.164,1550.584,2720.4,1555.774,2720.4,1555.774Z" transform="translate(-2673.313 -1387.164)" fill="#163560"/>
      <path id="Path_7108" data-name="Path 7108" d="M2572.34,1468.177s-7.5,3.551-7.016,5.083c.064.2,3,7.553,3,7.553l3.8,9.36a3.278,3.278,0,0,0,1.618-3.9c-.618-2.933-.525-8.294,2.435-11.4C2579.3,1471.6,2572.34,1468.177,2572.34,1468.177Z" transform="translate(-2560.916 -1325.616)" fill="#163560"/>
      <path id="Path_7109" data-name="Path 7109" d="M2565.374,1333.271s-4.214-4.26-4.983-7.083c0,0,14.492-14.084,19.672-17.5,5.945-3.925,9.807-3.946,8.852-4.908-3.125-3.15-29.391-12.34-33.667-18.991a20.621,20.621,0,0,1-2.762-6.369,15.054,15.054,0,0,1-.2-6.862l32.67-.945s24.292,25.2,24.152,34.68C2608.954,1315.539,2565.374,1333.271,2565.374,1333.271Z" transform="translate(-2551.273 -1182.445)" fill="#2b478b"/>
      <path id="Path_7110" data-name="Path 7110" d="M2593,1024.683c-6.609,1.709-17.565-4.415-17.565-4.415a16.217,16.217,0,0,0,5.831-9.14c.08-.317.151-.641.217-.974l3.394-.719,5.048,4.522a43.477,43.477,0,0,1-.747,5.106q-.164.845-.38,1.811A15.575,15.575,0,0,1,2593,1024.683Z" transform="translate(-2568.256 -993.18)" fill="#ffb27d"/>
      <path id="Path_7111" data-name="Path 7111" d="M2549.549,1073.706c.947,12.733-.3,32.1.775,35.45.927,2.894,11.487,1.174,15.7.207,1.56-.358,3.45-.868,5.4-1.472,5.444-1.686,11.376-4.093,12.012-5.88a1.515,1.515,0,0,0,.059-.206,1.635,1.635,0,0,0-.011-.749c-.212-.911-1.03-1.9-1.126-4.152-.107-2.518-.091-5.483-.186-8.672,0-.359-.01-.751-.049-1.108V1087c0-.069,0-.135,0-.2-.092-3.556-.278-7.295-.493-11-.137-2.329-.3-4.635-.478-6.844a91.472,91.472,0,0,0-1.961-13.982,22.451,22.451,0,0,0-7.213-11.135l-2.009-1.723a11.617,11.617,0,0,1-7.29-.971c-2.594-1.232-3.49-2.115-3.943-1.782C2552.741,1043.974,2548.431,1058.141,2549.549,1073.706Z" transform="translate(-2549.372 -1014.808)" fill="#f99746"/>
      <path id="Path_7112" data-name="Path 7112" d="M2588.707,1159.139c5.444-1.686,11.376-4.093,12.012-5.88a1.537,1.537,0,0,0,.059-.206c0-.249-.006-.5-.012-.749-.212-.911-1.03-1.9-1.126-4.152-.107-2.518-.092-5.483-.186-8.672-.005-.359-.01-.75-.049-1.108l0-.13c0-.068,0-.135,0-.2L2577.39,1110S2562.6,1140.806,2588.707,1159.139Z" transform="translate(-2566.651 -1066.055)" fill="#ed7d2b"/>
      <path id="Path_7113" data-name="Path 7113" d="M2605.267,1013.957a43.387,43.387,0,0,1-.747,5.106c-4.929-1.593-7.166-6.046-7.912-7.935.081-.317.151-.641.217-.974l3.394-.719Z" transform="translate(-2583.602 -993.18)" fill="#ea9963"/>
      <path id="Path_7114" data-name="Path 7114" d="M2605.128,985.883s-10.75-1.794-9.53-8.471.655-11.406,7.57-10.543,7.78,3.654,7.914,5.982S2607.956,986.178,2605.128,985.883Z" transform="translate(-2582.801 -962.26)" fill="#ffb27d"/>
      <g id="Group_4432" data-name="Group 4432" transform="translate(38.207 55.934)">
        <rect id="Rectangle_2772" data-name="Rectangle 2772" width="0.997" height="26.101" transform="translate(27.383 25.131) rotate(-161.996)" fill="#4a75cb"/>
        <rect id="Rectangle_2773" data-name="Rectangle 2773" width="27.39" height="1.639" transform="translate(27.384 25.132) rotate(-178.777)" fill="#4a75cb"/>
      </g>
      <path id="Path_7115" data-name="Path 7115" d="M2690.132,1234.345s8.8,2.32,12.1,2.077,6.044-1.813,6.459-2.632,1.288-2.272-.958-2-5.313.746-5.409.314,1.832-.391,1.832-.391.582-.847-.151-.877-2.872-.611-3.666-.214-1.528,1.864-2.108,1.8-7.363-3.055-7.363-3.055Z" transform="translate(-2651.376 -1152.557)" fill="#ffb27d"/>
      <path id="Path_7116" data-name="Path 7116" d="M2576.948,1067.328s1.04,35.472,8.831,39.5c3.844,1.989,21.2,7.456,26.41,8.39,0,0,1.4-.9,1.559-5.181,0,0-17.833-8.888-20.063-12.893-3.318-5.96,4.944-22.3.587-28.033S2581.855,1060.228,2576.948,1067.328Z" transform="translate(-2569.355 -1032.168)" fill="#f99746"/>
      <path id="Path_7117" data-name="Path 7117" d="M2590.644,968.346a5.085,5.085,0,0,1,1.291-3.6s-.492-2.3.417-2.676,1.1,1.553,1.515,1.25a9.279,9.279,0,0,0,3.066-3.862c.8-2.12,8.073.448,8.921.83s3.574-1.019,4.1-2.155a15.964,15.964,0,0,1-2.2-2.121c-.681-.909-5.452-7.042-12.116-5.3s-7.573,4.922-7.194,7.648S2587.915,967.432,2590.644,968.346Z" transform="translate(-2577.638 -950.398)" fill="#2b478b"/>
    </g>
    <g id="Group_4437" data-name="Group 4437" transform="translate(1256.279 360.918)">
      <g id="man" transform="translate(0)">
        <path id="Path_7118" data-name="Path 7118" d="M1828.069,1091.9c-.731,1.966-2,4.248-3.329,4.815a5.153,5.153,0,0,0-2.137,1.552l-1.218-.706-1.454-.845s.034-.161.105-.425.179-.627.326-1.031a1.407,1.407,0,0,0,.173-1.294,3.006,3.006,0,0,1,.248-2.511c.467-.677.917-2.347,1.2-2.3.68.117-.334,2.412-.043,2.838a.5.5,0,0,0,.653.224l.011-.007c1.908-.839,4.222-5.361,5.246-4.751C1828.233,1087.689,1828.381,1091.06,1828.069,1091.9Z" transform="translate(-1735.425 -1053.004)" fill="#ffb27d"/>
        <g id="Group_4434" data-name="Group 4434" transform="translate(85.885 32.238)">
          <path id="Path_7119" data-name="Path 7119" d="M1825.095,1088.949l2.39,1.68a.376.376,0,0,0,.523-.091l6.122-8.711a.376.376,0,0,0-.091-.523l-2.39-1.68a.376.376,0,0,0-.523.091l-6.123,8.712A.376.376,0,0,0,1825.095,1088.949Z" transform="translate(-1824.935 -1079.555)" fill="#2b478b"/>
          <path id="Path_7120" data-name="Path 7120" d="M1833.142,1094.577l1.4.984a.287.287,0,0,0,.4-.069l6.226-8.859a.286.286,0,0,0-.069-.4l-1.4-.985a.287.287,0,0,0-.4.069l-6.225,8.858A.287.287,0,0,0,1833.142,1094.577Z" transform="translate(-1830.795 -1083.645)" fill="#233862"/>
        </g>
        <path id="Path_7121" data-name="Path 7121" d="M1683.562,1068.27s12.162,21.212,16.574,25.115l16.178-12.061a5.9,5.9,0,0,1,3.375,3.076s-9.824,20.015-19.5,20.864-23.248-23.99-23.248-23.99Z" transform="translate(-1631.806 -1039.139)" fill="#233862"/>
        <g id="Group_4435" data-name="Group 4435" transform="translate(11.786 78.149)">
          <path id="Path_7122" data-name="Path 7122" d="M1568.259,1554.727h-7.027a4.258,4.258,0,0,1-1.922-3.22c-.343-2.264-2.88-3.5-3.43-5.35s2.264-4.457,2.264-4.457l.47-.606.489-.629,4.664,1.1s.116,1.111.186,2.526a32.284,32.284,0,0,1,.02,3.235c-.137,2.469.69,5.128,2.884,5.608C1568.48,1553.287,1568.408,1554.249,1568.259,1554.727Z" transform="translate(-1555.81 -1459.473)" fill="#233862"/>
          <path id="Path_7123" data-name="Path 7123" d="M1705.475,1570.636h-16.07c-.773-.943-.488-4.423-.371-5.56.024-.229.041-.362.041-.362s5.487-4.389,6.241-1.028c.023.105.051.208.081.31.95,3.144,5.209,4.572,7.669,4.97A2.787,2.787,0,0,1,1705.475,1570.636Z" transform="translate(-1652.246 -1475.382)" fill="#233862"/>
          <path id="Path_7124" data-name="Path 7124" d="M1676.743,1262.688s-.833,10.4-1.813,22.893c-1.331,16.975-2.932,37.828-3.09,41.777-.273,6.86-1.372,17.831-1.372,17.831s-2.6,2.607-7.818,1.508a179.511,179.511,0,0,1-5.973-32.235c-.021-.272-.041-.545-.062-.819-1.234-16.871-3.154-52.4-3.154-52.4Z" transform="translate(-1626.574 -1257.133)" fill="#f99746"/>
          <path id="Path_7125" data-name="Path 7125" d="M1676.743,1262.688s-.833,10.4-1.813,22.893l-18.253,28.882c-.021-.272-.041-.545-.062-.819-1.234-16.871-3.154-52.4-3.154-52.4Z" transform="translate(-1626.574 -1257.133)" fill="#ed7d2b"/>
          <path id="Path_7126" data-name="Path 7126" d="M1608.317,1253.093s-15.019,37.65-24.895,55.344-12.962,22.631-12.962,22.631-5.658-2.263-6.172-3.806c0,0,3.776-34.158,10.39-42.485,3.737-4.705,8.126-18.825,8.333-23.763s1.337-14.71,1.337-14.71Z" transform="translate(-1561.954 -1246.304)" fill="#f99746"/>
        </g>
        <path id="Path_7127" data-name="Path 7127" d="M1668.444,1030.424c-5.869,1.852-16.024-3.146-16.024-3.146s5.411-4.061,5.128-12.505l4.538,3.657,3.083,2.484a36.911,36.911,0,0,1-.35,4.031c-.089.675-.2,1.427-.339,2.25A14.048,14.048,0,0,1,1668.444,1030.424Z" transform="translate(-1614.034 -1000.371)" fill="#ffb27d"/>
        <path id="Path_7128" data-name="Path 7128" d="M1678.615,1030.307a36.908,36.908,0,0,1-.35,4.031c-3.415-.586-7.29-6.107-7.29-6.107a10.882,10.882,0,0,1,4.557-.408Z" transform="translate(-1627.48 -1009.765)" fill="#ed975d"/>
        <path id="Path_7129" data-name="Path 7129" d="M1674.721,994.359s-9.694,1.611-10.6-4.442-2.775-9.921,3.377-11.205,7.7.844,8.5,2.79S1677.219,993.784,1674.721,994.359Z" transform="translate(-1621.792 -973.956)" fill="#ffb27d"/>
        <path id="Path_7130" data-name="Path 7130" d="M1662.552,1111.708a.949.949,0,0,1-.616.235c-2.2-.03-8.631,1.194-14.069.636a40.514,40.514,0,0,1-13-3.751c-.579-.259-1.911-.97-1.88-1.617.019-.708.09-1.735.178-3.029a162.09,162.09,0,0,0,.322-21.159c-.094-1.662-.144-3.311-.15-4.934-.045-12.1,2.354-22.735,7.173-26.336.412-.3,2.939.94,5.261,2.085a9.611,9.611,0,0,0,6.318.765l2.027,1.792a20.258,20.258,0,0,1,6.348,10.14c1,4.026,1.587,11.286,1.911,18.81.147,3.409.265,6.848.295,10.111v.117c.028.323.028.677.028,1C1662.818,1104.948,1662.7,1111.589,1662.552,1111.708Z" transform="translate(-1599.951 -1027.137)" fill="#2b478b"/>
        <path id="Path_7131" data-name="Path 7131" d="M1633.635,1151.5a162.087,162.087,0,0,0,.322-21.159c-.095-1.662-.144-3.311-.15-4.933,2.008-4.871,3.649-8.4,3.649-8.4h5.061S1646.227,1142.346,1633.635,1151.5Z" transform="translate(-1600.421 -1074.455)" fill="#233862"/>
        <g id="Group_4436" data-name="Group 4436" transform="translate(0 83.341)">
          <path id="Path_7132" data-name="Path 7132" d="M1527.822,1294.965l21.583,3.075a5.174,5.174,0,0,0,5.835-4.379l1.333-9.353a5.174,5.174,0,0,0-4.379-5.835l-21.583-3.076a5.174,5.174,0,0,0-5.835,4.38l-1.333,9.353A5.174,5.174,0,0,0,1527.822,1294.965Z" transform="translate(-1520.531 -1272.541)" fill="#233862"/>
          <path id="Path_7133" data-name="Path 7133" d="M1545.885,1273.879h0a5.2,5.2,0,0,0-3.576-3.123h-.005c-.163-.039-.328-.072-.5-.1l-4.3-.612.287-2.019a1.71,1.71,0,0,0-1.45-1.932l-1.121-.16-4.513-.643-.813-.116a1.711,1.711,0,0,0-1.932,1.45l-.287,2.018-7.419-1.057a5.194,5.194,0,0,0-5.857,4.4l-1.348,9.463a5.193,5.193,0,0,0,4.4,5.856l21.544,3.071a5.036,5.036,0,0,0,1.124.036h0a5.1,5.1,0,0,0,1.682-.425,5.188,5.188,0,0,0,3.048-4.008l1.349-9.461A5.138,5.138,0,0,0,1545.885,1273.879Zm-16.859-7.1a.639.639,0,0,1,.53-.539.646.646,0,0,1,.192,0l.958.136,3.551.507,1.936.276a.639.639,0,0,1,.542.721l-.287,2.018-7.71-1.1Z" transform="translate(-1513.004 -1265.159)" fill="#2b478b"/>
        </g>
        <path id="Path_7134" data-name="Path 7134" d="M1581.847,1241.568a7.5,7.5,0,0,0-1.178,2.113c-.305,4.089,1.563,4.655-3.274,6.926,0,0-2.065.788-2.1-.816s1.433-1.629,1.165-3.874c-.31-2.589-.278-2.613,1.421-3.965l1.125-1.86Z" transform="translate(-1558.143 -1163.654)" fill="#ffb27d"/>
        <path id="Path_7135" data-name="Path 7135" d="M1582.032,1108.442a16.6,16.6,0,0,0,3.8.211s5.41-16.713,6.106-18.24,16.07-19.6,16.07-19.6l-6.4-16.028s-16.628,27.776-18.316,31.678c-2.79,6.449-3.759,20.909-3.759,20.909A6.961,6.961,0,0,0,1582.032,1108.442Z" transform="translate(-1561.21 -1029.371)" fill="#2b478b"/>
        <path id="Path_7136" data-name="Path 7136" d="M1660.489,977.846s.995-.166.834-1.537-.158-3.161.955-2.827,1.169,1.226,1.627.7.466-2.715,3.781-2.868,4.662,1,6.2.323,1.623-3.011,1.623-3.011a2.654,2.654,0,0,1-1.1,1.1s2.572-3.518-.406-5.93-6.014-.833-7.737-.729c-3.8.23-6.249.458-7.489,2.952S1658.053,975.445,1660.489,977.846Z" transform="translate(-1618.172 -962.468)" fill="#2b478b"/>
        <path id="Path_7137" data-name="Path 7137" d="M1592.344,1251.981s1.091,1.138,1.16,1.611c.221,1.52.729,2.176.474,2.341-.529.344-1.228-.781-1.562-1.791A4.612,4.612,0,0,1,1592.344,1251.981Z" transform="translate(-1570.428 -1172.269)" fill="#ffb27d"/>
      </g>
    </g>
    <rect id="Rectangle_2774" data-name="Rectangle 2774" width="784.095" height="2.204" rx="1.102" transform="translate(903.905 534.142)" fill="#e2e2e2"/>
    <g id="Group_4441" data-name="Group 4441" transform="translate(1042.216 255.211)">
      <path id="Path_7138" data-name="Path 7138" d="M928.4,875.553a27.936,27.936,0,0,0,7.5,9h17.775S925.941,870.982,928.4,875.553Z" transform="translate(-875.188 -793.095)" fill="#233862"/>
      <g id="Group_4438" data-name="Group 4438" transform="translate(0 0)">
        <path id="Path_7139" data-name="Path 7139" d="M935.827,1005.8a1.641,1.641,0,0,1,.245,1.762.016.016,0,0,1,0,.009c-.455,1.157-1.888,2.425-3.547,3.684-.212.162-.4.309-.565.446-.043.036-.086.072-.127.108l-.1.084c-1.552,1.354-.991,1.69-3.788,4.447-3.189,3.142-5.326,3.142-5.925,2.831-.507-.265.583-1.947,1.793-3.839.059-.091.116-.184.176-.276.161-.251.321-.507.481-.76,1.419-2.278,1.1-3.374.873-6.827-.185-2.807-3.929-15.759-3.929-15.759l5.971-.862s1.511,10.273,3.44,11.9c1.031.868,2.211.911,3.208,1.561.071.045.14.091.207.139A7.81,7.81,0,0,1,935.827,1005.8Z" transform="translate(-870.232 -877.33)" fill="#ffb27d"/>
        <path id="Path_7140" data-name="Path 7140" d="M937.088,1041.237a1.641,1.641,0,0,1,.245,1.762.014.014,0,0,1,0,.008,12.629,12.629,0,0,1-3.552,3.672c-.21.165-.395.316-.56.458-.043.036-.086.072-.127.108l-.1.084c-1.552,1.354-.991,1.69-3.788,4.447-3.189,3.142-5.326,3.142-5.925,2.832-.507-.265.583-1.947,1.793-3.84a13.216,13.216,0,0,0,5.639-3.922c1.932-2.332,3.261-5.36,4.581-7.1.071.045.14.092.207.139A7.8,7.8,0,0,1,937.088,1041.237Z" transform="translate(-871.492 -912.763)" fill="#233862"/>
        <path id="Path_7141" data-name="Path 7141" d="M753.308,993.157c-.417,1.825-3.023,1.447-5.925.654s-2.231.074-6.376-.5-5.362-2.158-5.473-2.78c-.1-.552,1.961-.689,4.172-.883.278-.024.557-.05.836-.077,2.5-.245,4.362-1.8,6.658-3.057,2.174-1.191,5.507-6.192,5.507-6.192l5.69.607s-3.116,4.463-4.327,6.407a6.891,6.891,0,0,0-.665,3.87A7.317,7.317,0,0,1,753.308,993.157Z" transform="translate(-735.531 -869.7)" fill="#ffb27d"/>
        <path id="Path_7142" data-name="Path 7142" d="M747.382,1018.356c-2.9-.793-2.231.074-6.376-.5s-5.362-2.158-5.473-2.78c-.1-.552,1.961-.689,4.172-.883l.02.043a11.722,11.722,0,0,0,5.9,2.013c2.819.146,5.829-.581,7.776-.5a7.318,7.318,0,0,1-.1,1.949C752.891,1019.527,750.284,1019.15,747.382,1018.356Z" transform="translate(-735.531 -894.245)" fill="#233862"/>
        <path id="Path_7143" data-name="Path 7143" d="M883.067,873.177l4.939,14.488,6.449,18.917a11.289,11.289,0,0,0,3.706-.237,16.035,16.035,0,0,0,3.623-1.643s-1.384-20.161-4.675-31.8a20.568,20.568,0,0,0-2.919-6.793C888.783,859.351,883.067,873.177,883.067,873.177Z" transform="translate(-842.445 -785.584)" fill="#233862"/>
        <path id="Path_7144" data-name="Path 7144" d="M818.49,810.326c3.523-1.031,13.443.687,23.395,2.918l2.189-3.4,21.656-1.1s6.7,16.008,2.522,25.978c-.614,1.465-1.7,2.117-3.643,2.095h-.385s-12.867.114-17.043,0c-10.747-.293-22.55-8.219-24.094-8.573-2.526-.577-3.681,4.476-6.367,9.741S792.2,860.963,792.2,860.963a18.782,18.782,0,0,1-4.621-.6,4.563,4.563,0,0,1-1.956-1.31S810.545,812.652,818.49,810.326Z" transform="translate(-771.828 -745.364)" fill="#2b478b"/>
        <path id="Path_7145" data-name="Path 7145" d="M987.232,613.268c7.58,4.447,22.952,13.656,23.035,13.6,0,0,5.679,2.319,8.993.246,5.524-3.456,8.7-13.074-1-21.69-4.835-4.3-8.323-5.406-8.676-12.066-.192-3.613-4.8-15.647-13.015-14.77a12.516,12.516,0,0,1-2.068.079,7.666,7.666,0,0,0-4.184.96C985.609,582.261,975.74,611.313,987.232,613.268Z" transform="translate(-914.049 -578.544)" fill="#233862"/>
        <path id="Path_7146" data-name="Path 7146" d="M1023.184,660.877c-.034.021,3.75,1.429,6.335.368,2.432-1,4.36-4.9,4.324-4.9-1.092-.08-2.266-1.069-3.019-7.365l-.47.154-7.9,2.6s.5,2.527.8,4.928C1023.505,658.677,1023.619,660.6,1023.184,660.877Z" transform="translate(-943.453 -629.584)" fill="#ffb27d"/>
        <path id="Path_7147" data-name="Path 7147" d="M1022.451,652.14s.5,2.527.8,4.928c4.518-.687,6.4-5.117,7.1-7.531Z" transform="translate(-943.453 -629.99)" fill="#ed975d"/>
        <path id="Path_7148" data-name="Path 7148" d="M1004.417,618.609s10.747-1.145,9.931-7.827.021-11.33-6.876-10.881-7.916,3.161-8.186,5.458S1001.6,618.735,1004.417,618.609Z" transform="translate(-926.652 -593.999)" fill="#ffb27d"/>
        <path id="Path_7149" data-name="Path 7149" d="M1001.116,600.077s6.694,6.094,11.344,6.7,6.456-.846,6.456-.846a18.212,18.212,0,0,1-4.24-6.084,3.279,3.279,0,0,0-2.65-2.006C1008.7,597.46,1002.4,597.157,1001.116,600.077Z" transform="translate(-927.992 -592.354)" fill="#233862"/>
        <path id="Path_7150" data-name="Path 7150" d="M1001.931,601.542a16.891,16.891,0,0,0-3.121,3.779,12.967,12.967,0,0,0-.539,6.881s-3.384-7.045-1.269-10.365C999.245,598.316,1001.931,601.542,1001.931,601.542Z" transform="translate(-924.507 -594.231)" fill="#233862"/>
        <path id="Path_7151" data-name="Path 7151" d="M990.439,695.07c-.267,21.685-.378,17.149,1.937,19.27.558.511,2.156.85,4.266,1.047,6.634.622,18.348-.154,18.826-1.371,1.649-4.208.6-5.558,2.059-12.03.152-.688.338-1.433.553-2.243,1.188-4.44,2.268-5.932-1.32-13.215-3.254-6.6-6.675-11.973-7-11.791-9.2,5.127-9.806.591-9.806.591S990.569,684.493,990.439,695.07Z" transform="translate(-920.155 -648.248)" fill="#fff"/>
        <path id="Path_7152" data-name="Path 7152" d="M901.007,910.439l6.449,18.917a11.287,11.287,0,0,0,3.706-.237,16.028,16.028,0,0,0,3.623-1.643s-1.384-20.161-4.674-31.8Z" transform="translate(-855.446 -808.358)" fill="#2b478b"/>
        <path id="Path_7153" data-name="Path 7153" d="M975.763,676.888s-9.358,1.325-10.561,5.306-8.282,27.382-8.282,27.382,4.712.98,6.959-1.148,8.165-20.089,8.165-20.089Z" transform="translate(-895.964 -649.811)" fill="#fff"/>
        <path id="Path_7154" data-name="Path 7154" d="M1013.331,763.131c6.634.622,18.348-.154,18.826-1.371,1.649-4.208.6-5.558,2.059-12.03l-2.96-9.114s.256,10.067-2.78,12.63-12.277,4.773-13.778,6.943A8.087,8.087,0,0,0,1013.331,763.131Z" transform="translate(-936.843 -695.991)" fill="#ebf3ff"/>
        <path id="Path_7155" data-name="Path 7155" d="M1010.659,804.631s-6.518-1.639-7.591-1.085-3.718,2.6-4.062,3.33,2.371-.5,3.249-.706a7.76,7.76,0,0,1,2.769.686,9.262,9.262,0,0,0,4.978.637Z" transform="translate(-926.441 -741.513)" fill="#ffb27d"/>
        <path id="Path_7156" data-name="Path 7156" d="M1043.881,674.731s8.79.782,11.722,5.117c4.128,6.1,11.944,31.836,6.974,35.105-5.6,3.681-25.029.321-25.029.321s-.567-3.052.377-4.5,15.686-3.414,16.382-4.074-8.108-13.441-8.053-15.473S1043.881,674.731,1043.881,674.731Z" transform="translate(-954.27 -648.247)" fill="#fff"/>
        <path id="Path_7157" data-name="Path 7157" d="M1005.6,810.443a12.685,12.685,0,0,1-1.878,1.934,1.347,1.347,0,0,1-.745.139l.971-1.641Z" transform="translate(-929.337 -746.594)" fill="#ffb27d"/>
        <path id="Path_7158" data-name="Path 7158" d="M1003.183,803.846l-4.047,1.831a.712.712,0,0,0,.655.274,9.528,9.528,0,0,0,1.746-.429Z" transform="translate(-926.557 -741.813)" fill="#ffb27d"/>
      </g>
      <g id="Group_4440" data-name="Group 4440" transform="translate(33.847 43.741)">
        <g id="Group_4439" data-name="Group 4439">
          <path id="Path_7159" data-name="Path 7159" d="M898.922,762.168l-31.6-.861-8.861-23.9,31.55.859Z" transform="translate(-858.462 -737.411)" fill="#f99746"/>
          <path id="Path_7160" data-name="Path 7160" d="M889.393,820.82l41.726,1.137-.025.921-41.356-1.127Z" transform="translate(-880.876 -797.855)" fill="#ed7d2b"/>
        </g>
        <path id="Path_7161" data-name="Path 7161" d="M920.655,778.182a1.1,1.1,0,0,1,1.114-1.475,2.156,2.156,0,0,1,1.895,1.557,1.1,1.1,0,0,1-1.114,1.476A2.157,2.157,0,0,1,920.655,778.182Z" transform="translate(-903.495 -765.887)" fill="#fff"/>
      </g>
    </g>
  </g>
</svg>
