<svg xmlns="http://www.w3.org/2000/svg" width="1920" height="302" viewBox="0 0 1920 302">
  <g id="page-3-img" transform="translate(0 -121)">
    <rect id="Rectangle_2739" data-name="Rectangle 2739" width="1920" height="302" transform="translate(0 121)" fill="#f3e9ff"/>
    <g id="Group_4411" data-name="Group 4411" transform="translate(95.01 151.836)" opacity="0.14">
      <path id="Path_7019" data-name="Path 7019" d="M1485.83,869.611l1.7-12.653-9.461-8.573a1.755,1.755,0,0,1,.863-3.026l12.56-2.294,5.229-11.647a1.754,1.754,0,0,1,3.145-.115l6.063,11.235,12.693,1.375a1.754,1.754,0,0,1,1.081,2.955l-8.812,9.239,2.615,12.5a1.755,1.755,0,0,1-2.477,1.941l-11.509-5.526-11.077,6.349A1.754,1.754,0,0,1,1485.83,869.611Z" transform="translate(-975.455 -718.535)" fill="#ffd800"/>
      <path id="Path_7020" data-name="Path 7020" d="M940.732,695.312l-1.194,5.871-9.659-.877-2.8,8.369-7.336.526.266,3.713,9.811-.7,2.657-7.931,10.048.912,1.8-8.835Z" transform="translate(-558.29 -462.003)" fill="#748828"/>
      <path id="Path_7021" data-name="Path 7021" d="M1679.367,855.252l-1.193,5.871-9.659-.876-2.8,8.369-7.336.526.266,3.714,9.811-.7,2.657-7.931,10.047.912,1.8-8.835Z" transform="translate(-1619.807 -848.155)" fill="#748828"/>
      <g id="Group_4410" data-name="Group 4410" transform="translate(166.495 152.761)">
        <path id="Path_7022" data-name="Path 7022" d="M784.83,925.086l5.676,1.789s8.922-3.022,9.781-4.86,1.05-6.273,2.323-6.411a3.862,3.862,0,0,1,4.37,3.27c.455,2.2-2.685,8.6-2.172,9.272.32.419,3.554,1.542,5.929,2.323a4.4,4.4,0,0,1,2.962,3.514v.005a2.425,2.425,0,0,1-1.481,2.626l-1.618.649.541,1.672a2.425,2.425,0,0,1-1.493,3.027l-1.252.438.415,1.017a2.424,2.424,0,0,1-1.522,3.226l-1.094.334.049.293A2.422,2.422,0,0,1,804.517,950l-1.088.3-15.117-4.769a10.736,10.736,0,0,1-3.845-2.165l-5.034-2.573a1.242,1.242,0,0,1-.6-1.5l4.458-13.407A1.238,1.238,0,0,1,784.83,925.086Z" transform="translate(-778.766 -915.581)" fill="#fff"/>
      </g>
      <path id="Path_7023" data-name="Path 7023" d="M667.25,778.735l-.114-9.333,7.623-5.385a1.283,1.283,0,0,0-.359-2.272l-8.911-2.775-2.766-8.914a1.282,1.282,0,0,0-2.271-.361l-5.393,7.618-9.333-.124a1.283,1.283,0,0,0-1.045,2.049l5.579,7.483-3,8.838a1.282,1.282,0,0,0,1.626,1.627l8.84-2.993,7.477,5.586A1.283,1.283,0,0,0,667.25,778.735Z" transform="translate(-593.346 -603.321)" fill="#dc4437"/>
      <path id="Path_7024" data-name="Path 7024" d="M1445.589,686.867l4.169-5.3-2-6.441a.927.927,0,0,1,1.2-1.145l6.331,2.327,5.506-3.9a.927.927,0,0,1,1.462.792l-.257,6.74,5.407,4.033a.927.927,0,0,1-.3,1.635l-6.489,1.838-2.165,6.388a.927.927,0,0,1-1.648.218l-3.754-5.6-6.745-.084A.927.927,0,0,1,1445.589,686.867Z" transform="translate(-954.448 -605.12)" fill="#dc4437"/>
      <path id="Path_7025" data-name="Path 7025" d="M1637.4,1051.867l4.17-5.3-2-6.441a.927.927,0,0,1,1.2-1.145l6.331,2.327,5.506-3.9a.927.927,0,0,1,1.462.792l-.257,6.74,5.407,4.033a.927.927,0,0,1-.3,1.635l-6.49,1.838-2.165,6.388a.927.927,0,0,1-1.648.219l-3.754-5.6-6.745-.084A.927.927,0,0,1,1637.4,1051.867Z" transform="translate(-1058.468 -826.055)" fill="#dc4437"/>
      <path id="Path_7026" data-name="Path 7026" d="M433.785,732.449l2.335-6.328-3.889-5.511a.927.927,0,0,1,.794-1.461l6.74.266,4.04-5.4a.927.927,0,0,1,1.635.3l1.83,6.492,6.385,2.173a.927.927,0,0,1,.217,1.649l-5.608,3.747-.093,6.745a.927.927,0,0,1-1.5.715l-5.3-4.176-6.443,2A.927.927,0,0,1,433.785,732.449Z" transform="translate(-432.06 -657.855)" fill="#ffd800"/>
      <path id="Path_7027" data-name="Path 7027" d="M1183.048,781.917l3.865,3.232-4.514,6.792,5.068,5.423L1184.921,803l2.853,1.289,3.406-7.537-4.8-5.139,4.7-7.066-5.816-4.863Z" transform="translate(-822.073 -692.183)" fill="#fff"/>
      <path id="Path_7028" data-name="Path 7028" d="M1161.149,608.282l-7.411,4.977a1.316,1.316,0,0,0,.33,2.252l8.656,3.526,2.683,9.39a1.191,1.191,0,0,0,2.1.515l5.245-7.443,9.068.826a1.191,1.191,0,0,0,.967-1.933l-5.416-8.127,2.923-8.879a1.316,1.316,0,0,0-1.5-1.711L1170.2,604.1l-7.262-6.314a1.121,1.121,0,0,0-1.9.876Z" transform="translate(-806.915 -597.473)" fill="#dc4437"/>
    </g>
    <g id="Group_7308" data-name="Group 7308" transform="translate(707.01 151.836)" opacity="0.14">
      <path id="Path_7019-2" data-name="Path 7019" d="M1485.83,869.611l1.7-12.653-9.461-8.573a1.755,1.755,0,0,1,.863-3.026l12.56-2.294,5.229-11.647a1.754,1.754,0,0,1,3.145-.115l6.063,11.235,12.693,1.375a1.754,1.754,0,0,1,1.081,2.955l-8.812,9.239,2.615,12.5a1.755,1.755,0,0,1-2.477,1.941l-11.509-5.526-11.077,6.349A1.754,1.754,0,0,1,1485.83,869.611Z" transform="translate(-975.455 -718.535)" fill="#ffd800"/>
      <path id="Path_7020-2" data-name="Path 7020" d="M940.732,695.312l-1.194,5.871-9.659-.877-2.8,8.369-7.336.526.266,3.713,9.811-.7,2.657-7.931,10.048.912,1.8-8.835Z" transform="translate(-558.29 -462.003)" fill="#748828"/>
      <path id="Path_7021-2" data-name="Path 7021" d="M1679.367,855.252l-1.193,5.871-9.659-.876-2.8,8.369-7.336.526.266,3.714,9.811-.7,2.657-7.931,10.047.912,1.8-8.835Z" transform="translate(-1619.807 -848.155)" fill="#748828"/>
      <g id="Group_4410-2" data-name="Group 4410" transform="translate(166.495 152.761)">
        <path id="Path_7022-2" data-name="Path 7022" d="M784.83,925.086l5.676,1.789s8.922-3.022,9.781-4.86,1.05-6.273,2.323-6.411a3.862,3.862,0,0,1,4.37,3.27c.455,2.2-2.685,8.6-2.172,9.272.32.419,3.554,1.542,5.929,2.323a4.4,4.4,0,0,1,2.962,3.514v.005a2.425,2.425,0,0,1-1.481,2.626l-1.618.649.541,1.672a2.425,2.425,0,0,1-1.493,3.027l-1.252.438.415,1.017a2.424,2.424,0,0,1-1.522,3.226l-1.094.334.049.293A2.422,2.422,0,0,1,804.517,950l-1.088.3-15.117-4.769a10.736,10.736,0,0,1-3.845-2.165l-5.034-2.573a1.242,1.242,0,0,1-.6-1.5l4.458-13.407A1.238,1.238,0,0,1,784.83,925.086Z" transform="translate(-778.766 -915.581)" fill="#fff"/>
      </g>
      <path id="Path_7023-2" data-name="Path 7023" d="M667.25,778.735l-.114-9.333,7.623-5.385a1.283,1.283,0,0,0-.359-2.272l-8.911-2.775-2.766-8.914a1.282,1.282,0,0,0-2.271-.361l-5.393,7.618-9.333-.124a1.283,1.283,0,0,0-1.045,2.049l5.579,7.483-3,8.838a1.282,1.282,0,0,0,1.626,1.627l8.84-2.993,7.477,5.586A1.283,1.283,0,0,0,667.25,778.735Z" transform="translate(-593.346 -603.321)" fill="#dc4437"/>
      <path id="Path_7024-2" data-name="Path 7024" d="M1445.589,686.867l4.169-5.3-2-6.441a.927.927,0,0,1,1.2-1.145l6.331,2.327,5.506-3.9a.927.927,0,0,1,1.462.792l-.257,6.74,5.407,4.033a.927.927,0,0,1-.3,1.635l-6.489,1.838-2.165,6.388a.927.927,0,0,1-1.648.218l-3.754-5.6-6.745-.084A.927.927,0,0,1,1445.589,686.867Z" transform="translate(-954.448 -605.12)" fill="#dc4437"/>
      <path id="Path_7025-2" data-name="Path 7025" d="M1637.4,1051.867l4.17-5.3-2-6.441a.927.927,0,0,1,1.2-1.145l6.331,2.327,5.506-3.9a.927.927,0,0,1,1.462.792l-.257,6.74,5.407,4.033a.927.927,0,0,1-.3,1.635l-6.49,1.838-2.165,6.388a.927.927,0,0,1-1.648.219l-3.754-5.6-6.745-.084A.927.927,0,0,1,1637.4,1051.867Z" transform="translate(-1058.468 -826.055)" fill="#dc4437"/>
      <path id="Path_7026-2" data-name="Path 7026" d="M433.785,732.449l2.335-6.328-3.889-5.511a.927.927,0,0,1,.794-1.461l6.74.266,4.04-5.4a.927.927,0,0,1,1.635.3l1.83,6.492,6.385,2.173a.927.927,0,0,1,.217,1.649l-5.608,3.747-.093,6.745a.927.927,0,0,1-1.5.715l-5.3-4.176-6.443,2A.927.927,0,0,1,433.785,732.449Z" transform="translate(-432.06 -657.855)" fill="#ffd800"/>
      <path id="Path_7027-2" data-name="Path 7027" d="M1183.048,781.917l3.865,3.232-4.514,6.792,5.068,5.423L1184.921,803l2.853,1.289,3.406-7.537-4.8-5.139,4.7-7.066-5.816-4.863Z" transform="translate(-822.073 -692.183)" fill="#fff"/>
      <path id="Path_7028-2" data-name="Path 7028" d="M1161.149,608.282l-7.411,4.977a1.316,1.316,0,0,0,.33,2.252l8.656,3.526,2.683,9.39a1.191,1.191,0,0,0,2.1.515l5.245-7.443,9.068.826a1.191,1.191,0,0,0,.967-1.933l-5.416-8.127,2.923-8.879a1.316,1.316,0,0,0-1.5-1.711L1170.2,604.1l-7.262-6.314a1.121,1.121,0,0,0-1.9.876Z" transform="translate(-806.915 -597.473)" fill="#dc4437"/>
    </g>
    <g id="Group_4412" data-name="Group 4412" transform="translate(1260.645 180.458)" opacity="0.14">
      <path id="Path_7019-3" data-name="Path 7019" d="M1485.83,869.611l1.7-12.653-9.461-8.573a1.755,1.755,0,0,1,.863-3.026l12.56-2.294,5.229-11.647a1.754,1.754,0,0,1,3.145-.115l6.063,11.235,12.693,1.375a1.754,1.754,0,0,1,1.081,2.955l-8.812,9.239,2.615,12.5a1.755,1.755,0,0,1-2.477,1.941l-11.509-5.526-11.077,6.349A1.754,1.754,0,0,1,1485.83,869.611Z" transform="translate(-975.455 -709.785)" fill="#ffd800"/>
      <path id="Path_7020-3" data-name="Path 7020" d="M20.991,0,19.8,5.871l-9.659-.877-2.8,8.369L0,13.89.266,17.6l9.811-.7,2.657-7.931,10.048.912,1.8-8.835Z" transform="matrix(0.259, 0.966, -0.966, 0.259, 393.948, 106.573)" fill="#748828"/>
      <path id="Path_7021-3" data-name="Path 7021" d="M1679.367,855.252l-1.193,5.871-9.659-.876-2.8,8.369-7.336.526.266,3.714,9.811-.7,2.657-7.931,10.047.912,1.8-8.835Z" transform="translate(-1081.962 -855.252)" fill="#748828"/>
      <g id="Group_4410-3" data-name="Group 4410" transform="translate(166.495 161.511)">
        <path id="Path_7022-3" data-name="Path 7022" d="M784.83,925.086l5.676,1.789s8.922-3.022,9.781-4.86,1.05-6.273,2.323-6.411a3.862,3.862,0,0,1,4.37,3.27c.455,2.2-2.685,8.6-2.172,9.272.32.419,3.554,1.542,5.929,2.323a4.4,4.4,0,0,1,2.962,3.514v.005a2.425,2.425,0,0,1-1.481,2.626l-1.618.649.541,1.672a2.425,2.425,0,0,1-1.493,3.027l-1.252.438.415,1.017a2.424,2.424,0,0,1-1.522,3.226l-1.094.334.049.293A2.422,2.422,0,0,1,804.517,950l-1.088.3-15.117-4.769a10.736,10.736,0,0,1-3.845-2.165l-5.034-2.573a1.242,1.242,0,0,1-.6-1.5l4.458-13.407A1.238,1.238,0,0,1,784.83,925.086Z" transform="translate(-778.766 -915.581)" fill="#fff"/>
      </g>
      <path id="Path_7023-3" data-name="Path 7023" d="M667.25,778.735l-.114-9.333,7.623-5.385a1.283,1.283,0,0,0-.359-2.272l-8.911-2.775-2.766-8.914a1.282,1.282,0,0,0-2.271-.361l-5.393,7.618-9.333-.124a1.283,1.283,0,0,0-1.045,2.049l5.579,7.483-3,8.838a1.282,1.282,0,0,0,1.626,1.627l8.84-2.993,7.477,5.586A1.283,1.283,0,0,0,667.25,778.735Z" transform="translate(-542.442 -667.564)" fill="#dc4437"/>
      <path id="Path_7024-3" data-name="Path 7024" d="M1445.589,686.867l4.169-5.3-2-6.441a.927.927,0,0,1,1.2-1.145l6.331,2.327,5.506-3.9a.927.927,0,0,1,1.462.792l-.257,6.74,5.407,4.033a.927.927,0,0,1-.3,1.635l-6.489,1.838-2.165,6.388a.927.927,0,0,1-1.648.218l-3.754-5.6-6.745-.084A.927.927,0,0,1,1445.589,686.867Z" transform="translate(-958.769 -627.584)" fill="#dc4437"/>
      <path id="Path_7025-3" data-name="Path 7025" d="M1637.4,1051.867l4.17-5.3-2-6.441a.927.927,0,0,1,1.2-1.145l6.331,2.327,5.506-3.9a.927.927,0,0,1,1.462.792l-.257,6.74,5.407,4.033a.927.927,0,0,1-.3,1.635l-6.49,1.838-2.165,6.388a.927.927,0,0,1-1.648.219l-3.754-5.6-6.745-.084A.927.927,0,0,1,1637.4,1051.867Z" transform="translate(-1058.467 -817.305)" fill="#dc4437"/>
      <path id="Path_7026-3" data-name="Path 7026" d="M433.785,732.449l2.335-6.328-3.889-5.511a.927.927,0,0,1,.794-1.461l6.74.266,4.04-5.4a.927.927,0,0,1,1.635.3l1.83,6.492,6.385,2.173a.927.927,0,0,1,.217,1.649l-5.608,3.747-.093,6.745a.927.927,0,0,1-1.5.715l-5.3-4.176-6.443,2A.927.927,0,0,1,433.785,732.449Z" transform="translate(-432.059 -649.105)" fill="#ffd800"/>
      <path id="Path_7027-3" data-name="Path 7027" d="M1183.048,781.917l3.865,3.232-4.514,6.792,5.068,5.423L1184.921,803l2.853,1.289,3.406-7.537-4.8-5.139,4.7-7.066-5.816-4.863Z" transform="translate(-822.072 -683.432)" fill="#fff"/>
      <path id="Path_7028-3" data-name="Path 7028" d="M1161.149,608.282l-7.411,4.977a1.316,1.316,0,0,0,.33,2.252l8.656,3.526,2.683,9.39a1.191,1.191,0,0,0,2.1.515l5.245-7.443,9.068.826a1.191,1.191,0,0,0,.967-1.933l-5.416-8.127,2.923-8.879a1.316,1.316,0,0,0-1.5-1.711L1170.2,604.1l-7.262-6.314a1.121,1.121,0,0,0-1.9.876Z" transform="translate(-806.914 -588.723)" fill="#dc4437"/>
    </g>
    <path id="Path_6874" data-name="Path 6874" d="M648.773,551.418c-6.079,4.942-14.717,10.427-21.831,12.788l10.569,1.99-43.658,51.481L506.837,642.72,403.861,752.537l81.116-.028,41.331-66.359,82.807-49.2,32.16-68.535,6.851,8.293C646.757,569.343,647.386,559.13,648.773,551.418Z" transform="translate(1194.852 -331.166)" fill="#dcdcdc"/>
    <g id="Group_4409" data-name="Group 4409" transform="translate(1404.811 310.243)">
      <path id="Path_6875" data-name="Path 6875" d="M221.9,1178.049s-4.716-8.454-5.864-10.251-4.136-8.938-4.243-9.219,2.059-3.661,1.575-3.776-1.018,1.782-1.534,1.555-2.022-4.794-2.316-4.568c-.55.424.812,2.833.519,2.985s-1.181-2.651-1.757-2.569,1.095,2.569.934,2.789-1.9-2.123-2.209-1.624c-.17.271,1.594,2.045,1.255,2.211s-1.909-.979-2.075-.649,1.452.782,1.936,1.672,1.308,1.275,1.65,2.923.854,7.613,2.606,10.589,5.607,9.563,5.607,9.563Z" transform="translate(-206.173 -1151.782)" fill="#f79c8d"/>
      <path id="Path_6876" data-name="Path 6876" d="M281.384,1308.744s5.217,5.622,5.992,7.888-.756,5.507-2.871,5.649-6.823-9.98-6.823-9.98Z" transform="translate(-266.964 -1285.217)" fill="#355389"/>
      <path id="Path_6877" data-name="Path 6877" d="M399.878,1443.663c-.38-.317-.839-.174-2.157-.783a8.046,8.046,0,0,0-1.227-.366.152.152,0,0,1-.116-.11c-.4-1.516-2.156-8.524-2.348-10.544-.2-2.067-1.53-10.828-1.733-12.16a.153.153,0,0,0-.192-.124l-3.829,1.068a.153.153,0,0,0-.108.181c.237,1.044,1.708,7.6,2.141,10.92.345,2.646,4.286,11.133,4.365,11.676l0,.015a.332.332,0,0,0,.329.284h4.267C399.434,1443.719,400,1443.762,399.878,1443.663Z" transform="translate(-360.885 -1379.43)" fill="#f48c7f"/>
      <path id="Path_6878" data-name="Path 6878" d="M384.951,1361.635c-2.038-6.181-4.316-5.918-4.316-5.918l1.762,12.995c1.258-.344,2.9-1.11,4.154-1.465A56.6,56.6,0,0,0,384.951,1361.635Z" transform="translate(-354.485 -1325.147)" fill="#13375b"/>
      <path id="Path_6879" data-name="Path 6879" d="M323.1,1255.953c-.624-4.065-4.3-6.988-8.148-5.016a9.125,9.125,0,0,0-2.634,2.111c-1.615,2.073-2.029,4.634-3.7,6.647a16.454,16.454,0,0,0,2.237,1.421l1.039-1.385-.358,1.729a25.355,25.355,0,0,0,11.217,2.227A21.562,21.562,0,0,0,323.1,1255.953Z" transform="translate(-293.261 -1235.538)" fill="#f7cc7f"/>
      <path id="Path_6880" data-name="Path 6880" d="M358.763,1569.277a16.459,16.459,0,0,0-2.936-1.628c-.122-.059-.567-.343-.728-.441a5.666,5.666,0,0,1-1.168-1.034,5.835,5.835,0,0,1-.572-2.535c.193-2.14,3.294-36.46,3.948-40.175.675-3.835-.353-9.685-.353-9.685l-2.394-.9-4.544,15.75.358,11.989a32.063,32.063,0,0,0-1.2,5.521c-.135,2.065,1.544,18.828,1.544,18.828h0a8.748,8.748,0,0,1-.09,1.48c-.123.627-.81,1.918-.5,2.507a1.584,1.584,0,0,0,.675.738l8.165.132C359.416,1569.828,359.122,1569.542,358.763,1569.277Z" transform="translate(-327.73 -1458.75)" fill="#f48c7f"/>
      <path id="Path_6881" data-name="Path 6881" d="M261.234,1503.163s-2.835,4.277-3.51,7.818.5,14.42-.8,19.058c-.7,2.511-3.368,6.389-3.773,9.635s-1.814,12.611-1.814,12.611h0a8.266,8.266,0,0,1-.981,2.765,8.146,8.146,0,0,0-1.068,1.409,4.153,4.153,0,0,0,.144,3.221c.187.41-.013.409.414.541a2.621,2.621,0,0,0,3.148-1.481,7.535,7.535,0,0,0,.618-2.723,12.709,12.709,0,0,1,.447-2.878h0l9.063-22.233,6.562-19.187,1.681-9.882Z" transform="translate(-242.594 -1449.365)" fill="#f79c8d"/>
      <path id="Path_6882" data-name="Path 6882" d="M251.663,1867.831a4.02,4.02,0,0,1-3.946-1.653,4.346,4.346,0,0,0-.375,3.232c.323.706,1.267.686,2.01.713a1.94,1.94,0,0,0,1.784-1.094A6.556,6.556,0,0,0,251.663,1867.831Z" transform="translate(-241.021 -1759.095)" fill="#86b1f2"/>
      <path id="Path_6883" data-name="Path 6883" d="M360.016,1874.306a7.377,7.377,0,0,1-4.649-.183,3.765,3.765,0,0,0-.374,1.948c.2.579.48.71.73.717,1.972.052,7.225.123,8.729.143a.246.246,0,0,0,.191-.405C364.271,1876.079,360.177,1874.4,360.016,1874.306Z" transform="translate(-332.648 -1765.849)" fill="#86b1f2"/>
      <path id="Path_6884" data-name="Path 6884" d="M305.921,1532.1l.512.033.027,0,.507.028.031,0,.511.024h.026l.521.02a33.78,33.78,0,0,0,5.86-.222c.782-7.829,1.073-14.974,1.363-16.555.7-3.835-.612-9.888-.612-9.888l-.627-.113.4-2.242-10.531,1.328s-2.949,4.277-3.651,7.818.515,14.419-.835,19.058C299.419,1531.4,302.425,1531.865,305.921,1532.1Z" transform="translate(-285.443 -1450.519)" fill="#f7cc7f"/>
      <path id="Path_6885" data-name="Path 6885" d="M314.511,1348.252s-3.754-.24-5.24,1.383,3.295,14.458,3.565,16.523-1.377,7.556-1.377,7.556,8.819,1.779,11.34.107c0,0,.27-14.849,0-16.325a43.7,43.7,0,0,0-3.061-8.064C319.2,1348.841,314.511,1348.252,314.511,1348.252Z" transform="translate(-293.575 -1318.792)" fill="#355389"/>
      <path id="Path_6886" data-name="Path 6886" d="M346.374,1314.3s-.019.111-.054.3a28.594,28.594,0,0,1-1.247,4.731c-.526,1,1.8,4.177,4.042,3.789.667-.115-.564-2.922-.5-3.219.113-.569.267-1.345.424-2.141l.263-1.332c.24-1.216.435-2.21.435-2.21Z" transform="translate(-324.188 -1289.872)" fill="#f7a491"/>
      <path id="Path_6887" data-name="Path 6887" d="M353.244,1314.6c.035-.188.054-.3.054-.3l3.357-.084s-.2.994-.435,2.21l-.261,1.325a3.144,3.144,0,0,1-1.6-.806,4.243,4.243,0,0,1-1.214-1.81C353.183,1314.927,353.218,1314.743,353.244,1314.6Z" transform="translate(-331.112 -1289.872)" fill="#f47458"/>
      <path id="Path_6888" data-name="Path 6888" d="M348.385,1263.7a3.022,3.022,0,0,0-2.574,1.1c-.992,1.286-2.061,5.262.4,7.424s4.9-.285,5.26-2.88S351.975,1263.607,348.385,1263.7Z" transform="translate(-323.94 -1246.917)" fill="#f7a491"/>
      <path id="Path_6889" data-name="Path 6889" d="M387.068,1293.128c-.294.573-.788.89-1.1.709s-.332-.794-.038-1.366.788-.891,1.1-.709S387.362,1292.555,387.068,1293.128Z" transform="translate(-358.805 -1270.736)" fill="#f7a491"/>
      <path id="Path_6890" data-name="Path 6890" d="M340.168,1260.688s-2.114,3.781-3.626,3.956-1.711,2.184-1.711,2.184.541-4.63,2.038-5.523A5.55,5.55,0,0,1,340.168,1260.688Z" transform="translate(-315.546 -1244.329)" fill="#f7cc7f"/>
      <path id="Path_6891" data-name="Path 6891" d="M339.919,1287.6c.123.672-.124,1.287-.553,1.375s-.875-.385-1-1.056.124-1.287.552-1.375S339.8,1286.926,339.919,1287.6Z" transform="translate(-318.527 -1266.332)" fill="#f7a491"/>
      <path id="Path_6892" data-name="Path 6892" d="M361.266,1309.92l2.288.45a1.019,1.019,0,0,1-1.235.69C361.084,1310.854,361.266,1309.92,361.266,1309.92Z" transform="translate(-338.011 -1286.216)" fill="#fff"/>
    </g>
    <g id="Group_4398" data-name="Group 4398" transform="translate(1701.512 341.506)">
      <rect id="Rectangle_2733" data-name="Rectangle 2733" width="0.955" height="21.877" transform="translate(47.322 79.917) rotate(169.264)" fill="#3c8f7c"/>
      <path id="Path_6893" data-name="Path 6893" d="M1322.753,1771.875h-1.128l4.2-21.774.938.178Z" transform="translate(-1319.773 -1691.68)" fill="#3c8f7c"/>
      <path id="Path_6894" data-name="Path 6894" d="M1542.5,1771.875h-1.128l4.2-21.774.938.178Z" transform="translate(-1506.584 -1691.68)" fill="#3c8f7c"/>
      <path id="Path_6895" data-name="Path 6895" d="M1374.75,1772.428l.916.011-4.031-21.687-.938.178Z" transform="translate(-1361.489 -1692.234)" fill="#184655"/>
      <path id="Path_6896" data-name="Path 6896" d="M1338.77,1434.581c5.008.536,11.49,1.1,18,12.144,7.111,12.068,3.368,30.094-2.245,35.1s-23.944,11.195-39.354,1.935c0,0-9.3-5.611-4.529-14.924,7.349-14.331,6.31-17.32,9.6-22.937S1328.139,1433.442,1338.77,1434.581Z" transform="translate(-1309.273 -1423.348)" fill="#f47458"/>
      <path id="Path_6897" data-name="Path 6897" d="M1373.911,1452.281c-4.441-7.536-8.87-10.192-12.827-11.289a33.123,33.123,0,0,1,4.635,6.257c7.111,12.068,3.368,30.094-2.245,35.1-4.977,4.443-19.957,9.808-34.032,4.508a14.3,14.3,0,0,0,2.869,2.459c15.41,9.26,33.741,3.075,39.354-1.935S1381.023,1464.349,1373.911,1452.281Z" transform="translate(-1326.419 -1428.905)" fill="#b75742"/>
      <path id="Path_6898" data-name="Path 6898" d="M1391.48,1557.662l-1.287,3.862,3.923-1.543Z" transform="translate(-1378.064 -1528.087)" fill="#f79c8d"/>
      <path id="Path_6899" data-name="Path 6899" d="M1395.587,1480.994c-.262.011-.979.25-2.026,2.224-1.339,2.521-3.294,10.135-3.294,10.135l5.839,2.167.75-1.589,1.235-12.236S1395.659,1480.991,1395.587,1480.994Z" transform="translate(-1378.125 -1462.911)" fill="#6394db"/>
      <path id="Path_6900" data-name="Path 6900" d="M1431.379,1473.672a35.785,35.785,0,0,0-7.718,1.1s-1.409,12.065,1.268,21.233c.6,2.052-.5,8.507-.5,8.507l17.3-.227s-2.05-15.605-1.277-18.126.79-11.306.79-11.306-.119-.018-3.887-.667A39.288,39.288,0,0,0,1431.379,1473.672Z" transform="translate(-1406.2 -1456.686)" fill="#86b1f2"/>
      <path id="Path_6901" data-name="Path 6901" d="M1482.825,1828.8s-.383,4.4-1.086,5.622.037,3.292.074,3.576,1.481.691,3.778.447,2.259-.772,2.074-1.625-1.407-1.951-1.481-2.763a21.132,21.132,0,0,1,.7-3.739Z" transform="translate(-1455.63 -1758.587)" fill="#f7a491"/>
      <path id="Path_6902" data-name="Path 6902" d="M1355,1653.634s-11.943-.661-14.609.949.482,4.915.482,4.915,9.723,4.213,26,5.149c3.854.222,4.187-10.016,3.466-10.863S1355,1653.634,1355,1653.634Z" transform="translate(-1334.818 -1609.444)" fill="#e5b05c"/>
      <path id="Path_6903" data-name="Path 6903" d="M1484.466,1872.175c2.365-.251,2.072-1.409,1.882-2.287a7.784,7.784,0,0,0-1.2-1.813,3.94,3.94,0,0,1-1.582.767c-1.066.314-2.528-.307-3.46-.7a11.341,11.341,0,0,0-.316,3.04C1479.826,1871.478,1482.1,1872.426,1484.466,1872.175Z" transform="translate(-1454.219 -1791.971)" fill="#f47458"/>
      <path id="Path_6904" data-name="Path 6904" d="M1486.249,1662.82c-.477,3.6-2.84,21.511-2.84,21.511l5.482.677s6.741-23.38,6.4-26.957-2.869-3.877-2.869-3.877S1487.511,1653.295,1486.249,1662.82Z" transform="translate(-1457.307 -1610.115)" fill="#f7cc7f"/>
      <path id="Path_6905" data-name="Path 6905" d="M1430.36,1490.382c-1.618-.6-2.409,13.92-2.627,19.9a70.767,70.767,0,0,1-9.1-.091c-.585-.044-1.933-.536-2.515-.612a5.856,5.856,0,0,0-1.429-.068,27.052,27.052,0,0,0-3.349,1.5c-.317.331-1.173,1.166-1.029,1.527s1.647-1.005,1.647-1.005l.734-.411c-.914.89-2.658,2.062-2.406,2.489s1.817-.773,2.938-1.584c-.961.866-2.156,2.414-1.881,2.655.247.217,1.606-1.576,3.058-2.092.538-.191,1.074.339,1.5.4a3.056,3.056,0,0,0,1.1.061l1.572-.444c.535.048.549.364,1.09.479.628.133,1.658.274,2.457.468,4.6,1.121,6.14,1.642,7.549,1.641C1433.935,1515.2,1434.183,1491.812,1430.36,1490.382Z" transform="translate(-1395.124 -1470.876)" fill="#f7a491"/>
      <path id="Path_6906" data-name="Path 6906" d="M1527.61,1496.321c.3-6.124.259-13.672-3.186-14.96-1.359-.508-3.755,2.547-3.324,15.084A25.964,25.964,0,0,0,1527.61,1496.321Z" transform="translate(-1489.305 -1463.178)" fill="#86b1f2"/>
      <path id="Path_6907" data-name="Path 6907" d="M1351.477,1853.928a2.967,2.967,0,0,1-.378,2.539c-.856,1.01-4.415,2-4.882,2.55a1.531,1.531,0,0,0-.432,1.014l9.988-.274-.109-3.006-.46-2.161Z" transform="translate(-1340.311 -1779.944)" fill="#f7a491"/>
      <path id="Path_6908" data-name="Path 6908" d="M1341.737,1872.929s2.566,1.035,3.806.422,1.2-.782,1.561-.554.487,3.3.487,3.3l-11.232.076c-.781-.018-1.177-.592-.542-1.083a9.17,9.17,0,0,1,1.224-.726A35.2,35.2,0,0,1,1341.737,1872.929Z" transform="translate(-1331.57 -1795.902)" fill="#f47458"/>
      <path id="Path_6909" data-name="Path 6909" d="M1336.419,1657.844c-.772-1.619-2.528-3.727-5.617-2.457-2.947,1.211-3.737,4.187-2.808,7.234s7.05,20.962,7.263,23.425l4.886.032s-.888-14.185-1.106-17.614A33.111,33.111,0,0,0,1336.419,1657.844Z" transform="translate(-1324.874 -1610.832)" fill="#f7cc7f"/>
      <path id="Path_6910" data-name="Path 6910" d="M1327.32,1563.907h16.334a1.065,1.065,0,0,1,.985.661l5.03,12.267h9.005a.456.456,0,0,1,.456.456h0a.456.456,0,0,1-.456.456h-25.629a1.789,1.789,0,0,1-1.632-1.056l-5.064-11.281A1.065,1.065,0,0,1,1327.32,1563.907Z" transform="translate(-1323.708 -1533.396)" fill="#355389"/>
      <path id="Path_6911" data-name="Path 6911" d="M1391.909,1604.826a.9.9,0,1,0,.674-1.172A.961.961,0,0,0,1391.909,1604.826Z" transform="translate(-1379.503 -1567.171)" fill="#fff"/>
      <path id="Path_6912" data-name="Path 6912" d="M1463.85,1437.4l.8,5.268s-2.919,6.272-4.661,5.728c-1.462-.456-.562-6.006-.562-6.006a15.2,15.2,0,0,0,.558-4.472C1459.745,1436.425,1463.85,1437.4,1463.85,1437.4Z" transform="translate(-1436.686 -1425.584)" fill="#f7a491"/>
      <path id="Path_6913" data-name="Path 6913" d="M1464.12,1437.916c-.239-1.491,3.866-.518,3.866-.518l.066.437a2.429,2.429,0,0,1-.445.734,5.406,5.406,0,0,1-3.59,1.624A8.131,8.131,0,0,0,1464.12,1437.916Z" transform="translate(-1440.823 -1425.584)" fill="#f47458" opacity="0.2"/>
      <g id="Group_4397" data-name="Group 4397" transform="translate(20.827)">
        <path id="Path_6914" data-name="Path 6914" d="M1455.229,1380.119c.116-.042.93,6-.615,7.662s-4.555,2.206-5.634.9c-1.194-1.448-1.134-7.942,1.268-9.651S1455.229,1380.119,1455.229,1380.119Z" transform="translate(-1448.219 -1375.758)" fill="#f7a491"/>
        <path id="Path_6915" data-name="Path 6915" d="M1456.026,1360.39a6.671,6.671,0,0,1,3.5,2c.843.1,1.989.565,3.172,2.524a4.9,4.9,0,0,1-1.313,6.386,3.817,3.817,0,0,0-1.67,2.822l-.268-.782a4.367,4.367,0,0,1-.212-1.843,3.583,3.583,0,0,1,.274-1.108c.407-.875-.875-1.455-1.234-2.183-.277-.56-.29-1.842-.726-2.767l-.521-.707a3.311,3.311,0,0,0-2.377-.671C1453.475,1364.322,1453.645,1359.9,1456.026,1360.39Z" transform="translate(-1453.083 -1360.353)" fill="#f7cc7f"/>
        <path id="Path_6916" data-name="Path 6916" d="M1483.387,1412.406c-.012.737.323,1.341.748,1.348s.781-.584.793-1.322-.323-1.34-.748-1.348S1483.4,1411.669,1483.387,1412.406Z" transform="translate(-1478.115 -1403.48)" fill="#f7a491"/>
      </g>
      <path id="Path_6917" data-name="Path 6917" d="M1456.269,1432.849l-2.329-.121a1.02,1.02,0,0,0,1.031.97C1456.217,1433.8,1456.269,1432.849,1456.269,1432.849Z" transform="translate(-1432.255 -1421.879)" fill="#fff"/>
    </g>
    <g id="Group_4399" data-name="Group 4399" transform="translate(1804.705 313.72)">
      <path id="Path_6918" data-name="Path 6918" d="M1778.244,1199.967c.254,1.044.712,2.694.712,2.694-.036.454-.17,2.341-.33,4.654l3.4-1.361a36.7,36.7,0,0,1,.111-4c.128-.2.344.048,1.386-1.443a2.913,2.913,0,0,0,.357-1.2s.062-.947-.151-1.035a.442.442,0,0,0-.533.217c-.077.164-.057.545-.134.708a1.178,1.178,0,0,1-.776.351c-.207-.01.026-2.8.026-2.8s.115-.791.174-1.05c.05-.221.251-.868.251-.868s.236-.939-.056-1.011c-.172-.042-.61.721-.91,1.53a16.418,16.418,0,0,1-.6,1.784c-.217-.029-.1-1.559-.1-1.559a4.9,4.9,0,0,0,.211-1.031c.2-.405.34-1.157-.02-1.219a6.24,6.24,0,0,0-.541.943s-.187.672-.3.986c-.192.554-.22,1.429-.321,1.816-.083.321-.158.189-.192.2a8.115,8.115,0,0,1,.073-1.041,6.17,6.17,0,0,1,.077-1.009,7.374,7.374,0,0,0,.146-1.065c.058-.791-.44-.71-.613.013-.065.276-.135.576-.2.881-.268,1.186-.26,2.329-.388,2.339a8.609,8.609,0,0,1-.057-2.069s-.255-1.152-.508-.083a9.306,9.306,0,0,0-.259,2.3A8.985,8.985,0,0,0,1778.244,1199.967Z" transform="translate(-1778.12 -1190.577)" fill="#f8a492"/>
      <path id="Path_6919" data-name="Path 6919" d="M1987.7,1181.621c-.254,1.044-.712,2.694-.712,2.694.036.453.17,2.341.33,4.654l-3.4-1.361a36.671,36.671,0,0,0-.111-4c-.128-.2-.344.048-1.386-1.443a2.911,2.911,0,0,1-.357-1.2s-.062-.947.151-1.035a.441.441,0,0,1,.534.217c.077.164.057.545.134.708a1.178,1.178,0,0,0,.776.351c.207-.01-.026-2.8-.026-2.8s-.115-.791-.174-1.05c-.05-.221-.251-.868-.251-.868s-.236-.939.056-1.011c.172-.042.61.721.91,1.53a16.359,16.359,0,0,0,.6,1.784c.217-.029.1-1.559.1-1.559a4.9,4.9,0,0,1-.211-1.032c-.2-.405-.34-1.157.02-1.219a6.234,6.234,0,0,1,.541.943s.186.672.295.986a18.412,18.412,0,0,1,.321,1.816c.083.321.158.189.193.2a8.131,8.131,0,0,0-.073-1.041,6.165,6.165,0,0,0-.077-1.009,7.331,7.331,0,0,1-.146-1.066c-.058-.791.44-.71.612.013.066.276.135.576.2.881.268,1.186.26,2.329.388,2.339a8.625,8.625,0,0,0,.057-2.068s.255-1.152.508-.083a9.322,9.322,0,0,1,.259,2.3A8.991,8.991,0,0,1,1987.7,1181.621Z" transform="translate(-1951.486 -1174.981)" fill="#f8a492"/>
      <path id="Path_6920" data-name="Path 6920" d="M1942.116,1810.965a25.961,25.961,0,0,0,2.355,2.625c.47.287-.21,3.683-1.489,3.906-.721.125-1.122-.668-1.122-.668l.207-.978-2.694-2.775Z" transform="translate(-1915.203 -1715.635)" fill="#f7a491"/>
      <path id="Path_6921" data-name="Path 6921" d="M1875.92,1814.817a25.986,25.986,0,0,0,2,2.9c.429.345-.679,3.627-1.976,3.684-.731.032-1.027-.806-1.027-.806l.33-.944-2.317-3.1Z" transform="translate(-1858.719 -1718.91)" fill="#f7a491"/>
      <path id="Path_6922" data-name="Path 6922" d="M1876.5,1833.523a19.876,19.876,0,0,1-1.4,1.609,16.652,16.652,0,0,1-1.45,1.169s-.922,1.674-1.174,2.257a9.737,9.737,0,0,0-1.1,3.476c.029.234.554.481.992.347,1.821-.56,6.477-4.819,7.065-5.963C1880.121,1835.1,1876.5,1833.523,1876.5,1833.523Z" transform="translate(-1857.398 -1734.812)" fill="#13375b"/>
      <path id="Path_6923" data-name="Path 6923" d="M1806.619,1565.974c.169-.473.331-.911.488-1.323,1.937.423,4.125.888,6.375,1.367l.274,8.249c0-.637-1.692,13.157-1.692,13.157s4.373,9.682,7.364,15.326a10.323,10.323,0,0,1-3.581,3.07c-4.643-5.566-10.719-15.751-10.972-17.445C1804.731,1587.4,1804.6,1571.654,1806.619,1565.974Z" transform="translate(-1800.803 -1506.242)" fill="#3c8f7c"/>
      <path id="Path_6924" data-name="Path 6924" d="M1873.131,1576.114c-.592,6.428-1.908,18.716-1.8,19.7.33,1.232,6.183,12.6,7.237,14.259a7.1,7.1,0,0,1-3.524,3c-.275.074-9.934-13.671-10.461-14.762-.6-1.233-1.587-7.961-1.6-16.291l-.274-8.249C1866.456,1574.572,1869.9,1575.356,1873.131,1576.114Z" transform="translate(-1850.027 -1513.997)" fill="#50bfa5"/>
      <path id="Path_6925" data-name="Path 6925" d="M1814.361,1393.921l4.414.606s3.531.064,3.968.064,3.218,16.123,4.02,22.183.181,7.132.181,7.132a38.849,38.849,0,0,1-9.737.892,31.75,31.75,0,0,1-9.149-2.706s3.68-11.644,4.41-15.28S1814.361,1393.921,1814.361,1393.921Z" transform="translate(-1803.571 -1361.104)" fill="#355389"/>
      <path id="Path_6926" data-name="Path 6926" d="M1778.208,1260.2s-.283,12,.169,12.923c.658,1.336,8.07,10.807,8.07,10.807s-3.541,14.816-5.029,19.933c-.15.515-.813,3.844-.813,4.168,0,.719,3.132,1.633,3.5,1.579.333-.049,3.066-14.142,4.81-21.039a19.726,19.726,0,0,1,2.993-6.516l1.213-1.724-9.311-9.333s-1.147-10.388-1.147-11.249C1782.666,1259.519,1778.659,1259.35,1778.208,1260.2Z" transform="translate(-1778.12 -1246.883)" fill="#86b1f2"/>
      <path id="Path_6927" data-name="Path 6927" d="M1885.895,1261.2l11.611-11.831s1.618-11.187,1.733-11.609,3-.638,4.158-.751c.373-.036-.195,11.916-.751,13.919-.657,2.367-9.433,13.15-9.433,13.15s-1.573,5.841-1.194,10.125c.63,7.116,2.326,16.9,2.022,17.211-1.887,1.189-9.129,1.316-9.588.578C1879.391,1283.843,1885.895,1261.2,1885.895,1261.2Z" transform="translate(-1866.875 -1227.713)" fill="#86b1f2"/>
      <path id="Path_6928" data-name="Path 6928" d="M1949.794,1827.894a19.861,19.861,0,0,1-1.178,1.774,16.6,16.6,0,0,1-1.288,1.345s-.7,1.778-.876,2.389a10.314,10.314,0,0,0-.648,3.714c.059.228.56.663.974.394,1.6-1.04,5.863-5.91,6.3-7.119C1953.582,1829,1949.794,1827.894,1949.794,1827.894Z" transform="translate(-1920.632 -1730.027)" fill="#13375b"/>
      <path id="Path_6929" data-name="Path 6929" d="M1859.632,1295.1a11.863,11.863,0,0,0,1.48-.029,6.91,6.91,0,0,1,1.675,0,3.779,3.779,0,0,1,2.675,1.916c.566,1.4,2.592,1.193.192,6.511-2.716,6.02-5.889,4.049-5.933,3.913s-1.569-5.1-1.569-5.1-1.9,1.883-1.867,1.8S1853.7,1294.89,1859.632,1295.1Z" transform="translate(-1844.102 -1277.03)" fill="#0e2e35"/>
      <path id="Path_6930" data-name="Path 6930" d="M1876.665,1362.344l-.316,2.355s-.709,3.393.2,4.047,3.878-4.144,3.878-4.144l-.313-5.968Z" transform="translate(-1861.401 -1331.106)" fill="#f7a491"/>
      <path id="Path_6931" data-name="Path 6931" d="M1881.978,1360.569a6.758,6.758,0,0,1-3.82,3.772l.268-2,3.451-3.709Z" transform="translate(-1863.163 -1331.106)" fill="#f47458"/>
      <path id="Path_6932" data-name="Path 6932" d="M1864.9,1311.282a3.141,3.141,0,0,0-4.505,1.694,23.918,23.918,0,0,0-.819,2.92c-.567,2.692.323,5.587,1.546,5.82a5.894,5.894,0,0,0,5.8-4.683C1867.446,1314.68,1866.68,1312.3,1864.9,1311.282Z" transform="translate(-1847.216 -1290.503)" fill="#f7a491"/>
      <path id="Path_6933" data-name="Path 6933" d="M1903.011,1347.606a.914.914,0,1,0,1.087-.911A1.012,1.012,0,0,0,1903.011,1347.606Z" transform="translate(-1884.27 -1320.945)" fill="#f7a491"/>
      <path id="Path_6934" data-name="Path 6934" d="M1874.37,1311.866s-1.517-.179-1.7-1.266-1.292-3.707-3.934-3.792,2.792-1.164,2.979-1.093,2.44.9,2.44.9,1.194,2.078,1.2,2.258-.141,2.075-.141,2.075Z" transform="translate(-1854.542 -1286.116)" fill="#0e2e35"/>
      <path id="Path_6935" data-name="Path 6935" d="M1868.72,1362.549l-2.707-.47a1.2,1.2,0,0,0,1.066,1.283C1868.524,1363.656,1868.72,1362.549,1868.72,1362.549Z" transform="translate(-1852.836 -1334.034)" fill="#fff"/>
    </g>
    <g id="Group_4402" data-name="Group 4402" transform="translate(1588.051 322.339)">
      <path id="Path_6936" data-name="Path 6936" d="M971.352,1429.85a2.762,2.762,0,0,0,.29.7,26.752,26.752,0,0,0,2.779,3.7l1.5-3.385s-.245-1.063-.67-2.582C973.8,1428.664,972.421,1428.883,971.352,1429.85Z" transform="translate(-967.773 -1398.936)" fill="#f8a492"/>
      <path id="Path_6937" data-name="Path 6937" d="M960.065,1352.021s-8.379,3.608-8.65,3.54a22.269,22.269,0,0,1-3.472-10.641c-.016-2.372,2.447-5.225,5.2-4.66,1.383.284,1.362.669,3.409,3.643A34.278,34.278,0,0,1,960.065,1352.021Z" transform="translate(-947.873 -1324.043)" fill="#13375b"/>
      <path id="Path_6938" data-name="Path 6938" d="M1073.352,1850.729s-.2,3.291-.2,3.3a18.013,18.013,0,0,0-.361,1.83c0,1.427,6.776-1.211,5.257-1.843-.138-.057-.857-.49-.9-.976-.07-.748-.246-2.262-.246-2.262Z" transform="translate(-1054.007 -1758.058)" fill="#f7a491"/>
      <path id="Path_6939" data-name="Path 6939" d="M1076.671,1872.214s-1.591.437-2.406.546-1.889-.81-2.465-.562c-.634.273-.609,2.732-.609,2.732s8.531.7,10.929-.024C1083.07,1874.62,1079.922,1873.231,1076.671,1872.214Z" transform="translate(-1052.646 -1776.273)" fill="#dd513a"/>
      <path id="Path_6940" data-name="Path 6940" d="M980.883,1850.729s-.2,3.291-.2,3.3a17.981,17.981,0,0,0-.361,1.83c0,1.427,6.776-1.211,5.257-1.843-.137-.057-1.071-.813-1.116-1.3-.07-.749-.033-1.939-.033-1.939Z" transform="translate(-975.398 -1758.058)" fill="#f7a491"/>
      <path id="Path_6941" data-name="Path 6941" d="M983.918,1872.214s-1.591.437-2.405.546-1.889-.81-2.465-.562c-.634.273-.66,2.732-.66,2.732s8.569.816,10.98-.024C990.3,1874.58,987.17,1873.231,983.918,1872.214Z" transform="translate(-973.754 -1776.273)" fill="#dd513a"/>
      <g id="Group_4400" data-name="Group 4400" transform="translate(7.556 6.9)">
        <path id="Path_6942" data-name="Path 6942" d="M997.879,1304.354l5.967-8.36c.025-.073.079-.223.162-.452.3-.83.926-2.555,1.471-4.273l.006-.018c.171-.6.534-1.647.885-2.66.39-1.126.874-2.523.891-2.761-.015-.041-.043-.114-.081-.211a19.249,19.249,0,0,1-.619-2.509c-.067-.375-.133-1.285.312-1.285.7,0,.366.909.689,1.477a14.355,14.355,0,0,0,.485-1.895l.117-1.777c.023-.134-.12-1.115.371-1.115h.023c.441.032.431,1.074.615,2.838.058-.2.116-.447.16-.672a6.455,6.455,0,0,1,.149-.93c-.089-.491-.037-1.266.486-1.193.262.037.241,1.118.241,1.118,0,.148-.018,1.292-.01,1.518.054-.384.264-2.02.674-2.02.34,0,.368.441.361.789,0,.206-.218,1.979-.23,2.185.16-.269.35-1.831.509-1.831.664,0,.424,2.221.18,2.8a2.574,2.574,0,0,0-.076.31,5.454,5.454,0,0,1-.569,1.653c-.417.713-.992,1.846-1.079,2.02-.064.354-.264,1.627-.515,3.229-.108.686-.225,1.437-.348,2.215h-.006c-.022.168-.147.7-.619,2.714a23.976,23.976,0,0,1-.742,2.92c-.28.5-6.715,9.234-6.988,9.606l-.161.219Z" transform="translate(-997.879 -1278.517)" fill="#f7a491"/>
        <path id="Path_6943" data-name="Path 6943" d="M1064.29,1313.516s-.484-1.239-1.347-1.241a.991.991,0,0,1,.895.153A1.707,1.707,0,0,1,1064.29,1313.516Z" transform="translate(-1053.19 -1307.175)" fill="#f47458"/>
      </g>
      <g id="Group_4401" data-name="Group 4401">
        <path id="Path_6944" data-name="Path 6944" d="M983.9,1303.236l-.768,4.858s2.927,2.35,4.633,1.854c1.432-.416.45-2.288.45-2.288a12.161,12.161,0,0,1-.529-3.953C987.924,1302.349,983.9,1303.236,983.9,1303.236Z" transform="translate(-977.789 -1292.389)" fill="#f7a491"/>
        <path id="Path_6945" data-name="Path 6945" d="M987.973,1304.707a11.957,11.957,0,0,0,3.313.934,6.441,6.441,0,0,1-.078-1.93c.108-.627-.69-.776-1.581-.754-1.166.1-2.205.282-2.205.282l-.148.934A2.411,2.411,0,0,0,987.973,1304.707Z" transform="translate(-981.308 -1292.392)" fill="#fe875e"/>
        <path id="Path_6946" data-name="Path 6946" d="M963.571,1252.655c-.121,0,1.157,5.427,3.135,6.361s4.927.447,5.48-1.015c.612-1.617-1.621-7.154-4.4-7.857S963.571,1252.655,963.571,1252.655Z" transform="translate(-961.152 -1247.411)" fill="#f7a491"/>
        <path id="Path_6947" data-name="Path 6947" d="M952.181,1232.74a6.226,6.226,0,0,0-2.549,2.816c-.741.352-1.638,1.113-2.069,3.163a4.447,4.447,0,0,0,3.349,5.049,3.034,3.034,0,0,1,2.3,1.905l.226-1.421a5.625,5.625,0,0,0-1.112-1.857c-.668-.619.316-1.522.4-2.258.066-.567-.351-1.668-.261-2.6a6.422,6.422,0,0,1,2.2-2.1C956.539,1234.736,954.208,1231.571,952.181,1232.74Z" transform="translate(-947.473 -1232.484)" fill="#13375b"/>
        <path id="Path_6948" data-name="Path 6948" d="M975.7,1284.7c.258.627.153,1.249-.236,1.39s-.914-.253-1.172-.88-.153-1.249.236-1.39S975.445,1284.069,975.7,1284.7Z" transform="translate(-970.155 -1276.097)" fill="#f7a491"/>
      </g>
      <path id="Path_6949" data-name="Path 6949" d="M1033.634,1422.443l11.511-1.877s-1.309-3.3-1.778-3.3-8.7,3.6-8.7,3.6l-.655,1.315Z" transform="translate(-1020.719 -1389.571)" fill="#f8a492"/>
      <path id="Path_6950" data-name="Path 6950" d="M983.176,1501.453a37.9,37.9,0,0,0-.68,9.76c.468,4.209.5,19.161.5,19.161l-1.786,23.924,4.237.092s5.024-23.912,4.931-23.3,1.685-16.837,1.685-16.837l-5.99-13.329Z" transform="translate(-976.157 -1460.689)" fill="#184655"/>
      <path id="Path_6951" data-name="Path 6951" d="M1000.184,1492.239s-.749,5,.187,7.191,8.027,23.7,8.121,25.456,2.452,21.139,2.452,21.139l4.927-.139,1.066-21.552-2.232-27.088-2.167-6.849Z" transform="translate(-992.042 -1451.737)" fill="#13375b"/>
      <path id="Path_6952" data-name="Path 6952" d="M983.135,1328.344a4.426,4.426,0,0,0,2.348.7,7.8,7.8,0,0,0,2.735-1.138l-.223-.755s-2.931-.427-3.005-.381S983.135,1328.344,983.135,1328.344Z" transform="translate(-977.789 -1312.638)" fill="#f7a491"/>
      <path id="Path_6953" data-name="Path 6953" d="M1069.52,1393.081s4.354,4.109,6.319,3.407,2.779-3.1-2.017-6.608C1069.531,1386.74,1069.52,1393.081,1069.52,1393.081Z" transform="translate(-1051.226 -1365.546)" fill="#f8a492"/>
      <path id="Path_6954" data-name="Path 6954" d="M975.986,1351.258c-.647-3.519-5.334-14.469-5.709-16.486-.182-.981-2.711-1-5.119-.875-2.544.135-5.071.457-5.071.457a7.738,7.738,0,0,0-3.243,1.3c-.991.928-1.254,3.5.17,8.37,1.125,3.848,2.518,5.96,3.208,8.763.14.94.259,1.868.418,2.951.254,4.19,0,9.727,0,9.727s12.26,2.543,16.846-1.315C977.484,1364.149,976.649,1354.864,975.986,1351.258Z" transform="translate(-954.742 -1318.65)" fill="#355389"/>
      <path id="Path_6955" data-name="Path 6955" d="M1032.263,1344.489s-4.811,3.971-5.091,3.971c-.181,0-6.865-4.917-8.408-8.956a3.532,3.532,0,0,1,2.98-4.724c1.416.006,2.046.371,4.854,2.739A35.823,35.823,0,0,1,1032.263,1344.489Z" transform="translate(-1007.892 -1319.446)" fill="#466eb6"/>
    </g>
    <path id="Path_6956" data-name="Path 6956" d="M968.921,627.112c-1.177-.794-2.382-1.547-3.542-2.364a1.028,1.028,0,0,1-.375-.785c.153-1.637.4-3.266.541-4.9a.869.869,0,0,1,.607-.905c1.611-.63,3.2-1.3,4.8-1.962.26-.107.515-.223.962-.417l-2.293-7.371c-2.059.409-3.937.75-5.8,1.168a1.14,1.14,0,0,1-1.436-.537c-.863-1.243-1.9-2.365-2.828-3.564a.932.932,0,0,1-.121-.769c.632-1.637,1.263-3.278,1.993-4.872a.99.99,0,0,0-.51-1.533,4.765,4.765,0,0,1-.714-.557l-3.549-1.908a2.439,2.439,0,0,1-.445-.092c-1.444-.591-1.165-.579-1.985.626-1,1.468-1.973,2.953-2.828,4.235l-6.413-.6-2.5-6.074a24.656,24.656,0,0,0-7.347,2.284c.406,2.025.8,4,1.2,5.972a.682.682,0,0,1-.3.828c-1.358,1.016-2.692,2.068-3.977,3.174a.8.8,0,0,1-1.006.153c-1.642-.691-3.3-1.343-4.945-2.027a.691.691,0,0,0-.976.242,21.982,21.982,0,0,0-3.043,5.9c-.15.415.05.6.363.8,1.451.943,2.879,1.922,4.336,2.854a.867.867,0,0,1,.464,1.043c-.29,1.875-.471,3.766-.711,5.8l-5.828,2.4a22.98,22.98,0,0,0,2.234,7.453l6.3-1.295c1.213,1.4,2.307,2.727,3.482,3.979A1.1,1.1,0,0,1,933,634.9c-.692,1.557-1.323,3.141-1.963,4.721-.126.312-.375.676.112.933q2.974,1.57,5.947,3.142c.422.222.688.081.942-.316.949-1.477,1.964-2.913,2.887-4.406.356-.576.74-.6,1.337-.517a40.382,40.382,0,0,0,4.45.4.969.969,0,0,1,1.092.751c.695,1.831,1.461,3.634,2.185,5.409a22.032,22.032,0,0,0,7.471-2.324c-.408-1.948-.8-3.923-1.248-5.885a.836.836,0,0,1,.409-1c1.211-.953,2.355-1.992,3.557-2.957a1.017,1.017,0,0,1,.844-.162c1.466.574,2.913,1.2,4.359,1.825.808.349,1.133.493,1.444.285l3.387-6.3C970.224,628,969.873,627.754,968.921,627.112ZM956.335,624.9a11.573,11.573,0,0,1-15.674,4.712h0a11.573,11.573,0,0,1-4.712-15.674h0a11.573,11.573,0,0,1,15.674-4.712h0a11.573,11.573,0,0,1,4.712,15.674Z" transform="translate(667.895 -367.304)" fill="#cae1f9"/>
    <path id="Path_6957" data-name="Path 6957" d="M481.685,864.048c-1.9.185-3.8.438-5.706.585a1.386,1.386,0,0,1-1.064-.493c-1.247-1.831-2.388-3.733-3.647-5.555a1.171,1.171,0,0,1-.147-1.46c1.132-2.036,2.209-4.1,3.3-6.16.177-.333.343-.673.641-1.259l-8.707-5.684c-1.787,2.192-3.444,4.157-5.017,6.188a1.536,1.536,0,0,1-1.952.675c-1.963-.55-4-.826-6-1.273a1.255,1.255,0,0,1-.786-.7c-.748-2.242-1.5-4.487-2.112-6.769-.293-1.1-.828-1.372-1.845-1.153a6.443,6.443,0,0,1-1.22.034l-5.323,1.065a3.266,3.266,0,0,1-.541.286c-2.006.626-1.707.4-1.524,2.354.223,2.381.486,4.759.7,6.825l-7.172,4.881-7.81-4.158a33.212,33.212,0,0,0-5.667,8.677c2.159,1.754,4.26,3.469,6.373,5.168a.919.919,0,0,1,.4,1.113c-.538,2.22-1.02,4.457-1.4,6.708a1.081,1.081,0,0,1-.913,1.023c-2.3.692-4.579,1.438-6.874,2.14a.931.931,0,0,0-.805,1.089,29.605,29.605,0,0,0,1.9,8.733c.2.56.562.575,1.063.518,2.316-.266,4.638-.476,6.952-.758a1.167,1.167,0,0,1,1.377.684c1.308,2.2,2.744,4.314,4.243,6.635l-3.99,7.494a30.954,30.954,0,0,0,8.716,5.821l5.429-6.75c2.459.411,4.735.852,7.03,1.143a1.485,1.485,0,0,1,1.488,1.243c.618,2.21,1.322,4.4,2.014,6.586.137.433.19,1.024.917.872q4.435-.922,8.871-1.842c.629-.131.783-.506.707-1.137-.282-2.348-.462-4.71-.784-7.052-.124-.9.255-1.255.944-1.685a54.355,54.355,0,0,0,4.965-3.4,1.306,1.306,0,0,1,1.778-.157c2.292,1.3,4.636,2.518,6.911,3.741,1.648-1.363,4.975-6.482,5.762-8.825-2.1-1.672-4.2-3.386-6.346-5.039a1.126,1.126,0,0,1-.431-1.386c.44-2.029.736-4.089,1.156-6.124a1.371,1.371,0,0,1,.737-.892c2.015-.663,4.054-1.255,6.091-1.847,1.139-.331,1.6-.46,1.744-.942l-1.889-9.445C483.8,863.848,483.225,863.9,481.685,864.048Zm-14.962,8.508A15.59,15.59,0,0,1,454.494,890.9h0a15.59,15.59,0,0,1-18.345-12.229h0a15.59,15.59,0,0,1,12.229-18.345h0a15.59,15.59,0,0,1,18.345,12.229Z" transform="translate(1055.697 -577.278)" fill="#9bc1f9"/>
    <path id="Path_6958" data-name="Path 6958" d="M658.251,568.753c-.763-.362-1.538-.7-2.293-1.074a.611.611,0,0,1-.291-.428c-.056-.976-.057-1.956-.12-2.931a.517.517,0,0,1,.276-.586c.891-.514,1.768-1.052,2.65-1.582.143-.086.283-.177.529-.331L657,557.691c-1.174.424-2.248.792-3.3,1.2a.678.678,0,0,1-.892-.188c-.618-.654-1.328-1.221-1.981-1.844a.554.554,0,0,1-.14-.441c.226-1.019.45-2.04.737-3.042.138-.481,0-.708-.437-.856a2.851,2.851,0,0,1-.47-.264l-2.257-.806a1.423,1.423,0,0,1-.27-.015c-.9-.218-.737-.236-1.111.545-.456.952-.9,1.912-1.285,2.743l-3.824.22L639.75,551.6a14.663,14.663,0,0,0-4.116,2c.419,1.154.825,2.281,1.24,3.4a.406.406,0,0,1-.1.513c-.708.718-1.4,1.456-2.055,2.221a.477.477,0,0,1-.578.18c-1.027-.26-2.06-.5-3.089-.751a.411.411,0,0,0-.552.229,13.074,13.074,0,0,0-1.263,3.739c-.051.257.082.345.285.437.937.425,1.864.873,2.8,1.291a.516.516,0,0,1,.366.572c0,1.128.059,2.257.1,3.476l-3.212,1.931a13.664,13.664,0,0,0,1.978,4.183l3.588-1.323c.838.714,1.6,1.4,2.4,2.029a.655.655,0,0,1,.281.808c-.268.977-.5,1.965-.733,2.951-.047.195-.161.431.149.539l3.777,1.317c.268.093.411-.014.526-.27.426-.953.894-1.888,1.3-2.848.158-.37.382-.418.74-.424a23.94,23.94,0,0,0,2.652-.161.577.577,0,0,1,.709.344c.572,1.014,1.183,2.006,1.767,2.986a13.1,13.1,0,0,0,4.185-2.033c-.414-1.109-.82-2.235-1.258-3.349a.5.5,0,0,1,.152-.623c.627-.668,1.207-1.381,1.828-2.056a.6.6,0,0,1,.482-.17c.914.207,1.82.445,2.726.684.506.133.71.189.874.039l1.429-4.005C659.1,569.157,658.868,569.046,658.251,568.753Zm-7.6-.176a6.882,6.882,0,0,1-8.8,4.169h0a6.882,6.882,0,0,1-4.169-8.8h0a6.882,6.882,0,0,1,8.8-4.169h0a6.883,6.883,0,0,1,4.169,8.8Z" transform="translate(884.738 -331.074)" fill="#9bc1f9" opacity="0.2"/>
    <g id="Group_4408" data-name="Group 4408" transform="translate(1461.369 342.923)">
      <path id="Path_6959" data-name="Path 6959" d="M729.187,1735.395l-2.265-.009c.3-9.884.562-24.895.063-25.737a.368.368,0,0,0,.151.113l1.838-.479c.3.15.476.24.538,4.443.032,2.163.02,5.15-.036,8.878C729.381,1728.95,729.189,1735.331,729.187,1735.395Z" transform="translate(-672.708 -1658.397)" fill="#355389"/>
      <path id="Path_6960" data-name="Path 6960" d="M692.41,1882.685H677.129a1.274,1.274,0,0,0-1.275,1.275h0a.223.223,0,0,0,.223.222h17.385a.223.223,0,0,0,.223-.222h0A1.274,1.274,0,0,0,692.41,1882.685Z" transform="translate(-629.294 -1805.808)" fill="#355389"/>
      <path id="Path_6961" data-name="Path 6961" d="M724.081,1874.3h-1.872a1,1,0,0,0-1,1h0a1,1,0,0,0,1,1h1.872a1,1,0,0,0,1-1h0A1,1,0,0,0,724.081,1874.3Z" transform="translate(-667.848 -1798.679)" fill="#355389"/>
      <rect id="Rectangle_2734" data-name="Rectangle 2734" width="0.904" height="45.056" transform="translate(1.147 33.289)" fill="#13375b"/>
      <path id="Path_6962" data-name="Path 6962" d="M682.882,1378.163a12.128,12.128,0,0,1,1.108-5.844,4.955,4.955,0,0,1,4.417-2.516c5.523-.007,6.225,7.29,9.741,10.1,1.074.86,2.275,1.56,3.291,2.488,3.753,3.425,2.063,9.765-1.384,12.767-2.392,2.083-6.151,3.267-9.1,1.639a9.268,9.268,0,0,1-3.539-3.812,52.092,52.092,0,0,1-2.782-7.076A26.405,26.405,0,0,1,682.882,1378.163Z" transform="translate(-635.258 -1369.803)" fill="#13375b"/>
      <path id="Path_6963" data-name="Path 6963" d="M562.235,1501.385l12.018-3.351s2.532-3.4,5.79-7.964c1.065,1.054,1.657,2.674,2.73,3.718l-7.955,8.8a1.52,1.52,0,0,1-1.122.5l-11.044.037-3.779.3v-2.419Z" transform="translate(-529.847 -1472.043)" fill="#f48c7f"/>
      <path id="Path_6964" data-name="Path 6964" d="M673.992,1489.744s4.125-4.229,5.186-6.067-.723-.641-2.545-1.125c-.69-.183-.516-4.227-1.82-2.913a60.024,60.024,0,0,0-4.831,5.928Z" transform="translate(-624.302 -1462.953)" fill="#96d9c9"/>
      <path id="Path_6965" data-name="Path 6965" d="M694.744,1467.677s3.7-.731,5.391.68-.362,13.959-.36,16.039a69.659,69.659,0,0,0,1.16,7.957s-11.219,1.964-13-1.159c0,0-.507-11.9-.432-13.393a41.483,41.483,0,0,1,2.2-8.269C690.16,1468.878,694.744,1467.677,694.744,1467.677Z" transform="translate(-639.189 -1452.846)" fill="#50bfa5"/>
      <path id="Path_6966" data-name="Path 6966" d="M716.919,1430.075s.019.11.054.3a28.465,28.465,0,0,0,1.251,4.725c.528,1-1.807,4.172-4.054,3.784-.669-.115.565-2.918.506-3.215-.114-.568-.268-1.344-.425-2.138l-.264-1.33-.436-2.208Z" transform="translate(-661.341 -1420.969)" fill="#f7a491"/>
      <path id="Path_6967" data-name="Path 6967" d="M716.973,1430.374c-.035-.188-.054-.3-.054-.3l-3.368-.084.436,2.208.262,1.323a3.153,3.153,0,0,0,1.608-.8,4.236,4.236,0,0,0,1.218-1.808C717.034,1430.7,717,1430.514,716.973,1430.374Z" transform="translate(-661.341 -1420.969)" fill="#f47458"/>
      <path id="Path_6968" data-name="Path 6968" d="M702.331,1379.537a3.038,3.038,0,0,1,2.582,1.1c.995,1.284,2.067,5.255-.4,7.415s-4.913-.285-5.276-2.876S698.731,1379.444,702.331,1379.537Z" transform="translate(-649.02 -1378.07)" fill="#f7a491"/>
      <path id="Path_6969" data-name="Path 6969" d="M694.158,1408.927c.3.572.79.889,1.106.708s.333-.792.038-1.365-.79-.889-1.106-.708S693.863,1408.355,694.158,1408.927Z" transform="translate(-644.676 -1401.859)" fill="#f7a491"/>
      <path id="Path_6970" data-name="Path 6970" d="M719.711,1376.529s2.121,3.776,3.637,3.951,1.716,2.181,1.716,2.181-.542-4.624-2.044-5.516A5.588,5.588,0,0,0,719.711,1376.529Z" transform="translate(-666.578 -1375.486)" fill="#13375b"/>
      <path id="Path_6971" data-name="Path 6971" d="M741.145,1403.4c-.123.671.125,1.286.554,1.374s.878-.384,1-1.055-.125-1.286-.554-1.374S741.268,1402.732,741.145,1403.4Z" transform="translate(-684.772 -1397.46)" fill="#f7a491"/>
      <g id="Group_4403" data-name="Group 4403" transform="translate(9.291 38.289)">
        <path id="Path_6972" data-name="Path 6972" d="M646.116,1809.976a52.527,52.527,0,0,1,3.428,4.439c.023.355-.135,4.233-.54,4.588s-1.595.607-1.212,1.007c.289.3,2.513.237,3.987.156.43-.024.97-3.457,1.14-3.961.248-.733.849-2.383.624-2.894a4.288,4.288,0,0,0-1.373-1.238c-.777-.5-3.751-4.64-3.751-4.64Z" transform="translate(-613.305 -1780.124)" fill="#f48c7f"/>
        <path id="Path_6973" data-name="Path 6973" d="M658.938,1838.225s-2.287,6.438-3.182,6.749c-.238.083-1.378.292-1.593.8a2.179,2.179,0,0,0,0,.66h4.766s.6-2.837.841-4.083a18.524,18.524,0,0,0,1.122-3.322C660.752,1838.748,658.938,1838.225,658.938,1838.225Z" transform="translate(-620.122 -1806.301)" fill="#b75742"/>
        <path id="Path_6974" data-name="Path 6974" d="M443.179,1826.357s-2.781,3.916-2.536,5.154c.131.663.714,1.531.38,2.156a1.678,1.678,0,0,1-.717.78l-8.675.14c-.472.008-.16-.3.221-.575a17.49,17.49,0,0,1,3.119-1.722c.13-.063.6-.363.774-.467a6,6,0,0,0,1.241-1.094c.623-.692,3.362-6.332,3.362-6.332Z" transform="translate(-430.766 -1794.545)" fill="#f7a491"/>
        <path id="Path_6975" data-name="Path 6975" d="M432.2,1872.834a7.868,7.868,0,0,0,4.939-.194,3.971,3.971,0,0,1,.4,2.061c-.211.613-.511.751-.775.758-2.1.055-7.676.13-9.274.15a.261.261,0,0,1-.2-.428C427.68,1874.709,432.029,1872.938,432.2,1872.834Z" transform="translate(-427.222 -1835.557)" fill="#b75742"/>
        <path id="Path_6976" data-name="Path 6976" d="M550.515,1632.9a62.1,62.1,0,0,0,4.322,4.553c.878.623,9.307,16.144,9.307,16.144l-3,2.192s-7.533-9.393-11.071-14.417c-2.991-4.248-1.89-3.979-3.649-6.565a3.454,3.454,0,0,1,.528-4.5q.238-.216.519-.45c2.6-2.17,20.452-4.613,20.452-4.613l11.416,1.118s-9.327,6.541-9.675,6.715-12.88,2-13.141,2S550.515,1632.9,550.515,1632.9Z" transform="translate(-528.043 -1625.246)" fill="#b75742"/>
        <path id="Path_6977" data-name="Path 6977" d="M524.693,1630.961s1.958,5.875-.979,8.616-20.387,2.437-26.131,2.437c0,0-2.35,6.44-2.611,7.485s-11.662,14.534-11.662,14.534l-3.133-2s12.271-23.846,13.229-24.891,14.621-5.222,18.015-6.179S524.693,1630.961,524.693,1630.961Z" transform="translate(-472.239 -1629.742)" fill="#f47458"/>
      </g>
      <path id="Path_6978" data-name="Path 6978" d="M606.61,1498.7l10.42-2.305s3.768-4.842,7.388-9.009c1.065,1.054,1.657,2.674,2.73,3.718l-7.955,8.8a1.519,1.519,0,0,1-1.122.5l-11.044.037-3.779.3v-2.419Z" transform="translate(-567.571 -1469.758)" fill="#f7a491"/>
      <path id="Path_6979" data-name="Path 6979" d="M718.367,1480.7s4.125-4.229,5.186-6.067.274-4.916-1.548-5.4-7.648,7.29-7.648,7.29Z" transform="translate(-662.025 -1454.309)" fill="#96d9c9"/>
      <g id="Group_4404" data-name="Group 4404" transform="translate(16.511 17.077)">
        <path id="Path_6980" data-name="Path 6980" d="M476.508,1483.733h17.185a1.12,1.12,0,0,1,1.037.7l5.292,12.906H509.5a.479.479,0,0,1,.48.479h0a.479.479,0,0,1-.48.479H482.531a1.883,1.883,0,0,1-1.717-1.111l-5.328-11.869A1.121,1.121,0,0,1,476.508,1483.733Z" transform="translate(-475.386 -1483.733)" fill="#b75742"/>
        <path id="Path_6981" data-name="Path 6981" d="M544.462,1526.784a.946.946,0,1,0,.709-1.233A1.011,1.011,0,0,0,544.462,1526.784Z" transform="translate(-534.088 -1519.269)" fill="#fff"/>
      </g>
      <path id="Path_6982" data-name="Path 6982" d="M417.667,1583.046H366.324a1.089,1.089,0,0,1-1.089-1.088h0a1.089,1.089,0,0,1,1.089-1.089h51.343a1.089,1.089,0,0,1,1.089,1.089h0A1.088,1.088,0,0,1,417.667,1583.046Z" transform="translate(-365.235 -1549.231)" fill="#184655"/>
      <path id="Path_6983" data-name="Path 6983" d="M714.524,1426.2l2.328-.12a1.019,1.019,0,0,1-1.03.97C714.575,1427.148,714.524,1426.2,714.524,1426.2Z" transform="translate(-662.168 -1417.642)" fill="#fff"/>
      <path id="Path_6984" data-name="Path 6984" d="M658.175,1644.849l1.052-4.377a7.1,7.1,0,0,1,6.592-5.415l13.318-.538.411-1.356-13.783.557a8.445,8.445,0,0,0-7.839,6.44l-1.117,4.651C657.186,1644.826,657.648,1644.839,658.175,1644.849Z" transform="translate(-613.103 -1593.686)" fill="#355389"/>
      <path id="Path_6985" data-name="Path 6985" d="M657.236,1549.444s-18.3.313-20.205,0-2.733,2.078-2.164,3.331,2.135,1.737,4.441,1.85,21.5.655,22.037.142c.442-.418,6.259-20.307,8.376-27.58a2.743,2.743,0,0,0-1.864-3.4h0a2.746,2.746,0,0,0-3.4,1.838Z" transform="translate(-594.301 -1500.613)" fill="#184655"/>
      <rect id="Rectangle_2735" data-name="Rectangle 2735" width="0.904" height="45.056" transform="translate(51.532 33.289)" fill="#13375b"/>
      <rect id="Rectangle_2736" data-name="Rectangle 2736" width="51.064" height="0.485" transform="translate(1.147 36.206)" fill="#13375b"/>
    </g>
    <g id="Group_4406" data-name="Group 4406" transform="translate(1696.156 161.684)">
      <path id="Path_6986" data-name="Path 6986" d="M1598.192,145.525s6.634,4.294,22.984,3.71c0,0-17.525,6.618-24.377,7.642l-2.82-11.138Z" transform="translate(-1538.533 -136.752)" fill="#e25a44"/>
      <path id="Path_6987" data-name="Path 6987" d="M1608.978,166.669a16.892,16.892,0,0,1-4.519,5.743l-1.47-5.8.1-2.808Z" transform="translate(-1546.193 -152.288)" fill="#b75742"/>
      <path id="Path_6988" data-name="Path 6988" d="M1474.717,99.506s19.157-1.295,22.136-.2l3.08,12.163a60.436,60.436,0,0,0-21.528,2.606Z" transform="translate(-1437.148 -97.087)" fill="#f47458"/>
      <path id="Path_6989" data-name="Path 6989" d="M1361.256,992.76s-.923,1.506-.839,1.952,1.193,5.169,1.8,5.481,2.16.251,1.813.865c-.262.464-3.031,1.08-4.877,1.44-.539.106-2.28-3.967-2.648-4.537-.535-.828-1.795-2.679-1.677-3.38a5.467,5.467,0,0,1,1.309-1.959,8.606,8.606,0,0,0,1.373-2.477Z" transform="translate(-1335.227 -854.77)" fill="#f48c7f"/>
      <path id="Path_6990" data-name="Path 6990" d="M1485.381,998.147s-.312,3.376-.312,3.385c.043.512.029,1.806.142,2.252.424,1.677,7.2-3.338,5.318-3.652a1.847,1.847,0,0,1-.983-1,4.05,4.05,0,0,1,.135-2.143Z" transform="translate(-1445.948 -860.586)" fill="#f7a491"/>
      <path id="Path_6991" data-name="Path 6991" d="M1406.146,599.723s1.958,5.416,1.979,5.5c2.275,8.986,8.5,26.089,8.59,27.864.217,4.33-3.355,27.6-3.355,27.6l-4.953.643-.108-26.755-4.87-9.547-8.332-19.2Z" transform="translate(-1369.461 -522.869)" fill="#3c8f7c"/>
      <path id="Path_6992" data-name="Path 6992" d="M1366.088,615.681l.421,5.5,3.019,22.294-4.037,23.558s2.1,2.747,4.162,2.686l9.454-25.531,2.248-30.176-1.891-6.1Z" transform="translate(-1344.293 -529.828)" fill="#50bfa5"/>
      <path id="Path_6993" data-name="Path 6993" d="M1351.674,1006.373s4.839,7.239,6.042,7.343c.319.028,1.794-.07,2.217.485a6.7,6.7,0,0,1,.4,1.006l-6.071,1.747s-1.641-3.763-2.325-5.229c0,0-2.511-3.368-2.424-3.754S1351.674,1006.373,1351.674,1006.373Z" transform="translate(-1330.707 -868.565)" fill="#13375b"/>
      <path id="Path_6994" data-name="Path 6994" d="M1484,1022.416l.185-3.151a7.757,7.757,0,0,0,2.89-.05,28.461,28.461,0,0,0,2.522-1.321c3.932.275,7.052.1,6.754,1.2h0Z" transform="translate(-1445.042 -878.36)" fill="#13375b"/>
      <path id="Path_6995" data-name="Path 6995" d="M1546.681,446.475l2.618,2.009c.5-.389,1.608-2.026,2.322-2.536l-2.392-2.61h0a.692.692,0,0,1-.28-.625,2.187,2.187,0,0,1,.066-.4c.074-.206.141-.452.216-.659s-.419-.621-.679-.695-.346.921-.458,1.216a32.3,32.3,0,0,0-.826,3.738Z" transform="translate(-1498.325 -387.898)" fill="#f48c7f"/>
      <path id="Path_6996" data-name="Path 6996" d="M1407.114,477.92c-.735-.784-1.773-1.225-2.543-2.04l-11.618,8s-8.983-10.622-13.86-6.859a81.028,81.028,0,0,0,6.033,8.68c2.983,3.694,7.538,5.456,8.427,5.048C1394.555,490.291,1406.854,478.236,1407.114,477.92Z" transform="translate(-1355.857 -417.589)" fill="#13375b"/>
      <path id="Path_6997" data-name="Path 6997" d="M1224.514,271.96c.384,1.024,1.049,2.635,1.049,2.635.019.463.114,2.386.236,4.743l3.269-1.791a37.313,37.313,0,0,1-.377-4.055c.106-.213.353.007,1.224-1.628a2.964,2.964,0,0,0,.214-1.256s-.053-.964-.279-1.027a.449.449,0,0,0-.512.284c-.058.175.009.557-.049.732a1.2,1.2,0,0,1-.741.449c-.21.015-.317-2.833-.317-2.833s.02-.813.048-1.082c.024-.229.147-.908.147-.908s.123-.978-.18-1.015c-.179-.022-.528.8-.732,1.658a16.626,16.626,0,0,1-.387,1.876c-.223,0-.294-1.563-.294-1.563a4.994,4.994,0,0,0,.087-1.068c.157-.434.2-1.211-.169-1.229a6.335,6.335,0,0,0-.431,1.019s-.106.7-.177,1.033c-.126.583-.048,1.471-.1,1.873-.045.335-.137.21-.17.228a8.2,8.2,0,0,1-.053-1.061,6.267,6.267,0,0,1-.046-1.029,7.512,7.512,0,0,0,.017-1.094c-.038-.807-.531-.664-.617.088-.032.286-.065.6-.1.915-.125,1.231.022,2.385-.106,2.41a8.757,8.757,0,0,1-.31-2.083s-.4-1.133-.523-.022a9.482,9.482,0,0,0,.019,2.352A9.155,9.155,0,0,0,1224.514,271.96Z" transform="translate(-1224.074 -238.22)" fill="#f8a492"/>
      <path id="Path_6998" data-name="Path 6998" d="M1334.308,374.313a1.894,1.894,0,0,0-3.107.781,1.408,1.408,0,0,0-1.786.7s-2.029-.352-2.15,2.632c0,0-1.03-.068-1.018,1.145a2.985,2.985,0,0,0,.717,1.938,1.446,1.446,0,0,0-.124,1.563,1.372,1.372,0,0,0,1.124.958s.4,1.552,1.142,1.945a2.247,2.247,0,0,0,1.646.052,1.063,1.063,0,0,0,1.14.653c.789-.173,1.685-1.053,2.62-.819a9.613,9.613,0,0,0,3.21-.408,3.262,3.262,0,0,0,1.362-4.041,1.96,1.96,0,0,0-.158-2.739s.594-2.425-1.3-3.584A4.543,4.543,0,0,0,1334.308,374.313Z" transform="translate(-1310.932 -330.788)" fill="#f47458"/>
      <path id="Path_6999" data-name="Path 6999" d="M1364.118,477.569l-4.012-2.064s-3.564.52-4.007.574-1.275,16.66-1.345,22.881.689,7.228.689,7.228a39.529,39.529,0,0,0,9.947-.289,32.311,32.311,0,0,0,8.913-3.853s-5.142-11.315-6.324-14.9S1364.118,477.569,1364.118,477.569Z" transform="translate(-1335.163 -417.271)" fill="#f7cc7f"/>
      <path id="Path_7000" data-name="Path 7000" d="M1247.479,352.343,1234.3,341.809s-3-11.106-3.17-11.518-3.105-.278-4.293-.25c-.381.009,1.654,12.016,2.461,13.972.953,2.311,11.139,12.134,11.139,12.134s2.3,5.709,2.445,10.084c.234,7.267-.283,17.364.062,17.637,2.052.97,9.385.213,9.758-.589C1256.818,374.424,1247.479,352.343,1247.479,352.343Z" transform="translate(-1226.383 -293.576)" fill="#13375b"/>
      <path id="Path_7001" data-name="Path 7001" d="M1366.042,442.507l.6,2.31s1.119,3.3.285,4.06-4.379-3.662-4.379-3.662l-.407-5.988Z" transform="translate(-1341.447 -386.43)" fill="#f7a491"/>
      <path id="Path_7002" data-name="Path 7002" d="M1362.274,441.167a6.8,6.8,0,0,0,4.277,3.3l-.509-1.958-3.9-3.281Z" transform="translate(-1341.447 -386.43)" fill="#f47458"/>
      <path id="Path_7003" data-name="Path 7003" d="M1326.391,406.035c.11.906.714,1.579,1.35,1.5s1.062-.874.952-1.78-.714-1.579-1.35-1.5S1326.281,405.129,1326.391,406.035Z" transform="translate(-1311.04 -356.695)" fill="#f47458"/>
      <path id="Path_7004" data-name="Path 7004" d="M1346.653,383.45c.063.521.741.867,1.515.773s1.349-.592,1.286-1.113-.741-.867-1.515-.774S1346.591,382.929,1346.653,383.45Z" transform="translate(-1328.276 -338.055)" fill="#f47458"/>
      <path id="Path_7005" data-name="Path 7005" d="M1356.929,394.039a3.161,3.161,0,0,1,4.41,2,23.934,23.934,0,0,1,.619,2.982c.382,2.737-.715,5.578-1.961,5.728a5.919,5.919,0,0,1-5.5-5.087C1354.132,397.271,1355.068,394.943,1356.929,394.039Z" transform="translate(-1334.883 -347.749)" fill="#f7a491"/>
      <path id="Path_7006" data-name="Path 7006" d="M1351.1,429.045a.921.921,0,1,1-1.028-.987A1.018,1.018,0,0,1,1351.1,429.045Z" transform="translate(-1330.529 -376.931)" fill="#f7a491"/>
      <path id="Path_7007" data-name="Path 7007" d="M1383.832,379.007c1.41.863,2.048,2.357,1.426,3.337s-2.27,1.073-3.68.21-2.048-2.357-1.426-3.337S1382.422,378.144,1383.832,379.007Z" transform="translate(-1356.554 -334.735)" fill="#f47458"/>
      <path id="Path_7008" data-name="Path 7008" d="M1370.718,386.846c.054.443-.437.867-1.1.947s-1.238-.215-1.292-.657.438-.867,1.1-.946S1370.665,386.4,1370.718,386.846Z" transform="translate(-1346.703 -341.331)" fill="#f47458"/>
      <path id="Path_7009" data-name="Path 7009" d="M1399.143,405.327a1.027,1.027,0,1,1-1.144-.908A1.033,1.033,0,0,1,1399.143,405.327Z" transform="translate(-1371.161 -356.834)" fill="#f47458"/>
      <path id="Path_7010" data-name="Path 7010" d="M1399.272,480.9s5.571,13.167,7.552,17.808c.215.5,1.292,3.784,1.332,4.112.088.727-2.965,2.033-3.347,2.023-.342-.008-4.826-13.914-7.432-20.669a20.075,20.075,0,0,0-3.821-6.218l-1.266-1.045-.122-.391S1397.825,477.027,1399.272,480.9Z" transform="translate(-1366.972 -418.137)" fill="#13375b"/>
      <rect id="Rectangle_2737" data-name="Rectangle 2737" width="1.03" height="92.506" transform="translate(36.49 0.253) rotate(-14.208)" fill="#13375b"/>
      <g id="Group_4405" data-name="Group 4405" transform="translate(50.303 54.051)">
        <path id="Path_7011" data-name="Path 7011" d="M1563.152,450.425a3.138,3.138,0,0,0-.181-.6,1.722,1.722,0,0,0-.347-.553,1.054,1.054,0,0,1-.176-.366.656.656,0,0,0-.078-.145l0,0a1.465,1.465,0,0,0-.343-.331,1.546,1.546,0,0,1-.369-.4,1.107,1.107,0,0,0-.415-.365c-.165-.081-.292-.083-.351.019-.274.471-1.644,1.973-1.089,2.7A17.334,17.334,0,0,1,1561,451.9c.171.394.774.367,1.134.229A1.371,1.371,0,0,0,1563.152,450.425Z" transform="translate(-1559.67 -447.599)" fill="#f7a491"/>
      </g>
    </g>
    <g id="Group_4407" data-name="Group 4407" transform="translate(1698.717 180.03)">
      <path id="Path_7012" data-name="Path 7012" d="M1441.789,340.585a.212.212,0,0,1,.331-.051c.144.15.291.3.438.445.322.328.325.35.373.343.115-.018.119-.226.113-.3a2.5,2.5,0,0,1-.047-.511.375.375,0,0,1,.629-.283c.253.206.5.428.737.651.019-.366.028-.734.052-1.1a.145.145,0,0,1,.242-.107l1.113.87c.057.045.3.283.367.24s.058-.295.064-.352c.035-.314.051-.425.187-1.444a.17.17,0,0,1,.282-.083c.784.938.9.84.973,1.121a.081.081,0,0,1-.094.1c-.151-.015-.185-.03-.577-.408q-.152-.147-.3-.3c-.141,1.241-.147,1.558-.458,1.651-.215.065-.252,0-1.513-.994,0,.385-.024.769-.04,1.155a.165.165,0,0,1-.276.122c-.9-.743-.9-.8-.994-.843,0,0,0-.068-.017.028-.027.163.128.515.014.811a.5.5,0,0,1-.661.323c-.16-.079-.2-.158-.687-.622a4.313,4.313,0,0,1-.547.855.667.667,0,0,1-.322.239.177.177,0,0,1-.221-.208C1441.068,341.581,1441.382,341.5,1441.789,340.585Z" transform="translate(-1423.37 -330.493)" fill="#f47458"/>
      <path id="Path_7013" data-name="Path 7013" d="M1412.354,301.56a5.794,5.794,0,0,0,1.026.088c.068,0,.193.014.237-.054.106-.163-.171-.416-.294-1.053-.053-.277-.188-.844.183-.957a2.079,2.079,0,0,1,.624-.007c.149,0,.3,0,.447,0-.266-1.036-.328-.979-.22-1.21a.131.131,0,0,1,.177-.052c.208.138.148.11.5,1.413a.2.2,0,0,1-.187.259c-.2-.005-1.113-.078-1.226-.069.007.011,0,.06,0,.07a3.347,3.347,0,0,0,.3,1.189c.124.323.116.757-.294.848a4.034,4.034,0,0,1-1.03-.023c.185.631.375,1.262.556,1.894a.224.224,0,0,1-.206.285c-.407-.037-.815-.059-1.223-.079a3.785,3.785,0,0,0,.5,1.045c.162.237-.17.526-.539-.1a3.666,3.666,0,0,1-.468-1.118.225.225,0,0,1,.207-.286c.4.008.809.034,1.213.067-.177-.631-.347-1.265-.524-1.9A.207.207,0,0,1,1412.354,301.56Z" transform="translate(-1398.088 -296.019)" fill="#66ccb2"/>
      <path id="Path_7014" data-name="Path 7014" d="M1354.062,285.1a.208.208,0,0,1-.207-.195,4.812,4.812,0,0,1,0-1.658c.058-.289.478-.18.439.1a5.878,5.878,0,0,0-.06,1.348,4.5,4.5,0,0,0,.973-.124.214.214,0,0,1,.272.2c-.022.357-.143,1.708-.158,1.72a.066.066,0,0,1,.035,0c.141.028.625-.072.844-.058.246.015.325.349.337.551.025.41-.28.86-.137,1.26.138.385.744-.039,1.2.276.349.242.228.651.084,1.3a.5.5,0,0,1-.228.391.107.107,0,0,1-.126-.014c-.172-.2-.084-.429.032-1.019.015-.075.063-.2.01-.269-.175-.225-.687.1-1.1-.174a.944.944,0,0,1-.316-.971c.041-.274.209-.61.121-.889-.235.012-.472.031-.705.025a.4.4,0,0,1-.441-.4,7.09,7.09,0,0,1,.057-.877c.015-.194.029-.388.046-.581A5.079,5.079,0,0,1,1354.062,285.1Z" transform="translate(-1349.268 -283.079)" fill="#07345a"/>
      <path id="Path_7015" data-name="Path 7015" d="M1457.14,386.636c.976,1.251.057,1.858-.352,1.495a.343.343,0,0,1,.022-.556c.094-.06.245.035.206.15-.032.1.076.12.12.02.06-.136-.036-.3-.1-.424-.139-.279-.315-.642-.658-.7-.512-.081-1.068.431-.787,1.214a1.383,1.383,0,0,0,2.565-.066,1.682,1.682,0,0,0-.6-1.751c-.1-.08.023-.215.126-.171a1.679,1.679,0,0,1,.771,2.106,1.7,1.7,0,0,1-1.918,1.016,1.621,1.621,0,0,1-1.4-1.743A1.115,1.115,0,0,1,1457.14,386.636Z" transform="translate(-1435.425 -370.438)" fill="#3c8f7c"/>
      <path id="Path_7016" data-name="Path 7016" d="M1325.232,319.5c.135.2.211.619-.064.748a.226.226,0,0,1-.328-.127c-.044-.145.036-.278-.094-.393a.3.3,0,0,0-.382.041c-.318.259-.236.828-.07,1.15a.767.767,0,0,0,1.339.077,1.733,1.733,0,0,0,.189-.557c.027-.106.2-.153.25-.04a1.032,1.032,0,0,1-.457,1.212,1.226,1.226,0,0,1-1.325-.02,1.584,1.584,0,0,1-.619-1.359C1323.708,319.181,1324.794,318.838,1325.232,319.5Z" transform="translate(-1323.671 -313.753)" fill="#f7cc7f"/>
    </g>
    <path id="Path_7017" data-name="Path 7017" d="M1003.649,1292.121a1.02,1.02,0,0,0,1.383.3c1.119-.558.673-1.4.673-1.4Z" transform="translate(589.289 -959.908)" fill="#fff"/>
    <path id="Path_7018" data-name="Path 7018" d="M1381.967,446.219a1.019,1.019,0,0,0,1.118.868c1.251-.018,1.212-.968,1.212-.968Z" transform="translate(324.082 -241.65)" fill="#fff"/>
  </g>
</svg>
