<svg xmlns="http://www.w3.org/2000/svg" width="32" height="38" viewBox="0 0 32 38">
  <path id="push" d="M54.031,66.4a6,6,0,0,1-9.882,0Zm-11.1-33.017A9.124,9.124,0,0,1,53.939,32.4a10.538,10.538,0,0,0-7.086,9.879A10.683,10.683,0,0,0,59.875,52.54a2.666,2.666,0,0,0,.7,1.192l2.137,2.093a4.808,4.808,0,0,1,1.464,3.459,4.952,4.952,0,0,1-5,4.892H39a4.952,4.952,0,0,1-5-4.892,4.812,4.812,0,0,1,1.464-3.46L37.6,53.732a2.642,2.642,0,0,0,.785-1.625h0L39.973,39.19a9.066,9.066,0,0,1,2.953-5.8Zm13.322.722A8.417,8.417,0,0,1,66,42.28a8.328,8.328,0,0,1-6.425,8.043l-.254.057a8.287,8.287,0,1,1-3.328-16.229ZM58.19,38.2H55.983a1.113,1.113,0,1,0,0,2.226h1.07v4.825a1.137,1.137,0,0,0,2.274,0V39.311A1.126,1.126,0,0,0,58.19,38.2Z" transform="translate(-34 -31)" fill="#25ae53"/>
</svg>
