<svg xmlns="http://www.w3.org/2000/svg" width="152.091" height="59.75" viewBox="0 0 152.091 59.75">
  <g id="santa-img" transform="translate(-5 -16)">
    <g id="Santa--_1_" data-name="Santa--(1)" transform="translate(5 16)">
      <path id="Shape" d="M9.786,0q67.04,0,134.082,0a7.968,7.968,0,0,1,8.222,8.083q-.006,21.815,0,43.632a8.051,8.051,0,0,1-.883,3.8,7.885,7.885,0,0,1-5.16,4,14.123,14.123,0,0,1-3.561.22H9.786c-.853,0-1.712.028-2.565-.028a8.019,8.019,0,0,1-6.88-5.632,13.282,13.282,0,0,1-.334-4.154Q0,29.8.005,9.674A14.592,14.592,0,0,1,.242,6,8.06,8.06,0,0,1,5.047.55,11.606,11.606,0,0,1,9.786,0Z" transform="translate(0 0)" fill="#f8424e"/>
      <path id="Shape-2" data-name="Shape" d="M141.791,9.4a7.083,7.083,0,0,1,4.474,2.863c-.669.7-1.238,1.521-1.96,2.173a1.059,1.059,0,0,1-1.277.169,12,12,0,0,0-1.938-1.151,5.554,5.554,0,0,0-4.376.5,6.584,6.584,0,0,0-2.869,3.664,11.06,11.06,0,0,0-.5,4.534,5.18,5.18,0,0,0,2.152,4.082,4.672,4.672,0,0,0,3.834.309,7.5,7.5,0,0,0,1.96-1.163,2.216,2.216,0,0,1,1.143-.238c.629.76,1.268,1.511,1.869,2.293a9.471,9.471,0,0,1-3.646,2.633,11.46,11.46,0,0,1-5.4.608,7.547,7.547,0,0,1-4.231-1.948,8.61,8.61,0,0,1-2.533-5,13.523,13.523,0,0,1,.557-6.717,11.153,11.153,0,0,1,12.74-7.61Z" transform="translate(-41.184 -2.956)" fill="#fff"/>
      <path id="Shape-3" data-name="Shape" d="M22.059,9.413a6.8,6.8,0,0,1,4.023,2.373,20.724,20.724,0,0,1-2.175,2.654c-1.471-.028-2.239-1.258-3.656-1.333a3.7,3.7,0,0,0-2.039.3,2.281,2.281,0,0,0-1.023,2.481,2.874,2.874,0,0,0,1.605,1.37,25.213,25.213,0,0,1,4.035,1.76,4.3,4.3,0,0,1,1.952,2.92,8,8,0,0,1-1.176,5.474,7.655,7.655,0,0,1-4.784,3.152,9.2,9.2,0,0,1-8.64-2.627c.516-.65,1.005-1.321,1.529-1.965.369-.412.692-.831,1.306-.815.638-.057,1.114.408,1.6.732a4.577,4.577,0,0,0,2.821,1.075,2.692,2.692,0,0,0,2.3-1.181,2.988,2.988,0,0,0,.325-2.111,2.514,2.514,0,0,0-1.523-1.414,29.2,29.2,0,0,1-4-1.615A4.354,4.354,0,0,1,12.5,17.215a7.579,7.579,0,0,1,.4-3.306,7.177,7.177,0,0,1,4.029-4.086A8.826,8.826,0,0,1,22.059,9.413Z" transform="translate(-3.269 -2.956)" fill="#fff"/>
      <path id="Shape-4" data-name="Shape" d="M83.87,11.331a21.873,21.873,0,0,1,3.038-.041c-.244,1.435-.362,2.883-.589,4.32,1.156.018,2.313.016,3.469.023-.154,1.03-.276,2.064-.423,3.094q-1.71-.009-3.42.01c-.181,1.276-.356,2.553-.508,3.833a22.011,22.011,0,0,0-.35,4.457c.729.006,1.453-.057,2.178-.111a24.825,24.825,0,0,1,1.2,2.559,8.261,8.261,0,0,1-2.76,1.134,9.553,9.553,0,0,1-2.327.057,3.383,3.383,0,0,1-2.835-2.07,5.12,5.12,0,0,1-.157-2.9c.274-2.324.632-4.64.884-6.968-.506.006-1.012.012-1.518.023-.642-.758-.189-1.835-.116-2.715.774-.164,1.549-.323,2.327-.469.419-1.173.8-2.359,1.264-3.516C83.379,11.771,83.492,11.376,83.87,11.331Z" transform="translate(-25.495 -3.613)" fill="#fff"/>
      <path id="Shape-5" data-name="Shape" d="M47.1,17.976c-.071,1.012-.194,2.019-.335,3.026-.5,3.818-.959,7.645-1.477,11.463a18.194,18.194,0,0,1-3.258-.1c-.824-.367-.685-1.31-.764-2.042a7.476,7.476,0,0,1-2.592,2.036,5.072,5.072,0,0,1-2.571.282,3.818,3.818,0,0,1-2.727-1.926,7.254,7.254,0,0,1-.757-4.186,9.92,9.92,0,0,1,8.593-9.042A16.314,16.314,0,0,1,47.1,17.976Z" transform="translate(-10.46 -5.584)" fill="#fff"/>
      <path id="Shape-6" data-name="Shape" d="M109.209,18.066c-.576,4.8-1.206,9.6-1.826,14.394-.955-.006-1.921.056-2.873-.019a1.073,1.073,0,0,1-.978-.681,7.587,7.587,0,0,1-.162-1.42,6.677,6.677,0,0,1-3.4,2.256,4.348,4.348,0,0,1-3.372-.617,4.781,4.781,0,0,1-1.792-3.123,9.818,9.818,0,0,1,6.847-10.981A12.892,12.892,0,0,1,109.209,18.066Z" transform="translate(-30.398 -5.584)" fill="#fff"/>
      <path id="Shape-7" data-name="Shape" d="M163.788,18.646c-.266,1.437-.554,2.87-.854,4.3a4.605,4.605,0,0,0-2.176-.159,3.088,3.088,0,0,0-1.652,1.5,9.627,9.627,0,0,0-1.16,3.935c-.186,1.83-.456,3.649-.648,5.477-1.524.008-3.047.01-4.571,0,.606-5.052,1.2-10.11,1.871-15.154a24.031,24.031,0,0,1,2.882.044,1.1,1.1,0,0,1,.972.825,8.4,8.4,0,0,1,.124,1.866,6.373,6.373,0,0,1,3.085-2.735A3.736,3.736,0,0,1,163.788,18.646Z" transform="translate(-49.029 -5.913)" fill="#fff"/>
      <path id="Shape-8" data-name="Shape" d="M66.561,17.4a3.54,3.54,0,0,1,3,1.326A5.9,5.9,0,0,1,70.45,23.1c-.339,3.19-.782,6.371-1.107,9.561-1.512.026-3.027.014-4.541.012.23-3.2.738-6.377,1.057-9.567a4.3,4.3,0,0,0-.083-1.6,1.132,1.132,0,0,0-1.518-.327,5.176,5.176,0,0,0-2.345,2.6,10.845,10.845,0,0,0-.748,3.652c-.187,1.75-.38,3.5-.6,5.244-1.522-.006-3.046,0-4.568-.008.6-5.009,1.18-10.021,1.8-15.026a13.3,13.3,0,0,1,3.222.14c.76.323.677,1.456.746,2.136A6.232,6.232,0,0,1,66.561,17.4Z" transform="translate(-17.977 -5.584)" fill="#fff"/>
      <path id="Shape-9" data-name="Shape" d="M170.268,18.478c1.505-.114,3.037-.032,4.546-.014-.4,3.074-.716,6.16-1.121,9.233a5.427,5.427,0,0,0,.144,2.236,2.293,2.293,0,0,0,1.446,0,5.1,5.1,0,0,0,2.26-2.433,9.254,9.254,0,0,0,.694-3.21c.238-1.95.458-3.9.73-5.849,1.524,0,3.045-.026,4.57.022-.629,5-1.2,10.015-1.837,15.018-.883,0-1.77.045-2.651,0a1.286,1.286,0,0,1-1.214-.872,9.765,9.765,0,0,1-.161-1.221,8.708,8.708,0,0,1-2.638,1.929,5.664,5.664,0,0,1-3.07.313,3.433,3.433,0,0,1-2.351-1.8,6.583,6.583,0,0,1-.513-3.914q.46-3.881.91-7.76A12.9,12.9,0,0,1,170.268,18.478Z" transform="translate(-54.259 -5.913)" fill="#fff"/>
      <path id="Shape-10" data-name="Shape" d="M193.641,18.476a9.52,9.52,0,0,1,1.433-.056c3.161.034,6.321-.028,9.479.034a7.922,7.922,0,0,1-.69,3.125c-2.111,2.929-4.443,5.7-6.522,8.656,1.9.05,3.8.008,5.7.028-.119,1.151-.276,2.293-.437,3.436-3.731,0-7.459.012-11.188-.006a7.039,7.039,0,0,1,.727-3.111c2.127-2.919,4.444-5.7,6.516-8.664-1.822-.036-3.645.018-5.467-.038C193.348,20.751,193.391,19.587,193.641,18.476Z" transform="translate(-61.45 -5.913)" fill="#fff"/>
      <path id="Shape-11" data-name="Shape" d="M44.548,22.512a29.14,29.14,0,0,1-.929,5.709c-.4,1.129-1.006,2.584-2.037,3.172-.657.418-1.311-.092-1.573-.759a6.985,6.985,0,0,1,.064-4.213,5.605,5.605,0,0,1,2.7-3.541A4.482,4.482,0,0,1,44.548,22.512Z" transform="translate(-12.748 -7.227)" fill="#f8424e"/>
      <path id="Shape-12" data-name="Shape" d="M105.639,22.512c-.184,2.411-.287,4.7-1.351,6.877a4.064,4.064,0,0,1-1.709,2.065,1.089,1.089,0,0,1-1.411-.664A5.487,5.487,0,0,1,100.845,28a6.768,6.768,0,0,1,2.243-4.578A4.159,4.159,0,0,1,105.639,22.512Z" transform="translate(-32.359 -7.227)" fill="#f8424e"/>
      <path id="Shape-13" data-name="Shape" d="M74.832,44.011c1.464.016,2.911-.068,4.372.07q-1.261,10.725-2.546,21.449c-1.456.008-2.912.012-4.367,0C73.107,58.352,73.991,51.184,74.832,44.011Z" transform="translate(-23.207 -14.125)" fill="#fff"/>
      <path id="Shape-14" data-name="Shape" d="M87.453,44.136a2.792,2.792,0,0,1,3.51,1.8,3.529,3.529,0,0,1-.061,1.86,2.926,2.926,0,0,1-3.083,1.726,2.88,2.88,0,0,1-2.165-1.95A2.826,2.826,0,0,1,87.453,44.136Z" transform="translate(-27.456 -14.125)" fill="#fff"/>
      <path id="Shape-15" data-name="Shape" d="M155.6,44.152a2.78,2.78,0,0,1,3.645,2.231,2.821,2.821,0,0,1-2.256,3.114,2.771,2.771,0,0,1-1.389-5.346Z" transform="translate(-49.356 -14.125)" fill="#fff"/>
      <path id="Shape-16" data-name="Shape" d="M24.024,45.038c2.467-.018,4.935,0,7.4-.014a10.3,10.3,0,0,1,4.517.936,8.379,8.379,0,0,1,4.044,4.352,12.267,12.267,0,0,1,.661,6.041,11.934,11.934,0,0,1-3.323,6.953,11.166,11.166,0,0,1-8.087,3.253c-2.619-.018-5.237.018-7.856-.022C22.277,59.372,23.125,52.2,24.024,45.038Z" transform="translate(-6.864 -14.453)" fill="#fff"/>
      <path id="Shape-17" data-name="Shape" d="M31.225,50.211A20.224,20.224,0,0,1,34,50.163a4.335,4.335,0,0,1,3.31,1.528A6.842,6.842,0,0,1,38.5,56.418c0,2.436-.91,5.266-3.021,6.67-1.791,1.179-3.923.968-5.954.859C30.134,59.413,30.632,54.743,31.225,50.211Z" transform="translate(-9.479 -16.096)" fill="#f8424e"/>
      <path id="Shape-18" data-name="Shape" d="M60.68,54.43a4.4,4.4,0,0,1,3.2,2.687,3.947,3.947,0,0,1-.815,3.753,6.6,6.6,0,0,1-2.474,1.456A27.566,27.566,0,0,1,55.332,63.4a2.963,2.963,0,0,0,1.052,2.376,3.505,3.505,0,0,0,3.573-.212c.606-.337,1.33-.935,2.061-.766A5.168,5.168,0,0,1,63.6,66.369c.188.2-.117.483-.248.626a10.226,10.226,0,0,1-3.074,2.029,9.283,9.283,0,0,1-3.962.481,5.442,5.442,0,0,1-4.838-3.331,7.916,7.916,0,0,1-.493-4.233,9.416,9.416,0,0,1,2.689-5.556A7.674,7.674,0,0,1,60.68,54.43Z" transform="translate(-16.343 -17.41)" fill="#fff"/>
      <path id="Shape-19" data-name="Shape" d="M89.713,54.251c-.544,5.093-1.178,10.177-1.775,15.262q-2.224.006-4.447,0c.071-1.462.277-2.9.45-4.355.412-3.634.87-7.267,1.27-10.9C86.711,54.221,88.213,54.229,89.713,54.251Z" transform="translate(-26.802 -17.41)" fill="#fff"/>
      <path id="Shape-20" data-name="Shape" d="M94.691,54.284c1.02-.088,2.055-.03,3.078-.05.521.022,1.089-.04,1.463.416a8.834,8.834,0,0,1,.462,2.341c.371,2.619.746,5.236,1.1,7.859a26.5,26.5,0,0,1,1.033-2.931c.767-2.007,1.539-4.012,2.282-6.03a4.873,4.873,0,0,1,.6-1.207,1.548,1.548,0,0,1,1.211-.44c1.1-.024,2.2,0,3.294.026-.373.9-.773,1.779-1.2,2.649-1.991,4.2-3.954,8.4-5.955,12.595-1.285.006-2.571.012-3.859-.006-.977-4.186-1.981-8.365-2.96-12.549A16.245,16.245,0,0,1,94.691,54.284Z" transform="translate(-30.398 -17.41)" fill="#fff"/>
      <path id="Shape-21" data-name="Shape" d="M125.764,54.767a3.92,3.92,0,0,1,2.389,2.905,3.974,3.974,0,0,1-.929,3.178,6.3,6.3,0,0,1-2.315,1.413,27.615,27.615,0,0,1-5.495,1.155,7.488,7.488,0,0,0,.473,1.682,1.988,1.988,0,0,0,1.312.97,3.764,3.764,0,0,0,2.927-.52c.606-.343,1.34-.949,2.075-.735a6.672,6.672,0,0,1,1.707,1.783,11.165,11.165,0,0,1-3.586,2.463,9.338,9.338,0,0,1-3.817.444,5.4,5.4,0,0,1-4.816-3.172,8.05,8.05,0,0,1-.534-4.591,8.939,8.939,0,0,1,3.9-6.321A7.353,7.353,0,0,1,125.764,54.767Z" transform="translate(-36.935 -17.41)" fill="#fff"/>
      <path id="Shape-22" data-name="Shape" d="M141.079,54.9a5.971,5.971,0,0,1,.263,2.159,6.711,6.711,0,0,1,2.682-2.587,4.751,4.751,0,0,1,2.455-.158,31.392,31.392,0,0,1-.73,4.415,6.167,6.167,0,0,0-2.025-.2,2.943,2.943,0,0,0-1.75,1.363,9.062,9.062,0,0,0-1.282,4.081c-.2,1.846-.477,3.682-.643,5.532-1.543.022-3.089.014-4.632.01q.88-7.622,1.879-15.234c.842-.006,1.687-.042,2.526,0A1.508,1.508,0,0,1,141.079,54.9Z" transform="translate(-43.472 -17.41)" fill="#fff"/>
      <path id="Shape-23" data-name="Shape" d="M153.525,54.29c1.458-.116,2.942-.02,4.407-.032-.051.838-.136,1.667-.246,2.5C157.2,61,156.659,65.248,156.2,69.5c-1.5.03-2.995.012-4.495.018.365-3.922.9-7.831,1.339-11.745A32.57,32.57,0,0,1,153.525,54.29Z" transform="translate(-48.702 -17.41)" fill="#fff"/>
      <path id="Shape-24" data-name="Shape" d="M171.769,54.454a4.319,4.319,0,0,1,3.154,2.788,4,4,0,0,1-.706,3.425,6.688,6.688,0,0,1-3.138,1.8,34.269,34.269,0,0,1-4.791.911c.188.881.253,1.763,1.062,2.326a3.516,3.516,0,0,0,3.69-.229c.6-.34,1.353-.953,2.079-.676a7.614,7.614,0,0,1,1.632,1.674,9.222,9.222,0,0,1-3.719,2.59,9.531,9.531,0,0,1-4.359.34,5.457,5.457,0,0,1-4.145-3.176,8.038,8.038,0,0,1-.358-5.283,9.028,9.028,0,0,1,2.675-4.722A7.654,7.654,0,0,1,171.769,54.454Z" transform="translate(-51.971 -17.41)" fill="#fff"/>
      <path id="Shape-25" data-name="Shape" d="M191.1,53.284a6.422,6.422,0,0,1,3.6,1.68,4.2,4.2,0,0,1-.958,1.5c-.276.284-.572.7-1.024.671-.9-.066-1.686-.749-2.617-.793a2.208,2.208,0,0,0-1.865.463,1.1,1.1,0,0,0-.236,1.11c.378.77,1.573,1.089,2.329,1.4,1.313.494,2.563,1.118,3.069,2.477a5.035,5.035,0,0,1-2.607,5.851,8.454,8.454,0,0,1-5.14.778,6.109,6.109,0,0,1-3.258-1.454c-.367-.327.109-.836.274-1.153.367-.484.849-1.408,1.569-1.359.832-.105,1.429.486,2.151.79a2.41,2.41,0,0,0,2.734-.393,1.058,1.058,0,0,0-.088-1.536,10.162,10.162,0,0,0-2.74-1.227,3.616,3.616,0,0,1-2.351-2.168,5.146,5.146,0,0,1,2.345-5.77A7.5,7.5,0,0,1,191.1,53.284Z" transform="translate(-58.508 -17.081)" fill="#fff"/>
      <path id="Shape-26" data-name="Shape" d="M60.064,58.578c.6-.328,1.629-.446,2,.341a1.434,1.434,0,0,1-.646,1.794A10,10,0,0,1,58.036,61.8,4.9,4.9,0,0,1,60.064,58.578Z" transform="translate(-18.631 -18.724)" fill="#f8424e"/>
      <path id="Shape-27" data-name="Shape" d="M126.208,58.958a1.421,1.421,0,0,1-.619,1.726,10.026,10.026,0,0,1-3.408,1.116,4.586,4.586,0,0,1,2.051-3.248A1.4,1.4,0,0,1,126.208,58.958Z" transform="translate(-39.223 -18.724)" fill="#f8424e"/>
      <path id="Shape-28" data-name="Shape" d="M172.741,58.551a1.285,1.285,0,0,1-.033,1.935,8.38,8.38,0,0,1-3.69,1.313,5.981,5.981,0,0,1,1.44-2.773A1.887,1.887,0,0,1,172.741,58.551Z" transform="translate(-54.259 -18.724)" fill="#f8424e"/>
    </g>
  </g>
</svg>
