<svg xmlns="http://www.w3.org/2000/svg" width="40.006" height="41.435" viewBox="0 0 40.006 41.435">
  <path id="save-img" d="M25.286,46a.715.715,0,0,1,.715.714v15a.7.7,0,0,1-.122.4.728.728,0,0,1-.593.314H21.714A.714.714,0,0,1,21,61.721v-15A.714.714,0,0,1,21.714,46Zm3.4,1.429A5.688,5.688,0,0,1,32.259,48.7a7.131,7.131,0,0,0,4.465,1.586H40.41a2.817,2.817,0,0,1,2.408,1.386l.064.107a1.882,1.882,0,0,1-.1,2.08H38.658a7.11,7.11,0,0,0-3.957,1.2l-.524.348A.715.715,0,1,0,34.97,56.6l.523-.349a5.7,5.7,0,0,1,3.17-.96h6.35a3.585,3.585,0,0,0,1.134-.183L59.367,50.7a1.235,1.235,0,0,1,1.35.376.581.581,0,0,0,.04.061,1.242,1.242,0,0,1-.347,1.807L47.018,61.1a4.281,4.281,0,0,1-2.228.625H27.43V47.433ZM32.43,21a.715.715,0,0,1,.252,1.378l2.306,2.287a8.663,8.663,0,0,1,1.372-.972,9.283,9.283,0,0,1,9.28,0,8.515,8.515,0,0,1,1.382.975l2.3-2.29A.714.714,0,0,1,49.576,21h1.429a.279.279,0,0,1,.028.006.661.661,0,0,1,.248.05c.006,0,.01.01.017.01a.683.683,0,0,1,.189.125.652.652,0,0,1,.05.055.7.7,0,0,1,.1.148c.012.023.022.047.032.071a.692.692,0,0,1,.05.25v1.428a.714.714,0,0,1-1.385.246l-2.3,2.286a8.958,8.958,0,0,1,1.011,1.419,9.279,9.279,0,0,1,0,9.28,8.83,8.83,0,0,1-.99,1.4l2.277,2.265a.715.715,0,0,1,1.386.246v1.429a.728.728,0,0,1-.052.247.651.651,0,0,1-.033.071.669.669,0,0,1-.1.147.444.444,0,0,1-.05.056.689.689,0,0,1-.189.127c-.006,0-.01.011-.017.011a.717.717,0,0,1-.274.055H49.576a.714.714,0,0,1-.258-1.375l-2.282-2.268a8.986,8.986,0,0,1-1.393.993,9.283,9.283,0,0,1-9.28,0,8.768,8.768,0,0,1-1.4-.993l-2.281,2.265a.714.714,0,0,1-.251,1.378H31a.7.7,0,0,1-.275-.053c-.007,0-.01-.01-.017-.01a.7.7,0,0,1-.19-.128c-.017-.017-.034-.036-.05-.055a.736.736,0,0,1-.1-.148c-.012-.023-.023-.047-.033-.071a.737.737,0,0,1-.05-.25V40.29a.714.714,0,0,1,1.385-.246l2.277-2.265a9.05,9.05,0,0,1-.99-1.4,9.283,9.283,0,0,1,0-9.28,8.653,8.653,0,0,1,1.012-1.426l-2.3-2.286a.714.714,0,0,1-1.385-.246V21.715a.728.728,0,0,1,.052-.247c.01-.024.02-.048.032-.071a.669.669,0,0,1,.1-.147.444.444,0,0,1,.05-.056.7.7,0,0,1,.19-.128c.006,0,.01-.01.016-.01a.72.72,0,0,1,.246-.05c.01,0,.019,0,.029,0ZM41,38.167a.714.714,0,0,0-.714.714v.686c.236.015.471.029.714.029s.479-.014.715-.029v-.686A.715.715,0,0,0,41,38.167Zm4.194-.6a.717.717,0,0,0-1.243.714l.343.593a7.091,7.091,0,0,0,1.235-.721ZM37.788,37.3a.715.715,0,0,0-.978.264l-.343.593a7.654,7.654,0,0,0,1.243.714l.343-.593A.716.716,0,0,0,37.788,37.3Zm9.76-2.615a.717.717,0,1,0-.715,1.243l.593.343a7.7,7.7,0,0,0,.714-1.243Zm-12.11.264a.717.717,0,0,0-.979-.264l-.593.343a7.7,7.7,0,0,0,.715,1.243l.593-.343A.718.718,0,0,0,35.438,34.952Zm13.4-3.929h-.686a.715.715,0,0,0,0,1.429h.686c.021-.236.029-.472.029-.715S48.854,31.259,48.833,31.023ZM41,27.451a.714.714,0,0,0-.714.714v3.572a.715.715,0,0,0,.714.715h1.429a.715.715,0,0,0,0-1.429h-.714V28.165A.715.715,0,0,0,41,27.451Zm-7.144,3.572h-.686c-.021.236-.028.472-.028.714s.007.48.028.715h.686a.715.715,0,1,0,0-1.429ZM47.426,27.2l-.593.343a.717.717,0,1,0,.715,1.243l.592-.343A7.7,7.7,0,0,0,47.426,27.2Zm-12.845,0a7.629,7.629,0,0,0-.715,1.243l.593.343a.717.717,0,0,0,.715-1.244ZM44.3,24.6l-.343.593a.717.717,0,1,0,1.243.714l.343-.593A7.708,7.708,0,0,0,44.3,24.6Zm-6.587,0a7.162,7.162,0,0,0-1.243.714l.343.593a.717.717,0,0,0,1.243-.714ZM41,23.879c-.243,0-.478.014-.714.029v.685a.715.715,0,1,0,1.429,0v-.685C41.482,23.893,41.246,23.879,41,23.879Z" transform="translate(-21 -21)" fill="#25ae53"/>
</svg>
