<svg xmlns="http://www.w3.org/2000/svg" width="37.252" height="37.252" viewBox="0 0 37.252 37.252">
  <path id="search-img" d="M57.8,54.528l-3.167,3.167L65.19,68.252l3.167-3.167L57.8,54.528ZM43.407,31l-1.778,4.164a9.969,9.969,0,0,0-.979.4l-4.175-1.719L34,36.329l1.692,4.212a9.358,9.358,0,0,0-.39.96l-4.192,1.746v3.507L35.3,48.542c.116.325.236.644.383.959l-1.726,4.185,2.48,2.48,4.2-1.686c.316.151.644.281.977.4l1.736,4.172h3.507L48.633,54.9a9.57,9.57,0,0,0,1.02-.4l4.141,1.705,2.48-2.48-1.668-4.157a10.468,10.468,0,0,0,.428-1.04l4.127-1.72V43.3l-4.124-1.764a10.13,10.13,0,0,0-.424-1.041l1.7-4.13-2.48-2.48-4.167,1.675a10.339,10.339,0,0,0-1.017-.411L46.914,31Zm1.753,8.767a5.261,5.261,0,1,1-5.26,5.261,5.261,5.261,0,0,1,5.26-5.261Z" transform="translate(-31.105 -31)" fill="#e15353"/>
</svg>
