<svg xmlns="http://www.w3.org/2000/svg" width="42.719" height="39.893" viewBox="0 0 42.719 39.893">
  <g id="themes-img" transform="translate(-275.395 -401.69)">
    <path id="Path_7174" data-name="Path 7174" d="M311.427,406.307l-4.046,4.383,6.574,6.574,4.158-4.158Z" fill="#6f5a43"/>
    <path id="Path_7175" data-name="Path 7175" d="M304.909,413.274l-15.732,15.732,6.742,6.743,15.62-15.62Z" fill="#6f5a43"/>
    <path id="Path_7176" data-name="Path 7176" d="M286.929,431.254l7.024,7.023s-6.462,3.99-10.62,3.2C283.333,441.48,284.064,432.883,286.929,431.254Z" fill="#6f5a43"/>
    <path id="Path_7177" data-name="Path 7177" d="M300.884,410.775l2.529-2.62-2.486-3.325-.682-.865-3.561,2.818a11.45,11.45,0,0,0-2.677-1.153l.3-3.7-4.854-.221-1.1-.022-.068,3.8a11.372,11.372,0,0,0-3.481,1.445l-2.241-3.08-3.829,2.992-.85.7,2.949,3.568a11.411,11.411,0,0,0-.983,2.4l-4.184.038-.265,6.194,4.452.038a11.353,11.353,0,0,0,1.13,2.642l-3.15,3.32,4.27,4.495,7.62-7.9a5.815,5.815,0,1,1,6.8-7.044l4.25-4.4c-.006-.01-.01-.021-.015-.03Z" fill="#6f5a43"/>
  </g>
</svg>
