<svg xmlns="http://www.w3.org/2000/svg" width="1920" height="612" viewBox="0 0 1920 612"><g transform="translate(0 -2157)"><rect width="1920" height="612" transform="translate(0 2157)" fill="#f3e9ff"/><g transform="translate(0 1983)" opacity="0.6"><g transform="translate(1067.596 581.89) rotate(180)" opacity="0.323"><path d="M2.974,22.849l-.386-2.968a8.477,8.477,0,0,0,7.307-9.506,8.418,8.418,0,0,0-3.24-5.621A8.408,8.408,0,0,0,.388,3.068L0,.1A11.368,11.368,0,0,1,8.479,2.381a11.473,11.473,0,0,1,2.1,16.084A11.4,11.4,0,0,1,2.974,22.849Z" fill="rgba(46,71,101,0.2)"/></g><g transform="translate(1665.214 713.661) rotate(180)"><path d="M8.811,17.632a8.824,8.824,0,0,1-8.8-8.3A8.825,8.825,0,0,1,8.3,0l.136,2.3a6.522,6.522,0,1,0,.777,13.02l.136,2.3C9.169,17.627,8.989,17.632,8.811,17.632Z" transform="translate(0 0)" fill="rgba(46,71,101,0.2)"/></g><g transform="translate(1919.998 676.097) rotate(180)" opacity="0.304"><path d="M7.706,13.922A9.084,9.084,0,0,1,0,9.677l2.006-1.26A6.719,6.719,0,0,0,13.378,1.26L15.384,0A9.082,9.082,0,0,1,7.706,13.922Z" fill="rgba(46,71,101,0.2)"/></g><g transform="translate(762.005 630.251) rotate(180)" opacity="0.323"><path d="M2.585,19.164A11.8,11.8,0,1,1,21.02,4.425l-2.4,1.921A8.723,8.723,0,1,0,4.991,17.239Z" fill="rgba(46,71,101,0.2)"/></g><path d="M10.141,3.13h0a7.024,7.024,0,1,1-3.158.759,6.907,6.907,0,0,1,3.158-.759m0-3.13a10.149,10.149,0,0,0,.018,20.3A10.149,10.149,0,0,0,10.141,0Z" transform="translate(910.166 703.321) rotate(180)" fill="rgba(46,71,101,0.2)" opacity="0.323"/><path d="M8.147,2.515h0c.2,0,.4.011.6.031A5.64,5.64,0,0,1,8.165,13.8c-.2,0-.4-.011-.6-.031A5.64,5.64,0,0,1,8.147,2.515M8.147,0A8.167,8.167,0,1,0,9.01.046,7.623,7.623,0,0,0,8.147,0Z" transform="translate(1755.526 505.621) rotate(180)" fill="rgba(255,0,67,0.2)" opacity="0.429"/><path d="M12.789,3.94h0a8.841,8.841,0,0,1,8.038,12.5,8.864,8.864,0,0,1-8.053,5.182,8.741,8.741,0,0,1-3.648-.8A8.838,8.838,0,0,1,12.789,3.94m0-3.94a12.786,12.786,0,1,0,5.283,1.15A12.784,12.784,0,0,0,12.789,0Z" transform="translate(1425.212 710.283) rotate(180)" fill="rgba(46,71,101,0.2)"/><path d="M13.974,4.311h0a9.672,9.672,0,1,1-3.308.586,9.7,9.7,0,0,1,3.308-.586m0-4.311A13.973,13.973,0,1,0,27.1,9.19,13.967,13.967,0,0,0,13.972,0Z" transform="translate(1363.609 593.256) rotate(180)" fill="rgba(239,76,0,0.2)" opacity="0.491"/><path d="M20.084,3.413l8.925,9.868L15.757,14.5,6.831,4.631,20.084,3.413M21.416,0,0,1.967,14.425,17.917l21.414-1.971L21.416,0Z" transform="translate(1520.736 632.368) rotate(180)" fill="rgba(46,71,101,0.2)" opacity="0.304"/><path d="M3.929,4.065l9.677,3.411,3.079,9.787-9.68-3.411L3.929,4.065M0,0,4.976,15.819l15.639,5.507L15.637,5.511,0,0Z" transform="translate(1743.75 639.786) rotate(180)" fill="rgba(239,76,0,0.2)" opacity="0.304"/><path d="M7.963,9.886,20.99,23.431,17.972,41.98,4.943,28.435,7.963,9.886M4.879,0,0,29.976l21.054,21.89L25.931,21.89,4.879,0Z" transform="translate(1826.206 720.92) rotate(180)" fill="rgba(46,71,101,0.2)" opacity="0.304"/><g transform="translate(1898.537 597.209) rotate(180)" opacity="0.304"><path d="M2.248,15.75a2.226,2.226,0,0,1-.95-.213,2.249,2.249,0,0,1-1.086-2.99A9.8,9.8,0,0,1,14.248,8.182,5.323,5.323,0,0,0,21.932,5.79,9.811,9.811,0,0,1,35.971,1.424,2.251,2.251,0,0,1,33.691,5.3,5.315,5.315,0,0,0,26.006,7.7,9.819,9.819,0,0,1,11.97,12.061a5.434,5.434,0,0,0-4.383-.568,5.424,5.424,0,0,0-3.3,2.959A2.246,2.246,0,0,1,2.248,15.75Z" transform="translate(0)" fill="rgba(239,76,0,0.2)"/></g><g transform="translate(1007.023 503.525) rotate(180)"><path d="M17.369,18.525l-.057,0A1.467,1.467,0,0,1,15.9,17a3.465,3.465,0,0,0-3.751-3.672,6.5,6.5,0,0,1-4.936-1.815A6.448,6.448,0,0,1,5.3,6.613,3.518,3.518,0,0,0,4.272,3.922,3.558,3.558,0,0,0,1.55,2.941,1.508,1.508,0,0,1,0,1.558,1.468,1.468,0,0,1,1.385.008,6.5,6.5,0,0,1,6.328,1.826a6.426,6.426,0,0,1,1.905,4.9,3.54,3.54,0,0,0,1.036,2.7,3.573,3.573,0,0,0,2.715.979,6.494,6.494,0,0,1,4.945,1.82,6.426,6.426,0,0,1,1.905,4.9A1.47,1.47,0,0,1,17.369,18.525Z" fill="rgba(255,0,67,0.2)"/></g><g transform="translate(1910.939 526.778) rotate(180)"><path d="M1.875,21.508c-.088,0-.173,0-.261,0a1.669,1.669,0,0,1,.108-3.336A3.913,3.913,0,0,0,4.775,16.98a4.011,4.011,0,0,0,1.1-3.093A7.318,7.318,0,0,1,7.9,8.262a7.392,7.392,0,0,1,5.551-2.2A4.022,4.022,0,0,0,16.509,4.87a4.021,4.021,0,0,0,1.1-3.1,1.667,1.667,0,1,1,3.328-.206A7.311,7.311,0,0,1,18.9,7.193a7.354,7.354,0,0,1-5.553,2.2,3.931,3.931,0,0,0-3.051,1.19,4.027,4.027,0,0,0-1.1,3.1A7.315,7.315,0,0,1,7.169,19.3,7.291,7.291,0,0,1,1.875,21.508Z" transform="translate(0)" fill="rgba(255,0,67,0.2)"/></g><g transform="translate(1530.828 506.659) rotate(180)" opacity="0.429"><path d="M23.4,17.036a7.7,7.7,0,0,1-3.751-.975,7.811,7.811,0,0,1-3.817-5.121,4.217,4.217,0,0,0-5.582-3.093,7.811,7.811,0,0,1-6.378-.533A7.811,7.811,0,0,1,.048,2.192,1.784,1.784,0,1,1,3.52,1.373,4.292,4.292,0,0,0,5.6,4.2a4.287,4.287,0,0,0,3.5.27A7.786,7.786,0,0,1,19.3,10.12a4.211,4.211,0,0,0,5.582,3.093,1.785,1.785,0,0,1,1.141,3.382A8.2,8.2,0,0,1,23.4,17.036Z" fill="rgba(46,71,101,0.2)"/></g><g transform="translate(1230.841 644.447) rotate(180)" opacity="0.491"><path d="M4.619,19.07a9.485,9.485,0,0,1-3.268-.593A2.066,2.066,0,0,1,2.78,14.6a4.973,4.973,0,0,0,4.05-.2,4.978,4.978,0,0,0,2.5-3.213A9.021,9.021,0,0,1,21.3,4.948a4.965,4.965,0,0,0,4.054-.2,4.985,4.985,0,0,0,2.5-3.211,2.066,2.066,0,0,1,3.995,1.054,9.066,9.066,0,0,1-4.587,5.823,9.053,9.053,0,0,1-7.386.41,4.886,4.886,0,0,0-6.552,3.418,9.064,9.064,0,0,1-4.592,5.819A8.867,8.867,0,0,1,4.619,19.07Z" fill="rgba(255,0,67,0.2)"/></g><g transform="translate(1679.502 567.935) rotate(180)" opacity="0.429"><path d="M1.532,6.128A1.534,1.534,0,0,1,1.19,3.1L14.412.043A1.533,1.533,0,1,1,15.1,3.031L1.879,6.086A1.429,1.429,0,0,1,1.532,6.128Z" fill="rgba(46,71,101,0.2)"/></g><g transform="translate(1079.507 684.289) rotate(180)" opacity="0.323"><path d="M1.455,5.92a1.454,1.454,0,0,1-.338-2.869L13.639.042a1.455,1.455,0,1,1,.678,2.829L1.795,5.881A1.4,1.4,0,0,1,1.455,5.92Z" fill="rgba(46,71,101,0.2)"/></g><g transform="translate(947.217 628.324) rotate(180)" opacity="0.323"><path d="M17.54,20.852,0,17.54,3.314,0,6.769.652,4.107,14.737,18.192,17.4Z" fill="rgba(46,71,101,0.2)"/></g><g transform="translate(1238.53 719.131) rotate(180)" opacity="0.491"><path d="M17.133,19.962,0,5.6,2.829,2.227,16.586,13.759,28.119,0l3.374,2.829Z" fill="rgba(255,0,67,0.2)"/></g><g transform="translate(1210.527 533.453) rotate(180)" opacity="0.491"><path d="M15.295,16.185,13.105,3.618.538,5.811,0,2.729,15.65,0l2.728,15.65Z" fill="rgba(255,0,67,0.2)"/></g><g transform="translate(753.517 707.584) rotate(180)" opacity="0.323"><path d="M13.709,15.851,0,4.984l2.141-2.7,11.008,8.728L21.876,0l2.7,2.139Z" fill="rgba(46,71,101,0.2)"/></g><g transform="translate(81.983 581.89) rotate(180)" opacity="0.175"><path d="M2.974,22.849l-.386-2.968a8.477,8.477,0,0,0,7.307-9.506,8.418,8.418,0,0,0-3.24-5.621A8.408,8.408,0,0,0,.388,3.068L0,.1A11.368,11.368,0,0,1,8.479,2.381a11.473,11.473,0,0,1,2.1,16.084A11.4,11.4,0,0,1,2.974,22.849Z" transform="translate(0)" fill="rgba(46,71,101,0.2)"/></g><g transform="translate(626.982 713.661) rotate(180)"><path d="M8.811,17.632a8.824,8.824,0,0,1-8.8-8.3A8.825,8.825,0,0,1,8.3,0l.136,2.3a6.522,6.522,0,1,0,.777,13.02l.136,2.3C9.169,17.627,8.989,17.632,8.811,17.632Z" fill="rgba(46,71,101,0.2)"/></g><path d="M12.789,3.94h0a8.841,8.841,0,0,1,8.038,12.5,8.864,8.864,0,0,1-8.053,5.182,8.741,8.741,0,0,1-3.648-.8A8.838,8.838,0,0,1,12.789,3.94m0-3.94a12.786,12.786,0,1,0,5.283,1.15A12.784,12.784,0,0,0,12.789,0Z" transform="translate(433.377 710.283) rotate(180)" fill="rgba(255,0,67,0.2)"/><path d="M12.789,3.94h0a8.841,8.841,0,0,1,8.038,12.5,8.864,8.864,0,0,1-8.053,5.182,8.741,8.741,0,0,1-3.648-.8A8.838,8.838,0,0,1,12.789,3.94m0-3.94a12.786,12.786,0,1,0,5.283,1.15A12.784,12.784,0,0,0,12.789,0Z" transform="translate(122.69 533.438) rotate(180)" fill="rgba(203,131,8,0.14)"/><path d="M13.974,4.311h0a9.672,9.672,0,1,1-3.308.586,9.7,9.7,0,0,1,3.308-.586m0-4.311A13.973,13.973,0,1,0,27.1,9.19,13.967,13.967,0,0,0,13.972,0Z" transform="translate(370.464 593.256) rotate(180)" fill="rgba(46,71,101,0.2)" opacity="0.175"/><path d="M20.084,3.413l8.925,9.868L15.757,14.5,6.831,4.631,20.084,3.413M21.416,0,0,1.967,14.425,17.917l21.414-1.971L21.416,0Z" transform="translate(523.212 632.368) rotate(180)" fill="rgba(239,76,0,0.2)"/><g transform="translate(18.84 503.525) rotate(180)" opacity="0.229"><path d="M17.369,18.525l-.057,0A1.467,1.467,0,0,1,15.9,17a3.465,3.465,0,0,0-3.751-3.672,6.5,6.5,0,0,1-4.936-1.815A6.448,6.448,0,0,1,5.3,6.613,3.518,3.518,0,0,0,4.272,3.922,3.558,3.558,0,0,0,1.55,2.941,1.508,1.508,0,0,1,0,1.558,1.468,1.468,0,0,1,1.385.008,6.5,6.5,0,0,1,6.328,1.826a6.426,6.426,0,0,1,1.905,4.9,3.54,3.54,0,0,0,1.036,2.7,3.573,3.573,0,0,0,2.715.979,6.494,6.494,0,0,1,4.945,1.82,6.426,6.426,0,0,1,1.905,4.9A1.47,1.47,0,0,1,17.369,18.525Z" fill="rgba(46,71,101,0.2)"/></g><g transform="translate(538.074 506.659) rotate(180)"><path d="M23.4,17.036a7.7,7.7,0,0,1-3.751-.975,7.811,7.811,0,0,1-3.817-5.121,4.217,4.217,0,0,0-5.582-3.093,7.811,7.811,0,0,1-6.378-.533A7.811,7.811,0,0,1,.048,2.192,1.784,1.784,0,1,1,3.52,1.373,4.292,4.292,0,0,0,5.6,4.2a4.287,4.287,0,0,0,3.5.27A7.786,7.786,0,0,1,19.3,10.12a4.211,4.211,0,0,0,5.582,3.093,1.785,1.785,0,0,1,1.141,3.382A8.2,8.2,0,0,1,23.4,17.036Z" fill="rgba(46,71,101,0.2)"/></g><g transform="translate(246.344 644.447) rotate(180)"><path d="M4.619,19.07a9.485,9.485,0,0,1-3.268-.593A2.066,2.066,0,0,1,2.78,14.6a4.973,4.973,0,0,0,4.05-.2,4.978,4.978,0,0,0,2.5-3.213A9.021,9.021,0,0,1,21.3,4.948a4.965,4.965,0,0,0,4.054-.2,4.985,4.985,0,0,0,2.5-3.211,2.066,2.066,0,0,1,3.995,1.054,9.066,9.066,0,0,1-4.587,5.823,9.053,9.053,0,0,1-7.386.41,4.886,4.886,0,0,0-6.552,3.418,9.064,9.064,0,0,1-4.592,5.819A8.867,8.867,0,0,1,4.619,19.07Z" transform="translate(0)" fill="rgba(239,76,0,0.2)"/></g><g transform="translate(651.198 567.935) rotate(180)"><path d="M1.532,6.128A1.534,1.534,0,0,1,1.19,3.1L14.412.043A1.533,1.533,0,1,1,15.1,3.031L1.879,6.086A1.429,1.429,0,0,1,1.532,6.128Z" fill="rgba(46,71,101,0.2)"/></g><g transform="translate(93.052 684.289) rotate(180)"><path d="M1.455,5.92a1.454,1.454,0,0,1-.338-2.869L13.639.042a1.455,1.455,0,1,1,.678,2.829L1.795,5.881A1.4,1.4,0,0,1,1.455,5.92Z" transform="translate(0)" fill="rgba(239,76,0,0.2)"/></g><g transform="translate(254.376 719.131) rotate(180)"><path d="M17.133,19.962,0,5.6,2.829,2.227,16.586,13.759,28.119,0l3.374,2.829Z" fill="rgba(255,0,67,0.2)"/></g><g transform="translate(224.118 533.453) rotate(180)" opacity="0.175"><path d="M15.295,16.185,13.105,3.618.538,5.811,0,2.729,15.65,0l2.728,15.65Z" fill="rgba(46,71,101,0.2)"/></g><g transform="translate(852.405 378.03)" opacity="0.323"><path d="M2.974,22.849l-.386-2.968a8.477,8.477,0,0,0,7.307-9.506,8.418,8.418,0,0,0-3.24-5.621A8.408,8.408,0,0,0,.388,3.068L0,.1A11.368,11.368,0,0,1,8.479,2.381a11.473,11.473,0,0,1,2.1,16.084A11.4,11.4,0,0,1,2.974,22.849Z" fill="rgba(46,71,101,0.2)"/></g><g transform="translate(304.242 246.259)"><path d="M8.811,17.632a8.824,8.824,0,0,1-8.8-8.3A8.825,8.825,0,0,1,8.3,0l.136,2.3a6.522,6.522,0,1,0,.777,13.02l.136,2.3C9.169,17.627,8.989,17.632,8.811,17.632Z" transform="translate(0 0)" fill="rgba(46,71,101,0.2)"/></g><g transform="translate(0 283.823)" opacity="0.304"><path d="M7.706,13.922A9.084,9.084,0,0,1,0,9.677l2.006-1.26A6.719,6.719,0,0,0,13.378,1.26L15.384,0A9.082,9.082,0,0,1,7.706,13.922Z" fill="rgba(46,71,101,0.2)"/></g><g transform="translate(1157.997 329.669)" opacity="0.323"><path d="M2.585,19.164A11.8,11.8,0,1,1,21.02,4.425l-2.4,1.921A8.723,8.723,0,1,0,4.991,17.239Z" fill="rgba(46,71,101,0.2)"/></g><path d="M10.141,3.13h0a7.024,7.024,0,1,1-3.158.759,6.907,6.907,0,0,1,3.158-.759m0-3.13a10.149,10.149,0,0,0,.018,20.3A10.149,10.149,0,0,0,10.141,0Z" transform="translate(1009.833 256.599)" fill="rgba(46,71,101,0.2)" opacity="0.323"/><path d="M8.147,2.515h0c.2,0,.4.011.6.031A5.64,5.64,0,0,1,8.165,13.8c-.2,0-.4-.011-.6-.031A5.64,5.64,0,0,1,8.147,2.515M8.147,0A8.167,8.167,0,1,0,9.01.046,7.623,7.623,0,0,0,8.147,0Z" transform="translate(197.298 454.298)" fill="rgba(255,0,67,0.2)" opacity="0.429"/><path d="M12.789,3.94h0a8.841,8.841,0,0,1,8.038,12.5,8.864,8.864,0,0,1-8.053,5.182,8.741,8.741,0,0,1-3.648-.8A8.838,8.838,0,0,1,12.789,3.94m0-3.94a12.786,12.786,0,1,0,5.283,1.15A12.784,12.784,0,0,0,12.789,0Z" transform="translate(494.787 249.637)" fill="rgba(46,71,101,0.2)"/><path d="M13.974,4.311h0a9.672,9.672,0,1,1-3.308.586,9.7,9.7,0,0,1,3.308-.586m0-4.311A13.973,13.973,0,1,0,27.1,9.19,13.967,13.967,0,0,0,13.972,0Z" transform="translate(556.392 366.664)" fill="rgba(239,76,0,0.2)" opacity="0.491"/><path d="M20.084,3.413l8.925,9.868L15.757,14.5,6.831,4.631,20.084,3.413M21.416,0,0,1.967,14.425,17.917l21.414-1.971L21.416,0Z" transform="translate(399.265 327.552)" fill="rgba(46,71,101,0.2)" opacity="0.304"/><path d="M3.929,4.065l9.677,3.411,3.079,9.787-9.68-3.411L3.929,4.065M0,0,4.976,15.819l15.639,5.507L15.637,5.511,0,0Z" transform="translate(212.046 320.133)" fill="rgba(239,76,0,0.2)" opacity="0.304"/><path d="M7.963,9.886,20.99,23.431,17.972,41.98,4.943,28.435,7.963,9.886M4.879,0,0,29.976l21.054,21.89L25.931,21.89,4.879,0Z" transform="translate(113.268 239)" fill="rgba(46,71,101,0.2)" opacity="0.304"/><g transform="translate(21.462 362.711)" opacity="0.304"><path d="M2.248,15.75a2.226,2.226,0,0,1-.95-.213,2.249,2.249,0,0,1-1.086-2.99A9.8,9.8,0,0,1,14.248,8.182,5.323,5.323,0,0,0,21.932,5.79,9.811,9.811,0,0,1,35.971,1.424,2.251,2.251,0,0,1,33.691,5.3,5.315,5.315,0,0,0,26.006,7.7,9.819,9.819,0,0,1,11.97,12.061a5.434,5.434,0,0,0-4.383-.568,5.424,5.424,0,0,0-3.3,2.959A2.246,2.246,0,0,1,2.248,15.75Z" fill="rgba(239,76,0,0.2)"/></g><g transform="translate(912.978 456.395)"><path d="M17.369,18.525l-.057,0A1.467,1.467,0,0,1,15.9,17a3.465,3.465,0,0,0-3.751-3.672,6.5,6.5,0,0,1-4.936-1.815A6.448,6.448,0,0,1,5.3,6.613,3.518,3.518,0,0,0,4.272,3.922,3.558,3.558,0,0,0,1.55,2.941,1.508,1.508,0,0,1,0,1.558,1.468,1.468,0,0,1,1.385.008,6.5,6.5,0,0,1,6.328,1.826a6.426,6.426,0,0,1,1.905,4.9,3.54,3.54,0,0,0,1.036,2.7,3.573,3.573,0,0,0,2.715.979,6.494,6.494,0,0,1,4.945,1.82,6.426,6.426,0,0,1,1.905,4.9A1.47,1.47,0,0,1,17.369,18.525Z" fill="rgba(255,0,67,0.2)"/></g><g transform="translate(9.061 433.142)"><path d="M1.875,21.508c-.088,0-.173,0-.261,0a1.669,1.669,0,0,1,.108-3.336A3.913,3.913,0,0,0,4.775,16.98a4.011,4.011,0,0,0,1.1-3.093A7.318,7.318,0,0,1,7.9,8.262a7.392,7.392,0,0,1,5.551-2.2A4.022,4.022,0,0,0,16.509,4.87a4.021,4.021,0,0,0,1.1-3.1,1.667,1.667,0,1,1,3.328-.206A7.311,7.311,0,0,1,18.9,7.193a7.354,7.354,0,0,1-5.553,2.2,3.931,3.931,0,0,0-3.051,1.19,4.027,4.027,0,0,0-1.1,3.1A7.315,7.315,0,0,1,7.169,19.3,7.291,7.291,0,0,1,1.875,21.508Z" transform="translate(0)" fill="rgba(255,0,67,0.2)"/></g><g transform="translate(389.173 453.261)" opacity="0.429"><path d="M23.4,17.036a7.7,7.7,0,0,1-3.751-.975,7.811,7.811,0,0,1-3.817-5.121,4.217,4.217,0,0,0-5.582-3.093,7.811,7.811,0,0,1-6.378-.533A7.811,7.811,0,0,1,.048,2.192,1.784,1.784,0,1,1,3.52,1.373,4.292,4.292,0,0,0,5.6,4.2a4.287,4.287,0,0,0,3.5.27A7.786,7.786,0,0,1,19.3,10.12a4.211,4.211,0,0,0,5.582,3.093,1.785,1.785,0,0,1,1.141,3.382A8.2,8.2,0,0,1,23.4,17.036Z" fill="rgba(46,71,101,0.2)"/></g><g transform="translate(689.16 315.473)" opacity="0.491"><path d="M4.619,19.07a9.485,9.485,0,0,1-3.268-.593A2.066,2.066,0,0,1,2.78,14.6a4.973,4.973,0,0,0,4.05-.2,4.978,4.978,0,0,0,2.5-3.213A9.021,9.021,0,0,1,21.3,4.948a4.965,4.965,0,0,0,4.054-.2,4.985,4.985,0,0,0,2.5-3.211,2.066,2.066,0,0,1,3.995,1.054,9.066,9.066,0,0,1-4.587,5.823,9.053,9.053,0,0,1-7.386.41,4.886,4.886,0,0,0-6.552,3.418,9.064,9.064,0,0,1-4.592,5.819A8.867,8.867,0,0,1,4.619,19.07Z" fill="rgba(255,0,67,0.2)"/></g><g transform="translate(289.953 391.985)" opacity="0.429"><path d="M1.532,6.128A1.534,1.534,0,0,1,1.19,3.1L14.412.043A1.533,1.533,0,1,1,15.1,3.031L1.879,6.086A1.429,1.429,0,0,1,1.532,6.128Z" transform="translate(0)" fill="rgba(46,71,101,0.2)"/></g><g transform="translate(840.495 275.63)" opacity="0.323"><path d="M1.455,5.92a1.454,1.454,0,0,1-.338-2.869L13.639.042a1.455,1.455,0,1,1,.678,2.829L1.795,5.881A1.4,1.4,0,0,1,1.455,5.92Z" fill="rgba(46,71,101,0.2)"/></g><g transform="translate(972.784 331.596)" opacity="0.323"><path d="M17.54,20.852,0,17.54,3.314,0,6.769.652,4.107,14.737,18.192,17.4Z" fill="rgba(46,71,101,0.2)"/></g><g transform="translate(681.471 240.789)" opacity="0.491"><path d="M17.133,19.962,0,5.6,2.829,2.227,16.586,13.759,28.119,0l3.374,2.829Z" fill="rgba(255,0,67,0.2)"/></g><g transform="translate(709.474 426.466)" opacity="0.491"><path d="M15.295,16.185,13.105,3.618.538,5.811,0,2.729,15.65,0l2.728,15.65Z" fill="rgba(255,0,67,0.2)"/></g><g transform="translate(1166.485 252.336)" opacity="0.323"><path d="M13.709,15.851,0,4.984l2.141-2.7,11.008,8.728L21.876,0l2.7,2.139Z" fill="rgba(46,71,101,0.2)"/></g><g transform="translate(1849.372 378.03)" opacity="0.175"><path d="M2.974,22.849l-.386-2.968a8.477,8.477,0,0,0,7.307-9.506,8.418,8.418,0,0,0-3.24-5.621A8.408,8.408,0,0,0,.388,3.068L0,.1A11.368,11.368,0,0,1,8.479,2.381a11.473,11.473,0,0,1,2.1,16.084A11.4,11.4,0,0,1,2.974,22.849Z" transform="translate(0)" fill="rgba(46,71,101,0.2)"/></g><g transform="translate(1293.02 246.259)"><path d="M8.811,17.632a8.824,8.824,0,0,1-8.8-8.3A8.825,8.825,0,0,1,8.3,0l.136,2.3a6.522,6.522,0,1,0,.777,13.02l.136,2.3C9.169,17.627,8.989,17.632,8.811,17.632Z" fill="rgba(46,71,101,0.2)"/></g><path d="M12.789,3.94h0a8.841,8.841,0,0,1,8.038,12.5,8.864,8.864,0,0,1-8.053,5.182,8.741,8.741,0,0,1-3.648-.8A8.838,8.838,0,0,1,12.789,3.94m0-3.94a12.786,12.786,0,1,0,5.283,1.15A12.784,12.784,0,0,0,12.789,0Z" transform="translate(1486.623 249.637)" fill="rgba(255,0,67,0.2)"/><path d="M12.789,3.94h0a8.841,8.841,0,0,1,8.038,12.5,8.864,8.864,0,0,1-8.053,5.182,8.741,8.741,0,0,1-3.648-.8A8.838,8.838,0,0,1,12.789,3.94m0-3.94a12.786,12.786,0,1,0,5.283,1.15A12.784,12.784,0,0,0,12.789,0Z" transform="translate(1813.986 426.481)" fill="rgba(203,131,8,0.14)"/><path d="M13.974,4.311h0a9.672,9.672,0,1,1-3.308.586,9.7,9.7,0,0,1,3.308-.586m0-4.311A13.973,13.973,0,1,0,27.1,9.19,13.967,13.967,0,0,0,13.972,0Z" transform="translate(1549.535 366.664)" fill="rgba(46,71,101,0.2)" opacity="0.175"/><path d="M20.084,3.413l8.925,9.868L15.757,14.5,6.831,4.631,20.084,3.413M21.416,0,0,1.967,14.425,17.917l21.414-1.971L21.416,0Z" transform="translate(1396.789 327.552)" fill="rgba(239,76,0,0.2)"/><g transform="translate(1901.159 456.395)" opacity="0.229"><path d="M17.369,18.525l-.057,0A1.467,1.467,0,0,1,15.9,17a3.465,3.465,0,0,0-3.751-3.672,6.5,6.5,0,0,1-4.936-1.815A6.448,6.448,0,0,1,5.3,6.613,3.518,3.518,0,0,0,4.272,3.922,3.558,3.558,0,0,0,1.55,2.941,1.508,1.508,0,0,1,0,1.558,1.468,1.468,0,0,1,1.385.008,6.5,6.5,0,0,1,6.328,1.826a6.426,6.426,0,0,1,1.905,4.9,3.54,3.54,0,0,0,1.036,2.7,3.573,3.573,0,0,0,2.715.979,6.494,6.494,0,0,1,4.945,1.82,6.426,6.426,0,0,1,1.905,4.9A1.47,1.47,0,0,1,17.369,18.525Z" transform="translate(0)" fill="rgba(46,71,101,0.2)"/></g><g transform="translate(1381.928 453.261)"><path d="M23.4,17.036a7.7,7.7,0,0,1-3.751-.975,7.811,7.811,0,0,1-3.817-5.121,4.217,4.217,0,0,0-5.582-3.093,7.811,7.811,0,0,1-6.378-.533A7.811,7.811,0,0,1,.048,2.192,1.784,1.784,0,1,1,3.52,1.373,4.292,4.292,0,0,0,5.6,4.2a4.287,4.287,0,0,0,3.5.27A7.786,7.786,0,0,1,19.3,10.12a4.211,4.211,0,0,0,5.582,3.093,1.785,1.785,0,0,1,1.141,3.382A8.2,8.2,0,0,1,23.4,17.036Z" fill="rgba(46,71,101,0.2)"/></g><g transform="translate(1711.303 315.473)"><path d="M4.619,19.07a9.485,9.485,0,0,1-3.268-.593A2.066,2.066,0,0,1,2.78,14.6a4.973,4.973,0,0,0,4.05-.2,4.978,4.978,0,0,0,2.5-3.213A9.021,9.021,0,0,1,21.3,4.948a4.965,4.965,0,0,0,4.054-.2,4.985,4.985,0,0,0,2.5-3.211,2.066,2.066,0,0,1,3.995,1.054,9.066,9.066,0,0,1-4.587,5.823,9.053,9.053,0,0,1-7.386.41,4.886,4.886,0,0,0-6.552,3.418,9.064,9.064,0,0,1-4.592,5.819A8.867,8.867,0,0,1,4.619,19.07Z" transform="translate(0)" fill="rgba(239,76,0,0.2)"/></g><g transform="translate(1268.804 391.985)"><path d="M1.532,6.128A1.534,1.534,0,0,1,1.19,3.1L14.412.043A1.533,1.533,0,1,1,15.1,3.031L1.879,6.086A1.429,1.429,0,0,1,1.532,6.128Z" fill="rgba(46,71,101,0.2)"/></g><g transform="translate(1839.823 275.63)"><path d="M1.455,5.92a1.454,1.454,0,0,1-.338-2.869L13.639.042a1.455,1.455,0,1,1,.678,2.829L1.795,5.881A1.4,1.4,0,0,1,1.455,5.92Z" transform="translate(0)" fill="rgba(239,76,0,0.2)"/></g><g transform="translate(1704.698 240.789)"><path d="M17.133,19.962,0,5.6,2.829,2.227,16.586,13.759,28.119,0l3.374,2.829Z" fill="rgba(255,0,67,0.2)"/></g><g transform="translate(1730.349 426.466)" opacity="0.175"><path d="M15.295,16.185,13.105,3.618.538,5.811,0,2.729,15.65,0l2.728,15.65Z" fill="rgba(46,71,101,0.2)"/></g></g></g></svg>