<svg xmlns="http://www.w3.org/2000/svg" xmlns:xlink="http://www.w3.org/1999/xlink" width="153.496" height="95.451" viewBox="0 0 153.496 95.451">
  <defs>
    <linearGradient id="linear-gradient" y1="0.5" x2="1" y2="0.5" gradientUnits="objectBoundingBox">
      <stop offset="0" stop-color="#2e3192"/>
      <stop offset="1" stop-color="#73439a"/>
    </linearGradient>
    <radialGradient id="radial-gradient" cx="0.5" cy="0.496" r="1.019" gradientTransform="translate(0.256) scale(0.488 1)" gradientUnits="objectBoundingBox">
      <stop offset="0" stop-color="#f5d30e"/>
      <stop offset="0.08" stop-color="#f5c711"/>
      <stop offset="0.32" stop-color="#f5a917"/>
      <stop offset="0.56" stop-color="#f5931c"/>
      <stop offset="0.79" stop-color="#f5861f"/>
      <stop offset="1" stop-color="#f58220"/>
    </radialGradient>
  </defs>
  <g id="tigris-img" transform="translate(-26.211 -3.239)">
    <g id="Asset-3" transform="translate(26.211 3.24)">
      <path id="Shape" d="M46.406,21.3c-.843.081-1.686.179-2.525.279a3.592,3.592,0,0,1,2.011,2.189,2.5,2.5,0,0,1-.387,1.941q-.615.877-1.322,1.731l-1.207,1.72L41.77,30.887q-1.207,1.8-2.413,3.493t-2.409,3.493q-2.32,3.524-4.323,6.964T28.6,51.879q-1.906,3.6-3.616,7.2t-3.418,7.274q-.808,1.879-1.547,3.757a31.615,31.615,0,0,1-1.759,3.676q-.828,1.793-1.821,3.618a9.623,9.623,0,0,1-2.811,3.167,2.7,2.7,0,0,1-1.659.442,6.208,6.208,0,0,1-1.91-.388,6.95,6.95,0,0,1-1.709-.9A2.452,2.452,0,0,1,7.4,78.561a11.952,11.952,0,0,1-.387-1.487,2.772,2.772,0,0,1-.251-1.017,3.958,3.958,0,0,1,.05-1.095q.3-3.439.9-6.649a66.08,66.08,0,0,1,1.6-7.262,70.757,70.757,0,0,1,2.413-7.08A81.086,81.086,0,0,1,18.46,40.436a84.343,84.343,0,0,1,9.447-12.421.189.189,0,0,1,.2-.039c.07.023.07.066,0,.116A99.02,99.02,0,0,0,13.838,52.108Q12.729,55,11.777,57.86t-1.659,5.822q.1-.233.3-.862a146.165,146.165,0,0,1,6.926-14.8q2.011-3.676,4.122-7.235t4.424-7.08q1.1-1.723,2.32-3.443t2.513-3.439a11.807,11.807,0,0,0,.9-1.293c.267-.442.568-.9.9-1.37a6.232,6.232,0,0,1-1.005-.625q-2.007.474-3.921.939t-3.929,1.1q-2.32.7-4.524,1.526T14.728,28.78c-.739.264-1.442.536-2.111.823s-1.342.613-2.011.978c-.066.05-.251.171-.553.353s-.352.194-.151.039a4.352,4.352,0,0,0-.754.939,2.568,2.568,0,0,1-1.056.776,2.744,2.744,0,0,1-1.86.276,5.337,5.337,0,0,1-1.806-.745A10.387,10.387,0,0,1,2.88,31.008,14.393,14.393,0,0,1,1.774,29.87,7,7,0,0,1,.266,26.509a4.148,4.148,0,0,1,1.005-3.443,5.8,5.8,0,0,1,1.806-1.444q1.1-.582,2.212-1.056,2.409-1.095,4.973-2.049t5.178-1.8q2.707-.862,5.476-1.553T26.6,13.859h-.3A121.85,121.85,0,0,0,3.982,19.177V19.1q5.333-2.05,10.9-3.618a91.731,91.731,0,0,1,11.407-2.426q2.912-.466,5.777-.776t5.8-.47c1.338-.1,2.73-.194,4.169-.276a32.354,32.354,0,0,1,4.172.039h.213Z" transform="translate(-0.211 -2.027)" fill-rule="evenodd" fill="url(#linear-gradient)"/>
      <path id="Shape-2" data-name="Shape" d="M70.692,23.844c-3.163.99-7.092,2.861-10.553,4-3.214,1.06-8.708,2.294-11.156,3.59l10.329-1.091.58,1.164c.967,5.865,6.547-.229,8.488-1.615L84.837,17.117c2.49-1.677,6.72-4.8,6.342-7.957C89.42,7.918,79.466,5.127,76.662,4.2,73.445,3.136,64.439-.4,61.581.341,58.855,2.4,60.475,3.931,59.671,6.8,56.577,9.1,49.4,10.608,45.688,11.648,55.9,12.459,63.217,8.966,72.308,7.3c-8.036,4.114-30.085,9.817-39.42,10.038.634.986,2.939.485,4.192.571,14.026,1.06,36.187-7.138,40.216-7.6-1.3.206-9.06,3.525-11.6,4.359-10.63,3.493-31.86,7.977-42.045,6.8l-1.253.877c-.1.081-.263.229-.387.345,4.532-.272,10.483.489,15.518.388A123.932,123.932,0,0,0,50.843,22C56.032,21.3,70.951,18.58,75.7,16.71l.746-.19-2.289,1.044A175.708,175.708,0,0,1,39.435,27.8c11.454,1.114,26.616-5.2,32.742-4.7Z" transform="translate(-3.677 -0.24)" fill-rule="evenodd" fill="url(#radial-gradient)"/>
      <path id="Shape-3" data-name="Shape" d="M94.166,86.815a2.139,2.139,0,0,1-.46-.675,6.229,6.229,0,0,1-.275-.858,4.115,4.115,0,0,0-.062-.586c-.039-.264-.07-.551-.093-.858s-.039-.586-.058-.831-.031-.411-.031-.493v-.458a7.14,7.14,0,0,1,.031-.776c.031-.3.039-.555.058-.8s.031-.431.031-.551a2.869,2.869,0,0,1,.062-.493c.042-.206.081-.431.124-.675s.081-.462.12-.644a2.072,2.072,0,0,1,.124-.388L96.8,69l3.125-6.145a2.335,2.335,0,0,1,1.682-.089,2.514,2.514,0,0,1,.947,1.013,7.612,7.612,0,0,1,1.161,2.271c-.345.345-3.194,4.86-2.019,5.962a.232.232,0,0,0,.368,0q.13-.163.244-.338a2.97,2.97,0,0,1,.244-.338l.061-.124a.056.056,0,0,1,.015-.047.055.055,0,0,1,.047-.015q.607-.613,1.2-1.258a16.466,16.466,0,0,1,1.191-1.2c1.515-1.9,5.715-5.213,7.71-6.987q1.655-1.479,2.664-2.368a12.613,12.613,0,0,1,1.86-1.4,6.439,6.439,0,0,1,1.651-.706,19.42,19.42,0,0,1,2.235-.388,1.088,1.088,0,0,1,1.252.555,6.882,6.882,0,0,1,.522,1.413.652.652,0,0,1,.124.462,1.808,1.808,0,0,1-.061.52,5.192,5.192,0,0,0-.336.675c-.143.33-.3.675-.46,1.044l-.461,1.044a4.71,4.71,0,0,1-.336.675.6.6,0,0,1-.182.338,1.837,1.837,0,0,0-.247.342l-3.314,6.5c-.7,1.393-.928,2.4-.7,3.012a1.486,1.486,0,0,0,1.527.951,8.179,8.179,0,0,0,2.938-.613,19.356,19.356,0,0,0,3.4-1.657A18.924,18.924,0,0,0,127.8,69.86a6.079,6.079,0,0,0,1.682-2.275c.042-.12.1-.163.186-.12a.756.756,0,0,1,.243.213,1.9,1.9,0,0,1,.217.338c.058.124.069.206.03.245a15.207,15.207,0,0,1-3.093,3.257,19.421,19.421,0,0,1-3.55,2.212A20.433,20.433,0,0,1,120,75.05a14.58,14.58,0,0,1-3,.524,6.474,6.474,0,0,0-1.039.062,9.977,9.977,0,0,1-1.717-.388L113.636,75a5.712,5.712,0,0,1-.979-.951,2.027,2.027,0,0,1-.553-1.32,14.783,14.783,0,0,1,.31-3.288,9.139,9.139,0,0,1,.916-2.426c.406-.737.878-1.506,1.408-2.306s1.14-1.751,1.837-2.857a1.454,1.454,0,0,0,.182-.307l.186-.388-2.32,1.475-8.26,7.375c-.082.081-.236.248-.46.493s-.387.408-.461.493c0,.039-.05.1-.151.182s-.155.144-.155.182c-.2.206-.436.462-.7.776s-.541.617-.828.924-.529.571-.734.8l-.305.338c-.387.625-1.5,2.135-2.019,3.008-.893,1.494-1.871,5.644-1.225,7.5.108-.047,1.272.532,1.16.862A3.636,3.636,0,0,1,98.4,88.08a3.083,3.083,0,0,1-1.547.12A3.974,3.974,0,0,1,94.166,86.815Z" transform="translate(-14.993 -9.233)" stroke="#000" stroke-width="1.38"/>
      <path id="Shape-4" data-name="Shape" d="M55.847,66.171q.131-.2.638,0c.336.136.46.295.387.473a9.1,9.1,0,0,1-1.647,2.465q-1.044,1.114-2.119,2.127-1.214,1.211-2.455,2.395t-2.591,2.329l-2.521,2.263q-1.245,1.11-2.455,2.263-1.346,1.164-2.556,2.395c-.808.835-1.659,1.63-2.556,2.4a1.109,1.109,0,0,1-1.21.132,2.272,2.272,0,0,0-.537.136,6.381,6.381,0,0,1-2.521-.237,11.262,11.262,0,0,1-2.32-.978A9.566,9.566,0,0,1,29.7,82.846a2.059,2.059,0,0,1-.538-2.092q.94-3.105,2.084-6.145T33.6,68.535q.673-1.487,1.311-2.938t1.311-2.869l1.411-2.834a1.556,1.556,0,0,0,.2-.439,1.557,1.557,0,0,1,.2-.442.429.429,0,0,1,0-.47,1.336,1.336,0,0,1,1.21-1.114,4.085,4.085,0,0,1,2.015.338,10.544,10.544,0,0,1,2.026,1.114,7.638,7.638,0,0,1,1.381,1.145,4.243,4.243,0,0,1,.9,2.1,6.167,6.167,0,0,1-.131,2.022,10.057,10.057,0,0,1-.742,2.061c-.336.7-.638,1.382-.909,2.057q-.738,1.688-1.411,3.342t-1.346,3.342c.313-.582.607-1.164.874-1.72s.561-1.114.874-1.654q1.284-2.636,2.556-5.2a15.508,15.508,0,0,0,1.547-5.6h.066a9.473,9.473,0,0,1-.1,2.632,14.846,14.846,0,0,1-.708,2.531c-.313.835-.661,1.654-1.04,2.465s-.754,1.6-1.11,2.364q-.673,1.351-1.346,2.717T41.3,76.2c-.313.629-.619,1.269-.909,1.941a21.323,21.323,0,0,1-.971,1.937l1.21-1.013q2.355-2.162,4.911-4.32,1.276-1.164,2.556-2.193t2.622-2.127c.851-.722,1.725-1.405,2.622-2.061a17.614,17.614,0,0,0,2.49-2.193ZM39.5,60.027l-.066-.066Zm-.336-.066c-.089-.047-.124-.058-.1-.035A.139.139,0,0,0,39.165,59.961Zm9.416-5.4a1.914,1.914,0,0,1-1.933,1.184,7.3,7.3,0,0,1-2.958-.574,6.916,6.916,0,0,1-2.49-1.688,1.894,1.894,0,0,1-.537-2.158q.541-1.215,1.04-2.465a18.154,18.154,0,0,1,1.179-2.4c.267-.493.584-1.067.94-1.72a4.572,4.572,0,0,1,1.28-1.522,2.389,2.389,0,0,1,.336-.675,1.061,1.061,0,0,1,1.075-.268,6.075,6.075,0,0,1,1.075.268,4.722,4.722,0,0,1,2.088,1.487,3.261,3.261,0,0,1,1.195,2.278,9.6,9.6,0,0,1-.271,2.717c-.267.947-.584,1.879-.94,2.8s-.719,1.836-1.079,2.717Zm33.5,13.031a4.683,4.683,0,0,0-.94-1.941,8.343,8.343,0,0,0-1.748-1.654A6.659,6.659,0,0,0,77.2,62.98a5.121,5.121,0,0,0-2.251-.1,3.323,3.323,0,0,0-.808.3.614.614,0,0,0-.336.776q-.07-.132-.035,0a.631.631,0,0,1-.031.338q0,.07-.035.408a4.8,4.8,0,0,1-.1.606c-.046.45-.1.866-.17,1.25A4.617,4.617,0,0,1,73,67.809q-.8,2.018-1.814,4.048l-4.138,3.074L62.908,78q-1.346.943-2.587,1.991a22.913,22.913,0,0,1-2.66,1.941l-.267.136a15.4,15.4,0,0,1,.739-4.592c.406-.722.82-1.417,1.245-2.092s.886-1.351,1.381-2.026a39.83,39.83,0,0,1,3.9-4.86q2.15-2.3,4.509-4.39c.043,0,.054-.023.031-.066s-.054-.047-.1,0a40.889,40.889,0,0,0-9.01,9.246,1.284,1.284,0,0,0-.336.474,29.477,29.477,0,0,1,1.933-3.241q1.079-1.553,2.285-2.969c.99-1.164,2.019-2.294,3.093-3.377a25.576,25.576,0,0,1,3.562-2.969q.947-.606,1.933-1.164a11.192,11.192,0,0,1,2.053-.877,7.006,7.006,0,0,1,1.009-.237c.387-.066.773-.144,1.16-.237a7.917,7.917,0,0,0,1.075-.334,2.491,2.491,0,0,0,.843-.543,1.3,1.3,0,0,0,.336-.842,1.509,1.509,0,0,0-.271-.842,3.876,3.876,0,0,0-.638-.745,3.528,3.528,0,0,0-.773-.54,10.654,10.654,0,0,0-6.392-1.25,16.532,16.532,0,0,0-6.253,1.941,24.081,24.081,0,0,0-4.4,3.14,47.725,47.725,0,0,0-3.867,3.932c-1.118,1.351-2.208,2.76-3.248,4.219a30.264,30.264,0,0,0-2.68,4.557,22.363,22.363,0,0,0-1.659,4.965,17.46,17.46,0,0,0-.271,5.3A3.193,3.193,0,0,0,49.8,83.774a8.738,8.738,0,0,0,2.444,1.452,2.967,2.967,0,0,0,.843.574,6.036,6.036,0,0,0,.715.3,4.671,4.671,0,0,0,3.206-.2,28.423,28.423,0,0,0,3-1.417,27.279,27.279,0,0,0,2.827-1.941q1.346-1.048,2.688-2.193.611-.543,1.245-1.165c.425-.388.862-.811,1.311-1.215q-1.612,3.039-3.43,5.873-1.547,2.57-3.194,5t-3.476,4.821a14.062,14.062,0,0,1-1.659,1.789,4.514,4.514,0,0,1-2.2,1.114,6.555,6.555,0,0,1-1.659.171,7.98,7.98,0,0,0-1.589.1,9.469,9.469,0,0,0-1.933-.07c-.65.046-1.021.318-1.11.812a1.043,1.043,0,0,0,.166.912,3.919,3.919,0,0,0,.773.812,9.359,9.359,0,0,0,1.021.675,11.259,11.259,0,0,0,1.009.5,12.269,12.269,0,0,0,3.531,1.487,13.438,13.438,0,0,0,3.759.388,10.042,10.042,0,0,0,3.6-.812,9.126,9.126,0,0,0,3.094-2.158q1.214-1.35,2.289-2.8t2.084-2.938q1.075-1.553,2.119-3.105t1.984-3.171q1.934-3.105,3.666-6.28t3.194-6.548q.738-1.553,1.547-3.377a5.562,5.562,0,0,0,.387-3.579Zm59.458-1.417q.136-.2.638,0c.336.136.46.295.387.473a8.946,8.946,0,0,1-1.648,2.465c-.7.741-1.4,1.452-2.119,2.127q-1.214,1.211-2.455,2.395t-2.591,2.329q-1.275,1.164-2.521,2.263t-2.475,2.263q-1.345,1.164-2.556,2.395c-.8.835-1.658,1.63-2.556,2.4a1.108,1.108,0,0,1-1.21.132,2.262,2.262,0,0,0-.537.136,6.38,6.38,0,0,1-2.521-.237,11.251,11.251,0,0,1-2.32-.978,9.68,9.68,0,0,1-1.682-1.487,2.058,2.058,0,0,1-.537-2.092q.94-3.105,2.084-6.145t2.355-6.075q.674-1.487,1.311-2.938t1.311-2.869l1.411-2.834a1.565,1.565,0,0,0,.205-.439,1.508,1.508,0,0,1,.2-.442.442.442,0,0,1,0-.47,1.339,1.339,0,0,1,1.21-1.114,4.1,4.1,0,0,1,2.018.338,10.642,10.642,0,0,1,2.05,1.114,7.65,7.65,0,0,1,1.38,1.145,4.274,4.274,0,0,1,.909,2.1,6.266,6.266,0,0,1-.135,2.022,10.023,10.023,0,0,1-.743,2.061c-.332.7-.637,1.382-.9,2.057q-.742,1.688-1.415,3.342t-1.341,3.342q.468-.873.874-1.72c.267-.563.561-1.114.874-1.654q1.277-2.636,2.556-5.2a15.561,15.561,0,0,0,1.547-5.6h.066a9.327,9.327,0,0,1-.1,2.632,14.121,14.121,0,0,1-.707,2.531c-.314.835-.661,1.654-1.04,2.465s-.75,1.6-1.11,2.364q-.672,1.351-1.346,2.717T127,76.2q-.472.943-.908,1.941a21.514,21.514,0,0,1-.975,1.921l1.21-1.013q2.355-2.162,4.912-4.32,1.275-1.164,2.556-2.193t2.621-2.127c.854-.722,1.729-1.405,2.626-2.061a17.834,17.834,0,0,0,2.487-2.193Zm-16.342-6.145-.069-.066Zm-.336-.066c-.093-.047-.124-.058-.1-.035A.142.142,0,0,0,124.857,59.961Zm9.416-5.4a1.92,1.92,0,0,1-1.933,1.184,7.3,7.3,0,0,1-2.958-.574,6.954,6.954,0,0,1-2.49-1.688,1.893,1.893,0,0,1-.537-2.158q.537-1.215,1.044-2.465a18.106,18.106,0,0,1,1.161-2.4l.943-1.72a4.573,4.573,0,0,1,1.277-1.522,2.388,2.388,0,0,1,.336-.675,1.06,1.06,0,0,1,1.075-.268,6.137,6.137,0,0,1,1.079.268,4.708,4.708,0,0,1,2.084,1.487,3.258,3.258,0,0,1,1.21,2.294,9.473,9.473,0,0,1-.27,2.717c-.267.947-.58,1.879-.94,2.8s-.719,1.836-1.075,2.717ZM156.334,52a6.919,6.919,0,0,0-2.727-1.25,6.757,6.757,0,0,0-2.923.031,10.867,10.867,0,0,0-2.626,1.048c-.85.474-1.658.955-2.42,1.452q-1.009.675-1.984,1.417a17.879,17.879,0,0,0-1.849,1.622,23.166,23.166,0,0,0-3.263,3.963,14.8,14.8,0,0,0-2.05,4.693,15.7,15.7,0,0,0-.236,5.131,19.276,19.276,0,0,0,1.246,5,17.544,17.544,0,0,0,1.241,2.329,24.155,24.155,0,0,0,1.515,2.127c0,.047.043.113.131.2.36.776.731,1.522,1.11,2.263s.731,1.5,1.045,2.263a8.2,8.2,0,0,1,.606,2.566,16.973,16.973,0,0,1-.069,2.566,10.231,10.231,0,0,1-2.421-1.285,15.326,15.326,0,0,1-1.38-1.013A12.633,12.633,0,0,1,137.7,85.6a5.728,5.728,0,0,1-1.079-1.723,1.557,1.557,0,0,1,.271-1.619.642.642,0,0,0,.034-.846,2.507,2.507,0,0,0-.843-.741,2.607,2.607,0,0,0-1.161-.338,1.345,1.345,0,0,0-.943.237,2.868,2.868,0,0,0-1.11,2.364,5.594,5.594,0,0,0,.839,2.5,10.9,10.9,0,0,0,1.852,2.263,17.358,17.358,0,0,0,1.984,1.654,19.306,19.306,0,0,0,5.669,2.763,14.257,14.257,0,0,0,1.612.338,5.323,5.323,0,0,0,1.682,0,7.273,7.273,0,0,0,.944.237,4.387,4.387,0,0,0,1.075.066,2.7,2.7,0,0,0,.975-.233,1.243,1.243,0,0,0,.638-.675,6.645,6.645,0,0,0,.386-2.736,10.609,10.609,0,0,0-.572-2.717,17.114,17.114,0,0,0-1.161-2.636q-.708-1.281-1.38-2.36-.734-1.165-1.447-2.364a23.609,23.609,0,0,1-1.31-2.566,13.334,13.334,0,0,1-.739-2.193c-.177-.745-.386-1.5-.606-2.263a1.054,1.054,0,0,0,.1-.338,1.186,1.186,0,0,1,.1-.338,12.319,12.319,0,0,1,1.447-2.9,31.257,31.257,0,0,1,1.914-2.566q1.957-2.364,4.072-4.522a12.168,12.168,0,0,1,5.077-3.105c.042,0,.066,0,.066-.035s-.024-.035-.066-.035a8.8,8.8,0,0,0-3.028.947,14.041,14.041,0,0,0-2.656,1.82,25.783,25.783,0,0,0-2.356,2.329c-.738.831-1.446,1.654-2.118,2.461a23.7,23.7,0,0,1,4.254-5.2,13.915,13.915,0,0,1,1.616-1.382c.579-.431,1.187-.846,1.813-1.25a18.6,18.6,0,0,1,2.084-1.083,13.373,13.373,0,0,0,2.088-1.145,1.061,1.061,0,0,0,.569-.947,2.281,2.281,0,0,0-.368-1.079,4.747,4.747,0,0,0-.808-.978A8.988,8.988,0,0,0,156.334,52Z" transform="translate(-4.799 -6.915)"/>
    </g>
  </g>
</svg>
