<svg xmlns="http://www.w3.org/2000/svg" width="661.052" height="334.445" viewBox="0 0 661.052 334.445">
  <g id="abc-img" transform="translate(-306 -2939.559)">
    <path id="Path_6493" data-name="Path 6493" d="M790.646,1255.069s24.77,5.194,23.518,9.744-27.183-7.778-27.183-7.778-19.12,17.1-21.781,25.816c0,0,27.925-3.95,25.592.151s-31.2,9.562-31.2,9.562-13.127,20.217-1.607,29.107,20.359,5.9,22.514,2.993,10.508-23.835,12.987-22.174.981,17.509-4.7,24.341c0,0,24.94.2,28.562-11.6s-1.95-18.228.421-25.48,6.392-11.6,6.828-7.307-5.764,15.666-3.29,23.342,3.544,13.5,10.075,3.857,13.018-29.13,6.476-36.274l-.818-.893a4.633,4.633,0,0,1,.818.893c1.94-1.475,8.559-2.15,13.549-2.454.826,0,1.992-.047,3.6-.175h0c.714-.026,1.3-.043,1.7-.052,10.838.136,26.079,8.757,26.079,8.757l1.538-2c-14.115-11.7-31.036-8.449-31.036-8.449a46.681,46.681,0,0,1-21.974-2.769s-2.954-24.978-22.282-21.9C809.036,1244.318,796.439,1247.967,790.646,1255.069Z" transform="translate(-312.703 1937.88)" fill="#d2e3fc"/>
    <path id="Path_6494" data-name="Path 6494" d="M1691.744,424.644c-6.6-24.364-47.713-16.75-47.713-16.75s-27.917,42.637-36.038,43.652,16.75-41.114,16.75-41.114c-15.735-1.523-55.834,17.765-55.834,17.765s2.538,49.743-5.583,48.728,0-44.16,0-44.16c-15.227,4.568-29.44,22.334-29.44,22.334-17.765,28.932,20.3,50.251,20.3,50.251s.508,17.257-10.151,37.053h0a58.745,58.745,0,0,0-4.851,9.868h4.152q.508-1.67,1.126-3.222a.025.025,0,0,1,.008-.019l.019-.045c.284-.642.693-1.554,1.2-2.666l0,0s0,0,0-.005c1.268-2.483,2.125-4.317,2.667-5.641a.069.069,0,0,0,0-.012c3.8-7.794,9.275-17.949,12.927-20.079a8.044,8.044,0,0,1-.888-1.9l.888,1.9c7.106,15.227,42.637,17.765,62.433,13.7s11.167-9.644.507-18.706-32.993-6.673-39.592-10.226,3.046-7.106,16.243-6.091,19.8,14.212,41.114,16.243,37.561-38.069,37.561-38.069c-14.72,4.568-41.114-3.553-42.129-8.629s38.069-4.568,44.16-6.091S1698.343,449.008,1691.744,424.644Z" transform="translate(-887.221 2557.843)" fill="#dfebfd"/>
    <path id="Path_6495" data-name="Path 6495" d="M621.7,462.92c9.089-14.547,34.331-1.5,34.331-1.5s9.763,33.228,14.845,35.487-2.8-30.039-2.8-30.039c10.534,2.108,32.817,22.548,32.817,22.548s-11.444,31.854-5.963,32.792,8.695-28.721,8.695-28.721c9,5.969,14.75,20.322,14.75,20.322,5.859,22.315-23.1,28.686-23.1,28.686s-3.728,11.125-.693,26.1h0a39.92,39.92,0,0,1,1.212,7.373l-2.7-.817c0-.791-.033-1.564-.1-2.318a.017.017,0,0,0,0-.014c0-.011,0-.022,0-.033-.059-.473-.145-1.147-.257-1.971v0s0,0,0,0c-.336-1.865-.532-3.226-.624-4.194a.031.031,0,0,1,0-.009c-.937-5.818-2.5-13.5-4.454-15.6a5.468,5.468,0,0,0,.953-1.063L687.656,551c-7.62,8.5-31.229,3.16-43.3-3.379s-5.364-8.471,3.353-12.266,22.773,2.156,27.764,1.144-.582-5.222-9.365-7.16-15.674,5.346-29.939,2.469-16.935-32.155-16.935-32.155c8.675,5.869,27.441,5.784,29.1,2.682s-23.861-10.467-27.522-12.656S612.611,477.467,621.7,462.92Z" transform="translate(-211.356 2521.359)" fill="#d2e3fc"/>
    <path id="Path_6496" data-name="Path 6496" d="M1256.924,461.178c-6.361-10.595-24.71-1.519-24.71-1.519s-7.456,23.81-11.146,25.373,2.4-21.6,2.4-21.6c-7.615,1.384-23.927,15.823-23.927,15.823s7.837,23.091,3.876,23.7-5.9-20.8-5.9-20.8c-6.562,4.185-10.885,14.45-10.885,14.45-4.5,16,16.273,20.958,16.273,20.958a39.643,39.643,0,0,1,.166,18.808h0a28.754,28.754,0,0,0-.967,5.3l1.955-.554c.011-.57.044-1.126.1-1.668a.011.011,0,0,1,0-.01l0-.024c.048-.34.119-.825.21-1.416v0s0,0,0,0c.266-1.339.424-2.317.5-3.013a.015.015,0,0,0,0-.007c.75-4.178,1.972-9.693,3.408-11.183a3.935,3.935,0,0,1-.673-.778l.673.778c5.38,6.223,22.455,2.675,31.237-1.881s3.972-6.033-2.259-8.879-16.431,1.262-20.014.47.486-3.754,6.837-5.038,11.222,4.051,21.534,2.161,12.609-22.946,12.609-22.946c-6.324,4.117-19.84,3.816-21,1.561s17.321-7.234,19.987-8.765S1263.285,471.773,1256.924,461.178Z" transform="translate(-633.126 2521.359)" fill="#dfebfd"/>
    <path id="Path_6498" data-name="Path 6498" d="M1229.108,984.825l-12.484,148.439s-1.308,9,5.385,9.014c11,.026,54.774,0,54.774,0s-8.282-1.873-8.182-6.087c.118-4.968,14.591-152.77,14.591-152.77Z" transform="translate(-655.728 2130.865)" fill="#616161"/>
    <path id="Path_6499" data-name="Path 6499" d="M1290.6,1131.9c-2.164.006-43.969.138-54.686,0-4.671-.058-5.489-4.153-5.528-6.8a13.28,13.28,0,0,1,.142-2.21l.325-3.858.827-9.834.731-8.687.939-11.164.791-9.423,8.87-105.476,54.085-1.4s-6.1,61.855-10.407,106.88c-.481,5.016-.939,9.827-1.363,14.317q-.206,2.15-.4,4.2c-.4,4.26-.765,8.172-1.083,11.626-.168,1.821-.322,3.512-.462,5.062-.55,6.072-.873,9.949-.877,10.687a6.254,6.254,0,0,0,.105,1.2C1283.5,1131.746,1289.785,1131.9,1290.6,1131.9Z" transform="translate(-665.99 2138.549)" fill="#cbcbcb"/>
    <path id="Path_6500" data-name="Path 6500" d="M758.975,677.629l30.409,122.147,4.164,16.729L807.71,873.4h263.127l-52.2-195.768Z" transform="translate(-316.94 2357.286)" fill="#cbcbcb"/>
    <path id="Path_6501" data-name="Path 6501" d="M746.951,677.629l-4.214,1.4,47.348,198.613,5.6-4.249Z" transform="translate(-304.917 2357.286)" fill="#616161"/>
    <path id="Path_6502" data-name="Path 6502" d="M925.153,1436.118H1186.66l7.222-4.249H930.756Z" transform="translate(-439.986 1798.814)" fill="#616161"/>
    <rect id="Rectangle_2709" data-name="Rectangle 2709" width="56.62" height="2.691" transform="translate(633.621 3273.199) rotate(180)" fill="#cbcbcb"/>
    <path id="Path_6503" data-name="Path 6503" d="M1058.089,837.323l-42.7-157.106H759.619l-.644-2.588h259.659l42.553,159.345Z" transform="translate(-316.94 2357.286)" fill="#616161"/>
    <path id="Path_6504" data-name="Path 6504" d="M1288.913,1448.235l-.292,2.057-53.249,10.757.731-8.687.348-4.127Z" transform="translate(-669.686 1786.696)" fill="#616161"/>
    <path id="Path_6505" data-name="Path 6505" d="M1290.6,1537.227c-2.164.007-43.969.138-54.686,0-4.671-.058-5.489-4.153-5.528-6.8l53-9.971c-.55,6.072-.873,9.949-.877,10.687a6.253,6.253,0,0,0,.105,1.2C1283.5,1537.072,1289.789,1537.227,1290.6,1537.227Z" transform="translate(-665.994 1733.223)" fill="#616161" opacity="0.4"/>
    <path id="Path_6506" data-name="Path 6506" d="M1021.923,1229.938,906.336,1269.57l-14.163-56.893Z" transform="translate(-415.566 1961.113)" fill="#7a7a7a"/>
    <path id="Path_6507" data-name="Path 6507" d="M758.973,677.629h259.66l42.13,157.336H798.141Z" transform="translate(-316.939 2357.286)" fill="#699dee"/>
    <ellipse id="Ellipse_225" data-name="Ellipse 225" cx="6.34" cy="7.698" rx="6.34" ry="7.698" transform="translate(612.36 3211.661) rotate(-47.777)" fill="#616161"/>
    <path id="Path_6508" data-name="Path 6508" d="M1079.2,852.188H836.08L808.547,742.507l-2.11-8.411-1.8-7.174L800.413,710.1h239.616l4.637,16.823,1.978,7.174,2.318,8.411Z" transform="translate(-347.623 2333.244)" fill="#e4edf9"/>
    <path id="Path_6509" data-name="Path 6509" d="M1044.666,726.921H804.635L800.413,710.1h239.616Z" transform="translate(-347.623 2333.244)" fill="#afcdfb"/>
    <g id="Group_4313" data-name="Group 4313" transform="translate(462.638 3048.842)">
      <path id="Path_6510" data-name="Path 6510" d="M838.418,733.39a1.589,1.589,0,0,1,1.579-2.1,2.873,2.873,0,0,1,2.628,2.1,1.589,1.589,0,0,1-1.579,2.1A2.873,2.873,0,0,1,838.418,733.39Z" transform="translate(-838.353 -731.287)" fill="#e9f3fe"/>
      <path id="Path_6511" data-name="Path 6511" d="M865.339,733.39a1.589,1.589,0,0,1,1.578-2.1,2.873,2.873,0,0,1,2.627,2.1,1.589,1.589,0,0,1-1.579,2.1A2.872,2.872,0,0,1,865.339,733.39Z" transform="translate(-858.286 -731.287)" fill="#e9f3fe"/>
      <path id="Path_6512" data-name="Path 6512" d="M894.327,733.39a1.589,1.589,0,0,1,1.579-2.1,2.873,2.873,0,0,1,2.627,2.1,1.589,1.589,0,0,1-1.579,2.1A2.872,2.872,0,0,1,894.327,733.39Z" transform="translate(-879.75 -731.287)" fill="#e9f3fe"/>
    </g>
    <path id="Path_6513" data-name="Path 6513" d="M1076.247,913.236H896.161L868.755,805.688H1046.3Z" transform="translate(-398.227 2262.466)" fill="#cae0ff"/>
    <path id="Path_6514" data-name="Path 6514" d="M1620.166,830.712h-40.817l-7.462-25.024H1613.2Z" transform="translate(-918.855 2262.466)" fill="#d2e3fc"/>
    <path id="Path_6515" data-name="Path 6515" d="M1264.285,835.769h-23.353l-.961-3.6h23.353Z" transform="translate(-673.091 2242.858)" fill="#1c468a"/>
    <path id="Path_6516" data-name="Path 6516" d="M1381.441,835.769h-38.205l-.961-3.6h38.205Z" transform="translate(-748.841 2242.858)" fill="#78acea"/>
    <path id="Path_6517" data-name="Path 6517" d="M1227.878,873.146h-41.416l-.961-3.6h41.416Z" transform="translate(-632.76 2215.183)" fill="#78acea"/>
    <path id="Path_6518" data-name="Path 6518" d="M1381.849,873.146h-21.467l-.961-3.6h21.467Z" transform="translate(-761.537 2215.183)" fill="#616161"/>
    <path id="Path_6519" data-name="Path 6519" d="M1291.437,937.495h-23.353l-.961-3.6h23.353Z" transform="translate(-693.195 2167.536)" fill="#699dee"/>
    <path id="Path_6520" data-name="Path 6520" d="M1408.593,937.495h-38.205l-.961-3.6h38.205Z" transform="translate(-768.945 2167.536)" fill="#78acea"/>
    <path id="Path_6521" data-name="Path 6521" d="M1255.03,974.871h-41.416l-.961-3.6h41.416Z" transform="translate(-652.863 2139.861)" fill="#fff"/>
    <path id="Path_6522" data-name="Path 6522" d="M1409,974.871h-21.467l-.961-3.6h21.467Z" transform="translate(-781.642 2139.861)" fill="#fff"/>
    <path id="Path_6523" data-name="Path 6523" d="M1051.167,1032.725H972.156l-.961-3.6h79.011Z" transform="translate(-474.078 2097.024)" fill="#1c468a"/>
    <path id="Path_6524" data-name="Path 6524" d="M1319.375,1032.725h-23.353l-.961-3.6h23.353Z" transform="translate(-713.882 2097.024)" fill="#699dee"/>
    <path id="Path_6525" data-name="Path 6525" d="M1436.531,1032.725h-38.205l-.961-3.6h38.205Z" transform="translate(-789.632 2097.024)" fill="#78acea"/>
    <path id="Path_6526" data-name="Path 6526" d="M1005.485,1070.1H982.132l-.961-3.6h23.353Z" transform="translate(-481.464 2069.349)" fill="#fff"/>
    <path id="Path_6527" data-name="Path 6527" d="M1282.968,1070.1h-41.416l-.961-3.6h41.416Z" transform="translate(-673.55 2069.349)" fill="#616161"/>
    <path id="Path_6528" data-name="Path 6528" d="M1122.641,1070.1h-38.205l-.961-3.6h38.205Z" transform="translate(-557.214 2069.349)" fill="#78acea"/>
    <path id="Path_6529" data-name="Path 6529" d="M1436.939,1070.1h-21.467l-.961-3.6h21.467Z" transform="translate(-802.328 2069.349)" fill="#78acea"/>
    <path id="Path_6530" data-name="Path 6530" d="M1085.725,1135.909h-79.011l-.961-3.6h79.011Z" transform="translate(-499.666 2020.621)" fill="#1c468a"/>
    <path id="Path_6531" data-name="Path 6531" d="M1353.933,1135.909H1330.58l-.961-3.6h23.353Z" transform="translate(-739.47 2020.621)" fill="#699dee"/>
    <path id="Path_6532" data-name="Path 6532" d="M1040.044,1173.286H1016.69l-.961-3.6h23.353Z" transform="translate(-507.053 1992.946)" fill="#fff"/>
    <path id="Path_6533" data-name="Path 6533" d="M1317.526,1173.286H1276.11l-.961-3.6h41.416Z" transform="translate(-699.139 1992.946)" fill="#616161"/>
    <path id="Path_6534" data-name="Path 6534" d="M1157.2,1173.286h-38.205l-.961-3.6h38.205Z" transform="translate(-582.803 1992.946)" fill="#78acea"/>
    <path id="Path_6535" data-name="Path 6535" d="M1471.5,1173.286H1450.03l-.961-3.6h21.467Z" transform="translate(-827.916 1992.946)" fill="#78acea"/>
    <g id="Group_4314" data-name="Group 4314" transform="translate(662.63 3099.217)">
      <path id="Path_6536" data-name="Path 6536" d="M1627.228,927.273l-17.962.055-.4-1.631,17.962-.055Z" transform="translate(-1608.868 -925.571)" fill="#78acea"/>
      <path id="Path_6537" data-name="Path 6537" d="M1695.7,927.161l-6.754.021-.4-1.631,6.754-.021Z" transform="translate(-1667.866 -925.487)" fill="#78acea"/>
      <path id="Path_6538" data-name="Path 6538" d="M1733.657,927l-11.937.037-.4-1.631,11.937-.037Z" transform="translate(-1692.134 -925.367)" fill="#78acea"/>
      <path id="Path_6539" data-name="Path 6539" d="M1622.987,943.262l-9.848.03-.4-1.631,9.848-.03Z" transform="translate(-1611.737 -937.409)" fill="#78acea"/>
      <path id="Path_6540" data-name="Path 6540" d="M1670.121,943.091l-12.717.039-.4-1.631,12.717-.039Z" transform="translate(-1644.511 -937.283)" fill="#78acea"/>
      <path id="Path_6541" data-name="Path 6541" d="M1730.007,942.89l-14.574.045-.4-1.631,14.575-.045Z" transform="translate(-1687.479 -937.134)" fill="#78acea"/>
    </g>
    <g id="Group_4315" data-name="Group 4315" transform="translate(664.778 3108.03)">
      <path id="Path_6542" data-name="Path 6542" d="M1635.5,961.228l-17.962.055-.4-1.631,17.962-.055Z" transform="translate(-1617.145 -959.525)" fill="#78acea"/>
      <path id="Path_6543" data-name="Path 6543" d="M1703.975,961.115l-6.754.021-.4-1.631,6.754-.021Z" transform="translate(-1676.142 -959.441)" fill="#78acea"/>
      <path id="Path_6544" data-name="Path 6544" d="M1741.934,960.953l-11.937.037-.4-1.631,11.937-.037Z" transform="translate(-1700.411 -959.321)" fill="#78acea"/>
      <path id="Path_6545" data-name="Path 6545" d="M1631.264,977.216l-9.848.03-.4-1.631,9.847-.03Z" transform="translate(-1620.013 -971.363)" fill="#78acea"/>
      <path id="Path_6546" data-name="Path 6546" d="M1678.4,977.045l-12.717.039-.4-1.631,12.718-.039Z" transform="translate(-1652.787 -971.237)" fill="#78acea"/>
      <path id="Path_6547" data-name="Path 6547" d="M1738.284,976.844l-14.574.045-.4-1.631,14.574-.045Z" transform="translate(-1695.756 -971.088)" fill="#78acea"/>
    </g>
    <g id="Group_4316" data-name="Group 4316" transform="translate(657.996 3070.602)">
      <path id="Path_6548" data-name="Path 6548" d="M1602.07,816.269l-10.817.033-.239-.982,10.817-.033Z" transform="translate(-1591.014 -815.244)" fill="#fff"/>
      <path id="Path_6549" data-name="Path 6549" d="M1643.3,816.2l-4.067.013-.24-.982,4.067-.013Z" transform="translate(-1626.541 -815.193)" fill="#fff"/>
      <path id="Path_6550" data-name="Path 6550" d="M1666.161,816.1l-7.188.022-.24-.982,7.188-.022Z" transform="translate(-1641.156 -815.121)" fill="#fff"/>
      <path id="Path_6551" data-name="Path 6551" d="M1599.515,825.9l-5.93.018-.24-.982,5.93-.018Z" transform="translate(-1592.74 -822.372)" fill="#fff"/>
      <path id="Path_6552" data-name="Path 6552" d="M1627.9,825.794l-7.658.024-.24-.982,7.658-.024Z" transform="translate(-1612.477 -822.296)" fill="#fff"/>
      <path id="Path_6553" data-name="Path 6553" d="M1663.963,825.673l-8.777.027-.24-.982,8.777-.027Z" transform="translate(-1638.352 -822.206)" fill="#fff"/>
    </g>
    <g id="Group_4317" data-name="Group 4317" transform="translate(659.289 3075.909)">
      <path id="Path_6554" data-name="Path 6554" d="M1607.053,836.716l-10.817.033-.24-.982,10.817-.033Z" transform="translate(-1595.997 -835.69)" fill="#fff"/>
      <path id="Path_6555" data-name="Path 6555" d="M1648.286,836.648l-4.068.013-.24-.983,4.068-.013Z" transform="translate(-1631.525 -835.64)" fill="#fff"/>
      <path id="Path_6556" data-name="Path 6556" d="M1671.145,836.55l-7.188.022-.24-.982,7.188-.022Z" transform="translate(-1646.14 -835.568)" fill="#fff"/>
      <path id="Path_6557" data-name="Path 6557" d="M1604.5,846.344l-5.93.018-.239-.982,5.93-.018Z" transform="translate(-1597.725 -842.819)" fill="#fff"/>
      <path id="Path_6558" data-name="Path 6558" d="M1632.883,846.241l-7.658.024-.24-.983,7.658-.024Z" transform="translate(-1617.461 -842.743)" fill="#fff"/>
      <path id="Path_6559" data-name="Path 6559" d="M1668.947,846.12l-8.777.027-.24-.982,8.777-.027Z" transform="translate(-1643.336 -842.654)" fill="#fff"/>
    </g>
    <g id="Group_4318" data-name="Group 4318" transform="translate(668.448 3123.088)">
      <path id="Path_6560" data-name="Path 6560" d="M1649.645,1019.243l-17.963.055-.4-1.631,17.962-.056Z" transform="translate(-1631.285 -1017.54)" fill="#78acea"/>
      <path id="Path_6561" data-name="Path 6561" d="M1718.116,1019.13l-6.754.021-.4-1.631,6.754-.021Z" transform="translate(-1690.283 -1017.457)" fill="#78acea"/>
      <path id="Path_6562" data-name="Path 6562" d="M1756.075,1018.967l-11.937.037-.4-1.631,11.937-.037Z" transform="translate(-1714.552 -1017.336)" fill="#78acea"/>
      <path id="Path_6563" data-name="Path 6563" d="M1645.4,1035.231l-9.847.031-.4-1.631,9.847-.03Z" transform="translate(-1634.154 -1029.378)" fill="#78acea"/>
      <path id="Path_6564" data-name="Path 6564" d="M1692.538,1035.06l-12.717.039-.4-1.631,12.717-.039Z" transform="translate(-1666.928 -1029.252)" fill="#78acea"/>
      <path id="Path_6565" data-name="Path 6565" d="M1752.425,1034.86l-14.574.045-.4-1.631,14.574-.045Z" transform="translate(-1709.896 -1029.104)" fill="#78acea"/>
    </g>
    <g id="Group_4319" data-name="Group 4319" transform="translate(672.046 3137.847)">
      <path id="Path_6566" data-name="Path 6566" d="M1663.505,1076.1l-17.962.055-.4-1.631,17.962-.055Z" transform="translate(-1645.146 -1074.401)" fill="#78acea"/>
      <path id="Path_6567" data-name="Path 6567" d="M1731.976,1075.991l-6.754.021-.4-1.631,6.754-.021Z" transform="translate(-1704.143 -1074.317)" fill="#78acea"/>
      <path id="Path_6568" data-name="Path 6568" d="M1769.935,1075.829l-11.937.037-.4-1.631,11.937-.037Z" transform="translate(-1728.411 -1074.197)" fill="#78acea"/>
      <path id="Path_6569" data-name="Path 6569" d="M1659.264,1092.092l-9.847.03-.4-1.631,9.847-.03Z" transform="translate(-1648.014 -1086.24)" fill="#78acea"/>
      <path id="Path_6570" data-name="Path 6570" d="M1706.4,1091.921l-12.717.039-.4-1.631,12.717-.039Z" transform="translate(-1680.789 -1086.113)" fill="#78acea"/>
      <path id="Path_6571" data-name="Path 6571" d="M1766.285,1091.72l-14.574.045-.4-1.631,14.574-.045Z" transform="translate(-1723.756 -1085.964)" fill="#78acea"/>
    </g>
    <g id="Group_4320" data-name="Group 4320" transform="translate(675.287 3151.144)">
      <path id="Path_6572" data-name="Path 6572" d="M1675.992,1127.333l-17.962.055-.4-1.631,17.962-.055Z" transform="translate(-1657.633 -1125.63)" fill="#78acea"/>
      <path id="Path_6573" data-name="Path 6573" d="M1744.463,1127.22l-6.754.021-.4-1.631,6.754-.021Z" transform="translate(-1716.63 -1125.547)" fill="#78acea"/>
      <path id="Path_6574" data-name="Path 6574" d="M1782.422,1127.057l-11.937.037-.4-1.631,11.937-.037Z" transform="translate(-1740.899 -1125.426)" fill="#78acea"/>
      <path id="Path_6575" data-name="Path 6575" d="M1671.751,1143.321l-9.847.03-.4-1.631,9.847-.03Z" transform="translate(-1660.5 -1137.468)" fill="#78acea"/>
      <path id="Path_6576" data-name="Path 6576" d="M1718.885,1143.15l-12.717.039-.4-1.631,12.717-.039Z" transform="translate(-1693.275 -1137.342)" fill="#78acea"/>
      <path id="Path_6577" data-name="Path 6577" d="M1778.772,1142.949l-14.574.045-.4-1.631,14.574-.045Z" transform="translate(-1736.244 -1137.193)" fill="#78acea"/>
    </g>
    <g id="Group_4327" data-name="Group 4327" transform="translate(695.127 3162.154)">
      <g id="Group_4323" data-name="Group 4323">
        <g id="Group_4321" data-name="Group 4321">
          <path id="Path_6578" data-name="Path 6578" d="M1741.053,1178.314a7.562,7.562,0,0,1-6.764-5.235c-.843-2.887.82-5.235,3.707-5.235a7.561,7.561,0,0,1,6.763,5.235C1745.6,1175.966,1743.939,1178.314,1741.053,1178.314Zm-2.777-9.514c-2.36,0-3.719,1.92-3.03,4.279a6.18,6.18,0,0,0,5.528,4.279c2.359,0,3.718-1.919,3.03-4.279A6.18,6.18,0,0,0,1738.275,1168.8Z" transform="translate(-1734.07 -1167.844)" fill="#a8d29f"/>
        </g>
        <g id="Group_4322" data-name="Group 4322" transform="translate(2.186 3.074)">
          <path id="Path_6579" data-name="Path 6579" d="M1746.433,1184.51a1.089,1.089,0,0,1-.587-.244l-2.937-2.352a.86.86,0,0,1-.3-1.126.8.8,0,0,1,1.134.025l2.075,1.662,1.064-2.46c.154-.356.629-.435,1.061-.178a.967.967,0,0,1,.5,1.113l-1.4,3.233a.558.558,0,0,1-.5.327A.883.883,0,0,1,1746.433,1184.51Z" transform="translate(-1742.493 -1179.686)" fill="#a8d29f"/>
        </g>
      </g>
      <g id="Group_4326" data-name="Group 4326" transform="translate(14.452)">
        <g id="Group_4324" data-name="Group 4324">
          <path id="Path_6580" data-name="Path 6580" d="M1796.73,1178.314a7.562,7.562,0,0,1-6.763-5.235c-.843-2.887.82-5.235,3.707-5.235a7.561,7.561,0,0,1,6.763,5.235C1801.28,1175.966,1799.617,1178.314,1796.73,1178.314Zm-2.777-9.514c-2.36,0-3.719,1.92-3.03,4.279a6.181,6.181,0,0,0,5.528,4.279c2.359,0,3.719-1.919,3.03-4.279A6.18,6.18,0,0,0,1793.953,1168.8Z" transform="translate(-1789.748 -1167.844)" fill="#616161"/>
        </g>
        <g id="Group_4325" data-name="Group 4325" transform="translate(4.068 2.387)">
          <path id="Path_6581" data-name="Path 6581" d="M1807.056,1180.744h0a1.073,1.073,0,0,1-.957-.74l-.649-2.224a.537.537,0,0,1,.524-.74h0a1.072,1.072,0,0,1,.957.74l.649,2.224A.537.537,0,0,1,1807.056,1180.744Z" transform="translate(-1805.419 -1177.039)" fill="#616161"/>
          <path id="Path_6582" data-name="Path 6582" d="M1811.028,1194.27h-.16a.955.955,0,0,1-.853-.66h0a.479.479,0,0,1,.468-.66h.16a.956.956,0,0,1,.853.66h0A.479.479,0,0,1,1811.028,1194.27Z" transform="translate(-1808.802 -1188.819)" fill="#616161"/>
        </g>
      </g>
    </g>
    <g id="Group_4340" data-name="Group 4340" transform="translate(665.458 3085.027)">
      <g id="Group_4330" data-name="Group 4330" transform="translate(16.719)">
        <g id="Group_4328" data-name="Group 4328">
          <path id="Path_6583" data-name="Path 6583" d="M1688.008,876.438a4.146,4.146,0,0,1-3.708-2.87,2.08,2.08,0,0,1,2.032-2.87,4.146,4.146,0,0,1,3.708,2.87A2.08,2.08,0,0,1,1688.008,876.438Zm-1.522-5.216a1.7,1.7,0,0,0-1.661,2.346,3.388,3.388,0,0,0,3.031,2.346,1.7,1.7,0,0,0,1.661-2.346A3.387,3.387,0,0,0,1686.486,871.221Z" transform="translate(-1684.18 -870.697)" fill="#a8d29f"/>
        </g>
        <g id="Group_4329" data-name="Group 4329" transform="translate(1.199 1.685)">
          <path id="Path_6584" data-name="Path 6584" d="M1690.958,879.835a.6.6,0,0,1-.322-.134l-1.61-1.29a.471.471,0,0,1-.167-.617.44.44,0,0,1,.622.014l1.138.911.583-1.349c.084-.2.345-.239.582-.1a.531.531,0,0,1,.275.61l-.767,1.773a.306.306,0,0,1-.271.179A.449.449,0,0,1,1690.958,879.835Z" transform="translate(-1688.798 -877.19)" fill="#a8d29f"/>
        </g>
      </g>
      <g id="Group_4333" data-name="Group 4333" transform="translate(8.507)">
        <g id="Group_4331" data-name="Group 4331">
          <path id="Path_6585" data-name="Path 6585" d="M1656.367,876.438a4.145,4.145,0,0,1-3.708-2.87,2.08,2.08,0,0,1,2.032-2.87,4.146,4.146,0,0,1,3.708,2.87A2.08,2.08,0,0,1,1656.367,876.438Zm-1.522-5.216a1.7,1.7,0,0,0-1.661,2.346,3.388,3.388,0,0,0,3.031,2.346,1.7,1.7,0,0,0,1.661-2.346A3.388,3.388,0,0,0,1654.845,871.221Z" transform="translate(-1652.539 -870.697)" fill="#a8d29f"/>
        </g>
        <g id="Group_4332" data-name="Group 4332" transform="translate(1.199 1.685)">
          <path id="Path_6586" data-name="Path 6586" d="M1659.317,879.835a.6.6,0,0,1-.322-.134l-1.61-1.29a.471.471,0,0,1-.166-.617.439.439,0,0,1,.621.014l1.138.911.583-1.349c.085-.2.345-.239.582-.1a.531.531,0,0,1,.276.61l-.767,1.773a.306.306,0,0,1-.272.179A.442.442,0,0,1,1659.317,879.835Z" transform="translate(-1657.157 -877.19)" fill="#a8d29f"/>
        </g>
      </g>
      <g id="Group_4336" data-name="Group 4336">
        <g id="Group_4334" data-name="Group 4334">
          <path id="Path_6587" data-name="Path 6587" d="M1623.593,876.438a4.146,4.146,0,0,1-3.708-2.87,2.08,2.08,0,0,1,2.032-2.87,4.146,4.146,0,0,1,3.708,2.87A2.08,2.08,0,0,1,1623.593,876.438Zm-1.523-5.216a1.7,1.7,0,0,0-1.661,2.346,3.388,3.388,0,0,0,3.031,2.346,1.7,1.7,0,0,0,1.661-2.346A3.389,3.389,0,0,0,1622.07,871.221Z" transform="translate(-1619.765 -870.697)" fill="#a8d29f"/>
        </g>
        <g id="Group_4335" data-name="Group 4335" transform="translate(1.199 1.685)">
          <path id="Path_6588" data-name="Path 6588" d="M1626.543,879.835a.6.6,0,0,1-.322-.134l-1.61-1.29a.472.472,0,0,1-.167-.617.44.44,0,0,1,.622.014l1.138.911.584-1.349c.084-.2.345-.239.581-.1a.53.53,0,0,1,.275.61l-.767,1.773a.306.306,0,0,1-.272.179A.442.442,0,0,1,1626.543,879.835Z" transform="translate(-1624.383 -877.19)" fill="#a8d29f"/>
        </g>
      </g>
      <g id="Group_4339" data-name="Group 4339" transform="translate(24.643)">
        <g id="Group_4337" data-name="Group 4337">
          <path id="Path_6589" data-name="Path 6589" d="M1718.535,876.438a4.146,4.146,0,0,1-3.708-2.87,2.08,2.08,0,0,1,2.032-2.87,4.146,4.146,0,0,1,3.708,2.87A2.08,2.08,0,0,1,1718.535,876.438Zm-1.523-5.216a1.7,1.7,0,0,0-1.661,2.346,3.388,3.388,0,0,0,3.031,2.346,1.7,1.7,0,0,0,1.661-2.346A3.388,3.388,0,0,0,1717.012,871.221Z" transform="translate(-1714.706 -870.697)" fill="#616161"/>
        </g>
        <g id="Group_4338" data-name="Group 4338" transform="translate(2.23 1.309)">
          <path id="Path_6590" data-name="Path 6590" d="M1724.2,877.77h0a.588.588,0,0,1-.525-.406l-.356-1.219a.3.3,0,0,1,.287-.406h0a.588.588,0,0,1,.524.406l.356,1.219A.3.3,0,0,1,1724.2,877.77Z" transform="translate(-1723.298 -875.739)" fill="#616161"/>
          <path id="Path_6591" data-name="Path 6591" d="M1726.373,885.186h-.088a.525.525,0,0,1-.468-.362h0a.263.263,0,0,1,.257-.362h.088a.524.524,0,0,1,.468.362h0A.263.263,0,0,1,1726.373,885.186Z" transform="translate(-1725.152 -882.198)" fill="#616161"/>
        </g>
      </g>
    </g>
    <g id="Group_4345" data-name="Group 4345" transform="translate(354.313 3097.96)">
      <g id="Group_4342" data-name="Group 4342" transform="translate(25.788 29.908)">
        <path id="Path_6592" data-name="Path 6592" d="M658.152,1199.137s4.327,1.111,7.077.283,7.484.532,8.247,1.535.482,1.4-.878,1.747-6.18,2.4-9.347,1.212a25.235,25.235,0,0,0-7.3-1.233Z" transform="translate(-620.758 -1156.729)" fill="#e49963"/>
        <path id="Path_6593" data-name="Path 6593" d="M520.36,1040.575s4.86,34.545,12.909,37.639c3.971,1.526,21.522,4.988,26.714,5.335,0,0,1.272-1.032.962-5.231,0,0-18.388-6.751-21-10.422-3.888-5.464,2.414-22.321-2.465-27.453S524.384,1033.106,520.36,1040.575Z" transform="translate(-520.36 -1035.752)" fill="#4a75cb"/>
      </g>
      <rect id="Rectangle_2710" data-name="Rectangle 2710" width="6.722" height="58.826" rx="3.361" transform="translate(33.13 171.698) rotate(180)" fill="#2b478b"/>
      <path id="Path_6594" data-name="Path 6594" d="M455.785,1574.514c2.174-4.5,10.636-7.856,20.742-7.856s18.568,3.356,20.743,7.856Z" transform="translate(-446.758 -1398.949)" fill="#2b478b"/>
      <path id="Rectangle_2711" data-name="Rectangle 2711" d="M1.185,0H30.416A1.185,1.185,0,0,1,31.6,1.185v0A1.185,1.185,0,0,1,30.416,2.37H1.185A1.185,1.185,0,0,1,0,1.185v0A1.185,1.185,0,0,1,1.185,0Z" transform="translate(45.57 160.305) rotate(180)" fill="#2b478b"/>
      <path id="Path_6595" data-name="Path 6595" d="M508.968,1276.871a60.586,60.586,0,0,0,4.748,6.793c5.224,6.595,10.91,12.032,11.9,17.172a23.315,23.315,0,0,0,.918,3.29c.414,1.177.925,2.415,1.516,3.7a113.838,113.838,0,0,0,8.842,15.115c5.722,8.479,11.1,15.553,11.1,15.553l9.867-.421c-.4-.989-4.7-12.7-10.456-27-2.338-5.808-4.824-11.985-7.222-17.943q-.479-1.193-.955-2.373c-.733-1.823-1.455-3.618-2.16-5.365-5.406-13.433-9.711-24.13-9.711-24.13s-21.606-8.184-23.849-2.881C501.658,1262.748,503.165,1267.031,508.968,1276.871Z" transform="translate(-481.542 -1169.359)" fill="#163560"/>
      <path id="Path_6596" data-name="Path 6596" d="M678.219,1557.75s.5,8.142,2.08,8.259c.21.016,7.99.016,7.99.016l9.932-.058a3.223,3.223,0,0,0-2.968-2.9c-2.9-.506-7.762-2.546-9.521-6.383C683.881,1552.648,678.219,1557.75,678.219,1557.75Z" transform="translate(-611.458 -1390.414)" fill="#163560"/>
      <path id="Path_6597" data-name="Path 6597" d="M572.382,1475.6s-6.863,4.41-6.2,5.842c.089.191,3.881,6.984,3.881,6.984l4.892,8.644a3.222,3.222,0,0,0,1.084-4c-.973-2.782-1.561-8.019.932-11.425C579.6,1478.062,572.382,1475.6,572.382,1475.6Z" transform="translate(-528.469 -1331.53)" fill="#163560"/>
      <path id="Path_6598" data-name="Path 6598" d="M535,1260.543s26.741,16.65,29.768,28-36.075,35.57-36.075,35.57-4.289-3.784-5.046-6.559c0,0,17.675-21.176,21.509-25.923,2.355-2.915-34.816-10.092-39.357-17.155s-2.915-13.007-2.915-13.007Z" transform="translate(-481.424 -1172.289)" fill="#1c468a"/>
      <rect id="Rectangle_2712" data-name="Rectangle 2712" width="59.539" height="15.137" rx="7.569" transform="translate(59.539 124.841) rotate(180)" fill="#cbcbcb"/>
      <path id="Path_6599" data-name="Path 6599" d="M540.18,991.812a15.311,15.311,0,0,1,4.131,3.744c-6.5,1.681-17.267-4.34-17.267-4.34a15.935,15.935,0,0,0,5.731-8.984q.118-.467.213-.958a19.5,19.5,0,0,0,.352-3.381l2.984,2.673,4.963,4.446a42.675,42.675,0,0,1-.733,5.018Q540.392,990.862,540.18,991.812Z" transform="translate(-499.521 -963.003)" fill="#e49963"/>
      <path id="Path_6600" data-name="Path 6600" d="M500.043,1053.158c.93,12.517-.294,31.553.762,34.849.911,2.844,11.292,1.153,15.436.2,1.534-.351,3.392-.853,5.31-1.447,5.352-1.657,11.183-4.023,11.809-5.78a1.484,1.484,0,0,0,.058-.2,1.609,1.609,0,0,0-.011-.736c-.209-.9-1.012-1.864-1.107-4.081-.106-2.475-.09-5.39-.183-8.525,0-.353-.01-.738-.048-1.089l0-.128c0-.067,0-.133,0-.2-.09-3.5-.273-7.171-.484-10.816-.135-2.289-.29-4.556-.47-6.728a89.949,89.949,0,0,0-1.928-13.745,22.072,22.072,0,0,0-7.091-10.946l-1.975-1.694a11.421,11.421,0,0,1-7.166-.955c-2.551-1.211-3.431-2.079-3.876-1.752C503.18,1023.93,498.944,1037.857,500.043,1053.158Z" transform="translate(-479.399 -993.673)" fill="#739af0"/>
      <path id="Path_6601" data-name="Path 6601" d="M555.618,1193.846c5.352-1.657,11.183-4.023,11.809-5.78a1.5,1.5,0,0,0,.058-.2c0-.245-.007-.491-.011-.736-.209-.9-1.012-1.864-1.107-4.081-.106-2.475-.09-5.39-.183-8.525,0-.353-.01-.738-.048-1.089l0-.128c0-.067,0-.133,0-.2l-20.215-9.168S544.749,1180.228,555.618,1193.846Z" transform="translate(-513.466 -1100.756)" fill="#4a75cb"/>
      <path id="Path_6602" data-name="Path 6602" d="M556.783,992.64a42.669,42.669,0,0,1-.733,5.018c-4.846-1.566-7.044-5.943-7.779-7.8-.209-.525-.3-.849-.3-.849l.512-.109,3.336-.707Z" transform="translate(-515.017 -970.63)" fill="#d68d5d"/>
      <path id="Path_6603" data-name="Path 6603" d="M555.238,954.64s-10.647,1.2-11.292-5.441-2.455-10.96,4.315-12.007,8.339,1.358,9.094,3.523S557.991,954.156,555.238,954.64Z" transform="translate(-511.51 -932.678)" fill="#e49963"/>
      <path id="Path_6604" data-name="Path 6604" d="M536.021,937.5a10.939,10.939,0,0,1,10.366-9.729c6.638-.626,2.937-6.339,2.23-7.25,0,0-5.086.7-10.3,1.559C527.377,923.89,534.947,936.131,536.021,937.5Z" transform="translate(-503.54 -920.524)" fill="#2b478b"/>
      <g id="Group_4343" data-name="Group 4343" transform="translate(58.029 56.57)">
        <rect id="Rectangle_2713" data-name="Rectangle 2713" width="0.98" height="25.659" transform="translate(26.921 24.707) rotate(-162.008)" fill="#4a75cb"/>
        <rect id="Rectangle_2714" data-name="Rectangle 2714" width="26.926" height="1.611" transform="translate(26.919 24.706) rotate(-178.777)" fill="#4a75cb"/>
      </g>
      <g id="Group_4344" data-name="Group 4344" transform="translate(27.933 32.126)">
        <path id="Path_6605" data-name="Path 6605" d="M648.5,1219.6s4.178,1.582,7,1.061,7.38,1.354,8.027,2.435.325,1.446-1.065,1.64-6.407,1.706-9.424.174a25.236,25.236,0,0,0-7.118-2.03Z" transform="translate(-615.475 -1174.098)" fill="#e49963"/>
        <path id="Path_6606" data-name="Path 6606" d="M528.624,1048.319s1.022,34.871,8.681,38.833c3.779,1.955,20.841,7.33,25.963,8.248,0,0,1.378-.885,1.533-5.094,0,0-17.531-8.737-19.723-12.674-3.262-5.859,4.86-21.919.577-27.558S533.447,1041.339,528.624,1048.319Z" transform="translate(-528.624 -1044.297)" fill="#739af0"/>
      </g>
    </g>
    <g id="Group_4346" data-name="Group 4346" transform="translate(635.223 3105.448)">
      <path id="Path_6607" data-name="Path 6607" d="M1649.545,1576.011a18.934,18.934,0,0,1,1.3-4.856c.905-1.811,6.667-.659,6.667-.659s1.152.988,1.4,5.6Z" transform="translate(-1611.579 -1409.013)" fill="#233862"/>
      <path id="Path_6608" data-name="Path 6608" d="M1521.609,1565.143c1.354-.826.583-6.991.583-6.991s-6.309-5.047-7.176-1.183-5.993,5.6-8.911,6.072a3.132,3.132,0,0,0-2.831,2.1Z" transform="translate(-1503.274 -1398.186)" fill="#233862"/>
      <path id="Path_6609" data-name="Path 6609" d="M1562.944,1285.636a29.088,29.088,0,0,0-.463,3.408c-.587,11.439-9.63,37.595-11.247,38.2-2.5.945-6.444-1.063-8.506-1.72a1.768,1.768,0,0,1-1.241-2.009c4.478-20.587,6.124-50.232,6.723-67.783a79.627,79.627,0,0,1,1.82-14.947s22.055-5.885,22.186,1.559C1572.333,1248.936,1564.911,1274.77,1562.944,1285.636Z" transform="translate(-1531.542 -1163.516)" fill="#213f7a"/>
      <path id="Path_6610" data-name="Path 6610" d="M1582.226,1285.636l-14.733-29.9a79.622,79.622,0,0,1,1.82-14.947s22.055-5.885,22.186,1.559C1591.615,1248.936,1584.193,1274.77,1582.226,1285.636Z" transform="translate(-1550.825 -1163.516)" fill="#233862"/>
      <path id="Path_6611" data-name="Path 6611" d="M1605.352,1245.528l11.659,84.5s5.12,1.235,9.1.247c0,0,3.413-44.943,3.129-55.808s2.45-29.073-.624-31.081S1605.352,1245.528,1605.352,1245.528Z" transform="translate(-1578.857 -1166.669)" fill="#213f7a"/>
      <path id="Path_6612" data-name="Path 6612" d="M1604.435,1079.946l1.453,20.288a1.618,1.618,0,0,1-1.167,1.672c-1.626.472-3.5.8-7.118,1.55a69.027,69.027,0,0,1-13.582,1.365c-8.931.057-12.312-3.021-12.312-3.021-.385.007.2-1.862.733-10.749.179-3.011.353-6.827.478-11.649.113-4.34.189-9.5.2-15.612.01-7.357,11.4-15.273,11.608-15.273l0,0c0,1.06,1.67,3.015,4.241,3.183,3.052.2,6.8-1.319,6.8-3.077,0-.018,5.518,8.827,7.477,18.25.249,1.195.442,2.455.6,3.781,0,.02,0,.041.007.061.029.242.055.486.08.731,0,.043.008.087.013.129.023.223.045.449.065.676.006.064.01.131.017.195.019.208.037.414.053.625,0,.019,0,.038,0,.057.013.155.024.313.035.469.009.111.017.223.025.335.013.184.025.367.038.554.006.092.012.185.018.279q.016.263.032.532c0,.078.009.158.014.237.014.256.029.516.042.777,0,.021,0,.042,0,.063.013.25.025.5.037.758,0,.063.006.125.008.188q.018.358.032.721c0,.036,0,.072,0,.107q.037.884.07,1.8c0,.016,0,.031,0,.046Z" transform="translate(-1553.854 -1022.783)" fill="#2b478b"/>
      <path id="Path_6613" data-name="Path 6613" d="M1567.486,1048.517s-10.59-.09-13.138,3.484-8.137,22.8-5.22,29.2,8.372-2.647,11.4-6.566S1567.486,1048.517,1567.486,1048.517Z" transform="translate(-1536.617 -1022.784)" fill="#2b478b"/>
      <path id="Path_6614" data-name="Path 6614" d="M1621.7,1024.276l.006,1.1s-.3,3.423,3.917,3.923,7.409-1.335,7.3-3.977a31.014,31.014,0,0,1-.825-5.143,11.926,11.926,0,0,1,.15-2.05l-8.169-.163-2.406.393Z" transform="translate(-1590.936 -1000.159)" fill="#ffb27d"/>
      <path id="Path_6615" data-name="Path 6615" d="M1621.665,1018.354l.031,5.921a6.906,6.906,0,0,0,2.945.65c3.754,0,6.181-2.753,7.449-4.751a11.926,11.926,0,0,1,.15-2.05l-8.169-.163Z" transform="translate(-1590.936 -1000.159)" fill="#e2915a"/>
      <path id="Path_6616" data-name="Path 6616" d="M1626.349,976.877c-.948,5.1-7.529,4.933-10.374,4.613-.8-.089-1.3-.191-1.3-.191-.9-.241-1.406-1.663-1.64-3.525-.464-3.685.122-9.095.745-10.478.937-2.082,2.7-4.334,9.33-2.709S1627.566,970.342,1626.349,976.877Z" transform="translate(-1584.419 -960.227)" fill="#ffb27d"/>
      <path id="Path_6617" data-name="Path 6617" d="M1569.129,1103.726s-4.1,9.045-3.976,11.756a14.127,14.127,0,0,1,3.976.511C1572.331,1116.948,1569.129,1103.726,1569.129,1103.726Z" transform="translate(-1549.09 -1063.663)" fill="#233862"/>
      <path id="Path_6618" data-name="Path 6618" d="M1608.352,951.589a21.933,21.933,0,0,0,6.359-1.721c2.793-1.214,6.317.123,7.46.725a1.7,1.7,0,0,0-.279-.688,1.537,1.537,0,0,1,.59.873c.053.039.076.066.063.075a1.968,1.968,0,0,1,.956.062s-.261-.037-.355.131a.159.159,0,0,1-.042.046c4.356,2.1,4.759,8.991,3.357,10.584a34.982,34.982,0,0,0-3.709,6.234,3.7,3.7,0,0,1-.431-2.707c.307-1.687-1.15-1.687-2.99-2.453s-.307-2.914-1.917-4.217S1609.9,958,1609.975,957C1607.784,956.2,1608.352,951.813,1608.352,951.589Z" transform="translate(-1581.029 -949.375)" fill="#233862"/>
      <path id="Path_6619" data-name="Path 6619" d="M1599.563,1167.894c-1.729,6.943-20.427,10.531-24.678,11.26.179-3.011.353-6.827.478-11.649Z" transform="translate(-1556.298 -1110.887)" fill="#233862"/>
      <path id="Path_6620" data-name="Path 6620" d="M1650.847,1156.826a32.932,32.932,0,0,0,4.869-.95c.713-.356,3.972-4.988,1.838-6.176s-7.864,3.563-7.864,3.563Z" transform="translate(-1611.687 -1097.564)" fill="#ffb27d"/>
      <path id="Path_6621" data-name="Path 6621" d="M1560.507,1159.286s15.387.835,25.714-1.376a4.438,4.438,0,0,0-2.985-4.308s-16.094-3.411-19.961-2.461S1560.507,1159.286,1560.507,1159.286Z" transform="translate(-1545.545 -1098.647)" fill="#2b478b"/>
      <path id="Path_6622" data-name="Path 6622" d="M1659.573,1071.657c-3.194,3.85-7.368,6.994-11.971,7.73h0a8.582,8.582,0,0,1-1.139-5.139,10.283,10.283,0,0,1,1.676-4.717,10.435,10.435,0,0,0,.905-1.824c2.513-6.412,2.139-18.771,2.139-18.771s10.672,1.118,14,5.868C1667.216,1057.713,1664.619,1065.569,1659.573,1071.657Z" transform="translate(-1609.273 -1023.094)" fill="#2b478b"/>
      <path id="Path_6623" data-name="Path 6623" d="M1616.452,1020.7c-.8-.089-1.3-.191-1.3-.191-.9-.241-1.406-1.663-1.64-3.525a4.458,4.458,0,0,1,2.791,2.282A3.274,3.274,0,0,1,1616.452,1020.7Z" transform="translate(-1584.896 -999.432)" fill="#e2915a"/>
      <path id="Path_6624" data-name="Path 6624" d="M1602.834,1024.237s-3.686-6.082-.82-6.346a4.335,4.335,0,0,1,4.432,2.388c.414.713-.108,3.927-.108,3.927Z" transform="translate(-1575.578 -1000.089)" fill="#ffb27d"/>
      <path id="Path_6625" data-name="Path 6625" d="M1619.994,1066.124a7.917,7.917,0,0,1-.628,2.112,10.107,10.107,0,0,1-2.347,3.232h0c-9.572-4.321-11.509-19.158-11.833-27.31-.131-3.277,0-5.474,0-5.474,4.318-1.43,5.532,1.055,5.532,1.055s5.1,12.124,7.744,20.048C1619.471,1062.819,1620.123,1065.237,1619.994,1066.124Z" transform="translate(-1578.69 -1015.174)" fill="#2b478b"/>
      <path id="Path_6626" data-name="Path 6626" d="M1629.155,1080.619c-3.194,3.85-7.368,6.994-11.97,7.73h0c-9.572-4.321-11.509-19.158-11.833-27.31,0,0,4.53,16.429,10.695,22.171a6.73,6.73,0,0,0,3.487,1.907s7.774-2.2,9.405-4.266A.877.877,0,0,1,1629.155,1080.619Z" transform="translate(-1578.855 -1032.055)" fill="#233862"/>
    </g>
    <rect id="Rectangle_2715" data-name="Rectangle 2715" width="661.052" height="1.754" rx="0.877" transform="translate(306 3272.25)" fill="#2e3552"/>
    <path id="Path_6627" data-name="Path 6627" d="M2303.736,1291.708c1.866,6.977,15.658,11.083,30.746,13.492h56.3c13.571-6.645,13.552-14.568,14.641-36.45,2.249-45.195-21.525-67.013-32.127-63.411-.44.15-.89.312-1.346.5-3.081,1.239-6.531,3.429-9.889,8.638,0,0-10.538,17.562-19.209,28.038-2.792,3.372-5.391,6.014-7.379,7.093a.486.486,0,0,1-.071.036c-.106.057-.209.106-.312.153-4.594,2.1-11.071,6.512-16.986,12.074h0C2308.927,1270.491,2301.1,1281.873,2303.736,1291.708Z" transform="translate(-1460.366 1966.831)" fill="#cbcbcb"/>
    <path id="Path_6628" data-name="Path 6628" d="M2360.563,1279.339c7.894,2.425,48.521,14.154,58.083,1.718,6.923-9.006,2.613-32.078-1.212-47.006a7.06,7.06,0,0,0-12.814-2.261l-.1.155s-10.538,17.563-19.209,28.038c-2.509,3.309-4.983,5.861-7.379,7.093a.5.5,0,0,1-.071.037c-.1.057-.209.106-.312.153C2372.954,1269.368,2366.478,1273.777,2360.563,1279.339Z" transform="translate(-1502.826 1949.361)" fill="#616161"/>
    <g id="Group_4350" data-name="Group 4350" transform="translate(831.953 3142.718)">
      <path id="Path_6629" data-name="Path 6629" d="M2412.986,1204.574s-2.815,4.166-4.421,12.924c-1.406,7.67-2.639,10.5-4.671,12.075s-13.346,6.217-13.346,6.217l.846,1.982s16.585-2.259,18.448-5.031,8.965-19.149,8.414-22.921S2412.986,1204.574,2412.986,1204.574Z" transform="translate(-2356.981 -1175.605)" fill="#f4a269"/>
      <g id="Group_4347" data-name="Group 4347" transform="translate(0 109)">
        <path id="Path_6630" data-name="Path 6630" d="M2276.615,1524.369c.15,1.618-2.1,2.011-4.711,2.141s-1.82.664-5.394,1.311-5.007-.33-5.265-.814c-.23-.428,1.431-1.1,3.2-1.856.222-.094.445-.192.669-.289,1.993-.876,3.111-2.664,4.665-4.321,1.472-1.57,2.869-6.6,2.869-6.6l4.857-1.037s-1.364,4.524-1.837,6.455a5.982,5.982,0,0,0,.5,3.372A6.371,6.371,0,0,1,2276.615,1524.369Z" transform="translate(-2261.224 -1512.908)" fill="#ffb27d"/>
        <path id="Path_6631" data-name="Path 6631" d="M2271.9,1554.545c-2.608.13-1.82.664-5.394,1.311s-5.007-.33-5.265-.814c-.23-.428,1.431-1.1,3.2-1.856l.027.03a10.178,10.178,0,0,0,5.414.064c2.365-.641,4.65-2.055,6.28-2.511a6.373,6.373,0,0,1,.447,1.634C2276.765,1554.021,2274.513,1554.415,2271.9,1554.545Z" transform="translate(-2261.224 -1540.943)" fill="#c65447"/>
      </g>
      <path id="Path_6632" data-name="Path 6632" d="M2352.328,1324.782s-32.275-2.429-38.352,1.406-15.821,48.5-15.821,48.5a3.964,3.964,0,0,0,1.945.628,16.3,16.3,0,0,0,4-.6s14.005-19.986,14.991-25.021.746-9.528,2.993-9.648,30.248,3.4,34.483-4.057a17.192,17.192,0,0,0,.734-14.849Z" transform="translate(-2288.569 -1261.917)" fill="#163560"/>
      <g id="Group_4348" data-name="Group 4348" transform="translate(12.35 114.184)">
        <path id="Path_6633" data-name="Path 6633" d="M2324.2,1544.342c.15,1.618-2.1,2.011-4.711,2.141s-1.82.664-5.394,1.312-5.007-.33-5.265-.814c-.23-.428,1.431-1.1,3.2-1.856.223-.094.446-.192.669-.289,1.993-.877,3.111-2.664,4.665-4.321,1.472-1.57,2.87-6.6,2.87-6.6l4.857-1.037s-1.364,4.524-1.838,6.455a5.987,5.987,0,0,0,.5,3.372A6.336,6.336,0,0,1,2324.2,1544.342Z" transform="translate(-2308.805 -1532.881)" fill="#ffb27d"/>
        <path id="Path_6634" data-name="Path 6634" d="M2319.486,1574.517c-2.608.13-1.82.664-5.394,1.312s-5.007-.331-5.265-.814c-.23-.428,1.431-1.1,3.2-1.856l.028.03a10.176,10.176,0,0,0,5.414.065c2.365-.642,4.65-2.055,6.279-2.511a6.335,6.335,0,0,1,.447,1.634C2324.346,1573.994,2322.094,1574.387,2319.486,1574.517Z" transform="translate(-2308.805 -1560.915)" fill="#c65447"/>
      </g>
      <path id="Path_6635" data-name="Path 6635" d="M2392.822,1342.867s-28.672,1.357-34.594,5.426-13.921,49.081-13.921,49.081a3.964,3.964,0,0,0,1.968.551,16.305,16.305,0,0,0,3.974-.755s13.216-20.516,14.006-25.585.374-9.549,2.614-9.757,30.358,2.224,34.3-5.4S2392.822,1342.867,2392.822,1342.867Z" transform="translate(-2322.742 -1278.003)" fill="#1c468a"/>
      <path id="Path_6636" data-name="Path 6636" d="M2483.039,1119.638a17.436,17.436,0,0,1-1.7-5.907c.062.314.881,4.306,2.582,6.482,6.641,3.753,19.766,16.888,19.7,19.547,0,0,3.81-7.572,3.881-7.621,0,0,7.252-10.6-2.523-15.75-4.969-2.615-5.2-6.382-5.214-9.665s-2.459-17.262-11.774-12.941a6.238,6.238,0,0,0-2.26-.431,1.88,1.88,0,0,1,.873.345,7.437,7.437,0,0,0-3.964,1.036C2479.266,1096.96,2477.321,1115.039,2483.039,1119.638Z" transform="translate(-2422.775 -1092.963)" fill="#b5453c"/>
      <path id="Path_6637" data-name="Path 6637" d="M2502.993,1185.765a32.281,32.281,0,0,0-5.34,0,17.165,17.165,0,0,0-4.634,1.162c-2.527,1.057-2.262,5.531,3.041,4.7S2503.365,1187.091,2502.993,1185.765Z" transform="translate(-2431.708 -1161.594)" fill="#ffb27d"/>
      <path id="Path_6638" data-name="Path 6638" d="M2497.76,1170.295c-.031.017-.757,3.849,2.715,3.7,2.279-.1,7.194-2.858,6.76-4.81-.206-.928-1.928-3.334-2.275-8.827l-.415.111-6.976,1.871s.309,2.214.453,4.31C2498.146,1168.4,2498.15,1170.08,2497.76,1170.295Z" transform="translate(-2436.225 -1142.861)" fill="#ffb27d"/>
      <path id="Path_6639" data-name="Path 6639" d="M2497.57,1162.65s.309,2.214.453,4.31c3.949-.375,5.8-4.123,6.522-6.181Z" transform="translate(-2436.225 -1143.177)" fill="#f4a269"/>
      <path id="Path_6640" data-name="Path 6640" d="M2490.54,1116.923a20.835,20.835,0,0,0,2.165-6.248c.222-2.023-1.291-9.368-8.668-7.8a10.14,10.14,0,0,0-4.091,1.867c-1.544,1.2-3.721,3.713-.68,10.007l.823,2.14Z" transform="translate(-2421.54 -1100.139)" fill="#b5453c"/>
      <path id="Path_6641" data-name="Path 6641" d="M2482.02,1130.144s9.37-.47,8.987-6.3.569-9.818-5.429-9.765-7.014,2.354-7.36,4.332S2479.572,1130.115,2482.02,1130.144Z" transform="translate(-2421.863 -1108.597)" fill="#ffb27d"/>
      <path id="Path_6642" data-name="Path 6642" d="M2490.24,1110.775s3.019,6.669,7.019,7.418,5.636-.418,5.636-.418a11.163,11.163,0,0,1-4.082-6.337S2491.956,1107.391,2490.24,1110.775Z" transform="translate(-2430.797 -1105.152)" fill="#b5453c"/>
      <path id="Path_6643" data-name="Path 6643" d="M2479.924,1113.725a8.282,8.282,0,0,0-2.179,3.17c-.368,1.516-.374,4.586-1.272,4.541,0,0-2.241-4.52-.246-7.3C2478.341,1111.2,2479.924,1113.725,2479.924,1113.725Z" transform="translate(-2419.809 -1107.589)" fill="#b5453c"/>
      <path id="Path_6644" data-name="Path 6644" d="M2456.354,1225.268c.759.907,3.126,1.185,5.657,1.6a16.988,16.988,0,0,1,5.57,1.615c3.378,1.983,14.413,8.685,17.647,8.38,1.254-.118,1.02-2.512.26-5.688-1.2-5.016-3.7-11.982-3.7-15.011a87.981,87.981,0,0,0-1.285-10.038q-.09-.541-.181-1.091c-1.453-8.7-3.465-18.949-3.465-18.949s-2.244,4.9-6.617,4.9-3.356-3.734-3.356-3.734-3.99.469-4.932,1.485a39.046,39.046,0,0,0-3.808,6.6s-.1,1.523,3.674,2.248a49.51,49.51,0,0,0-1.027,6.891c-.081,2.036,1.389,8.408,1.812,12.372a7.311,7.311,0,0,1-.058,3,5.838,5.838,0,0,1-2.309,1.9C2458.1,1223,2455.454,1224.191,2456.354,1225.268Z" transform="translate(-2405.573 -1161.917)" fill="#1c468a"/>
      <path id="Path_6645" data-name="Path 6645" d="M2470.649,1268.261c-2.42,4.126,6.564,5.367,8.052,6.241,3.377,1.983,13.706,9.173,16.941,8.868,1.254-.118,1.02-2.512.26-5.688-1.2-5.016-3.7-11.982-3.7-15.011a87.977,87.977,0,0,0-1.285-10.038l-3.893-3.738s-4.172,10.782-8.148,12.549a33.475,33.475,0,0,1-5.861,1.908,7.308,7.308,0,0,1-.058,3A5.835,5.835,0,0,1,2470.649,1268.261Z" transform="translate(-2415.987 -1208.422)" fill="#163560"/>
      <path id="Path_6646" data-name="Path 6646" d="M2480.258,1197s3.329-2.021,6.547,1.814-2.287,31.247-7.056,32.655c-5.3,1.565-20.6-.25-20.6-.25l.295-2.391s16.29-3.123,16.967-3.994S2478.565,1197.445,2480.258,1197Z" transform="translate(-2407.776 -1169.605)" fill="#ffb27d"/>
      <path id="Path_6647" data-name="Path 6647" d="M2530.484,1186.086s6.836.617,8.822,2.865,2.565,8.341,2.565,8.341-6.021,4.86-13.274,2.974Z" transform="translate(-2459.199 -1161.915)" fill="#1c468a"/>
      <g id="Group_4349" data-name="Group 4349" transform="translate(16.09 50.571)">
        <rect id="Rectangle_2716" data-name="Rectangle 2716" width="9.03" height="1.067" transform="translate(33.685 13.395) rotate(180)" fill="#9e332e"/>
        <path id="Path_6648" data-name="Path 6648" d="M2349.786,1301.046c-.088-.353-8.3-13.249-8.3-13.249h-18.273l9.165,12.9Z" transform="translate(-2323.213 -1287.797)" fill="#9e332e"/>
        <path id="Path_6649" data-name="Path 6649" d="M2349.018,1301.192c-.088-.353-8.327-13.395-8.327-13.395h-17.477l8.719,13.395Z" transform="translate(-2323.213 -1287.797)" fill="#b5453c"/>
        <path id="Path_6650" data-name="Path 6650" d="M2363.115,1311.068a1.46,1.46,0,0,0,1.272.946.651.651,0,0,0,.62-.946,1.459,1.459,0,0,0-1.272-.946A.652.652,0,0,0,2363.115,1311.068Z" transform="translate(-2352.717 -1304.327)" fill="#9e332e"/>
      </g>
      <path id="Path_6651" data-name="Path 6651" d="M2438.246,1318.282s-5.3-1.027-5.9-.77-3.936,3.251-3.593,3.85,1.711,1.027,3.251.513,4.876-.77,5.475-1.54A5.027,5.027,0,0,0,2438.246,1318.282Z" transform="translate(-2385.249 -1259.198)" fill="#ffb27d"/>
    </g>
    <g id="Group_4356" data-name="Group 4356" transform="translate(592.164 3011.252)">
      <path id="Path_6652" data-name="Path 6652" d="M1517.077,628.349h-166.9l-12.791-41.887h166.9Z" transform="translate(-1337.382 -586.462)" fill="#fafdff"/>
      <g id="Group_4354" data-name="Group 4354" transform="translate(14.077 10.155)">
        <path id="Path_6653" data-name="Path 6653" d="M1538.09,629.6l1.53,5.01c.673,2.2-.58,4.008-2.784,4.008H1398.559a5.9,5.9,0,0,1-5.232-4.008l-1.53-5.01c-.673-2.2.58-4.008,2.784-4.008h138.277A5.9,5.9,0,0,1,1538.09,629.6Z" transform="translate(-1391.615 -625.588)" fill="#b7d5f9"/>
        <g id="Group_4352" data-name="Group 4352" transform="translate(116.464 4.331)">
          <path id="Path_6654" data-name="Path 6654" d="M1842.641,643.2h-2.122l-.2-.651h2.966l.171.561-.787,3.659h-.832Z" transform="translate(-1840.32 -642.481)" fill="#699dee"/>
          <path id="Path_6655" data-name="Path 6655" d="M1855.868,644.457c-.368-1.205.069-2.182,1.178-2.182a2.879,2.879,0,0,1,2.5,2.182c.368,1.206-.069,2.182-1.178,2.182A2.873,2.873,0,0,1,1855.868,644.457Zm2.911,0c-.254-.832-.89-1.513-1.541-1.513s-.864.663-.6,1.513c.254.832.883,1.513,1.541,1.513S1859.037,645.3,1858.78,644.457Z" transform="translate(-1851.738 -642.275)" fill="#699dee"/>
          <path id="Path_6656" data-name="Path 6656" d="M1871.417,643.446c-.179-.585.074-1.079.67-1.079a1.482,1.482,0,0,1,1.318,1.079c.179.585-.074,1.079-.671,1.079A1.482,1.482,0,0,1,1871.417,643.446Zm3.2-1.031h.6l-1.8,4.219h-.6Zm-1.746,1.031a.805.805,0,0,0-.652-.615c-.284,0-.367.277-.264.615a.8.8,0,0,0,.651.615C1872.888,644.062,1872.972,643.784,1872.869,643.446Zm1.756,2.158c-.178-.585.075-1.079.671-1.079a1.483,1.483,0,0,1,1.318,1.079c.178.584-.074,1.079-.671,1.079A1.483,1.483,0,0,1,1874.625,645.6Zm1.453,0a.8.8,0,0,0-.651-.615c-.283,0-.368.277-.264.615a.8.8,0,0,0,.652.615C1876.1,646.219,1876.18,645.942,1876.077,645.6Z" transform="translate(-1863.304 -642.344)" fill="#699dee"/>
        </g>
        <g id="Group_4353" data-name="Group 4353">
          <path id="Path_6657" data-name="Path 6657" d="M1488.082,625.588l3.978,13.026h-93.5a5.885,5.885,0,0,1-4.76-2.942,4.941,4.941,0,0,1-.472-1.066l-1.53-5.01c-.673-2.2.58-4.008,2.784-4.008Z" transform="translate(-1391.615 -625.588)" fill="#7a7a7a"/>
          <path id="Path_6658" data-name="Path 6658" d="M1417.362,625.588l-3.941,13.026h-8.631a5.885,5.885,0,0,1-4.76-2.942l3.05-10.084Z" transform="translate(-1397.846 -625.588)" fill="#616161"/>
          <path id="Path_6659" data-name="Path 6659" d="M1509.1,625.588l-3.941,13.026H1490.88l3.941-13.026Z" transform="translate(-1465.115 -625.588)" fill="#616161"/>
          <path id="Path_6660" data-name="Path 6660" d="M1603.376,625.588l-3.942,13.026h-14.282l3.941-13.026Z" transform="translate(-1534.918 -625.588)" fill="#616161"/>
          <path id="Path_6661" data-name="Path 6661" d="M1697.662,625.588l-3.942,13.026h-14.282l3.942-13.026Z" transform="translate(-1604.732 -625.588)" fill="#616161"/>
        </g>
      </g>
      <g id="Group_4355" data-name="Group 4355" transform="translate(20.882 29.175)">
        <path id="Path_6662" data-name="Path 6662" d="M1443.333,700.589H1418.36l-.526-1.722h24.973Z" transform="translate(-1417.834 -698.866)" fill="#afcdfb"/>
        <path id="Path_6663" data-name="Path 6663" d="M1442.173,719.148h-18.145l-.526-1.722h18.145Z" transform="translate(-1422.031 -712.609)" fill="#afcdfb"/>
        <path id="Path_6664" data-name="Path 6664" d="M1509.095,719.148h-10.847l-.526-1.722h10.846Z" transform="translate(-1476.987 -712.609)" fill="#afcdfb"/>
        <path id="Path_6665" data-name="Path 6665" d="M1563.832,719.148h-16.569l-.526-1.722h16.569Z" transform="translate(-1513.28 -712.609)" fill="#afcdfb"/>
        <path id="Path_6666" data-name="Path 6666" d="M1529.37,700.589h-7.561l-.526-1.722h7.561Z" transform="translate(-1494.432 -698.866)" fill="#afcdfb"/>
        <path id="Path_6667" data-name="Path 6667" d="M1588.406,700.589h-27.5l-.526-1.722h27.5Z" transform="translate(-1523.385 -698.866)" fill="#afcdfb"/>
      </g>
    </g>
    <g id="Group_4372" data-name="Group 4372" transform="translate(410.911 3056.595)">
      <path id="Path_6668" data-name="Path 6668" d="M774.73,820.92H657.315l-18.25-59.765H756.48Z" transform="translate(-639.065 -761.155)" fill="#fafdff"/>
      <path id="Path_6669" data-name="Path 6669" d="M783.307,803.825H680.786l-7.756-25.4H775.55Z" transform="translate(-664.214 -773.943)" fill="#4a75cb"/>
      <g id="Group_4357" data-name="Group 4357" transform="translate(15.649 8.29)">
        <path id="Path_6670" data-name="Path 6670" d="M717.136,794.45H699.77l-.414-1.355h17.366Z" transform="translate(-699.356 -793.095)" fill="#cae0ff"/>
        <path id="Path_6671" data-name="Path 6671" d="M797.041,794.45H782.6l-.414-1.355h14.443Z" transform="translate(-760.685 -793.095)" fill="#cae0ff"/>
        <path id="Path_6672" data-name="Path 6672" d="M882.594,794.45H852.742l-.414-1.355h29.853Z" transform="translate(-812.623 -793.095)" fill="#cae0ff"/>
        <path id="Path_6673" data-name="Path 6673" d="M722.848,813.155H705.482l-.414-1.355h17.366Z" transform="translate(-703.586 -806.945)" fill="#cae0ff"/>
        <path id="Path_6674" data-name="Path 6674" d="M802.753,813.155H788.309L787.9,811.8h14.443Z" transform="translate(-764.915 -806.945)" fill="#cae0ff"/>
        <path id="Path_6675" data-name="Path 6675" d="M868.471,813.155H854.028l-.414-1.355h14.443Z" transform="translate(-813.576 -806.945)" fill="#cae0ff"/>
        <path id="Path_6676" data-name="Path 6676" d="M956.383,815.33H926.531l-.414-1.355H955.97Z" transform="translate(-867.26 -808.555)" fill="#cae0ff"/>
      </g>
      <g id="Group_4358" data-name="Group 4358" transform="translate(19.011 19.3)">
        <path id="Path_6677" data-name="Path 6677" d="M730.09,836.87H712.724l-.414-1.355h17.366Z" transform="translate(-712.31 -835.515)" fill="#cae0ff"/>
        <path id="Path_6678" data-name="Path 6678" d="M809.994,836.87H795.551l-.414-1.355h14.443Z" transform="translate(-773.639 -835.515)" fill="#cae0ff"/>
        <path id="Path_6679" data-name="Path 6679" d="M895.548,836.87H865.7l-.414-1.355h29.852Z" transform="translate(-825.577 -835.515)" fill="#cae0ff"/>
        <path id="Path_6680" data-name="Path 6680" d="M735.8,855.575H718.436l-.414-1.355h17.366Z" transform="translate(-716.539 -849.365)" fill="#cae0ff"/>
        <path id="Path_6681" data-name="Path 6681" d="M815.707,855.575H801.263l-.414-1.355h14.443Z" transform="translate(-777.869 -849.365)" fill="#cae0ff"/>
        <path id="Path_6682" data-name="Path 6682" d="M881.425,855.575H866.982l-.414-1.355h14.443Z" transform="translate(-826.529 -849.365)" fill="#cae0ff"/>
        <path id="Path_6683" data-name="Path 6683" d="M969.338,857.75H939.485l-.414-1.355h29.853Z" transform="translate(-880.214 -850.975)" fill="#cae0ff"/>
      </g>
      <g id="Group_4371" data-name="Group 4371" transform="translate(33.527 36.491)">
        <g id="Group_4361" data-name="Group 4361" transform="translate(42.039)">
          <g id="Group_4359" data-name="Group 4359">
            <path id="Path_6684" data-name="Path 6684" d="M939.95,916.178c-3.979,0-8.206-3.237-9.421-7.217s1.034-7.217,5.013-7.217,8.206,3.237,9.421,7.217S943.93,916.178,939.95,916.178Zm-4.005-13.116c-3.253,0-5.091,2.646-4.1,5.9a8.668,8.668,0,0,0,7.7,5.9c3.253,0,5.091-2.646,4.1-5.9A8.668,8.668,0,0,0,935.945,903.062Z" transform="translate(-930.2 -901.744)" fill="#a8d29f"/>
          </g>
          <g id="Group_4360" data-name="Group 4360" transform="translate(3.028 4.238)">
            <path id="Path_6685" data-name="Path 6685" d="M947.361,924.72a1.517,1.517,0,0,1-.814-.336l-4.093-3.243a1.2,1.2,0,0,1-.44-1.553,1.105,1.105,0,0,1,1.563.034l2.892,2.291,1.421-3.391c.206-.491.859-.6,1.459-.245a1.35,1.35,0,0,1,.713,1.534L948.2,924.27a.757.757,0,0,1-.677.451A1.1,1.1,0,0,1,947.361,924.72Z" transform="translate(-941.868 -918.07)" fill="#a8d29f"/>
          </g>
        </g>
        <g id="Group_4364" data-name="Group 4364" transform="translate(21.39)">
          <g id="Group_4362" data-name="Group 4362">
            <path id="Path_6686" data-name="Path 6686" d="M860.393,916.178c-3.979,0-8.205-3.237-9.421-7.217s1.034-7.217,5.013-7.217,8.205,3.237,9.421,7.217S864.372,916.178,860.393,916.178Zm-4.005-13.116c-3.253,0-5.091,2.646-4.1,5.9a8.668,8.668,0,0,0,7.7,5.9c3.253,0,5.091-2.646,4.1-5.9A8.668,8.668,0,0,0,856.388,903.062Z" transform="translate(-850.642 -901.744)" fill="#a8d29f"/>
          </g>
          <g id="Group_4363" data-name="Group 4363" transform="translate(3.028 4.238)">
            <path id="Path_6687" data-name="Path 6687" d="M867.8,924.72a1.517,1.517,0,0,1-.814-.336l-4.093-3.243a1.2,1.2,0,0,1-.44-1.553,1.106,1.106,0,0,1,1.563.034l2.892,2.291,1.422-3.391c.206-.491.859-.6,1.459-.245a1.35,1.35,0,0,1,.713,1.534l-1.869,4.457a.756.756,0,0,1-.677.451A1.1,1.1,0,0,1,867.8,924.72Z" transform="translate(-862.31 -918.07)" fill="#a8d29f"/>
          </g>
        </g>
        <g id="Group_4367" data-name="Group 4367">
          <g id="Group_4365" data-name="Group 4365">
            <path id="Path_6688" data-name="Path 6688" d="M777.985,916.178c-3.979,0-8.205-3.237-9.421-7.217s1.034-7.217,5.013-7.217,8.206,3.237,9.421,7.217S781.964,916.178,777.985,916.178Zm-4-13.116c-3.253,0-5.091,2.646-4.1,5.9a8.668,8.668,0,0,0,7.7,5.9c3.253,0,5.091-2.646,4.1-5.9A8.668,8.668,0,0,0,773.98,903.062Z" transform="translate(-768.235 -901.744)" fill="#a8d29f"/>
          </g>
          <g id="Group_4366" data-name="Group 4366" transform="translate(3.028 4.238)">
            <path id="Path_6689" data-name="Path 6689" d="M785.4,924.72a1.517,1.517,0,0,1-.814-.336l-4.093-3.243a1.2,1.2,0,0,1-.44-1.553,1.105,1.105,0,0,1,1.563.034l2.892,2.291,1.421-3.391c.206-.491.859-.6,1.459-.245a1.35,1.35,0,0,1,.713,1.534l-1.868,4.457a.757.757,0,0,1-.677.451A1.1,1.1,0,0,1,785.4,924.72Z" transform="translate(-779.902 -918.07)" fill="#a8d29f"/>
          </g>
        </g>
        <g id="Group_4370" data-name="Group 4370" transform="translate(61.962)">
          <g id="Group_4368" data-name="Group 4368">
            <path id="Path_6690" data-name="Path 6690" d="M1016.706,916.178c-3.979,0-8.205-3.237-9.421-7.217s1.034-7.217,5.013-7.217,8.205,3.237,9.421,7.217S1020.685,916.178,1016.706,916.178Zm-4.005-13.116c-3.252,0-5.091,2.646-4.1,5.9a8.668,8.668,0,0,0,7.7,5.9c3.253,0,5.091-2.646,4.1-5.9A8.668,8.668,0,0,0,1012.7,903.062Z" transform="translate(-1006.955 -901.744)" fill="#616161"/>
          </g>
          <g id="Group_4369" data-name="Group 4369" transform="translate(5.592 3.291)">
            <path id="Path_6691" data-name="Path 6691" d="M1030.816,919.529h0a1.5,1.5,0,0,1-1.332-1.021l-.936-3.066a.731.731,0,0,1,.709-1.021h0a1.5,1.5,0,0,1,1.332,1.021l.936,3.066A.731.731,0,0,1,1030.816,919.529Z" transform="translate(-1028.502 -914.422)" fill="#616161"/>
            <path id="Path_6692" data-name="Path 6692" d="M1036.539,938.176h-.22a1.341,1.341,0,0,1-1.188-.91h0a.652.652,0,0,1,.632-.91h.22a1.341,1.341,0,0,1,1.189.91h0A.652.652,0,0,1,1036.539,938.176Z" transform="translate(-1033.379 -930.662)" fill="#616161"/>
          </g>
        </g>
      </g>
    </g>
    <path id="Path_6693" data-name="Path 6693" d="M2125.531,945.563s14.851,15.4,15.552,21.193-7.114,14.842-7.114,14.842Z" transform="translate(-1328.798 2158.896)" fill="#cbcbcb"/>
    <path id="Path_6694" data-name="Path 6694" d="M2042.386,1552.83s-.524,8.167-2.1,8.281c-.21.015-8.015,0-8.015,0l-9.964-.079a3.232,3.232,0,0,1,2.984-2.9c2.914-.5,7.793-2.538,9.565-6.383C2036.717,1547.7,2042.386,1552.83,2042.386,1552.83Z" transform="translate(-1252.363 1711.203)" fill="#163560"/>
    <path id="Path_6695" data-name="Path 6695" d="M2127.887,1553.016s-.524,8.167-2.1,8.281c-.21.015-8.015,0-8.015,0l-9.964-.079a3.233,3.233,0,0,1,2.984-2.9c2.914-.5,7.793-2.537,9.565-6.383C2122.217,1547.885,2127.887,1553.016,2127.887,1553.016Z" transform="translate(-1315.671 1711.066)" fill="#163560"/>
    <path id="Path_6696" data-name="Path 6696" d="M2057.9,1186.593s2.57,16.672,12.227,46.279,10.954,42.421,10.954,42.421l10.429-.27s.159-32.333-4.288-47.22-.85-53.637-.85-53.637Z" transform="translate(-1278.721 1989.629)" fill="#163560"/>
    <path id="Path_6697" data-name="Path 6697" d="M2038.413,1177.4a404.52,404.52,0,0,0,3.855,55.961c4.278,30.846,2.777,43.933,2.777,43.933l10.407.369s6.286-30.835,4.537-46.273,8.632-52.944,8.632-52.944Z" transform="translate(-1264.283 1987.232)" fill="#1c468a"/>
    <path id="Path_6698" data-name="Path 6698" d="M2077.867,915.708l-5.553,3.624-8.011-1.511c.112-.647.647-3.327,1.134-5.754.029-.143.059-.286.087-.426.417-2.066.777-3.84.777-3.84l7.492-3.286,2.793-1.225c-.007.043-.222,2.293-.251,2.621A19.086,19.086,0,0,0,2077.867,915.708Z" transform="translate(-1283.462 2190.198)" fill="#ffb27d"/>
    <path id="Path_6699" data-name="Path 6699" d="M2063.077,936.748c.156-.065,9.656-2.846,10.688-2.5s1.637,2.34,1.637,2.34l-15.538,3.478A7.714,7.714,0,0,1,2063.077,936.748Z" transform="translate(-1280.174 2167.299)" fill="#616161"/>
    <path id="Path_6700" data-name="Path 6700" d="M2067.543,1007.03c-1.625,7.339-28.412,8.151-35.3,1.472-.783-.761-.815-4.3-.508-9.06.6-9.309,2.491-23.31,2.579-30.466a56.651,56.651,0,0,1,1.165-10.2,82.8,82.8,0,0,1,3.424-12.2s13.092-4.2,15.538-3.477C2066.225,946.594,2069.169,999.691,2067.543,1007.03Z" transform="translate(-1259.212 2160.78)" fill="#cbcbcb"/>
    <path id="Path_6701" data-name="Path 6701" d="M2032.248,1040.487c.6-9.309,2.491-23.31,2.579-30.465a56.65,56.65,0,0,1,1.165-10.2l7.873-1.372S2051.491,1029.9,2032.248,1040.487Z" transform="translate(-1259.727 2119.733)" fill="#7a7a7a"/>
    <path id="Path_6702" data-name="Path 6702" d="M2042.352,1106.954a1.852,1.852,0,0,1-.595,2.142,3.59,3.59,0,0,0-1.606,3.272c.255,1.02,2.723,2.688,3.58,2.422s2.6-1.6,2.417-2.143,1.183-4.716-.9-6.33S2042.352,1106.954,2042.352,1106.954Z" transform="translate(-1265.541 2040.299)" fill="#ffb27d"/>
    <path id="Path_6703" data-name="Path 6703" d="M2017.264,949.53s-7.678,1.419-13.814,10.419-10.173,15.691-9.054,18.942,11.364,14.539,13.134,14.543,4.63-1.278,4.8-4.174c0,0-7.207-10.852-5.779-12.471.61-.692,9.4-7.8,10.65-4.578C2019.262,977.54,2017.264,949.53,2017.264,949.53Z" transform="translate(-1231.563 2155.959)" fill="#cbcbcb"/>
    <path id="Path_6704" data-name="Path 6704" d="M2079.009,909.505c-1.649,2.781-7.779,5.175-10.336,6.054.029-.143.059-.286.086-.426.417-2.066.777-3.84.777-3.84l7.492-3.286C2078.683,907.988,2079.69,908.36,2079.009,909.505Z" transform="translate(-1286.697 2186.705)" fill="#fca56b"/>
    <path id="Path_6705" data-name="Path 6705" d="M2056.865,862.322s12.049,3.787,14.292-3.752,5.309-12.129-2.289-14.865-9.955-.307-11.316,2.028S2053.789,861.143,2056.865,862.322Z" transform="translate(-1276.846 2235.214)" fill="#ffb27d"/>
    <path id="Path_6706" data-name="Path 6706" d="M2062.394,833.259s.75,8.781,2.567,8.4,3.463-.656,3.192,1.99-2.8,5.7,2.8,6.176,13.669-13.932,12.138-16.668C2078.671,825.268,2056,823.628,2062.394,833.259Z" transform="translate(-1281.214 2246.962)" fill="#163560"/>
    <g id="Group_4379" data-name="Group 4379" transform="translate(503.743 2939.559)">
      <g id="Group_4374" data-name="Group 4374" transform="translate(27.004)" opacity="0.5">
        <path id="Path_6707" data-name="Path 6707" d="M1100.761,595.746v-2.139h2.2v2.139Z" transform="translate(-1100.761 -520.059)" fill="#afcdfb"/>
        <path id="Path_6708" data-name="Path 6708" d="M1100.761,579.077v-2.139h2.2v2.139Z" transform="translate(-1100.761 -507.717)" fill="#afcdfb"/>
        <path id="Path_6709" data-name="Path 6709" d="M1100.761,562.409V560.27h2.2v2.139Z" transform="translate(-1100.761 -495.375)" fill="#afcdfb"/>
        <path id="Path_6710" data-name="Path 6710" d="M1100.761,545.741V543.6h2.2v2.139Z" transform="translate(-1100.761 -483.033)" fill="#afcdfb"/>
        <path id="Path_6711" data-name="Path 6711" d="M1100.761,529.073v-2.139h2.2v2.139Z" transform="translate(-1100.761 -470.692)" fill="#afcdfb"/>
        <path id="Path_6712" data-name="Path 6712" d="M1100.761,512.405v-2.139h2.2v2.139Z" transform="translate(-1100.761 -458.35)" fill="#afcdfb"/>
        <path id="Path_6713" data-name="Path 6713" d="M1100.761,495.737V493.6h2.2v2.14Z" transform="translate(-1100.761 -446.007)" fill="#afcdfb"/>
        <path id="Path_6714" data-name="Path 6714" d="M1100.761,479.068v-2.139h2.2v2.139Z" transform="translate(-1100.761 -433.666)" fill="#afcdfb"/>
        <path id="Path_6715" data-name="Path 6715" d="M1100.761,462.4v-2.139h2.2V462.4Z" transform="translate(-1100.761 -421.324)" fill="#afcdfb"/>
        <path id="Path_6716" data-name="Path 6716" d="M1100.761,445.732v-2.139h2.2v2.139Z" transform="translate(-1100.761 -408.982)" fill="#afcdfb"/>
        <path id="Path_6717" data-name="Path 6717" d="M1100.761,429.064v-2.139h2.2v2.139Z" transform="translate(-1100.761 -396.641)" fill="#afcdfb"/>
        <path id="Path_6718" data-name="Path 6718" d="M1100.761,412.4v-2.139h2.2V412.4Z" transform="translate(-1100.761 -384.299)" fill="#afcdfb"/>
        <path id="Path_6719" data-name="Path 6719" d="M1100.761,395.728v-2.139h2.2v2.139Z" transform="translate(-1100.761 -371.957)" fill="#afcdfb"/>
        <path id="Path_6720" data-name="Path 6720" d="M1100.761,379.06v-2.14h2.2v2.14Z" transform="translate(-1100.761 -359.615)" fill="#afcdfb"/>
        <path id="Path_6721" data-name="Path 6721" d="M1100.761,362.392v-2.14h2.2v2.14Z" transform="translate(-1100.761 -347.273)" fill="#afcdfb"/>
        <path id="Path_6722" data-name="Path 6722" d="M1100.761,345.724v-2.14h2.2v2.14Z" transform="translate(-1100.761 -334.931)" fill="#afcdfb"/>
        <path id="Path_6723" data-name="Path 6723" d="M1100.761,329.055v-2.139h2.2v2.139Z" transform="translate(-1100.761 -322.59)" fill="#afcdfb"/>
        <path id="Path_6724" data-name="Path 6724" d="M1100.761,312.387v-2.139h2.2v2.139Z" transform="translate(-1100.761 -310.248)" fill="#afcdfb"/>
      </g>
      <g id="Group_4375" data-name="Group 4375" transform="translate(20.268)" opacity="0.5">
        <path id="Path_6725" data-name="Path 6725" d="M1074.807,495.737V493.6h2.2v2.14Z" transform="translate(-1074.807 -446.007)" fill="#afcdfb"/>
        <path id="Path_6726" data-name="Path 6726" d="M1074.807,479.068v-2.139h2.2v2.139Z" transform="translate(-1074.807 -433.666)" fill="#afcdfb"/>
        <path id="Path_6727" data-name="Path 6727" d="M1074.807,462.4v-2.139h2.2V462.4Z" transform="translate(-1074.807 -421.324)" fill="#afcdfb"/>
        <path id="Path_6728" data-name="Path 6728" d="M1074.807,445.732v-2.139h2.2v2.139Z" transform="translate(-1074.807 -408.982)" fill="#afcdfb"/>
        <path id="Path_6729" data-name="Path 6729" d="M1074.807,429.064v-2.139h2.2v2.139Z" transform="translate(-1074.807 -396.641)" fill="#afcdfb"/>
        <path id="Path_6730" data-name="Path 6730" d="M1074.807,412.4v-2.139h2.2V412.4Z" transform="translate(-1074.807 -384.299)" fill="#afcdfb"/>
        <path id="Path_6731" data-name="Path 6731" d="M1074.807,395.728v-2.139h2.2v2.139Z" transform="translate(-1074.807 -371.957)" fill="#afcdfb"/>
        <path id="Path_6732" data-name="Path 6732" d="M1074.807,379.06v-2.14h2.2v2.14Z" transform="translate(-1074.807 -359.615)" fill="#afcdfb"/>
        <path id="Path_6733" data-name="Path 6733" d="M1074.807,362.392v-2.14h2.2v2.14Z" transform="translate(-1074.807 -347.273)" fill="#afcdfb"/>
        <path id="Path_6734" data-name="Path 6734" d="M1074.807,345.724v-2.14h2.2v2.14Z" transform="translate(-1074.807 -334.931)" fill="#afcdfb"/>
        <path id="Path_6735" data-name="Path 6735" d="M1074.807,329.055v-2.139h2.2v2.139Z" transform="translate(-1074.807 -322.59)" fill="#afcdfb"/>
        <path id="Path_6736" data-name="Path 6736" d="M1074.807,312.387v-2.139h2.2v2.139Z" transform="translate(-1074.807 -310.248)" fill="#afcdfb"/>
      </g>
      <g id="Group_4376" data-name="Group 4376" transform="translate(13.405)" opacity="0.5">
        <path id="Path_6737" data-name="Path 6737" d="M1048.366,595.746v-2.139h2.2v2.139Z" transform="translate(-1048.366 -520.059)" fill="#afcdfb"/>
        <path id="Path_6738" data-name="Path 6738" d="M1048.366,579.077v-2.139h2.2v2.139Z" transform="translate(-1048.366 -507.717)" fill="#afcdfb"/>
        <path id="Path_6739" data-name="Path 6739" d="M1048.366,562.409V560.27h2.2v2.139Z" transform="translate(-1048.366 -495.375)" fill="#afcdfb"/>
        <path id="Path_6740" data-name="Path 6740" d="M1048.366,545.741V543.6h2.2v2.139Z" transform="translate(-1048.366 -483.033)" fill="#afcdfb"/>
        <path id="Path_6741" data-name="Path 6741" d="M1048.366,529.073v-2.139h2.2v2.139Z" transform="translate(-1048.366 -470.692)" fill="#afcdfb"/>
        <path id="Path_6742" data-name="Path 6742" d="M1048.366,512.405v-2.139h2.2v2.139Z" transform="translate(-1048.366 -458.35)" fill="#afcdfb"/>
        <path id="Path_6743" data-name="Path 6743" d="M1048.366,495.737V493.6h2.2v2.14Z" transform="translate(-1048.366 -446.007)" fill="#afcdfb"/>
        <path id="Path_6744" data-name="Path 6744" d="M1048.366,479.068v-2.139h2.2v2.139Z" transform="translate(-1048.366 -433.666)" fill="#afcdfb"/>
        <path id="Path_6745" data-name="Path 6745" d="M1048.366,462.4v-2.139h2.2V462.4Z" transform="translate(-1048.366 -421.324)" fill="#afcdfb"/>
        <path id="Path_6746" data-name="Path 6746" d="M1048.366,445.732v-2.139h2.2v2.139Z" transform="translate(-1048.366 -408.982)" fill="#afcdfb"/>
        <path id="Path_6747" data-name="Path 6747" d="M1048.366,429.064v-2.139h2.2v2.139Z" transform="translate(-1048.366 -396.641)" fill="#afcdfb"/>
        <path id="Path_6748" data-name="Path 6748" d="M1048.366,412.4v-2.139h2.2V412.4Z" transform="translate(-1048.366 -384.299)" fill="#afcdfb"/>
        <path id="Path_6749" data-name="Path 6749" d="M1048.366,395.728v-2.139h2.2v2.139Z" transform="translate(-1048.366 -371.957)" fill="#afcdfb"/>
        <path id="Path_6750" data-name="Path 6750" d="M1048.366,379.06v-2.14h2.2v2.14Z" transform="translate(-1048.366 -359.615)" fill="#afcdfb"/>
        <path id="Path_6751" data-name="Path 6751" d="M1048.366,362.392v-2.14h2.2v2.14Z" transform="translate(-1048.366 -347.273)" fill="#afcdfb"/>
        <path id="Path_6752" data-name="Path 6752" d="M1048.366,345.724v-2.14h2.2v2.14Z" transform="translate(-1048.366 -334.931)" fill="#afcdfb"/>
        <path id="Path_6753" data-name="Path 6753" d="M1048.366,329.055v-2.139h2.2v2.139Z" transform="translate(-1048.366 -322.59)" fill="#afcdfb"/>
        <path id="Path_6754" data-name="Path 6754" d="M1048.366,312.387v-2.139h2.2v2.139Z" transform="translate(-1048.366 -310.248)" fill="#afcdfb"/>
      </g>
      <g id="Group_4377" data-name="Group 4377" transform="translate(7.626)" opacity="0.5">
        <path id="Path_6755" data-name="Path 6755" d="M1026.1,629.082v-2.14h2.2v2.14Z" transform="translate(-1026.101 -544.742)" fill="#afcdfb"/>
        <path id="Path_6756" data-name="Path 6756" d="M1026.1,612.414v-2.14h2.2v2.14Z" transform="translate(-1026.101 -532.4)" fill="#afcdfb"/>
        <path id="Path_6757" data-name="Path 6757" d="M1026.1,595.746v-2.139h2.2v2.139Z" transform="translate(-1026.101 -520.059)" fill="#afcdfb"/>
        <path id="Path_6758" data-name="Path 6758" d="M1026.1,579.077v-2.139h2.2v2.139Z" transform="translate(-1026.101 -507.717)" fill="#afcdfb"/>
        <path id="Path_6759" data-name="Path 6759" d="M1026.1,562.409V560.27h2.2v2.139Z" transform="translate(-1026.101 -495.375)" fill="#afcdfb"/>
        <path id="Path_6760" data-name="Path 6760" d="M1026.1,545.741V543.6h2.2v2.139Z" transform="translate(-1026.101 -483.033)" fill="#afcdfb"/>
        <path id="Path_6761" data-name="Path 6761" d="M1026.1,529.073v-2.139h2.2v2.139Z" transform="translate(-1026.101 -470.692)" fill="#afcdfb"/>
        <path id="Path_6762" data-name="Path 6762" d="M1026.1,512.405v-2.139h2.2v2.139Z" transform="translate(-1026.101 -458.35)" fill="#afcdfb"/>
        <path id="Path_6763" data-name="Path 6763" d="M1026.1,495.737V493.6h2.2v2.14Z" transform="translate(-1026.101 -446.007)" fill="#afcdfb"/>
        <path id="Path_6764" data-name="Path 6764" d="M1026.1,479.068v-2.139h2.2v2.139Z" transform="translate(-1026.101 -433.666)" fill="#afcdfb"/>
        <path id="Path_6765" data-name="Path 6765" d="M1026.1,462.4v-2.139h2.2V462.4Z" transform="translate(-1026.101 -421.324)" fill="#afcdfb"/>
        <path id="Path_6766" data-name="Path 6766" d="M1026.1,445.732v-2.139h2.2v2.139Z" transform="translate(-1026.101 -408.982)" fill="#afcdfb"/>
        <path id="Path_6767" data-name="Path 6767" d="M1026.1,429.064v-2.139h2.2v2.139Z" transform="translate(-1026.101 -396.641)" fill="#afcdfb"/>
        <path id="Path_6768" data-name="Path 6768" d="M1026.1,412.4v-2.139h2.2V412.4Z" transform="translate(-1026.101 -384.299)" fill="#afcdfb"/>
        <path id="Path_6769" data-name="Path 6769" d="M1026.1,395.728v-2.139h2.2v2.139Z" transform="translate(-1026.101 -371.957)" fill="#afcdfb"/>
        <path id="Path_6770" data-name="Path 6770" d="M1026.1,379.06v-2.14h2.2v2.14Z" transform="translate(-1026.101 -359.615)" fill="#afcdfb"/>
        <path id="Path_6771" data-name="Path 6771" d="M1026.1,362.392v-2.14h2.2v2.14Z" transform="translate(-1026.101 -347.273)" fill="#afcdfb"/>
        <path id="Path_6772" data-name="Path 6772" d="M1026.1,345.724v-2.14h2.2v2.14Z" transform="translate(-1026.101 -334.931)" fill="#afcdfb"/>
        <path id="Path_6773" data-name="Path 6773" d="M1026.1,329.055v-2.139h2.2v2.139Z" transform="translate(-1026.101 -322.59)" fill="#afcdfb"/>
        <path id="Path_6774" data-name="Path 6774" d="M1026.1,312.387v-2.139h2.2v2.139Z" transform="translate(-1026.101 -310.248)" fill="#afcdfb"/>
      </g>
      <g id="Group_4378" data-name="Group 4378" opacity="0.5">
        <path id="Path_6775" data-name="Path 6775" d="M996.722,479.068v-2.139h2.2v2.139Z" transform="translate(-996.722 -433.666)" fill="#afcdfb"/>
        <path id="Path_6776" data-name="Path 6776" d="M996.722,462.4v-2.139h2.2V462.4Z" transform="translate(-996.722 -421.324)" fill="#afcdfb"/>
        <path id="Path_6777" data-name="Path 6777" d="M996.722,445.732v-2.139h2.2v2.139Z" transform="translate(-996.722 -408.982)" fill="#afcdfb"/>
        <path id="Path_6778" data-name="Path 6778" d="M996.722,429.064v-2.139h2.2v2.139Z" transform="translate(-996.722 -396.641)" fill="#afcdfb"/>
        <path id="Path_6779" data-name="Path 6779" d="M996.722,412.4v-2.139h2.2V412.4Z" transform="translate(-996.722 -384.299)" fill="#afcdfb"/>
        <path id="Path_6780" data-name="Path 6780" d="M996.722,395.728v-2.139h2.2v2.139Z" transform="translate(-996.722 -371.957)" fill="#afcdfb"/>
        <path id="Path_6781" data-name="Path 6781" d="M996.722,379.06v-2.14h2.2v2.14Z" transform="translate(-996.722 -359.615)" fill="#afcdfb"/>
        <path id="Path_6782" data-name="Path 6782" d="M996.722,362.392v-2.14h2.2v2.14Z" transform="translate(-996.722 -347.273)" fill="#afcdfb"/>
        <path id="Path_6783" data-name="Path 6783" d="M996.722,345.724v-2.14h2.2v2.14Z" transform="translate(-996.722 -334.931)" fill="#afcdfb"/>
        <path id="Path_6784" data-name="Path 6784" d="M996.722,329.055v-2.139h2.2v2.139Z" transform="translate(-996.722 -322.59)" fill="#afcdfb"/>
        <path id="Path_6785" data-name="Path 6785" d="M996.722,312.387v-2.139h2.2v2.139Z" transform="translate(-996.722 -310.248)" fill="#afcdfb"/>
      </g>
    </g>
    <g id="Group_4385" data-name="Group 4385" transform="translate(834.095 3086.72)">
      <g id="Group_4380" data-name="Group 4380" transform="translate(0 8.653)" opacity="0.5">
        <path id="Path_6786" data-name="Path 6786" d="M2271.677,910.554v2.139h-2.2v-2.139Z" transform="translate(-2269.473 -910.554)" fill="#afcdfb"/>
        <path id="Path_6787" data-name="Path 6787" d="M2271.677,927.222v2.139h-2.2v-2.139Z" transform="translate(-2269.473 -922.896)" fill="#afcdfb"/>
        <path id="Path_6788" data-name="Path 6788" d="M2271.677,943.891v2.139h-2.2v-2.139Z" transform="translate(-2269.473 -935.238)" fill="#afcdfb"/>
        <path id="Path_6789" data-name="Path 6789" d="M2271.677,960.559V962.7h-2.2v-2.139Z" transform="translate(-2269.473 -947.58)" fill="#afcdfb"/>
        <path id="Path_6790" data-name="Path 6790" d="M2271.677,977.227v2.139h-2.2v-2.139Z" transform="translate(-2269.473 -959.922)" fill="#afcdfb"/>
        <path id="Path_6791" data-name="Path 6791" d="M2271.677,993.9v2.139h-2.2V993.9Z" transform="translate(-2269.473 -972.263)" fill="#afcdfb"/>
        <path id="Path_6792" data-name="Path 6792" d="M2271.677,1010.563v2.139h-2.2v-2.139Z" transform="translate(-2269.473 -984.605)" fill="#afcdfb"/>
        <path id="Path_6793" data-name="Path 6793" d="M2271.677,1027.231v2.14h-2.2v-2.14Z" transform="translate(-2269.473 -996.947)" fill="#afcdfb"/>
        <path id="Path_6794" data-name="Path 6794" d="M2271.677,1043.9v2.14h-2.2v-2.14Z" transform="translate(-2269.473 -1009.288)" fill="#afcdfb"/>
        <path id="Path_6795" data-name="Path 6795" d="M2271.677,1060.567v2.139h-2.2v-2.139Z" transform="translate(-2269.473 -1021.63)" fill="#afcdfb"/>
        <path id="Path_6796" data-name="Path 6796" d="M2271.677,1077.235v2.14h-2.2v-2.14Z" transform="translate(-2269.473 -1033.972)" fill="#afcdfb"/>
        <path id="Path_6797" data-name="Path 6797" d="M2271.677,1093.9v2.139h-2.2V1093.9Z" transform="translate(-2269.473 -1046.314)" fill="#afcdfb"/>
        <path id="Path_6798" data-name="Path 6798" d="M2271.677,1110.571v2.139h-2.2v-2.139Z" transform="translate(-2269.473 -1058.655)" fill="#afcdfb"/>
        <path id="Path_6799" data-name="Path 6799" d="M2271.677,1127.24v2.139h-2.2v-2.139Z" transform="translate(-2269.473 -1070.998)" fill="#afcdfb"/>
        <path id="Path_6800" data-name="Path 6800" d="M2271.677,1143.908v2.139h-2.2v-2.139Z" transform="translate(-2269.473 -1083.339)" fill="#afcdfb"/>
        <path id="Path_6801" data-name="Path 6801" d="M2271.677,1160.576v2.139h-2.2v-2.139Z" transform="translate(-2269.473 -1095.681)" fill="#afcdfb"/>
        <path id="Path_6802" data-name="Path 6802" d="M2271.677,1177.244v2.139h-2.2v-2.139Z" transform="translate(-2269.473 -1108.023)" fill="#afcdfb"/>
        <path id="Path_6803" data-name="Path 6803" d="M2271.677,1193.912v2.139h-2.2v-2.139Z" transform="translate(-2269.473 -1120.365)" fill="#afcdfb"/>
      </g>
      <g id="Group_4381" data-name="Group 4381" transform="translate(6.736 34.611)" opacity="0.5">
        <path id="Path_6804" data-name="Path 6804" d="M2297.63,1010.563v2.139h-2.2v-2.139Z" transform="translate(-2295.426 -1010.563)" fill="#afcdfb"/>
        <path id="Path_6805" data-name="Path 6805" d="M2297.63,1027.231v2.14h-2.2v-2.14Z" transform="translate(-2295.426 -1022.905)" fill="#afcdfb"/>
        <path id="Path_6806" data-name="Path 6806" d="M2297.63,1043.9v2.14h-2.2v-2.14Z" transform="translate(-2295.426 -1035.246)" fill="#afcdfb"/>
        <path id="Path_6807" data-name="Path 6807" d="M2297.63,1060.567v2.139h-2.2v-2.139Z" transform="translate(-2295.426 -1047.588)" fill="#afcdfb"/>
        <path id="Path_6808" data-name="Path 6808" d="M2297.63,1077.235v2.14h-2.2v-2.14Z" transform="translate(-2295.426 -1059.93)" fill="#afcdfb"/>
        <path id="Path_6809" data-name="Path 6809" d="M2297.63,1093.9v2.139h-2.2V1093.9Z" transform="translate(-2295.426 -1072.272)" fill="#afcdfb"/>
        <path id="Path_6810" data-name="Path 6810" d="M2297.63,1110.571v2.139h-2.2v-2.139Z" transform="translate(-2295.426 -1084.613)" fill="#afcdfb"/>
        <path id="Path_6811" data-name="Path 6811" d="M2297.63,1127.24v2.139h-2.2v-2.139Z" transform="translate(-2295.426 -1096.956)" fill="#afcdfb"/>
        <path id="Path_6812" data-name="Path 6812" d="M2297.63,1143.908v2.139h-2.2v-2.139Z" transform="translate(-2295.426 -1109.297)" fill="#afcdfb"/>
        <path id="Path_6813" data-name="Path 6813" d="M2297.63,1160.576v2.139h-2.2v-2.139Z" transform="translate(-2295.426 -1121.639)" fill="#afcdfb"/>
        <path id="Path_6814" data-name="Path 6814" d="M2297.63,1177.244v2.139h-2.2v-2.139Z" transform="translate(-2295.426 -1133.981)" fill="#afcdfb"/>
        <path id="Path_6815" data-name="Path 6815" d="M2297.63,1193.912v2.139h-2.2v-2.139Z" transform="translate(-2295.426 -1146.323)" fill="#afcdfb"/>
      </g>
      <g id="Group_4382" data-name="Group 4382" transform="translate(13.599 8.653)" opacity="0.5">
        <path id="Path_6816" data-name="Path 6816" d="M2324.07,910.554v2.139h-2.2v-2.139Z" transform="translate(-2321.867 -910.554)" fill="#afcdfb"/>
        <path id="Path_6817" data-name="Path 6817" d="M2324.07,927.222v2.139h-2.2v-2.139Z" transform="translate(-2321.867 -922.896)" fill="#afcdfb"/>
        <path id="Path_6818" data-name="Path 6818" d="M2324.07,943.891v2.139h-2.2v-2.139Z" transform="translate(-2321.867 -935.238)" fill="#afcdfb"/>
        <path id="Path_6819" data-name="Path 6819" d="M2324.07,960.559V962.7h-2.2v-2.139Z" transform="translate(-2321.867 -947.58)" fill="#afcdfb"/>
        <path id="Path_6820" data-name="Path 6820" d="M2324.07,977.227v2.139h-2.2v-2.139Z" transform="translate(-2321.867 -959.922)" fill="#afcdfb"/>
        <path id="Path_6821" data-name="Path 6821" d="M2324.07,993.9v2.139h-2.2V993.9Z" transform="translate(-2321.867 -972.263)" fill="#afcdfb"/>
        <path id="Path_6822" data-name="Path 6822" d="M2324.07,1010.563v2.139h-2.2v-2.139Z" transform="translate(-2321.867 -984.605)" fill="#afcdfb"/>
        <path id="Path_6823" data-name="Path 6823" d="M2324.07,1027.231v2.14h-2.2v-2.14Z" transform="translate(-2321.867 -996.947)" fill="#afcdfb"/>
        <path id="Path_6824" data-name="Path 6824" d="M2324.07,1043.9v2.14h-2.2v-2.14Z" transform="translate(-2321.867 -1009.288)" fill="#afcdfb"/>
        <path id="Path_6825" data-name="Path 6825" d="M2324.07,1060.567v2.139h-2.2v-2.139Z" transform="translate(-2321.867 -1021.63)" fill="#afcdfb"/>
        <path id="Path_6826" data-name="Path 6826" d="M2324.07,1077.235v2.14h-2.2v-2.14Z" transform="translate(-2321.867 -1033.972)" fill="#afcdfb"/>
        <path id="Path_6827" data-name="Path 6827" d="M2324.07,1093.9v2.139h-2.2V1093.9Z" transform="translate(-2321.867 -1046.314)" fill="#afcdfb"/>
        <path id="Path_6828" data-name="Path 6828" d="M2324.07,1110.571v2.139h-2.2v-2.139Z" transform="translate(-2321.867 -1058.655)" fill="#afcdfb"/>
        <path id="Path_6829" data-name="Path 6829" d="M2324.07,1127.24v2.139h-2.2v-2.139Z" transform="translate(-2321.867 -1070.998)" fill="#afcdfb"/>
        <path id="Path_6830" data-name="Path 6830" d="M2324.07,1143.908v2.139h-2.2v-2.139Z" transform="translate(-2321.867 -1083.339)" fill="#afcdfb"/>
        <path id="Path_6831" data-name="Path 6831" d="M2324.07,1160.576v2.139h-2.2v-2.139Z" transform="translate(-2321.867 -1095.681)" fill="#afcdfb"/>
        <path id="Path_6832" data-name="Path 6832" d="M2324.07,1177.244v2.139h-2.2v-2.139Z" transform="translate(-2321.867 -1108.023)" fill="#afcdfb"/>
        <path id="Path_6833" data-name="Path 6833" d="M2324.07,1193.912v2.139h-2.2v-2.139Z" transform="translate(-2321.867 -1120.365)" fill="#afcdfb"/>
      </g>
      <g id="Group_4383" data-name="Group 4383" transform="translate(19.379)" opacity="0.5">
        <path id="Path_6834" data-name="Path 6834" d="M2346.336,877.218v2.139h-2.2v-2.139Z" transform="translate(-2344.133 -877.218)" fill="#afcdfb"/>
        <path id="Path_6835" data-name="Path 6835" d="M2346.336,893.886v2.139h-2.2v-2.139Z" transform="translate(-2344.133 -889.56)" fill="#afcdfb"/>
        <path id="Path_6836" data-name="Path 6836" d="M2346.336,910.554v2.139h-2.2v-2.139Z" transform="translate(-2344.133 -901.901)" fill="#afcdfb"/>
        <path id="Path_6837" data-name="Path 6837" d="M2346.336,927.222v2.139h-2.2v-2.139Z" transform="translate(-2344.133 -914.243)" fill="#afcdfb"/>
        <path id="Path_6838" data-name="Path 6838" d="M2346.336,943.891v2.139h-2.2v-2.139Z" transform="translate(-2344.133 -926.586)" fill="#afcdfb"/>
        <path id="Path_6839" data-name="Path 6839" d="M2346.336,960.559V962.7h-2.2v-2.139Z" transform="translate(-2344.133 -938.927)" fill="#afcdfb"/>
        <path id="Path_6840" data-name="Path 6840" d="M2346.336,977.227v2.139h-2.2v-2.139Z" transform="translate(-2344.133 -951.269)" fill="#afcdfb"/>
        <path id="Path_6841" data-name="Path 6841" d="M2346.336,993.9v2.139h-2.2V993.9Z" transform="translate(-2344.133 -963.611)" fill="#afcdfb"/>
        <path id="Path_6842" data-name="Path 6842" d="M2346.336,1010.563v2.139h-2.2v-2.139Z" transform="translate(-2344.133 -975.952)" fill="#afcdfb"/>
        <path id="Path_6843" data-name="Path 6843" d="M2346.336,1027.231v2.14h-2.2v-2.14Z" transform="translate(-2344.133 -988.294)" fill="#afcdfb"/>
        <path id="Path_6844" data-name="Path 6844" d="M2346.336,1043.9v2.14h-2.2v-2.14Z" transform="translate(-2344.133 -1000.636)" fill="#afcdfb"/>
        <path id="Path_6845" data-name="Path 6845" d="M2346.336,1060.567v2.139h-2.2v-2.139Z" transform="translate(-2344.133 -1012.978)" fill="#afcdfb"/>
        <path id="Path_6846" data-name="Path 6846" d="M2346.336,1077.235v2.14h-2.2v-2.14Z" transform="translate(-2344.133 -1025.319)" fill="#afcdfb"/>
        <path id="Path_6847" data-name="Path 6847" d="M2346.336,1093.9v2.139h-2.2V1093.9Z" transform="translate(-2344.133 -1037.661)" fill="#afcdfb"/>
        <path id="Path_6848" data-name="Path 6848" d="M2346.336,1110.571v2.139h-2.2v-2.139Z" transform="translate(-2344.133 -1050.003)" fill="#afcdfb"/>
        <path id="Path_6849" data-name="Path 6849" d="M2346.336,1127.24v2.139h-2.2v-2.139Z" transform="translate(-2344.133 -1062.345)" fill="#afcdfb"/>
        <path id="Path_6850" data-name="Path 6850" d="M2346.336,1143.908v2.139h-2.2v-2.139Z" transform="translate(-2344.133 -1074.687)" fill="#afcdfb"/>
        <path id="Path_6851" data-name="Path 6851" d="M2346.336,1160.576v2.139h-2.2v-2.139Z" transform="translate(-2344.133 -1087.028)" fill="#afcdfb"/>
        <path id="Path_6852" data-name="Path 6852" d="M2346.336,1177.244v2.139h-2.2v-2.139Z" transform="translate(-2344.133 -1099.37)" fill="#afcdfb"/>
        <path id="Path_6853" data-name="Path 6853" d="M2346.336,1193.912v2.139h-2.2v-2.139Z" transform="translate(-2344.133 -1111.712)" fill="#afcdfb"/>
      </g>
      <g id="Group_4384" data-name="Group 4384" transform="translate(27.004 38.937)" opacity="0.5">
        <path id="Path_6854" data-name="Path 6854" d="M2375.715,1027.231v2.14h-2.2v-2.14Z" transform="translate(-2373.512 -1027.231)" fill="#afcdfb"/>
        <path id="Path_6855" data-name="Path 6855" d="M2375.715,1043.9v2.14h-2.2v-2.14Z" transform="translate(-2373.512 -1039.573)" fill="#afcdfb"/>
        <path id="Path_6856" data-name="Path 6856" d="M2375.715,1060.567v2.139h-2.2v-2.139Z" transform="translate(-2373.512 -1051.915)" fill="#afcdfb"/>
        <path id="Path_6857" data-name="Path 6857" d="M2375.715,1077.235v2.14h-2.2v-2.14Z" transform="translate(-2373.512 -1064.256)" fill="#afcdfb"/>
        <path id="Path_6858" data-name="Path 6858" d="M2375.715,1093.9v2.139h-2.2V1093.9Z" transform="translate(-2373.512 -1076.598)" fill="#afcdfb"/>
        <path id="Path_6859" data-name="Path 6859" d="M2375.715,1110.571v2.139h-2.2v-2.139Z" transform="translate(-2373.512 -1088.94)" fill="#afcdfb"/>
        <path id="Path_6860" data-name="Path 6860" d="M2375.715,1127.24v2.139h-2.2v-2.139Z" transform="translate(-2373.512 -1101.282)" fill="#afcdfb"/>
        <path id="Path_6861" data-name="Path 6861" d="M2375.715,1143.908v2.139h-2.2v-2.139Z" transform="translate(-2373.512 -1113.624)" fill="#afcdfb"/>
        <path id="Path_6862" data-name="Path 6862" d="M2375.715,1160.576v2.139h-2.2v-2.139Z" transform="translate(-2373.512 -1125.965)" fill="#afcdfb"/>
        <path id="Path_6863" data-name="Path 6863" d="M2375.715,1177.244v2.139h-2.2v-2.139Z" transform="translate(-2373.512 -1138.307)" fill="#afcdfb"/>
        <path id="Path_6864" data-name="Path 6864" d="M2375.715,1193.912v2.139h-2.2v-2.139Z" transform="translate(-2373.512 -1150.649)" fill="#afcdfb"/>
      </g>
    </g>
  </g>
</svg>
