<svg xmlns="http://www.w3.org/2000/svg" width="136.78" height="135.214" viewBox="0 0 136.78 135.214">
  <g id="Group_2907" data-name="Group 2907" transform="translate(-674.045 -6426)">
    <path id="Path_2316" data-name="Path 2316" d="M5836.019,5855.954s-3.266-41.312,43.063-42.442,50.85,21.47,50.85,21.47,23.729,67.8-50.85,76.274c-19.316,2.2-30.711-8-37.144-24.722A85.3,85.3,0,0,1,5836.019,5855.954Z" transform="translate(-5161.924 649.663)" fill="#ffbbac"/>
    <g id="promotion" transform="translate(691 6426)">
      <path id="Path_2318" data-name="Path 2318" d="M125.474,293.942a2.34,2.34,0,1,0-3.2-.857A2.341,2.341,0,0,0,125.474,293.942Zm0,0" transform="translate(-93.42 -221.805)" fill="#464646"/>
      <path id="Path_2319" data-name="Path 2319" d="M22.463,105.414l11.786,20.415a9.361,9.361,0,1,0,16.214-9.36l-7.021-12.162,6.08-3.51a2.341,2.341,0,0,0,.857-3.2l-3.043-5.271,44.826-8.793a7.02,7.02,0,0,0,5.691-10.52L90.075,59.543l4.97-7.528a2.341,2.341,0,0,0,.074-2.46l-4.681-8.107a2.345,2.345,0,0,0-2.168-1.166l-9,.54L70.633,25.866a6.96,6.96,0,0,0-5.993-3.51h-.09a6.959,6.959,0,0,0-5.911,3.237L28.067,64.539,8.192,76.014a16.382,16.382,0,0,0,14.271,29.4Zm23.947,13.4a4.681,4.681,0,0,1-8.108,4.68l-11.7-20.27,8.107-4.681c13.543,23.46,11.485,19.9,11.7,20.271ZM41.1,100.251,38.762,96.2l4.054-2.34,2.34,4.054ZM87.109,45.04l3.234,5.6-2.884,4.368-5.575-9.657ZM62.554,28.159a2.34,2.34,0,0,1,4.024.047L93.8,75.355a2.34,2.34,0,0,1-1.969,3.509,8.592,8.592,0,0,0-1.284.218L61.753,29.208c.6-.777.682-.852.8-1.049Zm-3.916,5.016L85.692,80.034l-40.83,8.008-12.415-21.5ZM6.249,96.052a11.694,11.694,0,0,1,4.283-15.985L28.773,69.536,40.475,89.8,22.234,100.336A11.716,11.716,0,0,1,6.249,96.052Zm0,0" transform="translate(0 -17.123)" fill="#464646"/>
      <path id="Path_2320" data-name="Path 2320" d="M57.5,310.743a2.341,2.341,0,0,0-3.2-.857l-4.054,2.34a2.343,2.343,0,0,1-3.2-.857A2.34,2.34,0,1,0,43,313.711a7.03,7.03,0,0,0,9.591,2.57l4.054-2.34a2.34,2.34,0,0,0,.857-3.2Zm0,0" transform="translate(-32.693 -237.122)" fill="#464646"/>
      <path id="Path_2321" data-name="Path 2321" d="M450.519,42.777l-13.041,7.257a2.34,2.34,0,0,0,2.276,4.09l13.04-7.257a2.34,2.34,0,0,0-2.275-4.09Zm0,0" transform="translate(-334.172 -32.539)" fill="#464646"/>
      <path id="Path_2322" data-name="Path 2322" d="M452.053,139.124,443.01,136.7a2.34,2.34,0,1,0-1.211,4.521l9.043,2.423a2.34,2.34,0,1,0,1.21-4.521Zm0,0" transform="translate(-337.074 -104.647)" fill="#464646"/>
      <path id="Path_2323" data-name="Path 2323" d="M386,1.735l-2.425,9.043a2.341,2.341,0,0,0,4.522,1.212l2.424-9.043A2.34,2.34,0,1,0,386,1.735Zm0,0" transform="translate(-293.742 0)" fill="#464646"/>
    </g>
  </g>
</svg>
