<svg xmlns="http://www.w3.org/2000/svg" width="101.317" height="129.579" viewBox="0 0 101.317 129.579"><g transform="translate(0 0.001)"><path d="M99.4,57.109a1.918,1.918,0,0,0,1.917-1.918V25.114a4.415,4.415,0,0,0-4.41-4.409h-7.52V14.763a4.412,4.412,0,0,0-4.41-4.41H77.209V4.41A4.416,4.416,0,0,0,72.8,0H19.872a1.917,1.917,0,1,0,0,3.835H72.8a.577.577,0,0,1,.575.575V104.464a.576.576,0,0,1-.575.574H4.41a.576.576,0,0,1-.575-.574V4.41a.576.576,0,0,1,.575-.575H12.2A1.917,1.917,0,0,0,12.2,0H4.41A4.416,4.416,0,0,0,0,4.41V104.464a4.415,4.415,0,0,0,4.41,4.409h7.769v5.942a4.411,4.411,0,0,0,4.407,4.41h7.521v5.944a4.415,4.415,0,0,0,4.409,4.41H96.906a4.416,4.416,0,0,0,4.41-4.41V62.861a1.917,1.917,0,0,0-3.835,0v62.307a.576.576,0,0,1-.575.575H28.517a.576.576,0,0,1-.574-.575v-5.944H84.976a4.412,4.412,0,0,0,4.41-4.41V88.3a1.917,1.917,0,0,0-3.835,0v26.516a.575.575,0,0,1-.575.575H16.587a.574.574,0,0,1-.573-.575v-5.942H72.8a4.415,4.415,0,0,0,4.41-4.409V14.188h7.767a.575.575,0,0,1,.575.575V80.629a1.917,1.917,0,0,0,3.835,0V24.54h7.52a.576.576,0,0,1,.575.574V55.191A1.917,1.917,0,0,0,99.4,57.109Zm0,0" fill="#bb85ff"/><path d="M131.429,43.072A10.818,10.818,0,1,0,120.611,53.89,10.831,10.831,0,0,0,131.429,43.072Zm-17.8,0a6.984,6.984,0,1,1,6.984,6.984A6.991,6.991,0,0,1,113.628,43.072Zm0,0" transform="translate(-82.006 -24.091)" fill="#bb85ff"/><path d="M223.724,71.257a1.917,1.917,0,1,0,0-3.835h-8.99a1.917,1.917,0,0,0,0,3.835Zm0,0" transform="translate(-158.956 -50.359)" fill="#bb85ff"/><path d="M52.494,67.422H43.5a1.917,1.917,0,1,0,0,3.835h8.99a1.917,1.917,0,0,0,0-3.835Zm0,0" transform="translate(-31.061 -50.359)" fill="#bb85ff"/><path d="M59.1,141.246a1.917,1.917,0,0,0,1.917,1.917H104.48a1.917,1.917,0,0,0,0-3.835H61.019A1.917,1.917,0,0,0,59.1,141.246Zm0,0" transform="translate(-44.144 -104.067)" fill="#bb85ff"/><path d="M104.478,176.066H61.018a1.917,1.917,0,1,0,0,3.834h43.46a1.917,1.917,0,1,0,0-3.834Zm0,0" transform="translate(-44.144 -131.507)" fill="#bb85ff"/><path d="M104.478,212.8H61.018a1.917,1.917,0,0,0,0,3.835h43.46a1.917,1.917,0,1,0,0-3.835Zm0,0" transform="translate(-44.144 -158.945)" fill="#bb85ff"/><path d="M104.478,249.535H61.018a1.917,1.917,0,0,0,0,3.835h43.46a1.917,1.917,0,1,0,0-3.835Zm0,0" transform="translate(-44.144 -186.382)" fill="#bb85ff"/><path d="M104.478,286.273H61.018a1.917,1.917,0,0,0,0,3.835h43.46a1.917,1.917,0,1,0,0-3.835Zm0,0" transform="translate(-44.144 -213.822)" fill="#bb85ff"/><path d="M184.57,323.444a1.918,1.918,0,0,0-2.7.267l-9.153,11.162-4.243-4.158a1.917,1.917,0,1,0-2.684,2.738l4.751,4.657a3.183,3.183,0,0,0,4.689-.255l9.605-11.713a1.918,1.918,0,0,0-.267-2.7Zm0,0" transform="translate(-123.403 -241.262)" fill="#bb85ff"/></g></svg>