<svg xmlns="http://www.w3.org/2000/svg" width="142.018" height="142.018" viewBox="0 0 142.018 142.018"><g transform="translate(-1 -1)"><path d="M8,51H56.1v4.581H8Z" transform="translate(9.034 64.53)" fill="#bb85ff"/><path d="M142.347,94.441,115.906,68l1.915-1.915.671.671a2.289,2.289,0,0,0,3.239,0l6.872-6.872a2.288,2.288,0,0,0,0-3.239L112.569,40.612a2.288,2.288,0,0,0-3.239,0l-6.872,6.872a2.288,2.288,0,0,0,0,3.239l.671.671-5.924,5.924V3.291A2.291,2.291,0,0,0,94.915,1H3.291A2.291,2.291,0,0,0,1,3.291V117.821a11.466,11.466,0,0,0,11.453,11.453H65.137v-4.581H12.453a6.872,6.872,0,1,1,0-13.744H65.137v-4.581H23.906V5.581H92.624V61.9l-2.291,2.291-.671-.671a2.288,2.288,0,0,0-3.239,0l-6.872,6.872a2.288,2.288,0,0,0,0,3.239L95.586,89.663a2.289,2.289,0,0,0,3.239,0l6.872-6.872a2.288,2.288,0,0,0,0-3.239l-.671-.671,1.915-1.915,26.441,26.44a2.289,2.289,0,0,0,3.239,0l5.727-5.727A2.288,2.288,0,0,0,142.347,94.441ZM19.325,106.368H12.453a11.335,11.335,0,0,0-6.872,2.35V5.581H19.325Zm91.624-60.9,12.8,12.8L120.112,61.9l-12.8-12.8ZM97.206,84.8l-12.8-12.8,3.633-3.633,12.8,12.8ZM93.573,67.428l12.8-12.8,8.214,8.214-12.8,12.8ZM135,98.548,110.18,73.727l2.488-2.488L137.488,96.06Z" transform="translate(0 0)" fill="#bb85ff"/><path d="M68.94,62.162H66.65V55.291A2.29,2.29,0,0,0,64.359,53H36.872a2.29,2.29,0,0,0-2.291,2.291v6.872H32.291A2.29,2.29,0,0,0,30,64.453v9.162a2.29,2.29,0,0,0,2.291,2.291H68.94a2.29,2.29,0,0,0,2.291-2.291V64.453A2.29,2.29,0,0,0,68.94,62.162ZM39.162,57.581H62.069v4.581H39.162ZM66.65,71.325H34.581V66.744H66.65Z" transform="translate(37.428 67.112)" fill="#bb85ff"/><path d="M58.211,41.121a2.281,2.281,0,0,0-2.556.8l-5.039,6.716-5.039-6.718a2.29,2.29,0,0,0-4.123,1.374v8.659l-8.713-1.743a2.266,2.266,0,0,0-2.405,1.056,2.293,2.293,0,0,0,.167,2.623l9.162,11.453,3.578-2.863-5.234-6.542,5.287,1.058a2.29,2.29,0,0,0,2.74-2.247V50.164l2.749,3.665a2.372,2.372,0,0,0,3.665,0L55.2,50.164v4.581a2.29,2.29,0,0,0,2.74,2.245l5.287-1.058-5.234,6.542,3.578,2.863,9.162-11.453a2.292,2.292,0,0,0-2.238-3.679l-8.713,1.745V43.292a2.286,2.286,0,0,0-1.567-2.172Z" transform="translate(37.428 51.623)" fill="#bb85ff"/><path d="M41.4,55.393H36.819a9.172,9.172,0,0,0-9.162,9.162v2.291a2.291,2.291,0,0,0,2.291,2.291H57.434a2.291,2.291,0,0,0,2.291-2.291V64.556a9.172,9.172,0,0,0-9.162-9.162H45.981V27.906H56.018L50.805,38.335l.021.011a2.224,2.224,0,0,0-.263,1.012V41.65a9.162,9.162,0,1,0,18.325,0V39.359a2.241,2.241,0,0,0-.263-1.015l.021-.011L63.431,27.906h5.456a2.285,2.285,0,0,0,1.619-.671l4.581-4.581-3.239-3.239-3.91,3.91H45.981v-5a6.872,6.872,0,1,0-4.581,0v5H19.442l-3.91-3.91-3.239,3.239,4.581,4.581a2.285,2.285,0,0,0,1.619.671H23.95L18.736,38.335l.021.011a2.224,2.224,0,0,0-.263,1.012V41.65a9.162,9.162,0,0,0,18.325,0V39.359a2.241,2.241,0,0,0-.263-1.015l.021-.011L31.362,27.906H41.4Zm13.744,9.162H32.237a4.586,4.586,0,0,1,4.581-4.581H50.562A4.586,4.586,0,0,1,55.143,64.556Zm4.581-33.819,3.166,6.331H56.559Zm0,15.494a4.586,4.586,0,0,1-4.581-4.581h9.162A4.586,4.586,0,0,1,59.725,46.231ZM43.69,9.581A2.291,2.291,0,1,1,41.4,11.872,2.294,2.294,0,0,1,43.69,9.581ZM27.656,30.737l3.166,6.331H24.491Zm0,15.494a4.586,4.586,0,0,1-4.581-4.581h9.162A4.586,4.586,0,0,1,27.656,46.231Z" transform="translate(14.575 5.162)" fill="#bb85ff"/></g></svg>