<svg xmlns="http://www.w3.org/2000/svg" width="137.845" height="144.214" viewBox="0 0 137.845 144.214">
  <g id="Group_2901" data-name="Group 2901" transform="translate(-673.925 -5920)">
    <path id="Path_2312" data-name="Path 2312" d="M5836.019,5855.954s-3.266-41.312,43.063-42.442,50.85,21.47,50.85,21.47,23.729,67.8-50.85,76.274c-19.316,2.2-30.711-8-37.144-24.722A85.3,85.3,0,0,1,5836.019,5855.954Z" transform="translate(-5162.043 152.663)" fill="#ccf"/>
    <g id="automation" transform="translate(690 5920)">
      <path id="Path_1728" data-name="Path 1728" d="M107.058,79.445a17.7,17.7,0,0,0,15.712-17.56V57.957a17.7,17.7,0,0,0-17.676-17.676H103.13V38.317a5.9,5.9,0,0,0-5.892-5.892H95.274V20.64A3.932,3.932,0,0,0,99.2,16.712V12.784a3.932,3.932,0,0,0-3.928-3.928H70.36A13.732,13.732,0,0,0,44.217,14.6L18.372,32.44A17.65,17.65,0,0,0,8.41,64.464L16.078,96.04,8.856,94.957V122.77H52.065V109.9a9.761,9.761,0,0,0-8.363-9.712l-.823-.124L32.2,61.457a17.336,17.336,0,0,0,3.989-13.615L54.176,27.956A13.679,13.679,0,0,0,70.36,20.64h13.13V32.425H81.525a5.9,5.9,0,0,0-5.892,5.892v1.964H73.669A17.7,17.7,0,0,0,55.993,57.957v3.928a17.7,17.7,0,0,0,15.712,17.56v9.936a5.826,5.826,0,0,0,.361,1.964H61.885a5.9,5.9,0,0,0-5.892,5.892v19.64a5.9,5.9,0,0,0,5.892,5.892H85.453a5.854,5.854,0,0,0,3.928-1.532,5.845,5.845,0,0,0,3.928,1.532h23.568a5.9,5.9,0,0,0,5.892-5.892V97.238a5.9,5.9,0,0,0-5.892-5.892H106.7a5.826,5.826,0,0,0,.361-1.964Zm-19.64-7.74v3.928H83.489V67.777H95.274v7.856H91.345V71.705ZM77.6,63.849a5.9,5.9,0,0,0-5.46,3.7,5.881,5.881,0,0,1-4.36-5.664V57.957a5.9,5.9,0,0,1,5.892-5.892h9.82v1.964a5.892,5.892,0,1,0,11.784,0V52.065h9.82a5.9,5.9,0,0,1,5.892,5.892v3.928a5.883,5.883,0,0,1-4.36,5.664,5.9,5.9,0,0,0-5.46-3.7Zm13.748-19.64v9.82a1.964,1.964,0,1,1-3.928,0v-9.82Zm27.5,13.748v3.928a13.759,13.759,0,0,1-11.784,13.591V71.507a9.837,9.837,0,0,0,7.856-9.622V57.957a9.831,9.831,0,0,0-9.82-9.82h-9.82V44.209h9.82a13.765,13.765,0,0,1,13.748,13.748ZM48.137,109.9v8.946H12.784V99.518l26.99,4.048.024.088.2-.055,3.125.469a5.856,5.856,0,0,1,5.018,5.827ZM20.273,96.67,13.028,66.836a17.51,17.51,0,0,0,15.928-2.384l9.671,34.97Zm-1.6-32.821a13.748,13.748,0,1,1,0-27.5l.026,0v0l.069,0a13.745,13.745,0,0,1-.094,27.491ZM34.993,43.313A17.756,17.756,0,0,0,24.077,33.277L44.863,18.928a13.8,13.8,0,0,0,5.57,7.314ZM57.957,24.568a9.82,9.82,0,1,1,9.82-9.82A9.831,9.831,0,0,1,57.957,24.568ZM71.548,12.784H95.274v3.928H71.548a13.8,13.8,0,0,0,.157-1.964A13.8,13.8,0,0,0,71.548,12.784ZM87.417,20.64h3.928V32.425H87.417ZM79.561,38.317a1.966,1.966,0,0,1,1.964-1.964H97.238A1.966,1.966,0,0,1,99.2,38.317v1.964H79.561ZM59.921,61.885V57.957A13.765,13.765,0,0,1,73.669,44.209h9.82v3.928h-9.82a9.831,9.831,0,0,0-9.82,9.82v3.928a9.839,9.839,0,0,0,7.856,9.622v3.969A13.759,13.759,0,0,1,59.921,61.885ZM71.705,99.2v3.928H67.777V95.274H79.561v7.856H75.633V99.2Zm13.748,19.64H61.885a1.966,1.966,0,0,1-1.964-1.964V97.238a1.966,1.966,0,0,1,1.964-1.964h1.964v11.784h19.64V95.274h1.964a1.966,1.966,0,0,1,1.964,1.964v19.64A1.966,1.966,0,0,1,85.453,118.842Zm33.389-21.6v19.64a1.966,1.966,0,0,1-1.964,1.964H93.31a1.966,1.966,0,0,1-1.964-1.964V97.238a1.966,1.966,0,0,1,1.964-1.964h1.964v11.784h19.64V95.274h1.964A1.966,1.966,0,0,1,118.842,97.238ZM103.13,99.2v3.928H99.2V95.274h11.784v7.856h-3.928V99.2Zm-9.82-7.856H77.6a1.966,1.966,0,0,1-1.964-1.964V69.741A1.966,1.966,0,0,1,77.6,67.777h1.964V79.561H99.2V67.777h1.964a1.966,1.966,0,0,1,1.964,1.964v19.64a1.966,1.966,0,0,1-1.964,1.964Z" transform="translate(-1 -1)" fill="#464646"/>
      <path id="Path_1729" data-name="Path 1729" d="M32.892,5a5.892,5.892,0,1,0,5.892,5.892A5.9,5.9,0,0,0,32.892,5Zm0,7.856a1.964,1.964,0,1,1,1.964-1.964A1.966,1.966,0,0,1,32.892,12.856Z" transform="translate(24.065 2.856)" fill="#464646"/>
      <path id="Path_1730" data-name="Path 1730" d="M14.82,21a9.82,9.82,0,1,0,9.82,9.82A9.831,9.831,0,0,0,14.82,21Zm0,15.712a5.892,5.892,0,1,1,5.892-5.892A5.9,5.9,0,0,1,14.82,36.712Z" transform="translate(2.856 18.281)" fill="#464646"/>
    </g>
  </g>
</svg>
