<svg xmlns="http://www.w3.org/2000/svg" xmlns:xlink="http://www.w3.org/1999/xlink" width="262" height="262" viewBox="0 0 262 262"><defs><linearGradient id="a" x1="0.5" y1="1" x2="0.5" gradientUnits="objectBoundingBox"><stop offset="0" stop-color="#bb85ff"/><stop offset="1" stop-color="#e2cbff"/></linearGradient><linearGradient id="b" x1="0.5" y1="1" x2="0.5" gradientUnits="objectBoundingBox"><stop offset="0" stop-color="#bb85ff"/><stop offset="1" stop-color="#dbbeff"/></linearGradient><linearGradient id="c" x1="0.5" y1="1" x2="0.5" gradientUnits="objectBoundingBox"><stop offset="0" stop-color="#eee1ff"/><stop offset="1" stop-color="#fff"/></linearGradient><linearGradient id="d" x1="0.5" y1="1" x2="0.5" gradientUnits="objectBoundingBox"><stop offset="0" stop-color="#c291ff"/><stop offset="1" stop-color="#d7b7ff"/></linearGradient><linearGradient id="e" x1="0.5" y1="1" x2="0.5" gradientUnits="objectBoundingBox"><stop offset="0" stop-color="#d0aaff"/><stop offset="1" stop-color="#bb85ff"/></linearGradient><linearGradient id="f" x1="0.5" y1="1" x2="0.5" gradientUnits="objectBoundingBox"><stop offset="0" stop-color="#bb85ff"/><stop offset="1" stop-color="#e0c8ff"/></linearGradient><linearGradient id="g" x1="0.5" y1="1" x2="0.5" gradientUnits="objectBoundingBox"><stop offset="0" stop-color="#fff"/><stop offset="1" stop-color="#f4ebff"/></linearGradient></defs><g transform="translate(-6935 -3748)"><g transform="translate(6935 3871.324)"><path d="M254.324,379.676H7.676A7.671,7.671,0,0,1,0,372V279.379A7.671,7.671,0,0,1,7.676,271.7H77.27V248.676A7.671,7.671,0,0,1,84.945,241h92.109a7.671,7.671,0,0,1,7.676,7.676v53.73h69.594A7.671,7.671,0,0,1,262,310.082V372A7.671,7.671,0,0,1,254.324,379.676Z" transform="translate(0 -241)" fill="url(#a)"/></g><g transform="translate(7132.741 3864.16)"><path d="M194,50.354l-12.094-6.372-12.1,6.348a3.951,3.951,0,0,1-5.731-4.172l2.319-13.468-9.775-9.547a3.949,3.949,0,0,1,2.2-6.738l13.53-1.957L178.4,2.2A3.956,3.956,0,0,1,181.945,0h0a3.948,3.948,0,0,1,3.543,2.207l6.036,12.26,13.522,1.98a3.952,3.952,0,0,1,2.184,6.742l-9.794,9.528,2.3,13.476A3.95,3.95,0,0,1,194,50.354Z" transform="translate(-155.425 0)" fill="url(#b)"/></g><path d="M249.379,347.05H241.7V308.671a7.675,7.675,0,0,0-13.1-5.427L213.248,318.6A7.675,7.675,0,0,0,224.1,329.45l2.249-2.249V347.05h-7.676a7.676,7.676,0,1,0,0,15.352h30.7a7.676,7.676,0,0,0,0-15.352Z" transform="translate(6831.973 3601.032)" fill="url(#c)"/><path d="M137.758,241.7a30.7,30.7,0,1,0-30.7,30.7A30.733,30.733,0,0,0,137.758,241.7Zm-23.027,30.7H99.379A38.424,38.424,0,0,0,61,310.785a7.671,7.671,0,0,0,7.676,7.676h76.758a7.671,7.671,0,0,0,7.676-7.676A38.424,38.424,0,0,0,114.73,272.406Z" transform="translate(6964.574 3537)" fill="url(#d)"/><g transform="translate(6947.549 3823.546)"><path d="M88.855,1.051A1.935,1.935,0,0,0,87.133,0H71.648a1.934,1.934,0,0,0-1.575.811L60.036,15.121,50,.811A1.934,1.934,0,0,0,48.421,0H32.936a1.936,1.936,0,0,0-1.575,3.062L49.517,28.716a1.938,1.938,0,0,0,2.471.59,17.981,17.981,0,0,1,12.935-1.27c.04.014.068.047.109.058a17.846,17.846,0,0,1,3.077,1.227,1.94,1.94,0,0,0,2.442-.6L88.707,3.062a1.939,1.939,0,0,0,.147-2.011Z" transform="translate(-31 0)" fill="url(#e)"/><g transform="translate(7.742 23.503)"><path d="M112.292,224.7a21.305,21.305,0,0,1-9.842-40.194,21.935,21.935,0,0,1,15.918-1.539,29.76,29.76,0,0,1,3.735,1.522,21.306,21.306,0,0,1-9.81,40.211Z" transform="translate(-91 -182.137)" fill="url(#f)"/></g><g transform="translate(16.169 31.311)"><path d="M174.927,267.215l-5.845-3.153-5.911,3.026a1.934,1.934,0,0,1-2.786-2.07l1.193-6.533-4.7-4.684a1.936,1.936,0,0,1,1.108-3.291l6.582-.885,3-5.922a1.97,1.97,0,0,1,1.747-1.06,1.933,1.933,0,0,1,1.724,1.1l2.875,5.985,6.561,1.024a1.937,1.937,0,0,1,1.038,3.314l-4.8,4.584,1.053,6.557a1.935,1.935,0,0,1-2.83,2.01Z" transform="translate(-156.302 -242.644)" fill="url(#g)"/></g></g></g></svg>