<svg xmlns="http://www.w3.org/2000/svg" width="2041.116" height="636.753" viewBox="0 0 2041.116 636.753">
  <g id="blue-3" transform="translate(-8744 -8964.247)">
    <g id="Group_2898" data-name="Group 2898">
      <g id="Rectangle_1257" data-name="Rectangle 1257" transform="translate(8744 8967)" fill="#3758ff" stroke="#707070" stroke-width="1" opacity="0.23">
        <rect width="1920" height="634" stroke="none"/>
        <rect x="0.5" y="0.5" width="1919" height="633" fill="none"/>
      </g>
      <path id="Path_2232" data-name="Path 2232" d="M311.777,493.721,572.74,76.958H50.814Z" transform="translate(8735.956 8890.289)" fill="rgba(255,255,255,0.39)"/>
      <path id="Path_2229" data-name="Path 2229" d="M95.176,145.4,190.352,0H0Z" transform="translate(9096.785 9600.781) rotate(180)" fill="rgba(255,255,255,0.39)"/>
      <path id="Path_2233" data-name="Path 2233" d="M252.545,192.511l-50.108,76.551H302.654Z" transform="translate(10099.764 9328.864)" fill="rgba(255,255,255,0.39)"/>
      <path id="Path_2230" data-name="Path 2230" d="M305.773,282,421.4,105.359H190.147Z" transform="translate(10240.545 8858.888)" fill="rgba(255,255,255,0.39)"/>
      <path id="Path_2234" data-name="Path 2234" d="M177.226,130.667,18.889,372.561H335.562Z" transform="translate(10449.555 9225.101)" fill="rgba(255,255,255,0.39)"/>
      <g id="Group_2082" data-name="Group 2082" transform="translate(10451.377 9345.729)" style="mix-blend-mode: screen;isolation: isolate">
        <path id="Path_2238" data-name="Path 2238" d="M0,0,297.645,2.841l.035,3.741L.035,3.741Z" transform="translate(0 249.78) rotate(-57.044)" fill="rgba(255,255,255,0.39)"/>
      </g>
      <g id="Group_2083" data-name="Group 2083" transform="translate(8854.558 9418.123)" style="mix-blend-mode: screen;isolation: isolate">
        <path id="Path_2238-2" data-name="Path 2238" d="M0,.121,214.194,0l0,2.668L0,2.789Z" transform="translate(0 179.728) rotate(-57.044)" fill="rgba(255,255,255,0.39)"/>
      </g>
      <path id="Path_2235" data-name="Path 2235" d="M116.485,137.7,22.724,280.943H210.247Z" transform="translate(10545.295 8869.898)" fill="rgba(255,255,255,0.39)"/>
    </g>
  </g>
</svg>
