<svg xmlns="http://www.w3.org/2000/svg" xmlns:xlink="http://www.w3.org/1999/xlink" width="434" height="466" viewBox="0 0 434 466"><defs><filter id="a" x="0" y="0" width="434" height="466" filterUnits="userSpaceOnUse"><feOffset dy="10" input="SourceAlpha"/><feGaussianBlur stdDeviation="10" result="b"/><feFlood flood-opacity="0.161"/><feComposite operator="in" in2="b"/><feComposite in="SourceGraphic"/></filter><clipPath id="c"><rect width="374" height="406" rx="10" fill="#d2daff"/></clipPath></defs><g transform="translate(-7410 -5960)"><g transform="matrix(1, 0, 0, 1, 7410, 5960)" filter="url(#a)"><rect width="374" height="406" rx="10" transform="translate(30 20)" fill="#bb85ff"/></g><g transform="translate(7440 5980)" clip-path="url(#c)"><path d="M74.2,5.2,294.156,20.62c40.98,2.873,76.53,38.423,79.4,79.4l15.419,219.954c2.873,40.98-28.02,71.873-69,69L100.023,373.559c-40.98-2.873-76.53-38.423-79.4-79.4L5.2,74.2C2.329,33.221,33.221,2.329,74.2,5.2Z" transform="translate(175.014 203.435) rotate(-45)" fill="#d2daff" opacity="0.24"/></g></g></svg>