<svg xmlns="http://www.w3.org/2000/svg" width="1921" height="635.09" viewBox="0 0 1921 635.09"><g transform="translate(-8088 -10514)"><g transform="translate(8088 10514)" fill="#bb85ff" stroke="#707070" stroke-width="1" opacity="0.23"><rect width="1920" height="634" stroke="none"/><rect x="0.5" y="0.5" width="1919" height="633" fill="none"/></g><path d="M422.433,670.441,794.053,76.958H50.814Z" transform="translate(8037.642 10437.289)" fill="#bb85ff" opacity="0.1"/><path d="M141.892,216.772,283.785,0H0Z" transform="translate(8448.785 11147.781) rotate(180)" fill="#bb85ff" opacity="0.1"/><path d="M252.545,192.511l-50.108,76.551H302.654Z" transform="translate(9445.764 10878.864)" fill="#bb85ff" opacity="0.1"/><path d="M305.773,282,421.4,105.359H190.147Z" transform="translate(9586.545 10408.888)" fill="#bb85ff" opacity="0.1"/><path d="M193.055,322.661H0L193.055,27.725V322.661Z" transform="translate(9814.444 10825)" fill="#bb85ff" stroke="rgba(0,0,0,0)" stroke-miterlimit="10" stroke-width="1" opacity="0.1"/><g transform="translate(9797.377 10832.455)" opacity="0.1" style="isolation:isolate"><path d="M0,0,371.979,3.551l.044,4.675L.044,4.675Z" transform="translate(0 312.16) rotate(-57.044)" fill="#bb85ff"/></g><g transform="translate(8147.558 10921.868)" opacity="0.1" style="isolation:isolate"><path d="M0,.15,265.313,0l0,3.3L0,3.455Z" transform="translate(0 222.62) rotate(-57.044)" fill="#bb85ff"/></g><path d="M94.48,192.843H0L93.761,49.6l.719,1.1V192.842Z" transform="translate(9914.02 10508)" fill="#bb85ff" stroke="rgba(0,0,0,0)" stroke-miterlimit="10" stroke-width="1" opacity="0.1"/></g></svg>