<svg xmlns="http://www.w3.org/2000/svg" width="153.244" height="142.214" viewBox="0 0 153.244 142.214">
  <g id="Group_2904" data-name="Group 2904" transform="translate(-245.039 -6419)">
    <path id="Path_2315" data-name="Path 2315" d="M5836.019,5855.954s-3.266-41.312,43.063-42.442,50.85,21.47,50.85,21.47,23.729,67.8-50.85,76.274c-19.316,2.2-30.711-8-37.144-24.722A85.3,85.3,0,0,1,5836.019,5855.954Z" transform="translate(-5590.93 649.663)" fill="#b2d4ff"/>
    <g id="analysis_1_" data-name="analysis (1)" transform="translate(269 6418)">
      <path id="Path_2324" data-name="Path 2324" d="M119.568,105.95A10.3,10.3,0,0,0,114.8,88.11V81.694a6.215,6.215,0,0,0-6.207-6.207H90.411l2.2-2.2L89.55,68.133q.456-.984.828-1.978l5.8-1.475V58.934h4.138a16.553,16.553,0,0,0,2-32.985,26.883,26.883,0,0,0-50.322-11.1,20.42,20.42,0,0,0-7.542-1.43A20.714,20.714,0,0,0,23.76,34.105v.172a12.415,12.415,0,0,0,2.069,24.657h8.276V64.68l5.8,1.475c.246.66.521,1.322.828,1.978l-3.062,5.152,2.2,2.2H27.9a6.215,6.215,0,0,0-6.207,6.207v2.175a22.76,22.76,0,1,0,4.138,0V81.694A2.072,2.072,0,0,1,27.9,79.625H44.01l4.713,4.713,5.152-3.062q.984.456,1.978.828l1.473,5.8h5.746v16.553H54.8v24.829H83.763V112.73H75.487v-4.138H67.21V87.9h5.746l1.475-5.8c.66-.246,1.322-.521,1.978-.828l5.152,3.062,4.711-4.713h22.319a2.072,2.072,0,0,1,2.069,2.069V88.11a10.3,10.3,0,0,0-4.769,17.84,16.563,16.563,0,0,0-9.714,15.057v8.276h33.105v-8.276a16.563,16.563,0,0,0-9.714-15.057Zm-77.187.573A18.622,18.622,0,1,1,23.76,87.9,18.644,18.644,0,0,1,42.382,106.523Zm20.691,18.622H58.934V108.592h4.138Zm16.553-8.276v8.276H75.487v-8.276Zm-8.276-4.138v12.414H67.21V112.73Zm-53.8-66.21a8.286,8.286,0,0,1,8.16-8.276l2.549.01-.254-2.3a17.052,17.052,0,0,1-.11-1.852A16.572,16.572,0,0,1,44.451,17.553,16.369,16.369,0,0,1,52,19.386l1.922.987.9-1.964A22.745,22.745,0,0,1,98.247,27.9v2.069h2.069a12.414,12.414,0,1,1,0,24.829H25.829a8.285,8.285,0,0,1-8.276-8.276ZM79.459,58.934a14.464,14.464,0,0,1-28.636,0Zm1.45,20.2-4.335-2.578-1.02.526a22.772,22.772,0,0,1-3.482,1.457l-1.092.35-1.239,4.873h-9.2L59.3,78.892l-1.092-.35a22.686,22.686,0,0,1-3.482-1.457l-1.02-.526-4.335,2.578-6.5-6.5L45.45,68.3l-.526-1.02A22.772,22.772,0,0,1,43.468,63.8l-.35-1.092-4.875-1.241v-2.53h8.4a18.614,18.614,0,0,0,37,0h8.4v2.53L87.169,62.7l-.35,1.092a22.687,22.687,0,0,1-1.457,3.482l-.526,1.02,2.578,4.335Zm25.613,19.11a6.207,6.207,0,1,1,6.207,6.207A6.215,6.215,0,0,1,106.523,98.247Zm18.622,26.9H100.316v-4.138a12.414,12.414,0,0,1,24.829,0Z" transform="translate(0 0)" fill="#464646"/>
      <path id="Path_2325" data-name="Path 2325" d="M14.207,45v4.138H8v6.207a6.215,6.215,0,0,0,6.207,6.207h4.138a2.072,2.072,0,0,1,2.069,2.069v2.069H14.207a2.072,2.072,0,0,1-2.069-2.069H8a6.215,6.215,0,0,0,6.207,6.207v4.138h4.138V69.829h6.207V63.622a6.215,6.215,0,0,0-6.207-6.207H14.207a2.072,2.072,0,0,1-2.069-2.069V53.276h6.207a2.072,2.072,0,0,1,2.069,2.069h4.138a6.215,6.215,0,0,0-6.207-6.207V45Z" transform="translate(7.484 47.039)" fill="#464646"/>
      <path id="Path_2326" data-name="Path 2326" d="M27.207,17a6.207,6.207,0,1,0,6.207,6.207A6.215,6.215,0,0,0,27.207,17Zm0,8.276a2.069,2.069,0,1,1,2.069-2.069A2.072,2.072,0,0,1,27.207,25.276Z" transform="translate(21.382 17.105)" fill="#464646"/>
      <path id="Path_2327" data-name="Path 2327" d="M35.207,17a6.207,6.207,0,1,0,6.207,6.207A6.215,6.215,0,0,0,35.207,17Zm0,8.276a2.069,2.069,0,1,1,2.069-2.069A2.072,2.072,0,0,1,35.207,25.276Z" transform="translate(29.934 17.105)" fill="#464646"/>
      <path id="Path_2328" data-name="Path 2328" d="M43.207,17a6.207,6.207,0,1,0,6.207,6.207A6.215,6.215,0,0,0,43.207,17Zm0,8.276a2.069,2.069,0,1,1,2.069-2.069A2.072,2.072,0,0,1,43.207,25.276Z" transform="translate(38.487 17.105)" fill="#464646"/>
      <path id="Path_2329" data-name="Path 2329" d="M37,5V9.138A14.5,14.5,0,0,1,51.484,23.622a14.958,14.958,0,0,1-.112,1.813l4.105.513A18.629,18.629,0,0,0,37,5Z" transform="translate(38.487 4.276)" fill="#464646"/>
    </g>
  </g>
</svg>
