<svg xmlns="http://www.w3.org/2000/svg" width="136.637" height="136.214" viewBox="0 0 136.637 136.214">
  <g id="Group_2906" data-name="Group 2906" transform="translate(-1506.937 -6425)">
    <path id="Path_2317" data-name="Path 2317" d="M5836.019,5855.954s-3.266-41.312,43.063-42.442,50.85,21.47,50.85,21.47,23.729,67.8-50.85,76.274c-19.316,2.2-30.711-8-37.144-24.722A85.3,85.3,0,0,1,5836.019,5855.954Z" transform="translate(-4329.032 649.663)" fill="#ffcfd7"/>
    <g id="technology_1_" data-name="technology (1)" transform="translate(1526 6423)">
      <path id="Path_2330" data-name="Path 2330" d="M22.2,56.7h4.563a5.779,5.779,0,1,0,0-3.852H22.2a5.779,5.779,0,1,0,0,3.852Zm9.986-3.852a1.926,1.926,0,1,1-1.926,1.926A1.928,1.928,0,0,1,32.189,52.852ZM14.852,54.779A1.926,1.926,0,1,1,16.779,56.7,1.928,1.928,0,0,1,14.852,54.779Z" transform="translate(8.336 43.533)" fill="#464646"/>
      <path id="Path_2331" data-name="Path 2331" d="M59.69,52.7a5.779,5.779,0,1,0,0-3.852H47.779a1.926,1.926,0,0,0-1.926,1.926v9.986a5.779,5.779,0,1,0,3.852,0V52.7Zm5.424-3.852a1.926,1.926,0,1,1-1.926,1.926A1.928,1.928,0,0,1,65.115,48.852ZM47.779,68.115A1.926,1.926,0,1,1,49.7,66.189,1.928,1.928,0,0,1,47.779,68.115Z" transform="translate(37.049 39.828)" fill="#464646"/>
      <path id="Path_2332" data-name="Path 2332" d="M59.787,2A57.852,57.852,0,0,0,2,59.787a1.926,1.926,0,0,0,1.926,1.926H30.893v6.133a5.773,5.773,0,0,0-3.5,3.5H18.207L12.993,66.13a1.921,1.921,0,0,0-1.362-.564h-7.7v3.852h6.907l5.214,5.214a1.921,1.921,0,0,0,1.362.564H27.4a5.773,5.773,0,0,0,3.5,3.5V82.9H18.982a5.779,5.779,0,1,0,0,3.852H32.82a1.926,1.926,0,0,0,1.926-1.926V78.695a5.745,5.745,0,0,0,0-10.849V61.713h7.7V82.9a1.918,1.918,0,0,0,.564,1.362L50.156,91.4v14.967a5.779,5.779,0,1,0,3.852,0V91.4L57.3,88.116a1.918,1.918,0,0,0,.564-1.362V76.768a5.745,5.745,0,0,0,0-10.849V61.713H76.325L71.909,66.13a1.918,1.918,0,0,0-.564,1.362V71.7a5.745,5.745,0,0,0,0,10.849v5.336l-3.288,3.288a1.918,1.918,0,0,0-.564,1.362v11.912a5.779,5.779,0,1,0,3.852,0V93.33l3.288-3.288A1.918,1.918,0,0,0,75.2,88.68V82.547a5.773,5.773,0,0,0,3.5-3.5H88.68a1.921,1.921,0,0,0,1.362-.564l5.214-5.214h9.188a5.765,5.765,0,1,0,7.35-7.35V61.713h3.852a1.926,1.926,0,0,0,1.926-1.926A57.852,57.852,0,0,0,59.787,2ZM13.557,86.754a1.926,1.926,0,1,1,1.926-1.926A1.928,1.928,0,0,1,13.557,86.754ZM32.82,75.2a1.926,1.926,0,1,1,1.926-1.926A1.928,1.928,0,0,1,32.82,75.2Zm36.6,36.6a1.926,1.926,0,1,1,1.926-1.926A1.928,1.928,0,0,1,69.418,111.8Zm37.074-78.952a89.411,89.411,0,0,1-9.841,3.2A64.641,64.641,0,0,0,90.171,21.7q3.149-.8,5.894-1.774A54.32,54.32,0,0,1,106.492,32.843ZM77.109,57.861c-.048-4.8-.272-9.623-.668-14.325A141.582,141.582,0,0,0,94,40.673a76.2,76.2,0,0,1,2.348,17.188ZM68.827,20.97c-2.955.183-5.971.293-9.04.293s-6.085-.11-9.04-.293c2.695-9.729,6.158-15.117,9.04-15.117S66.132,11.24,68.827,20.97ZM67.143,6.948c6.3,1.9,12.008,6.208,16.681,12.22-3.465.653-7.194,1.146-11.076,1.5C71.25,14.989,69.378,10.237,67.143,6.948Zm2.645,17.825a129.3,129.3,0,0,1,2.487,15.267c-4.091.314-8.269.483-12.488.483s-8.4-.17-12.486-.483a129.3,129.3,0,0,1,2.487-15.267c3.263.22,6.607.341,10,.341s6.736-.121,10-.341ZM46.825,20.665c-3.881-.352-7.611-.846-11.076-1.5,4.673-6.014,10.38-10.319,16.681-12.22C50.2,10.237,48.324,14.989,46.825,20.665Zm-.913,3.783A140.3,140.3,0,0,0,43.5,39.7a137.333,137.333,0,0,1-16.862-2.733A59.865,59.865,0,0,1,33.32,22.6,117.46,117.46,0,0,0,45.912,24.448ZM43.131,43.535c-.4,4.7-.62,9.527-.668,14.325H23.219a76.214,76.214,0,0,1,2.348-17.188A141.313,141.313,0,0,0,43.131,43.535Zm3.812.339c4.211.327,8.508.5,12.844.5s8.633-.175,12.844-.5c.36,4.347.58,9.017.624,13.986H46.317C46.363,52.893,46.583,48.222,46.943,43.874ZM76.077,39.7a140.3,140.3,0,0,0-2.414-15.256A118.034,118.034,0,0,0,86.255,22.6a59.934,59.934,0,0,1,6.684,14.375A137.709,137.709,0,0,1,76.077,39.7Zm16.531-22.67c-1.485.458-3.059.88-4.7,1.269a46.126,46.126,0,0,0-7.846-8.489,53.777,53.777,0,0,1,12.549,7.22ZM31.668,18.3c-1.645-.389-3.217-.811-4.7-1.269a53.884,53.884,0,0,1,12.549-7.22A46.188,46.188,0,0,0,31.668,18.3Zm-8.16,1.628Q26.256,20.9,29.4,21.7a64.641,64.641,0,0,0-6.48,14.345,89.545,89.545,0,0,1-9.841-3.2A54.243,54.243,0,0,1,23.508,19.929ZM11.273,36.266a92.245,92.245,0,0,0,10.575,3.479,79.5,79.5,0,0,0-2.479,18.118H5.885A53.577,53.577,0,0,1,11.273,36.266Zm40.809,77.456a1.926,1.926,0,1,1,1.926-1.926A1.928,1.928,0,0,1,52.082,113.721ZM55.934,73.27a1.926,1.926,0,1,1,1.926-1.926A1.928,1.928,0,0,1,55.934,73.27Zm-1.926-7.35a5.745,5.745,0,0,0,0,10.849v9.188l-1.926,1.926L46.3,82.1V61.713h7.7ZM73.27,79.049A1.926,1.926,0,1,1,75.2,77.123,1.928,1.928,0,0,1,73.27,79.049Zm36.6-5.779a1.926,1.926,0,1,1,1.926-1.926A1.928,1.928,0,0,1,109.869,73.27Zm-1.926-7.35a5.773,5.773,0,0,0-3.5,3.5H94.459a1.921,1.921,0,0,0-1.362.564L87.883,75.2H78.695a5.773,5.773,0,0,0-3.5-3.5V68.289l6.576-6.576h26.17Zm-7.74-8.059a79.5,79.5,0,0,0-2.479-18.118A91.87,91.87,0,0,0,108.3,36.264a53.53,53.53,0,0,1,5.388,21.6Z" fill="#464646"/>
    </g>
  </g>
</svg>
