<svg xmlns="http://www.w3.org/2000/svg" width="29.399" height="37.599" viewBox="0 0 29.399 37.599">
  <path id="cata" d="M39.113,30.868V44.506a2.381,2.381,0,0,0,1.608,2.27,2.315,2.315,0,0,0,2.657-.92l1.34-2,1.334,1.988a2.316,2.316,0,0,0,1.933,1.05,2.351,2.351,0,0,0,2.339-2.39V30.868h11.9a2.292,2.292,0,0,1,2.29,2.289v23.5a2.321,2.321,0,0,0-.78-.14H56.89a4.161,4.161,0,0,0-4.156,4.156v6.838a2.312,2.312,0,0,0,.14.78H37.4a2.287,2.287,0,0,1-2.289-2.28V33.157a2.292,2.292,0,0,1,2.29-2.289h1.709ZM63.735,58.077A.773.773,0,0,1,64.28,59.4l-8.654,8.662a.8.8,0,0,1-.553.226.771.771,0,0,1-.3-.054.781.781,0,0,1-.483-.725V60.673a2.6,2.6,0,0,1,2.6-2.6Zm-13.921,2.79h-9.2a.78.78,0,1,0,0,1.56h9.2a.78.78,0,0,0,0-1.56Zm9.2-6.724h-18.4a.779.779,0,1,0,0,1.559h18.4a.78.78,0,0,0,0-1.56Zm0-5.884h-18.4a.779.779,0,1,0,0,1.559h18.4a.78.78,0,1,0,0-1.56ZM47.985,30.692a.8.8,0,0,1,.78.831V44.506a.829.829,0,0,1-.538.79.807.807,0,0,1-.242.04.763.763,0,0,1-.631-.348l-2.636-3.931-2.635,3.93a.757.757,0,0,1-.873.308.827.827,0,0,1-.538-.79V31.524a.808.808,0,0,1,.78-.831ZM59.013,42.374H52.406a.78.78,0,1,0,0,1.56h6.607a.78.78,0,1,0,0-1.56Zm0-5.884H52.406a.78.78,0,0,0,0,1.56h6.607a.78.78,0,0,0,0-1.56Z" transform="translate(-35.115 -30.692)" fill="#24b5b4"/>
</svg>
