<svg xmlns="http://www.w3.org/2000/svg" xmlns:xlink="http://www.w3.org/1999/xlink" width="193.477" height="254" viewBox="0 0 193.477 254"><defs><linearGradient id="a" x1="0.5" y1="1" x2="0.5" gradientUnits="objectBoundingBox"><stop offset="0" stop-color="#bb85ff"/><stop offset="1" stop-color="#d6b5ff"/></linearGradient></defs><g transform="translate(-61)"><g transform="translate(61)"><g transform="translate(0 29.766)"><path d="M247.035,284.234H68.441A7.442,7.442,0,0,1,61,276.793V67.441A7.442,7.442,0,0,1,68.441,60H113.09a7.442,7.442,0,0,1,7.441,7.441v7.441h74.414V67.441A7.442,7.442,0,0,1,202.387,60h44.648a7.442,7.442,0,0,1,7.441,7.441V276.793A7.442,7.442,0,0,1,247.035,284.234Z" transform="translate(-61 -60)" fill="url(#a)"/></g><g transform="translate(29.766)"><path d="M143.324,59.531h89.3a7.442,7.442,0,0,0,7.441-7.441V37.207a22.35,22.35,0,0,0-22.324-22.324h-8.716a22.327,22.327,0,0,0-42.1,0h-8.716a22.35,22.35,0,0,0-22.324,22.324V52.09A7.442,7.442,0,0,0,143.324,59.531ZM223,137.117a7.441,7.441,0,0,0-10.524,0l-31.945,31.945L163.469,152a7.441,7.441,0,1,0-10.524,10.524l22.324,22.324a7.441,7.441,0,0,0,10.524,0L223,147.64A7.44,7.44,0,0,0,223,137.117ZM187.973,90.289a66.973,66.973,0,1,0,66.973,66.973,67.049,67.049,0,0,0-66.973-66.973Zm0,119.062a52.09,52.09,0,1,1,52.09-52.09A52.149,52.149,0,0,1,187.973,209.352Z" transform="translate(-121)" fill="#e2cbff"/></g></g></g></svg>