<svg xmlns="http://www.w3.org/2000/svg" width="51.894" height="75.974" viewBox="0 0 51.894 75.974">
  <g id="click" transform="translate(-0.063 -0.001)">
    <path id="Path_478" data-name="Path 478" d="M28.511,19.08a6.1,6.1,0,0,0-3.737.522,3.9,3.9,0,0,0-4.723.455L15.9,23.941V23.6a6.329,6.329,0,0,0-6.33-6.329,3.8,3.8,0,0,0-3.8,3.8v12.4l-3.1,3.361a5.033,5.033,0,0,0-1.339,3.5,83.249,83.249,0,0,0,.975,13.183,1.216,1.216,0,0,0,.119.285L.365,59.609a5.007,5.007,0,0,0,1.916,5.866L3,65.967A5.074,5.074,0,0,0,4.923,71.79l20.5,14.052a1.266,1.266,0,0,1,.551,1.045,3.8,3.8,0,0,0,3.8,3.8h18.4a3.77,3.77,0,0,0,2.965-1.429,3.809,3.809,0,0,0,.719-3.269L50,79.152a30.1,30.1,0,0,1-.567-9.1c1.043-13.23-7.826-22.787-10.076-24.448-4.138-3.05-7.225-6.231-8.47-8.726-1.867-3.744-.608-6.305.608-8.782,1.02-2.077,2.076-4.225.578-6.476a5.57,5.57,0,0,0-3.563-2.539Zm-18.938.726a3.8,3.8,0,0,1,3.8,3.8v2.709l-5.064,4.74V21.071a1.266,1.266,0,0,1,1.266-1.266ZM3.869,40.3a2.513,2.513,0,0,1,.669-1.748l3.341-3.629a1.055,1.055,0,0,0,.086-.082L15.4,27.879a1.259,1.259,0,0,0,.2-.185l6.219-5.823a1.277,1.277,0,0,1,1.781,0l.086-.086a1.073,1.073,0,0,0,.1.1l-.08.1a3.8,3.8,0,0,1-.086,5.241l-4.979,4.78-7.011,6.314a2.463,2.463,0,0,0-.665,1.8,6.328,6.328,0,0,0-5.142,4.143L4.228,48.733c-.254-3.112-.336-6.635-.359-8.437Zm9.611-.236,3.658-3.292a20.478,20.478,0,0,0,.121,3.292ZM2.746,60.473,8.2,45.112a3.812,3.812,0,0,1,3.6-2.521H22.672a1.281,1.281,0,0,1,.732.236l6.553,4.643a.966.966,0,0,1,.416.779.978.978,0,0,1-.134.506c-.045.074-.1.147-.156.219l-2.056-1.471a6.283,6.283,0,0,0-3.671-1.18H14.394a6.329,6.329,0,0,0-5.959,4.224L3.877,63.5l-.165-.111a2.482,2.482,0,0,1-.967-2.915ZM29.229,27c-1.279,2.6-3.028,6.162-.6,11.029,1.941,3.89,6.617,7.706,9.232,9.631,1.681,1.237,10.011,10.073,9.054,22.212a32.661,32.661,0,0,0,.633,9.912L49.4,86.616a1.266,1.266,0,0,1-1.23,1.55h-18.4A1.266,1.266,0,0,1,28.5,86.9a3.8,3.8,0,0,0-1.646-3.134L6.355,69.713A2.539,2.539,0,0,1,5.4,66.778l5.422-15.394a3.8,3.8,0,0,1,3.57-2.532h9.963a3.769,3.769,0,0,1,2.2.708L32.4,53.744a.983.983,0,0,1,.266,1.3,3.778,3.778,0,0,1-5.345,1.205l-2.532-1.69a3.762,3.762,0,0,0-2.106-.641h-3.9a3.764,3.764,0,0,0-3.61,2.625c-.075.236-.181.53-.3.861-.912,2.519-3.038,8.414,1.787,10.349A1.266,1.266,0,1,0,17.6,65.4c-2.123-.852-1.675-3.471-.348-7.138.134-.37.253-.695.334-.958a1.243,1.243,0,0,1,1.2-.857h3.9a1.252,1.252,0,0,1,.7.213l2.532,1.692a6.314,6.314,0,0,0,8.926-2.011,3.529,3.529,0,0,0-.968-4.656l-1.73-1.245c.092-.126.192-.253.271-.38a3.489,3.489,0,0,0-.985-4.647l-6.551-4.651a3.827,3.827,0,0,0-2.2-.7H19.809A17.927,17.927,0,0,1,20,34.168l5.394-5.129a6.33,6.33,0,0,0,1.119-7.406,2.934,2.934,0,0,1,3.462,1.405c.628.945.276,1.884-.743,3.957Zm0,0" transform="translate(0 -14.71)" fill="#fff"/>
    <path id="Path_479" data-name="Path 479" d="M150.806,358.232a1.268,1.268,0,0,0-.8,2.405c2.922.979,10.507,4.493,10.507,8.926a1.266,1.266,0,0,0,2.532,0c0-7.167-11.736-11.168-12.237-11.331Zm0,0" transform="translate(-126.958 -305.032)" fill="#fff"/>
    <path id="Path_480" data-name="Path 480" d="M204.976,324.505a1.266,1.266,0,1,0-2.015,1.533c1.931,2.532,5.145,5.563,9.483,5.563a1.266,1.266,0,1,0,0-2.532C209.142,329.069,206.565,326.586,204.976,324.505Zm0,0" transform="translate(-172.578 -275.938)" fill="#fff"/>
    <path id="Path_481" data-name="Path 481" d="M214.767.425l-1.206,1.266a1.266,1.266,0,1,0,1.833,1.744L216.6,2.169A1.266,1.266,0,1,0,214.767.425Zm0,0" transform="translate(-181.502 0)" fill="#fff"/>
    <path id="Path_482" data-name="Path 482" d="M240.484,35.857a1.267,1.267,0,0,0-1.562-.877l-1.646.464a1.267,1.267,0,1,0,.687,2.44l1.646-.462a1.266,1.266,0,0,0,.874-1.563Zm0,0" transform="translate(-201.226 -29.749)" fill="#fff"/>
    <path id="Path_483" data-name="Path 483" d="M231.252,75.6a1.266,1.266,0,0,0-.685,2.438l1.646.464a1.266,1.266,0,1,0,.685-2.439Zm0,0" transform="translate(-195.522 -64.343)" fill="#fff"/>
  </g>
</svg>
