<svg xmlns="http://www.w3.org/2000/svg" width="2112.917" height="635.09" viewBox="0 0 2112.917 635.09">
  <g id="client-testimonies-back" transform="translate(-5617 -8900)">
    <g id="Rectangle_1257" data-name="Rectangle 1257" transform="translate(5617 8900)" fill="#3758ff" stroke="#707070" stroke-width="1" opacity="0.23">
      <rect width="1920" height="634" stroke="none"/>
      <rect x="0.5" y="0.5" width="1919" height="633" fill="none"/>
    </g>
    <path id="Path_2232" data-name="Path 2232" d="M422.433,670.441,794.053,76.958H50.814Z" transform="translate(5566.642 8823.289)" fill="rgba(222,222,222,0.45)"/>
    <path id="Path_2229" data-name="Path 2229" d="M141.892,216.772,283.785,0H0Z" transform="translate(5977.785 9533.781) rotate(180)" fill="rgba(222,222,222,0.45)"/>
    <path id="Path_2233" data-name="Path 2233" d="M252.545,192.511l-50.108,76.551H302.654Z" transform="translate(6974.763 9264.864)" fill="rgba(222,222,222,0.45)"/>
    <path id="Path_2230" data-name="Path 2230" d="M305.773,282,421.4,105.359H190.147Z" transform="translate(7115.544 8794.888)" fill="rgba(222,222,222,0.45)"/>
    <path id="Path_2234" data-name="Path 2234" d="M212.125,130.667,18.889,425.878H405.362Z" transform="translate(7324.555 9107.783)" fill="rgba(222,222,222,0.45)"/>
    <g id="Group_2082" data-name="Group 2082" transform="translate(7326.377 9218.455)" style="mix-blend-mode: screen;isolation: isolate">
      <path id="Path_2238" data-name="Path 2238" d="M0,0,371.979,3.551l.044,4.675L.044,4.675Z" transform="translate(0 312.16) rotate(-57.044)" fill="#464646"/>
    </g>
    <g id="Group_2083" data-name="Group 2083" transform="translate(5676.558 9307.868)" style="mix-blend-mode: screen;isolation: isolate">
      <path id="Path_2238-2" data-name="Path 2238" d="M0,.15,265.313,0l0,3.3L0,3.455Z" transform="translate(0 222.62) rotate(-57.044)" fill="#464646"/>
    </g>
    <path id="Path_2235" data-name="Path 2235" d="M116.485,137.7,22.724,280.943H210.247Z" transform="translate(7420.295 8805.898)" fill="rgba(222,222,222,0.45)"/>
  </g>
</svg>
