<svg xmlns="http://www.w3.org/2000/svg" width="142.955" height="141.214" viewBox="0 0 142.955 141.214">
  <g id="Group_2905" data-name="Group 2905" transform="translate(-1089.045 -6420)">
    <path id="Path_2344" data-name="Path 2344" d="M5836.019,5855.954s-3.266-41.312,43.063-42.442,50.85,21.47,50.85,21.47,23.729,67.8-50.85,76.274c-19.316,2.2-30.711-8-37.144-24.722A85.3,85.3,0,0,1,5836.019,5855.954Z" transform="translate(-4746.924 649.663)" fill="#f5ffac"/>
    <path id="team" d="M126,52.839h-4.567l-6.806,3.581a10.1,10.1,0,0,0-2.422-1l-8.562-2.142v-.973a14.271,14.271,0,0,0,6.1-11.663V37.093c0-7.895-6.186-14.5-13.789-14.732-.386-.01-.766,0-1.148.023l2.22-5.2L86.263,6.428l-6.344,4.129A34.376,34.376,0,0,0,72.312,7.4L70.745,0H55.257L53.69,7.4a34.336,34.336,0,0,0-7.607,3.156L39.739,6.43,28.986,17.183l2.182,5.2c-.083,0-.163-.019-.246-.021A14.232,14.232,0,0,0,16.258,36.581v4.065a14.266,14.266,0,0,0,6.1,11.661v.975l-5.585,1.4-10.123-5.9H0V90.885l19.993,6.663h3.894l.486-1.7L30.5,99.524a6.327,6.327,0,0,0,6.1,6.131,6.327,6.327,0,0,0,6.1,6.1,6.327,6.327,0,0,0,6.1,6.1,6.32,6.32,0,0,0,9.882,5.018l1.8,1.59A6.188,6.188,0,0,0,64.569,126h.376a6.188,6.188,0,0,0,6.176-6.1,6.182,6.182,0,0,0,6.1-6.1,6.181,6.181,0,0,0,6.1-6.1,6.249,6.249,0,0,0,6.1-6.236,5.951,5.951,0,0,0-.031-.609L126,82.547ZM105.677,37.093v3.552a10.2,10.2,0,0,1-5.087,8.794l-1.016.587.008,6.431,10.153,2.536L87.387,70.757V65.282a10.112,10.112,0,0,0-2.91-7.082l6.975-1.743V50.022l-1.014-.586a10.19,10.19,0,0,1-5.083-8.79V36.581A10.161,10.161,0,0,1,95.831,26.425c5.429.163,9.847,4.949,9.847,10.667ZM66.064,69.159l-9.2-2.94a25.1,25.1,0,0,0-13.022-.593l-1.165.258v-.6a6.092,6.092,0,0,1,4.617-5.916l11.641-2.908V50.021l-1.014-.586a10.19,10.19,0,0,1-5.083-8.79V36.581A10.161,10.161,0,0,1,63.314,26.425c5.429.163,9.847,4.949,9.847,10.667v3.552a10.2,10.2,0,0,1-5.087,8.794l-1.016.587.008,6.431,11.639,2.908a6.092,6.092,0,0,1,4.617,5.916V72.9l-.5.264H81.575l-12.494-3.57a12.81,12.81,0,0,0-3.017-.432ZM43.133,30.416a22.339,22.339,0,0,1,39.651-.164A14.134,14.134,0,0,0,81.29,36.58v4.065a14.266,14.266,0,0,0,6.1,11.661v.975l-8.129,2.035-8.131-2.035v-.973a14.271,14.271,0,0,0,6.1-11.663V37.092c0-7.895-6.186-14.5-13.789-14.732A14.228,14.228,0,0,0,48.774,36.58v4.065a14.266,14.266,0,0,0,6.1,11.661v.975l-8.129,2.035-8.131-2.035v-.973a14.271,14.271,0,0,0,6.1-11.663V37.092a14.979,14.979,0,0,0-1.577-6.676ZM33.786,18.125l6.493-6.493,5.715,3.719,1.094-.671a30.326,30.326,0,0,1,8.8-3.65l1.25-.3,1.414-6.667h8.9l1.41,6.665,1.25.3a30.356,30.356,0,0,1,8.8,3.651L80,15.35l5.715-3.719L92.2,18.117l-2.305,5.4a14.2,14.2,0,0,0-4.29,2.852c-.083.081-.155.169-.236.252a26.392,26.392,0,0,0-44.823.122,14.335,14.335,0,0,0-4.483-3.178ZM26.419,56.458V50.021L25.4,49.435a10.19,10.19,0,0,1-5.083-8.79V36.581A10.161,10.161,0,0,1,30.8,26.425c5.429.163,9.847,4.949,9.847,10.667v3.552a10.2,10.2,0,0,1-5.087,8.794l-1.016.587.008,6.431L41.523,58.2a10.112,10.112,0,0,0-2.91,7.082v1.505L32.274,68.2l.165-.576.077-3.756L21.8,57.613ZM4.064,52.839H5.546l14.616,8.525-7.375,29.5L4.064,87.954ZM20.652,93.484l-4-1.333L23.816,63.5l4.635,2.7v.581l-7.629,26.7Zm13.9,5.851a2.294,2.294,0,0,1,.667-1.612l3.572-3.572a2.279,2.279,0,0,1,3.223,3.223l-3.572,3.572a2.279,2.279,0,0,1-3.89-1.612Zm6.1,6.1a2.294,2.294,0,0,1,.667-1.612l3.572-3.572a2.279,2.279,0,0,1,3.223,3.223l-3.572,3.572a2.279,2.279,0,0,1-3.89-1.612Zm6.1,6.1a2.294,2.294,0,0,1,.667-1.612l3.572-3.572a2.279,2.279,0,0,1,3.223,3.223l-3.572,3.572a2.279,2.279,0,0,1-3.89-1.612Zm8.375,8.375a2.279,2.279,0,0,1-1.612-3.89l3.572-3.572a2.279,2.279,0,0,1,3.223,3.223l-3.572,3.572A2.294,2.294,0,0,1,55.117,119.9Zm9.828,2.032h-.376a2.106,2.106,0,0,1-1.4-.531l-1.52-1.341,1.526-1.526a6.319,6.319,0,0,0,1.28-1.888l1.848,1.538a2.12,2.12,0,0,1-1.357,3.748Zm18.225-18.29h-.351a2.18,2.18,0,0,1-1.4-.508L70.4,93.953l-2.6,3.124,10.7,8.917a2.121,2.121,0,0,1-1.359,3.748h-.444a2.12,2.12,0,0,1-1.355-.492l-11.039-9.2-2.6,3.124,10.7,8.918a2.118,2.118,0,0,1-1.357,3.745,3.357,3.357,0,0,1-2.138-.774l-4.536-3.781a6.322,6.322,0,0,0-5.457-3.552,6.327,6.327,0,0,0-6.1-6.1,6.327,6.327,0,0,0-6.1-6.1,6.328,6.328,0,0,0-10.8-4.262l-3.572,3.572a6.263,6.263,0,0,0-.57.7L25.529,91.8,31,72.645l13.72-3.05a20.936,20.936,0,0,1,10.9.493l2.994.958L48.469,76.12a6.774,6.774,0,0,0-3.76,6.089v.4a6.806,6.806,0,0,0,10.31,5.837l7.567-4.538a4.2,4.2,0,0,1,4.873.469L84.631,99.833a2.187,2.187,0,0,1-1.462,3.812Zm38.766-23.611L87.7,97.154c-.111-.118-.227-.23-.349-.339L70.18,81.362a8.178,8.178,0,0,0-9.686-.937l-7.57,4.54a2.741,2.741,0,0,1-4.15-2.354v-.4a2.727,2.727,0,0,1,1.516-2.453l11.336-5.668a8.833,8.833,0,0,1,6.334-.587l12.771,3.648,3.093.077,38.111-20.059Zm0,0" transform="translate(1106 6420)" fill="#464646"/>
  </g>
</svg>
