<svg xmlns="http://www.w3.org/2000/svg" width="493.259" height="297.034" viewBox="0 0 493.259 297.034">
  <g id="contact-us-img" transform="translate(0 -0.018)">
    <path id="Path_8265" data-name="Path 8265" d="M719.709,314.436l4.23-.731c.406-.071.808-.158,1.214-.231a34.72,34.72,0,0,1,22.169-64l-5.544,13.191,13.134-11.468a.6.6,0,0,1,.09.03,34.722,34.722,0,0,1,21.215,44.286c-.22.625-.481,1.223-.732,1.827a41.511,41.511,0,0,0,10.166-6.809c5.873-5.627,9.09-13.393,12.686-22.96,7.124-18.959,13.982-38.192,20.567-57.467a34.707,34.707,0,0,1-16.226-42.03c.353-1,.761-1.967,1.195-2.915.108-.237.218-.473.331-.707.44-.909.905-1.8,1.415-2.654.083-.14.177-.271.262-.41q.666-1.081,1.4-2.1c.183-.255.366-.508.556-.757.558-.73,1.136-1.44,1.746-2.118.2-.227.42-.439.629-.66q.7-.741,1.443-1.438c.26-.244.518-.491.785-.726.068-.06.132-.127.2-.186l.01.014a34.7,34.7,0,0,1,44.395-1l-7.214,17.166,12.985-11.332a34.53,34.53,0,0,1,1.283,40.894l.036.012c-.142.208-.3.4-.448.6q-.411.576-.841,1.132c-.369.475-.752.934-1.143,1.387-.3.342-.586.686-.894,1.015-.45.481-.921.936-1.395,1.389-.277.264-.542.542-.826.8q-1.12,1-2.317,1.9c-.28.21-.575.395-.861.6-.56.394-1.123.782-1.7,1.142-.361.223-.731.427-1.1.637-.533.3-1.071.6-1.619.873-.389.195-.781.38-1.176.56-.563.257-1.133.495-1.709.721-.387.152-.771.306-1.163.444-.647.228-1.3.426-1.963.615-.333.1-.661.205-1,.291-.99.253-1.991.468-3,.632-.191.031-.385.043-.576.071-.84.122-1.684.221-2.535.281-.366.026-.734.029-1.1.044-.688.027-1.376.04-2.068.026-.4-.009-.807-.029-1.212-.052q-1.011-.057-2.024-.176c-.4-.046-.8-.092-1.2-.153-.724-.11-1.446-.253-2.169-.41-.047-.01-.095-.017-.142-.027q-4.169,12.2-8.492,24.343a34.7,34.7,0,0,1,50.314,4.147l-12,13.276,16.253-6.488a34.6,34.6,0,0,1,1.389,26.433,34.06,34.06,0,0,1-4.41,8.533,34.708,34.708,0,0,1-62.714-15.228c-.306.816-.6,1.642-.907,2.457-3.173,8.44-7.12,18.944-15.048,26.538-5.374,5.147-11.985,8.413-18.329,11.174q-6.2,2.7-12.557,4.986a34.8,34.8,0,0,1-15.539,4.952c-6.691,1.859-13.466,3.41-20.3,4.608l-4.264.735c-3.832.656-7.762,1.332-11.661,2.111.561.167,1.124.326,1.682.522a34.733,34.733,0,0,1,23.187,33.792l-26.733,8.205,24.19,3.841A34.738,34.738,0,0,1,674.123,382.7q.368,1.234.74,2.464c.491,1.63.978,3.25,1.446,4.856,6.365,21.872,3.626,39.077-7.715,48.444l-6.154-7.449c11.038-9.118,7.613-27.906,4.591-38.3-.459-1.576-.939-3.168-1.421-4.769-4.146-13.773-8.845-29.384-2.759-43.73C672.025,322.6,698.465,318.074,719.709,314.436Z" transform="translate(-384.135 -144.859)" fill="#dfd5eb"/>
    <path id="Path_8266" data-name="Path 8266" d="M544.693,526.508h-187.3a23.159,23.159,0,0,1-23.159-23.159V417.536a9.175,9.175,0,0,1,2.863-6.659l99.252-94.083a21.362,21.362,0,0,1,29.392,0l94.632,89.7a23.982,23.982,0,0,1,7.484,17.405v79.447a23.159,23.159,0,0,1-23.16,23.159Z" transform="translate(-216.954 -230.095)" fill="#bb85ff"/>
    <path id="Path_8267" data-name="Path 8267" d="M240.954,387.992H472.629v93.579a13.984,13.984,0,0,1-13.984,13.984H254.938a13.984,13.984,0,0,1-13.984-13.984V387.992Z" transform="translate(-123.678 -199.142)" opacity="0.1"/>
    <path id="Path_8268" data-name="Path 8268" d="M333.73,521.351" transform="translate(-216.697 -338.098)" fill="none" stroke="#3f3d56" stroke-miterlimit="10" stroke-width="1"/>
    <rect id="Rectangle_3321" data-name="Rectangle 3321" width="172.297" height="172.297" rx="26.181" transform="translate(147.695 115.113)" fill="#6c63ff"/>
    <path id="Path_8269" data-name="Path 8269" d="M475.75,395.942v94.69h-172.3v-94.69L389.6,437.58Z" transform="translate(-155.759 -203.223)" opacity="0.1"/>
    <path id="Path_8270" data-name="Path 8270" d="M450.541,580.615,340.157,527.263a4.479,4.479,0,0,0-6.428,4.032V623.09a13.984,13.984,0,0,0,13.984,13.984H553.368a13.984,13.984,0,0,0,13.984-13.984V532.868a5.465,5.465,0,0,0-7.843-4.921Z" transform="translate(-216.697 -340.904)" fill="#bb85ff"/>
    <rect id="Rectangle_3322" data-name="Rectangle 3322" width="48.185" height="6.814" transform="translate(162.54 130.931)" fill="#f2f2f2"/>
    <rect id="Rectangle_3323" data-name="Rectangle 3323" width="143.094" height="3.894" transform="translate(158.646 155.753)" fill="#f2f2f2"/>
    <rect id="Rectangle_3324" data-name="Rectangle 3324" width="143.094" height="3.894" transform="translate(158.646 168.895)" fill="#f2f2f2"/>
    <rect id="Rectangle_3325" data-name="Rectangle 3325" width="143.094" height="3.894" transform="translate(158.646 182.036)" fill="#f2f2f2"/>
    <line id="Line_297" data-name="Line 297" x2="401.052" transform="translate(29.667 296.17)" fill="none" stroke="#3f3d56" stroke-miterlimit="10" stroke-width="1"/>
    <path id="Path_8271" data-name="Path 8271" d="M93.275,630.212c0,28.7,18,51.918,40.251,51.918" transform="translate(-93.275 -393.975)" fill="#46455b"/>
    <path id="Path_8272" data-name="Path 8272" d="M175.975,681.515c0-29.019,20.09-52.5,44.918-52.5" transform="translate(-135.724 -393.36)" fill="#6c63ff"/>
    <path id="Path_8273" data-name="Path 8273" d="M123.239,635.557c0,27.259,11.48,49.316,25.667,49.316" transform="translate(-108.655 -396.719)" fill="#6c63ff"/>
    <path id="Path_8274" data-name="Path 8274" d="M175.975,666.136c0-37.08,23.221-67.085,51.918-67.085" transform="translate(-135.724 -377.981)" fill="#46455b"/>
    <path id="Path_8275" data-name="Path 8275" d="M158.577,734.382s5.708-.176,7.429-1.4,8.781-2.688,9.208-.723,8.578,9.771,2.134,9.823-14.974-1-16.691-2.05S158.577,734.382,158.577,734.382Z" transform="translate(-126.794 -445.861)" fill="#a8a8a8"/>
    <path id="Path_8276" data-name="Path 8276" d="M177.462,744.643c-6.445.052-14.974-1-16.691-2.05-1.308-.8-1.829-3.655-2-4.973l-.191.007s.362,4.6,2.079,5.65,10.247,2.1,16.691,2.05c1.86-.015,2.5-.677,2.468-1.657C179.556,744.262,178.847,744.631,177.462,744.643Z" transform="translate(-126.794 -449.106)" opacity="0.2"/>
    <path id="Path_8277" data-name="Path 8277" d="M809.468,299.032c-.292,2.606-2.28,4.706-3.017,7.222-1.109,3.788.808,7.854,3.431,10.8a23.926,23.926,0,0,0,16.662,7.911,7.108,7.108,0,0,0,2.755-.3,5.9,5.9,0,0,0,2.1-1.432,13.4,13.4,0,0,0,3.457-7.5,39.913,39.913,0,0,0,.093-8.378,4.73,4.73,0,0,0-.31-1.69,4.327,4.327,0,0,0-1.088-1.337,25.342,25.342,0,0,0-4.668-3.391,5.36,5.36,0,0,1-1.956-1.5,4.837,4.837,0,0,1-.6-1.792l-.516-2.628a5.163,5.163,0,0,0-.757-2.13c-.911-1.229-2.653-1.4-4.182-1.456l-5.6-.22c-1.742-.068-4.037-.568-5.737-.226-1.588.319-1.06,1.783-.772,3.115A22.514,22.514,0,0,1,809.468,299.032Z" transform="translate(-459.174 -219.8)" fill="#f5deb8"/>
    <path id="Path_8279" data-name="Path 8279" d="M855.454,535.035q-1.19,13.048-2.38,26.092c-.621,6.844-1.254,13.715-2.472,20.47-.421,2.328-.914,4.644-1.5,6.94-1.627,6.375-3.987,12.605-4.748,19.14-.024.188-.044.381-.064.573a16.633,16.633,0,0,1-.813,4.247c-.38,1-.966,1.907-1.378,2.893a18.46,18.46,0,0,0-1.03,6.286,27.1,27.1,0,0,0-9.332-3.189c-1.583-.236-3.346-.4-4.423-1.587-1.194-1.306-1.062-3.306-.861-5.061q.943-8.174,1.883-16.339a42.607,42.607,0,0,1,1.19-6.94c.216-.757.477-1.5.741-2.248.365-1.026.733-2.052,1.01-3.105a37.405,37.405,0,0,0,.833-5.173c.645-5.481,1.422-10.95,2.1-16.428l.036-.288a168.008,168.008,0,0,0,1.575-25.006c-.032-1.238-.084-2.476-.164-3.718-.112-1.8-.276-2.753,1.214-3.879a28.03,28.03,0,0,1,5.7-2.925c1.014-.441,12.177-4.4,12.437-3.534a21.741,21.741,0,0,1,.818,5.7A63.448,63.448,0,0,1,855.454,535.035Z" transform="translate(-469.538 -338.5)" fill="#605d82"/>
    <path id="Path_8280" data-name="Path 8280" d="M854.763,622.923c-.421,2.328-.914,4.644-1.5,6.94-1.627,6.375-3.987,12.605-4.748,19.14-.024.188-.044.38-.064.573-4.976-7.108-9.167-14.753-14.024-21.937.365-1.026.733-2.051,1.01-3.105a37.4,37.4,0,0,0,.833-5.173c.645-5.481,1.422-10.95,2.1-16.428l.036-.288a17.016,17.016,0,0,0,1.214,3.37c3.261,6.627,11.011,9.977,14.8,16.319Q854.6,622.628,854.763,622.923Z" transform="translate(-473.699 -379.825)" opacity="0.1"/>
    <path id="Path_8281" data-name="Path 8281" d="M793.222,490.565a123.292,123.292,0,0,0,1.864,15.832l1.752,10.831c.959,5.928,1.957,11.977,4.762,17.286,2.1,3.972,5.122,7.361,7.857,10.924,6.724,8.76,11.776,18.683,18.151,27.7,1.853,2.621,4.5,5.455,7.665,4.908,2.076-.359,3.584-2.088,5.215-3.42,1.924-1.571,4.242-2.721,5.756-4.69s1.81-5.242-.24-6.644a10.815,10.815,0,0,0-2.347-.96c-3.179-1.209-5.237-4.313-6.546-7.452s-2.1-6.514-3.847-9.434c-3.79-6.343-11.54-9.692-14.8-16.322-1.827-3.713-2-7.993-2.141-12.129l-.356-10.543a7.7,7.7,0,0,1,.4-3.406c1.248-2.806,5.016-3.068,8.066-3.424a27.591,27.591,0,0,0,9.885-3.119,10.313,10.313,0,0,0,4.414-3.92,12.637,12.637,0,0,0,1.077-5.312l1.056-19.107a11.964,11.964,0,0,0-.406-4.885c-1.455-3.87-6.341-5.134-10.471-4.949-7.685.344-14.78,3.649-22.026,5.882a56.028,56.028,0,0,1-5.46,1.424c-1.626.326-3.595.191-5.146.714-2.758.93-2.688,6.962-3.079,9.464a79.671,79.671,0,0,0-1.054,14.75Z" transform="translate(-452.539 -305.742)" fill="#605d82"/>
    <path id="Path_8282" data-name="Path 8282" d="M875.885,692.935a4.886,4.886,0,0,1,1.076,2.631,89.84,89.84,0,0,1,1.521,15.912,2.6,2.6,0,0,0,.286,1.442,1.81,1.81,0,0,0,.748.6c1.959.933,4.232-.367,5.864-1.8,3.026-2.65,5.586-6.208,5.758-10.226a23.722,23.722,0,0,1,.109-3.1,12.947,12.947,0,0,1,1.927-4.155,35.058,35.058,0,0,0,3.186-7.141c.3-.936.5-2.115-.238-2.768a2.668,2.668,0,0,0-.872-.453l-8.848-3.285c-.767-.285-2.675,4.616-2.977,5.152a4.049,4.049,0,0,1-2.963,2.357c-1.517.309-3.323-.134-4.738.622C873.329,690.006,874.529,691.568,875.885,692.935Z" transform="translate(-494.192 -419.829)" fill="#535070"/>
    <path id="Path_8283" data-name="Path 8283" d="M838.826,710.569a2.714,2.714,0,0,0-.673-.854,3.046,3.046,0,0,0-1.359-.461c-1.684-.286-3.681-.474-4.843.778-1.09,1.174-.9,3.086-1.814,4.4-.289.417-.679.761-.93,1.2a4.532,4.532,0,0,0-.408,2.156c-.047,2.042-.094,4.087.047,6.125a8.57,8.57,0,0,0,1.474,4.834c1.714,2.147,4.8,2.456,7.548,2.6l2.222.113a4.334,4.334,0,0,0,1.821-.167,3,3,0,0,0,1.571-1.728c1.156-2.875-.675-5.972-1.8-8.858C840.382,717.388,840.615,713.705,838.826,710.569Z" transform="translate(-470.786 -434.438)" fill="#535070"/>
    <path id="Path_8284" data-name="Path 8284" d="M803.61,260.826a1.837,1.837,0,0,1,.125-.857c.326-.575,1.175-.419,1.816-.257,2.578.65,5.294.062,7.949.213s5.644,1.479,6.178,4.083a19.383,19.383,0,0,0,4.9-5.035,6.045,6.045,0,0,0,1.278-3.687c-.145-1.907-1.744-3.333-3.226-4.542l-4.416-3.605a6.653,6.653,0,0,0-1.977-1.257,9.855,9.855,0,0,0-3.21-.182c-3.215,0-6.642-1.461-9.5.009a10.254,10.254,0,0,0-2.96,2.692l-3.941,4.666a2.493,2.493,0,0,0-.63,1.068,4.748,4.748,0,0,0,.282,1.7c.186,1.042-.263,2.155.082,3.156.573,1.662,2.59,1.9,3.824,2.85.46.355,1.18,1.558,1.728,1.544C802.9,263.359,803.584,261.594,803.61,260.826Z" transform="translate(-453.959 -196.279)" fill="#3f3d56"/>
    <circle id="Ellipse_275" data-name="Ellipse 275" cx="12.621" cy="12.621" r="12.621" transform="translate(343.717 53.058)" fill="#ffe7be"/>
    <path id="Path_8285" data-name="Path 8285" d="M799.452,322.166a6.114,6.114,0,0,0-5.952-4.1,1.815,1.815,0,0,1-1.1-.139,1.512,1.512,0,0,1-.451-.564,22.051,22.051,0,0,1-1.84-4.351c-.2-.668-.477-1.456-1.153-1.629a1.557,1.557,0,0,0-1.469.639,12.944,12.944,0,0,1-1.05,1.32c-1.587,1.419-4.4.126-6.086,1.428-.275.213-.5.485-.791.679a3.7,3.7,0,0,1-.927.4,88.894,88.894,0,0,0-9.552,3.741c1.121,6.749,2.269,13.616,4.9,19.933,1.25,3.006,2.667,5.951,3.668,9.049,2.218,6.865,2.316,14.209,2.341,21.423.017,4.937-.007,9.98-1.6,14.652a13.831,13.831,0,0,0-.9,3.219,3.335,3.335,0,0,0,1.13,3,3.863,3.863,0,0,0,1.743.612c2.768.406,5.558-.33,8.283-.962,7.3-1.692,14.755-2.66,22.19-3.625l12.46-1.618a7.234,7.234,0,0,0,2.578-.666c2.28-1.248,2.5-4.678,1.08-6.858a37.24,37.24,0,0,1-2.207-3.01c-.57-1.108-.619-2.657.363-3.425,2-1.561,1.4-4.457,1.5-6.99q.4-10.624-.108-21.257a42.359,42.359,0,0,1-.07-4.409,39.037,39.037,0,0,1,1.374-7.357l3.786-14.907a7.768,7.768,0,0,0-4.677-3c-1.794-.45-3.662-.583-5.429-1.13-3.619-1.122-6.842-3.968-10.621-3.7a1.928,1.928,0,0,0-.823.2c-.853.483-.718,1.711-.772,2.69-.12,2.164-1.712,3.973-3.47,5.241s-3.766,2.193-5.38,3.639a2.4,2.4,0,0,0-.955,1.837Z" transform="translate(-440.158 -228.865)" fill="#3f3d56"/>
    <path id="Path_8286" data-name="Path 8286" d="M721.655,360.661A14.894,14.894,0,0,1,719,362.027a8.728,8.728,0,0,0-2.543,1.234,3.985,3.985,0,0,0-.884,1.093,4.859,4.859,0,0,0,4.48,7.239,9.752,9.752,0,0,0,3.313-.988l8.9-3.857c1.507-.653,3.134-1.418,3.846-2.9a.674.674,0,0,0,.087-.46.76.76,0,0,0-.365-.384,19.89,19.89,0,0,1-5.183-4.888c-.365-.5-.812-1.667-1.328-1.964C727.44,355.069,723.163,359.682,721.655,360.661Z" transform="translate(-412.371 -253.221)" fill="#ffe7be"/>
    <path id="Path_8287" data-name="Path 8287" d="M901.848,359.084l3.282,3.749c.7.8,1.41,1.611,2.052,2.466a28.786,28.786,0,0,1,3.759,7.081A12.366,12.366,0,0,1,912,378.234a14.314,14.314,0,0,1-.821,2.977,37.052,37.052,0,0,1-2.23,5.371,30.591,30.591,0,0,1-2.51,3.761,87.824,87.824,0,0,1-8.32,9.516c-1.122,1.111-1.593,2.907-2.081,4.408-.9,2.769-3.044,4.926-5.118,6.971a14.227,14.227,0,0,1-2.2,1.891,7.157,7.157,0,0,1-4,1.139,4.39,4.39,0,0,1-1.8-.373,4.656,4.656,0,0,1-2.287-3.878,8.248,8.248,0,0,1,.69-4.147c1.883-4.172,6.72-5.98,10.138-9.024a32.937,32.937,0,0,0,5.049-6.245,21.594,21.594,0,0,0,2.553-4.476c.763-2.037.466-4.449,1.133-6.519.282-.875.783-1.666,1.086-2.534a2.957,2.957,0,0,0-.151-2.65,3.852,3.852,0,0,0-1.486-1.088c-2.184-1.108-4.63-2.535-5.048-4.948a5.3,5.3,0,0,1,.978-3.779,15.742,15.742,0,0,1,2.754-2.886C899.286,360.878,900.893,359.928,901.848,359.084Z" transform="translate(-497.398 -254.809)" fill="#ffe7be"/>
    <path id="Path_8288" data-name="Path 8288" d="M708.438,372.834a6.1,6.1,0,0,0-2.473-2.947,4.558,4.558,0,0,0-3.6-.015,13.514,13.514,0,0,0-3.155,1.908l-2.829,2.085a6.963,6.963,0,0,0-1.68,1.55,6.543,6.543,0,0,0-.875,2.4,17.152,17.152,0,0,0-.445,5.936c.449,3.19,2.372,5.975,4.489,8.4,1.323,1.517,2.956,3.049,4.968,3.113a2.278,2.278,0,0,0,2.2-1.1,2.751,2.751,0,0,0,.2-.984c.217-3.558-1.055-7.034-2.54-10.275a6.587,6.587,0,0,1-.819-2.761.756.756,0,0,1,.121-.462.781.781,0,0,1,.483-.236c2.031-.4,5.531,1.176,6.956-1.08C710.36,376.9,709.094,374.161,708.438,372.834Z" transform="translate(-401.26 -260.161)" fill="#ffe7be"/>
    <path id="Path_8289" data-name="Path 8289" d="M802.25,252.667a1.839,1.839,0,0,1,.125-.857c.325-.575,1.175-.419,1.816-.257,2.578.65,5.294.062,7.949.213s5.644,1.479,6.178,4.083a19.379,19.379,0,0,0,4.9-5.035,6.044,6.044,0,0,0,1.279-3.687c-.145-1.907-1.745-3.333-3.226-4.542l-4.416-3.605a6.653,6.653,0,0,0-1.977-1.257,9.855,9.855,0,0,0-3.209-.182c-3.215,0-6.642-1.461-9.5.009a10.255,10.255,0,0,0-2.96,2.692l-3.942,4.666a2.492,2.492,0,0,0-.63,1.068,4.745,4.745,0,0,0,.282,1.7c.186,1.042-.263,2.155.082,3.156.573,1.662,2.591,1.9,3.824,2.85.46.355,1.18,1.558,1.728,1.544C801.54,255.2,802.224,253.434,802.25,252.667Z" transform="translate(-453.261 -192.091)" fill="#3f3d56"/>
    <path id="Path_8290" data-name="Path 8290" d="M748.112,335.938a5.134,5.134,0,0,0-1.321,1.23c-.463.7-.557,1.583-.954,2.322-.851,1.581-2.84,2.143-4.081,3.44a1.287,1.287,0,0,0-.392.673,1.5,1.5,0,0,0,.334.968l5.985,9.409c1.993.175,3.9-1.073,5.9-.907a5.924,5.924,0,0,0,2.22.1,6.367,6.367,0,0,0,1.425-.871c1.189-.752,2.773-.84,3.771-1.832a5.166,5.166,0,0,0,1.068-3.792,15.249,15.249,0,0,0-.356-3.489c-.881-3.612-3.643-6.383-5.375-9.582-.843-1.557-1.3-2.469-3.086-1.4S749.8,334.7,748.112,335.938Z" transform="translate(-425.93 -240.774)" fill="#3f3d56"/>
    <path id="Path_8291" data-name="Path 8291" d="M893.726,327.239a14,14,0,0,1,3.011,2.637c.912,1.176,1.428,2.614,2.3,3.817a42.583,42.583,0,0,0,2.967,3.142,24.261,24.261,0,0,1,3.421,5.573,83.256,83.256,0,0,1-7.742,8.75,2.5,2.5,0,0,1-1.176.773,1.9,1.9,0,0,1-1.662-.677c-.431-.452-.737-1.01-1.149-1.479a5.919,5.919,0,0,0-3.659-1.77,25.13,25.13,0,0,0-4.146-.057,1.639,1.639,0,0,1-.885-.149,1.487,1.487,0,0,1-.483-.554c-1.62-2.757-1.1-6.219-.527-9.366l1.312-7.221a16.2,16.2,0,0,1,1.092-4.013c.5-1.062,1.608-2.863,2.974-2.545S892.567,326.406,893.726,327.239Z" transform="translate(-498.857 -236.833)" fill="#3f3d56"/>
    <ellipse id="Ellipse_276" data-name="Ellipse 276" cx="19.955" cy="19.992" rx="19.955" ry="19.992" transform="translate(134.797 97.834)" fill="#fff"/>
    <path id="Path_8292" data-name="Path 8292" d="M386.079,338.851A23.849,23.849,0,1,0,409.928,362.7,23.849,23.849,0,0,0,386.079,338.851Zm-4.9,36.565L368.96,363.193l3.428-3.428,8.806,8.806,18.586-18.586,3.428,3.428-22.026,22Z" transform="translate(-231.326 -244.424)" fill="#57b894"/>
  </g>
</svg>
