<svg xmlns="http://www.w3.org/2000/svg" width="36.621" height="36.621" viewBox="0 0 36.621 36.621">
  <path id="cost-img" d="M43.554,48.4a9.3,9.3,0,0,1,8.632-.84,9.079,9.079,0,0,1,2.2,1.265v10.8H38.734a7.19,7.19,0,0,1-3.448-.881l-11.1-6.056A2.257,2.257,0,0,1,23,50.694v-.071a2.307,2.307,0,0,1,.948-1.85,2.185,2.185,0,0,1,2.3-.207l10.19,5.1a.641.641,0,0,0,.292.07h9.81V52.428h-8.5a1.962,1.962,0,0,1,0-3.924h5.153a.658.658,0,0,0,.36-.108Zm16.067.762V59.621H55.7V49.158Zm-1.308,7.194H57.006v1.307h1.307ZM44.58,28.232a7.182,7.182,0,0,1,7.194,7.193v10.6A10.6,10.6,0,0,0,43,47.2h-4.96a3.27,3.27,0,0,0-3.12,4.249L30.847,49.4V35.425a7.2,7.2,0,0,1,7.194-7.193Zm-2.615,4.577H40.657v1.308H40a2.616,2.616,0,1,0,0,5.232h2.616a1.308,1.308,0,0,1,0,2.616H38.04v1.308h2.616V44.58h1.308V43.273h.654a2.616,2.616,0,0,0,0-5.232H40a1.308,1.308,0,1,1,0-2.616h4.577V34.117H41.964V32.81Zm-8.022-1.6a5.841,5.841,0,0,0-1.788,4.221v2.616h1.308V35.425a4.549,4.549,0,0,1,1.39-3.283Zm2.626-1.478a5.912,5.912,0,0,0-1.47.6l.653,1.132a4.552,4.552,0,0,1,1.144-.47ZM46.139,23l-1.963,3.924H38.445L36.483,23h9.655Z" transform="translate(-23 -23)" fill="#24b5b4"/>
</svg>
