<svg xmlns="http://www.w3.org/2000/svg" xmlns:xlink="http://www.w3.org/1999/xlink" width="256.626" height="256.626" viewBox="0 0 256.626 256.626"><defs><linearGradient id="a" x1="0.5" y1="1" x2="0.5" gradientUnits="objectBoundingBox"><stop offset="0" stop-color="#bb85ff"/><stop offset="1" stop-color="#ead9ff"/></linearGradient><linearGradient id="b" x1="0.5" y1="1" x2="0.5" gradientUnits="objectBoundingBox"><stop offset="0" stop-color="#bb85ff"/><stop offset="1" stop-color="#dec4ff"/></linearGradient></defs><g transform="translate(0 31.076)"><path d="M157.885,287.55H7.518A7.514,7.514,0,0,1,0,280.032V69.518A7.514,7.514,0,0,1,7.518,62h90.22a7.514,7.514,0,0,1,7.518,7.518V242.44h52.628a7.514,7.514,0,0,1,7.518,7.518v30.073A7.514,7.514,0,0,1,157.885,287.55Z" transform="translate(0 -62)" fill="url(#a)"/></g><g transform="translate(91.223 0)"><g transform="translate(0 0)"><path d="M287.257,60.147,279.738,0h-90.22A7.445,7.445,0,0,0,182,7.518V218.032a7.445,7.445,0,0,0,7.518,7.518H339.885a7.445,7.445,0,0,0,7.518-7.518V67.665Z" transform="translate(-182)" fill="url(#b)"/></g><g transform="translate(30.073)"><path d="M317.183,67.665H377.33a7.05,7.05,0,0,0-2.256-5.262L314.927,2.256A7.05,7.05,0,0,0,309.665,0V60.147A7.519,7.519,0,0,0,317.183,67.665Zm22.555,37.592h-90.22a7.518,7.518,0,0,0,0,15.037h90.22a7.518,7.518,0,1,0,0-15.037Zm0,45.11h-90.22a7.518,7.518,0,1,0,0,15.037h90.22a7.518,7.518,0,1,0,0-15.037Z" transform="translate(-242 0)" fill="#e4cfff"/></g></g></svg>