<svg id="door-been" xmlns="http://www.w3.org/2000/svg" width="158.241" height="257.463" viewBox="0 0 158.241 257.463">
  <path id="Path_7511" data-name="Path 7511" d="M1865.858,598.265s-3.907-6.943,0-8.356,5.675-.11,5.861,1.472-1.489,7.814-1.489,7.814Z" transform="translate(-1748.08 -573.023)" fill="#ffb27d"/>
  <path id="Path_7512" data-name="Path 7512" d="M1681.088,669.164a126.353,126.353,0,0,1-19.585,2.011,109.2,109.2,0,0,1-15.054-.677q-1.775-.2-3.412-.454c-11.534-1.749-17.9-4.85-17.9-4.85s10.538-22.059,19.051-21.213c9.988,1,26.912,9.958,28.594,7.444,1.894-2.832,3.479-27.118,3.479-27.118,4.428-3.033,7.072.164,7.072.164S1691.98,667.2,1681.088,669.164Z" transform="translate(-1560.179 -599.516)" fill="#f99746"/>
  <path id="Path_7513" data-name="Path 7513" d="M1749.824,794.376a126.35,126.35,0,0,1-19.585,2.012,109.21,109.21,0,0,1-15.054-.677c-2.657-8.451-4.568-17.082.776-11.878C1725.389,793.01,1749.824,794.376,1749.824,794.376Z" transform="translate(-1628.915 -724.728)" fill="#ed7d2b"/>
  <path id="Path_7514" data-name="Path 7514" d="M1620.829,1659.7s-.758,8.769,1.1,9.682l23.723-.049s0-2.738-3.811-3.346-10.5-2.84-11.637-7.808S1620.829,1659.7,1620.829,1659.7Z" transform="translate(-1556.673 -1411.94)" fill="#233862"/>
  <path id="Path_7515" data-name="Path 7515" d="M1591.93,1074.618c-.117,5.734-.392,11.649-.932,16.965-2.562,25.224-3.463,55.7-3.831,61.576-.638,10.2-2.653,26.495-2.653,26.495s-4,3.794-11.787,1.983a265.183,265.183,0,0,1-7.9-48.182c-.022-.405-.044-.813-.065-1.22-.168-3.268-.342-7-.521-11.032-1.187-26.983-2.476-67.065-2.476-67.065l29.77-6.99S1592.222,1060.323,1591.93,1074.618Z" transform="translate(-1510.358 -932.998)" fill="#2a4e96"/>
  <path id="Path_7516" data-name="Path 7516" d="M1591.93,1074.618c-7.545,13.017-21.925,37-27.686,46.586-1.187-26.983-2.476-67.065-2.476-67.065l29.77-6.99S1592.222,1060.323,1591.93,1074.618Z" transform="translate(-1510.358 -932.998)" fill="#233862"/>
  <path id="Path_7517" data-name="Path 7517" d="M1327.459,1057.7s-4.844,5.7-5.28,7.276-1.212,7.271-.8,8.98,3.637-4.768,4.808-5.46-.88,2.577-.479,3.122,2.714-1.908,3.615-2.738.813-5.3,1.9-7.941S1327.459,1057.7,1327.459,1057.7Z" transform="translate(-1321.264 -941.292)" fill="#ffb27d"/>
  <path id="Path_7518" data-name="Path 7518" d="M1332.034,1618.843s-4.222,3.853-3.4,6.591,4.635,4.563,5.149,7.91,2.575,5.172,4.429,5.172h8.838s1.365-2.355-1.931-3.065-4.538-4.642-4.332-8.292a64.323,64.323,0,0,0-.309-8.518l-7-1.622Z" transform="translate(-1326.976 -1381.053)" fill="#233862"/>
  <path id="Path_7519" data-name="Path 7519" d="M1416.357,1049.382s-27.867,59.626-42.7,85.788-19.464,33.463-19.464,33.463-8.5-3.347-9.269-5.628c0,0,5.671-50.508,15.6-62.82,5.611-6.957,12.2-27.836,12.512-35.137s6.819-24.727,6.819-24.727Z" transform="translate(-1339.869 -927.631)" fill="#2a4e96"/>
  <path id="Path_7520" data-name="Path 7520" d="M1534.231,777.737a48.294,48.294,0,0,1-26.767,6.721c-6.883-.3-20.538-2.252-22.741-7.727-.517-1.285-.138-2.916.638-5.42,2.014-6.507,6.71-18.9,5.292-46.372a45.122,45.122,0,0,1,.184-7.21c1.477-13.533,9.233-21.547,16.729-24.165,18.281-6.39,24.375,2.462,24.375,2.462s8.081,6.4,9.3,19.763C1543.674,742.514,1534.231,777.737,1534.231,777.737Z" transform="translate(-1449.595 -653.174)" fill="#f99746"/>
  <path id="Path_7521" data-name="Path 7521" d="M1617.52,632.613s8.388,5.1,17.486,3.659c0,0,1.8-.457.914-2.569a26.986,26.986,0,0,0,.808-2.817,42.554,42.554,0,0,0,1.042-4.6l-5.163-5.427-4.89-5.186C1626.366,628.073,1617.52,632.613,1617.52,632.613Z" transform="translate(-1554.193 -593.759)" fill="#ffb27d"/>
  <path id="Path_7522" data-name="Path 7522" d="M1661.557,637.668s2.81,7.51,9.795,10.508c.8-2.914,1.317-5.964,1.317-5.964l-5.438-4.059Z" transform="translate(-1588.816 -611.048)" fill="#ed985f"/>
  <path id="Path_7523" data-name="Path 7523" d="M1671.811,567.813s-16.011,2-17.136-7.838-3.947-16.207,6.228-17.9,12.594,1.843,13.78,5.038S1675.947,567.039,1671.811,567.813Z" transform="translate(-1582.441 -535.543)" fill="#ffb27d"/>
  <path id="Path_7524" data-name="Path 7524" d="M1631.1,518.068c-.138-.171-.467-.317-1.207-.386a3.01,3.01,0,0,1,1.4-.338c.194-1.025.812-2.83,2.6-3.206a2.226,2.226,0,0,0-1.139,1.564c2.135-2.033,6.6-3.4,18.756-1.979,16.025,1.876,10.338,11.966,8.211,13.115s-7.238-2.413-11.126-2.252-4.838,5.735-6.182,6.454-.776-.62-2.525-1.492-2.03,2.071-1.588,4.007-2.1,4.373-2.1,4.373l-2.37-2.754c-2.37-2.754-4.273-14.113-3.058-16.473C1630.888,518.492,1630.995,518.28,1631.1,518.068Z" transform="translate(-1563.924 -513.137)" fill="#2c3a64"/>
  <g id="Group_4544" data-name="Group 4544" transform="translate(87.364 7.914)">
    <path id="Path_7525" data-name="Path 7525" d="M1763.636,587.8l-27.182.242-.186-4.089,27.1-2.1Z" transform="translate(-1734.921 -575.077)" fill="#2a4e96"/>
    <path id="Path_7526" data-name="Path 7526" d="M1850.192,578.685l-29.594.428-.338-7.435,29.51-2.287Z" transform="translate(-1800.958 -565.28)" fill="#2a4e96"/>
    <path id="Path_7527" data-name="Path 7527" d="M1960.172,570.476l-24.956.031-.456-10.037,24.855-2.261Z" transform="translate(-1890.983 -556.488)" fill="#233862"/>
    <path id="Path_7528" data-name="Path 7528" d="M2047.789,565.841h0a1.4,1.4,0,0,0,1.331-1.457l-.586-12.893a1.4,1.4,0,0,0-1.457-1.331h0a1.4,1.4,0,0,0-1.331,1.457l.586,12.893A1.4,1.4,0,0,0,2047.789,565.841Z" transform="translate(-1978.244 -550.158)" fill="#233862"/>
    <path id="Path_7529" data-name="Path 7529" d="M1731.413,593.464h0a1.24,1.24,0,0,1-1.3-1.183l-.152-3.346a1.24,1.24,0,0,1,1.183-1.3h0a1.24,1.24,0,0,1,1.3,1.183l.152,3.345A1.24,1.24,0,0,1,1731.413,593.464Z" transform="translate(-1729.964 -579.627)" fill="#2a4e96"/>
  </g>
  <path id="Path_7530" data-name="Path 7530" d="M1488.582,868.611c2.014-6.508,6.71-18.9,5.292-46.372a45.079,45.079,0,0,1,.184-7.21h0c6.016-.517,15.213,5.987,15.213,5.987S1503.609,855.546,1488.582,868.611Z" transform="translate(-1452.816 -750.474)" fill="#ed7d2b"/>
  <path id="Path_7531" data-name="Path 7531" d="M1400.23,694.905s-15.426,2.652-23.472,12.474-20.989,23.673-24.049,28.522-11.555,37.856-11.555,37.856.561,1.061,2.9,1.679a5.525,5.525,0,0,0,3.869-.326s11.255-19.262,15.491-28.884c1.76-4,32.2-19.831,43.639-18.19C1411.551,728.681,1400.23,694.905,1400.23,694.905Z" transform="translate(-1336.903 -656.05)" fill="#f99746"/>
  <path id="Path_7532" data-name="Path 7532" d="M1863.541,572.362s3.318,2.03,5.3,1.171,1.81-1.645,1.81-1.645S1864.657,570.225,1863.541,572.362Z" transform="translate(-1747.624 -558.845)" fill="#ffb27d"/>
  <path id="Path_7533" data-name="Path 7533" d="M1466.726,742.465s-6.77,42.742-54.8,55.187l-5.232,10.323,9.192,1.555s54.685-15.842,53.949-67.821Z" transform="translate(-1388.429 -692.849)" fill="#bc3f3f"/>
  <path id="Path_7534" data-name="Path 7534" d="M1674.484,713.329l-2.217.217v3.21l3.266,3.4,3.106-.756v-4.454l-2.233-1.613Z" transform="translate(-1597.236 -670.536)" fill="#a02e2e"/>
  <path id="Path_7535" data-name="Path 7535" d="M1616,673.566s-2.146.484-7.053,4.561c0,0,4.88,10.358,15.175,11.6a34.4,34.4,0,0,1,.578-7.66S1616.537,679.145,1616,673.566Z" transform="translate(-1547.45 -639.273)" fill="#ed7d2b"/>
  <path id="Path_7536" data-name="Path 7536" d="M1682.639,702.853s5.024,2.667,5.4,6.822c0,0,1.921-3.042,1.363-5.149a17.173,17.173,0,0,0-2.279-4.521S1687.291,702.543,1682.639,702.853Z" transform="translate(-1605.392 -660.06)" fill="#ed7d2b"/>
</svg>
