<svg id="dp-5" xmlns="http://www.w3.org/2000/svg" width="26.413" height="26.906" viewBox="0 0 26.413 26.906">
  <path id="Path_7295" data-name="Path 7295" d="M187.22,481.735a2.732,2.732,0,0,0-2.159-2.437l-4.506-.948-1.252-.911V473.8H174.75v3.643l-1.252.911-4.506.948a2.732,2.732,0,0,0-2.159,2.437l-.735,8.455h21.859Zm0,0" transform="translate(-161.543 -463.322)" fill="#f6c8a3"/>
  <path id="Path_7296" data-name="Path 7296" d="M187.22,487.789a2.732,2.732,0,0,0-2.159-2.437l-4.506-.948H173.5l-1.025.216-3.481.732a2.732,2.732,0,0,0-2.159,2.437l-.735,8.455h21.859Zm0,0" transform="translate(-161.543 -469.375)" fill="#bfbfbd"/>
  <path id="Path_7297" data-name="Path 7297" d="M189.439,476.528a3.169,3.169,0,0,0,1.366-.311V473.8h-4.554v2.421a3.169,3.169,0,0,0,1.366.311Zm0,0" transform="translate(-173.045 -463.322)" fill="#f8b784"/>
  <path id="Path_7298" data-name="Path 7298" d="M184.453,486.206l2.411-3.013-2.733-.911-.8.911h.01Zm0,0" transform="translate(-171.38 -468.165)" fill="#e0e0de"/>
  <path id="Path_7299" data-name="Path 7299" d="M193.965,486.206l-2.41-3.013,2.732-.911.8.911h-.01Zm0,0" transform="translate(-176.072 -468.165)" fill="#e0e0de"/>
  <path id="Path_7300" data-name="Path 7300" d="M190.344,484.4l-.911,1.139v5.949l.911,2.475.911-2.475v-5.949Zm0,0" transform="translate(-174.861 -469.375)" fill="#48648e"/>
  <path id="Path_7301" data-name="Path 7301" d="M187.956,496.243H166.1l.052-.59.684-7.864a2.731,2.731,0,0,1,2.159-2.437l3.481-.732,1.025-.216h.01l3.519,4.1,3.519-4.1h.01l3.8.8.7.148a2.731,2.731,0,0,1,2.159,2.437Zm0,0" transform="translate(-161.543 -469.375)" fill="#3d4d63"/>
  <path id="Path_7302" data-name="Path 7302" d="M187.956,497.308H166.1l.052-.59c6.422-1.213,14.773-4.016,18.209-10.449l.7.148a2.731,2.731,0,0,1,2.159,2.437Zm0,0" transform="translate(-161.543 -470.439)" fill="#374559"/>
  <path id="Path_7303" data-name="Path 7303" d="M170.332,501.656l.457-7.739.909.054-.457,7.739Zm0,0" transform="translate(-163.96 -474.804)" fill="#28384a"/>
  <path id="Path_7304" data-name="Path 7304" d="M209.586,493.912l.909-.054.458,7.739-.909.054Zm0,0" transform="translate(-186.361 -474.771)" fill="#28384a"/>
  <rect id="Rectangle_2849" data-name="Rectangle 2849" width="12.751" height="0.911" transform="translate(9.108 18.671)" fill="#28384a"/>
  <rect id="Rectangle_2850" data-name="Rectangle 2850" width="0.911" height="7.742" transform="translate(11.84 19.126)" fill="#28384a"/>
  <rect id="Rectangle_2851" data-name="Rectangle 2851" width="0.911" height="7.742" transform="translate(18.216 19.126)" fill="#28384a"/>
  <path id="Path_7305" data-name="Path 7305" d="M175.644,485.767v11.145h.911V485.576Zm0,0" transform="translate(-166.991 -470.044)" fill="#28384a"/>
  <path id="Path_7306" data-name="Path 7306" d="M205.344,485.576v11.337h.911V485.767Zm0,0" transform="translate(-183.941 -470.044)" fill="#28384a"/>
  <rect id="Rectangle_2852" data-name="Rectangle 2852" width="0.911" height="8.197" transform="translate(15.028 18.671)" fill="#28384a"/>
  <rect id="Rectangle_2853" data-name="Rectangle 2853" width="10.019" height="4.098" transform="translate(10.474 3.643)" fill="#95573a"/>
  <path id="Path_7307" data-name="Path 7307" d="M190.205,455.619v4.1a3.188,3.188,0,0,1-3.188,3.188h-1.838a3.188,3.188,0,0,1-3.171-3.188v-4.1a4.1,4.1,0,0,1,3.965-4.1l.134,0a4.1,4.1,0,0,1,4.1,4.1Zm0,0" transform="translate(-170.623 -450.61)" fill="#f6c8a3"/>
  <path id="Path_7308" data-name="Path 7308" d="M194.42,455.619v4.1a3.188,3.188,0,0,1-3.188,3.188h-1.838a5.01,5.01,0,0,0,2.92-4.554v-2.733a5.014,5.014,0,0,0-2.126-4.1l.134,0a4.1,4.1,0,0,1,4.1,4.1Zm0,0" transform="translate(-174.838 -450.61)" fill="#f6c093"/>
  <path id="Path_7309" data-name="Path 7309" d="M189.336,470.145h-.964v-.911h.964a5.647,5.647,0,0,0,1.636-.24l.264.872a6.534,6.534,0,0,1-1.9.279Zm0,0" transform="translate(-174.255 -460.581)" fill="#f3a468"/>
  <path id="Path_7310" data-name="Path 7310" d="M187.023,450.31v1.366h-4.554a1.75,1.75,0,0,0-1.7,1.325l-.248.993a1.75,1.75,0,0,1-1.7,1.325v-2.771a3.149,3.149,0,0,1,3.149-3.149h3.574a1.648,1.648,0,0,1,1.474.911Zm0,0" transform="translate(-168.807 -449.399)" fill="#95573a"/>
  <path id="Path_7311" data-name="Path 7311" d="M197.919,451.3v1.366l1.366,3.188h.911v-3.177a1.539,1.539,0,0,0-2.026-1.461Zm0,0" transform="translate(-179.703 -450.393)" fill="#8f4d2e"/>
  <path id="Path_7312" data-name="Path 7312" d="M201.557,462.128H201.1v2.732h.456a1.366,1.366,0,0,0,0-2.732Zm0,0" transform="translate(-181.519 -456.663)" fill="#f8b784"/>
  <path id="Path_7313" data-name="Path 7313" d="M179.154,462.128h-.023a1.366,1.366,0,1,0,0,2.732h.456v-2.732Zm0,0" transform="translate(-168.202 -456.663)" fill="#f8b784"/>
  <path id="Path_7314" data-name="Path 7314" d="M185.873,461.067a.683.683,0,1,0,.683.683.684.684,0,0,0-.683-.683Zm0,0" transform="translate(-172.439 -456.058)" fill="#79432a"/>
  <path id="Path_7315" data-name="Path 7315" d="M195.42,461.067a.683.683,0,1,0,.683.683.683.683,0,0,0-.683-.683Zm0,0" transform="translate(-177.887 -456.058)" fill="#79432a"/>
  <rect id="Rectangle_2854" data-name="Rectangle 2854" width="3.643" height="7.286" transform="translate(1.366 19.582)" fill="#4c5d72"/>
  <rect id="Rectangle_2855" data-name="Rectangle 2855" width="3.643" height="3.188" transform="translate(1.366 19.126)" fill="#e0e0de"/>
  <path id="Path_7316" data-name="Path 7316" d="M159.583,486.524h2.732a.909.909,0,0,1,.911.911v2.732a.909.909,0,0,1-.911.911h-2.732a.909.909,0,0,1-.911-.911v-2.732a.909.909,0,0,1,.911-.911Zm0,0" transform="translate(-157.306 -470.585)" fill="#f6c8a3"/>
  <path id="Path_7317" data-name="Path 7317" d="M164.737,486.524h-1.822a.911.911,0,0,1,.911.911v2.732a.911.911,0,0,1-.911.911h1.822a.911.911,0,0,0,.911-.911v-2.732a.911.911,0,0,0-.911-.911Zm0,0" transform="translate(-159.727 -470.585)" fill="#f6c093"/>
  <path id="Path_7318" data-name="Path 7318" d="M161.865,467.892h-4.554a1.822,1.822,0,1,1,0-3.643h4.554Zm0,0" transform="translate(-155.49 -457.874)" fill="#79432a"/>
  <rect id="Rectangle_2856" data-name="Rectangle 2856" width="1.822" height="5.92" transform="translate(2.732 10.019)" fill="#79432a"/>
  <rect id="Rectangle_2857" data-name="Rectangle 2857" width="1.822" height="0.911" transform="translate(2.732 11.385)" fill="#f8b52f"/>
  <rect id="Rectangle_2858" data-name="Rectangle 2858" width="1.822" height="0.911" transform="translate(2.732 10.019)" fill="#61311b"/>
  <path id="Path_7319" data-name="Path 7319" d="M157.193,467.522a1.807,1.807,0,0,0,1.09.37h4.554v-3.643h-.408a9.226,9.226,0,0,1-5.236,3.273Zm0,0" transform="translate(-156.462 -457.874)" fill="#743b20"/>
  <path id="Path_7320" data-name="Path 7320" d="M169.74,466.071a1.822,1.822,0,1,1-1.822-1.822,1.822,1.822,0,0,1,1.822,1.822Zm0,0" transform="translate(-161.543 -457.874)" fill="#61311b"/>
  <path id="Path_7321" data-name="Path 7321" d="M193.51,450.31a1.648,1.648,0,0,0-1.474-.911h-1.843a9.093,9.093,0,0,1,1.831,2.277h1.486Zm0,0" transform="translate(-175.294 -449.399)" fill="#8f4d2e"/>
</svg>
