<svg id="dp-7" xmlns="http://www.w3.org/2000/svg" xmlns:xlink="http://www.w3.org/1999/xlink" width="26.413" height="26.868" viewBox="0 0 26.413 26.868">
  <defs>
    <clipPath id="clip-path">
      <rect id="Rectangle_2847" data-name="Rectangle 2847" width="26.412" height="26.868" fill="none"/>
    </clipPath>
  </defs>
  <path id="Path_7253" data-name="Path 7253" d="M361.052,507.81h.432a1.822,1.822,0,0,0,1.575-.906l1.37-2.357-2.884-1.328-2.581,4.592Zm0,0" transform="translate(-354.221 -482.308)" fill="#f3a468"/>
  <path id="Path_7254" data-name="Path 7254" d="M358,497.818l-.987-7.24H354.28v8.2A1.822,1.822,0,0,0,356.1,500.6h2.277Zm0,0" transform="translate(-351.548 -475.095)" fill="#f8b784"/>
  <path id="Path_7255" data-name="Path 7255" d="M380.786,485.229l-3.6-.554v-3.643h-4.554v3.643l-.173.029-.353.059-.556.093-.609.1-.148.025-2.1.351-.148.024a2.731,2.731,0,0,0-1.994,1.473l-1.655,3.309,3.188,1.822,1.366-2.277v6.831H383.1V487.93a2.732,2.732,0,0,0-2.317-2.7Zm0,0" transform="translate(-357.601 -469.647)" fill="#f6c8a3"/>
  <path id="Path_7256" data-name="Path 7256" d="M383.1,492.773v7.219h-2.277v1.366H369.441v-6.831l-1.366,2.277-3.188-1.822,1.655-3.31a2.73,2.73,0,0,1,1.994-1.473l.148-.025,3.771-.629.173-.029,2.277,5.464,2.277-5.464,3.6.554a2.731,2.731,0,0,1,2.317,2.7Zm0,0" transform="translate(-357.601 -474.49)" fill="#79432a"/>
  <path id="Path_7257" data-name="Path 7257" d="M389.156,493.683V500.9h-2.277v1.366H375.494v-.853c4.419-1.379,9.753-4.206,11.859-10.3a2.734,2.734,0,0,1,1.8,2.569Zm0,0" transform="translate(-363.654 -475.401)" fill="#743b20"/>
  <path id="Path_7258" data-name="Path 7258" d="M382.919,481.032v3.029a2.735,2.735,0,0,0,.911.159h2.732a2.735,2.735,0,0,0,.911-.159v-3.029Zm0,0" transform="translate(-367.891 -469.647)" fill="#f8b784"/>
  <path id="Path_7259" data-name="Path 7259" d="M378.677,493.011l2.6-2.22-.778-2.334-1.821.759Zm0,0" transform="translate(-365.471 -473.884)" fill="#95573a"/>
  <path id="Path_7260" data-name="Path 7260" d="M391.759,490.739l2.58,2.272v-3.818l-1.821-.735Zm0,0" transform="translate(-372.936 -473.884)" fill="#95573a"/>
  <rect id="Rectangle_2839" data-name="Rectangle 2839" width="3.643" height="2.277" transform="translate(22.769 23.225)" fill="#79432a"/>
  <path id="Path_7261" data-name="Path 7261" d="M360.578,503l4.127,2.647,1.366-2.334-4.234-2.639Zm0,0" transform="translate(-355.142 -480.857)" fill="#95573a"/>
  <path id="Path_7262" data-name="Path 7262" d="M398.225,467.243h-.456v2.732h.456a1.366,1.366,0,0,0,0-2.732Zm0,0" transform="translate(-376.366 -461.778)" fill="#f8b784"/>
  <path id="Path_7263" data-name="Path 7263" d="M375.823,467.243H375.8a1.366,1.366,0,0,0,0,2.732h.456v-2.732Zm0,0" transform="translate(-363.049 -461.778)" fill="#f8b784"/>
  <path id="Path_7264" data-name="Path 7264" d="M386.874,460.734v3.188a4.1,4.1,0,1,1-8.2,0v-3.188a4.1,4.1,0,0,1,3.964-4.1l.134,0a4.082,4.082,0,0,1,2.732,1.044c.057.051.112.1.166.156a4.086,4.086,0,0,1,1.2,2.9Zm0,0" transform="translate(-365.471 -455.724)" fill="#f6c8a3"/>
  <path id="Path_7265" data-name="Path 7265" d="M391.291,460.734v3.188a4.1,4.1,0,0,1-4.874,4.025,5.009,5.009,0,0,0,2.768-4.48v-2.732a5.015,5.015,0,0,0-2.126-4.1l.134,0a4.1,4.1,0,0,1,4.1,4.1Zm0,0" transform="translate(-369.888 -455.724)" fill="#f6c093"/>
  <path id="Path_7266" data-name="Path 7266" d="M385.508,457.679V458H384.44a2.981,2.981,0,0,0-2.535,1.45,2.937,2.937,0,0,1-1.415,1.194l-.511.205a4.786,4.786,0,0,1-.862.253c-.145.028-.292.049-.439.063v-.433a4.1,4.1,0,0,1,3.964-4.1l.134,0a4.082,4.082,0,0,1,2.732,1.044Zm0,0" transform="translate(-365.471 -455.724)" fill="#f6c093"/>
  <path id="Path_7267" data-name="Path 7267" d="M384.141,475.44h-2.732a2.732,2.732,0,0,1-2.732-2.732v-5.464l.407,1.725a1.822,1.822,0,0,0,1.629,1.007h4.124a1.822,1.822,0,0,0,1.629-1.007l.407-1.725v5.464a2.732,2.732,0,0,1-2.732,2.732Zm0,0" transform="translate(-365.471 -461.778)" fill="#c7c7c5"/>
  <path id="Path_7268" data-name="Path 7268" d="M391.309,468.968a1.822,1.822,0,0,1-1.414.992v2.747a2.732,2.732,0,0,1-2.733,2.732h1.822a2.732,2.732,0,0,0,2.732-2.732v-5.464Zm0,0" transform="translate(-370.313 -461.778)" fill="#bfbfbd"/>
  <path id="Path_7269" data-name="Path 7269" d="M382.542,467.548a.683.683,0,1,1,.683-.683.682.682,0,0,1-.683.683Zm0,0" transform="translate(-367.286 -461.173)" fill="#79432a"/>
  <path id="Path_7270" data-name="Path 7270" d="M392.088,467.548a.683.683,0,1,1,.683-.683.682.682,0,0,1-.683.683Zm0,0" transform="translate(-372.734 -461.173)" fill="#79432a"/>
  <path id="Path_7271" data-name="Path 7271" d="M386.052,470.006l.346-1.732-.893-.179-.455,2.277a.455.455,0,0,0,.447.545h.911v-.911Zm0,0" transform="translate(-369.102 -462.264)" fill="#f3a468"/>
  <rect id="Rectangle_2840" data-name="Rectangle 2840" width="0.911" height="6.375" transform="translate(16.849 20.492)" fill="#61311b"/>
  <rect id="Rectangle_2841" data-name="Rectangle 2841" width="0.911" height="0.911" transform="translate(15.028 20.492)" fill="#4f2816"/>
  <rect id="Rectangle_2842" data-name="Rectangle 2842" width="0.911" height="0.911" transform="translate(15.028 23.225)" fill="#4f2816"/>
  <rect id="Rectangle_2843" data-name="Rectangle 2843" width="0.911" height="0.911" transform="translate(15.028 25.957)" fill="#4f2816"/>
  <rect id="Rectangle_2844" data-name="Rectangle 2844" width="3.188" height="4.098" transform="translate(19.126 21.403)" fill="#61311b"/>
  <path id="Path_7272" data-name="Path 7272" d="M385.052,455.425v.911h-1.067a2.941,2.941,0,0,0-2.522,1.428,2.939,2.939,0,0,1-1.43,1.217l-1.357.543v-2.277a2.731,2.731,0,0,1,2.732-2.732h2.169a1.648,1.648,0,0,1,1.474.911Zm0,0" transform="translate(-365.471 -454.514)" fill="#c7c7c5"/>
  <path id="Path_7273" data-name="Path 7273" d="M393.527,458a2.947,2.947,0,0,0,1.629,2.636l.192.1v-2.277a1.821,1.821,0,0,0-1.821-1.822Zm0,0" transform="translate(-373.945 -455.724)" fill="#bfbfbd"/>
  <path id="Path_7274" data-name="Path 7274" d="M384.141,472.546h-2.732l-.14.047a3.791,3.791,0,0,0-2.592,3.6l2.143-.476a2.65,2.65,0,0,0,1.955-1.8,2.649,2.649,0,0,0,1.955,1.8l2.143.476a3.791,3.791,0,0,0-2.592-3.6Zm0,0" transform="translate(-365.471 -464.804)" fill="#e0e0de"/>
  <path id="Path_7275" data-name="Path 7275" d="M387.848,495.882h-2.277l1.139,2.732Zm0,0" transform="translate(-369.405 -478.122)" fill="#a3a3a1"/>
  <path id="Path_7276" data-name="Path 7276" d="M381.978,495.579l-3.3.534,2.6-2.22Zm0,0" transform="translate(-365.471 -476.987)" fill="#61311b"/>
  <path id="Path_7277" data-name="Path 7277" d="M390.069,495.5l3.306.543-2.58-2.272Zm0,0" transform="translate(-371.972 -476.918)" fill="#61311b"/>
  <path id="Path_7278" data-name="Path 7278" d="M369.083,505.638l-1.427-.889a6.825,6.825,0,0,1-1.8,2.029l1.861,1.194Zm0,0" transform="translate(-358.154 -483.182)" fill="#82462a"/>
  <path id="Path_7279" data-name="Path 7279" d="M400.952,510.4v.49h3.643V508.61h-.3a5.072,5.072,0,0,1-3.345,1.787Zm0,0" transform="translate(-378.182 -485.385)" fill="#743b20"/>
  <rect id="Rectangle_2845" data-name="Rectangle 2845" width="0.911" height="6.831" transform="translate(22.314 20.037)" fill="#4f2816"/>
  <rect id="Rectangle_2846" data-name="Rectangle 2846" width="2.277" height="0.911" transform="translate(23.225 25.502)" fill="#f8b784"/>
  <path id="Path_7280" data-name="Path 7280" d="M361.837,500.674,360.578,503l2.3,1.473a13.438,13.438,0,0,0-.905-3.716Zm0,0" transform="translate(-355.142 -480.857)" fill="#82462a"/>
  <g id="Group_4475" data-name="Group 4475" transform="translate(0 0)">
    <g id="Group_4474" data-name="Group 4474" clip-path="url(#clip-path)">
      <path id="Path_7281" data-name="Path 7281" d="M360.234,471.091a2.634,2.634,0,0,1,.009-2.758,2.986,2.986,0,1,0-4.113,4.328l1.622.723a1.333,1.333,0,0,0,1.759-.673,1.311,1.311,0,0,1,.724-1.62Zm0,0" transform="translate(-352.152 -461.772)" fill="#68a33f"/>
      <path id="Path_7282" data-name="Path 7282" d="M348.031,471.168a1.364,1.364,0,0,1,.378-1.6,1.347,1.347,0,0,1-.291-.42,1.364,1.364,0,0,1,.674-1.789,1.323,1.323,0,0,1,1.759.685,1.357,1.357,0,0,1,.113.5,1.324,1.324,0,0,1,1.422.781,1.365,1.365,0,0,1,.046.968,1.331,1.331,0,0,1,.677.681,1.364,1.364,0,0,1-.673,1.789l-1.622.736a1.324,1.324,0,0,1-1.759-.685,1.366,1.366,0,0,1-.046-.968,1.331,1.331,0,0,1-.677-.681Zm0,0" transform="translate(-347.916 -461.78)" fill="#68a33f"/>
    </g>
  </g>
  <path id="Path_7283" data-name="Path 7283" d="M353.07,482.093H355.8a.909.909,0,0,1,.911.911v2.732a.909.909,0,0,1-.911.911H353.07a.909.909,0,0,1-.911-.911V483a.909.909,0,0,1,.911-.911Zm0,0" transform="translate(-350.337 -470.253)" fill="#f6c8a3"/>
  <path id="Path_7284" data-name="Path 7284" d="M358.223,482.093H356.4a.911.911,0,0,1,.911.911v2.732a.911.911,0,0,1-.911.911h1.821a.911.911,0,0,0,.911-.911V483a.911.911,0,0,0-.911-.911Zm0,0" transform="translate(-352.759 -470.253)" fill="#f6c093"/>
  <path id="Path_7285" data-name="Path 7285" d="M355.2,492.787a1.432,1.432,0,0,1,1.821.793q.332.846.6,1.716l.911,3a21.356,21.356,0,0,1,.7,3.168.6.6,0,0,1-1.083.422,21.939,21.939,0,0,1-1.664-2.852L355.1,496.2q-.4-.82-.731-1.667a1.342,1.342,0,0,1,.826-1.749Zm0,0" transform="translate(-351.548 -476.306)" fill="#e57012"/>
  <path id="Path_7286" data-name="Path 7286" d="M352.084,492.787a1.433,1.433,0,0,0-1.822.793q-.332.846-.6,1.716l-.911,3a21.416,21.416,0,0,0-.7,3.168.6.6,0,0,0,1.083.422,21.939,21.939,0,0,0,1.664-2.852l1.378-2.835q.4-.82.731-1.667a1.342,1.342,0,0,0-.825-1.749Zm0,0" transform="translate(-347.992 -476.306)" fill="#e57012"/>
  <path id="Path_7287" data-name="Path 7287" d="M357.012,494.066v.025q0,.9-.07,1.794l-.241,3.14a22.346,22.346,0,0,1-.493,3.251.57.57,0,0,1-.2.319.578.578,0,0,1-.92-.319,22.386,22.386,0,0,1-.479-3.064c-.005-.062-.01-.125-.015-.187l-.241-3.14q-.07-.908-.07-1.819a1.366,1.366,0,0,1,2.732,0Zm0,0" transform="translate(-351.548 -476.306)" fill="#f58511"/>
  <path id="Path_7288" data-name="Path 7288" d="M357.446,495.94q0,.9-.07,1.794l-.241,3.14a22.345,22.345,0,0,1-.493,3.251.57.57,0,0,1-.2.319.578.578,0,0,1-.92-.319,22.386,22.386,0,0,1-.479-3.064,19.6,19.6,0,0,0,2.406-5.121Zm0,0" transform="translate(-351.981 -478.155)" fill="#f07912"/>
  <path id="Path_7289" data-name="Path 7289" d="M357.462,496.793h1.349q.017-.455.017-.911h-1.366Zm0,0" transform="translate(-353.364 -478.122)" fill="#e5600f"/>
  <path id="Path_7290" data-name="Path 7290" d="M357.462,501.036h1.226l.07-.911h-1.3Zm0,0" transform="translate(-353.364 -480.543)" fill="#e5600f"/>
  <path id="Path_7291" data-name="Path 7291" d="M357.462,505.279h1.086l.07-.911h-1.156Zm0,0" transform="translate(-353.364 -482.965)" fill="#e5600f"/>
  <path id="Path_7292" data-name="Path 7292" d="M356.358,471.333a1.361,1.361,0,0,1-1.011,2.277h-1.822a3.841,3.841,0,1,1,2.833-2.277Zm0,0" transform="translate(-350.337 -461.77)" fill="#7eb457"/>
  <path id="Path_7293" data-name="Path 7293" d="M356.825,472.008a1.361,1.361,0,0,1-1.011,2.277h-1.822a1.363,1.363,0,0,1-1.015-.452,19.569,19.569,0,0,0,2.982-5.422,2.131,2.131,0,0,0,1.165,2.3,1.354,1.354,0,0,1-.3,1.3Zm0,0" transform="translate(-350.804 -462.445)" fill="#77ad50"/>
  <rect id="Rectangle_2848" data-name="Rectangle 2848" width="0.911" height="3.643" transform="translate(3.643 8.197)" fill="#68a33f"/>
  <path id="Path_7294" data-name="Path 7294" d="M390.318,455.425v.911h-.831a5.031,5.031,0,0,0-1.583-1.822h.941a1.648,1.648,0,0,1,1.474.911Zm0,0" transform="translate(-370.736 -454.514)" fill="#bfbfbd"/>
</svg>
