<svg xmlns="http://www.w3.org/2000/svg" width="148.901" height="144.214" viewBox="0 0 148.901 144.214">
  <g id="Group_2900" data-name="Group 2900" transform="translate(-244.818 -5920)">
    <path id="Path_2311" data-name="Path 2311" d="M5836.019,5855.954s-3.266-41.312,43.063-42.442,50.85,21.47,50.85,21.47,23.729,67.8-50.85,76.274c-19.316,2.2-30.711-8-37.144-24.722A85.3,85.3,0,0,1,5836.019,5855.954Z" transform="translate(-5591.151 152.663)" fill="#ffe5b2"/>
    <g id="Layer_14" data-name="Layer 14" transform="translate(274 5920)">
      <path id="Path_1723" data-name="Path 1723" d="M33.685,56.589v-15.7a5.888,5.888,0,0,0-11.776,0v15.7a9.813,9.813,0,0,0,3.552,17.349,10.538,10.538,0,0,0,2.335.314,9.813,9.813,0,0,0,5.888-17.663ZM31.448,69.012a5.888,5.888,0,1,1-6.594-9.676,1.963,1.963,0,0,0,.981-1.707V40.888a1.963,1.963,0,1,1,3.925,0v16.78a1.963,1.963,0,0,0,.981,1.707,5.888,5.888,0,0,1,.707,9.676Z" transform="translate(15.38 31.728)" fill="#464646"/>
      <path id="Path_1724" data-name="Path 1724" d="M119.188,73.616l-6.5-1.433A24.788,24.788,0,0,1,96.991,60.8a1.963,1.963,0,0,0-3.376,0,24.631,24.631,0,0,1-10.186,9.342v-8.3a9.813,9.813,0,0,0-5.888-8.989V34.364a33.364,33.364,0,1,0-66.728,0V52.852a9.813,9.813,0,0,0-5.888,8.989v5.888H2.963A1.963,1.963,0,0,0,1,69.691v35.327a1.963,1.963,0,0,0,1.963,1.963H4.925v5.888a9.813,9.813,0,0,0,9.813,9.813H73.616a9.813,9.813,0,0,0,9.813-9.813v-.255a57.072,57.072,0,0,0,9.028,8.5l1.57,1.178a1.963,1.963,0,0,0,2.355,0l1.57-1.178a57.21,57.21,0,0,0,22.766-45.532,1.963,1.963,0,0,0-1.531-1.963ZM14.738,34.364a29.439,29.439,0,1,1,58.878,0V52.028h-7.85V34.364a21.589,21.589,0,1,0-43.177,0V52.028h-7.85Zm47.1,17.663H26.514V34.364a17.663,17.663,0,1,1,35.327,0ZM24.551,71.654V79.5H4.925v-7.85Zm-19.626,31.4V95.2H24.551v7.85ZM24.551,91.28H4.925v-7.85H24.551ZM79.5,112.868a5.888,5.888,0,0,1-5.888,5.888H14.738a5.888,5.888,0,0,1-5.888-5.888V106.98H26.514a1.963,1.963,0,0,0,1.963-1.963V69.691a1.963,1.963,0,0,0-1.963-1.963H8.85V61.841a5.888,5.888,0,0,1,5.888-5.888H73.616A5.888,5.888,0,0,1,79.5,61.841v9.813c-.589.177-1.178.353-1.786.491l-6.5,1.472a1.963,1.963,0,0,0-1.531,1.963A57.19,57.19,0,0,0,79.5,107.452Zm16.093,5.1-.393.294-.393-.294a53.285,53.285,0,0,1-21.2-40.822l4.926-1.1A28.713,28.713,0,0,0,95.2,65.354a28.713,28.713,0,0,0,16.643,10.7l4.946,1.1a53.285,53.285,0,0,1-21.2,40.822Z" transform="translate(-1 -1)" fill="#464646"/>
      <path id="Path_1725" data-name="Path 1725" d="M67.556,41.316,64.063,39.55,62.728,42.2a13.915,13.915,0,1,0,3.081,2.473ZM65.809,54.171a9.911,9.911,0,1,1-4.848-8.42l-5.3,10.6-3.925-5.319L48.6,53.386l5.888,7.85a1.963,1.963,0,0,0,1.57.785h.177a1.963,1.963,0,0,0,1.57-1.079L64.023,48.5a9.656,9.656,0,0,1,1.786,5.672Z" transform="translate(38.209 36.108)" fill="#464646"/>
    </g>
  </g>
</svg>
