<svg xmlns="http://www.w3.org/2000/svg" width="38" height="27" viewBox="0 0 38 27">
  <path id="easy" d="M69.99,52.457v9.3A2.258,2.258,0,0,1,67.746,64H39.55a2.243,2.243,0,0,1-2.234-2.24v-9.3H69.99Zm-3.523,3.052a3.566,3.566,0,0,0-3.986,0,3.537,3.537,0,1,0,0,5.859,3.574,3.574,0,0,0,4.94-.948,3.526,3.526,0,0,0-.954-4.911Zm-5.974,1.36a1.582,1.582,0,0,1,1.22.577.99.99,0,0,0,1.388.146,1.062,1.062,0,0,0,.147-.146,1.584,1.584,0,0,1,2.225-.2,1.561,1.561,0,0,1,.2,2.21,1.585,1.585,0,0,1-2.225.2,1.383,1.383,0,0,1-.206-.206.953.953,0,0,0-.758-.342.978.978,0,0,0-.758.352,1.542,1.542,0,0,1-1.22.567,1.587,1.587,0,0,1-1.6-1.575,1.569,1.569,0,0,1,1.585-1.585ZM62.4,37a2.213,2.213,0,0,1,2.185,2.24v1.184H39.549a4.167,4.167,0,0,0-4.2,4.138V58.62H34.205A2.179,2.179,0,0,1,32,56.477V39.24A2.23,2.23,0,0,1,34.205,37ZM69.99,47.957V50.5H37.315V47.957ZM67.756,42.38A2.209,2.209,0,0,1,70,44.562V46H37.315V44.562a2.206,2.206,0,0,1,2.234-2.182Z" transform="translate(-32 -37)" fill="#54b8ea"/>
</svg>
