<svg id="Layer_1" data-name="Layer 1" xmlns="http://www.w3.org/2000/svg" viewBox="0 0 2191.92 634.75"><defs><style>.cls-1{opacity:0.23;}.cls-2{fill:#3758ff;}.cls-3{fill:none;stroke:#707070;}.cls-4,.cls-6{fill:#fff;}.cls-4,.cls-5{opacity:0.47;}</style></defs><g id="Rectangle_1257" data-name="Rectangle 1257" class="cls-1"><rect class="cls-2" y="0.75" width="2191.92" height="634"/><rect class="cls-3" x="0.57" y="1.25" width="2190.78" height="633"/></g><path id="Path_2232" data-name="Path 2232" class="cls-4" d="M451.08,593.53,822.69.05H79.46Z" transform="translate(0 -0.04)"/><path id="Path_2229" data-name="Path 2229" class="cls-4" d="M297.89,416.81,156,633.58H439.79Z" transform="translate(0 -0.04)"/><path id="Path_2233" data-name="Path 2233" class="cls-4" d="M1689.31,557.17l-50.11,76.55h100.22Z" transform="translate(0 -0.04)"/><path id="Path_2230" data-name="Path 2230" class="cls-4" d="M1883.32,176.69,1998.94,0H1767.69Z" transform="translate(0 -0.04)"/><path id="Path_2234" data-name="Path 2234" class="cls-4" d="M1998.68,338.25,1805.44,633.46h386.48Z" transform="translate(0 -0.04)"/><g id="Group_2082" data-name="Group 2082" class="cls-5"><path id="Path_2238" data-name="Path 2238" class="cls-6" d="M1788.38,630.41l205.33-310.19,4,2.51L1792.32,632.92Z" transform="translate(0 -0.04)"/></g><g id="Group_2083" data-name="Group 2083" class="cls-5"><path id="Path_2238-2" data-name="Path 2238-2" class="cls-6" d="M138.68,630.37l144.21-222.7,2.77,1.79L141.46,632.17Z" transform="translate(0 -0.04)"/></g><path id="Path_2235" data-name="Path 2235" class="cls-4" d="M1998.78,43.4,1905,186.64h187.52Z" transform="translate(0 -0.04)"/></svg>