<svg xmlns="http://www.w3.org/2000/svg" width="934.914" height="899.167" viewBox="0 0 934.914 899.167"><g transform="translate(-102.001 -217.582)"><path d="M892.368,661.056c-3.846-9.532-7.943-18.97-12.153-28.359q-6.911-14.845-13.179-29.884c-10.825-26.02-19.1-52.786-26-79.94q-3.447-13.58-6.473-27.272c-1.725-10.887-3.411-22.065-4.966-33.581a301.174,301.174,0,0,0,1.693-38.114,291.28,291.28,0,0,0-3.124-37.45,247.372,247.372,0,0,0-2.368-24.983c1.4-43.016-.364-92.432-17.669-131.336a129.267,129.267,0,0,0-12.339-21.947C769.28,175.112,728.141,151.6,687,163.358c-53.994,12.856-103.486,41.461-158.931,49.283a200.8,200.8,0,0,1-24.183,1.969c-10.822-1.3-19.638,1.64-31.391-1.3-17.14-1.469-35.34-5.551-54.117-10.79-9.385-2.621-18.921-5.533-28.562-8.551-52.489-15.92-102.443-36.49-158.273-30.613-61.707,8.815-96.968,70.522-102.24,125.224q-2.667,14.7-4.8,29.567c-8.621,59.4-11.818,120.147-24.6,178.025-2.075,9.682-4.481,19.308-7.137,28.894-2.418,9.136-4.646,18.58-6.594,28.224C68.636,640.1,73.675,743.226,163.662,784.9A229.559,229.559,0,0,0,195.3,798.592c32.919,11.472,68.251,16.238,100.5,13.305,7.331,0,15.271,2.445,23.358,5.8s16.317,7.625,24.224,11.278q13.029,5.06,26.308,9.335c61.933,20,127.525,27.859,192.691,30.707,26.152,1.143,52.542,1.484,78.471-1.628,8.677-1.034,17.3-2.456,25.891-4.361,27.063-10.114,56.885-13.87,85.476-19.655,9.529-1.931,18.924-4.084,28.036-6.776,56.926-16.549,95.37-64.552,109.11-119.268a193.259,193.259,0,0,0,5.316-33.457A160.749,160.749,0,0,0,892.368,661.056Z" transform="translate(52.637 246.912)" fill="#bb85ff" opacity="0.3"/><g transform="translate(715.483 625.815)"><path d="M406.094,549.518c20.66-24.871,34.92-53.806,26.59-86.884-3.438-13.652-6.779-24.985,1.725-37.509,4.017-5.915,9.024-11.254,11.836-17.828,8.172-19.109.076-38.223-8.921-55.357-6.629-12.626-13.658-25.376-16.8-39.413-3.326-14.83-.2-29.943-1.978-44.917-1.725-14.51-10.179-30.157-24.583-32.6-9.559-1.622-19.238,3.144-26.27,9.82a52.321,52.321,0,0,0-15.43,28.985c-2.536,15.018,1.49,31.2-4.51,45.2-5.292,12.347-17.3,20.358-25.091,31.3A53.047,53.047,0,0,0,314,391.033c2.354,11.657,8.624,22.294,10.5,34.039,4.2,26.4-14.4,52.316-10.855,78.812,2.057,15.4,11.707,29.19,24.348,38.223,14.348,10.252,35.047,17.5,52.716,14.149a35.353,35.353,0,0,0,23.361-15.4" transform="translate(-207.557 -234.687)" fill="#f9f9f9"/><g transform="translate(0 61.027)"><path d="M445.506,488.3c1.322-6.321,1.4-12.333-.062-16.9-4.966-15.468-19.8-25.923-30.292-37.456-12.485-13.726-21.6-31.347-21.718-49.9-.1-15.048-3.409-27.718-13.913-39.161-10.326-11.245-23.346-19.529-34.212-30.2a237.053,237.053,0,0,1-30.68-36.49c-7.584-11.219-21.812-27.992-32.79-9.382a34.547,34.547,0,0,0-3.937,24.753c4.854,21.962,24.994,36.313,33.533,56.568,4.311,10.229,4.866,21.18,5.994,32.1,1.014,9.794,2.853,20.742,9.873,28.186,4.079,4.325,9.277,7.552,12.967,12.212,5.151,6.509,6.629,14.8,8.413,22.682,1.936,8.545,5.092,16.032,8.724,23.957,9.042,19.711,22.367,42.625,43.089,51.534,6.047,2.6,12.876,4,19.241,2.327C433.937,519.389,442.735,501.558,445.506,488.3Z" transform="translate(-277.112 -245.711)" fill="#deddf2"/><g transform="translate(56.113 142.558)"><path d="M296.208,303.97" transform="translate(-296.208 -303.97)" fill="none" stroke="#187a87" stroke-linecap="round" stroke-miterlimit="10" stroke-width="1.333"/></g><g transform="translate(59.632)"><g transform="translate(76.294)"><path d="M324.234,330.135a1.954,1.954,0,0,1,2.715.526l30.945,45.784L364.788,257.3a2.023,2.023,0,0,1,2.066-1.842,1.962,1.962,0,0,1,1.842,2.069l-5.034,87.007,38.15-20.986a1.959,1.959,0,0,1,1.889,3.432L363.795,348.93a2.085,2.085,0,0,1-.394.115l-4.646,80.316,30.757-15.547a1.955,1.955,0,1,1,1.763,3.491l-32.781,16.573-3.767,65.081a1.95,1.95,0,0,1-1.837,1.839c-.076.006-.15.006-.229.006a1.957,1.957,0,0,1-1.84-2.072l6.7-115.842-33.816-50.033A1.959,1.959,0,0,1,324.234,330.135Z" transform="translate(-323.37 -255.455)" fill="#d6b5ff"/></g><g transform="translate(42.694 11.137)"><path d="M459.694,353.293c6.326-16.858,10.1-29.2,11.98-35.864-2.868-14.542-7.531-52.527,20.481-58.184,15.151,7.99,19.8,36.545-12.956,59.75-2.075,7.387-6.515,21.965-14.278,42.1,23.328-34.668,53.544-30.892,62.739-15.174-5.336,34.118-56.33,26-66.256,24.089-4.387,10.9-9.647,23.143-15.909,36.522,24.518-25.015,50.6-18.565,57.9-3.37-7.561,31.341-51.79,22.752-65.554,19.262-6.062,12.236-12.906,25.256-20.587,38.914,31.8-29.863,63.262-20,70.749-1.026-11.821,37.071-65.136,21.833-79.861,16.828a942.532,942.532,0,0,1-90.333,127.187l-5.874-4.937A935.37,935.37,0,0,0,402.224,472.1c-16.8-9.932-55.575-37.156-37.63-68.254,18.935-7.19,47.171,9.141,46.9,52.09,6.808-12.159,12.929-23.789,18.424-34.794-13.038-7.669-43.85-29.1-29.708-53.612,14.592-5.542,36.216,6.767,36.722,39.2,7.249-15.295,13.2-29.146,18.036-41.25-11.184-6.241-47.015-28.844-31.973-54.911C438.112,304.829,460.761,318.228,459.694,353.293Z" transform="translate(-311.935 -259.245)" fill="#d6b5ff"/></g><g transform="translate(0 102.078)"><path d="M297.674,345.055a1.963,1.963,0,0,1,2.68-.7l35.02,20.5-33.1-71.88a1.956,1.956,0,1,1,3.553-1.637l24.2,52.56,2.571-44.485a1.984,1.984,0,0,1,2.069-1.842,1.955,1.955,0,0,1,1.84,2.069l-2.921,50.518a1.917,1.917,0,0,1-.282.858l31.573,68.571,6.62-26.7a1.959,1.959,0,0,1,3.8.943l-7.4,29.857a1.975,1.975,0,0,1-.652,1.031l6.009,13.047a1.96,1.96,0,0,1-.961,2.6,2.006,2.006,0,0,1-.7.173A1.955,1.955,0,0,1,369.7,439.4l-31.7-68.833a1.942,1.942,0,0,1-1.04-.25l-38.59-22.585A1.957,1.957,0,0,1,297.674,345.055Z" transform="translate(-297.406 -290.194)" fill="#d6b5ff"/></g></g></g><g transform="translate(191.072 170.315)"><path d="M342.352,440.243c-.494-4.46-.15-8.63,1.169-11.695,4.469-10.376,15.436-16.626,23.466-23.91,9.556-8.671,17.04-20.261,18.359-33.1,1.073-10.411,4.208-18.962,12.242-26.182,7.9-7.1,17.463-11.962,25.7-18.624a165.069,165.069,0,0,0,23.669-23.217c6-7.261,16.964-17.924,23.325-4.311a24.033,24.033,0,0,1,1.076,17.4c-4.822,14.877-19.723,23.472-26.984,36.927-3.664,6.794-4.778,14.337-6.288,21.818-1.355,6.714-3.356,14.169-8.712,18.856-3.112,2.721-6.926,4.608-9.791,7.59-4,4.161-5.574,9.806-7.334,15.139a83.58,83.58,0,0,1-7.637,16.006c-7.572,13.044-18.321,28.018-33.26,32.8-4.361,1.4-9.183,1.916-13.476.329C348.29,462.534,343.389,449.6,342.352,440.243Z" transform="translate(-342.137 -292.648)" fill="#fff"/><path d="M369.862,321.69" transform="translate(-288.393 -236.351)" fill="none" stroke="#000" stroke-miterlimit="10" stroke-width="1.854"/><path d="M348.737,409.567l4.828-8.289a1.91,1.91,0,0,1-.259-.714L350.168,379.4a1.962,1.962,0,0,1,1.651-2.224,1.921,1.921,0,0,1,2.224,1.654l2.556,17.237,25.444-43.677a1.921,1.921,0,0,1-.091-.555l1.34-35.164a1.958,1.958,0,1,1,3.914.147l-1.09,28.582L405.17,312.69a1.958,1.958,0,0,1,3.385,1.969L381.8,360.578l23.89-11.057a1.955,1.955,0,1,1,1.645,3.547l-28.221,13.064a1.873,1.873,0,0,1-.643.164l-26.355,45.24a1.95,1.95,0,0,1-1.581.97,1.982,1.982,0,0,1-1.1-.259A1.957,1.957,0,0,1,348.737,409.567Z" transform="translate(-329.863 -255.681)" fill="#d6b5ff"/></g></g><g transform="translate(476.783 405.375)"><path d="M492.587,463.869H195.878V308.02c0-81.8,66.553-148.353,148.356-148.353s148.353,66.55,148.353,148.353ZM245.329,414.418H443.136V308.02a98.9,98.9,0,0,0-197.807,0Z" transform="translate(-195.878 -159.667)" fill="#1a171e"/></g><rect width="126.353" height="140.065" transform="translate(560.396 705.094)" fill="#1a171e"/><path d="M578.852,224.223H196.637A23.176,23.176,0,0,0,173.453,247.4V547.216A23.176,23.176,0,0,0,196.637,570.4H578.852a23.239,23.239,0,0,0,23.184-23.181V247.4A23.238,23.238,0,0,0,578.852,224.223ZM370.211,394.388V368.771a17.484,17.484,0,0,1,34.967,0v25.617a35.364,35.364,0,1,1-34.967,0Z" transform="translate(237.435 370.845)" fill="#cda5ff"/><path d="M602.036,247.4V547.216A23.239,23.239,0,0,1,578.852,570.4H196.637a23.176,23.176,0,0,1-23.184-23.181v-14.9c90.88,1.266,226.174-2.727,299.424-32.435,104.905-42.566,104.805-219.551,101.106-275.655h4.869A23.238,23.238,0,0,1,602.036,247.4Z" transform="translate(237.435 370.845)" fill="#bb85ff"/><rect width="921.69" height="26.37" transform="translate(1023.69 966.67) rotate(180)" fill="#fff"/><g transform="translate(221.462 643.97)"><g transform="translate(48.728 174.361)"><rect width="10.899" height="91.961" transform="translate(21.478)" fill="#6a6a6a"/><g transform="translate(24.868 90.619)"><g transform="translate(0 0)"><rect width="26.707" height="3.488" transform="translate(0 26.702) rotate(-88.88)" fill="#6a6a6a"/></g></g><g transform="translate(21.097 115.611)"><circle cx="5.395" cy="5.395" r="5.395" fill="#6a6a6a"/></g><g transform="translate(0 88.695)"><g transform="translate(27.537)"><g transform="translate(15.529 26.915)"><path d="M151.017,344.942a5.395,5.395,0,1,1-5.395-5.395A5.395,5.395,0,0,1,151.017,344.942Z" transform="translate(-140.227 -339.547)" fill="#6a6a6a"/></g><path d="M157.83,359.664h-3.488V352.25l-19.4-19.4,2.466-2.466,20.422,20.418Z" transform="translate(-134.942 -330.387)" fill="#6a6a6a"/></g><g transform="translate(0 26.915)"><path d="M125.571,344.942a5.393,5.393,0,1,0,5.395-5.395A5.395,5.395,0,0,0,125.571,344.942Z" transform="translate(-125.571 -339.547)" fill="#6a6a6a"/></g><g transform="translate(3.431)"><path d="M130.226,359.664h-3.487v-8.859l20.421-20.418,2.466,2.466-19.4,19.4Z" transform="translate(-126.739 -330.387)" fill="#6a6a6a"/></g></g></g><path d="M231.054,279.79V417.406H130.821a21.816,21.816,0,0,1-21.833-21.8V279.79a38.928,38.928,0,0,1,38.928-38.925h44.212A38.926,38.926,0,0,1,231.054,279.79Z" transform="translate(-108.988 -240.865)" fill="#f1e5ff"/><path d="M177.742,292.34v25.285H130.821a21.816,21.816,0,0,1-21.833-21.8V292.34Z" transform="translate(-108.988 -141.084)" fill="#f1e5ff"/><rect width="115.09" height="25.285" transform="translate(37.51 151.255)" fill="#f1e5ff"/></g><g transform="translate(262.761 763.229)"><path d="M189.534,316.051c38.1,6.271,70.12,4.44,71.522-4.085s-28.344-20.522-66.441-26.79-70.12-4.44-71.524,4.084S151.435,309.784,189.534,316.051Z" transform="translate(-123.043 -281.451)" fill="#e6d5b9"/><g transform="translate(124.827 27.343)"><path d="M171.875,291.707c26.881-12.665,36.68,104.905,30.724,130.431s-21.709-18.121-29.417-59.58S161.3,296.688,171.875,291.707Z" transform="translate(-165.523 -290.756)" fill="#e6d5b9"/><path d="M185.538,336.434s3.6,4.672,11.492,10.793,9.988,4.834,10.149,7.09-33.028,0-33.028,0l.673-18.527S185.538,335.949,185.538,336.434Z" transform="translate(-148.797 -203.461)" fill="#1a171e"/></g></g><g transform="translate(300.165 744.153)"><path d="M198.761,315.965c37.306,11.818,69.662,14.724,72.274,6.488s-25.517-24.5-62.821-36.319-69.664-14.724-72.274-6.488S161.454,304.143,198.761,315.965Z" transform="translate(-135.772 -274.959)" fill="#e6d5b9"/><g transform="translate(29.875 42.784)"><path d="M233.037,289.877c31.409,9.039-48.9,106.119-72.347,122.894s-1.713-23.519,22-63.382S220.681,286.319,233.037,289.877Z" transform="translate(-136.868 -289.519)" fill="#e6d5b9"/><path d="M168.33,337.308s-.417,6.473,1.666,17.263,4.749,11.245,3.244,13.226-27.3-23.969-27.3-23.969l14-14.827S168.683,336.908,168.33,337.308Z" transform="translate(-145.939 -212.986)" fill="#1a171e"/></g></g><path d="M130.44,288.207c2.28,16.338,27.992,28.606,53.391,37.239,25.523,8.692,50.738,13.623,51.6,15.35,1.663,3.206-38.347,78.727-42.6,86.681-.247.432-.37.679-.37.679l16.955,15.227s76.508-84.833,73.919-114.055c-2.342-27.186-102.587-49.137-102.587-49.137S125.941,255.47,130.44,288.207Z" transform="translate(153.549 461.99)" fill="#bb85ff"/><path d="M207.564,326.108c1.663,3.206-38.347,78.727-42.6,86.681,25.4-25.461,78.853-82.737,65.474-100.862-17.325-23.49-85.882-33.107-85.882-33.107l11.407,31.938C181.485,319.45,206.7,324.38,207.564,326.108Z" transform="translate(181.418 476.678)" fill="#d6b5ff"/><path d="M136.29,329.036c24.289,7.893,105.114,6.165,107.949,9.556s30.827,105.487,30.827,105.487h21.762c-.247,0-6.227-99.507-21.515-124.66-15.23-25.153-104.561-41-104.561-41l-48.89-1.972s-.185.737-.37,2.033C119.891,287.3,115.081,322.131,136.29,329.036Z" transform="translate(133.583 472.084)" fill="#bb85ff"/><path d="M136.29,327.695c24.289,7.893,105.114,6.165,107.949,9.556s30.827,105.487,30.827,105.487h.555c.244-26.449-17.51-103.574-26.572-113.562-10.049-11.037-63.482-9.753-91.224-11.539-23.552-1.543-33.807-31.124-36.334-40.495C119.891,285.957,115.081,320.79,136.29,327.695Z" transform="translate(133.583 473.426)" fill="#d6b5ff"/><path d="M176.513,315.629c4.8-7.387,8.542-15.979,12.776-23.581,2.8-5.022,5.689-10.449,5.154-16.173-.414-4.416-2.83-8.383-3.864-12.694a41.3,41.3,0,0,1-.661-10.64q.176-7.414.356-14.827c.07-3.012.893-6.282-.82-8.6-2.171-2.941-6.465-5.395-9.262-7.731q-8.851-7.383-17.7-14.772L125.234,233l3.491,67.137L156.19,313.3l10.393,4.978c3.362,1.613,5.5,3.614,8.013.147C175.255,317.515,175.893,316.581,176.513,315.629Z" transform="translate(143.966 336.698)" fill="#1a171e"/><g transform="translate(300.639 623.489)"><path d="M140.431,251.173c1.972,8.075,4.56,18.927,7.7,29.408,2.712,9.247,5.795,18.124,9.065,24.351,3.2,6.165,6.594,9.741,9.985,8.692a5.382,5.382,0,0,0,2.959-2.28c1.419-2.219,1.913-5.733,1.728-10.049a76.05,76.05,0,0,0-1.666-12.268c-.984-4.869-2.342-10.111-3.882-15.35-4.193-14.428-9.618-29.1-12.271-37.177-1.355-4.19-7.7-1.972-12.021-2.342C131.551,233.169,137.04,237.239,140.431,251.173Z" transform="translate(-135.933 -233.895)" fill="#ffedcf"/><g transform="translate(12.203 38.732)"><path d="M144.413,269.307c.8,2.959,37.671,15.721,63.564,21.947,14.24,3.514,25.153,4.992,24.968,1.848-.432-7.458-56.042-28.421-74.907-35.326-.679-.247-1.3-.491-1.851-.676a12.227,12.227,0,0,0-7.273-.37,9.694,9.694,0,0,0-3.453,1.787,5.869,5.869,0,0,0-2.1,2.9C142.5,264,143.734,266.839,144.413,269.307Z" transform="translate(-134.302 -229.109)" fill="#ffefd4"/><path d="M149.151,279.381c-.864,2.589.367,5.424,1.046,7.893.8,2.959,37.671,15.721,63.564,21.947-16.4-6.473-40.136-16.4-51.667-23.428-3.45-2.1-5.856-3.946-6.594-5.363a8.558,8.558,0,0,1-.8-5.733c.864-4.5,4.746-8.757,7.458-11.222-.984-4.869-2.342-10.111-3.882-15.35l-13.132-1.049-5.057,7.954C142.8,264.278,145.881,273.155,149.151,279.381Z" transform="translate(-140.086 -247.076)" fill="#ffe5bf"/><path d="M170.345,269.339c2.066-5.792,11.657-1.1,14.868.623,5.233,2.806,9.23,10.043,8.154,12.139s-12.609-5-13.255-4.725,4.631,4.261,3.417,6.124-8.88-2.518-11.24-5.445S169.049,272.971,170.345,269.339Z" transform="translate(-82.592 -209.36)" fill="#e6d5b9"/></g></g><path d="M140.738,286.01l3.268-.37,16.646-1.725,6.535-.679s-2.65-51.6-19.976-49.2C131.244,236.256,140.738,286.01,140.738,286.01Z" transform="translate(168.589 389.713)" fill="#d6b5ff"/><path d="M138.87,275.723c-.062.617,1.358,3.021,3.329,5.918l16.646-1.725a87.025,87.025,0,0,0,1.975-13.193c1.416-19.667-7.584-30.7-7.584-30.7S139.117,273.813,138.87,275.723Z" transform="translate(170.396 393.711)" fill="#d6b5ff"/><path d="M120.553,365.134s55.548,8.445,78.853-6.353c0,0-1.3-2.774-2.959-7.273-1.3-3.453-2.9-8.016-4.317-13.07-2.342-8.325-4.317-18.127-4.131-27.128.432-21.639,6.782-25.03,7.4-39.025s-6.288-29.531-11.1-34.03c-9.618-9.065-33.351-9.185-43.092-4.5-8.633,4.193-12.086,9.617-13.194,14.857a174.307,174.307,0,0,0-2.9,19.852c-.864,8.448-1.419,17.819-1.851,27.313-.494,8.939-.74,18.063-.984,26.634q-.185,6.47-.37,12.391C121.54,347.932,121.232,358.9,120.553,365.134Z" transform="translate(134.892 383.401)" fill="#bb85ff"/><path d="M121.476,276.394c9.618,1.416,22.811,2.465,24.786-1.3,3.2-6.042.491-34.4.491-34.4l-23.425,8.383C122.463,257.529,121.908,266.9,121.476,276.394Z" transform="translate(136.681 402.781)" fill="#d6b5ff"/><path d="M121.015,274.3c1.169,4.314,2.712,8.137,4.807,9.432,4.563,2.9,51.787,6.165,69.729,7.275-1.3-3.453-2.9-8.016-4.317-13.07-9.8-.679-60.541-4.749-60.541-4.749l-9.309-11.281Q121.2,268.38,121.015,274.3Z" transform="translate(135.788 443.899)" fill="#d6b5ff"/><path d="M185.617,243.218c-.441,15.309-3.027,19.306-7.9,23.125-4.613,3.585-15.221-.118-16.4-.529a.091.091,0,0,0-.059-.029l-.059-.059v12.459c0,.852,3.273,7.611-5.777,7.611-9.109,0-18.142-7.17-18.142-7.17V256.794s-15.9-20.334-9.55-37.289,38.17-9.315,48.073-5.73C185.794,217.389,186,228,185.617,243.218Z" transform="translate(145.904 341.184)" fill="#ffeed2"/><path d="M146.067,231.089l-12.018-4.308,12.03,11.254Z" transform="translate(161.054 375.804)" fill="#ffe3b4"/><g transform="translate(256.616 624.39)"><path d="M126.316,331.527a3.1,3.1,0,0,0,1.666.494c2.774.123,5.178-2.221,7.273-6.229a66.268,66.268,0,0,0,3.638-10.355,211.922,211.922,0,0,0,4.5-26.325c.185-1.6.37-3.268.494-4.934,1.663-15.6,2.342-31.009,2.589-38.779.123-4.375-1.975-8.692-5.918-10.54-9.494-4.5-14.613,15.1-16.214,29.346-.494,4.5-1.111,9.923-1.666,15.659C120.521,301.379,119.163,327.827,126.316,331.527Z" transform="translate(-120.952 -234.201)" fill="#ffefd4"/><g transform="translate(0 45.662)"><path d="M124.931,278.194a.468.468,0,0,0,.123.247c2.157,3.823,71.269,8.754,95.558,5.3,5.612-.8,8.818-2.033,8.263-3.885-2.527-7.951-68.063-15.35-91.368-17.754-1.111-.123-2.1-.247-2.959-.309a12.832,12.832,0,0,0-9.556,2.712,10.1,10.1,0,0,0-1.787,1.848C119.754,270.918,122.9,274.741,124.931,278.194Z" transform="translate(-119.567 -226.53)" fill="#ffeed2"/><path d="M126.316,301.4a.468.468,0,0,0,.123.247c2.157,3.823,71.269,8.753,95.558,5.3a.527.527,0,0,0,0-.8c-3.206-3.7-66.459-7.334-86.743-10.481a22.318,22.318,0,0,1-5.856-1.355c-1.663-.926-2.589-3.391-3.021-6.6-1.234-8.569.864-22.379,1.419-26.449.676-5.054,13.314-2.774,15.6-2.28a1.728,1.728,0,0,0,.37.062l2.033-3.267-1.91-1.728-4.44-4.005-16.77-.309C120.521,271.256,119.163,297.705,126.316,301.4Z" transform="translate(-120.952 -249.741)" fill="#ffe2b8"/><path d="M153.75,270.544c.649-6.938,12.491-4.463,16.5-3.47,6.529,1.619,12.935,8.451,12.338,11.052s-15.239-1.966-15.87-1.487,6.274,3.385,5.463,5.771-10.452-.285-13.861-2.842S153.341,274.892,153.75,270.544Z" transform="translate(-57.497 -218.568)" fill="#fff1d9"/></g></g><path d="M120.657,283.527s1.122-50.635,17.237-49.457c17.425,1.272,8.48,52.14,8.48,52.14Z" transform="translate(135.094 389.895)" fill="#d6b5ff"/><path d="M200.119,245.814c2.066-11.807,2.762-19.364-.614-26.613-7.613-16.347-48.508-26.678-62.771,4.173q-1.485,3.209-2.792,6.5a203.439,203.439,0,0,0-12.518,50.853,157.791,157.791,0,0,0-1.3,22.156,73.276,73.276,0,0,0,.608,8.607c.408,2.912.364,7.184,2.154,9.471a15.754,15.754,0,0,0,4.472,3.5,9.073,9.073,0,0,0,4.314,1.666,8.5,8.5,0,0,0,4.384-1.566c5.883-3.541,11.3-8.09,14.916-13.925s5.3-13.067,3.591-19.72c-.523-2.033-1.343-3.976-1.939-5.986a28.924,28.924,0,0,1-.07-15.962c.726-2.589,2.459-4.887,2.982-7.522a29.727,29.727,0,0,0,.5-7.058,26.274,26.274,0,0,1-.144-3.561,15.919,15.919,0,0,1,.646-3.044q.767-2.728,1.531-5.46c.55-1.948,1.161-4.005,2.659-5.363A12.913,12.913,0,0,1,164.262,235c5.189-2.315,8.839-5.942,10.3-11.425,7.108,8.451,14.01,19.652,25.664,22.241" transform="translate(134.017 330.701)" fill="#1a171e"/><g transform="translate(347.033 668.6)"><path d="M266.84,249.247,234.9,314.61s-66.347-.491-66.841,0L200,249.247Z" transform="translate(-120.06 -249.247)" fill="#bb85ff"/><g transform="translate(0.001 56.421)"><path d="M151.722,277.206l48.182-.032,1.917-3.922L204,268.8l-51.013-.351-.649,4.394Z" transform="translate(-151.722 -268.448)" fill="#f1e5ff"/></g><path d="M201.217,249.247H198.76l-31.331,64.872,2.016.263Z" transform="translate(-121.275 -249.247)" fill="#f1e5ff"/><path d="M151.722,274.307l48.184-.029,1.916-3.923c-.056.153-49.566-.405-49.48-.411Z" transform="translate(-151.722 -209.129)" fill="#bb85ff"/></g><path d="M194.484,268.758c-2.656,3.288-6.8,4.352-9.25,2.371s-2.283-6.253.373-9.541,6.8-4.352,9.25-2.371S197.14,265.467,194.484,268.758Z" transform="translate(256.911 436.746)" fill="#d6b5ff"/><g transform="translate(228.694 736.171)"><rect width="7.614" height="207.164" fill="#1e1c23"/></g><g transform="translate(492.377 736.171)"><rect width="7.614" height="207.164" fill="#1e1c23"/></g><rect width="352.684" height="15.212" transform="translate(540.589 747.976) rotate(180)" fill="#1a171e"/><g transform="translate(731.077 697.258)"><g transform="translate(2.09)"><g transform="translate(0 5.291)"><path d="M319.861,284.878h.414a37.63,37.63,0,0,0,11.516-4.061l.05.1V289.2s-1.593,7.866-11.26,10.079c-9.615-2.213-11.26-10.129-11.26-10.129v-7.611l.1-.153A37.823,37.823,0,0,0,319.861,284.878Z" transform="translate(-232.36 -221.999)" fill="#ffeacc"/><path d="M331.5,323.679h-.414a37.823,37.823,0,0,1-10.437-3.494c-5.089-2.521-10.282-6.788-11.31-13.728,0,0-5.912-2.571-5.809-7.4s5.245-3.547,5.245-3.547-4.27-15.218,3.752-26.428c8.019-11.26,18.3-7.763,18.3-7.763h.823s10.334-3.5,18.356,7.763c8.072,11.21,3.752,26.428,3.752,26.428s5.142-1.287,5.245,3.547-5.759,7.4-5.759,7.4c-.979,6.476-5.554,10.59-10.232,13.161A37.63,37.63,0,0,1,331.5,323.679Z" transform="translate(-243.587 -260.8)" fill="#ffefd4"/><path d="M394.849,345.6l.1.309c-22.929,9-47.25,23.754-49.307,24.988-2.054-1.234-26.323-15.938-49.254-24.988l.1-.309V311.717h98.355V345.6Z" transform="translate(-257.424 -162.102)" fill="#fff"/><path d="M322.2,340.746v21.542l-.117.309c-4.317-1.71-8.633-3.188-12.676-4.393-10.34-8.36-24.495-20.566-26.088-25.779-1.284-4.12,4.276-16.173,11.313-29.314l.118.038,17.536,9.876,5.6,3.188c-3.15,5.677-5.794,11.119-5.289,12.479,1.09,3.188,9.45,12.053,9.45,12.053Z" transform="translate(-283.13 -178.784)" fill="#fff1d9"/><path d="M368.744,332.425c-1.555,5.172-15.668,17.381-26.011,25.741-4.043,1.2-8.36,2.683-12.753,4.431l-.079-.309V340.746h.156s8.322-8.865,9.45-12.053c.505-1.36-2.139-6.8-5.289-12.479l5.56-3.15,17.575-9.914.117-.038C364.507,316.252,370.066,328.305,368.744,332.425Z" transform="translate(-192.467 -178.784)" fill="#fff2dc"/><path d="M347.476,323.892c-2.333,4.005-11.081,14.152-17.575,21.58V334.662h.156s8.322-8.865,9.45-12.053c.505-1.36-2.139-6.8-5.289-12.479l6.9-3.879C344.335,310.567,350.2,319.264,347.476,323.892Z" transform="translate(-192.467 -172.699)" fill="#f1e5ff"/><path d="M440.544,340.832l-.118.029-16.22,9.168-1.352.764-.029.029-5.524,3.115c-.852-1.557-1.763-3.115-2.645-4.643-2.968-5.083-5.789-9.55-6.318-10.373a.091.091,0,0,1-.029-.059l-.029-.088s-1.117,18.013-.646,26.5v.823H319.892v-.823c.558-8.492-.617-26.5-.617-26.5s-.029,0-.029.118c-.676,1-5.172,8.2-8.933,15.045l-5.612-3.2-17.543-9.873-.117-.029c7.2-13.576,16.073-28.385,20.687-36.936,7.464-13.723,32.528-18.542,41.55-19.834,2.057-.294,3.262-.411,3.262-.411s1.616,7.934,11.225,10.138c9.667-2.2,11.284-10.079,11.284-10.079s1.2.117,3.232.411c8.992,1.264,34.115,6.024,41.579,19.776,4.143,7.611,11.577,20.187,18.277,32.44C438.957,337.835,439.751,339.333,440.544,340.832Z" transform="translate(-275.55 -216.508)" fill="#bb85ff"/><path d="M344.207,321.517l-1.352.764-.029.029-5.524,3.115c-3.761-6.759-8.257-13.958-8.962-15.016a.091.091,0,0,1-.029-.059V298.359S338.124,310.5,344.207,321.517Z" transform="translate(-195.551 -187.995)" fill="#d6b5ff"/><path d="M307.629,298.585v11.237s-.038,0-.038.118c-.661,1.011-5.172,8.2-8.942,15.048l-5.6-3.188A243.607,243.607,0,0,1,307.629,298.585Z" transform="translate(-263.899 -187.557)" fill="#d6b5ff"/><path d="M306.943,334.206v7.661C299.2,335.84,291.2,328.373,291,322.97c-.118-3.811,2.565-10.07,6.027-16.485l5.6,3.188c-3.15,5.677-5.794,11.119-5.289,12.479,1.09,3.188,9.45,12.054,9.45,12.054Z" transform="translate(-267.877 -172.243)" fill="#f1e5ff"/></g><path d="M305.193,292.9a8.815,8.815,0,0,1-1.413-5.3,8.274,8.274,0,0,1,2.912-5.894,4.655,4.655,0,0,1-.25-3,3.546,3.546,0,0,1,2.5-2.6,8.373,8.373,0,0,1,.664-6.094,5.3,5.3,0,0,1,6.491-2.4,8.481,8.481,0,0,1,4.079-7.093,6.273,6.273,0,0,1,6.488.6,3.329,3.329,0,0,1,2.248-2.1,2.711,2.711,0,0,1,2.718,1.337,2.711,2.711,0,0,1,2.718-1.337,3.321,3.321,0,0,1,2.245,2.1,6.277,6.277,0,0,1,6.491-.6,8.488,8.488,0,0,1,4.079,7.093,5.3,5.3,0,0,1,6.491,2.4,8.406,8.406,0,0,1,.664,6.094,3.551,3.551,0,0,1,2.5,2.6,4.678,4.678,0,0,1-.25,3,8.286,8.286,0,0,1,2.912,5.894,8.815,8.815,0,0,1-1.413,5.3,3.343,3.343,0,0,1,1,3.5,2.549,2.549,0,0,1-2.495,2,4.213,4.213,0,0,1-1.122.9,3.573,3.573,0,0,1-.917.35,3.456,3.456,0,0,1-1.707-1.5,5.483,5.483,0,0,1-.165-4.343,8.965,8.965,0,0,1-2.08-6.544,6.979,6.979,0,0,1,.582-2,7.04,7.04,0,0,1-3.952-4.5,7.647,7.647,0,0,1-.25-2.5,2.053,2.053,0,0,1-2.5,0,2.75,2.75,0,0,1-.873-1.449,6.507,6.507,0,0,1-4.12,1,6.968,6.968,0,0,1-4.034-1.948s-.582,2.189-3.749,2.239v.009l-.05-.006-.053.006v-.009c-3.165-.05-3.746-2.239-3.746-2.239a6.979,6.979,0,0,1-4.038,1.948,6.5,6.5,0,0,1-4.117-1,2.779,2.779,0,0,1-.876,1.449,2.049,2.049,0,0,1-2.495,0,7.649,7.649,0,0,1-.25,2.5,7.039,7.039,0,0,1-3.952,4.5,7.072,7.072,0,0,1,.582,2,8.965,8.965,0,0,1-2.08,6.544,5.476,5.476,0,0,1-.168,4.343,3.442,3.442,0,0,1-1.7,1.5,3.573,3.573,0,0,1-.917-.35,4.213,4.213,0,0,1-1.123-.9,2.552,2.552,0,0,1-2.5-2A3.349,3.349,0,0,1,305.193,292.9Z" transform="translate(-243.13 -259)" fill="#1a171e"/></g><g transform="translate(0 182.42)"><path d="M415.178,368.553l-.118,7.27-.156,10.108s-9.953-.893-24.339-2.759c-18.468-2.412-44.285-6.456-65.9-12.4-19.711-5.4-35.964-12.365-40.007-21.075-8.827-18.974,9.873-34.136,31.415-26.672,8.63,3.033,26.243,10.887,44.285,19.285C387.3,354.865,415.178,368.553,415.178,368.553Z" transform="translate(-282.419 -321.08)" fill="#1e1c23"/><path d="M387.311,354.55l-.118,7.27L362.7,369.169c-18.468-2.412-44.285-6.456-65.9-12.4,10.655-6.65,26.049-19.87,35.693-28.462C359.434,340.863,387.311,354.55,387.311,354.55Z" transform="translate(-254.551 -307.078)" fill="#151319"/><path d="M330.078,340.218v15.33s20.231,1.343,21.539-.92,2.871-10.443-2.263-14.36S331.691,336.16,330.078,340.218Z" transform="translate(-190.034 -289.734)" fill="#1e1c23"/><path d="M327.626,337.236l7.935,2.919v15.272l-8.235-.824Z" transform="translate(-195.367 -289.763)" fill="#e6d5b9"/><path d="M299.019,385.917S417.3,375.436,429.274,349.683c8.827-18.976-9.882-34.136-31.441-26.649s-99.113,45.513-99.113,45.513Z" transform="translate(-250.821 -321.076)" fill="#1e1c23"/><path d="M304.052,337.236l-7.935,2.919v15.272l8.235-.824Z" transform="translate(-255.864 -289.763)" fill="#e6d5b9"/><path d="M311.228,340.218v15.33s-20.231,1.343-21.539-.92-2.871-10.443,2.266-14.36S309.614,336.16,311.228,340.218Z" transform="translate(-270.826 -289.734)" fill="#1e1c23"/></g></g><g transform="translate(209.32 217.582)" opacity="0.21"><g transform="translate(77.776 139.1)"><rect width="48.343" height="48.343" rx="3.049" fill="#bb85ff"/><g transform="translate(13.965 14.669)"><path d="M178.952,200.616H145.727a9.663,9.663,0,0,1-9.65-9.653V157.741a9.661,9.661,0,0,1,9.65-9.653h33.225a9.661,9.661,0,0,1,9.65,9.653v33.222A9.663,9.663,0,0,1,178.952,200.616Zm-33.225-44.935a2.06,2.06,0,0,0-2.057,2.06v33.222a2.059,2.059,0,0,0,2.057,2.057h33.225a2.059,2.059,0,0,0,2.057-2.057V157.741a2.06,2.06,0,0,0-2.057-2.06Z" transform="translate(-136.077 -148.088)" fill="#bb85ff"/></g></g><g transform="translate(619.446 234.943)"><g transform="translate(13.782)"><rect width="36.713" height="36.713" rx="2.316" fill="#bb85ff"/></g><g transform="translate(0 11.14)"><path d="M348.225,219.393H323a7.338,7.338,0,0,1-7.331-7.328V186.832A7.338,7.338,0,0,1,323,179.5h25.229a7.337,7.337,0,0,1,7.328,7.328v25.232A7.337,7.337,0,0,1,348.225,219.393ZM323,185.272a1.564,1.564,0,0,0-1.563,1.56v25.232A1.564,1.564,0,0,0,323,213.628h25.229a1.566,1.566,0,0,0,1.563-1.563V186.832a1.566,1.566,0,0,0-1.563-1.56Z" transform="translate(-315.664 -179.504)" fill="#bb85ff"/></g></g><g transform="translate(609.304 25.953)"><path d="M324.679,129.522a3.663,3.663,0,0,1-2.606-1.081l-8.783-8.78a3.69,3.69,0,0,1,0-5.21l8.783-8.783a3.687,3.687,0,0,1,5.21,0l8.783,8.78a3.689,3.689,0,0,1,0,5.213l-8.783,8.78A3.651,3.651,0,0,1,324.679,129.522Zm0-21.941a.689.689,0,0,0-.491.2l-8.783,8.78a.691.691,0,0,0,0,.978l8.783,8.783a.585.585,0,0,0,.979,0l8.783-8.786a.683.683,0,0,0,.2-.488.7.7,0,0,0-.2-.491l-8.783-8.78A.688.688,0,0,0,324.679,107.581Z" transform="translate(-312.213 -104.59)" fill="#bb85ff"/></g><g transform="translate(652.536 385.947)"><path d="M339.39,252.034a3.663,3.663,0,0,1-2.606-1.078L328,242.173a3.693,3.693,0,0,1,0-5.21l8.783-8.783a3.691,3.691,0,0,1,5.213,0l8.78,8.783a3.687,3.687,0,0,1,0,5.21L342,250.956A3.673,3.673,0,0,1,339.39,252.034Zm-.491-3.194a.585.585,0,0,0,.979,0l8.783-8.783a.692.692,0,0,0,0-.979l-8.783-8.783a.585.585,0,0,0-.979,0l-8.78,8.783a.685.685,0,0,0,0,.979Z" transform="translate(-326.925 -227.102)" fill="#bb85ff"/></g><g transform="translate(211.309)"><path d="M189.236,120.688a3.661,3.661,0,0,1-2.6-1.078l-8.783-8.783a3.678,3.678,0,0,1,0-5.21l8.783-8.78a3.684,3.684,0,0,1,5.21,0l8.783,8.78a3.685,3.685,0,0,1,0,5.213l-8.78,8.78A3.673,3.673,0,0,1,189.236,120.688Zm0-21.938a.688.688,0,0,0-.488.2l-8.783,8.78a.7.7,0,0,0,0,.978l8.786,8.783a.583.583,0,0,0,.978,0l8.783-8.783a.688.688,0,0,0,.2-.488.7.7,0,0,0-.2-.491l-8.783-8.78A.69.69,0,0,0,189.236,98.75Z" transform="translate(-176.768 -95.758)" fill="#bb85ff"/></g><g transform="translate(0 367.787)"><path d="M117.321,245.852a3.67,3.67,0,0,1-2.6-1.076l-8.783-8.783a3.682,3.682,0,0,1,0-5.21l8.78-8.78a3.651,3.651,0,0,1,2.6-1.081h0A3.658,3.658,0,0,1,119.93,222l8.78,8.78a3.687,3.687,0,0,1,0,5.21l-8.783,8.783A3.677,3.677,0,0,1,117.321,245.852Zm0-21.938a.688.688,0,0,0-.488.2L108.05,232.9a.694.694,0,0,0-.2.491.684.684,0,0,0,.2.488l8.783,8.783a.7.7,0,0,0,.981,0l8.78-8.783a.684.684,0,0,0,.2-.488.694.694,0,0,0-.2-.491l-8.783-8.78A.683.683,0,0,0,117.321,223.913Z" transform="translate(-104.856 -220.922)" fill="#bb85ff"/></g><g transform="translate(752.993 429.271)"><path d="M375.242,268.345a3.882,3.882,0,0,1-2.771-1.149L362.26,256.982a3.917,3.917,0,0,1,0-5.542l8.445-8.448a3.927,3.927,0,0,1,5.545,0l10.214,10.214a3.923,3.923,0,0,1,0,5.542l-8.448,8.448A3.884,3.884,0,0,1,375.242,268.345Zm-.526-3.394a.747.747,0,0,0,1.055,0l8.448-8.445a.75.75,0,0,0,0-1.058l-10.214-10.211a.752.752,0,0,0-1.055,0l-8.448,8.448a.743.743,0,0,0,0,1.052Z" transform="translate(-361.112 -241.846)" fill="#bb85ff"/></g><g transform="translate(180.094 271.963)"><circle cx="5.941" cy="5.941" r="5.941" fill="#bb85ff"/></g><g transform="translate(713.555 154.527)"><path d="M360.353,154.675a6.331,6.331,0,1,1-6.329-6.329A6.33,6.33,0,0,1,360.353,154.675Z" transform="translate(-347.691 -148.346)" fill="#bb85ff"/></g><g transform="translate(397.638 20.828)"><path d="M252.841,109.175a6.331,6.331,0,1,1-6.332-6.329A6.33,6.33,0,0,1,252.841,109.175Z" transform="translate(-240.179 -102.846)" fill="#bb85ff"/></g><g transform="translate(251.698 184.402)"><path d="M205.129,165.821a7.308,7.308,0,1,1-7.308-7.308A7.31,7.31,0,0,1,205.129,165.821Z" transform="translate(-190.513 -158.513)" fill="#bb85ff"/></g><g transform="translate(42.729 260.857)"><circle cx="5.293" cy="5.293" r="5.293" fill="#bb85ff"/></g><g transform="translate(171.437 353.909)"><path d="M173.783,221.491a5.292,5.292,0,1,1-5.292-5.292A5.291,5.291,0,0,1,173.783,221.491Z" transform="translate(-163.199 -216.199)" fill="#bb85ff"/></g><g transform="translate(11.807 305.568)"><path d="M113.531,202.078a2.329,2.329,0,1,1-2.327-2.33A2.327,2.327,0,0,1,113.531,202.078Z" transform="translate(-108.874 -199.748)" fill="#bb85ff"/></g></g><path d="M525.48,113.508a56.313,56.313,0,0,0-19.188-3.174,58.052,58.052,0,0,0-55.331,42.225v.029H262.52l-77.4.029A11.87,11.87,0,0,0,173.25,164.46v19.834h.029v17.4a9.957,9.957,0,0,0,9.991,9.961h1.763a9.976,9.976,0,0,0,9.991-9.961v-17.4H207.6v17.4a9.976,9.976,0,0,0,9.991,9.961h2.292a9.976,9.976,0,0,0,9.991-9.961v-17.4l12.665-.029.029,16.837c0,5.23,3.732,9.991,8.933,10.49a9.958,9.958,0,0,0,11.019-9.932v-17.4H450.962a58.1,58.1,0,0,0,113.923-18.6C563.768,141.511,547.372,121.06,525.48,113.508Zm17.9,67.32a14.888,14.888,0,1,1-8.228-27.327,14.725,14.725,0,0,1,8.316,2.556h.029a14.907,14.907,0,0,1-.118,24.771Z" transform="translate(237.042 150.075)" fill="#bb85ff" opacity="0.6"/><path d="M374.937,163.57a58.094,58.094,0,0,1-103.7,38.64c19.188,9.256,41.2,13.429,61.5,2.028,11.842-6.67,18.071-15.633,20.687-25.506a14.907,14.907,0,0,0,.118-24.771h-.029c-3.262-16.837-12.077-33.057-17.983-42.549C357.424,118.965,373.821,139.416,374.937,163.57Z" transform="translate(426.989 152.17)" fill="#bb85ff"/><path d="M144.861,231.559a.091.091,0,0,0-.059-.029l-.059-.059v6.67c-4.76-3.937-9.667-10.99-10.02-11.548l10.049,4.848A.875.875,0,0,1,144.861,231.559Z" transform="translate(162.36 375.44)" fill="#ffd9a4"/><g transform="translate(488.004 667.516)"><path d="M213.265,299.592c-.929-2.133-4.654-10.34-5.571-15.527s-3.738-9.4-3.814-11.995,4.176-4.117,5.289-9.438,3.35-14.013,4.731-13.749,2.324,9.8,3.641,12.15,4.86,5.275,2.113,8.663-1.278,7.44,1.24,10.978-4.622,7.943-3.92,12.756-.632,11.287-.632,11.287Z" transform="translate(-191.591 -248.878)" fill="#d6b5ff"/><g transform="translate(19.218 10.624)"><path d="M209.928,282.311a.42.42,0,0,1-.417-.373,27.472,27.472,0,0,0-2.083-7.537,13.244,13.244,0,0,1-1.187-4.1,6.217,6.217,0,0,1,1.622-3.846,7.89,7.89,0,0,0,1.748-3.6c.4-3.021-2.324-9.72-2.354-9.785a.42.42,0,1,1,.776-.32c.118.285,2.836,6.976,2.412,10.217a8.7,8.7,0,0,1-1.9,3.979c-.811,1.122-1.513,2.089-1.463,3.323a12.5,12.5,0,0,0,1.125,3.82,28.2,28.2,0,0,1,2.139,7.754.419.419,0,0,1-.37.461Z" transform="translate(-206.237 -252.494)" fill="#bb85ff"/></g><path d="M214.272,289.593c-1.031-.464-1.363-6.083-3.25-6.92s-3.25-3.459-3.879-6.185-6.185-3.876-7.231-6.811,2.1-5.034,1.886-7.758-2.515-6.6-.84-8.386,4.613,4.4,6.185,5.659,4.613,2.621,3.773,4.928.314,6.08,5.765,8.178S225.7,294.73,214.272,289.593Z" transform="translate(-199.697 -240.474)" fill="#f1e5ff"/><g transform="translate(5.292 20.606)"><path d="M211.619,274.759a.418.418,0,0,1-.4-.291c-1.073-3.276-2.756-4.569-4.71-6.065a21.259,21.259,0,0,1-3.065-2.695c-3.05-3.376-1.625-9.253-1.563-9.5a.419.419,0,0,1,.814.2c-.015.056-1.378,5.692,1.372,8.736a20.713,20.713,0,0,0,2.95,2.592c1.98,1.513,3.846,2.944,5,6.47a.42.42,0,0,1-.267.529A.518.518,0,0,1,211.619,274.759Z" transform="translate(-201.498 -255.891)" fill="#bb85ff"/></g><path d="M209.11,291.127c.279-.84.558-4.475,2.515-5.313s3.914-1.4,5.451-3.914,0-6.429,1.678-9.083,5.451-.141,7.408-2.8-2.377-7.267-.837-9.224,3.632-7.267,1.537-7.966-7.966,3.077-9.506,6.429-4.61,5.31-5.31,7.966-2.936,4.055-3.494,6.708.279,6.708-.7,9.644S209.11,291.127,209.11,291.127Z" transform="translate(-184.368 -241.38)" fill="#f1e5ff"/><path d="M223.447,284.773H205.893a2.352,2.352,0,0,1-2.354-2.26l-.749-18.7h23.76l-.749,18.7A2.352,2.352,0,0,1,223.447,284.773Z" transform="translate(-193.701 -219.933)" fill="#d6b5ff"/><g transform="translate(28.235 17.739)"><path d="M209.727,277.139H209.7a.423.423,0,0,1-.391-.45A23.1,23.1,0,0,1,215,262.335c2.01-2.412,3.259-7.061,3.27-7.105a.419.419,0,1,1,.811.212c-.053.2-1.308,4.875-3.438,7.431a22.34,22.34,0,0,0-5.495,13.878A.417.417,0,0,1,209.727,277.139Z" transform="translate(-209.306 -254.915)" fill="#bb85ff"/></g></g><g transform="translate(366.004 698.789)"><path d="M180.238,260.53l-.553,10.137-.612,11.219-.517,9.5H160.2l-.494-9.5-.583-11.219L158.6,260.53Z" transform="translate(-157.359 -257.565)" fill="#dfe5e4"/><rect width="18.912" height="3.326" transform="translate(2.605)" fill="#131016"/><rect width="24.121" height="4.287" transform="translate(0 2.845)" fill="#131016"/><path d="M179.338,263.98l-.612,11.219H159.363l-.583-11.219Z" transform="translate(-157.012 -250.878)" fill="#bb85ff"/><circle cx="2.967" cy="2.967" r="2.967" transform="translate(9.093 15.773)" fill="#dfe5e4"/></g></g></svg>