<svg xmlns="http://www.w3.org/2000/svg" width="134.389" height="138.214" viewBox="0 0 134.389 138.214">
  <g id="Group_2903" data-name="Group 2903" transform="translate(-1506.931 -5926)">
    <path id="Path_2314" data-name="Path 2314" d="M5836.019,5855.954s-3.266-41.312,43.063-42.442,50.85,21.47,50.85,21.47,23.729,67.8-50.85,76.274c-19.316,2.2-30.711-8-37.144-24.722A85.3,85.3,0,0,1,5836.019,5855.954Z" transform="translate(-4329.038 152.663)" fill="#beedc0"/>
    <g id="contract_1_" data-name="contract (1)" transform="translate(1531 5925.961)">
      <path id="Path_2333" data-name="Path 2333" d="M258.056,100.105a5.518,5.518,0,0,0-10.111-1.324l-.919,1.6a1.838,1.838,0,0,0-2.5.662L239.856,109l-1.6-.919a1.837,1.837,0,1,0-1.838,3.18l1.6.919-15.626,27.079-3.861,10.314-1.838,3.437a5.516,5.516,0,0,0,.294,5.957l-4.136,5.073-1.158-2.9a3.677,3.677,0,0,0-6.564-.515l-.662,1.121-.625-7.353a3.677,3.677,0,0,0-7.151-.864L192.169,167.1a1.838,1.838,0,0,0,1.158,2.317,1.592,1.592,0,0,0,.57.146,1.838,1.838,0,0,0,1.747-1.249l4.5-13.567.644,7.463a3.677,3.677,0,0,0,6.82,1.582l.68-1.122,1.14,2.887a3.676,3.676,0,0,0,6.287.937L220,161.066a5.662,5.662,0,0,0,1.452.184,5.515,5.515,0,0,0,4.8-2.722l1.838-3.07,7-8.511,15.791-27.41,1.6.919a1.843,1.843,0,0,1,.68,2.519l-7.353,12.74a1.825,1.825,0,1,0,3.107,1.912l7.353-12.74a5.513,5.513,0,0,0-2.022-7.537l-1.6-.919,4.6-7.96a1.839,1.839,0,0,0-.662-2.5l.919-1.6a5.513,5.513,0,0,0,.551-4.265Zm-6.931.514a1.838,1.838,0,0,1,1.122-.864,1.93,1.93,0,0,1,1.4.184,1.84,1.84,0,0,1,.864,1.121,1.93,1.93,0,0,1-.184,1.4l-.919,1.6-3.2-1.838Zm-25.057,51.328-.919-.533-2.721-1.582,2.61-6.985,5.791,3.345Zm-5.515,5.312a1.837,1.837,0,0,1-.551-2.408l.919-1.6,3.2,1.838-.919,1.581a1.837,1.837,0,0,1-2.647.588Zm12.372-14.081-6.361-3.677,14.707-25.48,6.361,3.677Zm16.545-28.661-6.361-3.677,3.677-6.361,6.361,3.677Zm0,0" transform="translate(-147.938 -73.925)" fill="#464646"/>
      <path id="Path_2334" data-name="Path 2334" d="M80.853,357.038l-6.507,6.49-3.9-3.9a1.839,1.839,0,1,0-2.592,2.61l3.9,3.9a3.706,3.706,0,0,0,5.2,0l6.489-6.508a1.839,1.839,0,0,0-2.592-2.592Zm0,0" transform="translate(-51.844 -274.622)" fill="#464646"/>
      <path id="Path_2335" data-name="Path 2335" d="M32,327.667a15.626,15.626,0,1,0,31.252,0,1.838,1.838,0,0,0-3.677,0,11.951,11.951,0,1,1-4.78-9.559A1.839,1.839,0,0,0,57,315.166a15.626,15.626,0,0,0-25,12.5Zm0,0" transform="translate(-24.647 -240.306)" fill="#464646"/>
      <path id="Path_2336" data-name="Path 2336" d="M121.636,51.716a1.838,1.838,0,1,0,0-3.677h-47.8A1.838,1.838,0,0,0,72,49.877v7.353a1.838,1.838,0,0,0,1.838,1.838h47.8a1.838,1.838,0,1,0,0-3.677H75.677V51.716Zm0,0" transform="translate(-55.455 -36.97)" fill="#464646"/>
      <path id="Path_2337" data-name="Path 2337" d="M97.838,112.039a1.838,1.838,0,1,0,0,3.677h36.767a1.838,1.838,0,1,0,0-3.677Zm0,0" transform="translate(-73.94 -86.263)" fill="#464646"/>
      <path id="Path_2338" data-name="Path 2338" d="M170.282,168.039H129.838a1.838,1.838,0,1,0,0,3.677h40.444a1.838,1.838,0,0,0,0-3.677Zm0,0" transform="translate(-98.586 -129.395)" fill="#464646"/>
      <path id="Path_2339" data-name="Path 2339" d="M96.444,217.877a1.838,1.838,0,0,0-1.838-1.838H57.838a1.838,1.838,0,1,0,0,3.677H94.605A1.838,1.838,0,0,0,96.444,217.877Zm0,0" transform="translate(-43.132 -166.364)" fill="#464646"/>
      <path id="Path_2340" data-name="Path 2340" d="M262.707,216.039H249.838a1.838,1.838,0,0,0,0,3.677h12.868a1.838,1.838,0,0,0,0-3.677Zm0,0" transform="translate(-191.011 -166.364)" fill="#464646"/>
      <path id="Path_2341" data-name="Path 2341" d="M76.222,259.716a1.838,1.838,0,1,0,0-3.677H57.838a1.838,1.838,0,1,0,0,3.677Zm0,0" transform="translate(-43.132 -197.173)" fill="#464646"/>
      <path id="Path_2342" data-name="Path 2342" d="M169.838,259.716h12.868a1.838,1.838,0,0,0,0-3.677H169.838a1.838,1.838,0,0,0,0,3.677Zm0,0" transform="translate(-129.395 -197.173)" fill="#464646"/>
      <path id="Path_2343" data-name="Path 2343" d="M82.726,84.6a1.838,1.838,0,0,0-1.838,1.838v18.384a1.838,1.838,0,0,1-1.838,1.838H5.515a1.838,1.838,0,0,1-1.838-1.838V5.554A1.838,1.838,0,0,1,5.515,3.716H79.049a1.838,1.838,0,0,1,1.838,1.838V40.079a1.838,1.838,0,1,0,3.677,0V5.554A5.515,5.515,0,0,0,79.049.039H5.515A5.515,5.515,0,0,0,0,5.554v99.271a5.515,5.515,0,0,0,5.515,5.515H79.049a5.515,5.515,0,0,0,5.515-5.515V86.442A1.838,1.838,0,0,0,82.726,84.6Zm0,0" fill="#464646"/>
    </g>
  </g>
</svg>
