<svg xmlns="http://www.w3.org/2000/svg" width="230.381" height="38.667" viewBox="0 0 230.381 38.667"><g transform="translate(-845 -10)"><g transform="translate(747.691)"><g transform="translate(68)"><circle cx="4.012" cy="4.012" r="4.012" transform="translate(60.052 40.643)" fill="#6e6e6e"/><circle cx="4.012" cy="4.012" r="4.012" transform="translate(67.738 33.007)" fill="#6e6e6e"/><circle cx="4.012" cy="4.012" r="4.012" transform="translate(75.424 25.321)" fill="#6e6e6e"/><circle cx="4.012" cy="4.012" r="4.012" transform="translate(44.68 25.321)" fill="#6e6e6e"/><circle cx="4.012" cy="4.012" r="4.012" transform="translate(52.366 17.686)" fill="#6e6e6e"/><circle cx="4.012" cy="4.012" r="4.012" transform="translate(60.052 10)" fill="#6e6e6e"/><circle cx="4.012" cy="4.012" r="4.012" transform="translate(67.738 17.686)" fill="#6e6e6e"/><g transform="translate(29.309 10)"><circle cx="4.012" cy="4.012" r="4.012" transform="translate(15.372 0)" fill="#bb85ff"/><circle cx="4.012" cy="4.012" r="4.012" transform="translate(7.686 7.635)" fill="#bb85ff"/><circle cx="4.012" cy="4.012" r="4.012" transform="translate(0 15.321)" fill="#bb85ff"/><circle cx="4.012" cy="4.012" r="4.012" transform="translate(30.744 15.321)" fill="#bb85ff"/><circle cx="4.012" cy="4.012" r="4.012" transform="translate(23.058 22.957)" fill="#bb85ff"/><circle cx="4.012" cy="4.012" r="4.012" transform="translate(15.372 30.642)" fill="#bb85ff"/><circle cx="4.012" cy="4.012" r="4.012" transform="translate(7.686 22.957)" fill="#bb85ff"/></g></g><text transform="translate(161.195 34)" fill="#6e6e6e" font-size="15" font-family="Raleway-ExtraBold, Raleway" font-weight="800" letter-spacing="0.1em"><tspan x="0" y="0">EAZY</tspan></text><text transform="translate(209.689 36)" fill="#bb85ff" font-size="22" font-family="Raleway-ExtraBold, Raleway" font-weight="800" letter-spacing="0.1em"><tspan x="0" y="0">PROCURE</tspan></text></g></g></svg>