<svg xmlns="http://www.w3.org/2000/svg" width="142.938" height="144.214" viewBox="0 0 142.938 144.214">
  <g id="Group_2902" data-name="Group 2902" transform="translate(-1089.033 -5920)">
    <path id="Path_2313" data-name="Path 2313" d="M5836.019,5855.954s-3.266-41.312,43.063-42.442,50.85,21.47,50.85,21.47,23.729,67.8-50.85,76.274c-19.316,2.2-30.711-8-37.144-24.722A85.3,85.3,0,0,1,5836.019,5855.954Z" transform="translate(-4746.936 152.663)" fill="#f4c6ef"/>
    <g id="analysis" transform="translate(1107 5920)">
      <path id="Path_1731" data-name="Path 1731" d="M151.625,95.265a6.109,6.109,0,1,0-4.876-2.437l-10.026,14.011a6.085,6.085,0,0,0-6.054,1.333l-6.683-3.792a6.1,6.1,0,1,0-11.93,0l-6.683,3.792a6.093,6.093,0,1,0,1.812,3.182l6.683-3.792a6.087,6.087,0,0,0,8.307,0l6.683,3.792a6.1,6.1,0,1,0,10.841-2.382l10.026-14.011A6.083,6.083,0,0,0,151.625,95.265Zm0-8.543a2.441,2.441,0,1,1-2.441,2.441A2.444,2.444,0,0,1,151.625,86.722Zm-50.405,28.355a2.441,2.441,0,1,1,2.441-2.441A2.444,2.444,0,0,1,101.219,115.078Zm16.8-9.54a2.441,2.441,0,1,1,2.441-2.441A2.444,2.444,0,0,1,118.021,105.538Zm16.8,9.54a2.441,2.441,0,1,1,2.441-2.441A2.444,2.444,0,0,1,134.823,115.078Z" transform="translate(-71.901 -64.388)" fill="#464646"/>
      <path id="Path_1732" data-name="Path 1732" d="M102.222,122.336H5.178a1.519,1.519,0,0,1-1.517-1.517V45.294a1.519,1.519,0,0,1,1.517-1.517h8.63a1.831,1.831,0,1,0,0-3.661H5.178A5.184,5.184,0,0,0,0,45.294v75.524A5.184,5.184,0,0,0,5.178,126H17.8v4.029a4.167,4.167,0,0,0,4.162,4.162H40.287l-8.626,16.841A1.831,1.831,0,1,0,34.92,152.7l9.481-18.51h20.24l9.481,18.51a1.831,1.831,0,1,0,3.259-1.669l-8.626-16.841H87.079a4.167,4.167,0,0,0,4.162-4.162V126h10.98a1.831,1.831,0,0,0,0-3.661Zm-14.642,7.69a.5.5,0,0,1-.5.5H21.963a.5.5,0,0,1-.5-.5V126H87.58Z" transform="translate(0 -31.925)" fill="#464646"/>
      <path id="Path_1733" data-name="Path 1733" d="M80.9,18.41h82.733a1.519,1.519,0,0,1,1.517,1.517V37.333a1.831,1.831,0,1,0,3.661,0V19.927a5.184,5.184,0,0,0-5.178-5.178H124.452v-3.6a4.6,4.6,0,0,0-4.593-4.593H108.725a4.6,4.6,0,0,0-4.593,4.593v3.6H80.9a1.831,1.831,0,1,0,0,3.661Zm26.891-7.26a.933.933,0,0,1,.932-.931h11.135a.933.933,0,0,1,.932.931v3.6h-13v-3.6Z" transform="translate(-59.771 -6.558)" fill="#464646"/>
      <path id="Path_1734" data-name="Path 1734" d="M99.233,267.576a1.831,1.831,0,0,0-1.831,1.831v16.176a1.831,1.831,0,0,0,1.831,1.831h7.427a1.83,1.83,0,0,0,1.831-1.831V269.407a1.83,1.83,0,0,0-1.831-1.831Zm5.6,16.176h-3.765V271.238h3.765Z" transform="translate(-73.628 -203.866)" fill="#464646"/>
      <path id="Path_1735" data-name="Path 1735" d="M168.068,229.248a1.831,1.831,0,0,0-1.831,1.831V256.61a1.831,1.831,0,0,0,1.831,1.831h7.427a1.831,1.831,0,0,0,1.831-1.831V231.079a1.831,1.831,0,0,0-1.831-1.831Zm5.6,25.531H169.9v-21.87h3.765Z" transform="translate(-125.661 -174.893)" fill="#464646"/>
      <path id="Path_1736" data-name="Path 1736" d="M236.9,267.576a1.831,1.831,0,0,0-1.831,1.831v16.176a1.831,1.831,0,0,0,1.831,1.831h7.427a1.83,1.83,0,0,0,1.831-1.831V269.407a1.83,1.83,0,0,0-1.831-1.831Zm5.6,16.176h-3.765V271.238H242.5Z" transform="translate(-177.695 -203.866)" fill="#464646"/>
      <path id="Path_1737" data-name="Path 1737" d="M305.74,311.832a1.831,1.831,0,0,0-1.831,1.831v5.374a1.831,1.831,0,0,0,1.831,1.831h7.427a1.831,1.831,0,1,0,0-3.661h-5.6v-3.543A1.831,1.831,0,0,0,305.74,311.832Z" transform="translate(-229.73 -237.319)" fill="#464646"/>
      <path id="Path_1738" data-name="Path 1738" d="M347.435,202.943l-10.5-18.191a23.939,23.939,0,1,0-23.671,6.755,24.058,24.058,0,0,0,6.231.825,23.626,23.626,0,0,0,5.389-.622l10.5,18.191a6.959,6.959,0,1,0,12.053-6.959ZM314.21,187.971a20.266,20.266,0,1,1,15.378-2.025A20.134,20.134,0,0,1,314.21,187.971Zm28.849,21.307a3.3,3.3,0,0,1-4.5-1.206l-10.1-17.5a24.031,24.031,0,0,0,5.708-3.3l10.105,17.5a3.294,3.294,0,0,1-1.206,4.5Z" transform="translate(-223.398 -110.811)" fill="#464646"/>
      <path id="Path_1739" data-name="Path 1739" d="M356.287,193.788a17.324,17.324,0,0,0-.867-12.55,1.831,1.831,0,1,0-3.312,1.56,13.711,13.711,0,1,1-4.134-5.108,1.83,1.83,0,1,0,2.209-2.919,17.384,17.384,0,1,0,6.1,19.017Z" transform="translate(-243.632 -131.045)" fill="#464646"/>
    </g>
  </g>
</svg>
