<svg xmlns="http://www.w3.org/2000/svg" width="38.503" height="33.317" viewBox="0 0 38.503 33.317">
  <g id="first-aid-kit" transform="translate(0)">
    <g id="Group_1286" data-name="Group 1286" transform="translate(11.329 11.094)">
      <g id="Group_1285" data-name="Group 1285" transform="translate(0 0)">
        <path id="Path_485" data-name="Path 485" d="M129.064,142.637h-3.232V139.4a1.18,1.18,0,0,0-1.173-1.188h-4.666a1.18,1.18,0,0,0-1.18,1.18v3.232h-3.224A1.18,1.18,0,0,0,114.4,143.8v4.666a1.18,1.18,0,0,0,1.18,1.18h3.232v3.224a1.18,1.18,0,0,0,1.173,1.188h4.658a1.18,1.18,0,0,0,1.18-1.18h0v-3.232h3.232a1.18,1.18,0,0,0,1.188-1.173v-4.658A1.18,1.18,0,0,0,129.064,142.637Zm-.4,5.427H125.04a.792.792,0,0,0-.792.792v3.621H120.4v-3.621a.792.792,0,0,0-.792-.792h-3.621v-3.842H119.6a.792.792,0,0,0,.792-.792V139.8h3.842v3.62a.792.792,0,0,0,.792.792h3.628Z" transform="translate(-114.4 -138.216)" fill="#0088c4"/>
      </g>
    </g>
    <g id="Group_1288" data-name="Group 1288" transform="translate(0 0)">
      <g id="Group_1287" data-name="Group 1287">
        <path id="Path_486" data-name="Path 486" d="M33.036,31.352H26.508V28.564a2.305,2.305,0,0,0-2.23-2.379q-.1,0-.194,0H14.419A2.306,2.306,0,0,0,12,28.369q-.005.1,0,.194v2.773H5.466A5.138,5.138,0,0,0,0,36.8V54.034A5.138,5.138,0,0,0,5.466,59.5h27.57A5.138,5.138,0,0,0,38.5,54.034V36.819C38.5,32.786,35.563,31.352,33.036,31.352ZM13.579,28.564a.743.743,0,0,1,.848-.848h9.657c.848,0,.848.61.848.848v2.773H13.579Zm23.339,25.47a3.559,3.559,0,0,1-3.882,3.882H5.466a3.563,3.563,0,0,1-3.882-3.882V36.819a3.559,3.559,0,0,1,3.882-3.882h27.57a3.563,3.563,0,0,1,3.882,3.882V54.034Z" transform="translate(0 -26.184)" fill="#0088c4"/>
      </g>
    </g>
  </g>
</svg>
