<svg xmlns="http://www.w3.org/2000/svg" xmlns:xlink="http://www.w3.org/1999/xlink" width="287.544" height="269.288" viewBox="0 0 287.544 269.288">
  <defs>
    <linearGradient id="linear-gradient" x1="0.5" y1="1" x2="0.5" gradientUnits="objectBoundingBox">
      <stop offset="0" stop-color="#4b4b4b"/>
      <stop offset="1" stop-color="#b8b8b8"/>
    </linearGradient>
    <linearGradient id="linear-gradient-2" x1="0.5" y1="0.891" x2="0.5" gradientUnits="objectBoundingBox">
      <stop offset="0" stop-color="#a5a5a5"/>
      <stop offset="1" stop-color="#e6e6e6"/>
    </linearGradient>
  </defs>
  <g id="Group_2899" data-name="Group 2899" transform="translate(-485.5 -3994.394)">
    <g id="contact-book" transform="translate(506.144 3994.394)">
      <g id="Group_1795" data-name="Group 1795" transform="translate(46 15.779)">
        <g id="Group_1794" data-name="Group 1794">
          <path id="Path_1647" data-name="Path 1647" d="M243.232,117.308l-7.889-39.446v-16.3a15.825,15.825,0,0,0-15.779-15.779H69.668c-4.261,0-8.047-3.314-7.889-7.573A7.982,7.982,0,0,0,53.889,30,7.812,7.812,0,0,0,46,37.889V259.842a23.635,23.635,0,0,0,23.668,23.668H227.454a7.812,7.812,0,0,0,7.889-7.889V235.648l7.889-39.447L266.9,180.423V133.087Z" transform="translate(-46 -30)" fill="url(#linear-gradient)"/>
        </g>
      </g>
      <g id="Group_1797" data-name="Group 1797" transform="translate(46)">
        <g id="Group_1796" data-name="Group 1796">
          <path id="Path_1648" data-name="Path 1648" d="M235.343,7.889A7.889,7.889,0,0,0,227.454,0H69.668a23.668,23.668,0,1,0,0,47.336H235.343ZM128.364,80.523A63.151,63.151,0,0,0,96.017,187.187a61.069,61.069,0,0,0,13.1,9.941c0-16.085,13.574-30.926,31.557-30.926,17.818,0,31.557,14.627,31.557,31.083A63.221,63.221,0,0,0,128.364,80.523Zm12.308,77.788a23.668,23.668,0,1,1,23.668-23.668A23.635,23.635,0,0,1,140.672,158.312ZM259.011,63.64H235.343v55.225H266.9V71.53A7.812,7.812,0,0,0,259.011,63.64ZM235.343,221.426h23.668a7.812,7.812,0,0,0,7.889-7.889V166.2H235.343Z" transform="translate(-46)" fill="url(#linear-gradient-2)"/>
        </g>
      </g>
    </g>
    <text id="For_Supplier" data-name="For   Supplier" transform="translate(485.5 4241.5)" fill="#787878" font-size="35" font-family="SegoeUI-Bold, Segoe UI" font-weight="700" letter-spacing="0.02em"><tspan x="0" y="0" xml:space="preserve">For   </tspan><tspan y="0" fill="#fff">Supplier</tspan></text>
  </g>
</svg>
