<svg xmlns="http://www.w3.org/2000/svg" width="31.683" height="31.649" viewBox="0 0 31.683 31.649">
  <g id="global" transform="translate(0 -0.256)">
    <g id="Group_1799" data-name="Group 1799" transform="translate(17.308 0.256)">
      <g id="Group_1798" data-name="Group 1798" transform="translate(0 0)">
        <path id="Path_1650" data-name="Path 1650" d="M260.113.256a32.053,32.053,0,0,1,4.171,8.5,18.373,18.373,0,0,0,6.254-2.191l.568-.352A15.864,15.864,0,0,0,260.113.256Z" transform="translate(-260.113 -0.256)" fill="#3758ff"/>
      </g>
    </g>
    <g id="Group_1801" data-name="Group 1801" transform="translate(11.333 11.311)">
      <g id="Group_1800" data-name="Group 1800">
        <path id="Path_1651" data-name="Path 1651" d="M178.809,166.4a34.894,34.894,0,0,1-7.949,0,21.691,21.691,0,0,0-.534,3.634h9.017A21.69,21.69,0,0,0,178.809,166.4Z" transform="translate(-170.326 -166.4)" fill="#3758ff"/>
      </g>
    </g>
    <g id="Group_1803" data-name="Group 1803" transform="translate(12.491 22.894)">
      <g id="Group_1802" data-name="Group 1802">
        <path id="Path_1652" data-name="Path 1652" d="M191.083,340.48a32.947,32.947,0,0,0-3.35.174,30.48,30.48,0,0,0,3.35,6.937,30.485,30.485,0,0,0,3.35-6.937A32.937,32.937,0,0,0,191.083,340.48Z" transform="translate(-187.733 -340.48)" fill="#3758ff"/>
      </g>
    </g>
    <g id="Group_1805" data-name="Group 1805" transform="translate(22.07 17.216)">
      <g id="Group_1804" data-name="Group 1804">
        <path id="Path_1653" data-name="Path 1653" d="M332.232,255.147a24.052,24.052,0,0,1-.542,3.981,20.327,20.327,0,0,1,6.864,2.466l.642.4a15.793,15.793,0,0,0,2.108-6.848Z" transform="translate(-331.69 -255.147)" fill="#3758ff"/>
      </g>
    </g>
    <g id="Group_1807" data-name="Group 1807" transform="translate(22.07 8.098)">
      <g id="Group_1806" data-name="Group 1806">
        <path id="Path_1654" data-name="Path 1654" d="M339.2,118.118l-.642.4a20.327,20.327,0,0,1-6.864,2.472,24.055,24.055,0,0,1,.542,3.975H341.3A15.793,15.793,0,0,0,339.2,118.118Z" transform="translate(-331.69 -118.118)" fill="#3758ff"/>
      </g>
    </g>
    <g id="Group_1809" data-name="Group 1809" transform="translate(11.333 17.216)">
      <g id="Group_1808" data-name="Group 1808">
        <path id="Path_1655" data-name="Path 1655" d="M170.325,255.147a21.677,21.677,0,0,0,.536,3.634,35.021,35.021,0,0,1,7.949,0,21.685,21.685,0,0,0,.531-3.634Z" transform="translate(-170.325 -255.147)" fill="#3758ff"/>
      </g>
    </g>
    <g id="Group_1811" data-name="Group 1811" transform="translate(0 8.098)">
      <g id="Group_1810" data-name="Group 1810">
        <path id="Path_1656" data-name="Path 1656" d="M2.749,118.518l-.642-.4A15.794,15.794,0,0,0,0,124.964H9.071a24.055,24.055,0,0,1,.542-3.975A20.327,20.327,0,0,1,2.749,118.518Z" transform="translate(0 -118.118)" fill="#3758ff"/>
      </g>
    </g>
    <g id="Group_1813" data-name="Group 1813" transform="translate(3.383 23.402)">
      <g id="Group_1812" data-name="Group 1812">
        <path id="Path_1657" data-name="Path 1657" d="M57.663,348.109A18.4,18.4,0,0,0,51.41,350.3l-.568.353a15.859,15.859,0,0,0,10.993,5.961A32.026,32.026,0,0,1,57.663,348.109Z" transform="translate(-50.842 -348.109)" fill="#3758ff"/>
      </g>
    </g>
    <g id="Group_1815" data-name="Group 1815" transform="translate(12.491 2.157)">
      <g id="Group_1814" data-name="Group 1814">
        <path id="Path_1658" data-name="Path 1658" d="M191.083,28.826a30.5,30.5,0,0,0-3.35,6.936,32.385,32.385,0,0,0,6.7,0A30.5,30.5,0,0,0,191.083,28.826Z" transform="translate(-187.733 -28.826)" fill="#3758ff"/>
      </g>
    </g>
    <g id="Group_1817" data-name="Group 1817" transform="translate(17.304 23.402)">
      <g id="Group_1816" data-name="Group 1816">
        <path id="Path_1659" data-name="Path 1659" d="M270.49,350.3a18.4,18.4,0,0,0-6.254-2.189,32.023,32.023,0,0,1-4.174,8.5,15.859,15.859,0,0,0,10.993-5.961Z" transform="translate(-260.062 -348.108)" fill="#3758ff"/>
      </g>
    </g>
    <g id="Group_1819" data-name="Group 1819" transform="translate(3.386 0.256)">
      <g id="Group_1818" data-name="Group 1818">
        <path id="Path_1660" data-name="Path 1660" d="M50.893,6.219l.564.352a18.375,18.375,0,0,0,6.254,2.191,32.049,32.049,0,0,1,4.174-8.5A15.864,15.864,0,0,0,50.893,6.219Z" transform="translate(-50.893 -0.257)" fill="#3758ff"/>
      </g>
    </g>
    <g id="Group_1821" data-name="Group 1821" transform="translate(0 17.216)">
      <g id="Group_1820" data-name="Group 1820">
        <path id="Path_1661" data-name="Path 1661" d="M9.071,255.147H0a15.792,15.792,0,0,0,2.108,6.848l.642-.4a20.328,20.328,0,0,1,6.864-2.467A24.038,24.038,0,0,1,9.071,255.147Z" transform="translate(0 -255.147)" fill="#3758ff"/>
      </g>
    </g>
  </g>
</svg>
