<svg xmlns="http://www.w3.org/2000/svg" width="96.049" height="96.049" viewBox="0 0 96.049 96.049">
  <g id="good" transform="translate(-1317 -722.454)">
    <path id="Path_2937" data-name="Path 2937" d="M145.065,224.532a2.087,2.087,0,0,0-2.948.163,23.23,23.23,0,0,1-34.473,0,2.088,2.088,0,0,0-3.111,2.785,27.405,27.405,0,0,0,40.7,0A2.089,2.089,0,0,0,145.065,224.532Z" transform="translate(1240.145 556.919)"/>
    <path id="Path_2938" data-name="Path 2938" d="M48.025,0A48.025,48.025,0,1,0,96.049,48.025,48.08,48.08,0,0,0,48.025,0Zm0,91.873A43.849,43.849,0,1,1,91.873,48.025,43.9,43.9,0,0,1,48.025,91.873Z" transform="translate(1317 722.454)"/>
    <path id="Path_2939" data-name="Path 2939" d="M218.44,128A10.452,10.452,0,0,0,208,138.44a2.088,2.088,0,1,0,4.176,0,6.264,6.264,0,1,1,12.528,0,2.088,2.088,0,1,0,4.176,0A10.452,10.452,0,0,0,218.44,128Z" transform="translate(1163.289 627.862)"/>
    <path id="Path_2940" data-name="Path 2940" d="M96.7,138.44a2.088,2.088,0,0,0,4.176,0,10.44,10.44,0,1,0-20.88,0,2.088,2.088,0,0,0,4.176,0,6.264,6.264,0,1,1,12.528,0Z" transform="translate(1257.88 627.862)"/>
  </g>
</svg>
