<svg xmlns="http://www.w3.org/2000/svg" width="97.549" height="97.549" viewBox="0 0 97.549 97.549">
  <g id="great" transform="translate(-1472.25 -721.256)">
    <path id="Path_2957" data-name="Path 2957" d="M218.44,128A10.452,10.452,0,0,0,208,138.44a2.088,2.088,0,1,0,4.176,0,6.264,6.264,0,1,1,12.528,0,2.088,2.088,0,1,0,4.176,0A10.452,10.452,0,0,0,218.44,128Z" transform="translate(1319.289 623.862)"/>
    <path id="Path_2958" data-name="Path 2958" d="M96.7,138.44a2.088,2.088,0,0,0,4.176,0,10.44,10.44,0,1,0-20.88,0,2.088,2.088,0,0,0,4.176,0,6.264,6.264,0,1,1,12.528,0Z" transform="translate(1413.88 623.862)"/>
    <g id="happy" transform="translate(1473 722.006)">
      <g id="Group_2866" data-name="Group 2866" transform="translate(0 0)">
        <g id="Group_2865" data-name="Group 2865">
          <path id="Path_2953" data-name="Path 2953" d="M81.983,14.066A48.024,48.024,0,1,0,14.066,81.983,48.024,48.024,0,1,0,81.983,14.066ZM48.024,90.332A42.307,42.307,0,1,1,90.332,48.024,42.355,42.355,0,0,1,48.024,90.332Z" transform="translate(0 0)" stroke="#fff" stroke-width="1.5"/>
        </g>
      </g>
      <g id="Group_2872" data-name="Group 2872" transform="translate(19.82 50.121)">
        <g id="Group_2871" data-name="Group 2871">
          <path id="Path_2956" data-name="Path 2956" d="M159.2,267.175H108.51a2.859,2.859,0,0,0-2.859,2.859,28.2,28.2,0,1,0,56.41,0A2.859,2.859,0,0,0,159.2,267.175Zm-25.346,25.346a22.521,22.521,0,0,1-22.307-19.629h44.614A22.521,22.521,0,0,1,133.856,292.521Z" transform="translate(-105.651 -267.175)" stroke="#fff" stroke-width="1.5"/>
        </g>
      </g>
    </g>
  </g>
</svg>
