<svg xmlns="http://www.w3.org/2000/svg" xmlns:xlink="http://www.w3.org/1999/xlink" width="144.176" height="56.051" viewBox="0 0 144.176 56.051">
  <defs>
    <linearGradient id="linear-gradient" y1="0.5" x2="4.407" y2="0.435" gradientUnits="objectBoundingBox">
      <stop offset="0" stop-color="#3abb00"/>
      <stop offset="1" stop-color="#135200"/>
    </linearGradient>
    <linearGradient id="linear-gradient-2" x1="0.418" y1="0.5" x2="0.554" y2="0.31" gradientUnits="objectBoundingBox">
      <stop offset="0" stop-color="#3abb00"/>
      <stop offset="1" stop-color="#1e8000"/>
    </linearGradient>
    <linearGradient id="linear-gradient-3" x1="0.489" y1="0.876" x2="0.508" y2="0.163" xlink:href="#linear-gradient-2"/>
  </defs>
  <g id="greenr-img" transform="translate(-5 -17)">
    <g id="splash_logo" transform="translate(5 17)">
      <g id="Clip-2">
        <path id="path-2" d="M21.43,0a23.648,23.648,0,0,0-2.577.161,14.342,14.342,0,0,0-3.494.939,17.014,17.014,0,0,0-3.2,1.721A18.9,18.9,0,0,0,7.156,7.928a31.153,31.153,0,0,0-3.419,6.225,59.76,59.76,0,0,0-2.33,6.916Q.962,22.764.589,24.818A38.33,38.33,0,0,0,.068,29Q0,29.962,0,30.914v.115q0,1.112.094,2.217a14.6,14.6,0,0,0,.819,3.86,13,13,0,0,0,1.462,2.882A8.477,8.477,0,0,0,4.629,42.27,10.287,10.287,0,0,0,7.7,43.682,10.115,10.115,0,0,0,11.62,44a16.76,16.76,0,0,0,7.237-2.262,18.354,18.354,0,0,0,5.576-5.032A20.39,20.39,0,0,0,27.7,29.642a21.978,21.978,0,0,0,.42-8.423c-.066-.483-.42-.8-1.065-.939A7.569,7.569,0,0,0,24.7,20.2a20.5,20.5,0,0,0-3.05.561q-1.662.426-3.122.957a22.378,22.378,0,0,0-2.578,1.109,5.042,5.042,0,0,0-1.462,1,4.37,4.37,0,0,0-.868,2.483,3.143,3.143,0,0,0,.967,2.483,13.293,13.293,0,0,0,1.364-.621q.718-.375,1.463-.678a12.377,12.377,0,0,1,1.561-.516,6.091,6.091,0,0,1,1.71-.185q-.248,1.434-.569,2.7A10.231,10.231,0,0,1,19.2,31.86a7.885,7.885,0,0,1-1.562,2,8.761,8.761,0,0,1-2.4,1.559,6.926,6.926,0,0,1-2.3.721,6.242,6.242,0,0,1-2.181-.093,4.776,4.776,0,0,1-1.809-.829A3.4,3.4,0,0,1,7.8,33.774a8.382,8.382,0,0,1-.545-3.346A27.21,27.21,0,0,1,7.7,25.759a47.029,47.029,0,0,1,3.172-10.472,32.855,32.855,0,0,1,2.353-4.457,11.772,11.772,0,0,1,2.6-3.013,6.29,6.29,0,0,1,1.884-1.126,8.252,8.252,0,0,1,4.411-.477,5.876,5.876,0,0,1,1.983.695,4.2,4.2,0,0,1,1.066.865,2.442,2.442,0,0,1,.62,1.389,2.508,2.508,0,0,1-.273,1.558,7.963,7.963,0,0,1-.768,1.11,9.894,9.894,0,0,1-.918.853,1.185,1.185,0,0,0-.52.873,2.1,2.1,0,0,0,.47,1.425A6.167,6.167,0,0,0,24.8,16.072a10.8,10.8,0,0,0,1.313.8,3.056,3.056,0,0,0,1.413.4,3.51,3.51,0,0,0,1.958-.694,5.981,5.981,0,0,0,1.364-1.28,8.755,8.755,0,0,0,.941-1.515,11.562,11.562,0,0,0,.744-1.888,17.6,17.6,0,0,0,.47-2.014,8.465,8.465,0,0,0,.124-1.887A7.757,7.757,0,0,0,32.536,5.7,8.863,8.863,0,0,0,31.4,3.692a9.05,9.05,0,0,0-5.08-3.1A18.381,18.381,0,0,0,21.717,0Z" fill="url(#linear-gradient)"/>
      </g>
      <g id="Clip-5" transform="translate(29.825 1.933)">
        <path id="path-5" d="M95.032.072a2.115,2.115,0,0,0-1.348.9,4.46,4.46,0,0,0-.711,1.684,7.232,7.232,0,0,0-.122,1.982,5.7,5.7,0,0,0,.367,1.745,1.671,1.671,0,0,0,.417.631.983.983,0,0,1,.319.589,2.125,2.125,0,0,1-.049.99c-.1.4-.2.789-.3,1.158a29.938,29.938,0,0,1-.979,3.061q-.589,1.553-1.128,2.779a36.748,36.748,0,0,1-1.839,3.625c-.479.831-.921,1.639-1.343,2.438a29.2,29.2,0,0,1-2.014,2.495q-.442.478-.932.963a5.68,5.68,0,0,1-1.053.825,4.115,4.115,0,0,1-1.25.5,3.758,3.758,0,0,1-1.569-.019q.392-1.707.979-3.6t1.1-3.91q.515-2.012.832-4.084a18.361,18.361,0,0,0,.172-4.13q-.1-.682-.221-1.288a3.787,3.787,0,0,0-.416-1.124,2.467,2.467,0,0,0-1.325-1.148,3.743,3.743,0,0,0-1.692-.132,5.94,5.94,0,0,0-1.813.566,10.147,10.147,0,0,0-1.642,1,25.55,25.55,0,0,0-2.33,2.014q-1.1,1.077-2.107,2.218t-1.937,2.278q-.93,1.136-1.814,2.145.343-1.5.613-3.007t.564-3.054a8.958,8.958,0,0,1,.269-1.105,2.114,2.114,0,0,0,.074-1.041,1.844,1.844,0,0,0-.761-1.023,3.908,3.908,0,0,0-1.373-.627,4.174,4.174,0,0,0-1.569-.069,2.112,2.112,0,0,0-1.3.649,2.361,2.361,0,0,0-.54,1.153q-.147.727-.294,1.527-.837,4.272-1.6,8.31c-.022,0-.04.005-.061.008q-.834,1.5-1.788,3.1a19.934,19.934,0,0,1-2.231,3.04,20.924,20.924,0,0,1-2.77,2.593,7.954,7.954,0,0,1-3.554,1.573A3.794,3.794,0,0,1,50.592,29a5.7,5.7,0,0,1-1.546-1.254q2.795-1.855,5.54-4.077a26.878,26.878,0,0,0,4.756-4.949,22.15,22.15,0,0,0,1.25-1.975,6.236,6.236,0,0,0,.76-2.379,5.305,5.305,0,0,0-.466-2.92A6.129,6.129,0,0,0,59.341,9.5a6.07,6.07,0,0,0-1.961-.949,5.929,5.929,0,0,0-2.55-.111,7.9,7.9,0,0,0-2.82.97,13.7,13.7,0,0,0-2.327,1.67,24.32,24.32,0,0,0-6.374,8.408,11.5,11.5,0,0,0-.8,2.338c-.348.607-.707,1.224-1.083,1.858a19.862,19.862,0,0,1-2.231,3.041,21.122,21.122,0,0,1-2.77,2.593,7.947,7.947,0,0,1-3.554,1.572,3.787,3.787,0,0,1-2.377-.249,5.73,5.73,0,0,1-1.546-1.253q2.795-1.857,5.54-4.078a26.806,26.806,0,0,0,4.756-4.948,21.8,21.8,0,0,0,1.25-1.976,6.212,6.212,0,0,0,.76-2.378,5.3,5.3,0,0,0-.466-2.92,6.114,6.114,0,0,0-1.545-1.942,6.058,6.058,0,0,0-1.961-.949,5.94,5.94,0,0,0-2.549-.112,7.911,7.911,0,0,0-2.82.971,13.611,13.611,0,0,0-2.328,1.67,24.3,24.3,0,0,0-6.373,8.407,12.2,12.2,0,0,0-1.1,4.108c-.023.237-.03.471-.042.706-.257.369-.5.75-.767,1.109-.588.8-1.269,2.079-2,3a6.42,6.42,0,0,1-2.328,1.866,4.931,4.931,0,0,1-.81.239,7.136,7.136,0,0,1-1.029.158,2.478,2.478,0,0,1-.907-.073.656.656,0,0,1-.49-.452,1.515,1.515,0,0,1,.073-.868q.172-.58.319-1.085a31.3,31.3,0,0,1,1.617-4.4q.93-2.023,1.912-3.927a16.526,16.526,0,0,1,.859-1.573,12.919,12.919,0,0,0,.809-1.52,2.932,2.932,0,0,0,.27-1.5,2.688,2.688,0,0,0-.441-1.27,2.592,2.592,0,0,0-1.005-.854,2.642,2.642,0,0,0-1.421-.254,2.609,2.609,0,0,0-.687.155,2.785,2.785,0,0,1-.736.16,3.355,3.355,0,0,1-2.255-.309q-.884-.519-1.863-1.128a6.366,6.366,0,0,0-.1-2.948A3.91,3.91,0,0,0,9.853,8.454a3.429,3.429,0,0,0-1.128-.573,3.055,3.055,0,0,0-1.52-.048,2.114,2.114,0,0,0-1.348.9,4.43,4.43,0,0,0-.711,1.685A7.215,7.215,0,0,0,5.024,12.4a5.65,5.65,0,0,0,.368,1.745,1.632,1.632,0,0,0,.415.631.981.981,0,0,1,.32.589,2.116,2.116,0,0,1-.049.99q-.147.6-.295,1.158A29.553,29.553,0,0,1,4.8,20.574q-.589,1.551-1.127,2.779a37.111,37.111,0,0,1-1.839,3.624q-1,1.735-1.838,3.38a.746.746,0,0,1,.343.366,4.968,4.968,0,0,0,.342.563,2.244,2.244,0,0,0,.417.459.7.7,0,0,0,.515.156q.294-.025.71-.527c.277-.334.5-.59.662-.769a18.477,18.477,0,0,0,1.128-1.522q1.567-2.395,3.309-4.731t3.309-4.535a2.638,2.638,0,0,0,.736.236,1.55,1.55,0,0,1,.686.288,23.762,23.762,0,0,1-1.225,2.81Q10.2,24.593,9.56,26.124a22.543,22.543,0,0,0-1.054,3.191,10.867,10.867,0,0,0-.269,3.521,5.374,5.374,0,0,0,1.447,3.431,4.3,4.3,0,0,0,3.309,1.355,7.193,7.193,0,0,0,3.383-.77,12.358,12.358,0,0,0,2.5-1.732A16.216,16.216,0,0,0,21.3,32.357c.36-.517.918-1.629,1.248-2.169a9.28,9.28,0,0,0,1.59,3.1,6.463,6.463,0,0,0,3.482,2.229,6.622,6.622,0,0,0,2.109.221,14.2,14.2,0,0,0,2.328-.289,16.442,16.442,0,0,0,2.207-.625,9.608,9.608,0,0,0,1.788-.837,12.406,12.406,0,0,0,3.064-2.567A34.624,34.624,0,0,0,41.693,28.1c.214-.346.41-.7.613-1.054.048.3.1.6.171.891a9.361,9.361,0,0,0,1.764,3.7,6.46,6.46,0,0,0,3.483,2.229,6.589,6.589,0,0,0,2.108.221A13.855,13.855,0,0,0,52.16,33.8a16.572,16.572,0,0,0,2.208-.624,9.656,9.656,0,0,0,1.789-.838,12.4,12.4,0,0,0,3.064-2.567,34.8,34.8,0,0,0,2.2-2.8c-.072.238-.138.48-.213.716q-.245.711-.54,1.375a5.438,5.438,0,0,0-.391,1.215,2.184,2.184,0,0,0,.269,1.58,2.4,2.4,0,0,0,1.128.918,3.243,3.243,0,0,0,3.065-.4,3.557,3.557,0,0,0,.93-1.014q.443-.675.883-1.254Q68.413,27.539,70.2,25.1t3.652-4.809q.294-.418.834-1.128t1.153-1.5q.612-.788,1.2-1.5a11.3,11.3,0,0,1,1.03-1.119c.3-.271.522-.4.687-.377s.2.263.1.731q-.492,2.109-1.1,4.156T76.6,23.614q-.246.859-.49,1.717a10.554,10.554,0,0,0-.344,1.7,3.954,3.954,0,0,0,.417,2.059,3.742,3.742,0,0,0,1.323,1.42,5.143,5.143,0,0,0,1.962.727,7.179,7.179,0,0,0,2.328-.019,5.9,5.9,0,0,0,2.329-.93,15.918,15.918,0,0,0,1.936-1.49,22.556,22.556,0,0,0,4.351-5.494c.156-.184.3-.348.4-.465a18.033,18.033,0,0,0,1.128-1.521q1.569-2.395,3.31-4.732t3.309-4.535a2.6,2.6,0,0,0,.736.236,1.57,1.57,0,0,1,.687.289,23.909,23.909,0,0,1-1.227,2.811q-.735,1.44-1.372,2.971a22.4,22.4,0,0,0-1.055,3.191,10.872,10.872,0,0,0-.269,3.521,5.381,5.381,0,0,0,1.446,3.431,4.306,4.306,0,0,0,3.31,1.355,7.218,7.218,0,0,0,3.383-.77,12.415,12.415,0,0,0,2.5-1.733,16.283,16.283,0,0,0,2.425-2.761,31.511,31.511,0,0,0,1.937-3.166q.883-1.649,1.667-3.365t1.617-3.41a4.657,4.657,0,0,1-1.1.066,4.714,4.714,0,0,0-1.1.066,29.327,29.327,0,0,1-1.52,2.614q-.834,1.276-1.716,2.481t-1.79,2.413a6.012,6.012,0,0,1-2.328,1.868,5.174,5.174,0,0,1-.81.238,7.63,7.63,0,0,1-1.03.158,2.458,2.458,0,0,1-.906-.073.655.655,0,0,1-.49-.452,1.526,1.526,0,0,1,.074-.869c.113-.387.22-.749.318-1.086a31.264,31.264,0,0,1,1.618-4.4q.93-2.025,1.912-3.927a16.465,16.465,0,0,1,.858-1.573,13.016,13.016,0,0,0,.809-1.521,2.936,2.936,0,0,0,.271-1.5,2.694,2.694,0,0,0-.443-1.27,2.587,2.587,0,0,0-1-.854,2.655,2.655,0,0,0-1.422-.253,2.569,2.569,0,0,0-.687.155,2.734,2.734,0,0,1-.734.159,3.35,3.35,0,0,1-2.256-.308c-.59-.347-1.209-.722-1.865-1.128a6.341,6.341,0,0,0-.1-2.949A3.918,3.918,0,0,0,97.68.693,3.388,3.388,0,0,0,96.553.12,2.755,2.755,0,0,0,95.731,0a3.592,3.592,0,0,0-.7.072M49.34,19.761q.735-1.169,1.57-2.272a27.478,27.478,0,0,1,1.912-2.251,5.551,5.551,0,0,1,2.254-1.54c.163-.045.277-.023.343.07a.833.833,0,0,1,.123.384,2.606,2.606,0,0,1,0,.493,2.127,2.127,0,0,1-.074.4,4.183,4.183,0,0,1-1.152,1.918q-.809.757-1.544,1.457-1.129,1.03-2.208,1.882t-2.254,1.737a8.328,8.328,0,0,1,1.029-2.279m-20.1,1.646q.735-1.169,1.568-2.271a27.137,27.137,0,0,1,1.912-2.251,5.531,5.531,0,0,1,2.256-1.54c.162-.046.277-.024.342.07a.812.812,0,0,1,.123.383,2.605,2.605,0,0,1,0,.493,2.011,2.011,0,0,1-.074.4,4.186,4.186,0,0,1-1.152,1.918q-.809.759-1.544,1.457-1.129,1.03-2.207,1.882t-2.255,1.737a8.313,8.313,0,0,1,1.03-2.279" fill="url(#linear-gradient-2)"/>
      </g>
      <path id="Fill-7" d="M142.381,55.508C105.236,58.389,67.953,61.36,31.112,67.052c-7.89,1.219-15.769,2.585-23.548,4.394-2.786.648-1.606,4.931,1.181,4.282,14.829-3.448,30-5.49,45.092-7.353,18.822-2.324,37.7-4.151,56.6-5.8q15.967-1.395,31.948-2.62c2.766-.216,2.855-4.449.2-4.45-.066,0-.134,0-.2.008" transform="translate(-2.125 -19.743)" fill="url(#linear-gradient-3)"/>
    </g>
  </g>
</svg>
