<svg xmlns="http://www.w3.org/2000/svg" width="24" height="22.75" viewBox="0 0 24 22.75">
  <g id="Group_1284" data-name="Group 1284" transform="translate(-1735 -2370)">
    <path id="Icon_metro-attachment" data-name="Icon metro-attachment" d="M16.379,8.555,15.062,7.24,8.48,13.82a2.792,2.792,0,0,0,3.949,3.948l7.9-7.9a4.653,4.653,0,0,0-6.581-6.58L5.454,11.583l-.018.017a6.49,6.49,0,0,0,9.179,9.178l.017-.018h0l5.66-5.659-1.317-1.316-5.66,5.659-.017.017a4.629,4.629,0,0,1-6.547-6.545L6.77,12.9h0l8.294-8.291a2.792,2.792,0,0,1,3.949,3.948l-7.9,7.9A.931.931,0,0,1,9.8,15.136l6.582-6.581Z" transform="translate(1731.465 2370.072)" fill="#aeaeae"/>
    <circle id="Ellipse_99" data-name="Ellipse 99" cx="4.5" cy="4.5" r="4.5" transform="translate(1750 2370)" fill="#ff3b3b"/>
  </g>
</svg>
