<svg id="Layer_1" data-name="Layer 1" xmlns="http://www.w3.org/2000/svg" viewBox="0 0 593.43 760.67"><defs><style>.cls-1,.cls-3{fill:#3758ff;}.cls-1{opacity:0.24;}.cls-1,.cls-2,.cls-3,.cls-4{isolation:isolate;}.cls-2{fill:#b3aeff;}.cls-2,.cls-3,.cls-4{fill-rule:evenodd;opacity:0.7;}.cls-4{fill:#afafaf;}</style></defs><path class="cls-1" d="M540.24,482.84,294.49,728.59,292,726.05V159.25l2.53-2.54L540.24,402.45A56.84,56.84,0,0,1,540.24,482.84Z" transform="translate(-291.96 -74.55)"/><path id="Path_1621" data-name="Path 1621" class="cls-2" d="M653.47,143.68A25.59,25.59,0,1,0,661,161.77,25.63,25.63,0,0,0,653.47,143.68Zm-2.23,34a22.44,22.44,0,1,1,0-31.74A22.44,22.44,0,0,1,651.24,177.65Zm2.23-34A25.59,25.59,0,1,0,661,161.77,25.63,25.63,0,0,0,653.47,143.68Zm-2.23,34a22.44,22.44,0,1,1,0-31.74A22.44,22.44,0,0,1,651.24,177.65Zm6.09-37.83a31,31,0,1,0,0,43.89A31,31,0,0,0,657.33,139.82Zm-22,50.63A28.67,28.67,0,1,1,664,161.77,28.71,28.71,0,0,1,635.38,190.45Zm18.09-46.77A25.59,25.59,0,1,0,661,161.77,25.63,25.63,0,0,0,653.47,143.68Zm-2.23,34a22.44,22.44,0,1,1,0-31.74A22.44,22.44,0,0,1,651.24,177.65Zm2.23-34A25.59,25.59,0,1,0,661,161.77,25.63,25.63,0,0,0,653.47,143.68Zm-2.23,34a22.44,22.44,0,1,1,0-31.74A22.44,22.44,0,0,1,651.24,177.65Zm6.09-37.83a31,31,0,1,0,0,43.89A31,31,0,0,0,657.33,139.82Zm-22,50.63A28.67,28.67,0,1,1,664,161.77,28.71,28.71,0,0,1,635.38,190.45Zm58.67-43.17H681.51A48.26,48.26,0,0,0,671,129.08l6.28-10.87,0-.1a6.1,6.1,0,0,0-2.27-8.22l-.09,0-14.49-8.36a6.09,6.09,0,0,0-8.3,2.22l0,.09-6.23,10.78c-1.53-.33-3.07-.59-4.64-.79a48.2,48.2,0,0,0-11.76,0c-1.57.2-3.1.45-4.63.79l-6.28-10.87a6.11,6.11,0,0,0-5.27-3,6,6,0,0,0-3,.81l-14.45,8.34-.24.14a6.09,6.09,0,0,0-2.18,8.13,2,2,0,0,0,.14.25l6.2,10.75a48.91,48.91,0,0,0-6.27,8.53,47.27,47.27,0,0,0-4.25,9.66H576.67a6.12,6.12,0,0,0-6.09,6.09V170.2a6.11,6.11,0,0,0,6.09,6.08h12.56a48.07,48.07,0,0,0,4.25,9.66,49.17,49.17,0,0,0,6.28,8.54l-6.21,10.75a1.82,1.82,0,0,0-.15.27,6.08,6.08,0,0,0,2.19,8.1l.24.14,14.44,8.34a6.15,6.15,0,0,0,3,.81,6.07,6.07,0,0,0,5.28-3L624.85,209a45.43,45.43,0,0,0,4.64.8,49.3,49.3,0,0,0,11.77,0,44.77,44.77,0,0,0,4.63-.8l6.27,10.86a6.1,6.1,0,0,0,8.31,2.24l.09-.05,14.49-8.37a6.11,6.11,0,0,0,3-5.27,6,6,0,0,0-.82-3L671,194.48a48.28,48.28,0,0,0,10.53-18.19h12.54a6.11,6.11,0,0,0,6.09-6.09V153.37A6.1,6.1,0,0,0,694.05,147.28Zm3,22.91a2.94,2.94,0,0,1-3,2.93h-13.7a1.59,1.59,0,0,0-1.51,1.15,45.31,45.31,0,0,1-10.9,18.85,1.59,1.59,0,0,0-.25,1.91l6.86,11.89a2.89,2.89,0,0,1,.39,1.47,3,3,0,0,1-1.47,2.55L659,219.31l-.09.05a3,3,0,0,1-4-1.08l-6.8-11.79a1.6,1.6,0,0,0-1.78-.84,45.5,45.5,0,0,1-21.82,0,2.6,2.6,0,0,0-.37,0,1.6,1.6,0,0,0-1.37.79l-6.86,11.88a3,3,0,0,1-4,1.06L597.34,211l-.07,0a3,3,0,0,1-1.08-4L603,195.1a1.54,1.54,0,0,0-.18-1.94,45.06,45.06,0,0,1-10.89-18.83,1.57,1.57,0,0,0-1.53-1.21H576.69a3,3,0,0,1-2.94-3v-16.8a3,3,0,0,1,2.94-3H590.4a1.57,1.57,0,0,0,1.51-1.14,45.27,45.27,0,0,1,10.92-18.88,1.56,1.56,0,0,0,.23-1.87l-6.82-11.81,0-.09a3,3,0,0,1,1.08-4l14.55-8.4a3,3,0,0,1,4,1.07l6.8,11.78a1.57,1.57,0,0,0,1.78.84,45.25,45.25,0,0,1,21.82,0,1.72,1.72,0,0,0,.37,0,1.58,1.58,0,0,0,1.36-.78l6.82-11.8,0-.08a3,3,0,0,1,4-1.08l14.47,8.35.09.07a3,3,0,0,1,1.12,4l0,.06-6.86,11.89a1.54,1.54,0,0,0,.22,1.87,44.9,44.9,0,0,1,6.63,8.81v0a45.15,45.15,0,0,1,4.26,10,1.58,1.58,0,0,0,1.53,1.21h13.71a3,3,0,0,1,3,3Zm-61.62-34a25.54,25.54,0,1,0,18.09,7.48A25.57,25.57,0,0,0,635.38,136.2Zm15.86,41.45a22.44,22.44,0,1,1,0-31.74A22.44,22.44,0,0,1,651.24,177.65Zm-37.8-37.82a31,31,0,1,0,43.89,0A30.92,30.92,0,0,0,613.44,139.83Zm21.94,50.62A28.67,28.67,0,1,1,664,161.77,28.71,28.71,0,0,1,635.38,190.45ZM575.48,89.3l2.81-4.88a3.8,3.8,0,0,0-1.39-5.19h0l-7.21-4.17a3.8,3.8,0,0,0-5.18,1.4l0,.09-2.77,4.79c-.6-.12-1.2-.21-1.81-.29a25.44,25.44,0,0,0-4.09-.15l5.09,3.48h0l1.19.26a1.73,1.73,0,0,0,.38,0,1.56,1.56,0,0,0,1.35-.79l3.32-5.75a.59.59,0,0,0,.1-.17.84.84,0,0,1,.38-.26.71.71,0,0,1,.43,0,1.39,1.39,0,0,0,.21.11L575.34,82a.66.66,0,0,1,.29.4.65.65,0,0,1,0,.51l-3.36,5.79a1.58,1.58,0,0,0,.18,2,21.07,21.07,0,0,1,2.72,3.48l5.16,3.52A24.79,24.79,0,0,0,575.48,89.3Zm-9.09,6.76a13.46,13.46,0,1,0,3.94,9.51A13.39,13.39,0,0,0,566.39,96.06Zm-2.23,16.8a10.3,10.3,0,1,1,0-14.57A10.3,10.3,0,0,1,564.16,112.86Zm2.23-16.8a13.46,13.46,0,1,0,3.94,9.51A13.39,13.39,0,0,0,566.39,96.06Zm-2.23,16.8a10.3,10.3,0,1,1,0-14.57A10.3,10.3,0,0,1,564.16,112.86ZM588.6,98.73l-.1-.1a3.81,3.81,0,0,0-2.59-1h-5.63l-5.16-3.52a6.67,6.67,0,0,1,.45.72h0a21.14,21.14,0,0,1,2,4.74,1.56,1.56,0,0,0,1.53,1.2h6.77a.65.65,0,0,1,.43.16l0,0a.63.63,0,0,1,.19.47v8.32a.6.6,0,0,1-.19.46.61.61,0,0,1-.43.19h-6.81a1.6,1.6,0,0,0-1.52,1.14,21.37,21.37,0,0,1-5.17,9,1.57,1.57,0,0,0-.25,1.91l3.39,5.87a.76.76,0,0,1,.08.33.71.71,0,0,1-.32.59l-7.21,4.15a.75.75,0,0,1-.51.07.63.63,0,0,1-.4-.31l-3.35-5.78a1.59,1.59,0,0,0-1.78-.84,21.47,21.47,0,0,1-7.84.48,22.53,22.53,0,0,1-2.58-.48,1.55,1.55,0,0,0-.37,0,1.57,1.57,0,0,0-1.36.79l-3.39,5.87a.59.59,0,0,1-.4.29.69.69,0,0,1-.51,0l-7.22-4.17a.63.63,0,0,1-.29-.4.73.73,0,0,1,0-.46l3.42-5.91a1.6,1.6,0,0,0-.23-1.88,21.35,21.35,0,0,1-3.17-4.2,21.07,21.07,0,0,1-2-4.74,1.57,1.57,0,0,0-1.52-1.21h-6.79a.68.68,0,0,1-.66-.66v-8.32a.71.71,0,0,1,.15-.44l0,0a.65.65,0,0,1,.47-.2h6.77a1.59,1.59,0,0,0,1.52-1.14,21.46,21.46,0,0,1,5.21-9,1.57,1.57,0,0,0,.43-1.09,1.54,1.54,0,0,0-.2-.78l-3.4-5.88a.69.69,0,0,1,.25-.92l7.2-4.16a.68.68,0,0,1,.91.25l3.34,5.78a1.58,1.58,0,0,0,1.78.83,21.91,21.91,0,0,1,7.84-.47c.46.06.92.12,1.37.21l-5.09-3.48h0c-.63,0-1.27.08-1.89.15s-1.21.17-1.8.29l-2.81-4.88,6.5,4.44-6.49-4.45a3.81,3.81,0,0,0-5.17-1.4l-7.24,4.17h0a3.8,3.8,0,0,0-1.4,5.18l2.83,4.89a24.7,24.7,0,0,0-4.81,8.3h-5.63a3.89,3.89,0,0,0-2.7,1.12.53.53,0,0,1-.1.12,3.75,3.75,0,0,0-1,2.58v8.31a3.8,3.8,0,0,0,3.81,3.81h5.62a24.72,24.72,0,0,0,4.82,8.32l-2.83,4.88a.6.6,0,0,1-.06.11,3.81,3.81,0,0,0,1.46,5.09l7.21,4.15s0,0,0,0a3.82,3.82,0,0,0,5.18-1.41l2.81-4.89c.59.13,1.2.22,1.8.3a25.09,25.09,0,0,0,6,0c.61-.08,1.22-.17,1.81-.3l2.82,4.89h0a3.79,3.79,0,0,0,5.18,1.37l7.21-4.16h0a3.79,3.79,0,0,0,1.39-5.18l-2.82-4.88a24.73,24.73,0,0,0,2.82-3.93,24.08,24.08,0,0,0,2-4.39h5.63a3.75,3.75,0,0,0,2.69-1.12,3.79,3.79,0,0,0,1.12-2.68v-8.32A3.83,3.83,0,0,0,588.6,98.73Zm-45.17,6.86a13.46,13.46,0,1,0,13.45-13.45A13.46,13.46,0,0,0,543.43,105.59Zm20.73,7.27a10.3,10.3,0,1,1,0-14.57A10.3,10.3,0,0,1,564.16,112.86Zm2.23-16.8a13.46,13.46,0,1,0,3.94,9.51A13.39,13.39,0,0,0,566.39,96.06Zm-2.23,16.8a10.3,10.3,0,1,1,0-14.57A10.3,10.3,0,0,1,564.16,112.86Zm89.31,30.82A25.59,25.59,0,1,0,661,161.77,25.63,25.63,0,0,0,653.47,143.68Zm-2.23,34a22.44,22.44,0,1,1,0-31.74A22.44,22.44,0,0,1,651.24,177.65Zm2.23-34A25.59,25.59,0,1,0,661,161.77,25.63,25.63,0,0,0,653.47,143.68Zm-2.23,34a22.44,22.44,0,1,1,0-31.74A22.44,22.44,0,0,1,651.24,177.65Zm2.23-34A25.59,25.59,0,1,0,661,161.77,25.63,25.63,0,0,0,653.47,143.68Zm-2.23,34a22.44,22.44,0,1,1,0-31.74A22.44,22.44,0,0,1,651.24,177.65Zm6.09-37.83a31,31,0,1,0,0,43.89A31,31,0,0,0,657.33,139.82Zm-22,50.63A28.67,28.67,0,1,1,664,161.77,28.71,28.71,0,0,1,635.38,190.45Zm18.09-46.77A25.59,25.59,0,1,0,661,161.77,25.63,25.63,0,0,0,653.47,143.68Zm-2.23,34a22.44,22.44,0,1,1,0-31.74A22.44,22.44,0,0,1,651.24,177.65Zm2.23-34A25.59,25.59,0,1,0,661,161.77,25.63,25.63,0,0,0,653.47,143.68Zm-2.23,34a22.44,22.44,0,1,1,0-31.74A22.44,22.44,0,0,1,651.24,177.65Zm2.23-34A25.59,25.59,0,1,0,661,161.77,25.63,25.63,0,0,0,653.47,143.68Zm-2.23,34a22.44,22.44,0,1,1,0-31.74A22.44,22.44,0,0,1,651.24,177.65Zm6.09-37.83a31,31,0,1,0,0,43.89A31,31,0,0,0,657.33,139.82Zm-22,50.63A28.67,28.67,0,1,1,664,161.77,28.71,28.71,0,0,1,635.38,190.45Zm18.09-46.77A25.59,25.59,0,1,0,661,161.77,25.63,25.63,0,0,0,653.47,143.68Zm-2.23,34a22.44,22.44,0,1,1,0-31.74A22.44,22.44,0,0,1,651.24,177.65Zm2.23-34A25.59,25.59,0,1,0,661,161.77,25.63,25.63,0,0,0,653.47,143.68Zm-2.23,34a22.44,22.44,0,1,1,0-31.74A22.44,22.44,0,0,1,651.24,177.65Z" transform="translate(-291.96 -74.55)"/><path id="Path_1624" data-name="Path 1624" class="cls-3" d="M734.15,820.44l-11.63-11.63a1.85,1.85,0,0,0-2.61,2.61l10.33,10.32-10.33,10.33a1.84,1.84,0,1,0,2.61,2.6L734.15,823A1.83,1.83,0,0,0,734.15,820.44Zm-15.55,0L707,808.81a1.85,1.85,0,0,0-2.61,2.61l10.32,10.32-10.32,10.33a1.85,1.85,0,1,0,2.61,2.61l11.62-11.63A1.85,1.85,0,0,0,718.6,820.44Zm62.21,0-11.63-11.63a1.85,1.85,0,0,0-2.61,2.61l10.33,10.32-10.33,10.33a1.84,1.84,0,1,0,2.61,2.6L780.81,823h0A1.84,1.84,0,0,0,780.81,820.44Zm-15.55,0-11.64-11.63a1.84,1.84,0,0,0-2.6,2.61l10.33,10.32L751,832.07a1.87,1.87,0,0,0,0,2.61,1.83,1.83,0,0,0,2.6,0h0l11.64-11.62A1.85,1.85,0,0,0,765.26,820.44Zm-15.56,0-11.62-11.63a1.85,1.85,0,0,0-2.6,0,1.83,1.83,0,0,0,0,2.61l10.31,10.32-10.31,10.33a1.84,1.84,0,1,0,2.6,2.61h0l11.62-11.62A1.85,1.85,0,0,0,749.7,820.44Z" transform="translate(-291.96 -74.55)"/><path id="Path_1612" data-name="Path 1612" class="cls-4" d="M862.66,790.79a10.26,10.26,0,0,0-7.29-3h0a10.32,10.32,0,1,0,7.19,17.73l.12-.1a10.32,10.32,0,0,0,0-14.61Zm-2.59,12-.08.1a7.6,7.6,0,1,1,.08-.1Z" transform="translate(-291.96 -74.55)"/><path id="Path_1613" data-name="Path 1613" class="cls-4" d="M873.93,634.63a1.84,1.84,0,1,1,3.68,0h0v5.94h5.94a1.84,1.84,0,1,1,0,3.68h-5.94v5.94a1.84,1.84,0,1,1-3.68,0h0v-5.94H868a1.84,1.84,0,0,1,0-3.68h5.94Z" transform="translate(-291.96 -74.55)"/><path id="Path_1622" data-name="Path 1622" class="cls-3" d="M663.07,520.91a1.85,1.85,0,1,1,3.69,0h0v5.94h5.94a1.84,1.84,0,0,1,0,3.68h-5.94v5.94a1.85,1.85,0,1,1-3.69,0h0v-5.94h-5.93a1.84,1.84,0,0,1,0-3.68h5.94Z" transform="translate(-291.96 -74.55)"/><path id="Path_1625" data-name="Path 1625" class="cls-4" d="M718.07,678a22.66,22.66,0,1,0,16,27.75A22.66,22.66,0,0,0,718.07,678Zm4.07,39.1a19.88,19.88,0,1,1,7.28-27.15A19.82,19.82,0,0,1,722.14,717.05ZM718.07,678a22.66,22.66,0,1,0,16,27.75A22.66,22.66,0,0,0,718.07,678Zm4.07,39.1a19.88,19.88,0,1,1,7.28-27.15A19.82,19.82,0,0,1,722.14,717.05ZM736,686.1a27.48,27.48,0,1,0-10.06,37.54A27.47,27.47,0,0,0,736,686.1Zm-30.36,38.26a25.39,25.39,0,1,1,31.09-17.94A25.38,25.38,0,0,1,705.64,724.36ZM718.07,678a22.66,22.66,0,1,0,16,27.75A22.66,22.66,0,0,0,718.07,678Zm4.07,39.1a19.88,19.88,0,1,1,7.28-27.15A19.82,19.82,0,0,1,722.14,717.05ZM736,686.1a27.48,27.48,0,1,0-10.06,37.54A27.47,27.47,0,0,0,736,686.1Zm-30.36,38.26a25.39,25.39,0,1,1,31.09-17.94A25.38,25.38,0,0,1,705.64,724.36ZM718.07,678a22.66,22.66,0,1,0,16,27.75A22.66,22.66,0,0,0,718.07,678Zm4.07,39.1a19.88,19.88,0,1,1,7.28-27.15A19.82,19.82,0,0,1,722.14,717.05Zm43.59-16.15L755,698a42.57,42.57,0,0,0-4.84-18l7.88-7.87a5.38,5.38,0,0,0,0-7.62l-10.48-10.47,0-.07a5.41,5.41,0,0,0-7.63,0L732,661.88a38.09,38.09,0,0,0-3.78-1.76,43.19,43.19,0,0,0-10.07-2.7c-1.37-.19-2.76-.32-4.14-.38l-2.88-10.73a5.41,5.41,0,0,0-6.6-3.81l-14.26,3.82a1.4,1.4,0,0,0-.24.06,5.39,5.39,0,0,0-3.74,6.42,2.13,2.13,0,0,0,.07.27l2.85,10.62a42.77,42.77,0,0,0-13.18,13.16L665.33,674a5.4,5.4,0,0,0-6.6,3.81l-3.86,14.4a5.38,5.38,0,0,0,3.8,6.6l10.73,2.87a42.82,42.82,0,0,0,4.83,18l-7.78,7.77a1.25,1.25,0,0,0-.16.17,5.42,5.42,0,0,0,0,7.47.85.85,0,0,0,.17.16l10.45,10.45a5.37,5.37,0,0,0,7.61,0l7.86-7.85c1.23.64,2.49,1.23,3.78,1.75a43.17,43.17,0,0,0,10.07,2.69,41.1,41.1,0,0,0,4.14.39l2.86,10.65v.08a5.39,5.39,0,0,0,6.6,3.8l14.32-3.83.08,0a5.4,5.4,0,0,0,3.83-6.5v-.11L735.18,736a42.6,42.6,0,0,0,13.17-13.15l10.72,2.88a5.41,5.41,0,0,0,6.61-3.81l3.86-14.4A5.39,5.39,0,0,0,765.73,700.9Zm1.12,5.88L763,721.18a2.6,2.6,0,0,1-3.18,1.83l-11.74-3.14a1.39,1.39,0,0,0-1.58.68,39.43,39.43,0,0,1-6,7.59,40.51,40.51,0,0,1-7.67,6,1.36,1.36,0,0,0-.63,1.55l3.14,11.74,0,.06a2.65,2.65,0,0,1-1.86,3.14l-.08,0-14.31,3.83a2.64,2.64,0,0,1-3.2-1.85l0-.09-3.13-11.64a1.37,1.37,0,0,0-1.31-1,40.27,40.27,0,0,1-18.67-5,1.4,1.4,0,0,0-1.72.3l-8.53,8.52a2.63,2.63,0,0,1-3.69,0l-10.54-10.54a2.63,2.63,0,0,1,0-3.68l8.6-8.6a1.38,1.38,0,0,0,.4-1,1.35,1.35,0,0,0-.17-.68,40,40,0,0,1-5-18.66,1.4,1.4,0,0,0-1-1.32l-11.73-3.15a2.61,2.61,0,0,1-1.83-3.19l3.84-14.38a2.63,2.63,0,0,1,3.2-1.84l11.74,3.14a1.37,1.37,0,0,0,1.59-.67,39.87,39.87,0,0,1,6-7.61,40.28,40.28,0,0,1,7.69-6,1.39,1.39,0,0,0,.59-1.63L689,652.25a2.65,2.65,0,0,1,1.85-3.2l.08,0,14.32-3.82a2.61,2.61,0,0,1,3.19,1.83l3.15,11.73a1.37,1.37,0,0,0,1.3,1,43.81,43.81,0,0,1,4.86.39,41.08,41.08,0,0,1,9.43,2.53,42,42,0,0,1,4.39,2.09,1.42,1.42,0,0,0,1.72-.29l8.52-8.53a2.63,2.63,0,0,1,3.69,0l.06.07,10.48,10.47a2.6,2.6,0,0,1,0,3.68l-8.6,8.6a1.39,1.39,0,0,0-.22,1.7,40.43,40.43,0,0,1,3.64,9,39.58,39.58,0,0,1,1.34,9.62,1.43,1.43,0,0,0,1,1.33L765,703.58A2.63,2.63,0,0,1,766.85,706.78ZM698.47,676A27.48,27.48,0,1,0,736,686.1,27.51,27.51,0,0,0,698.47,676Zm38.26,30.38a25.4,25.4,0,1,1-17.94-31.1A25.36,25.36,0,0,1,736.73,706.42ZM718.07,678a22.66,22.66,0,1,0,16,27.75A22.66,22.66,0,0,0,718.07,678Zm4.07,39.1a19.88,19.88,0,1,1,7.28-27.15A19.82,19.82,0,0,1,722.14,717.05Zm-71.78,25-5.21,1.83a18.61,18.61,0,0,1-3.14,2.37,1.37,1.37,0,0,0-.59,1.62l1.53,5.72a.69.69,0,0,1-.06.45.52.52,0,0,1-.36.27l-7,1.88-.19,0a.5.5,0,0,1-.38-.07.53.53,0,0,1-.26-.31l-.06-.16L633.14,750a1.38,1.38,0,0,0-1.3-1c-.38,0-.75,0-1.13,0l-5.15,1.8a20.73,20.73,0,0,0,3.55.81c.52.07,1.07.13,1.6.17l1.27,4.74,0,.08a3.38,3.38,0,0,0,4.11,2.38l7.14-1.91h0a3.36,3.36,0,0,0,2.37-4.12l-1.29-4.82A21.66,21.66,0,0,0,650.36,742.09Zm-15.11-23.67A11.9,11.9,0,1,0,643.67,733,11.89,11.89,0,0,0,635.25,718.42Zm1.48,19.4a9.13,9.13,0,1,1,3.35-12.48A9.1,9.1,0,0,1,636.73,737.82Zm-1.48-19.4A11.9,11.9,0,1,0,643.67,733,11.89,11.89,0,0,0,635.25,718.42Zm1.48,19.4a9.13,9.13,0,1,1,3.35-12.48A9.1,9.1,0,0,1,636.73,737.82Zm24.14-6.49a3.35,3.35,0,0,0-2-1.57l-4.84-1.3a21.3,21.3,0,0,0-.7-4.2,21,21,0,0,0-1.5-4l3.53-3.53a3.37,3.37,0,0,0,0-4.75h0l-5.21-5.21a3.36,3.36,0,0,0-4.76,0l-3.53,3.53c-.48-.24-1-.46-1.47-.67a22.3,22.3,0,0,0-5.14-1.37c-.54-.07-1.07-.13-1.6-.17l-1.29-4.82a3.37,3.37,0,0,0-4.11-2.38h0l-7.12,1.91a3.36,3.36,0,0,0-2.4,4,.36.36,0,0,0,0,.11l1.29,4.82a22.68,22.68,0,0,0-3.3,2.73,21.36,21.36,0,0,0-2.71,3.29l-4.82-1.29a3.37,3.37,0,0,0-4.13,2.38l-1.9,7.12a3.31,3.31,0,0,0,.27,2.43.67.67,0,0,0,.06.12,3.31,3.31,0,0,0,2,1.57l4.81,1.29a21.7,21.7,0,0,0,2.2,8.21L609,743.11a3.33,3.33,0,0,0,0,4.74h0l5.22,5.23a3.37,3.37,0,0,0,4.75,0l3.52-3.53c.49.23,1,.46,1.48.66s1.06.4,1.59.56l5.15-1.8a19.26,19.26,0,0,1-7.79-2.34,1.39,1.39,0,0,0-1.72.3L617,751.11a.62.62,0,0,1-.84,0L611,745.9a.52.52,0,0,1-.17-.42.5.5,0,0,1,.17-.41l4.25-4.27a1.37,1.37,0,0,0,.4-1,1.45,1.45,0,0,0-.17-.67,19.24,19.24,0,0,1-2.39-8.91,1.4,1.4,0,0,0-1-1.33l-5.8-1.55a.69.69,0,0,1-.36-.27l0-.05a.55.55,0,0,1,0-.4l1.9-7.12a.57.57,0,0,1,.29-.34.55.55,0,0,1,.43-.08l5.8,1.56a1.39,1.39,0,0,0,1.58-.68,19.1,19.1,0,0,1,2.81-3.59,20.64,20.64,0,0,1,3.67-2.87,1.36,1.36,0,0,0,.63-1.55l-1.56-5.85a.56.56,0,0,1,.07-.4.56.56,0,0,1,.35-.27l7.12-1.91a.57.57,0,0,1,.44.07.58.58,0,0,1,.29.34l1.55,5.81a1.38,1.38,0,0,0,1.3,1,16.37,16.37,0,0,1,2.32.19,19.44,19.44,0,0,1,4.5,1.21,15.51,15.51,0,0,1,2.1,1,1.4,1.4,0,0,0,1.72-.31l4.18-4.18a.63.63,0,0,1,.42-.16.67.67,0,0,1,.42.16l5.2,5.21a.53.53,0,0,1,.17.42.57.57,0,0,1-.17.41L649.11,719a1.37,1.37,0,0,0-.2,1.69,19.2,19.2,0,0,1,2.37,8.87,1.37,1.37,0,0,0,1,1.32l5.79,1.56a.58.58,0,0,1,.36.27.62.62,0,0,1,.07.44l-1.92,7.12a.56.56,0,0,1-.28.36l0,0a.62.62,0,0,1-.4,0l-5.81-1.55a1.39,1.39,0,0,0-1.59.67,19.93,19.93,0,0,1-2.81,3.6c-.18.18-.36.34-.54.5l5.21-1.83,4.81,1.3a3.39,3.39,0,0,0,2.44-.29.27.27,0,0,0,.12-.06,3.38,3.38,0,0,0,1.58-2l1.91-7.11A3.41,3.41,0,0,0,660.87,731.33Zm-25.62-12.91A11.9,11.9,0,1,0,643.67,733,11.89,11.89,0,0,0,635.25,718.42Zm1.48,19.4a9.13,9.13,0,1,1,3.35-12.48A9.1,9.1,0,0,1,636.73,737.82Zm-1.48-19.4A11.9,11.9,0,1,0,643.67,733,11.89,11.89,0,0,0,635.25,718.42Zm1.48,19.4a9.13,9.13,0,1,1,3.35-12.48A9.1,9.1,0,0,1,636.73,737.82ZM718.07,678a22.66,22.66,0,1,0,16,27.75A22.66,22.66,0,0,0,718.07,678Zm4.07,39.1a19.88,19.88,0,1,1,7.28-27.15A19.82,19.82,0,0,1,722.14,717.05ZM718.07,678a22.66,22.66,0,1,0,16,27.75A22.66,22.66,0,0,0,718.07,678Zm4.07,39.1a19.88,19.88,0,1,1,7.28-27.15A19.82,19.82,0,0,1,722.14,717.05ZM718.07,678a22.66,22.66,0,1,0,16,27.75A22.66,22.66,0,0,0,718.07,678Zm4.07,39.1a19.88,19.88,0,1,1,7.28-27.15A19.82,19.82,0,0,1,722.14,717.05ZM736,686.1a27.48,27.48,0,1,0-10.06,37.54A27.47,27.47,0,0,0,736,686.1Zm-30.36,38.26a25.39,25.39,0,1,1,31.09-17.94A25.38,25.38,0,0,1,705.64,724.36ZM718.07,678a22.66,22.66,0,1,0,16,27.75A22.66,22.66,0,0,0,718.07,678Zm4.07,39.1a19.88,19.88,0,1,1,7.28-27.15A19.82,19.82,0,0,1,722.14,717.05ZM718.07,678a22.66,22.66,0,1,0,16,27.75A22.66,22.66,0,0,0,718.07,678Zm4.07,39.1a19.88,19.88,0,1,1,7.28-27.15A19.82,19.82,0,0,1,722.14,717.05ZM718.07,678a22.66,22.66,0,1,0,16,27.75A22.66,22.66,0,0,0,718.07,678Zm4.07,39.1a19.88,19.88,0,1,1,7.28-27.15A19.82,19.82,0,0,1,722.14,717.05ZM736,686.1a27.48,27.48,0,1,0-10.06,37.54A27.47,27.47,0,0,0,736,686.1Zm-30.36,38.26a25.39,25.39,0,1,1,31.09-17.94A25.38,25.38,0,0,1,705.64,724.36ZM718.07,678a22.66,22.66,0,1,0,16,27.75A22.66,22.66,0,0,0,718.07,678Zm4.07,39.1a19.88,19.88,0,1,1,7.28-27.15A19.82,19.82,0,0,1,722.14,717.05ZM718.07,678a22.66,22.66,0,1,0,16,27.75A22.66,22.66,0,0,0,718.07,678Zm4.07,39.1a19.88,19.88,0,1,1,7.28-27.15A19.82,19.82,0,0,1,722.14,717.05Z" transform="translate(-291.96 -74.55)"/></svg>