<svg id="Group_81" data-name="Group 81" xmlns="http://www.w3.org/2000/svg" width="26.632" height="18.309" viewBox="0 0 26.632 18.309">
  <path id="Path_67" data-name="Path 67" d="M25.5,81.764c-.722-1.285-1.506-1.521-3.1-1.611C20.8,80.045,16.793,80,13.319,80s-7.492.045-9.085.151-2.379.326-3.108,1.613S0,85.258,0,89.15v.013c0,3.875.383,6.1,1.127,7.372s1.513,1.518,3.106,1.626,5.606.148,9.086.148,7.484-.055,9.08-.146c1.6-.108,2.38-.341,3.1-1.626.751-1.27,1.13-3.5,1.13-7.372v-.013C26.632,85.258,26.252,83.048,25.5,81.764ZM9.987,94.148V84.161l8.322,4.993Z" transform="translate(0 -80)" fill="#3758ff"/>
</svg>
