<svg id="Group_82" data-name="Group 82" xmlns="http://www.w3.org/2000/svg" width="20.714" height="20.712" viewBox="0 0 20.714 20.712">
  <path id="Path_68" data-name="Path 68" d="M2.824,292.382a2.724,2.724,0,0,0-2,.824,2.841,2.841,0,0,0,0,4,2.725,2.725,0,0,0,2,.824,2.724,2.724,0,0,0,2-.824,2.841,2.841,0,0,0,0-4A2.723,2.723,0,0,0,2.824,292.382Z" transform="translate(0 -277.319)" fill="#3758ff"/>
  <path id="Path_69" data-name="Path 69" d="M9.326,150.055a13.006,13.006,0,0,0-3.81-2.67,13.189,13.189,0,0,0-4.5-1.184H.941a.857.857,0,0,0-.632.25.866.866,0,0,0-.309.691v1.986a.9.9,0,0,0,.243.633.894.894,0,0,0,.61.294,9.149,9.149,0,0,1,5.759,2.714,9.148,9.148,0,0,1,2.714,5.759.92.92,0,0,0,.927.854h1.986a.866.866,0,0,0,.691-.309.892.892,0,0,0,.251-.706,13.2,13.2,0,0,0-1.184-4.5A13.007,13.007,0,0,0,9.326,150.055Z" transform="translate(0 -138.67)" fill="#3758ff"/>
  <path id="Path_70" data-name="Path 70" d="M18.946,12.369A20.622,20.622,0,0,0,14.621,6.11,20.621,20.621,0,0,0,8.362,1.785,20.413,20.413,0,0,0,.985.02H.941A.88.88,0,0,0,.294.285.87.87,0,0,0,0,.961v2.1a.9.9,0,0,0,.257.64.88.88,0,0,0,.625.287,16.666,16.666,0,0,1,6.009,1.5A16.912,16.912,0,0,1,11.834,8.9a16.911,16.911,0,0,1,3.4,4.942,16.443,16.443,0,0,1,1.486,6.009.881.881,0,0,0,.287.625.92.92,0,0,0,.655.258h2.1a.869.869,0,0,0,.677-.294.851.851,0,0,0,.265-.691A20.411,20.411,0,0,0,18.946,12.369Z" transform="translate(0 -0.02)" fill="#3758ff"/>
</svg>
