<svg xmlns="http://www.w3.org/2000/svg" width="431.491" height="258.218" viewBox="0 0 431.491 258.218">
  <g id="Group_36679" data-name="Group 36679" transform="translate(-658.084 -6531.403)">
    <g id="Group_8103" data-name="Group 8103" transform="translate(-660 6367)">
      <g id="Group_7432" data-name="Group 7432" transform="translate(1564.086 312.923)">
        <g id="Group_7429" data-name="Group 7429" transform="translate(36.489 52.464)">
          <path id="Path_7663" data-name="Path 7663" d="M1833.559,1519.269h.079a.834.834,0,0,0,.834-.853l-1.264-54.784-3.724-.435,3.175,55.223A.9.9,0,0,0,1833.559,1519.269Z" transform="translate(-1829.485 -1463.198)" fill="#b0d4ff"/>
        </g>
        <g id="Group_7430" data-name="Group 7430" transform="translate(58.186 52.464)">
          <path id="Path_7664" data-name="Path 7664" d="M1927.979,1519.269h.079a.834.834,0,0,0,.833-.853l-1.264-54.784-3.723-.435,3.175,55.223A.9.9,0,0,0,1927.979,1519.269Z" transform="translate(-1923.904 -1463.198)" fill="#95c0f4"/>
        </g>
        <g id="Group_7431" data-name="Group 7431" transform="translate(1.476 52.464)">
          <path id="Path_7665" data-name="Path 7665" d="M1678.031,1519.269h-.079a.834.834,0,0,1-.833-.853l1.264-54.784,3.723-.435-3.175,55.223A.9.9,0,0,1,1678.031,1519.269Z" transform="translate(-1677.118 -1463.198)" fill="#b0d4ff"/>
        </g>
        <path id="Path_7666" data-name="Path 7666" d="M1781.539,1284.389v-37.541a11.96,11.96,0,0,0-11.96-11.96h-27.047a11.96,11.96,0,0,0-11.96,11.96v38.975Z" transform="translate(-1716.812 -1234.888)" fill="#b0d4ff"/>
        <path id="Rectangle_3160" data-name="Rectangle 3160" d="M5.927,0H55.814a0,0,0,0,1,0,0V5.927a0,0,0,0,1,0,0H0a0,0,0,0,1,0,0v0A5.927,5.927,0,0,1,5.927,0Z" transform="translate(64.728 55.428) rotate(180)" fill="#95c0f4"/>
        <path id="Rectangle_3161" data-name="Rectangle 3161" d="M2.963,0H41.856A2.963,2.963,0,0,1,44.82,2.963v0a2.963,2.963,0,0,1-2.963,2.963H2.963A2.963,2.963,0,0,1,0,2.963v0A2.963,2.963,0,0,1,2.963,0Z" transform="translate(44.82 55.428) rotate(180)" fill="#cae5ff"/>
      </g>
      <g id="Group_7453" data-name="Group 7453" transform="translate(1482.859 164.84)">
        <rect id="Rectangle_3162" data-name="Rectangle 3162" width="155.922" height="134.598" fill="#95c0f4"/>
        <g id="Group_7452" data-name="Group 7452" transform="translate(2.968 2.242)">
          <rect id="Rectangle_3163" data-name="Rectangle 3163" width="149.922" height="129.672" fill="#dfedfb"/>
          <g id="Group_7433" data-name="Group 7433" transform="translate(19.547 10.375)">
            <path id="Path_7667" data-name="Path 7667" d="M1530.726,691.422h-32.852V650.4l5.571-5.022h27.281Z" transform="translate(-1497.874 -645.377)" fill="#fff"/>
            <path id="Path_7668" data-name="Path 7668" d="M1497.874,650.4h5.392l.179-5.022Z" transform="translate(-1497.874 -645.377)" fill="#b0d4ff"/>
            <rect id="Rectangle_3164" data-name="Rectangle 3164" width="10.519" height="0.501" transform="translate(11.167 3.993)" fill="#b0d4ff"/>
            <rect id="Rectangle_3165" data-name="Rectangle 3165" width="15.471" height="0.501" transform="translate(8.69 5.496)" fill="#b0d4ff"/>
            <rect id="Rectangle_3166" data-name="Rectangle 3166" width="25.689" height="0.644" transform="translate(3.889 15.147)" fill="#b0d4ff"/>
            <rect id="Rectangle_3167" data-name="Rectangle 3167" width="25.689" height="0.644" transform="translate(3.889 17.103)" fill="#b0d4ff"/>
            <rect id="Rectangle_3168" data-name="Rectangle 3168" width="25.689" height="0.644" transform="translate(3.889 19.059)" fill="#b0d4ff"/>
            <rect id="Rectangle_3169" data-name="Rectangle 3169" width="25.689" height="0.644" transform="translate(3.889 21.014)" fill="#b0d4ff"/>
            <rect id="Rectangle_3170" data-name="Rectangle 3170" width="25.689" height="0.644" transform="translate(3.889 41.945)" fill="#b0d4ff"/>
          </g>
          <g id="Group_7434" data-name="Group 7434" transform="translate(57.481 67.29)">
            <path id="Path_7669" data-name="Path 7669" d="M1695.8,939.1h-32.852V898.078l5.571-5.022H1695.8Z" transform="translate(-1662.951 -893.056)" fill="#fff"/>
            <path id="Path_7670" data-name="Path 7670" d="M1662.951,898.078h5.392l.179-5.022Z" transform="translate(-1662.951 -893.056)" fill="#b0d4ff"/>
            <rect id="Rectangle_3171" data-name="Rectangle 3171" width="10.519" height="0.501" transform="translate(11.167 3.993)" fill="#b0d4ff"/>
            <rect id="Rectangle_3172" data-name="Rectangle 3172" width="15.471" height="0.501" transform="translate(8.69 5.496)" fill="#b0d4ff"/>
            <rect id="Rectangle_3173" data-name="Rectangle 3173" width="25.689" height="0.644" transform="translate(3.889 15.147)" fill="#b0d4ff"/>
            <rect id="Rectangle_3174" data-name="Rectangle 3174" width="25.689" height="0.644" transform="translate(3.889 17.103)" fill="#b0d4ff"/>
            <rect id="Rectangle_3175" data-name="Rectangle 3175" width="25.689" height="0.644" transform="translate(3.889 19.059)" fill="#b0d4ff"/>
            <rect id="Rectangle_3176" data-name="Rectangle 3176" width="25.689" height="0.644" transform="translate(3.889 21.015)" fill="#b0d4ff"/>
            <rect id="Rectangle_3177" data-name="Rectangle 3177" width="25.689" height="0.644" transform="translate(3.889 27.033)" fill="#b0d4ff"/>
            <rect id="Rectangle_3178" data-name="Rectangle 3178" width="25.689" height="0.644" transform="translate(3.889 28.988)" fill="#b0d4ff"/>
            <rect id="Rectangle_3179" data-name="Rectangle 3179" width="25.689" height="0.644" transform="translate(3.889 31.257)" fill="#b0d4ff"/>
          </g>
          <g id="Group_7435" data-name="Group 7435" transform="translate(90.731 10.375)">
            <rect id="Rectangle_3180" data-name="Rectangle 3180" width="18.141" height="15.993" fill="#b0d4ff"/>
            <path id="Path_7671" data-name="Path 7671" d="M1843.663,651a.794.794,0,1,1,.794.794A.794.794,0,0,1,1843.663,651Z" transform="translate(-1835.387 -649.097)" fill="#ffa412"/>
          </g>
          <g id="Group_7436" data-name="Group 7436" transform="translate(90.196 31.393)">
            <rect id="Rectangle_3181" data-name="Rectangle 3181" width="18.141" height="15.993" transform="translate(0 1.263) rotate(-3.993)" fill="#fff"/>
            <path id="Path_7672" data-name="Path 7672" d="M1842.119,749.555a.794.794,0,1,1,.848.737A.794.794,0,0,1,1842.119,749.555Z" transform="translate(-1833.662 -745.979)" fill="#b0d4ff"/>
          </g>
          <g id="Group_7437" data-name="Group 7437" transform="translate(29.915 90.312)">
            <rect id="Rectangle_3182" data-name="Rectangle 3182" width="18.141" height="15.993" transform="translate(0 1.263) rotate(-3.993)" fill="#fff"/>
            <path id="Path_7673" data-name="Path 7673" d="M1579.79,1005.955a.794.794,0,1,1,.848.737A.794.794,0,0,1,1579.79,1005.955Z" transform="translate(-1571.332 -1002.38)" fill="#b0d4ff"/>
          </g>
          <g id="Group_7438" data-name="Group 7438" transform="translate(7.103 101.79)">
            <rect id="Rectangle_3183" data-name="Rectangle 3183" width="18.141" height="15.993" transform="matrix(1, -0.01, 0.01, 1, 0, 0.186)" fill="#fff"/>
            <path id="Path_7674" data-name="Path 7674" d="M1479.862,1053.542a.794.794,0,1,1,.8.786A.794.794,0,0,1,1479.862,1053.542Z" transform="translate(-1471.556 -1050.546)" fill="#b0d4ff"/>
          </g>
          <g id="Group_7439" data-name="Group 7439" transform="translate(115.086 41.053)">
            <rect id="Rectangle_3184" data-name="Rectangle 3184" width="18.141" height="15.993" transform="translate(2.814 0) rotate(10.133)" fill="#eef6ff"/>
            <path id="Path_7675" data-name="Path 7675" d="M1960.081,792.669a.691.691,0,1,1,.558.8A.69.69,0,0,1,1960.081,792.669Z" transform="translate(-1949.399 -789.062)" fill="#78acea"/>
          </g>
          <g id="Group_7440" data-name="Group 7440" transform="translate(61.997 31.075)">
            <rect id="Rectangle_3185" data-name="Rectangle 3185" width="18.141" height="15.993" transform="translate(0 1.952) rotate(-6.177)" fill="#eef6ff"/>
            <path id="Path_7676" data-name="Path 7676" d="M1719.859,746.842a.691.691,0,1,1,.761.612A.691.691,0,0,1,1719.859,746.842Z" transform="translate(-1711.295 -743.638)" fill="#78acea"/>
          </g>
          <g id="Group_7441" data-name="Group 7441" transform="translate(15.204 68.88)">
            <rect id="Rectangle_3186" data-name="Rectangle 3186" width="18.141" height="15.993" transform="translate(0 3.783) rotate(-12.037)" fill="#bae8e3"/>
            <path id="Path_7677" data-name="Path 7677" d="M1516.846,915.668a.691.691,0,1,1,.955-.2A.691.691,0,0,1,1516.846,915.668Z" transform="translate(-1507.9 -911.084)" fill="#ffa412"/>
          </g>
          <g id="Group_7443" data-name="Group 7443" transform="translate(63.15 10.375)">
            <g id="Group_7442" data-name="Group 7442">
              <path id="Path_7678" data-name="Path 7678" d="M1705.289,661.37h-17.266v-11.6l4.78-4.392h12.486Z" transform="translate(-1687.931 -645.377)" fill="#fff"/>
              <path id="Path_7679" data-name="Path 7679" d="M1687.622,649.769h4.716l.156-4.392Z" transform="translate(-1687.622 -645.377)" fill="#b0d4ff"/>
            </g>
            <path id="Path_7680" data-name="Path 7680" d="M1725.867,649.913a.568.568,0,1,1,.568.568A.568.568,0,0,1,1725.867,649.913Z" transform="translate(-1717.078 -648.434)" fill="#b0d4ff"/>
          </g>
          <g id="Group_7445" data-name="Group 7445" transform="translate(113.598 105.338)">
            <g id="Group_7444" data-name="Group 7444">
              <path id="Path_7681" data-name="Path 7681" d="M1924.823,1074.624h-17.266v-11.6l4.78-4.392h12.486Z" transform="translate(-1907.465 -1058.631)" fill="#fff"/>
              <path id="Path_7682" data-name="Path 7682" d="M1907.156,1063.023h4.716l.156-4.392Z" transform="translate(-1907.156 -1058.631)" fill="#b0d4ff"/>
            </g>
            <path id="Path_7683" data-name="Path 7683" d="M1945.4,1063.167a.568.568,0,1,1,.568.568A.568.568,0,0,1,1945.4,1063.167Z" transform="translate(-1936.612 -1061.688)" fill="#b0d4ff"/>
          </g>
          <g id="Group_7447" data-name="Group 7447" transform="translate(121.474 82.316)">
            <g id="Group_7446" data-name="Group 7446">
              <path id="Path_7684" data-name="Path 7684" d="M1959.1,974.437h-17.266v-11.6l4.78-4.392H1959.1Z" transform="translate(-1941.74 -958.444)" fill="#fff"/>
              <path id="Path_7685" data-name="Path 7685" d="M1941.432,962.836h4.716l.156-4.392Z" transform="translate(-1941.432 -958.444)" fill="#b0d4ff"/>
            </g>
            <path id="Path_7686" data-name="Path 7686" d="M1979.677,962.981a.568.568,0,1,1,.567.568A.567.567,0,0,1,1979.677,962.981Z" transform="translate(-1970.888 -961.501)" fill="#b0d4ff"/>
          </g>
          <g id="Group_7449" data-name="Group 7449" transform="translate(98.689 82.316)">
            <g id="Group_7448" data-name="Group 7448">
              <path id="Path_7687" data-name="Path 7687" d="M1859.943,974.437h-17.266v-11.6l4.78-4.392h12.486Z" transform="translate(-1842.585 -958.444)" fill="#bae8e3"/>
              <path id="Path_7688" data-name="Path 7688" d="M1842.276,962.836h4.716l.156-4.392Z" transform="translate(-1842.276 -958.444)" fill="#a1d6ce"/>
            </g>
            <path id="Path_7689" data-name="Path 7689" d="M1880.522,962.981a.568.568,0,1,1,.567.568A.567.567,0,0,1,1880.522,962.981Z" transform="translate(-1871.733 -961.501)" fill="#f99746"/>
          </g>
          <g id="Group_7451" data-name="Group 7451" transform="translate(126.346 6.371)">
            <g id="Group_7450" data-name="Group 7450">
              <path id="Path_7690" data-name="Path 7690" d="M1980.3,643.948h-17.266v-11.6l4.78-4.392H1980.3Z" transform="translate(-1962.943 -627.955)" fill="#bae8e3"/>
              <path id="Path_7691" data-name="Path 7691" d="M1962.635,632.347h4.716l.156-4.392Z" transform="translate(-1962.635 -627.955)" fill="#a1d6ce"/>
            </g>
            <path id="Path_7692" data-name="Path 7692" d="M2000.88,632.491a.568.568,0,1,1,.568.568A.568.568,0,0,1,2000.88,632.491Z" transform="translate(-1992.091 -631.011)" fill="#f99746"/>
          </g>
        </g>
      </g>
      <g id="Group_7460" data-name="Group 7460" transform="translate(1339.207 164.403)">
        <rect id="Rectangle_3187" data-name="Rectangle 3187" width="38.325" height="37.181" rx="11.929" transform="translate(0 0)" fill="#c0d8fb"/>
        <rect id="Rectangle_3188" data-name="Rectangle 3188" width="35.004" height="33.96" rx="10.896" transform="translate(1.66 1.611)" fill="#dfebfd"/>
        <g id="Group_7456" data-name="Group 7456" transform="translate(4.525 4.21)">
          <g id="Group_7454" data-name="Group 7454" transform="translate(13.844)">
            <path id="Path_7693" data-name="Path 7693" d="M1220.243,433.616a.794.794,0,1,1,.794.794A.794.794,0,0,1,1220.243,433.616Z" transform="translate(-1220.243 -432.822)" fill="#b7d3f3"/>
            <path id="Path_7694" data-name="Path 7694" d="M1247.784,439.791a.794.794,0,1,1,.308,1.08A.794.794,0,0,1,1247.784,439.791Z" transform="translate(-1241.378 -437.875)" fill="#b7d3f3"/>
            <path id="Path_7695" data-name="Path 7695" d="M1270.784,459.709a.794.794,0,1,1-.237,1.1A.794.794,0,0,1,1270.784,459.709Z" transform="translate(-1258.89 -453.433)" fill="#b7d3f3"/>
            <path id="Path_7696" data-name="Path 7696" d="M1281.172,489.5a.794.794,0,1,1-.794.794A.794.794,0,0,1,1281.172,489.5Z" transform="translate(-1266.559 -476.477)" fill="#b7d3f3"/>
            <path id="Path_7697" data-name="Path 7697" d="M1273.25,522.8a.794.794,0,1,1-1.123,0A.793.793,0,0,1,1273.25,522.8Z" transform="translate(-1260.025 -501.948)" fill="#b7d3f3"/>
            <path id="Path_7698" data-name="Path 7698" d="M1251.556,544.556a.794.794,0,1,1-1.123,0A.794.794,0,0,1,1251.556,544.556Z" transform="translate(-1243.316 -518.701)" fill="#b7d3f3"/>
            <path id="Path_7699" data-name="Path 7699" d="M1220.243,553.886a.794.794,0,1,1,.794.794A.794.794,0,0,1,1220.243,553.886Z" transform="translate(-1220.243 -525.455)" fill="#b7d3f3"/>
          </g>
          <g id="Group_7455" data-name="Group 7455" transform="translate(0 1.508)">
            <path id="Path_7700" data-name="Path 7700" d="M1194.178,439.791a.794.794,0,1,0-.309,1.08A.794.794,0,0,0,1194.178,439.791Z" transform="translate(-1185.178 -439.382)" fill="#b7d3f3"/>
            <path id="Path_7701" data-name="Path 7701" d="M1171.179,459.709a.794.794,0,1,0,.237,1.1A.794.794,0,0,0,1171.179,459.709Z" transform="translate(-1167.667 -454.94)" fill="#b7d3f3"/>
            <path id="Path_7702" data-name="Path 7702" d="M1160.792,489.5a.794.794,0,1,0,.794.794A.794.794,0,0,0,1160.792,489.5Z" transform="translate(-1159.998 -477.985)" fill="#b7d3f3"/>
            <path id="Path_7703" data-name="Path 7703" d="M1168.714,522.8a.794.794,0,1,0,1.123,0A.794.794,0,0,0,1168.714,522.8Z" transform="translate(-1166.532 -503.456)" fill="#b7d3f3"/>
            <path id="Path_7704" data-name="Path 7704" d="M1190.408,544.556a.794.794,0,1,0,1.123,0A.793.793,0,0,0,1190.408,544.556Z" transform="translate(-1183.241 -520.208)" fill="#b7d3f3"/>
          </g>
        </g>
        <g id="Group_7459" data-name="Group 7459" transform="translate(18.948 8.111)">
          <path id="Path_7705" data-name="Path 7705" d="M1222.766,490.3a.794.794,0,1,1,.794.794A.794.794,0,0,1,1222.766,490.3Z" transform="translate(-1222.766 -480.378)" fill="#b7d3f3"/>
          <g id="Group_7457" data-name="Group 7457" transform="translate(0.685)">
            <rect id="Rectangle_3189" data-name="Rectangle 3189" width="0.217" height="9.918" fill="#b7d3f3"/>
          </g>
          <g id="Group_7458" data-name="Group 7458" transform="translate(0.493 5.52)">
            <rect id="Rectangle_3190" data-name="Rectangle 3190" width="6.684" height="0.65" transform="translate(0 4.128) rotate(-38.14)" fill="#b7d3f3"/>
          </g>
        </g>
      </g>
      <g id="Group_7465" data-name="Group 7465" transform="translate(1318.084 313.068)">
        <g id="Group_7464" data-name="Group 7464">
          <g id="Group_7461" data-name="Group 7461" transform="translate(23.251 52.465)">
            <path id="Path_7706" data-name="Path 7706" d="M937.246,1519.906h-.08a.834.834,0,0,1-.833-.853l1.264-54.784,3.723-.434-3.175,55.222A.9.9,0,0,1,937.246,1519.906Z" transform="translate(-936.333 -1463.835)" fill="#b0d4ff"/>
          </g>
          <g id="Group_7462" data-name="Group 7462" transform="translate(1.554 52.465)">
            <path id="Path_7707" data-name="Path 7707" d="M842.827,1519.906h-.08a.834.834,0,0,1-.833-.853l1.264-54.784,3.723-.434-3.175,55.222A.9.9,0,0,1,842.827,1519.906Z" transform="translate(-841.914 -1463.835)" fill="#95c0f4"/>
          </g>
          <g id="Group_7463" data-name="Group 7463" transform="translate(58.264 52.465)">
            <path id="Path_7708" data-name="Path 7708" d="M1092.774,1519.906h.079a.834.834,0,0,0,.833-.853l-1.264-54.784-3.723-.434,3.175,55.222A.9.9,0,0,0,1092.774,1519.906Z" transform="translate(-1088.7 -1463.835)" fill="#b0d4ff"/>
          </g>
          <path id="Path_7709" data-name="Path 7709" d="M835.152,1285.024v-37.541a11.961,11.961,0,0,1,11.961-11.961h27.047a11.961,11.961,0,0,1,11.961,11.961v38.975Z" transform="translate(-835.152 -1235.523)" fill="#b0d4ff"/>
          <path id="Rectangle_3191" data-name="Rectangle 3191" d="M0,0H55.814a0,0,0,0,1,0,0V5.927a0,0,0,0,1,0,0H5.927A5.927,5.927,0,0,1,0,0V0A0,0,0,0,1,0,0Z" transform="translate(0 49.501)" fill="#95c0f4"/>
          <rect id="Rectangle_3192" data-name="Rectangle 3192" width="44.82" height="5.927" rx="2.963" transform="translate(19.908 49.501)" fill="#b0d4ff"/>
        </g>
      </g>
      <g id="Group_7467" data-name="Group 7467" transform="translate(1370.93 217.313)">
        <path id="Path_7710" data-name="Path 7710" d="M1099.554,863.349c-.747-1.441,16.3-6.63,16.571,7.591,0,0,31.936-.785,16.687-18.585-5.279-6.162-4.736-11.258-4.578-16s-3.288-18.529-15.109-17.141a8.8,8.8,0,0,0-6.959.745C1097.381,824.516,1077.7,868.594,1099.554,863.349Z" transform="translate(-1074.976 -818.823)" fill="#163560"/>
        <path id="Path_7711" data-name="Path 7711" d="M1360.117,1069.18s2.079-3.164,3.754-3.226,4.778-.931,4.53-.31-2.172.682-2.358,1.055,2.854.931,3.723.993,2.917,0,2.855.434-3.691,2.234-6.251,1.985a17.369,17.369,0,0,0-5.725.745Z" transform="translate(-1283.328 -1008.754)" fill="#ffb27d"/>
        <path id="Path_7712" data-name="Path 7712" d="M1229.286,1001.535a31.173,31.173,0,0,0,3.18,4.808c2.47,3.094,6.279,6.668,11.061,7.374a11.872,11.872,0,0,0,6.571-1.067l.007,0c5.808-2.578,10.175-8.507,10.175-8.507a4.774,4.774,0,0,0-.651-4.685s-11.728,2.638-12.845,2.079-7.632-19.328-9.183-21.687-6.839-3.583-6.839-3.583Z" transform="translate(-1182.561 -940.086)" fill="#b0d0ff"/>
        <path id="Path_7713" data-name="Path 7713" d="M1241.886,1086.328c2.47,3.094,6.279,6.668,11.061,7.374a11.872,11.872,0,0,0,6.571-1.067c-.227.03-6.028.746-8.34-3.39-2.358-4.22-4.909-10.922-8.412-8.688C1241.254,1081.522,1241.321,1083.918,1241.886,1086.328Z" transform="translate(-1191.981 -1020.07)" fill="#98baf4"/>
        <path id="Path_7714" data-name="Path 7714" d="M1028.922,1631.958s-3.578,3.266-2.88,5.586,3.928,3.867,4.364,6.7,2.182,4.383,3.753,4.383h7.49s1.156-2-1.636-2.6-3.846-3.935-3.672-7.029a54.5,54.5,0,0,0-.262-7.219l-5.935-1.375Z" transform="translate(-1025.952 -1443.913)" fill="#233862"/>
        <path id="Path_7715" data-name="Path 7715" d="M1169.025,1643.176s-1.287,13.835.284,14.609l20.106-.041s0-2.32-3.23-2.836-8.9-2.406-9.863-6.618S1169.025,1643.176,1169.025,1643.176Z" transform="translate(-1135.765 -1453.745)" fill="#233862"/>
        <path id="Path_7716" data-name="Path 7716" d="M1108.032,986.889c4.138-9.279,6.669-11.942,6.186-14.822-.36-2.144,1.1-39.965,1.1-39.965.491-.152,1.475-.288,2.013-.408a5.048,5.048,0,0,0,3.686-3.206,25.724,25.724,0,0,0,1.251-8.534l.53.1,8.912,1.765s-.2,2.8-.209,5.447c0,.022,0,.044,0,.066a5.125,5.125,0,0,0,3.7,4.956c1.125.325,2.1.6,2.1.6a81.719,81.719,0,0,1,3.9,18.94c.625,9.6-5.951,13.767.049,32.946C1147.374,1004.369,1105.747,992.017,1108.032,986.889Z" transform="translate(-1089.101 -896.715)" fill="#ffb27d"/>
        <path id="Path_7717" data-name="Path 7717" d="M1181.489,922.173s-.2,2.8-.209,5.447c-4.987-.141-7.623-4.69-8.7-7.211Z" transform="translate(-1138.884 -897.065)" fill="#e8945b"/>
        <path id="Path_7718" data-name="Path 7718" d="M1178.588,872.244s-11.8.195-11.807-7.155-1.536-12.274,6-12.709,9,2.368,9.6,4.82S1181.656,872,1178.588,872.244Z" transform="translate(-1134.317 -844.634)" fill="#ffb27d"/>
        <path id="Path_7719" data-name="Path 7719" d="M1165.435,846.741s-3.23,8.622-8.188,9.9-7.108-.053-7.108-.053a14.039,14.039,0,0,0,4.592-8.294S1163,842.637,1165.435,846.741Z" transform="translate(-1121.602 -839.175)" fill="#163560"/>
        <path id="Path_7720" data-name="Path 7720" d="M1213.221,850.082a7.318,7.318,0,0,1,3.381,2.643,11.879,11.879,0,0,1,1.595,6.747s2.434-5.861-.3-9.176C1215,846.78,1213.221,850.082,1213.221,850.082Z" transform="translate(-1170.188 -841.816)" fill="#163560"/>
        <path id="Path_7721" data-name="Path 7721" d="M1207.434,917.753a2.965,2.965,0,0,0,2.443.994,2.169,2.169,0,0,0,1.818-1.2A7.926,7.926,0,0,0,1207.434,917.753Z" transform="translate(-1165.73 -894.702)" fill="#ebf3fa"/>
        <path id="Path_7722" data-name="Path 7722" d="M1102.936,989.546a80.065,80.065,0,0,0,0,9.293c.2,3.36,3.6,7.861,4.08,8.974,1.21,2.792,2.575,3.247,2.575,3.247l10.557,2.587,3.712.908,11.706-3.5s5.331-14.881,3.191-23.258a64.4,64.4,0,0,0-5.412-14.194s-9.552,9.352-21.989-.793Z" transform="translate(-1085.143 -937.428)" fill="#b0d0ff"/>
        <path id="Path_7723" data-name="Path 7723" d="M1116.829,1080.642c.2,3.36.508,6.489.99,7.6,1.21,2.792,2.575,3.246,2.575,3.246l10.557,2.588,4.585-1.348s-15.306-2.319-13.61-15.488Z" transform="translate(-1095.946 -1017.86)" fill="#f2ccaa"/>
        <path id="Path_7724" data-name="Path 7724" d="M1177.039,1149.077s5.8,18.043,6.169,24.186-11.081,87.269-11.542,90.1c-.434,2.668-3.748,4.369-3.748,4.369a5.012,5.012,0,0,1-3.7.285c-3.017-.852-3.971-1.872-3.971-1.872s-4.512-57.858-1.72-78.526a327.333,327.333,0,0,0,2.825-38.541Z" transform="translate(-1127.362 -1073.187)" fill="#ed7d2b"/>
        <path id="Path_7725" data-name="Path 7725" d="M1065.122,1146.736s-8.842,11.864-9.667,19.884-1.293,36.192-3.05,44.01-8.209,22.865-8.209,47.251a4.865,4.865,0,0,0,2.742,2.142,22.545,22.545,0,0,0,2.411.667,3.791,3.791,0,0,0,4.24-2.012c4.362-8.783,18.258-37.112,18.971-42.992.5-4.161,4.892-31.7,14.463-47.865,2.3-3.88-1.41-19.31-1.41-19.31Z" transform="translate(-1040.004 -1071.384)" fill="#f99746"/>
        <path id="Path_7726" data-name="Path 7726" d="M1208.575,918.133s.2.866,2.359.733c0,0,1.809-.112,1.754-1.064A5.82,5.82,0,0,0,1208.575,918.133Z" transform="translate(-1166.609 -894.886)" fill="#fff"/>
        <path id="Path_7727" data-name="Path 7727" d="M1156.543,1136.956s-2.327,1.841-6.95,1.934c-5.522.111-19.2-1.408-19.2-1.408a11.314,11.314,0,0,0-.583,3.492s16.711,4.215,26.394.615A6.119,6.119,0,0,0,1156.543,1136.956Z" transform="translate(-1105.939 -1063.851)" fill="#233862"/>
        <g id="Group_7466" data-name="Group 7466" transform="translate(42.459 74.094)">
          <path id="Path_7728" data-name="Path 7728" d="M1210.72,1144.112a2.539,2.539,0,1,1,2.52,2.852A2.7,2.7,0,0,1,1210.72,1144.112Zm.835,0a1.712,1.712,0,1,0,1.685-2.017A1.875,1.875,0,0,0,1211.555,1144.112Z" transform="translate(-1210.72 -1141.26)" fill="#fff"/>
        </g>
        <rect id="Rectangle_3193" data-name="Rectangle 3193" width="22.703" height="31.076" transform="matrix(-0.754, -0.657, 0.657, -0.754, 23.579, 91.278)" fill="#b5453c"/>
        <path id="Path_7729" data-name="Path 7729" d="M1145.162,1151.4s6.273.734,6.254,2.223-1.563,4.548-2.338,4.685-5.105-4.137-5.105-4.137Z" transform="translate(-1116.852 -1074.974)" fill="#ffb27d"/>
        <path id="Path_7730" data-name="Path 7730" d="M1070.012,972.814s-8.375.587-11.586,8.392-9.3,20.908-9.3,23.113,3.4,9,21.676,12.907c0,0,1.89-1.988,1.776-3.56,0,0-11.407-9.8-11.377-10.943.058-2.166,1.87-5.026,11.885-15.044C1075.808,984.954,1070.012,972.814,1070.012,972.814Z" transform="translate(-1043.799 -937.428)" fill="#b0d0ff"/>
      </g>
      <g id="Group_7470" data-name="Group 7470" transform="translate(1434.08 336.861)">
        <g id="Group_7468" data-name="Group 7468" transform="translate(202.47 7.237)">
          <path id="Path_7731" data-name="Path 7731" d="M2017.532,1449.06h.105a1.138,1.138,0,0,0,1.1-1.194l-1.672-76.705-4.923-.608,4.2,77.318A1.223,1.223,0,0,0,2017.532,1449.06Z" transform="translate(-2012.144 -1370.553)" fill="#78acea"/>
        </g>
        <g id="Group_7469" data-name="Group 7469" transform="translate(7.02 7.237)">
          <path id="Path_7732" data-name="Path 7732" d="M1162.805,1449.06h-.105a1.138,1.138,0,0,1-1.1-1.194l1.672-76.705,4.924-.608-4.2,77.318A1.222,1.222,0,0,1,1162.805,1449.06Z" transform="translate(-1161.598 -1370.553)" fill="#78acea"/>
        </g>
        <path id="Rectangle_3194" data-name="Rectangle 3194" d="M4.628,0H212.284a4.628,4.628,0,0,1,4.628,4.628v0a4.628,4.628,0,0,1-4.628,4.628H4.628A4.628,4.628,0,0,1,0,4.628v0A4.628,4.628,0,0,1,4.628,0Z" transform="translate(0)" fill="#78acea"/>
      </g>
      <path id="Path_7733" data-name="Path 7733" d="M1286.634,671.622c-.8-19.7,15.712-28.445,32.592-28.445s35.248,4.373,36.839,30.563c1.024,16.848-7.958,27.215-33.82,27.215-8.722,0-15.5-1.376-20.693-3.829l-12.928,11.488,6.353-15.879C1289.349,687.5,1286.978,680.122,1286.634,671.622Z" transform="translate(135.219 -466.226)" fill="#dfedfb" stroke="#0083e9" stroke-miterlimit="10" stroke-width="1"/>
      <g id="Group_7471" data-name="Group 7471" transform="translate(1680.813 219.645)">
        <path id="Path_7734" data-name="Path 7734" d="M2614.354,1687.9a23,23,0,0,1,1.575-5.9c1.1-2.2,8.1-.8,8.1-.8s1.4,1.2,1.7,6.8Z" transform="translate(-2568.232 -1485.026)" fill="#233862"/>
        <path id="Path_7735" data-name="Path 7735" d="M2435.918,1672.4c1.645-1,.709-8.493.709-8.493s-7.664-6.131-8.718-1.437-7.281,6.8-10.825,7.377c-2.447.4-3.2,1.752-3.439,2.553Z" transform="translate(-2413.645 -1469.572)" fill="#233862"/>
        <path id="Path_7736" data-name="Path 7736" d="M2492.141,1282.974a35.334,35.334,0,0,0-.562,4.14c-.713,13.9-11.7,45.672-13.663,46.412-3.041,1.147-7.828-1.292-10.333-2.089a2.149,2.149,0,0,1-1.508-2.44c5.44-25.01,7.44-61.024,8.167-82.345a96.746,96.746,0,0,1,2.211-18.158s26.793-7.149,26.952,1.895C2503.546,1238.39,2494.53,1269.773,2492.141,1282.974Z" transform="translate(-2453.993 -1134.619)" fill="#213f7a"/>
        <path id="Path_7737" data-name="Path 7737" d="M2519.663,1282.974l-17.9-36.323a96.746,96.746,0,0,1,2.211-18.158s26.793-7.149,26.952,1.895C2531.068,1238.39,2522.052,1269.773,2519.663,1282.974Z" transform="translate(-2481.515 -1134.619)" fill="#233862"/>
        <path id="Path_7738" data-name="Path 7738" d="M2553.713,1234.92l14.164,102.657s6.22,1.5,11.058.3c0,0,4.147-54.6,3.8-67.8s2.976-35.32-.758-37.759S2553.713,1234.92,2553.713,1234.92Z" transform="translate(-2521.526 -1139.12)" fill="#213f7a"/>
        <path id="Path_7739" data-name="Path 7739" d="M2549.052,1027.835a1.967,1.967,0,0,1-1.418,2.03c-1.976.573-4.253.972-8.647,1.883a83.853,83.853,0,0,1-16.5,1.658c-10.85.069-14.957-3.671-14.957-3.671-.467.009.246-2.262.89-13.059.218-3.657.428-8.293.58-14.152.137-5.272.229-11.535.238-18.965.012-8.938,13.846-18.554,14.1-18.554l0,0c0,1.287,2.029,3.662,5.152,3.867,3.708.242,8.257-1.6,8.257-3.738,0-.022,6.7,10.723,9.084,22.171C2547.038,993.071,2546.551,992.917,2549.052,1027.835Z" transform="translate(-2485.839 -933.744)" fill="#b0d0ff"/>
        <path id="Path_7740" data-name="Path 7740" d="M2498.736,965.007s-12.865-.109-15.961,4.233-9.885,27.7-6.343,35.474,10.171-3.215,13.85-7.976S2498.736,965.007,2498.736,965.007Z" transform="translate(-2461.236 -933.746)" fill="#b0d0ff"/>
        <path id="Path_7741" data-name="Path 7741" d="M2576.136,930.751l.007,1.33s-.362,4.159,4.759,4.766,8.923-.777,8.783-3.986a46.308,46.308,0,0,1-.923-7.093,14.446,14.446,0,0,1,.182-2.491l-9.924-.2-2.923.477Z" transform="translate(-2538.767 -901.454)" fill="#ffb27d"/>
        <path id="Path_7742" data-name="Path 7742" d="M2576.1,923.557l.038,7.194a8.394,8.394,0,0,0,3.577.789c4.561,0,7.509-3.345,9.05-5.772a14.446,14.446,0,0,1,.182-2.491l-9.924-.2Z" transform="translate(-2538.767 -901.454)" fill="#e2915a"/>
        <path id="Path_7743" data-name="Path 7743" d="M2580.4,864.684c-1.151,6.2-9.147,5.993-12.6,5.6-.973-.108-1.584-.232-1.584-.232-1.1-.293-1.708-2.02-1.993-4.282-.564-4.477.149-11.049.9-12.73,1.138-2.529,3.282-5.265,11.334-3.291S2581.881,856.744,2580.4,864.684Z" transform="translate(-2529.465 -844.456)" fill="#ffb27d"/>
        <path id="Path_7744" data-name="Path 7744" d="M2503.384,1040.764s-4.976,10.988-4.831,14.282a17.172,17.172,0,0,1,4.831.621C2507.274,1056.827,2503.384,1040.764,2503.384,1040.764Z" transform="translate(-2479.04 -992.094)" fill="#98baf4"/>
        <path id="Path_7745" data-name="Path 7745" d="M2557.819,831.656a26.647,26.647,0,0,0,7.725-2.09c3.393-1.475,7.673.149,9.063.881a2.066,2.066,0,0,0-.339-.836,1.864,1.864,0,0,1,.716,1.061c.064.047.093.08.076.091a2.4,2.4,0,0,1,1.162.075s-.318-.045-.432.159a.191.191,0,0,1-.051.056c5.293,2.557,5.782,10.922,4.079,12.858a67.221,67.221,0,0,0-5.144,7.6,9.573,9.573,0,0,1,.114-3.313c.373-2.049-1.4-2.049-3.633-2.981s-.373-3.54-2.329-5.123-9.128-.652-9.035-1.863C2557.129,837.259,2557.819,831.929,2557.819,831.656Z" transform="translate(-2524.627 -828.967)" fill="#233862"/>
        <path id="Path_7746" data-name="Path 7746" d="M2541.886,1128.752c-2.1,8.434-24.816,12.793-29.979,13.679.218-3.657.428-8.293.58-14.152Z" transform="translate(-2489.327 -1059.499)" fill="#98baf4"/>
        <path id="Path_7747" data-name="Path 7747" d="M2615.959,1112.477a40,40,0,0,0,5.915-1.154c.866-.433,4.825-6.06,2.232-7.5s-9.553,4.328-9.553,4.328Z" transform="translate(-2568.386 -1040.483)" fill="#ffb27d"/>
        <path id="Path_7748" data-name="Path 7748" d="M2492.155,1115.7s18.693,1.014,31.238-1.672a5.392,5.392,0,0,0-3.626-5.234s-19.552-4.144-24.249-2.99S2492.155,1115.7,2492.155,1115.7Z" transform="translate(-2473.979 -1042.029)" fill="#b0d0ff"/>
        <path id="Path_7749" data-name="Path 7749" d="M2626.046,993.186c-3.88,4.678-8.951,8.5-14.542,9.391h0a10.42,10.42,0,0,1-1.384-6.243,12.5,12.5,0,0,1,2.036-5.731,12.672,12.672,0,0,0,1.1-2.216c3.053-7.79,2.6-22.8,2.6-22.8s12.965,1.358,17,7.129C2635.332,976.246,2632.176,985.791,2626.046,993.186Z" transform="translate(-2564.94 -934.189)" fill="#b0d0ff"/>
        <path id="Path_7750" data-name="Path 7750" d="M2568.481,926.247c-.972-.108-1.584-.232-1.584-.232-1.1-.293-1.708-2.02-1.992-4.282a5.415,5.415,0,0,1,3.391,2.772A3.984,3.984,0,0,1,2568.481,926.247Z" transform="translate(-2530.146 -900.416)" fill="#e2915a"/>
        <path id="Path_7751" data-name="Path 7751" d="M2549.958,930.69s-4.478-7.388-1-7.71a5.265,5.265,0,0,1,5.384,2.9c.5.866-.131,4.771-.131,4.771Z" transform="translate(-2516.846 -901.353)" fill="#ffb27d"/>
        <path id="Path_7752" data-name="Path 7752" d="M2571.465,984.781a9.648,9.648,0,0,1-.763,2.565,12.283,12.283,0,0,1-2.851,3.927h0c-11.629-5.249-13.982-23.273-14.376-33.176-.158-3.981,0-6.65,0-6.65,5.246-1.737,6.72,1.281,6.72,1.281s6.194,14.729,9.407,24.355C2570.83,980.766,2571.623,983.7,2571.465,984.781Z" transform="translate(-2521.288 -922.886)" fill="#b0d0ff"/>
        <path id="Path_7753" data-name="Path 7753" d="M2582.629,1005.977c-3.879,4.678-8.951,8.5-14.542,9.391h0c-11.629-5.249-13.982-23.273-14.376-33.176,0,0,5.5,19.958,12.992,26.933a8.17,8.17,0,0,0,4.236,2.317s9.444-2.669,11.425-5.182A1.078,1.078,0,0,1,2582.629,1005.977Z" transform="translate(-2521.524 -946.98)" fill="#98baf4"/>
      </g>
      <g id="Group_7473" data-name="Group 7473" transform="translate(1483.127 309.84)">
        <g id="Group_7472" data-name="Group 7472" transform="translate(0)">
          <path id="Path_7754" data-name="Path 7754" d="M1600.356,1248.494h-36.121l-10.866-27.021h36.066Z" transform="translate(-1553.369 -1221.474)" fill="#2b478b"/>
          <path id="Path_7755" data-name="Path 7755" d="M1598.813,1334.479h47.7v1.053h-47.275Z" transform="translate(-1588.37 -1308.511)" fill="#2b478b"/>
        </g>
        <path id="Path_7756" data-name="Path 7756" d="M1640.1,1274.5a1.251,1.251,0,0,1,1.227-1.72,2.465,2.465,0,0,1,2.213,1.72,1.251,1.251,0,0,1-1.227,1.72A2.464,2.464,0,0,1,1640.1,1274.5Z" transform="translate(-1620.117 -1260.992)" fill="#fff"/>
      </g>
    </g>
  </g>
</svg>
