<svg id="Group_83" data-name="Group 83" xmlns="http://www.w3.org/2000/svg" width="26.632" height="21.633" viewBox="0 0 26.632 21.633">
  <path id="Path_71" data-name="Path 71" d="M26.633,60a10.91,10.91,0,0,1-3.137.86,5.486,5.486,0,0,0,2.4-3.02,11.014,11.014,0,0,1-3.471,1.326,5.467,5.467,0,0,0-9.309,4.981,15.51,15.51,0,0,1-11.26-5.708,5.47,5.47,0,0,0,1.691,7.292,5.464,5.464,0,0,1-2.475-.686v.068a5.469,5.469,0,0,0,4.382,5.357,5.534,5.534,0,0,1-1.44.191,5.244,5.244,0,0,1-1.028-.1,5.466,5.466,0,0,0,5.1,3.794A10.961,10.961,0,0,1,1.3,76.691,11.612,11.612,0,0,1,0,76.616a15.443,15.443,0,0,0,8.374,2.458A15.436,15.436,0,0,0,23.919,63.53l-.018-.707A10.91,10.91,0,0,0,26.633,60Z" transform="translate(-0.001 -57.441)" fill="#3758ff"/>
</svg>
