<svg xmlns="http://www.w3.org/2000/svg" width="29.419" height="22.064" viewBox="0 0 29.419 22.064">
  <g id="hard-drive" transform="translate(0 -64)">
    <g id="Group_663" data-name="Group 663" transform="translate(0 64)">
      <g id="Group_662" data-name="Group 662" transform="translate(0 0)">
        <path id="Path_244" data-name="Path 244" d="M34.215,75.032H58.547a.613.613,0,0,0,.548-.886L54.724,65.4a.45.45,0,0,0-.039-.066A2.461,2.461,0,0,0,52.51,64H40.252a2.463,2.463,0,0,0-2.172,1.328.714.714,0,0,0-.042.071l-4.371,8.747a.613.613,0,0,0,.548.886Z" transform="translate(-31.672 -64)" fill="#9ea6c7"/>
        <path id="Path_245" data-name="Path 245" d="M26.968,277.333H2.452A2.454,2.454,0,0,0,0,279.785v4.9a2.454,2.454,0,0,0,2.452,2.452H26.968a2.454,2.454,0,0,0,2.452-2.452v-4.9A2.453,2.453,0,0,0,26.968,277.333ZM7.355,279.785a1.226,1.226,0,1,1-1.226,1.226A1.228,1.228,0,0,1,7.355,279.785Zm-3.677,0a1.226,1.226,0,1,1-1.226,1.226A1.228,1.228,0,0,1,3.677,279.785Zm22.677,4.9H3.064a.613.613,0,1,1,0-1.226h23.29a.613.613,0,1,1,0,1.226Z" transform="translate(0 -265.075)" fill="#9ea6c7"/>
      </g>
    </g>
  </g>
</svg>
