<svg xmlns="http://www.w3.org/2000/svg" width="14.699" height="14.699" viewBox="0 0 14.699 14.699">
  <path id="Icon_metro-cross" data-name="Icon metro-cross" d="M17.136,13.737h0L12.677,9.278l4.459-4.459h0a.46.46,0,0,0,0-.65L15.029,2.062a.461.461,0,0,0-.65,0h0L9.921,6.522,5.461,2.062h0a.46.46,0,0,0-.649,0L2.7,4.169a.46.46,0,0,0,0,.649h0L7.164,9.278,2.7,13.737h0a.46.46,0,0,0,0,.649l2.107,2.107a.46.46,0,0,0,.65,0h0l4.459-4.459,4.459,4.459h0a.46.46,0,0,0,.649,0l2.107-2.107a.46.46,0,0,0,0-.649Z" transform="translate(-2.571 -1.928)" fill="#ff3b3b"/>
</svg>
