<svg xmlns="http://www.w3.org/2000/svg" width="40.5" height="36" viewBox="0 0 40.5 36">
  <path id="Icon_awesome-bullhorn" data-name="Icon awesome-bullhorn" d="M40.5,16.875A4.48,4.48,0,0,0,38.25,13V2.251A2.273,2.273,0,0,0,36,0a2.245,2.245,0,0,0-1.4.494L28.616,5.277A17.066,17.066,0,0,1,18,9H4.5A4.5,4.5,0,0,0,0,13.5v6.75a4.5,4.5,0,0,0,4.5,4.5H6.87A17.087,17.087,0,0,0,6.716,27a17.812,17.812,0,0,0,1.8,7.8,2.206,2.206,0,0,0,2,1.2h5.223a2.236,2.236,0,0,0,1.821-3.555A8.954,8.954,0,0,1,15.716,27a8.509,8.509,0,0,1,.31-2.25H18a17.062,17.062,0,0,1,10.616,3.723l5.979,4.783A2.249,2.249,0,0,0,38.249,31.5V20.751A4.481,4.481,0,0,0,40.5,16.875Zm-6.75,9.944L31.426,24.96A21.572,21.572,0,0,0,18,20.25V13.5A21.572,21.572,0,0,0,31.426,8.79L33.75,6.931Z" fill="#73788e"/>
</svg>
