<svg xmlns="http://www.w3.org/2000/svg" width="27.627" height="24.173" viewBox="0 0 27.627 24.173">
  <path id="Icon_awesome-server" data-name="Icon awesome-server" d="M25.9,9.157H1.727A1.727,1.727,0,0,1,0,7.43V3.977A1.727,1.727,0,0,1,1.727,2.25H25.9a1.727,1.727,0,0,1,1.727,1.727V7.43A1.727,1.727,0,0,1,25.9,9.157ZM23.31,4.408a1.3,1.3,0,1,0,1.3,1.3A1.295,1.295,0,0,0,23.31,4.408Zm-3.453,0a1.3,1.3,0,1,0,1.3,1.3A1.295,1.295,0,0,0,19.857,4.408ZM25.9,17.79H1.727A1.727,1.727,0,0,1,0,16.063V12.61a1.727,1.727,0,0,1,1.727-1.727H25.9a1.727,1.727,0,0,1,1.727,1.727v3.453A1.727,1.727,0,0,1,25.9,17.79Zm-2.59-4.748a1.3,1.3,0,1,0,1.3,1.3A1.295,1.295,0,0,0,23.31,13.042Zm-3.453,0a1.3,1.3,0,1,0,1.3,1.3A1.295,1.295,0,0,0,19.857,13.042ZM25.9,26.423H1.727A1.727,1.727,0,0,1,0,24.7V21.243a1.727,1.727,0,0,1,1.727-1.727H25.9a1.727,1.727,0,0,1,1.727,1.727V24.7A1.727,1.727,0,0,1,25.9,26.423Zm-2.59-4.748a1.3,1.3,0,1,0,1.3,1.3A1.295,1.295,0,0,0,23.31,21.675Zm-3.453,0a1.3,1.3,0,1,0,1.3,1.3A1.295,1.295,0,0,0,19.857,21.675Z" transform="translate(0 -2.25)" fill="#9ea6c7"/>
</svg>
