<svg xmlns="http://www.w3.org/2000/svg" width="15.849" height="15.846" viewBox="0 0 15.849 15.846">
  <path id="Icon_awesome-instagram" data-name="Icon awesome-instagram" d="M7.921,6.1a4.063,4.063,0,1,0,4.063,4.063A4.056,4.056,0,0,0,7.921,6.1Zm0,6.7a2.641,2.641,0,1,1,2.641-2.641A2.646,2.646,0,0,1,7.921,12.8ZM13.1,5.932a.948.948,0,1,1-.948-.948A.945.945,0,0,1,13.1,5.932Zm2.691.962a4.689,4.689,0,0,0-1.28-3.32,4.72,4.72,0,0,0-3.32-1.28c-1.308-.074-5.229-.074-6.538,0A4.713,4.713,0,0,0,1.33,3.57,4.7,4.7,0,0,0,.05,6.89c-.074,1.308-.074,5.229,0,6.538a4.689,4.689,0,0,0,1.28,3.32,4.726,4.726,0,0,0,3.32,1.28c1.308.074,5.229.074,6.538,0a4.689,4.689,0,0,0,3.32-1.28,4.72,4.72,0,0,0,1.28-3.32c.074-1.308.074-5.226,0-6.534ZM14.1,14.831a2.674,2.674,0,0,1-1.506,1.506c-1.043.414-3.518.318-4.671.318a17.6,17.6,0,0,1-4.671-.318,2.674,2.674,0,0,1-1.506-1.506c-.414-1.043-.318-3.518-.318-4.671A17.6,17.6,0,0,1,1.744,5.49,2.674,2.674,0,0,1,3.25,3.983c1.043-.414,3.518-.318,4.671-.318a17.6,17.6,0,0,1,4.671.318A2.674,2.674,0,0,1,14.1,5.49c.414,1.043.318,3.518.318,4.671S14.512,13.792,14.1,14.831Z" transform="translate(0.005 -2.237)" fill="#fff"/>
</svg>
