<svg xmlns="http://www.w3.org/2000/svg" width="22.686" height="25.927" viewBox="0 0 22.686 25.927">
  <path id="Icon_metro-attachment" data-name="Icon metro-attachment" d="M19.583,10.209,17.938,8.565,9.714,16.787a3.489,3.489,0,0,0,4.934,4.933l9.869-9.867a5.814,5.814,0,0,0-8.223-8.222L5.933,13.991l-.022.021A8.109,8.109,0,0,0,17.38,25.48l.021-.022h0l7.073-7.071-1.645-1.644-7.072,7.071-.021.021a5.783,5.783,0,0,1-8.18-8.178l.022-.021v0L17.939,5.275a3.489,3.489,0,0,1,4.934,4.933L13,20.076a1.163,1.163,0,0,1-1.645-1.644l8.224-8.223Z" transform="translate(-3.535 -1.928)" fill="#cbcbcb"/>
</svg>
