<svg xmlns="http://www.w3.org/2000/svg" width="19.31" height="13.577" viewBox="0 0 19.31 13.577">
  <path id="Icon_awesome-youtube" data-name="Icon awesome-youtube" d="M19.957,6.624a2.426,2.426,0,0,0-1.707-1.718C16.743,4.5,10.7,4.5,10.7,4.5s-6.038,0-7.544.406A2.426,2.426,0,0,0,1.453,6.624a25.453,25.453,0,0,0-.4,4.678,25.453,25.453,0,0,0,.4,4.678,2.39,2.39,0,0,0,1.707,1.691c1.506.406,7.544.406,7.544.406s6.038,0,7.544-.406a2.39,2.39,0,0,0,1.707-1.691,25.453,25.453,0,0,0,.4-4.678,25.453,25.453,0,0,0-.4-4.678ZM8.73,14.174V8.431L13.777,11.3,8.73,14.174Z" transform="translate(-1.05 -4.5)" fill="#fff"/>
</svg>
