<svg xmlns="http://www.w3.org/2000/svg" width="15.84" height="15.84" viewBox="0 0 15.84 15.84">
  <path id="Icon_awesome-linkedin-in" data-name="Icon awesome-linkedin-in" d="M3.546,15.841H.262V5.265H3.546ZM1.9,3.823A1.911,1.911,0,1,1,3.8,1.9,1.918,1.918,0,0,1,1.9,3.823ZM15.837,15.841H12.56V10.693c0-1.227-.025-2.8-1.707-2.8-1.707,0-1.969,1.333-1.969,2.712v5.236H5.6V5.265h3.15V6.708H8.8A3.451,3.451,0,0,1,11.906,5c3.324,0,3.935,2.189,3.935,5.031v5.809Z" transform="translate(0 -0.001)" fill="#fff"/>
</svg>
