<svg xmlns="http://www.w3.org/2000/svg" width="18.103" height="14.703" viewBox="0 0 18.103 14.703">
  <path id="Icon_awesome-twitter" data-name="Icon awesome-twitter" d="M16.242,7.045c.011.161.011.322.011.482A10.484,10.484,0,0,1,5.7,18.084,10.485,10.485,0,0,1,0,16.418a7.675,7.675,0,0,0,.9.046A7.43,7.43,0,0,0,5.5,14.879a3.717,3.717,0,0,1-3.469-2.573,4.679,4.679,0,0,0,.7.057,3.924,3.924,0,0,0,.976-.126A3.711,3.711,0,0,1,.735,8.6V8.55a3.737,3.737,0,0,0,1.677.471A3.716,3.716,0,0,1,1.264,4.058a10.546,10.546,0,0,0,7.65,3.883,4.188,4.188,0,0,1-.092-.85,3.714,3.714,0,0,1,6.421-2.539,7.3,7.3,0,0,0,2.355-.9A3.7,3.7,0,0,1,15.967,5.7,7.438,7.438,0,0,0,18.1,5.127a7.976,7.976,0,0,1-1.861,1.918Z" transform="translate(0 -3.381)" fill="#fff"/>
</svg>
