<svg xmlns="http://www.w3.org/2000/svg" width="24.155" height="24.078" viewBox="0 0 24.155 24.078">
  <path id="Icon_open-link-intact" data-name="Icon open-link-intact" d="M17.82.135a5.75,5.75,0,0,0-1.6.272,6.235,6.235,0,0,0-2.27,1.423,1.513,1.513,0,1,0,2.089,2.089,2.943,2.943,0,0,1,1.15-.666,3.08,3.08,0,0,1,3.208.666,3.125,3.125,0,0,1,0,4.359l-4.54,4.54a4.018,4.018,0,0,1-3.208,1.423,2.243,2.243,0,0,1-1.241-.393A1.532,1.532,0,1,0,9.89,16.51a5.711,5.711,0,0,0,2.543.757,7.276,7.276,0,0,0,5.479-2.361l4.54-4.54a5.992,5.992,0,0,0,0-8.506,5.884,5.884,0,0,0-2.936-1.6,6.384,6.384,0,0,0-1.7-.091ZM11.766,7.127A7.221,7.221,0,0,0,6.379,9.4l-4.54,4.54a6.013,6.013,0,0,0,6.235,9.928,6.235,6.235,0,0,0,2.27-1.423,1.513,1.513,0,1,0-2.089-2.089,2.943,2.943,0,0,1-1.15.666A3.08,3.08,0,0,1,3.9,20.355,3.125,3.125,0,0,1,3.9,16l4.54-4.54a3.909,3.909,0,0,1,3.118-1.332,4.413,4.413,0,0,1,1.423.272,1.513,1.513,0,1,0,1.332-2.664,5.912,5.912,0,0,0-2.543-.666Z" transform="translate(-0.068 -0.135)" fill="#aeaeae"/>
</svg>
