<svg xmlns="http://www.w3.org/2000/svg" width="28.538" height="22.83" viewBox="0 0 28.538 22.83">
  <path id="Icon_awesome-truck" data-name="Icon awesome-truck" d="M27.824,15.7h-.713v-4.82a2.14,2.14,0,0,0-.629-1.512L22.028,4.909a2.14,2.14,0,0,0-1.512-.629H18.55V2.14A2.141,2.141,0,0,0,16.409,0H2.14A2.141,2.141,0,0,0,0,2.14V16.409a2.141,2.141,0,0,0,2.14,2.14h.713a4.281,4.281,0,1,0,8.561,0h5.708a4.281,4.281,0,1,0,8.561,0h2.14a.716.716,0,0,0,.713-.713V16.409A.716.716,0,0,0,27.824,15.7ZM7.134,20.69a2.14,2.14,0,1,1,2.14-2.14A2.141,2.141,0,0,1,7.134,20.69Zm14.269,0a2.14,2.14,0,1,1,2.14-2.14A2.141,2.141,0,0,1,21.4,20.69Zm3.567-9.275H18.55V6.421h1.966l4.455,4.455Z" fill="#9ea6c7"/>
</svg>
