<svg xmlns="http://www.w3.org/2000/svg" width="331.34" height="194.343" viewBox="0 0 331.34 194.343"><g transform="translate(-281.001 -1983.774)"><path d="M480.681,670.319s4.768-37.308-3.6-90.513C469.45,531.248,408.2,500.824,373.8,523.691c-16.639,11.062-31.418-28.254-86.64-44.53-40.837-12.036-121.343,8.307-106.006,90.97,11.66,62.849-41.126,30.7-28.494,100.131Z" transform="translate(130.307 1507.798)" fill="#bb85ff" opacity="0.1"/><g transform="translate(506.013 2113.991)"><g transform="translate(33.939 25.347)"><path d="M1813.415,1464.839s-4.442-5.182-.274-8.473c0,0,3.044-1.843,5.527-1.693,0,0-3.517,5.9-2.38,6.485s3.446-6.855,3.446-6.855,6.928-.672,9.157.4c0,0-5.923,4.847-4.675,5.135s7.644-4.469,7.644-4.469,6.448,1.1,6.1,5.031-2.566,5.148-3.542,5.043-6.689-2.285-6.813-1.485,3.314,3.415,5.722,3.537c0,0-4.546,5.013-7.567,3.567s-3.279-3.74-5.162-4.6-3.491-.858-2.713.019,4.186,1.73,5.263,3.635,2.043,3.19-1.082,2.72-8.207-2.758-8.43-5.377Z" transform="translate(-1805.908 -1454.094)" fill="#82b378"/><g transform="translate(0 6.381)"><path d="M1825.068,1494.242s-17.513-.675-21.38,4.333a12.668,12.668,0,0,1-3.488,4.894l-.41,1.118s3.035-3.2,4.121-3.394C1803.911,1501.194,1802.213,1494.99,1825.068,1494.242Z" transform="translate(-1796.18 -1494.212)" fill="#82b378"/><path d="M1781.114,1550.093a11,11,0,0,0-4.02,7.747l.682.061s1.2-5.136,3.37-7.144S1781.114,1550.093,1781.114,1550.093Z" transform="translate(-1777.094 -1540.835)" fill="#82b378"/></g></g><g transform="translate(0 11.279)"><path d="M1589.62,1383.932s7.066-3.957,3.769-9.326c0,0-2.638-3.3-5.464-4.145,0,0,1.508,8.007,0,8.2s-1.036-9.043-1.036-9.043-7.443-3.58-10.363-3.3c0,0,4.616,7.819,3.109,7.631s-6.689-8.1-6.689-8.1-7.631-1.413-8.856,3.109.754,6.783,1.884,7.065,8.384.188,8.2,1.131-5.088,2.449-7.819,1.6c0,0,3.015,7.442,6.971,7.065s5.181-2.826,7.631-3.014,4.239.471,3.015,1.13-5.37.216-7.348,1.9-3.58,2.718.094,3.472,10.268.283,11.587-2.544Z" transform="translate(-1563.704 -1365.635)" fill="#a8d29f"/><g transform="translate(3.872 4.731)"><path d="M1588.049,1395.382s19.784,6.406,22.044,13.566a15.032,15.032,0,0,0,1.884,6.877v1.413s-2.072-4.8-3.2-5.464C1608.774,1411.774,1613.2,1405.556,1588.049,1395.382Z" transform="translate(-1588.049 -1395.382)" fill="#82b378"/><path d="M1733.5,1519.266a13.048,13.048,0,0,1,1.312,10.273l-.785-.211s.762-6.212-.834-9.336S1733.5,1519.266,1733.5,1519.266Z" transform="translate(-1709.574 -1498.823)" fill="#82b378"/></g></g><g transform="translate(31.034 0)"><path d="M1764.955,1318.839s-9.313-5.216-4.967-12.294c0,0,3.477-4.346,7.2-5.464,0,0-1.987,10.556,0,10.8s1.366-11.922,1.366-11.922,9.81-4.719,13.66-4.346c0,0-6.084,10.307-4.1,10.059s8.817-10.68,8.817-10.68,10.058-1.863,11.673,4.1-.993,8.941-2.484,9.314-11.052.249-10.8,1.49,6.706,3.229,10.307,2.111c0,0-3.974,9.81-9.19,9.313s-6.83-3.725-10.059-3.974-5.588.621-3.974,1.49,7.079.285,9.687,2.5,4.719,3.583-.124,4.577-13.536.373-15.274-3.353Z" transform="translate(-1758.832 -1294.721)" fill="#a8d29f"/><g transform="translate(1.204 6.237)"><path d="M1813.257,1333.933s-26.078,8.444-29.058,17.882a19.812,19.812,0,0,1-2.483,9.065v1.863s2.732-6.333,4.222-7.2C1785.937,1355.541,1780.1,1347.345,1813.257,1333.933Z" transform="translate(-1779.28 -1333.933)" fill="#82b378"/><path d="M1768.837,1497.235a17.2,17.2,0,0,0-1.729,13.541l1.035-.278s-1-8.188,1.1-12.306S1768.837,1497.235,1768.837,1497.235Z" transform="translate(-1766.401 -1470.288)" fill="#82b378"/></g></g><path d="M1698.891,1593.4a18.244,18.244,0,0,0,18.244-18.244h-36.488A18.244,18.244,0,0,0,1698.891,1593.4Z" transform="translate(-1662.048 -1530.557)" fill="#f1a34f"/><path d="M1715.137,1593.263a18.257,18.257,0,0,1-20.51-18.1h4.533A18.247,18.247,0,0,0,1715.137,1593.263Z" transform="translate(-1673.804 -1530.556)" fill="#ffb973"/><path d="M1716.056,1683.8h-36.991a2.251,2.251,0,0,1,2.25-2.251h32.49a2.251,2.251,0,0,1,2.251,2.251Z" transform="translate(-1660.717 -1620.03)" fill="#f1a34f"/><rect width="37.503" height="0.56" transform="translate(17.999 44.602)" fill="#d86713"/></g><g transform="translate(352.391 1992.998)"><path d="M1098.207,991.9q.175-.057.358-.122c.607-.217,1.838-1.808,1.838-1.808l2.319,2.5-1.592,1.682c-.909,2.128-.925,2.167-3.672,2.581-2.382.359-1.994,1.875-3.651,2.292s-1.431-1.927-1.431-1.927c.639-3.713,1.341-4.2,2.935-4.528-.528-.19-.883-.468-.771-.818.1-.308.916.028,2.539-.175A2.9,2.9,0,0,1,1098.207,991.9Z" transform="translate(-1013.708 -917.443)" fill="#ed975d"/><path d="M1133.726,813.3a17.673,17.673,0,0,1-1.291-3.842s15.64-10.283,17.012-11.43,15.589-22.049,15.589-22.049l16.665,1.334s-22.223,25.649-25.755,28.487c-5.837,4.69-20.418,9.773-20.418,9.773A7.417,7.417,0,0,1,1133.726,813.3Z" transform="translate(-1047.404 -737.491)" fill="#912f2f"/><g transform="translate(97.863 84.931)"><path d="M1213.12,1649.407h17.123c.823-1,.52-4.714.4-5.924-.026-.244-.043-.386-.043-.386s-5.847-4.677-6.65-1.1c-.024.112-.054.222-.087.33-1.012,3.349-5.551,4.872-8.171,5.3A2.968,2.968,0,0,0,1213.12,1649.407Z" transform="translate(-1213.12 -1549.57)" fill="#233862"/><path d="M1355.62,1649.407h17.123c.823-1,.52-4.714.4-5.924-.026-.244-.043-.386-.043-.386s-5.847-4.677-6.65-1.1c-.024.112-.054.222-.087.33-1.012,3.349-5.551,4.872-8.171,5.3A2.968,2.968,0,0,0,1355.62,1649.407Z" transform="translate(-1332.956 -1549.57)" fill="#233862"/><path d="M1257.8,1087.011s0,10.436-.033,24.022c-.045,18.144,1.215,40.306,1.384,44.515.292,7.309,1.462,19,1.462,19s2.775,2.777,8.33,1.607a191.258,191.258,0,0,0,6.364-34.348c.022-.289.044-.581.066-.873,1.315-17.976,3.361-55.829,3.361-55.829Z" transform="translate(-1250.668 -1082.382)" fill="#2b478b"/><path d="M1257.809,1087.011s0,10.039-.033,24.022l16.066,42.876c.022-.29,1.519-12.682,1.541-12.974,1.315-17.976,3.36-55.829,3.36-55.829Z" transform="translate(-1250.674 -1082.382)" fill="#233862"/><path d="M1310.809,1069.049s2.162,28.76,5.21,52.8a298.332,298.332,0,0,0,10.755,40.288s8.35.79,9.258-.686c0,0,1.67-26.083-2.118-39.761-1.708-6.17,1.09-22.915,1.7-31.809a81.723,81.723,0,0,0-1.71-21.9Z" transform="translate(-1295.272 -1067.978)" fill="#2b478b"/></g><path d="M1314.175,647.128c6.253,1.973,17.074-3.352,17.074-3.352s-5.766-4.327-5.464-13.325l-4.835,3.9-3.285,2.647a39.361,39.361,0,0,0,.373,4.295c.095.719.213,1.521.361,2.4A14.96,14.96,0,0,0,1314.175,647.128Z" transform="translate(-1200.24 -615.106)" fill="#ffb27d"/><path d="M1336.12,657.1a39.323,39.323,0,0,0,.373,4.295c3.639-.625,7.768-6.507,7.768-6.507a11.594,11.594,0,0,0-4.855-.435Z" transform="translate(-1218.694 -635.214)" fill="#ed975d"/><path d="M1313.438,580.3s10.329,1.716,11.3-4.733,2.956-10.571-3.6-11.94-8.209.9-9.056,2.973S1310.776,579.69,1313.438,580.3Z" transform="translate(-1197.925 -558.562)" fill="#ffb27d"/><path d="M1255.529,762.5a1.012,1.012,0,0,0,.657.25c2.349-.032,9.768,1.287,15.562.692a43.167,43.167,0,0,0,13.851-4c.617-.276,2.036-1.034,2-1.723-.021-.755-.1-1.849-.19-3.228a172.648,172.648,0,0,1-.343-22.546c.1-1.771.153-3.527.16-5.257.048-12.889-2.508-24.225-7.643-28.062-.439-.314-3.132,1-5.606,2.222a10.241,10.241,0,0,1-6.732.815l-2.16,1.91a21.587,21.587,0,0,0-6.764,10.8c-1.066,4.29-1.691,12.026-2.036,20.043-.156,3.633-.282,7.3-.314,10.774v.124c-.03.345-.03.721-.03,1.066C1255.818,755.313,1255.372,762.375,1255.529,762.5Z" transform="translate(-1150.893 -672.403)" fill="#bc3f3f"/><path d="M1310.543,550.355s-1.06-.177-.889-1.637.169-3.369-1.018-3.013-1.246,1.306-1.734.751-.5-2.893-4.029-3.056-4.968,1.067-6.61.344-1.729-3.208-1.729-3.208a2.826,2.826,0,0,0,1.173,1.17s-2.74-3.748.432-6.318,6.408-.887,8.244-.776c4.045.245,6.658.488,7.98,3.146S1313.139,547.8,1310.543,550.355Z" transform="translate(-1183.722 -533.969)" fill="#233862"/><path d="M631.54,1103.406l-2.511-.358h-.006c-.173-.042-.349-.077-.531-.1l-4.579-.651.306-2.151a1.822,1.822,0,0,0-1.545-2.059l-1.195-.171-4.808-.685-.867-.123a1.823,1.823,0,0,0-2.059,1.545l-.306,2.151-7.9-1.127a5.535,5.535,0,0,0-6.241,4.684l-1.436,10.082a5.533,5.533,0,0,0,4.684,6.24l22.956,3.272a5.4,5.4,0,0,0,1.2.038l1.875.267a5.513,5.513,0,0,0,6.218-4.667l1.42-9.966A5.513,5.513,0,0,0,631.54,1103.406Zm-16.665-4.6a.683.683,0,0,1,.769-.577l1.021.145,3.784.541,2.063.294a.68.68,0,0,1,.577.768l-.306,2.151-8.215-1.171Z" transform="translate(-597.802 -1007.524)" fill="#233862"/><g transform="translate(122.034 27.101)"><path d="M1403.174,855.882a172.617,172.617,0,0,1-.343-22.546c.1-1.771.153-3.527.16-5.257-2.14-5.19-3.888-8.953-3.888-8.953h-5.392S1389.757,846.13,1403.174,855.882Z" transform="translate(-1388.702 -800.875)" fill="#912f2f"/><path d="M1521.081,1050.381q-.008-.184-.023-.378a7.989,7.989,0,0,0-1.256-2.252l3.028-1.572,1.2,1.982c1.811,1.441,1.844,1.466,1.514,4.225-.286,2.392,1.278,2.42,1.241,4.128s-2.238.869-2.238.869c-3.41-1.6-3.693-2.407-3.588-4.031-.323.459-.685.727-.993.527-.271-.176.27-.875.505-2.495A2.9,2.9,0,0,1,1521.081,1050.381Z" transform="translate(-1495.197 -991.815)" fill="#ffb27d"/><path d="M1392.773,761.534a17.662,17.662,0,0,1-4.047.225s-5.765-17.808-6.507-19.435-17.123-20.881-17.123-20.881l6.824-17.078s17.718,29.6,19.517,33.754c2.973,6.872,4,22.279,4,22.279A7.419,7.419,0,0,1,1392.773,761.534Z" transform="translate(-1365.097 -704.366)" fill="#bc3f3f"/></g><g transform="translate(3.907 0)"><path d="M717.7,1060.441q-.022-.183-.04-.377a7.989,7.989,0,0,1,.863-2.429l-3.247-1.046-.852,2.153c-1.546,1.722-1.6,2.079-1.817,4.485s.239,2.048.914,2.326a11.683,11.683,0,0,0,2.225.649,3.744,3.744,0,0,0,2.057-.169c.857-.334.966-.784.852-1.39a.538.538,0,0,1,.571-.615.253.253,0,0,0,.179-.071c.238-.218-.435-1.073-.937-2.63A2.9,2.9,0,0,0,717.7,1060.441Z" transform="translate(-698.212 -973.469)" fill="#ffb27d"/><path d="M714.149,791.5a17.666,17.666,0,0,0,4.028-.452s2.72-18.519,3.181-20.247,13.408-23.44,13.408-23.44l-11.773-9.294S712.65,763.79,711.568,768.19c-1.788,7.271-.24,22.635-.24,22.635A7.419,7.419,0,0,0,714.149,791.5Z" transform="translate(-696.656 -705.607)" fill="#233862"/><g transform="translate(0 83.271)"><path d="M635.631,1615.351h-7.487a4.539,4.539,0,0,1-2.048-3.431c-.365-2.412-3.069-3.727-3.654-5.7s2.412-4.749,2.412-4.749l.5-.646.521-.67,4.97,1.17s.123,1.184.2,2.691a34.379,34.379,0,0,1,.021,3.447c-.146,2.631.736,5.464,3.073,5.976C635.867,1613.816,635.789,1614.842,635.631,1615.351Z" transform="translate(-622.366 -1513.854)" fill="#233862"/><path d="M885.515,1649.407H868.393c-.823-1-.52-4.714-.4-5.924.026-.244.043-.386.043-.386s5.847-4.677,6.651-1.1c.024.112.054.222.087.33,1.012,3.349,5.55,4.872,8.171,5.3A2.967,2.967,0,0,1,885.515,1649.407Z" transform="translate(-828.798 -1547.91)" fill="#233862"/><path d="M827.3,1086.641s-.888,11.077-1.931,24.393c-1.418,18.088-3.124,40.306-3.293,44.515-.292,7.309-1.462,19-1.462,19s-2.776,2.777-8.331,1.607a191.27,191.27,0,0,1-6.364-34.348c-.022-.289-.044-.581-.066-.873-1.315-17.976-3.361-55.829-3.361-55.829Z" transform="translate(-773.845 -1080.722)" fill="#f99746"/><path d="M827.3,1086.641s-.888,11.077-1.931,24.393l-19.449,30.775c-.022-.289-.044-.581-.066-.873-1.315-17.976-3.361-55.829-3.361-55.829Z" transform="translate(-773.845 -1080.722)" fill="#ed7d2b"/><path d="M684.919,1064.774s-16,40.118-26.526,58.971-13.811,24.114-13.811,24.114-6.029-2.411-6.577-4.056c0,0,4.024-36.4,11.071-45.269,3.982-5.014,8.659-20.059,8.879-25.32s1.425-15.674,1.425-15.674Z" transform="translate(-635.518 -1057.54)" fill="#f99746"/></g><path d="M817.648,647.128c-6.253,1.973-17.074-3.352-17.074-3.352s5.766-4.327,5.464-13.325l4.835,3.9,3.285,2.647a39.368,39.368,0,0,1-.372,4.295c-.095.719-.212,1.521-.362,2.4A14.963,14.963,0,0,1,817.648,647.128Z" transform="translate(-772.231 -615.106)" fill="#ffb27d"/><path d="M842.941,657.1a39.382,39.382,0,0,1-.373,4.295c-3.639-.625-7.768-6.507-7.768-6.507a11.594,11.594,0,0,1,4.855-.435Z" transform="translate(-801.014 -635.214)" fill="#ed975d"/><path d="M832.676,580.3s-10.329,1.716-11.3-4.733-2.956-10.571,3.6-11.94,8.208.9,9.056,2.973S835.339,579.69,832.676,580.3Z" transform="translate(-788.837 -558.562)" fill="#ffb27d"/><path d="M796.229,762.516a1.011,1.011,0,0,1-.657.25c-2.348-.032-9.2,1.272-14.991.677a43.165,43.165,0,0,1-13.852-4c-.617-.276-2.036-1.034-2-1.723.021-.755.1-1.849.19-3.228a172.664,172.664,0,0,0,.343-22.546c-.1-1.771-.153-3.527-.16-5.257-.048-12.889,2.508-24.225,7.643-28.062.439-.314,3.132,1,5.606,2.222a10.241,10.241,0,0,0,6.732.815l2.16,1.91a21.586,21.586,0,0,1,6.764,10.8c1.066,4.29,1.691,12.026,2.036,20.043.156,3.633.282,7.3.314,10.774v.124c.03.345.03.721.03,1.066C796.511,755.313,796.385,762.39,796.229,762.516Z" transform="translate(-742.083 -672.403)" fill="#2b478b"/><path d="M1069.134,991.9q-.175-.057-.359-.122c-.607-.217-1.838-1.808-1.838-1.808l-2.319,2.5,1.592,1.682c.909,2.128.925,2.167,3.672,2.581,2.382.359,1.994,1.875,3.651,2.292s1.431-1.927,1.431-1.927c-.639-3.713-1.341-4.2-2.934-4.528.528-.19.882-.468.771-.818-.1-.308-.915.028-2.539-.175A2.9,2.9,0,0,0,1069.134,991.9Z" transform="translate(-994.281 -917.443)" fill="#ffb27d"/><path d="M827.877,813.3a17.665,17.665,0,0,0,1.291-3.842s-15.64-10.283-17.012-11.43-15.59-22.049-15.59-22.049L779.9,777.316s22.223,25.649,25.755,28.487c5.837,4.69,20.418,9.773,20.418,9.773A7.421,7.421,0,0,0,827.877,813.3Z" transform="translate(-754.846 -737.491)" fill="#2b478b"/><path d="M813.621,550.355s1.06-.177.889-1.637-.169-3.369,1.018-3.013,1.246,1.306,1.734.751.5-2.893,4.028-3.056,4.968,1.067,6.61.344,1.729-3.208,1.729-3.208a2.826,2.826,0,0,1-1.173,1.17s2.74-3.748-.432-6.318-6.408-.887-8.244-.776c-4.045.245-6.658.488-7.98,3.146S811.025,547.8,813.621,550.355Z" transform="translate(-781.089 -533.969)" fill="#2b478b"/><path d="M793.622,795.725s-13.617-4.51-18.423-10.047c-4.877-5.62-13.687-15.9-13.687-15.9l.084-.342a44.614,44.614,0,0,1,2.87-8.156h0s1.19,7.066,4.848,11.944l3.658,4.877S778.99,788.436,793.622,795.725Z" transform="translate(-739.382 -725.124)" fill="#233862"/></g></g></g></svg>