<svg xmlns="http://www.w3.org/2000/svg" width="331.34" height="194.343" viewBox="0 0 331.34 194.343"><g transform="translate(-928.001 -1934.774)"><path d="M480.681,670.319s4.768-37.308-3.6-90.513C469.45,531.248,408.2,500.824,373.8,523.691c-16.639,11.062-31.418-28.254-86.64-44.53-40.837-12.036-121.343,8.307-106.006,90.97,11.66,62.849-41.126,30.7-28.494,100.131Z" transform="translate(777.307 1458.798)" fill="#bb85ff" opacity="0.1"/><g transform="translate(784.837 1594.43)"><path d="M1599.216,853.266l8.359,99.393s.876,6.025-3.606,6.036c-7.369.018-36.676,0-36.676,0s5.546-1.254,5.479-4.076c-.079-3.326-9.77-102.293-9.77-102.293Z" transform="translate(-1231.798 -425.566)" fill="#686868"/><path d="M1549.389,945.4c1.449,0,29.441.092,36.617,0,3.127-.039,3.676-2.781,3.7-4.555a8.888,8.888,0,0,0-.095-1.479l-.217-2.583-.554-6.584-.489-5.817-.629-7.475-.53-6.309-5.94-70.625-36.214-.94s4.082,41.417,6.969,71.565c.323,3.359.629,6.58.912,9.586q.138,1.44.266,2.812c.268,2.853.512,5.472.725,7.785.112,1.219.216,2.352.309,3.389.368,4.066.584,6.662.587,7.156a4.186,4.186,0,0,1-.071.8C1554.144,945.292,1549.933,945.4,1549.389,945.4Z" transform="translate(-1216.271 -414.069)" fill="#9b9b9b"/><path d="M973.649,460.4h173.865l-20.361,81.788-2.788,11.2-9.484,38.095H938.694Z" transform="translate(-692.147 -86.788)" fill="#d6d6d6"/><path d="M2270.623,460.4l2.822.941-31.7,132.989-3.752-2.845Z" transform="translate(-1815.256 -86.787)" fill="#9b9b9b"/><path d="M1118.636,1429.935h-175.1l-4.835-2.845h176.186Z" transform="translate(-692.151 -922.392)" fill="#686868"/><rect width="37.912" height="1.802" transform="translate(327.082 531.366)" fill="#d6d6d6"/><path d="M1603.679,1448.066l.2,1.377,35.655,7.2-.489-5.817-.233-2.763Z" transform="translate(-1266.959 -940.523)" fill="#686868"/><path d="M1577.114,1551.857c1.449,0,29.442.092,36.617,0,3.127-.039,3.676-2.781,3.7-4.555l-35.486-6.677c.368,4.066.584,6.662.587,7.156a4.2,4.2,0,0,1-.071.8C1581.869,1551.753,1577.658,1551.857,1577.114,1551.857Z" transform="translate(-1243.996 -1020.531)" fill="#686868" opacity="0.4"/><path d="M1684.118,1237.082l75.106,25.752,6.414-25.767Z" transform="translate(-1336.49 -758.135)" fill="#686868" opacity="0.4"/><path d="M1016.642,460.4h173.865l-26.2,105.317-175.871.033Z" transform="translate(-735.141 -86.787)" fill="#d6d6d6"/><path d="M1553.334,1305.7a5.958,5.958,0,0,1,5.587-4.678,3.744,3.744,0,0,1,3.769,4.678,5.958,5.958,0,0,1-5.587,4.678A3.744,3.744,0,0,1,1553.334,1305.7Z" transform="translate(-1223.365 -813.422)" fill="#686868"/><path d="M1048.9,597.159h162.791l18.436-73.442,1.413-5.632,1.206-4.8,2.827-11.264H1075.132l-3.1,11.264-1.325,4.8-1.552,5.632Z" transform="translate(-787.412 -122.76)" fill="#e9f3fe"/><path d="M1222.536,502.017h160.444l-2.827,11.264H1219.431Z" transform="translate(-934.816 -122.76)" fill="#afcdfb"/><path d="M2357.3,529.174a1.064,1.064,0,0,1,1.057,1.408,1.923,1.923,0,0,1-1.759,1.408,1.064,1.064,0,0,1-1.057-1.408A1.923,1.923,0,0,1,2357.3,529.174Z" transform="translate(-1916.83 -146.234)" fill="#e9f3fe"/><path d="M2322.8,529.174a1.064,1.064,0,0,1,1.057,1.408,1.923,1.923,0,0,1-1.759,1.408,1.064,1.064,0,0,1-1.057-1.408A1.924,1.924,0,0,1,2322.8,529.174Z" transform="translate(-1887.005 -146.234)" fill="#e9f3fe"/><path d="M2283.885,530.582a1.924,1.924,0,0,1,1.759-1.408,1.064,1.064,0,0,1,1.057,1.408,1.923,1.923,0,0,1-1.759,1.408A1.064,1.064,0,0,1,2283.885,530.582Z" transform="translate(-1854.89 -146.234)" fill="#e9f3fe"/><g transform="translate(154.307 443.164)"><rect width="33.969" height="33.969" transform="translate(44.443 33.969) rotate(180)" fill="#4a75cb"/><rect width="33.969" height="33.969" transform="translate(33.969 33.969) rotate(180)" fill="#699dee"/></g><g transform="translate(404.264 499.139)"><rect width="33.969" height="33.969" transform="translate(44.443 33.969) rotate(180)" fill="#82b479"/><rect width="33.969" height="33.969" transform="translate(33.969 33.969) rotate(180)" fill="#a8d29f"/></g><g transform="translate(159.245 477.133)"><g transform="translate(0)"><rect width="56.248" height="56.248" fill="#82b479"/><rect width="56.248" height="56.248" transform="translate(17.343)" fill="#a8d29f"/></g></g><path d="M312.22,1223.8l-17.343,8.446V1223.8Z" transform="translate(-135.632 -746.67)" fill="#609154"/><path d="M373.1,1442.361H348.5l2.342-30.17h18.269Z" transform="translate(-181.987 -909.512)" fill="#686868"/><path d="M340.279,1442.361H315.686l2.342-30.17h19.908Z" transform="translate(-153.62 -909.512)" fill="#d6d6d6"/><path d="M377.772,1430.282a4.66,4.66,0,0,1-4.655-4.655.586.586,0,1,1,1.171,0,3.484,3.484,0,0,0,6.968,0,.586.586,0,0,1,1.171,0A4.66,4.66,0,0,1,377.772,1430.282Z" transform="translate(-203.263 -920.621)" fill="#686868"/><path d="M2046.061,1442.361h-24.593l2.342-30.17h18.269Z" transform="translate(-1628.096 -909.512)" fill="#4a75cb"/><path d="M2013.244,1442.361h-24.593l2.342-30.17H2010.9Z" transform="translate(-1599.728 -909.512)" fill="#699dee"/><path d="M2050.737,1430.282a4.66,4.66,0,0,1-4.655-4.655.585.585,0,1,1,1.171,0,3.484,3.484,0,0,0,6.968,0,.586.586,0,0,1,1.171,0A4.661,4.661,0,0,1,2050.737,1430.282Z" transform="translate(-1649.371 -920.621)" fill="#1c468a"/><path d="M2130.885,1137.457h31.793l-3.028-39h-23.618Z" transform="translate(-1722.675 -638.318)" fill="#aa413e"/><path d="M2173.311,1137.457H2205.1l-4.968-39h-23.8Z" transform="translate(-1759.348 -638.318)" fill="#c65447"/><path d="M2251.875,1122.763a5.853,5.853,0,0,1-5.847-5.846.586.586,0,0,1,1.171,0,4.676,4.676,0,1,0,9.351,0,.585.585,0,0,1,1.171,0A5.853,5.853,0,0,1,2251.875,1122.763Z" transform="translate(-1822.205 -653.772)" fill="#a52020"/><path d="M1162.331,700.891h-45.048l20.26-73.158h45.172Z" transform="translate(-846.519 -231.429)" fill="#fff"/><path d="M1255.478,709.46a3.389,3.389,0,0,0,.856,2.848c1.185,1.175-4.4,5.921-6.528,13.849-2.117,7.87-6.856,24.944-11.142,30.6a3.226,3.226,0,0,1,3.434-.82c2.551.609,7.064,1.462,9.093-.142,1.42-1.123,3.965.072,5.365.89-1.087-5.731,3.629-22.695,5.875-30.532,2.272-7.928-.672-12.673,1.166-13.849a6.291,6.291,0,0,0,2.438-2.848,31.934,31.934,0,0,0,3.23-1.311,7.208,7.208,0,0,0-.178-3.822,4.554,4.554,0,0,1-3.431,1.628,9.369,9.369,0,0,0-4.328,1.447,5.3,5.3,0,0,0-3.524-1.447c-2.276-.09-2.526-1.628-2.526-1.628s-1.975,2.239-2.3,3.822A16.874,16.874,0,0,0,1255.478,709.46Z" transform="translate(-951.44 -297.636)" fill="#c65447"/><path d="M1572.476,911.248h-13.1l5.893-21.281h13.14Z" transform="translate(-1228.66 -458.103)" fill="#fff"/><path d="M1599.572,913.741a.987.987,0,0,0,.249.829c.345.342-1.278,1.722-1.9,4.028-.616,2.289-1.994,7.256-3.241,8.9a.939.939,0,0,1,1-.239c.742.177,2.055.425,2.645-.041.413-.327,1.154.021,1.561.259-.316-1.667,1.056-6.6,1.709-8.882.661-2.306-.2-3.687.339-4.028a1.831,1.831,0,0,0,.709-.829,9.262,9.262,0,0,0,.939-.381,2.1,2.1,0,0,0-.052-1.112,1.325,1.325,0,0,1-1,.474,2.728,2.728,0,0,0-1.259.421,1.542,1.542,0,0,0-1.025-.421c-.662-.026-.735-.474-.735-.474a3.389,3.389,0,0,0-.669,1.112A4.9,4.9,0,0,0,1599.572,913.741Z" transform="translate(-1259.181 -477.362)" fill="#d6d6d6"/><path d="M1716.988,911.3h-13.1l5.894-21.281h13.14Z" transform="translate(-1353.576 -458.148)" fill="#fff"/><path d="M1744.084,913.793a.986.986,0,0,0,.249.829c.345.342-1.279,1.722-1.9,4.028-.616,2.29-1.994,7.256-3.241,8.9a.938.938,0,0,1,1-.239c.742.177,2.055.425,2.645-.042.413-.326,1.154.021,1.561.259-.316-1.667,1.055-6.6,1.709-8.882.661-2.306-.2-3.687.339-4.028a1.831,1.831,0,0,0,.709-.829,9.258,9.258,0,0,0,.939-.381,2.1,2.1,0,0,0-.052-1.112,1.325,1.325,0,0,1-1,.474,2.727,2.727,0,0,0-1.259.421,1.543,1.543,0,0,0-1.025-.421c-.662-.026-.735-.474-.735-.474a3.392,3.392,0,0,0-.67,1.112A4.906,4.906,0,0,0,1744.084,913.793Z" transform="translate(-1384.097 -477.407)" fill="#a8d29f"/><path d="M1864.955,915.331h-13.1l5.893-21.281h13.14Z" transform="translate(-1481.478 -461.632)" fill="#fff"/><path d="M1892.051,917.823a.986.986,0,0,0,.249.829c.345.342-1.278,1.722-1.9,4.029-.616,2.289-1.994,7.256-3.241,8.9a.939.939,0,0,1,1-.238c.742.177,2.055.425,2.645-.042.413-.327,1.154.021,1.561.259-.316-1.667,1.056-6.6,1.709-8.882.661-2.306-.2-3.687.339-4.029a1.83,1.83,0,0,0,.709-.829,9.263,9.263,0,0,0,.939-.381,2.094,2.094,0,0,0-.052-1.112,1.324,1.324,0,0,1-1,.474,2.723,2.723,0,0,0-1.259.421,1.542,1.542,0,0,0-1.025-.421c-.662-.026-.735-.474-.735-.474a3.392,3.392,0,0,0-.669,1.112A4.9,4.9,0,0,0,1892.051,917.823Z" transform="translate(-1511.999 -480.891)" fill="#d6d6d6"/><path d="M1666.577,787.616h-31.041a3.488,3.488,0,0,1-3.354-4.444h0a3.488,3.488,0,0,1,3.354-2.531h31.041a3.488,3.488,0,0,1,3.354,4.444h0A3.488,3.488,0,0,1,1666.577,787.616Z" transform="translate(-1291.479 -363.601)" fill="#c65447"/><path d="M1741.72,638.554h-79.776l1.167-3.865h79.776Z" transform="translate(-1317.323 -237.441)" fill="#afcdfb"/><path d="M1726.368,686.916h-79.776l1.167-3.865h79.776Z" transform="translate(-1304.053 -279.245)" fill="#afcdfb"/></g></g></svg>