<svg xmlns="http://www.w3.org/2000/svg" width="36.706" height="36.706" viewBox="0 0 36.706 36.706">
  <g id="justice" transform="translate(0)">
    <path id="Path_491" data-name="Path 491" d="M22.117,21.113a3.768,3.768,0,0,0,3.764,3.764h7.062a3.768,3.768,0,0,0,3.764-3.764.538.538,0,0,0-.053-.232L30.173,7.336a1.611,1.611,0,0,0,.439-2.5,1.612,1.612,0,0,0-1.2-2.688H21.753a3.763,3.763,0,0,0-6.8,0H7.295a1.612,1.612,0,0,0-1.2,2.688,1.611,1.611,0,0,0,.439,2.5L.053,20.881A.538.538,0,0,0,0,21.113a3.768,3.768,0,0,0,3.764,3.764h7.062a3.768,3.768,0,0,0,3.764-3.764.538.538,0,0,0-.053-.232L8.056,7.336a1.612,1.612,0,0,0,.759-1.959h6.138a3.778,3.778,0,0,0,.711,1.017V8.7a1.613,1.613,0,0,0,0,3.041V25.952H11.9a1.613,1.613,0,0,0-.538,3.134v1.167H7.295a.538.538,0,0,0-.447.239L5.293,32.824a1.469,1.469,0,0,1-1.224.655A2.691,2.691,0,0,0,1.38,36.168a.538.538,0,0,0,.538.538h32.87a.538.538,0,0,0,.538-.538,2.691,2.691,0,0,0-2.688-2.688,1.469,1.469,0,0,1-1.224-.655l-1.554-2.331a.538.538,0,0,0-.447-.239H25.343V29.086a1.613,1.613,0,0,0-.538-3.134H21.041V11.737a1.613,1.613,0,0,0,0-3.041v-2.3a3.781,3.781,0,0,0,.711-1.017h6.138a1.612,1.612,0,0,0,.759,1.959l-6.48,13.545a.538.538,0,0,0-.053.232ZM32.942,23.8H25.881a2.693,2.693,0,0,1-2.634-2.151H35.576A2.693,2.693,0,0,1,32.942,23.8Zm-9.434-3.226,5.9-12.34,5.9,12.34ZM7.295,8.236l5.9,12.34H1.391ZM10.825,23.8H3.764A2.693,2.693,0,0,1,1.13,21.651H13.459A2.693,2.693,0,0,1,10.825,23.8ZM7.832,5.915a.538.538,0,1,1-.538-.538A.538.538,0,0,1,7.832,5.915ZM7.295,4.3a.538.538,0,0,1,0-1.075h7.334a3.726,3.726,0,0,0,0,1.075ZM16.74,8.6V7.164a3.757,3.757,0,0,0,3.226,0V8.6ZM34.158,35.631H2.548a1.616,1.616,0,0,1,1.521-1.075H32.637A1.616,1.616,0,0,1,34.158,35.631Zm-3.64-2.21c.013.02.028.039.042.059H6.146c.014-.02.029-.039.042-.059l1.395-2.092H29.124Zm-5.175-5.856a.538.538,0,0,1-.538.538H14.051a.538.538,0,1,0,0,1.075H24.267v1.075H12.438V28.641A.538.538,0,0,0,11.9,28.1a.538.538,0,0,1,0-1.075h12.9A.538.538,0,0,1,25.343,27.565Zm-8.6-1.613V11.829h3.226V25.952Zm3.764-15.2H16.2a.538.538,0,1,1,0-1.075h4.3a.538.538,0,0,1,0,1.075Zm-2.151-4.3a2.688,2.688,0,1,1,2.688-2.688A2.691,2.691,0,0,1,18.353,6.452Zm3.725-3.226h7.334a.538.538,0,0,1,0,1.075H22.078a3.726,3.726,0,0,0,0-1.075Zm7.871,2.688a.538.538,0,1,1-.538-.538A.538.538,0,0,1,29.949,5.915Z" transform="translate(0 0)" fill="#0088c4"/>
    <path id="Path_492" data-name="Path 492" d="M235.113,30a1.613,1.613,0,1,0,1.613,1.613A1.615,1.615,0,0,0,235.113,30Zm0,2.151a.538.538,0,1,1,.538-.538A.538.538,0,0,1,235.113,32.151Z" transform="translate(-216.76 -27.849)" fill="#0088c4"/>
  </g>
</svg>
