<svg xmlns="http://www.w3.org/2000/svg" width="74.667" height="70" viewBox="0 0 74.667 70">
  <g id="key" transform="translate(0 -16)">
    <g id="Group_1218" data-name="Group 1218" transform="translate(29.196 24.167)">
      <g id="Group_1217" data-name="Group 1217" transform="translate(0 0)">
        <path id="Path_460" data-name="Path 460" d="M201.372,72h-.013a1.173,1.173,0,1,0,.013,0Z" transform="translate(-200.2 -72)" fill="#fff"/>
      </g>
    </g>
    <g id="Group_1220" data-name="Group 1220" transform="translate(5.862 79)">
      <g id="Group_1219" data-name="Group 1219">
        <path id="Path_461" data-name="Path 461" d="M41.373,448H41.36a1.173,1.173,0,1,0,.013,0Z" transform="translate(-40.2 -448)" fill="#fff"/>
      </g>
    </g>
    <g id="Group_1222" data-name="Group 1222" transform="translate(67.667 58)">
      <g id="Group_1221" data-name="Group 1221" transform="translate(0 0)">
        <path id="Path_462" data-name="Path 462" d="M465.167,304a1.167,1.167,0,0,0,0,2.333,3.5,3.5,0,0,1,1.75,6.533,1.167,1.167,0,0,0,.586,2.176,1.154,1.154,0,0,0,.583-.158A5.834,5.834,0,0,0,465.167,304Z" transform="translate(-464 -304)" fill="#fff"/>
      </g>
    </g>
    <g id="Group_1224" data-name="Group 1224" transform="translate(38.499 66.709)">
      <g id="Group_1223" data-name="Group 1223" transform="translate(0 0)">
        <path id="Path_463" data-name="Path 463" d="M297.689,364.333a1.167,1.167,0,0,0-1.58-.475l-31.5,16.959a1.166,1.166,0,0,0,1.1,2.054l31.5-16.959A1.167,1.167,0,0,0,297.689,364.333Z" transform="translate(-263.995 -363.719)" fill="#fff"/>
      </g>
    </g>
    <g id="Group_1226" data-name="Group 1226" transform="translate(11.667 80.166)">
      <g id="Group_1225" data-name="Group 1225">
        <path id="Path_464" data-name="Path 464" d="M108.152,459.506l-26.833-3.5a1.166,1.166,0,0,0-.3,2.312l26.833,3.5a1.119,1.119,0,0,0,.152.01,1.166,1.166,0,0,0,.149-2.323Z" transform="translate(-80.001 -455.995)" fill="#fff"/>
      </g>
    </g>
    <g id="Group_1228" data-name="Group 1228" transform="translate(0 51)">
      <g id="Group_1227" data-name="Group 1227">
        <path id="Path_465" data-name="Path 465" d="M12.833,256H1.167A1.166,1.166,0,0,0,0,257.167v31.5a1.166,1.166,0,0,0,1.167,1.167H12.833A1.166,1.166,0,0,0,14,288.667v-31.5A1.166,1.166,0,0,0,12.833,256Zm-1.167,31.5H2.333V258.333h9.333Z" transform="translate(0 -256)" fill="#fff"/>
      </g>
    </g>
    <g id="Group_1230" data-name="Group 1230" transform="translate(44.334 58.07)">
      <g id="Group_1229" data-name="Group 1229" transform="translate(0 0)">
        <path id="Path_466" data-name="Path 466" d="M328.86,305.469a1.169,1.169,0,0,0-1.329-.978L305,307.921a1.167,1.167,0,0,0,.174,2.32,1.143,1.143,0,0,0,.177-.014l22.536-3.43A1.166,1.166,0,0,0,328.86,305.469Z" transform="translate(-304.004 -304.478)" fill="#fff"/>
      </g>
    </g>
    <g id="Group_1232" data-name="Group 1232" transform="translate(39.667 56.904)">
      <g id="Group_1231" data-name="Group 1231" transform="translate(0 0)">
        <path id="Path_467" data-name="Path 467" d="M274.167,296.5a1.166,1.166,0,1,0-.4,2.3,3.5,3.5,0,0,1-.6,6.948,1.167,1.167,0,1,0,0,2.333,5.833,5.833,0,0,0,1-11.579Z" transform="translate(-272 -296.484)" fill="#fff"/>
      </g>
    </g>
    <g id="Group_1234" data-name="Group 1234" transform="translate(22.166 53.331)">
      <g id="Group_1233" data-name="Group 1233">
        <path id="Path_468" data-name="Path 468" d="M171.687,275.58l-18.3-3.57a1.167,1.167,0,0,0-.447,2.29l18.3,3.57a1.13,1.13,0,0,0,.224.022,1.167,1.167,0,0,0,.223-2.312Z" transform="translate(-151.994 -271.987)" fill="#fff"/>
      </g>
    </g>
    <g id="Group_1236" data-name="Group 1236" transform="translate(11.667 53.333)">
      <g id="Group_1235" data-name="Group 1235">
        <path id="Path_469" data-name="Path 469" d="M91.667,272h-10.5a1.167,1.167,0,1,0,0,2.333h10.5a1.167,1.167,0,0,0,0-2.333Z" transform="translate(-80 -272)" fill="#fff"/>
      </g>
    </g>
    <g id="Group_1238" data-name="Group 1238" transform="translate(24.5 64.998)">
      <g id="Group_1237" data-name="Group 1237" transform="translate(0 0)">
        <path id="Path_470" data-name="Path 470" d="M183.931,353.132l-14.675-1.141a1.167,1.167,0,1,0-.18,2.326l14.675,1.141q.045,0,.091,0a1.167,1.167,0,0,0,.089-2.33Z" transform="translate(-167.999 -351.985)" fill="#fff"/>
      </g>
    </g>
    <g id="Group_1240" data-name="Group 1240" transform="translate(66.869 58)">
      <g id="Group_1239" data-name="Group 1239" transform="translate(0 0)">
        <path id="Path_471" data-name="Path 471" d="M460.494,304a5.759,5.759,0,0,0-1,.085,1.166,1.166,0,0,0,.2,2.316,1.14,1.14,0,0,0,.2-.017,3.628,3.628,0,0,1,.6-.05,1.167,1.167,0,0,0,0-2.333Z" transform="translate(-458.53 -304)" fill="#fff"/>
      </g>
    </g>
    <g id="Group_1242" data-name="Group 1242" transform="translate(39.178 66.139)">
      <g id="Group_1241" data-name="Group 1241">
        <path id="Path_472" data-name="Path 472" d="M270.306,359.837a3.435,3.435,0,0,1-.365-.02,1.167,1.167,0,0,0-.246,2.321,5.858,5.858,0,0,0,.611.033,1.167,1.167,0,1,0,0-2.333Z" transform="translate(-268.651 -359.809)" fill="#fff"/>
      </g>
    </g>
    <g id="Group_1244" data-name="Group 1244" transform="translate(21.002 16)">
      <g id="Group_1243" data-name="Group 1243">
        <path id="Path_473" data-name="Path 473" d="M165.922,19.759a12.831,12.831,0,1,0,3.759,9.073A12.746,12.746,0,0,0,165.922,19.759Zm-1.65,16.5a10.5,10.5,0,1,1,3.075-7.425A10.431,10.431,0,0,1,164.273,36.257Z" transform="translate(-144.016 -16)" fill="#fff"/>
      </g>
    </g>
    <g id="Group_1246" data-name="Group 1246" transform="translate(35.751 38.918)">
      <g id="Group_1245" data-name="Group 1245">
        <path id="Path_474" data-name="Path 474" d="M259.224,185.574l-1.992-1.992v-1.85a1.166,1.166,0,0,0-1.167-1.167H254.9V179.4a1.166,1.166,0,0,0-1.167-1.167h-1.85l-4.74-4.74a1.166,1.166,0,0,0-1.65,1.65l5.082,5.082a1.161,1.161,0,0,0,.825.342h1.167v1.167a1.166,1.166,0,0,0,1.167,1.167H254.9v1.167a1.162,1.162,0,0,0,.342.825l2.333,2.333a1.167,1.167,0,0,0,1.65-1.65Z" transform="translate(-245.15 -173.15)" fill="#fff"/>
      </g>
    </g>
    <g id="Group_1248" data-name="Group 1248" transform="translate(43.936 30.688)">
      <g id="Group_1247" data-name="Group 1247">
        <path id="Path_475" data-name="Path 475" d="M315.336,129.207l-12.063-12.145a1.167,1.167,0,0,0-1.657,1.645l12.063,12.145a1.167,1.167,0,0,0,1.657-1.645Z" transform="translate(-301.277 -116.717)" fill="#fff"/>
      </g>
    </g>
    <g id="Group_1250" data-name="Group 1250" transform="translate(47.833 51)">
      <g id="Group_1249" data-name="Group 1249">
        <path id="Path_476" data-name="Path 476" d="M337.333,256h-8.167a1.167,1.167,0,0,0,0,2.333h8.167a1.167,1.167,0,0,0,0-2.333Z" transform="translate(-328 -256)" fill="#fff"/>
      </g>
    </g>
    <g id="Group_1252" data-name="Group 1252" transform="translate(56 42.833)">
      <g id="Group_1251" data-name="Group 1251">
        <path id="Path_477" data-name="Path 477" d="M385.167,200A1.166,1.166,0,0,0,384,201.167v8.167a1.167,1.167,0,1,0,2.333,0v-8.167A1.166,1.166,0,0,0,385.167,200Z" transform="translate(-384 -200)" fill="#fff"/>
      </g>
    </g>
  </g>
</svg>
