<svg xmlns="http://www.w3.org/2000/svg" xmlns:xlink="http://www.w3.org/1999/xlink" width="225.355" height="256.404" viewBox="0 0 225.355 256.404"><defs><linearGradient id="a" x1="0.5" y1="1" x2="0.5" gradientUnits="objectBoundingBox"><stop offset="0" stop-color="#cca4ff"/><stop offset="1" stop-color="#f1e6ff"/></linearGradient><linearGradient id="b" x1="0.5" y1="1" x2="0.5" gradientUnits="objectBoundingBox"><stop offset="0" stop-color="#bb85ff"/><stop offset="1" stop-color="#e4cfff"/></linearGradient></defs><g transform="translate(-31)"><g transform="translate(66.556 30.047)"><path d="M224.193,60H102V256.309H224.193A7.512,7.512,0,0,0,231.7,248.8V67.512A7.512,7.512,0,0,0,224.193,60Z" transform="translate(-102 -60)" fill="url(#a)"/></g><g transform="translate(31 0)"><g transform="translate(0)"><path d="M248.843,105.667H211.284V98.155a7.512,7.512,0,0,0-11.678-6.25l-45.071,30.047a7.512,7.512,0,0,0,0,12.5L199.606,164.5a7.512,7.512,0,0,0,11.678-6.25v-7.512h37.559a7.512,7.512,0,0,0,7.512-7.512V113.178a7.512,7.512,0,0,0-7.512-7.512ZM133.046,1.418A7.51,7.51,0,0,0,126.279.386L36.137,30.433A7.512,7.512,0,0,0,31,37.559V218.845a7.511,7.511,0,0,0,5.137,7.126l90.142,30.047a7.512,7.512,0,0,0,9.887-7.126V7.512a7.512,7.512,0,0,0-3.119-6.094Zm-34.44,134.3a7.512,7.512,0,1,1,7.512-7.512A7.512,7.512,0,0,1,98.607,135.714Z" transform="translate(-31 0)" fill="url(#b)"/></g></g></g></svg>