<svg id="meh" xmlns="http://www.w3.org/2000/svg" width="96.049" height="96.049" viewBox="0 0 96.049 96.049">
  <g id="Group_2862" data-name="Group 2862">
    <g id="Group_2861" data-name="Group 2861">
      <path id="Path_2945" data-name="Path 2945" d="M48.025,0A48.025,48.025,0,1,0,96.049,48.025,48.08,48.08,0,0,0,48.025,0Zm0,91.873A43.849,43.849,0,1,1,91.873,48.025,43.9,43.9,0,0,1,48.025,91.873Z"/>
      <path id="Path_2946" data-name="Path 2946" d="M102.264,140.528A6.264,6.264,0,1,0,96,134.264,6.272,6.272,0,0,0,102.264,140.528Zm0-8.352a2.088,2.088,0,1,1-2.088,2.088A2.091,2.091,0,0,1,102.264,132.176Z" transform="translate(-70.944 -94.592)"/>
      <path id="Path_2947" data-name="Path 2947" d="M230.264,128a6.264,6.264,0,1,0,6.264,6.264A6.272,6.272,0,0,0,230.264,128Zm0,8.352a2.088,2.088,0,1,1,2.088-2.088A2.091,2.091,0,0,1,230.264,136.352Z" transform="translate(-165.535 -94.592)"/>
      <path id="Path_2948" data-name="Path 2948" d="M139.849,224H98.088a2.088,2.088,0,1,0,0,4.176h41.761a2.088,2.088,0,1,0,0-4.176Z" transform="translate(-70.944 -165.535)"/>
    </g>
  </g>
</svg>
