<svg xmlns="http://www.w3.org/2000/svg" width="63.256" height="83.044" viewBox="0 0 63.256 83.044">
  <g id="google-docs" transform="translate(-61)">
    <path id="Path_1720" data-name="Path 1720" d="M68.3,83.044h48.658a7.307,7.307,0,0,0,7.3-7.3V24.329h-17.03a7.307,7.307,0,0,1-7.3-7.3V0H68.3A7.307,7.307,0,0,0,61,7.3V75.745A7.307,7.307,0,0,0,68.3,83.044ZM78.03,34.223h29.2a2.433,2.433,0,1,1,0,4.866H78.03a2.433,2.433,0,1,1,0-4.866Zm0,9.732h29.2a2.433,2.433,0,1,1,0,4.866H78.03a2.433,2.433,0,1,1,0-4.866Zm0,9.732h29.2a2.433,2.433,0,1,1,0,4.866H78.03a2.433,2.433,0,1,1,0-4.866Zm0,9.732H97.494a2.433,2.433,0,0,1,0,4.866H78.03a2.433,2.433,0,1,1,0-4.866Z" transform="translate(0)" fill="#fff"/>
    <path id="Path_1721" data-name="Path 1721" d="M333.433,26.827h15.6L331,8.789v15.6A2.435,2.435,0,0,0,333.433,26.827Z" transform="translate(-226.207 -7.363)" fill="#fff"/>
  </g>
</svg>
