<svg xmlns="http://www.w3.org/2000/svg" width="80.006" height="71.115" viewBox="0 0 80.006 71.115">
  <path id="Icon_awesome-hand-holding-heart" data-name="Icon awesome-hand-holding-heart" d="M38.237,34.794a2.42,2.42,0,0,0,3.542,0L56.9,18.932a11.513,11.513,0,0,0-.778-16.5A10.558,10.558,0,0,0,41.556,3.5L40,5.127,38.459,3.515a10.546,10.546,0,0,0-14.57-1.083,11.525,11.525,0,0,0-.778,16.5ZM78.515,45.572a4.6,4.6,0,0,0-5.917,0L59.765,55.836a8.843,8.843,0,0,1-5.556,1.944H37.778a2.222,2.222,0,1,1,0-4.445H48.654a4.624,4.624,0,0,0,4.625-3.695,4.45,4.45,0,0,0-4.389-5.195H26.667A16.347,16.347,0,0,0,16.375,48.1L9.917,53.336H2.222A2.229,2.229,0,0,0,0,55.558V68.892a2.229,2.229,0,0,0,2.222,2.222H51.779a8.9,8.9,0,0,0,5.556-1.944l21-16.806A4.442,4.442,0,0,0,78.515,45.572Z" transform="translate(0 0.001)" fill="#fff"/>
</svg>
