<svg xmlns="http://www.w3.org/2000/svg" width="109.86" height="87.673" viewBox="0 0 109.86 87.673">
  <g id="Group_2097" data-name="Group 2097" transform="translate(-288 -8122.772)">
    <path id="Subtraction_13" data-name="Subtraction 13" d="M-4820.033,558.229h-83.334A6.64,6.64,0,0,1-4910,551.6V498.63a6.639,6.639,0,0,1,6.633-6.631h51.816c-.01.347-.015.65-.015.956a28.836,28.836,0,0,0,1.9,10.339c0,.006,0,.009,0,.011.011.031.023.063.036.094a29.237,29.237,0,0,0,27.085,18.585,28.908,28.908,0,0,0,9.136-1.473V551.6A6.638,6.638,0,0,1-4820.033,558.229Zm-80.02-11.607a1.661,1.661,0,0,0-1.658,1.66,1.659,1.659,0,0,0,1.658,1.657h76.7a1.659,1.659,0,0,0,1.658-1.657,1.661,1.661,0,0,0-1.658-1.66Zm0-6.629a1.659,1.659,0,0,0-1.658,1.657,1.659,1.659,0,0,0,1.658,1.657h76.7a1.659,1.659,0,0,0,1.658-1.657,1.659,1.659,0,0,0-1.658-1.657Zm43.1-6.632a1.661,1.661,0,0,0-1.659,1.659,1.66,1.66,0,0,0,1.659,1.657h33.6a1.659,1.659,0,0,0,1.658-1.657,1.66,1.66,0,0,0-1.658-1.659Zm-26.567-24.785a8.018,8.018,0,0,0-8.008,8.008,8.017,8.017,0,0,0,8.008,8.007l0,0a11.885,11.885,0,0,0-11.72,10.171,6.672,6.672,0,0,0,1.818.254h19.812a6.665,6.665,0,0,0,1.817-.254,11.889,11.889,0,0,0-11.724-10.173,7.96,7.96,0,0,0,5.661-2.349,7.952,7.952,0,0,0,2.347-5.658A8.017,8.017,0,0,0-4883.516,508.576Zm26.567,18.155a1.66,1.66,0,0,0-1.659,1.657,1.659,1.659,0,0,0,1.659,1.656h33.6a1.659,1.659,0,0,0,1.658-1.656,1.659,1.659,0,0,0-1.658-1.657Z" transform="translate(5198 7652.216)" fill="#fff"/>
    <path id="Subtraction_10" data-name="Subtraction 10" d="M-5234.036-7585.976a22.247,22.247,0,0,1-15.836-6.561,22.251,22.251,0,0,1-6.56-15.838,22.251,22.251,0,0,1,6.56-15.837,22.247,22.247,0,0,1,15.836-6.561,22.249,22.249,0,0,1,15.838,6.561,22.249,22.249,0,0,1,6.561,15.837,22.249,22.249,0,0,1-6.561,15.838A22.249,22.249,0,0,1-5234.036-7585.976Zm-9.445-21.666a1.646,1.646,0,0,0-1.172.485,1.649,1.649,0,0,0-.485,1.173,1.647,1.647,0,0,0,.485,1.173l4.462,4.462a3.709,3.709,0,0,0,2.637,1.089,3.7,3.7,0,0,0,2.635-1.089l11.5-11.5a1.647,1.647,0,0,0,.486-1.172,1.648,1.648,0,0,0-.486-1.172,1.651,1.651,0,0,0-1.174-.485,1.646,1.646,0,0,0-1.172.485l-11.5,11.5a.408.408,0,0,1-.291.121.416.416,0,0,1-.293-.121l-4.462-4.462A1.646,1.646,0,0,0-5243.481-7607.642Z" transform="translate(5609.497 15753.545)" fill="#fff"/>
  </g>
</svg>
