<svg xmlns="http://www.w3.org/2000/svg" width="136" height="136" viewBox="0 0 136 136"><g transform="translate(-16 -16)"><path d="M22.044,131.083A9.083,9.083,0,0,1,16,122.533V36.4h4.533v86.133a4.543,4.543,0,0,0,3.022,4.276ZM88.533,16H25.067A9.077,9.077,0,0,0,16,25.067v6.8h4.533v-6.8a4.539,4.539,0,0,1,4.533-4.533H88.533a4.543,4.543,0,0,1,4.276,3.022l4.274-1.511A9.083,9.083,0,0,0,88.533,16ZM104.4,52.267V36.4a4.539,4.539,0,0,0-4.533-4.533h-47.6V43.2A9.077,9.077,0,0,1,43.2,52.267H31.867v81.6A4.539,4.539,0,0,0,36.4,138.4H72.667v4.533H36.4a9.077,9.077,0,0,1-9.067-9.067V50A2.267,2.267,0,0,1,28,48.4L48.4,28a2.267,2.267,0,0,1,1.6-.664H99.867a9.077,9.077,0,0,1,9.067,9.067V52.267ZM47.733,35.072,35.072,47.733H43.2A4.539,4.539,0,0,0,47.733,43.2ZM56.8,61.333v6.8H86.267v4.533H56.8v6.8H77.2V84H56.8v6.8H77.2v4.533H56.8v6.8H77.2v4.533H56.8v6.8H77.2V118H56.8v6.8H68.133v4.533H45.467a6.808,6.808,0,0,1-6.8-6.8V63.6a6.808,6.808,0,0,1,6.8-6.8H90.8v4.533ZM52.267,118H43.2v4.533a2.269,2.269,0,0,0,2.267,2.267h6.8Zm0-11.333H43.2v6.8h9.067Zm0-11.333H43.2v6.8h9.067Zm0-11.333H43.2v6.8h9.067Zm0-11.333H43.2v6.8h9.067Zm0-11.333h-6.8A2.269,2.269,0,0,0,43.2,63.6v4.533h9.067Zm4.533-13.6v4.533H77.2V47.733Zm40.8-9.067H56.8V43.2H97.6Zm16.448,49.867h-.582V86.267h-4.533v2.267h-.582a6.219,6.219,0,0,0-1.966,12.118l8.2,2.732a1.685,1.685,0,0,1-.533,3.284h-5.7a1.687,1.687,0,0,1-1.685-1.685V104.4h-4.533v.582a6.226,6.226,0,0,0,6.218,6.218h.582v2.267h4.533V111.2h.582a6.219,6.219,0,0,0,1.966-12.118l-8.2-2.732a1.685,1.685,0,0,1,.533-3.284h5.7a1.687,1.687,0,0,1,1.685,1.685v.582h4.533v-.582a6.226,6.226,0,0,0-6.218-6.218Zm-21.726-3.4L96.245,87.4a6.865,6.865,0,0,1,2.493-2.493l-2.273-3.922A11.4,11.4,0,0,0,92.323,85.13Zm-1.523,17h4.533V90.8H90.8Zm52.3-19.555,4.206-1.691a27.592,27.592,0,0,0-12.379-14.315l-2.116,4.009a23.066,23.066,0,0,1,10.288,12ZM152,124.8v24.933A2.267,2.267,0,0,1,149.733,152h-20.4v-4.533H138.4V126.013l-1.893-1.262a13.718,13.718,0,0,0-16.9,1.652,2.267,2.267,0,0,1-1.6.664H98.733a3.448,3.448,0,0,0-3.4,3.4,3.345,3.345,0,0,0,.289,1.37,3.464,3.464,0,0,0,3.111,2.03h17V138.4h-17a7.134,7.134,0,0,1-2.349-.356,7.886,7.886,0,0,1-4.649-3.849l-7.491-6.243c-1-1-2.908-1.094-4.193-.791a3.867,3.867,0,0,0-1.373,6.75c4.1,3.19,12.5,9.712,16.209,12.6a4.54,4.54,0,0,0,2.778.953H124.8V152H97.665a9.1,9.1,0,0,1-5.564-1.909c-3.713-2.89-12.1-9.411-16.207-12.6a8.337,8.337,0,0,1-3.228-6.626v-.1a8.19,8.19,0,0,1,4.87-7.513,10.222,10.222,0,0,1,2.674-4.664,5.21,5.21,0,0,0,1.523-3.675V90.8A20.432,20.432,0,0,1,99.065,70.631L95.45,59.784A2.267,2.267,0,0,1,97.6,56.8h27.2a2.267,2.267,0,0,1,2.15,2.984l-3.615,10.845A20.4,20.4,0,0,1,140.667,90.8v24.109a5.233,5.233,0,0,0,1.523,3.675,10.238,10.238,0,0,1,2.228,3.333c.085.2.161.409.232.616h5.084A2.267,2.267,0,0,1,152,124.8ZM100.745,61.333l3.022,9.067h14.866l3.022-9.067Zm36.944,58.841a9.8,9.8,0,0,1-1.555-5.266V90.8a15.862,15.862,0,0,0-15.867-15.867H102.133A15.884,15.884,0,0,0,86.267,90.8v24.109a9.747,9.747,0,0,1-2.851,6.881,5.728,5.728,0,0,0-.662.8,8.18,8.18,0,0,1,.825.138l.042.009a8.351,8.351,0,0,1,3.526,1.733l4.094,3.412a7.924,7.924,0,0,1,7.493-5.348H117.1A17.883,17.883,0,0,1,128.945,118h.235A17.68,17.68,0,0,1,137.689,120.175Zm9.778,6.892h-4.533v20.4h4.533Z" fill="#bb85ff"/></g></svg>