<svg xmlns="http://www.w3.org/2000/svg" width="695.12" height="250.452" viewBox="0 0 695.12 250.452"><g transform="translate(-1139.268 -147.972)"><path d="M442.7,89.623a31.531,31.531,0,0,0-11.842,6.85l-7.078-4.085-.067-.037a3.96,3.96,0,0,0-5.341,1.484l-.031.057-5.443,9.429a3.96,3.96,0,0,0,1.447,5.405l.057.029,7.016,4.052q-.334,1.49-.519,3.017a31.585,31.585,0,0,0,0,7.653q.187,1.528.519,3.017l-7.073,4.084h0a3.96,3.96,0,0,0-1.447,5.405l5.427,9.4a.945.945,0,0,0,.088.155,3.967,3.967,0,0,0,5.291,1.422,1.153,1.153,0,0,0,.158-.094l6.994-4.039a31.569,31.569,0,0,0,5.556,4.084,31.215,31.215,0,0,0,6.288,2.767v8.164a3.972,3.972,0,0,0,3.962,3.961H457.61a3.969,3.969,0,0,0,3.961-3.961v-8.164a31.178,31.178,0,0,0,6.288-2.767,31.579,31.579,0,0,0,5.557-4.084l7,4.04a.969.969,0,0,0,.177.1,3.963,3.963,0,0,0,5.269-1.43.957.957,0,0,0,.088-.155l5.426-9.4h0a3.961,3.961,0,0,0-1.45-5.41l-7.069-4.081q.331-1.488.519-3.019a31.8,31.8,0,0,0,0-7.654q-.187-1.525-.519-3.016l7.069-4.081a3.96,3.96,0,0,0,1.45-5.408l-.031-.054L485.9,93.834h0a3.958,3.958,0,0,0-5.4-1.447h0l-7.076,4.085a31.47,31.47,0,0,0-11.844-6.85V81.461A3.969,3.969,0,0,0,457.61,77.5H446.662a3.972,3.972,0,0,0-3.962,3.961v8.162Zm-32.32,65.88a16.056,16.056,0,0,0-5.407,3.128l-3.18-1.835a2.469,2.469,0,0,0-3.377.909l-2.71,4.694a2.471,2.471,0,0,0,.907,3.371l.057.032,3.118,1.8q-.116.582-.189,1.174a16.14,16.14,0,0,0,0,3.905q.072.59.189,1.175l-3.172,1.831L410.379,155.5Zm-1.828,3.063a13.874,13.874,0,0,1,3.087-1.317,1.023,1.023,0,0,0,.786-1v-4.413a.436.436,0,0,1,.1-.277l.026-.026a.434.434,0,0,1,.3-.127h5.416a.428.428,0,0,1,.3.127h0a.431.431,0,0,1,.126.3v4.413a1.026,1.026,0,0,0,.743.983,13.933,13.933,0,0,1,5.841,3.368,1.023,1.023,0,0,0,1.242.168l3.826-2.21h0a.449.449,0,0,1,.591.16l2.708,4.69a.435.435,0,0,1,.038.331.423.423,0,0,1-.2.262v0l-3.765,2.173a1.022,1.022,0,0,0-.54,1.159,13.984,13.984,0,0,1,.309,1.677,14.187,14.187,0,0,1,0,3.428,13.906,13.906,0,0,1-.309,1.675h0a1.021,1.021,0,0,0,.481,1.127l3.823,2.208a.419.419,0,0,1,.195.262.435.435,0,0,1-.038.331l-2.708,4.691a.437.437,0,0,1-.263.2.445.445,0,0,1-.3-.025l-3.854-2.224a1.018,1.018,0,0,0-1.219.148,14.143,14.143,0,0,1-2.732,2.059,13.929,13.929,0,0,1-3.089,1.317,1.025,1.025,0,0,0-.787,1v4.413a.427.427,0,0,1-.127.3.422.422,0,0,1-.3.127h-5.416a.435.435,0,0,1-.275-.1l-.028-.029a.427.427,0,0,1-.127-.3v-4.413a1.024,1.024,0,0,0-.743-.983,13.91,13.91,0,0,1-3.13-1.33,14.106,14.106,0,0,1-2.733-2.059h0a1.019,1.019,0,0,0-1.215-.148l-3.828,2.208a.443.443,0,0,1-.593-.155l-2.709-4.69a.441.441,0,0,1,.161-.594h0l3.764-2.174a1.02,1.02,0,0,0,.54-1.16,14.211,14.211,0,0,1-.307-1.675,14.38,14.38,0,0,1,0-3.427,14.262,14.262,0,0,1,.307-1.678h0a1.015,1.015,0,0,0-.483-1.127l-3.737-2.158a.9.9,0,0,0-.114-.069.445.445,0,0,1-.167-.243.454.454,0,0,1,.018-.285,1.186,1.186,0,0,0,.07-.127l2.66-4.608a.426.426,0,0,1,.263-.2.431.431,0,0,1,.329.038l3.772,2.179a1.023,1.023,0,0,0,1.272-.116,14.059,14.059,0,0,1,2.732-2.06Zm-11.94,17.122L410.379,155.5v-3.664a2.462,2.462,0,0,1,.661-1.678c.02-.023.041-.048.064-.073a2.48,2.48,0,0,1,1.75-.726h5.416a2.481,2.481,0,0,1,1.751.726v0h0a2.473,2.473,0,0,1,.727,1.747V155.5a15.96,15.96,0,0,1,2.85,1.295,16.242,16.242,0,0,1,2.555,1.832l3.177-1.833h0a2.469,2.469,0,0,1,3.377.909l2.707,4.69a2.469,2.469,0,0,1-.9,3.376h0L431.34,167.6q.116.582.187,1.174a16.152,16.152,0,0,1,0,3.907c-.047.392-.11.784-.187,1.174l3.171,1.831a2.466,2.466,0,0,1,.907,3.376l-2.707,4.691a2.47,2.47,0,0,1-3.305.947.736.736,0,0,1-.075-.04l-3.177-1.833a16.163,16.163,0,0,1-5.405,3.128v3.663a2.481,2.481,0,0,1-2.479,2.476h-5.416a2.453,2.453,0,0,1-1.677-.66c-.025-.02-.048-.042-.073-.066a2.468,2.468,0,0,1-.726-1.75v-3.663a16.121,16.121,0,0,1-5.407-3.13l-3.18,1.835a2.471,2.471,0,0,1-3.377-.907l-2.713-4.7a2.473,2.473,0,0,1,.909-3.365Zm0,0v0Zm18.951-13.714a8.753,8.753,0,1,1-6.188,2.564,8.729,8.729,0,0,1,6.188-2.564Zm-4.739,4.012a6.7,6.7,0,1,1-1.964,4.741,6.676,6.676,0,0,1,1.964-4.741Zm41.312-27.68a18.657,18.657,0,1,1,13.193-5.465,18.6,18.6,0,0,1-13.193,5.465Zm-14.279-4.378a20.2,20.2,0,1,1,14.279,5.912,20.138,20.138,0,0,1-14.279-5.912Zm-.421-39.773a29.262,29.262,0,0,1,6.525-2.779,1.022,1.022,0,0,0,.786-1V81.461a1.923,1.923,0,0,1,1.915-1.915H457.61a1.923,1.923,0,0,1,1.915,1.915v8.923a1.022,1.022,0,0,0,.743.983,29.382,29.382,0,0,1,12.268,7.084,1.021,1.021,0,0,0,1.242.17l7.736-4.466v0a1.93,1.93,0,0,1,2.618.705h0l5.442,9.428.031.057a1.932,1.932,0,0,1-.7,2.618l-7.672,4.429a1.022,1.022,0,0,0-.54,1.16,29.672,29.672,0,0,1,0,14.207h0a1.02,1.02,0,0,0,.483,1.128l7.727,4.46a1.934,1.934,0,0,1,.7,2.619h0l-5.443,9.431-.034.053a1.931,1.931,0,0,1-2.619.7l-7.682-4.435a1.021,1.021,0,0,0-1.27.117,29.35,29.35,0,0,1-12.249,7.092,1.022,1.022,0,0,0-.786,1v8.923a1.923,1.923,0,0,1-1.915,1.914H446.662a1.923,1.923,0,0,1-1.915-1.914v-8.923a1.026,1.026,0,0,0-.745-.983,29.229,29.229,0,0,1-6.567-2.79,29.6,29.6,0,0,1-5.723-4.315h0a1.019,1.019,0,0,0-1.214-.149l-7.682,4.435-.057.031a1.93,1.93,0,0,1-2.618-.7h0l-5.473-9.479a1.936,1.936,0,0,1,.7-2.624h0l7.669-4.429a1.021,1.021,0,0,0,.54-1.159,29.6,29.6,0,0,1,0-14.207h0a1.013,1.013,0,0,0-.481-1.125l-7.672-4.431-.053-.032a1.933,1.933,0,0,1-.7-2.622l5.44-9.426.034-.053a1.933,1.933,0,0,1,2.577-.729l.041.026,7.735,4.466a1.022,1.022,0,0,0,1.22-.148,29.5,29.5,0,0,1,5.724-4.315Zm14.7,8.847a16.646,16.646,0,1,1-11.772,4.876A16.591,16.591,0,0,1,452.136,103Zm-10.325,6.323a14.6,14.6,0,1,1-4.276,10.325A14.556,14.556,0,0,1,441.811,109.327Z" transform="translate(1830.5 -200.753) rotate(90)" fill="#d1d4eb" fill-rule="evenodd" opacity="0.7"/><path d="M600.249,372.83a1.554,1.554,0,0,1-2.2-2.2l8.716-8.719-8.716-8.716a1.554,1.554,0,1,1,2.2-2.2l9.815,9.815a1.549,1.549,0,0,1,0,2.2l-9.815,9.818ZM584.923,353.2l8.713,8.716-8.713,8.719a1.554,1.554,0,0,0,2.2,2.2l9.815-9.818a1.554,1.554,0,0,0,0-2.2L587.12,351a1.554,1.554,0,1,0-2.2,2.2Zm54.718,19.633a1.554,1.554,0,0,1-2.2-2.2l8.713-8.719-8.713-8.716a1.554,1.554,0,1,1,2.2-2.2l9.815,9.815a1.549,1.549,0,0,1,0,2.2l-9.815,9.818Zm-13.129,0,9.815-9.818a1.56,1.56,0,0,0,0-2.2L626.512,351a1.555,1.555,0,1,0-2.2,2.2l8.716,8.716-8.716,8.719a1.555,1.555,0,0,0,2.2,2.2Zm-13.131,0,9.812-9.818a1.549,1.549,0,0,0,0-2.2L613.381,351a1.555,1.555,0,1,0-2.2,2.2l8.719,8.716-8.719,8.719a1.555,1.555,0,0,0,2.2,2.2Z" transform="translate(588.988 -169.753)" fill="#bb85ff" fill-rule="evenodd" opacity="0.7"/><path d="M511.037,227.883a1.549,1.549,0,1,1,.112,3.1c-2.8.1-4.27-1.619-5.777-3.392-1.071-1.258-2.178-2.559-3.82-2.559s-2.743,1.3-3.817,2.559c-1.5,1.762-2.953,3.47-5.721,3.395-2.766.076-4.222-1.633-5.718-3.395-1.074-1.258-2.178-2.559-3.82-2.559s-2.746,1.3-3.817,2.559c-1.5,1.762-2.953,3.47-5.721,3.395-2.768.076-4.222-1.633-5.719-3.395-1.074-1.258-2.181-2.559-3.82-2.559s-2.746,1.3-3.82,2.559c-1.5,1.762-2.95,3.47-5.721,3.395-2.766.076-4.22-1.633-5.716-3.395-1.074-1.258-2.181-2.559-3.823-2.559s-2.743,1.3-3.817,2.559c-1.5,1.762-2.953,3.47-5.721,3.395-2.766.076-4.222-1.633-5.721-3.395-1.071-1.258-2.176-2.559-3.817-2.559s-2.743,1.3-3.817,2.559c-1.507,1.773-2.973,3.493-5.777,3.392a1.549,1.549,0,0,1,.109-3.1c1.314.045,2.3-1.11,3.311-2.3,1.535-1.8,3.118-3.66,6.174-3.66s4.639,1.86,6.174,3.66c1.009,1.188,1.994,2.341,3.3,2.3h.129c1.306.039,2.287-1.113,3.3-2.3,1.538-1.8,3.121-3.66,6.174-3.66s4.639,1.86,6.177,3.66c1.012,1.188,1.991,2.341,3.3,2.3h.129c1.309.039,2.287-1.113,3.3-2.3,1.532-1.8,3.118-3.66,6.174-3.66s4.639,1.86,6.177,3.66c1.007,1.188,1.988,2.341,3.3,2.3H473c1.309.039,2.29-1.113,3.3-2.3,1.535-1.8,3.118-3.66,6.174-3.66s4.639,1.86,6.177,3.66c1.01,1.188,1.991,2.341,3.3,2.3h.126c1.309.039,2.29-1.113,3.3-2.3,1.535-1.8,3.118-3.66,6.174-3.66s4.639,1.86,6.177,3.66C508.741,226.773,509.726,227.927,511.037,227.883Z" transform="translate(1155.061 114.205)" fill="#bb85ff" fill-rule="evenodd" opacity="0.7"/><path d="M102.921,303.111a8.686,8.686,0,0,1,6.157,2.553h.008a8.726,8.726,0,0,1,0,12.334l-.1.084a8.717,8.717,0,1,1-6.071-14.971Zm3.968,4.751a5.606,5.606,0,1,0-.067,8.009l.067-.073a5.617,5.617,0,0,0,0-7.936Z" transform="translate(1305.324 -125.954)" fill="#bb85ff" fill-rule="evenodd" opacity="0.7"/><path d="M99.989,212.462a1.556,1.556,0,1,1,3.112,0v5.014h5.011a1.553,1.553,0,1,1,0,3.107H103.1V225.6a1.556,1.556,0,1,1-3.112,0v-5.014H94.976a1.553,1.553,0,1,1,0-3.107h5.014Z" transform="translate(1149.926 33.415)" fill="#bb85ff" fill-rule="evenodd" opacity="0.7"/><path d="M593.426,301.265a1.555,1.555,0,1,1,3.109,0v5.014h5.011a1.555,1.555,0,1,1,0,3.109h-5.011V314.4a1.555,1.555,0,1,1-3.109,0v-5.011h-5.014a1.555,1.555,0,1,1,0-3.109h5.014Z" transform="translate(1231.285 -121.063)" fill="#bb85ff" fill-rule="evenodd" opacity="0.7"/><path d="M457.219,264.313a1.555,1.555,0,1,1,3.109,0v5.011h5.011a1.555,1.555,0,1,1,0,3.109h-5.011v5.014a1.555,1.555,0,0,1-3.109,0v-5.014h-5.014a1.555,1.555,0,0,1,0-3.109h5.014Z" transform="translate(688.617 73.56)" fill="#bb85ff" fill-rule="evenodd" opacity="0.7"/><path d="M348.691,237.436Zm4.927-18.755a9.478,9.478,0,1,1-2.774,6.7,9.449,9.449,0,0,1,2.774-6.7Zm2.047-9.39a16.564,16.564,0,0,0-3.714,1.58,16.756,16.756,0,0,0-3.258,2.455.585.585,0,0,1-.7.087l-4.4-2.545-.025-.014a1.1,1.1,0,0,0-.8-.092,1.08,1.08,0,0,0-.66.509l-.02.031-3.1,5.363a1.124,1.124,0,0,0-.106.831,1.108,1.108,0,0,0,.509.663l.031.02,4.365,2.519a.586.586,0,0,1,.277.643h0a16.5,16.5,0,0,0-.369,2,17.01,17.01,0,0,0,0,4.083,16.541,16.541,0,0,0,.369,2,.585.585,0,0,1-.308.66l-4.365,2.522h0a1.093,1.093,0,0,0-.509.663,1.126,1.126,0,0,0,.106.831l3.118,5.4,0,0a1.093,1.093,0,0,0,1.488.4l.034-.017L348,237.352a.585.585,0,0,1,.694.084,16.764,16.764,0,0,0,7,4.046.586.586,0,0,1,.422.559v5.078a1.073,1.073,0,0,0,.322.769,1.085,1.085,0,0,0,.769.322h6.233a1.1,1.1,0,0,0,1.088-1.091v-5.078a.585.585,0,0,1,.447-.568,16.654,16.654,0,0,0,3.716-1.583,16.843,16.843,0,0,0,3.258-2.455.579.579,0,0,1,.721-.064l4.373,2.522a1.068,1.068,0,0,0,.828.106,1.1,1.1,0,0,0,.663-.506l.02-.028,3.1-5.369h0a1.069,1.069,0,0,0,.106-.828,1.084,1.084,0,0,0-.5-.663l-4.4-2.539a.582.582,0,0,1-.271-.643h0a17.707,17.707,0,0,0,.366-2,16.993,16.993,0,0,0,0-4.083,17.657,17.657,0,0,0-.366-2,.577.577,0,0,1,.3-.663l4.368-2.519a1.1,1.1,0,0,0,.5-.663,1.067,1.067,0,0,0-.106-.828l-.017-.034-3.1-5.366v0a1.108,1.108,0,0,0-.663-.509,1.093,1.093,0,0,0-.828.106h0l-4.4,2.545a.583.583,0,0,1-.707-.1,16.691,16.691,0,0,0-6.982-4.032.581.581,0,0,1-.425-.559v-5.081a1.1,1.1,0,0,0-1.088-1.088H357.2a1.085,1.085,0,0,0-.769.322,1.067,1.067,0,0,0-.322.766v5.081A.59.59,0,0,1,355.665,209.291Z" transform="translate(1399.783 -54.583)" fill="#bb85ff" fill-rule="evenodd" opacity="0.44"/><path d="M544.839,370.469a36.073,36.073,0,0,1-13.6-7.867l-8.131,4.695-.077.04a4.555,4.555,0,0,1-6.137-1.7l-.035-.066L510.6,354.735a4.552,4.552,0,0,1,1.661-6.208l.067-.035,8.059-4.653q-.378-1.712-.593-3.468a36.273,36.273,0,0,1,0-8.791q.212-1.755.6-3.468l-8.126-4.69,0,0a4.553,4.553,0,0,1-1.661-6.208l6.235-10.8a1.272,1.272,0,0,1,.1-.18,4.55,4.55,0,0,1,6.077-1.631,1.247,1.247,0,0,1,.18.1l8.037,4.639a36.152,36.152,0,0,1,13.606-7.869V292.1a4.56,4.56,0,0,1,4.552-4.55h12.579a4.563,4.563,0,0,1,4.55,4.55v9.378a36.127,36.127,0,0,1,13.606,7.87l8.037-4.641a1.182,1.182,0,0,1,.205-.116,4.545,4.545,0,0,1,6.05,1.642,1.057,1.057,0,0,1,.1.178l6.235,10.8,0,0a4.549,4.549,0,0,1-1.666,6.213l-8.122,4.688q.381,1.712.6,3.468a36.281,36.281,0,0,1,0,8.791q-.212,1.755-.6,3.468l8.122,4.688a4.548,4.548,0,0,1,1.666,6.213l-.037.06-6.253,10.83,0,0a4.556,4.556,0,0,1-6.209,1.664l0,0v0l-8.131-4.695a36.255,36.255,0,0,1-6.383,4.69,35.885,35.885,0,0,1-7.221,3.177v9.378a4.563,4.563,0,0,1-4.55,4.55H549.391a4.56,4.56,0,0,1-4.552-4.55v-9.378ZM507.71,294.79a18.475,18.475,0,0,1-6.213-3.6l-3.653,2.108a2.834,2.834,0,0,1-3.876-1.042l-3.115-5.394a2.844,2.844,0,0,1,1.041-3.875l.066-.034,3.584-2.069c-.089-.445-.161-.9-.217-1.346a18.563,18.563,0,0,1,0-4.488c.056-.452.128-.9.217-1.348l-3.644-2.1L507.71,294.79Zm-2.1-3.52a16,16,0,0,0,3.55,1.513,1.179,1.179,0,0,1,.9,1.145V299a.492.492,0,0,0,.114.316l.032.03a.5.5,0,0,0,.348.146h6.221a.5.5,0,0,0,.348-.146l0,0a.5.5,0,0,0,.145-.35v-5.071a1.173,1.173,0,0,1,.854-1.13,15.95,15.95,0,0,0,3.6-1.528,16.162,16.162,0,0,0,3.115-2.342,1.177,1.177,0,0,1,1.427-.2l4.4,2.538,0,0a.5.5,0,0,0,.375.044.479.479,0,0,0,.3-.225l3.113-5.387a.507.507,0,0,0,.044-.38.5.5,0,0,0-.23-.3l0,0-4.323-2.5a1.176,1.176,0,0,1-.62-1.333,15.625,15.625,0,0,0,.353-1.926,16.508,16.508,0,0,0,0-3.935,15.71,15.71,0,0,0-.353-1.928h0a1.172,1.172,0,0,1,.555-1.294l4.391-2.535a.487.487,0,0,0,.225-.3.506.506,0,0,0-.044-.38l-3.113-5.387a.479.479,0,0,0-.3-.225.507.507,0,0,0-.345.025l-4.424,2.557a1.172,1.172,0,0,1-1.4-.17,16.269,16.269,0,0,0-3.142-2.365,15.929,15.929,0,0,0-3.545-1.513,1.177,1.177,0,0,1-.9-1.145V255.6a.484.484,0,0,0-.146-.346.5.5,0,0,0-.348-.146h-6.221a.5.5,0,0,0-.318.114l-.03.032a.484.484,0,0,0-.146.346v5.071a1.175,1.175,0,0,1-.856,1.13,16.092,16.092,0,0,0-6.736,3.893v0a1.17,1.17,0,0,1-1.4.172l-4.4-2.537a.492.492,0,0,0-.38-.045.476.476,0,0,0-.3.225l-3.111,5.387a.51.51,0,0,0,.183.682v0l4.323,2.5a1.172,1.172,0,0,1,.62,1.331,16.3,16.3,0,0,0,0,7.79l0,0a1.172,1.172,0,0,1-.553,1.294l-4.295,2.479a1.052,1.052,0,0,1-.131.081.5.5,0,0,0-.19.277.494.494,0,0,0,.019.326,1.171,1.171,0,0,1,.081.148L496,291.092a.476.476,0,0,0,.3.225.492.492,0,0,0,.38-.045l4.332-2.5a1.17,1.17,0,0,1,1.459.133,16.243,16.243,0,0,0,3.138,2.365ZM491.894,271.6,507.71,294.79V299a2.834,2.834,0,0,0,.76,1.926c.024.029.049.055.076.082a2.833,2.833,0,0,0,2.01.835h6.221a2.83,2.83,0,0,0,2.01-.835l0,0,0,0a2.829,2.829,0,0,0,.834-2V294.79A18.653,18.653,0,0,0,522.9,293.3a18.461,18.461,0,0,0,2.937-2.1l3.648,2.106,0,0,0,0a2.836,2.836,0,0,0,3.878-1.042l3.111-5.389a2.843,2.843,0,0,0-1.037-3.88l0,0-3.646-2.106c.086-.445.158-.9.215-1.346a18.568,18.568,0,0,0,0-4.488c-.057-.452-.129-.9-.217-1.348l3.644-2.1a2.838,2.838,0,0,0,1.042-3.88l-3.111-5.389a2.835,2.835,0,0,0-3.8-1.086c-.027.013-.057.027-.084.044l-3.648,2.106a18.387,18.387,0,0,0-2.937-2.1,18.657,18.657,0,0,0-3.276-1.489V255.6a2.849,2.849,0,0,0-2.844-2.844h-6.221a2.829,2.829,0,0,0-1.928.76c-.027.024-.055.047-.082.076a2.832,2.832,0,0,0-.835,2.009V259.8a18.473,18.473,0,0,0-6.213,3.6l-3.653-2.108a2.834,2.834,0,0,0-3.876,1.042l-3.118,5.4a2.84,2.84,0,0,0,1.044,3.866Zm0,0,0,0,0,0Zm21.77,15.751a10.052,10.052,0,1,0-7.107-2.943,10.027,10.027,0,0,0,7.107,2.943Zm-5.446-4.606a7.709,7.709,0,1,0-2.254-5.448,7.678,7.678,0,0,0,2.254,5.448Zm47.462,31.8a21.433,21.433,0,1,0,15.154,6.277,21.371,21.371,0,0,0-15.154-6.277Zm-16.4,5.029a23.193,23.193,0,1,0,16.4-6.794,23.118,23.118,0,0,0-16.4,6.794Zm-.484,45.69a33.613,33.613,0,0,0,7.494,3.19,1.175,1.175,0,0,1,.9,1.143v10.25a2.207,2.207,0,0,0,2.2,2.2h12.579a2.21,2.21,0,0,0,2.2-2.2V369.6a1.177,1.177,0,0,1,.854-1.13,33.575,33.575,0,0,0,7.542-3.2,33.977,33.977,0,0,0,6.552-4.934,1.175,1.175,0,0,1,1.427-.195l8.887,5.13,0,0a2.215,2.215,0,0,0,3.007-.809h0l6.25-10.829.035-.064a2.217,2.217,0,0,0-.8-3.009l-8.815-5.088a1.176,1.176,0,0,1-.62-1.333,33.827,33.827,0,0,0,.745-4.039,34.458,34.458,0,0,0,0-8.24,33.731,33.731,0,0,0-.745-4.041l0,0a1.173,1.173,0,0,1,.553-1.293l8.879-5.127a2.216,2.216,0,0,0,.8-3.007h0l-6.255-10.832-.037-.062a2.221,2.221,0,0,0-3.009-.809l-8.827,5.1a1.17,1.17,0,0,1-1.459-.133,33.874,33.874,0,0,0-6.576-4.955,33.474,33.474,0,0,0-7.5-3.192,1.175,1.175,0,0,1-.9-1.143V292.1a2.21,2.21,0,0,0-2.2-2.2H549.391a2.207,2.207,0,0,0-2.2,2.2v10.25a1.18,1.18,0,0,1-.856,1.131,33.425,33.425,0,0,0-7.542,3.206,33.833,33.833,0,0,0-6.578,4.955l0,0a1.17,1.17,0,0,1-1.394.171L522,306.72l-.067-.035a2.216,2.216,0,0,0-3.007.807l0,0-6.287,10.891a2.221,2.221,0,0,0,.807,3.012v0l8.812,5.087a1.174,1.174,0,0,1,.619,1.333,34.079,34.079,0,0,0,0,16.32h0a1.172,1.172,0,0,1-.553,1.3l-8.813,5.088-.062.037a2.221,2.221,0,0,0-.807,3.012l6.252,10.829.037.061a2.219,2.219,0,0,0,2.96.837l.047-.03,8.887-5.13a1.175,1.175,0,0,1,1.4.17,33.979,33.979,0,0,0,6.578,4.959ZM555.681,355.1a19.126,19.126,0,1,0-13.523-5.6,19.067,19.067,0,0,0,13.523,5.6Zm-11.861-7.265a16.775,16.775,0,1,0-4.912-11.859A16.725,16.725,0,0,0,543.82,347.834Z" transform="matrix(0.259, -0.966, 0.966, 0.259, 850.918, 772.698)" fill="#d1d4eb" fill-rule="evenodd" opacity="0.7"/><path d="M310.54,97.066a.886.886,0,0,1-1.253-1.253l4.97-4.969-4.97-4.97a.886.886,0,1,1,1.253-1.253l5.595,5.595a.885.885,0,0,1,0,1.254l-5.595,5.595ZM301.8,85.874l4.969,4.97L301.8,95.813a.886.886,0,0,0,1.253,1.253l5.595-5.595a.888.888,0,0,0,0-1.254l-5.595-5.595a.886.886,0,1,0-1.253,1.253Zm31.19,11.192a.886.886,0,1,1-1.253-1.253l4.969-4.969-4.969-4.97a.886.886,0,1,1,1.253-1.253l5.6,5.595a.885.885,0,0,1,0,1.254l-5.6,5.595Zm-7.484,0,5.6-5.595a.888.888,0,0,0,0-1.254l-5.6-5.595a.886.886,0,0,0-1.253,1.253l4.969,4.97-4.969,4.969a.886.886,0,0,0,1.253,1.253Zm-7.484,0,5.6-5.595a.891.891,0,0,0,0-1.254l-5.6-5.595a.886.886,0,1,0-1.253,1.253l4.969,4.97-4.969,4.969a.886.886,0,0,0,1.253,1.253Z" transform="translate(1265.846 85.998)" fill="#bb85ff" fill-rule="evenodd" opacity="0.7"/><path d="M380.931,113.208Zm13.956-32.977h-6.071a.481.481,0,0,0-.338.143l-.033.031a.49.49,0,0,0-.109.308v4.949a1.145,1.145,0,0,1-.881,1.113,15.7,15.7,0,0,0-6.524,3.786,1.147,1.147,0,0,1-1.423.131l-4.228-2.441a.5.5,0,0,0-.666.173l-2.981,5.165a1.073,1.073,0,0,1-.081.145.54.54,0,0,0-.02.319.5.5,0,0,0,.19.268,1.2,1.2,0,0,1,.126.081l4.192,2.419a1.139,1.139,0,0,1,.537,1.261h0a15.557,15.557,0,0,0-.344,1.882,16.132,16.132,0,0,0,0,3.839,14.893,14.893,0,0,0,.347,1.879,1.148,1.148,0,0,1-.607,1.3l-4.22,2.436v0a.486.486,0,0,0-.221.294.5.5,0,0,0,.045.372l3.034,5.257a.474.474,0,0,0,.294.218.494.494,0,0,0,.372-.042l4.287-2.478a1.149,1.149,0,0,1,1.365.165,15.637,15.637,0,0,0,6.568,3.8,1.147,1.147,0,0,1,.836,1.1v4.949a.48.48,0,0,0,.143.338l.031.034a.49.49,0,0,0,.308.109h6.071a.486.486,0,0,0,.338-.143.48.48,0,0,0,.143-.338v-4.949a1.145,1.145,0,0,1,.881-1.113,15.666,15.666,0,0,0,6.524-3.786,1.148,1.148,0,0,1,1.367-.165l4.315,2.492a.482.482,0,0,0,.341.028.474.474,0,0,0,.294-.218l3.034-5.257a.508.508,0,0,0,.045-.372.477.477,0,0,0-.218-.294l-4.287-2.475a1.144,1.144,0,0,1-.54-1.261l0,0a15.389,15.389,0,0,0,.347-1.879,16.115,16.115,0,0,0,0-3.839,15.535,15.535,0,0,0-.347-1.882,1.146,1.146,0,0,1,.607-1.3l4.22-2.436v0a.486.486,0,0,0,.221-.294.508.508,0,0,0-.045-.372l-3.034-5.257a.484.484,0,0,0-.294-.218.474.474,0,0,0-.369.045h0l-4.289,2.475a1.145,1.145,0,0,1-1.393-.19,15.835,15.835,0,0,0-3.037-2.282A15.633,15.633,0,0,0,396.2,86.76a1.14,1.14,0,0,1-.833-1.1V80.712a.5.5,0,0,0-.14-.341l0,0a.486.486,0,0,0-.338-.143Zm-9.969,14.717a9.806,9.806,0,1,1-2.875,6.938A9.765,9.765,0,0,1,384.919,94.948Z" transform="translate(1081.471 184.687)" fill="#bb85ff" fill-rule="evenodd" opacity="0.44"/><path d="M264.587,82.929a1.555,1.555,0,0,1,3.109,0V87.94h5.014a1.555,1.555,0,1,1,0,3.109H267.7v5.014a1.555,1.555,0,1,1-3.109,0V91.049h-5.011a1.555,1.555,0,1,1,0-3.109h5.011Z" transform="translate(1288.594 136.74)" fill="#bb85ff" fill-rule="evenodd" opacity="0.7"/></g></svg>