<svg xmlns="http://www.w3.org/2000/svg" width="1920" height="605" viewBox="0 0 1920 605">
  <g id="page-3-img" transform="translate(0 -134)">
    <rect id="Rectangle_2739" data-name="Rectangle 2739" width="1920" height="605" transform="translate(0 134)" fill="#f3e9ff"/>
    <g id="Group_4411" data-name="Group 4411" transform="translate(-396.06 -426.473)" opacity="0.14">
      <path id="Path_7019" data-name="Path 7019" d="M1494.857,912.073l3.537-26.349-19.7-17.852a3.655,3.655,0,0,1,1.8-6.3l26.155-4.778,10.889-24.253a3.653,3.653,0,0,1,6.548-.239l12.626,23.4,26.432,2.863a3.653,3.653,0,0,1,2.251,6.153l-18.351,19.239,5.446,26.023a3.654,3.654,0,0,1-5.158,4.042l-23.967-11.507-23.066,13.22A3.653,3.653,0,0,1,1494.857,912.073Z" fill="#ffd800"/>
      <path id="Path_7020" data-name="Path 7020" d="M963.453,695.312l-2.485,12.227-20.113-1.825-5.837,17.428-15.276,1.1.554,7.733,20.431-1.465,5.532-16.516,20.923,1.9,3.739-18.4Z" transform="translate(265 388)" fill="#748828"/>
      <path id="Path_7021" data-name="Path 7021" d="M1702.088,855.252l-2.485,12.227-20.114-1.825-5.837,17.428-15.275,1.1.554,7.733,20.431-1.465,5.533-16.516,20.923,1.9,3.739-18.4Z" transform="translate(-1146 -243)" fill="#748828"/>
      <g id="Group_4410" data-name="Group 4410">
        <path id="Path_7022" data-name="Path 7022" d="M791.393,935.374l11.82,3.726s18.58-6.293,20.367-10.12,2.186-13.063,4.837-13.35a8.042,8.042,0,0,1,9.1,6.809c.947,4.573-5.592,17.911-4.524,19.308.667.873,7.4,3.21,12.346,4.837a9.169,9.169,0,0,1,6.169,7.318l0,.011a5.051,5.051,0,0,1-3.083,5.468l-3.369,1.352,1.127,3.482a5.05,5.05,0,0,1-3.109,6.3l-2.608.913.865,2.118a5.047,5.047,0,0,1-3.17,6.717l-2.279.695.1.61a5.042,5.042,0,0,1-3.6,5.69l-2.265.626-31.48-9.93a22.358,22.358,0,0,1-8.006-4.508l-10.483-5.357a2.587,2.587,0,0,1-1.253-3.127l9.283-27.918A2.579,2.579,0,0,1,791.393,935.374Z" fill="#fff"/>
      </g>
      <path id="Path_7023" data-name="Path 7023" d="M691.957,810.753l-.238-19.434L707.593,780.1a2.671,2.671,0,0,0-.747-4.731L688.289,769.6l-5.76-18.562a2.67,2.67,0,0,0-4.73-.752l-11.23,15.863-19.434-.259a2.671,2.671,0,0,0-2.177,4.267l11.617,15.582-6.251,18.4a2.67,2.67,0,0,0,3.385,3.388l18.409-6.232,15.57,11.632A2.671,2.671,0,0,0,691.957,810.753Z" transform="translate(-106 152)" fill="#dc4437"/>
      <path id="Path_7024" data-name="Path 7024" d="M1445.805,702.7l8.682-11.041-4.172-13.412a1.93,1.93,0,0,1,2.509-2.385l13.184,4.846,11.465-8.113a1.931,1.931,0,0,1,3.045,1.649l-.536,14.036,11.259,8.4a1.931,1.931,0,0,1-.628,3.4l-13.513,3.828-4.508,13.3a1.931,1.931,0,0,1-3.432.455L1461.343,706l-14.046-.176A1.93,1.93,0,0,1,1445.805,702.7Z" transform="translate(9 65)" fill="#dc4437"/>
      <path id="Path_7025" data-name="Path 7025" d="M1637.612,1067.7l8.683-11.041-4.173-13.412a1.93,1.93,0,0,1,2.509-2.385l13.184,4.846,11.465-8.113a1.93,1.93,0,0,1,3.044,1.649l-.535,14.036,11.26,8.4a1.931,1.931,0,0,1-.629,3.405l-13.514,3.828-4.508,13.3a1.93,1.93,0,0,1-3.431.455L1653.15,1071l-14.046-.176A1.93,1.93,0,0,1,1637.612,1067.7Z" fill="#dc4437"/>
      <path id="Path_7026" data-name="Path 7026" d="M435.652,752.807l4.863-13.178-8.1-11.476a1.931,1.931,0,0,1,1.653-3.042l14.035.553,8.412-11.248a1.93,1.93,0,0,1,3.4.631l3.811,13.519,13.3,4.524a1.931,1.931,0,0,1,.451,3.433l-11.679,7.8-.194,14.045a1.93,1.93,0,0,1-3.125,1.489l-11.03-8.7-13.417,4.156A1.93,1.93,0,0,1,435.652,752.807Z" fill="#ffd800"/>
      <path id="Path_7027" data-name="Path 7027" d="M1183.751,784.336l8.048,6.73-9.4,14.144,10.553,11.292-5.3,11.735,5.94,2.684,7.093-15.695-10-10.7,9.778-14.715-12.11-10.127Z" fill="#fff"/>
      <path id="Path_7028" data-name="Path 7028" d="M1169.714,619.981l-15.432,10.364a2.741,2.741,0,0,0,.688,4.689L1173,642.377l5.587,19.554c.606,2.118,3.189,2.752,4.372,1.073l10.921-15.5,18.884,1.721c2.045.187,3.235-2.192,2.013-4.025l-11.278-16.923,6.086-18.489a2.741,2.741,0,0,0-3.126-3.562l-17.892,5.042-15.123-13.149a2.334,2.334,0,0,0-3.947,1.824Z" fill="#dc4437"/>
    </g>
    <g id="Group_4412" data-name="Group 4412" transform="translate(177.94 -369.473)" opacity="0.14">
      <path id="Path_7019-2" data-name="Path 7019" d="M1494.857,912.073l3.537-26.349-19.7-17.852a3.655,3.655,0,0,1,1.8-6.3l26.155-4.778,10.889-24.253a3.653,3.653,0,0,1,6.548-.239l12.626,23.4,26.432,2.863a3.653,3.653,0,0,1,2.251,6.153l-18.351,19.239,5.446,26.023a3.654,3.654,0,0,1-5.158,4.042l-23.967-11.507-23.066,13.22A3.653,3.653,0,0,1,1494.857,912.073Z" fill="#ffd800"/>
      <path id="Path_7020-2" data-name="Path 7020" d="M963.453,695.312l-2.485,12.227-20.113-1.825-5.837,17.428-15.276,1.1.554,7.733,20.431-1.465,5.532-16.516,20.923,1.9,3.739-18.4Z" transform="matrix(0.259, 0.966, -0.966, 0.259, 1685.985, -267.183)" fill="#748828"/>
      <path id="Path_7021-2" data-name="Path 7021" d="M1702.088,855.252l-2.485,12.227-20.114-1.825-5.837,17.428-15.275,1.1.554,7.733,20.431-1.465,5.533-16.516,20.923,1.9,3.739-18.4Z" transform="translate(-26 -276)" fill="#748828"/>
      <g id="Group_4410-2" data-name="Group 4410">
        <path id="Path_7022-2" data-name="Path 7022" d="M791.393,935.374l11.82,3.726s18.58-6.293,20.367-10.12,2.186-13.063,4.837-13.35a8.042,8.042,0,0,1,9.1,6.809c.947,4.573-5.592,17.911-4.524,19.308.667.873,7.4,3.21,12.346,4.837a9.169,9.169,0,0,1,6.169,7.318l0,.011a5.051,5.051,0,0,1-3.083,5.468l-3.369,1.352,1.127,3.482a5.05,5.05,0,0,1-3.109,6.3l-2.608.913.865,2.118a5.047,5.047,0,0,1-3.17,6.717l-2.279.695.1.61a5.042,5.042,0,0,1-3.6,5.69l-2.265.626-31.48-9.93a22.358,22.358,0,0,1-8.006-4.508l-10.483-5.357a2.587,2.587,0,0,1-1.253-3.127l9.283-27.918A2.579,2.579,0,0,1,791.393,935.374Z" fill="#fff"/>
      </g>
      <path id="Path_7023-2" data-name="Path 7023" d="M691.957,810.753l-.238-19.434L707.593,780.1a2.671,2.671,0,0,0-.747-4.731L688.289,769.6l-5.76-18.562a2.67,2.67,0,0,0-4.73-.752l-11.23,15.863-19.434-.259a2.671,2.671,0,0,0-2.177,4.267l11.617,15.582-6.251,18.4a2.67,2.67,0,0,0,3.385,3.388l18.409-6.232,15.57,11.632A2.671,2.671,0,0,0,691.957,810.753Z" fill="#dc4437"/>
      <path id="Path_7024-2" data-name="Path 7024" d="M1445.805,702.7l8.682-11.041-4.172-13.412a1.93,1.93,0,0,1,2.509-2.385l13.184,4.846,11.465-8.113a1.931,1.931,0,0,1,3.045,1.649l-.536,14.036,11.259,8.4a1.931,1.931,0,0,1-.628,3.4l-13.513,3.828-4.508,13.3a1.931,1.931,0,0,1-3.432.455L1461.343,706l-14.046-.176A1.93,1.93,0,0,1,1445.805,702.7Z" fill="#dc4437"/>
      <path id="Path_7025-2" data-name="Path 7025" d="M1637.612,1067.7l8.683-11.041-4.173-13.412a1.93,1.93,0,0,1,2.509-2.385l13.184,4.846,11.465-8.113a1.93,1.93,0,0,1,3.044,1.649l-.535,14.036,11.26,8.4a1.931,1.931,0,0,1-.629,3.405l-13.514,3.828-4.508,13.3a1.93,1.93,0,0,1-3.431.455L1653.15,1071l-14.046-.176A1.93,1.93,0,0,1,1637.612,1067.7Z" fill="#dc4437"/>
      <path id="Path_7026-2" data-name="Path 7026" d="M435.652,752.807l4.863-13.178-8.1-11.476a1.931,1.931,0,0,1,1.653-3.042l14.035.553,8.412-11.248a1.93,1.93,0,0,1,3.4.631l3.811,13.519,13.3,4.524a1.931,1.931,0,0,1,.451,3.433l-11.679,7.8-.194,14.045a1.93,1.93,0,0,1-3.125,1.489l-11.03-8.7-13.417,4.156A1.93,1.93,0,0,1,435.652,752.807Z" fill="#ffd800"/>
      <path id="Path_7027-2" data-name="Path 7027" d="M1183.751,784.336l8.048,6.73-9.4,14.144,10.553,11.292-5.3,11.735,5.94,2.684,7.093-15.695-10-10.7,9.778-14.715-12.11-10.127Z" fill="#fff"/>
      <path id="Path_7028-2" data-name="Path 7028" d="M1169.714,619.981l-15.432,10.364a2.741,2.741,0,0,0,.688,4.689L1173,642.377l5.587,19.554c.606,2.118,3.189,2.752,4.372,1.073l10.921-15.5,18.884,1.721c2.045.187,3.235-2.192,2.013-4.025l-11.278-16.923,6.086-18.489a2.741,2.741,0,0,0-3.126-3.562l-17.892,5.042-15.123-13.149a2.334,2.334,0,0,0-3.947,1.824Z" fill="#dc4437"/>
    </g>
    <path id="Path_6874" data-name="Path 6874" d="M913.862,551.418c-12.66,10.29-30.647,21.712-45.462,26.629l22.009,4.144L799.5,689.394,618.3,741.544,403.861,970.226l168.916-.058,86.068-138.184L831.281,729.536l66.97-142.716,14.267,17.27C909.666,588.744,910.974,567.477,913.862,551.418Z" transform="translate(910.129 -258.772)" fill="#dcdcdc"/>
    <g id="Group_4409" data-name="Group 4409" transform="translate(1045.344 480.041)">
      <path id="Path_6875" data-name="Path 6875" d="M238.919,1206.48s-9.821-17.6-12.21-21.346-8.614-18.612-8.836-19.2,4.287-7.623,3.28-7.864-2.12,3.71-3.194,3.238-4.21-9.984-4.823-9.512c-1.145.883,1.691,5.9,1.081,6.216s-2.459-5.52-3.658-5.349,2.28,5.35,1.944,5.807-3.946-4.421-4.6-3.381c-.355.564,3.32,4.258,2.614,4.6s-3.975-2.039-4.321-1.351,3.023,1.629,4.031,3.483,2.723,2.655,3.436,6.088,1.778,15.854,5.428,22.052,11.677,19.913,11.677,19.913Z" transform="translate(-206.172 -1151.782)" fill="#f79c8d"/>
      <path id="Path_6876" data-name="Path 6876" d="M285.391,1308.744s10.864,11.708,12.479,16.427-1.574,11.469-5.979,11.764-14.207-20.781-14.207-20.781Z" transform="translate(-255.362 -1259.751)" fill="#355389"/>
      <path id="Path_6877" data-name="Path 6877" d="M412.557,1469.741c-.791-.661-1.746-.362-4.491-1.631a16.792,16.792,0,0,0-2.555-.763.315.315,0,0,1-.241-.229c-.834-3.156-4.489-17.75-4.89-21.958-.41-4.3-3.186-22.548-3.609-25.322a.318.318,0,0,0-.4-.258L388.4,1421.8a.318.318,0,0,0-.225.377c.492,2.174,3.557,15.829,4.458,22.74.718,5.509,8.925,23.183,9.089,24.313l0,.032a.691.691,0,0,0,.685.592c2.025,0,8.516,0,8.886,0C411.632,1469.859,412.8,1469.948,412.557,1469.741Z" transform="translate(-331.358 -1335.983)" fill="#f48c7f"/>
      <path id="Path_6878" data-name="Path 6878" d="M389.623,1368.042c-4.243-12.872-8.988-12.323-8.988-12.323l3.669,27.061c2.62-.716,6.032-2.311,8.65-3.051A117.889,117.889,0,0,0,389.623,1368.042Z" transform="translate(-326.179 -1292.06)" fill="#13375b"/>
      <path id="Path_6879" data-name="Path 6879" d="M338.767,1262.064c-1.3-8.465-8.957-14.552-16.967-10.444a19,19,0,0,0-5.484,4.4c-3.364,4.317-4.224,9.649-7.7,13.841a34.285,34.285,0,0,0,4.658,2.958l2.163-2.885-.745,3.6c5.377,2.573,12.971,4.7,23.358,4.636A44.9,44.9,0,0,0,338.767,1262.064Z" transform="translate(-276.64 -1219.553)" fill="#f7cc7f"/>
      <path id="Path_6880" data-name="Path 6880" d="M369.155,1630.325a34.264,34.264,0,0,0-6.114-3.389c-.254-.124-1.182-.715-1.516-.919a11.793,11.793,0,0,1-2.432-2.154c-.7-.781-1.033-3.284-1.191-5.28.4-4.456,6.859-75.923,8.221-83.66,1.406-7.986-.735-20.167-.735-20.167l-4.985-1.88-9.463,32.8.746,24.966s-2.225,7.2-2.506,11.5,3.216,39.207,3.216,39.207h0a18.217,18.217,0,0,1-.188,3.083c-.257,1.306-1.687,3.993-1.031,5.222a3.3,3.3,0,0,0,1.406,1.536l17,.274C370.513,1631.473,369.9,1630.875,369.155,1630.325Z" transform="translate(-304.531 -1400.165)" fill="#f48c7f"/>
      <path id="Path_6881" data-name="Path 6881" d="M274.46,1504.6s-5.9,8.907-7.31,16.279,1.032,30.027-1.673,39.687c-1.464,5.23-7.012,13.305-7.856,20.063s-3.778,26.261-3.778,26.261h0c-.444,2.048-1.14,4.58-2.043,5.758a16.967,16.967,0,0,0-2.225,2.934c-1.032,2.027-.461,5.046.3,6.708.39.854-.028.851.862,1.126a5.458,5.458,0,0,0,6.556-3.085,15.688,15.688,0,0,0,1.286-5.67,26.462,26.462,0,0,1,.93-5.993h0l18.874-46.3,13.664-39.956,3.5-20.578Z" transform="translate(-235.643 -1392.571)" fill="#f79c8d"/>
      <path id="Path_6882" data-name="Path 6882" d="M256.531,1869.62a8.371,8.371,0,0,1-8.217-3.442c-1.038,2.031-1.545,5.062-.781,6.731.673,1.469,2.638,1.428,4.186,1.485a4.04,4.04,0,0,0,3.714-2.279A13.656,13.656,0,0,0,256.531,1869.62Z" transform="translate(-234.37 -1643.189)" fill="#86b1f2"/>
      <path id="Path_6883" data-name="Path 6883" d="M365.5,1874.5a15.359,15.359,0,0,1-9.681-.381c-.48,1.362-1.116,3.071-.778,4.056.413,1.206,1,1.479,1.52,1.493,4.107.108,15.046.255,18.178.3a.513.513,0,0,0,.4-.843C374.362,1878.2,365.837,1874.71,365.5,1874.5Z" transform="translate(-308.51 -1648.655)" fill="#86b1f2"/>
      <path id="Path_6884" data-name="Path 6884" d="M312.959,1563.4q.53.036,1.065.068l.055,0q.525.031,1.055.059l.064,0q.53.027,1.063.05l.055,0q.542.023,1.085.041a70.328,70.328,0,0,0,12.2-.462c1.629-16.3,2.235-31.181,2.838-34.474,1.462-7.986-1.274-20.592-1.274-20.592l-1.306-.234.826-4.668-21.929,2.765s-6.14,8.907-7.6,16.279,1.073,30.027-1.739,39.687C299.419,1561.924,305.68,1562.9,312.959,1563.4Z" transform="translate(-270.314 -1393.505)" fill="#f7cc7f"/>
      <path id="Path_6885" data-name="Path 6885" d="M320.491,1348.265s-7.818-.5-10.911,2.88,6.861,30.106,7.423,34.406-2.867,15.734-2.867,15.734,18.365,3.7,23.614.223c0,0,.562-30.922,0-33.994s-5.249-15.563-6.374-16.792S320.491,1348.265,320.491,1348.265Z" transform="translate(-276.894 -1286.918)" fill="#355389"/>
      <path id="Path_6886" data-name="Path 6886" d="M347.865,1314.395s-.041.231-.113.623c-.348,1.884-1.691,8.133-2.6,9.851-1.1,2.076,3.752,8.7,8.417,7.889,1.389-.24-1.174-6.084-1.051-6.7.236-1.185.556-2.8.883-4.459.185-.935.372-1.883.547-2.774.5-2.532.906-4.6.906-4.6Z" transform="translate(-301.665 -1263.517)" fill="#f7a491"/>
      <path id="Path_6887" data-name="Path 6887" d="M353.354,1315.018c.073-.392.113-.623.113-.623l6.991-.175s-.407,2.071-.906,4.6c-.174.886-.36,1.828-.544,2.758a6.546,6.546,0,0,1-3.338-1.677,8.836,8.836,0,0,1-2.528-3.769C353.228,1315.692,353.3,1315.31,353.354,1315.018Z" transform="translate(-307.267 -1263.517)" fill="#f47458"/>
      <path id="Path_6888" data-name="Path 6888" d="M352.369,1263.71a6.294,6.294,0,0,0-5.361,2.3c-2.066,2.677-4.292,10.958.839,15.46s10.2-.594,10.953-6S359.844,1263.516,352.369,1263.71Z" transform="translate(-301.463 -1228.76)" fill="#f7a491"/>
      <path id="Path_6889" data-name="Path 6889" d="M388.529,1294.663c-.612,1.193-1.641,1.854-2.3,1.476s-.691-1.652-.078-2.846,1.64-1.854,2.3-1.476S389.142,1293.47,388.529,1294.663Z" transform="translate(-329.675 -1248.034)" fill="#f7a491"/>
      <path id="Path_6890" data-name="Path 6890" d="M345.946,1260.731s-4.4,7.875-7.552,8.239-3.563,4.548-3.563,4.548,1.126-9.641,4.244-11.5A11.557,11.557,0,0,1,345.946,1260.731Z" transform="translate(-294.672 -1226.666)" fill="#f7cc7f"/>
      <path id="Path_6891" data-name="Path 6891" d="M341.632,1288.752c.256,1.4-.259,2.681-1.151,2.865s-1.822-.8-2.078-2.2.259-2.68,1.151-2.864S341.375,1287.353,341.632,1288.752Z" transform="translate(-297.083 -1244.47)" fill="#f7a491"/>
      <path id="Path_6892" data-name="Path 6892" d="M361.276,1309.92l4.764.937a2.122,2.122,0,0,1-2.573,1.436C360.9,1311.865,361.276,1309.92,361.276,1309.92Z" transform="translate(-312.849 -1260.559)" fill="#fff"/>
    </g>
    <g id="Group_4398" data-name="Group 4398" transform="translate(1528.057 545.143)">
      <rect id="Rectangle_2733" data-name="Rectangle 2733" width="1.988" height="45.557" transform="translate(98.542 166.418) rotate(169.264)" fill="#3c8f7c"/>
      <path id="Path_6893" data-name="Path 6893" d="M1323.975,1795.443h-2.35l8.756-45.342,1.954.37Z" transform="translate(-1317.77 -1628.446)" fill="#3c8f7c"/>
      <path id="Path_6894" data-name="Path 6894" d="M1543.725,1795.443h-2.35l8.756-45.342,1.953.37Z" transform="translate(-1468.928 -1628.446)" fill="#3c8f7c"/>
      <path id="Path_6895" data-name="Path 6895" d="M1379.137,1795.891l1.907.023-8.395-45.161-1.953.37Z" transform="translate(-1351.524 -1628.894)" fill="#184655"/>
      <path id="Path_6896" data-name="Path 6896" d="M1370.7,1434.717c10.429,1.117,23.926,2.295,37.474,25.288,14.809,25.13,7.013,62.668-4.675,73.1s-49.861,23.311-81.951,4.029c0,0-19.376-11.685-9.432-31.078,15.3-29.844,13.14-36.067,19.982-47.763S1348.558,1432.346,1370.7,1434.717Z" transform="translate(-1309.274 -1411.326)" fill="#f47458"/>
      <path id="Path_6897" data-name="Path 6897" d="M1422.043,1464.5c-9.248-15.694-18.47-21.224-26.711-23.509a68.981,68.981,0,0,1,9.653,13.03c14.809,25.13,7.014,62.668-4.675,73.1-10.365,9.251-41.559,20.423-70.867,9.387a29.777,29.777,0,0,0,5.975,5.121c32.089,19.282,70.263,6.4,81.951-4.029S1436.852,1489.63,1422.043,1464.5Z" transform="translate(-1323.147 -1415.822)" fill="#b75742"/>
      <path id="Path_6898" data-name="Path 6898" d="M1392.874,1557.662l-2.68,8.042,8.169-3.213Z" transform="translate(-1364.936 -1496.075)" fill="#f79c8d"/>
      <path id="Path_6899" data-name="Path 6899" d="M1401.346,1480.994c-.545.022-2.037.52-4.219,4.631-2.787,5.249-6.86,21.1-6.86,21.1l12.158,4.512,1.562-3.309,2.573-25.479S1401.5,1480.988,1401.346,1480.994Z" transform="translate(-1364.985 -1443.338)" fill="#6394db"/>
      <path id="Path_6900" data-name="Path 6900" d="M1440.134,1473.672c-3.476,0-12.079,1.016-16.071,2.287,0,0-2.933,25.125,2.641,44.216,1.248,4.274-1.032,17.715-1.032,17.715l36.026-.473s-4.268-32.5-2.66-37.746,1.646-23.543,1.646-23.543-.247-.038-8.094-1.39A81.809,81.809,0,0,0,1440.134,1473.672Z" transform="translate(-1387.702 -1438.301)" fill="#86b1f2"/>
      <path id="Path_6901" data-name="Path 6901" d="M1484.328,1828.8s-.8,9.167-2.262,11.707.077,6.855.154,7.447,3.085,1.438,7.867.931,4.7-1.608,4.319-3.385-2.93-4.062-3.084-5.754,1.465-7.786,1.465-7.786Z" transform="translate(-1427.698 -1682.584)" fill="#f7a491"/>
      <path id="Path_6902" data-name="Path 6902" d="M1371.977,1653.927s-24.869-1.376-30.422,1.976,1,10.235,1,10.235,20.246,8.773,54.141,10.722c8.026.462,8.718-20.857,7.217-22.622S1371.977,1653.927,1371.977,1653.927Z" transform="translate(-1329.943 -1561.905)" fill="#e5b05c"/>
      <path id="Path_6903" data-name="Path 6903" d="M1489.542,1876.613c4.924-.523,4.315-2.934,3.918-4.763-.249-1.146-1.661-2.5-2.5-3.775a8.21,8.21,0,0,1-3.295,1.6c-2.22.653-5.264-.64-7.2-1.45a23.615,23.615,0,0,0-.658,6.33C1479.879,1875.161,1484.618,1877.136,1489.542,1876.613Z" transform="translate(-1426.557 -1709.596)" fill="#f47458"/>
      <path id="Path_6904" data-name="Path 6904" d="M1489.322,1672.2c-.994,7.493-5.913,44.794-5.913,44.794l11.415,1.411s14.037-48.687,13.317-56.134-5.974-8.073-5.974-8.073S1491.952,1652.365,1489.322,1672.2Z" transform="translate(-1429.055 -1562.448)" fill="#f7cc7f"/>
      <path id="Path_6905" data-name="Path 6905" d="M1452.113,1490.4c-3.368-1.259-5.016,28.988-5.47,41.438-5.965.572-16.362,0-18.95-.189-1.218-.091-4.025-1.116-5.236-1.274a12.183,12.183,0,0,0-2.975-.14c-.224.039-6.442,2.573-6.974,3.128-.659.689-2.443,2.427-2.142,3.179s3.429-2.094,3.429-2.094l1.529-.855c-1.9,1.854-5.534,4.294-5.011,5.183.51.866,3.785-1.61,6.119-3.3-2,1.8-4.489,5.027-3.916,5.53.515.452,3.344-3.281,6.368-4.357,1.121-.4,2.237.705,3.118.838a6.375,6.375,0,0,0,2.284.127l3.274-.926c1.115.1,1.143.758,2.269,1,1.308.278,3.452.57,5.117.975,9.588,2.334,12.785,3.418,15.721,3.417C1459.558,1542.074,1460.074,1493.378,1452.113,1490.4Z" transform="translate(-1378.74 -1449.783)" fill="#f7a491"/>
      <path id="Path_6906" data-name="Path 6906" d="M1534.712,1512.57c.631-12.753.539-28.471-6.634-31.153-2.83-1.058-7.82,5.3-6.922,31.411C1524.985,1513.144,1530.607,1513.4,1534.712,1512.57Z" transform="translate(-1454.946 -1443.554)" fill="#86b1f2"/>
      <path id="Path_6907" data-name="Path 6907" d="M1357.639,1853.928s1,3.182-.788,5.287-9.194,4.169-10.167,5.309a3.189,3.189,0,0,0-.9,2.111l20.8-.57-.227-6.26-.958-4.5Z" transform="translate(-1334.388 -1699.865)" fill="#f7a491"/>
      <path id="Path_6908" data-name="Path 6908" d="M1348.485,1873.177s5.344,2.155,7.926.879,2.5-1.629,3.251-1.153,1.015,6.872,1.015,6.872l-23.389.157c-1.627-.038-2.45-1.232-1.128-2.254a19.111,19.111,0,0,1,2.55-1.511C1340.539,1875.121,1348.485,1873.177,1348.485,1873.177Z" transform="translate(-1327.315 -1712.778)" fill="#f47458"/>
      <path id="Path_6909" data-name="Path 6909" d="M1345.937,1660.925c-1.607-3.372-5.264-7.761-11.7-5.117-6.135,2.521-7.782,8.718-5.847,15.065s14.68,43.651,15.125,48.781l10.176.067s-1.849-29.539-2.3-36.679C1350.954,1676.172,1348.719,1666.761,1345.937,1660.925Z" transform="translate(-1321.897 -1563.028)" fill="#f7cc7f"/>
      <path id="Path_6910" data-name="Path 6910" d="M1328.474,1563.907h34.014a2.218,2.218,0,0,1,2.052,1.376l10.474,25.544h18.752a.949.949,0,0,1,.95.949h0a.949.949,0,0,1-.95.949H1340.4a3.725,3.725,0,0,1-3.4-2.2l-10.546-23.492A2.218,2.218,0,0,1,1328.474,1563.907Z" transform="translate(-1320.953 -1500.37)" fill="#355389"/>
      <path id="Path_6911" data-name="Path 6911" d="M1391.934,1606.111a1.872,1.872,0,1,0,1.4-2.441A2,2,0,0,0,1391.934,1606.111Z" transform="translate(-1366.1 -1527.7)" fill="#fff"/>
      <path id="Path_6912" data-name="Path 6912" d="M1468.935,1437.736l1.665,10.969s-6.078,13.06-9.706,11.928c-3.044-.95-1.171-12.507-1.171-12.507s1.659-6.206,1.161-9.312S1468.935,1437.736,1468.935,1437.736Z" transform="translate(-1412.37 -1413.135)" fill="#f7a491"/>
      <path id="Path_6913" data-name="Path 6913" d="M1464.231,1438.814c-.5-3.106,8.052-1.079,8.052-1.079l.138.91a5.051,5.051,0,0,1-.927,1.529,11.255,11.255,0,0,1-7.475,3.383A16.931,16.931,0,0,0,1464.231,1438.814Z" transform="translate(-1415.717 -1413.135)" fill="#f47458" opacity="0.2"/>
      <g id="Group_4397" data-name="Group 4397" transform="translate(43.37)">
        <path id="Path_6914" data-name="Path 6914" d="M1462.817,1381.9c.242-.088,1.937,12.493-1.28,15.955s-9.485,4.595-11.732,1.868c-2.487-3.015-2.362-16.537,2.64-20.1S1462.817,1381.9,1462.817,1381.9Z" transform="translate(-1448.219 -1372.818)" fill="#f7a491"/>
        <path id="Path_6915" data-name="Path 6915" d="M1458.284,1360.431a13.89,13.89,0,0,1,7.29,4.157c1.755.207,4.141,1.177,6.6,5.256,3.03,5.016.792,10.573-2.734,13.3s-3.477,5.876-3.477,5.876l-.557-1.629a9.089,9.089,0,0,1-.441-3.837,7.462,7.462,0,0,1,.57-2.307c.848-1.821-1.822-3.031-2.571-4.546-.576-1.167-.6-3.835-1.512-5.763l-1.085-1.472s-2.5-1.947-4.95-1.4S1453.324,1359.419,1458.284,1360.431Z" transform="translate(-1452.155 -1360.353)" fill="#f7cc7f"/>
        <path id="Path_6916" data-name="Path 6916" d="M1483.388,1413.837c-.026,1.534.672,2.792,1.558,2.806s1.625-1.217,1.651-2.752-.672-2.791-1.558-2.807S1483.413,1412.3,1483.388,1413.837Z" transform="translate(-1472.41 -1395.249)" fill="#f7a491"/>
      </g>
      <path id="Path_6917" data-name="Path 6917" d="M1458.789,1432.979l-4.849-.251a2.123,2.123,0,0,0,2.146,2.02C1458.682,1434.958,1458.789,1432.979,1458.789,1432.979Z" transform="translate(-1408.785 -1410.137)" fill="#fff"/>
    </g>
    <g id="Group_4399" data-name="Group 4399" transform="translate(1742.946 487.282)">
      <path id="Path_6918" data-name="Path 6918" d="M1778.378,1207.153c.529,2.174,1.483,5.609,1.483,5.609-.075.944-.354,4.875-.687,9.692l7.081-2.834s-.084-7.849.231-8.33c.267-.406.716.1,2.886-3.005a6.063,6.063,0,0,0,.744-2.5s.129-1.972-.314-2.155a.919.919,0,0,0-1.111.451c-.16.341-.119,1.135-.279,1.475a2.453,2.453,0,0,1-1.616.73c-.431-.021.054-5.832.054-5.832s.241-1.647.363-2.187c.1-.46.522-1.808.522-1.808s.491-1.956-.116-2.1c-.358-.088-1.27,1.5-1.9,3.187-.673,1.816-1.055,3.742-1.248,3.716-.452-.061-.212-3.246-.212-3.246a10.22,10.22,0,0,0,.439-2.148c.425-.844.707-2.409-.042-2.539a13,13,0,0,0-1.125,1.965s-.388,1.4-.615,2.054c-.4,1.154-.459,2.977-.667,3.781-.173.668-.329.393-.4.421a16.955,16.955,0,0,1,.152-2.168,12.841,12.841,0,0,1,.161-2.1,15.356,15.356,0,0,0,.3-2.219c.121-1.648-.917-1.479-1.275.027-.136.574-.28,1.2-.423,1.835-.557,2.47-.542,4.849-.808,4.87-.346.026-.118-4.308-.118-4.308s-.531-2.4-1.058-.172a19.383,19.383,0,0,0-.539,4.782A18.716,18.716,0,0,0,1778.378,1207.153Z" transform="translate(-1778.12 -1187.601)" fill="#f8a492"/>
      <path id="Path_6919" data-name="Path 6919" d="M1993.81,1188.807c-.529,2.174-1.483,5.609-1.483,5.609.075.944.354,4.875.687,9.692l-7.081-2.834s.085-7.85-.231-8.33c-.267-.406-.716.1-2.886-3.005a6.062,6.062,0,0,1-.743-2.5s-.129-1.972.313-2.155a.92.92,0,0,1,1.111.451c.16.341.119,1.134.279,1.475a2.453,2.453,0,0,0,1.616.73c.431-.021-.054-5.832-.054-5.832s-.24-1.648-.363-2.187c-.1-.459-.523-1.807-.523-1.807s-.491-1.955.116-2.1c.358-.088,1.271,1.5,1.9,3.187.673,1.816,1.055,3.742,1.248,3.716.452-.061.212-3.246.212-3.246a10.208,10.208,0,0,1-.439-2.148c-.426-.844-.708-2.409.041-2.539a12.99,12.99,0,0,1,1.126,1.965s.388,1.4.614,2.054c.4,1.155.46,2.977.668,3.781.173.668.33.394.4.422a16.875,16.875,0,0,0-.152-2.168,12.811,12.811,0,0,0-.161-2.1,15.294,15.294,0,0,1-.3-2.219c-.122-1.648.916-1.479,1.274.028.137.574.281,1.2.424,1.835.557,2.47.542,4.85.808,4.87.345.026.118-4.307.118-4.307s.531-2.4,1.057-.172a19.416,19.416,0,0,1,.54,4.782A18.719,18.719,0,0,1,1993.81,1188.807Z" transform="translate(-1918.399 -1174.981)" fill="#f8a492"/>
      <path id="Path_6920" data-name="Path 6920" d="M1945.085,1810.965s3.926,4.868,4.9,5.467-.437,7.67-3.1,8.135c-1.5.261-2.336-1.391-2.336-1.391l.431-2.037-5.609-5.779Z" transform="translate(-1889.041 -1612.452)" fill="#f7a491"/>
      <path id="Path_6921" data-name="Path 6921" d="M1879.156,1814.817s3.272,5.329,4.166,6.048-1.414,7.552-4.115,7.672c-1.523.067-2.139-1.678-2.139-1.678l.688-1.965-4.825-6.448Z" transform="translate(-1843.337 -1615.101)" fill="#f7a491"/>
      <path id="Path_6922" data-name="Path 6922" d="M1882.056,1833.523a41.342,41.342,0,0,1-2.905,3.351,34.642,34.642,0,0,1-3.019,2.435s-1.92,3.485-2.446,4.7c-1.168,2.707-2.48,5.724-2.291,7.239.061.487,1.154,1,2.065.722,3.792-1.166,13.489-10.036,14.713-12.417C1889.585,1836.808,1882.056,1833.523,1882.056,1833.523Z" transform="translate(-1842.268 -1627.968)" fill="#13375b"/>
      <path id="Path_6923" data-name="Path 6923" d="M1808.585,1567.406c.353-.986.69-1.9,1.016-2.755,4.034.881,8.589,1.848,13.276,2.847l.571,17.178c0-1.327-3.523,27.4-3.523,27.4s9.107,20.162,15.335,31.914a21.493,21.493,0,0,1-7.458,6.392c-9.668-11.591-22.322-32.8-22.847-36.326C1804.652,1612.025,1804.381,1579.234,1808.585,1567.406Z" transform="translate(-1796.474 -1443.021)" fill="#3c8f7c"/>
      <path id="Path_6924" data-name="Path 6924" d="M1884.415,1578.648c-1.233,13.385-3.972,38.974-3.743,41.032.688,2.565,12.876,26.245,15.07,29.692-1.742,2.623-4.44,5.459-7.339,6.242-.572.155-20.686-28.469-21.783-30.741-1.24-2.568-3.3-16.578-3.342-33.923l-.571-17.178C1870.514,1575.437,1877.694,1577.07,1884.415,1578.648Z" transform="translate(-1836.304 -1449.296)" fill="#50bfa5"/>
      <path id="Path_6925" data-name="Path 6925" d="M1821.183,1393.921l9.191,1.262s7.352.133,8.263.133,6.7,33.575,8.372,46.193.376,14.852.376,14.852-11.654,2.621-20.275,1.857c-8.965-.795-19.052-5.635-19.052-5.635s7.663-24.248,9.183-31.819S1821.183,1393.921,1821.183,1393.921Z" transform="translate(-1798.714 -1325.582)" fill="#355389"/>
      <path id="Path_6926" data-name="Path 6926" d="M1778.3,1260.884s-.59,25,.353,26.911c1.371,2.781,16.8,22.5,16.8,22.5s-7.373,30.854-10.473,41.508c-.312,1.073-1.694,8-1.694,8.68,0,1.5,6.522,3.4,7.3,3.287.693-.1,6.384-29.45,10.017-43.811a41.077,41.077,0,0,1,6.232-13.57l2.526-3.59-19.389-19.434s-2.39-21.632-2.39-23.425C1787.586,1259.474,1779.242,1259.121,1778.3,1260.884Z" transform="translate(-1778.12 -1233.161)" fill="#86b1f2"/>
      <path id="Path_6927" data-name="Path 6927" d="M1889.542,1287.385l24.179-24.636s3.369-23.3,3.608-24.174c.235-.862,6.24-1.328,8.659-1.564.777-.075-.406,24.813-1.563,28.985-1.367,4.929-19.643,27.384-19.643,27.384s-3.275,12.163-2.487,21.084c1.311,14.818,4.843,35.2,4.21,35.841-3.929,2.475-19.01,2.74-19.965,1.2C1876,1334.533,1889.542,1287.385,1889.542,1287.385Z" transform="translate(-1849.936 -1217.65)" fill="#86b1f2"/>
      <path id="Path_6928" data-name="Path 6928" d="M1954.16,1827.894a41.328,41.328,0,0,1-2.453,3.694,34.573,34.573,0,0,1-2.683,2.8s-1.459,3.7-1.824,4.975c-.813,2.834-1.731,6.255-1.35,7.734.122.475,1.167,1.382,2.029.82,3.325-2.165,12.209-12.306,13.119-14.825C1962.047,1830.19,1954.16,1827.894,1954.16,1827.894Z" transform="translate(-1893.434 -1624.096)" fill="#13375b"/>
      <path id="Path_6929" data-name="Path 6929" d="M1863.848,1295.191a24.692,24.692,0,0,0,3.083-.061,14.371,14.371,0,0,1,3.488,0c1.788.377,4.625,1.646,5.571,3.99,1.179,2.92,5.4,2.484.4,13.559-5.656,12.536-12.264,8.432-12.355,8.149s-3.267-10.618-3.267-10.618-3.954,3.92-3.888,3.747S1851.495,1294.745,1863.848,1295.191Z" transform="translate(-1831.51 -1257.554)" fill="#0e2e35"/>
      <path id="Path_6930" data-name="Path 6930" d="M1877.291,1366.359l-.659,4.9s-1.476,7.065.423,8.428,8.075-8.629,8.075-8.629l-.652-12.427Z" transform="translate(-1845.507 -1301.31)" fill="#f7a491"/>
      <path id="Path_6931" data-name="Path 6931" d="M1886.114,1362.662a14.071,14.071,0,0,1-7.956,7.855l.559-4.158,7.186-7.724Z" transform="translate(-1846.932 -1301.31)" fill="#f47458"/>
      <path id="Path_6932" data-name="Path 6932" d="M1870.851,1311.726a6.54,6.54,0,0,0-9.382,3.528,49.8,49.8,0,0,0-1.706,6.08c-1.181,5.606.673,11.633,3.219,12.119s10.283-1.815,12.07-9.751C1876.155,1318.8,1874.56,1313.854,1870.851,1311.726Z" transform="translate(-1834.029 -1268.456)" fill="#f7a491"/>
      <path id="Path_6933" data-name="Path 6933" d="M1903.037,1348.606a1.9,1.9,0,1,0,2.263-1.9A2.107,2.107,0,0,0,1903.037,1348.606Z" transform="translate(-1864.011 -1293.088)" fill="#f7a491"/>
      <path id="Path_6934" data-name="Path 6934" d="M1881.246,1318.527s-3.16-.373-3.531-2.636-2.691-7.719-8.192-7.9,5.814-2.423,6.2-2.276,5.081,1.88,5.081,1.88,2.486,4.328,2.493,4.7-.294,4.321-.294,4.321Z" transform="translate(-1839.957 -1264.906)" fill="#0e2e35"/>
      <path id="Path_6935" data-name="Path 6935" d="M1871.653,1363.058l-5.636-.979a2.5,2.5,0,0,0,2.22,2.672C1871.244,1365.364,1871.653,1363.058,1871.653,1363.058Z" transform="translate(-1838.577 -1303.679)" fill="#fff"/>
    </g>
    <g id="Group_4402" data-name="Group 4402" transform="translate(1369.965 505.231)">
      <path id="Path_6936" data-name="Path 6936" d="M971.352,1431.543a5.746,5.746,0,0,0,.6,1.467,55.707,55.707,0,0,0,5.787,7.7l3.128-7.048s-.51-2.213-1.395-5.377C976.456,1429.074,973.579,1429.53,971.352,1431.543Z" transform="translate(-963.899 -1367.168)" fill="#f8a492"/>
      <path id="Path_6937" data-name="Path 6937" d="M973.186,1364.83s-17.448,7.514-18.013,7.371c-.363-.093-7.157-11.464-7.23-22.158-.034-4.939,5.1-10.88,10.819-9.705,2.881.592,2.836,1.393,7.1,7.587S973.186,1364.83,973.186,1364.83Z" transform="translate(-947.797 -1306.569)" fill="#13375b"/>
      <path id="Path_6938" data-name="Path 6938" d="M1073.958,1850.729s-.414,6.853-.416,6.867a37.481,37.481,0,0,0-.751,3.81c0,2.971,14.109-2.522,10.947-3.839-.286-.119-1.785-1.021-1.88-2.032-.145-1.558-.513-4.71-.513-4.71Z" transform="translate(-1033.675 -1657.753)" fill="#f7a491"/>
      <path id="Path_6939" data-name="Path 6939" d="M1082.6,1872.278s-3.313.909-5.009,1.137-3.933-1.687-5.133-1.169c-1.321.569-1.269,5.689-1.269,5.689s17.764,1.458,22.759-.05C1095.928,1877.287,1089.374,1874.4,1082.6,1872.278Z" transform="translate(-1032.574 -1672.491)" fill="#dd513a"/>
      <path id="Path_6940" data-name="Path 6940" d="M981.49,1850.729s-.414,6.853-.416,6.867a37.482,37.482,0,0,0-.752,3.81c0,2.971,14.109-2.522,10.947-3.839-.286-.119-2.23-1.694-2.324-2.7-.145-1.559-.068-4.038-.068-4.038Z" transform="translate(-970.069 -1657.753)" fill="#f7a491"/>
      <path id="Path_6941" data-name="Path 6941" d="M989.9,1872.278s-3.312.909-5.009,1.137-3.933-1.687-5.133-1.169c-1.321.569-1.373,5.689-1.373,5.689s17.844,1.7,22.864-.05C1003.2,1877.2,996.676,1874.4,989.9,1872.278Z" transform="translate(-968.738 -1672.491)" fill="#dd513a"/>
      <g id="Group_4400" data-name="Group 4400" transform="translate(15.733 14.369)">
        <path id="Path_6942" data-name="Path 6942" d="M997.879,1332.32l12.426-17.408c.052-.153.165-.464.337-.941.626-1.728,1.928-5.321,3.063-8.9l.012-.038c.357-1.25,1.112-3.43,1.843-5.54.813-2.345,1.82-5.254,1.856-5.75-.031-.085-.09-.237-.168-.439a40.07,40.07,0,0,1-1.29-5.224c-.139-.78-.277-2.675.65-2.675,1.458,0,.763,1.893,1.435,3.076a29.867,29.867,0,0,0,1.01-3.945l.244-3.7c.047-.279-.25-2.321.772-2.321l.049,0c.919.067.9,2.238,1.28,5.909.121-.422.242-.932.333-1.4a13.44,13.44,0,0,1,.311-1.937c-.185-1.023-.077-2.636,1.012-2.484.546.076.5,2.328.5,2.328-.006.309-.038,2.69-.021,3.16.113-.8.549-4.206,1.4-4.206.709,0,.766.918.751,1.643-.009.43-.454,4.121-.479,4.55.334-.56.73-3.813,1.06-3.813,1.383,0,.883,4.626.375,5.831a5.337,5.337,0,0,0-.157.645,11.357,11.357,0,0,1-1.185,3.442c-.868,1.484-2.065,3.845-2.247,4.207-.134.737-.55,3.389-1.073,6.724-.224,1.427-.469,2.992-.725,4.613l-.013,0c-.047.351-.306,1.466-1.289,5.651-1.345,5.727-1.485,5.974-1.545,6.08-.584,1.034-13.982,19.229-14.552,20l-.336.457Z" transform="translate(-997.879 -1278.517)" fill="#f7a491"/>
        <path id="Path_6943" data-name="Path 6943" d="M1065.747,1314.909s-1.009-2.579-2.8-2.584a2.065,2.065,0,0,1,1.864.319A3.555,3.555,0,0,1,1065.747,1314.909Z" transform="translate(-1042.634 -1301.706)" fill="#f47458"/>
      </g>
      <g id="Group_4401" data-name="Group 4401">
        <path id="Path_6944" data-name="Path 6944" d="M984.735,1303.544l-1.6,10.116s6.1,4.894,9.648,3.862c2.981-.867.937-4.764.937-4.764s-1.588-5.4-1.1-8.232S984.735,1303.544,984.735,1303.544Z" transform="translate(-972.004 -1280.956)" fill="#f7a491"/>
        <path id="Path_6945" data-name="Path 6945" d="M988.73,1306.6a24.9,24.9,0,0,0,6.9,1.944,13.416,13.416,0,0,1-.162-4.02c.225-1.306-1.438-1.616-3.293-1.57-2.428.208-4.592.587-4.592.587l-.308,1.944A5.019,5.019,0,0,0,988.73,1306.6Z" transform="translate(-974.851 -1280.958)" fill="#fe875e"/>
        <path id="Path_6946" data-name="Path 6946" d="M963.58,1255.481c-.251,0,2.409,11.3,6.527,13.246s10.26.931,11.412-2.113c1.275-3.367-3.375-14.9-9.167-16.361S963.58,1255.481,963.58,1255.481Z" transform="translate(-958.541 -1244.563)" fill="#f7a491"/>
        <path id="Path_6947" data-name="Path 6947" d="M957.277,1233.018a12.966,12.966,0,0,0-5.307,5.864c-1.544.732-3.412,2.317-4.308,6.587-1.1,5.25,2.817,9.3,6.973,10.514s4.8,3.967,4.8,3.967l.471-2.96a11.712,11.712,0,0,0-2.315-3.867c-1.39-1.289.659-3.169.839-4.7.138-1.18-.731-3.473-.543-5.41,0,0,2.31-3.5,4.586-4.365C966.352,1237.173,961.5,1230.584,957.277,1233.018Z" transform="translate(-947.473 -1232.484)" fill="#13375b"/>
        <path id="Path_6948" data-name="Path 6948" d="M977.38,1285.679c.538,1.3.318,2.6-.492,2.894s-1.9-.527-2.44-1.832-.318-2.6.491-2.894S976.842,1284.374,977.38,1285.679Z" transform="translate(-965.826 -1267.774)" fill="#f7a491"/>
      </g>
      <path id="Path_6949" data-name="Path 6949" d="M1033.634,1428.043l23.97-3.908s-2.727-6.866-3.7-6.866-18.124,7.487-18.124,7.487l-1.364,2.739Z" transform="translate(-1006.74 -1359.591)" fill="#f8a492"/>
      <path id="Path_6950" data-name="Path 6950" d="M985.3,1502.023s-2.391,11.56-1.416,20.325,1.051,39.9,1.051,39.9l-3.718,49.818,8.823.192s10.462-49.795,10.267-48.516,3.508-35.061,3.508-35.061l-12.473-27.756Z" transform="translate(-970.683 -1417.136)" fill="#184655"/>
      <path id="Path_6951" data-name="Path 6951" d="M1000.491,1494.232s-1.559,10.409.39,14.974,16.716,49.358,16.91,53.01,5.106,44.02,5.106,44.02l10.259-.289,2.219-44.88-4.648-56.407-4.512-14.261Z" transform="translate(-983.536 -1409.893)" fill="#13375b"/>
      <path id="Path_6952" data-name="Path 6952" d="M983.135,1330.046a9.218,9.218,0,0,0,4.889,1.468c2.36-.192,5.7-2.37,5.7-2.37l-.464-1.572s-6.1-.889-6.258-.793S983.135,1330.046,983.135,1330.046Z" transform="translate(-972.004 -1297.341)" fill="#f7a491"/>
      <path id="Path_6953" data-name="Path 6953" d="M1069.52,1397.49s9.067,8.556,13.159,7.1,5.786-6.455-4.2-13.76C1069.543,1384.287,1069.52,1397.49,1069.52,1397.49Z" transform="translate(-1031.425 -1340.151)" fill="#f8a492"/>
      <path id="Path_6954" data-name="Path 6954" d="M997.593,1370.109c-1.347-7.327-11.108-30.13-11.888-34.33-.379-2.042-5.644-2.088-10.66-1.821-5.3.281-10.56.952-10.56.952s-4.69.77-6.753,2.7-2.611,7.281.355,17.43c2.342,8.012,5.244,12.412,6.681,18.248.291,1.957.54,3.889.87,6.146.528,8.726-.006,20.255-.006,20.255s25.53,5.3,35.08-2.739C1000.712,1396.952,998.973,1377.616,997.593,1370.109Z" transform="translate(-953.355 -1302.205)" fill="#355389"/>
      <path id="Path_6955" data-name="Path 6955" d="M1047.11,1355s-10.017,8.269-10.6,8.269c-.376,0-14.3-10.239-17.508-18.651-1.776-4.65,1.949-9.853,6.205-9.836,2.949.012,4.26.772,10.107,5.7S1047.11,1355,1047.11,1355Z" transform="translate(-996.361 -1302.85)" fill="#466eb6"/>
    </g>
    <path id="Path_6956" data-name="Path 6956" d="M1021.086,663.03c-2.45-1.653-4.959-3.221-7.375-4.922a2.141,2.141,0,0,1-.781-1.635c.318-3.409.831-6.8,1.126-10.211a1.811,1.811,0,0,1,1.263-1.885c3.354-1.311,6.673-2.714,10-4.085.54-.222,1.072-.464,2-.868-1.591-5.112-3.163-10.167-4.776-15.349-4.287.851-8.2,1.561-12.073,2.431a2.374,2.374,0,0,1-2.99-1.118c-1.8-2.589-3.954-4.925-5.89-7.422a1.94,1.94,0,0,1-.252-1.6c1.316-3.409,2.63-6.825,4.15-10.145.73-1.593.366-2.45-1.062-3.192a9.912,9.912,0,0,1-1.488-1.161l-7.391-3.974a5.078,5.078,0,0,1-.926-.192c-3.006-1.23-2.427-1.2-4.134,1.3-2.08,3.057-4.109,6.149-5.889,8.82l-13.354-1.248-5.21-12.647a51.346,51.346,0,0,0-15.3,4.757c.845,4.216,1.659,8.329,2.5,12.435a1.42,1.42,0,0,1-.616,1.723c-2.828,2.115-5.606,4.306-8.281,6.609a1.671,1.671,0,0,1-2.1.319c-3.419-1.438-6.873-2.8-10.3-4.221a1.439,1.439,0,0,0-2.032.5,45.78,45.78,0,0,0-6.336,12.279c-.313.865.1,1.239.756,1.664,3.021,1.964,6,4,9.03,5.944a1.8,1.8,0,0,1,.967,2.172c-.6,3.9-.981,7.843-1.481,12.085l-12.136,5a47.856,47.856,0,0,0,4.651,15.52l13.117-2.7c2.526,2.911,4.8,5.678,7.251,8.286a2.3,2.3,0,0,1,.548,2.946c-1.441,3.242-2.756,6.542-4.088,9.832-.263.65-.782,1.407.234,1.943q6.193,3.27,12.385,6.542c.878.463,1.432.168,1.962-.659,1.977-3.076,4.089-6.067,6.012-9.174.742-1.2,1.541-1.245,2.785-1.077a84.122,84.122,0,0,0,9.266.837,2.018,2.018,0,0,1,2.273,1.564c1.447,3.812,3.043,7.567,4.55,11.264,3.306,0,12.312-2.822,15.557-4.839-.85-4.057-1.667-8.169-2.6-12.255a1.741,1.741,0,0,1,.853-2.076c2.523-1.985,4.9-4.148,7.408-6.158a2.118,2.118,0,0,1,1.757-.337c3.054,1.2,6.066,2.5,9.077,3.8,1.683.728,2.36,1.028,3.006.594l7.052-13.115C1023.8,664.871,1023.068,664.368,1021.086,663.03Zm-26.208-4.6a24.1,24.1,0,0,1-32.639,9.813h0a24.1,24.1,0,0,1-9.812-32.64h0a24.1,24.1,0,0,1,32.639-9.812h0a24.1,24.1,0,0,1,9.812,32.639Z" transform="translate(444.906 -288.013)" fill="#cae1f9"/>
    <path id="Path_6957" data-name="Path 6957" d="M551.839,889.077c-3.963.385-7.914.911-11.882,1.218a2.885,2.885,0,0,1-2.215-1.027c-2.6-3.812-4.973-7.774-7.594-11.567-.763-1.1-.976-1.837-.306-3.041,2.357-4.24,4.6-8.544,6.881-12.827.37-.695.715-1.4,1.335-2.621l-18.131-11.837c-3.721,4.564-7.171,8.657-10.447,12.886-1.155,1.491-2.064,1.966-4.064,1.406-4.088-1.145-8.333-1.72-12.485-2.652a2.614,2.614,0,0,1-1.637-1.447c-1.558-4.669-3.128-9.343-4.4-14.1-.61-2.281-1.723-2.858-3.842-2.4a13.425,13.425,0,0,1-2.54.072l-11.085,2.217a6.812,6.812,0,0,1-1.126.6c-4.176,1.3-3.554.832-3.173,4.9.464,4.959,1.012,9.91,1.456,14.211l-14.935,10.164-16.264-8.659a69.161,69.161,0,0,0-11.8,18.07c4.5,3.652,8.871,7.224,13.271,10.762a1.913,1.913,0,0,1,.84,2.318c-1.121,4.623-2.125,9.282-2.925,13.969a2.252,2.252,0,0,1-1.9,2.13c-4.785,1.442-9.536,2.995-14.315,4.456a1.938,1.938,0,0,0-1.677,2.268,61.65,61.65,0,0,0,3.961,18.186c.417,1.166,1.171,1.2,2.213,1.078,4.822-.554,9.658-.991,14.476-1.578a2.43,2.43,0,0,1,2.868,1.425c2.724,4.572,5.714,8.984,8.835,13.818l-8.31,15.606A64.46,64.46,0,0,0,459.068,979.2l11.3-14.056c5.121.855,9.86,1.773,14.64,2.38a3.092,3.092,0,0,1,3.1,2.588c1.287,4.6,2.753,9.157,4.194,13.716.285.9.4,2.132,1.91,1.817q9.236-1.92,18.473-3.836c1.309-.273,1.63-1.054,1.472-2.369-.588-4.89-.962-9.807-1.633-14.685-.258-1.882.531-2.614,1.966-3.509a113.224,113.224,0,0,0,10.339-7.083c1.411-1.113,2.217-1.172,3.7-.327,4.774,2.716,9.653,5.244,14.391,7.79,3.432-2.838,10.36-13.5,12-18.377-4.365-3.483-8.742-7.051-13.215-10.494-1.119-.861-1.181-1.578-.9-2.887.916-4.226,1.533-8.516,2.406-12.752a2.855,2.855,0,0,1,1.535-1.857c4.2-1.38,8.442-2.613,12.685-3.846,2.372-.689,3.332-.958,3.632-1.962l-3.934-19.669C556.237,888.66,555.045,888.765,551.839,889.077Zm-31.157,17.717a32.464,32.464,0,0,1-25.466,38.2h0a32.464,32.464,0,0,1-38.2-25.466h0a32.464,32.464,0,0,1,25.466-38.2h0a32.464,32.464,0,0,1,38.2,25.466Z" transform="translate(741.143 -457.914)" fill="#9bc1f9"/>
    <path id="Path_6958" data-name="Path 6958" d="M689.668,587.632c-1.588-.754-3.2-1.451-4.775-2.236a1.272,1.272,0,0,1-.605-.891c-.117-2.033-.118-4.073-.249-6.1a1.077,1.077,0,0,1,.575-1.221c1.855-1.07,3.682-2.191,5.518-3.294.3-.179.589-.368,1.1-.689l-4.177-8.6c-2.445.883-4.681,1.649-6.881,2.507a1.412,1.412,0,0,1-1.858-.391c-1.288-1.362-2.764-2.543-4.125-3.839a1.155,1.155,0,0,1-.291-.919c.47-2.122.938-4.248,1.536-6.335.287-1,0-1.473-.909-1.782a5.94,5.94,0,0,1-.978-.55l-4.7-1.678a2.968,2.968,0,0,1-.562-.03c-1.877-.455-1.534-.492-2.314,1.136-.95,1.983-1.867,3.982-2.676,5.711l-7.963.457-4.191-6.971a30.531,30.531,0,0,0-8.571,4.162c.873,2.4,1.719,4.749,2.581,7.088a.845.845,0,0,1-.209,1.068c-1.474,1.5-2.912,3.031-4.279,4.624a.994.994,0,0,1-1.2.375c-2.139-.541-4.29-1.032-6.432-1.563a.856.856,0,0,0-1.15.478,27.222,27.222,0,0,0-2.63,7.785c-.107.536.171.719.593.911,1.952.885,3.882,1.818,5.839,2.689a1.073,1.073,0,0,1,.762,1.19c-.007,2.349.123,4.7.207,7.238l-6.689,4.022a28.452,28.452,0,0,0,4.119,8.71l7.472-2.755c1.745,1.486,3.331,2.91,5,4.225a1.365,1.365,0,0,1,.585,1.683c-.558,2.035-1.037,4.092-1.526,6.145-.1.406-.334.9.31,1.121q3.933,1.37,7.865,2.742c.557.194.857-.029,1.1-.562.888-1.985,1.862-3.932,2.716-5.931.329-.771.794-.87,1.541-.882a49.886,49.886,0,0,0,5.523-.334,1.2,1.2,0,0,1,1.476.717c1.191,2.112,2.464,4.178,3.68,6.217a27.285,27.285,0,0,0,8.716-4.233c-.862-2.31-1.709-4.655-2.621-6.974a1.035,1.035,0,0,1,.316-1.3c1.306-1.392,2.514-2.876,3.807-4.282a1.259,1.259,0,0,1,1-.355c1.9.43,3.789.927,5.676,1.424,1.055.277,1.479.394,1.821.081l2.977-8.34C691.427,588.473,690.952,588.242,689.668,587.632Zm-15.819-.366a14.332,14.332,0,0,1-18.315,8.681h0a14.332,14.332,0,0,1-8.681-18.316h0a14.332,14.332,0,0,1,18.315-8.681h0a14.332,14.332,0,0,1,8.681,18.316Z" transform="translate(610.132 -258.698)" fill="#9bc1f9" opacity="0.2"/>
    <g id="Group_4408" data-name="Group 4408" transform="translate(1137.042 548.093)">
      <path id="Path_6959" data-name="Path 6959" d="M731.639,1763.658l-4.717-.019c.622-20.582,1.171-51.841.131-53.594a.768.768,0,0,0,.314.236l3.828-1c.619.311.992.5,1.121,9.252.067,4.5.041,10.724-.075,18.488C732.042,1750.238,731.643,1763.525,731.639,1763.658Z" transform="translate(-614.026 -1603.319)" fill="#355389"/>
      <path id="Path_6960" data-name="Path 6960" d="M710.331,1882.685H678.508a2.654,2.654,0,0,0-2.654,2.654h0a.464.464,0,0,0,.464.463h36.2a.464.464,0,0,0,.464-.463h0A2.654,2.654,0,0,0,710.331,1882.685Z" transform="translate(-578.898 -1722.596)" fill="#355389"/>
      <path id="Path_6961" data-name="Path 6961" d="M727.192,1874.3h-3.9a2.088,2.088,0,0,0-2.088,2.088h0a2.088,2.088,0,0,0,2.088,2.089h3.9a2.088,2.088,0,0,0,2.089-2.089h0A2.088,2.088,0,0,0,727.192,1874.3Z" transform="translate(-610.094 -1716.828)" fill="#355389"/>
      <rect id="Rectangle_2734" data-name="Rectangle 2734" width="1.883" height="93.824" transform="translate(2.388 69.321)" fill="#13375b"/>
      <path id="Path_6962" data-name="Path 6962" d="M682.9,1387.213a25.254,25.254,0,0,1,2.307-12.169c1.605-3.34,5.577-5.235,9.2-5.24,11.5-.015,12.963,15.181,20.284,21.042,2.237,1.791,4.737,3.25,6.854,5.181,7.816,7.132,4.3,20.334-2.882,26.586-4.98,4.339-12.808,6.8-18.946,3.412a19.3,19.3,0,0,1-7.369-7.938c-2.46-4.577-4.045-9.857-5.794-14.735A54.985,54.985,0,0,1,682.9,1387.213Z" transform="translate(-583.723 -1369.803)" fill="#13375b"/>
      <path id="Path_6963" data-name="Path 6963" d="M565.876,1513.632l25.026-6.978s5.273-7.083,12.056-16.584c2.218,2.2,3.451,5.568,5.684,7.742l-16.566,18.323a3.164,3.164,0,0,1-2.337,1.042l-23,.076-7.87.627v-5.037Z" transform="translate(-498.43 -1452.53)" fill="#f48c7f"/>
      <path id="Path_6964" data-name="Path 6964" d="M678.333,1500.964s8.589-8.807,10.8-12.633-1.5-1.336-5.3-2.342c-1.437-.382-1.073-8.8-3.79-6.066a124.98,124.98,0,0,0-10.061,12.344Z" transform="translate(-574.858 -1445.175)" fill="#96d9c9"/>
      <path id="Path_6965" data-name="Path 6965" d="M702.591,1467.882s7.709-1.522,11.226,1.417-.754,29.067-.75,33.4,2.415,16.569,2.415,16.569-23.363,4.089-27.074-2.413c0,0-1.056-24.773-.9-27.889s3.621-15.856,4.578-17.22S702.591,1467.882,702.591,1467.882Z" transform="translate(-586.905 -1436.997)" fill="#50bfa5"/>
      <path id="Path_6966" data-name="Path 6966" d="M720.563,1430.166s.04.23.113.623c.35,1.881,1.7,8.123,2.605,9.839,1.1,2.073-3.763,8.687-8.443,7.88-1.393-.24,1.177-6.076,1.054-6.695-.237-1.184-.557-2.8-.886-4.453l-.549-2.771c-.5-2.529-.909-4.6-.909-4.6Z" transform="translate(-604.829 -1411.204)" fill="#f7a491"/>
      <path id="Path_6967" data-name="Path 6967" d="M720.677,1430.788c-.073-.392-.113-.623-.113-.623l-7.012-.175s.408,2.068.909,4.6l.546,2.755a6.569,6.569,0,0,0,3.348-1.675,8.821,8.821,0,0,0,2.536-3.764C720.8,1431.461,720.731,1431.08,720.677,1430.788Z" transform="translate(-604.829 -1411.204)" fill="#f47458"/>
      <path id="Path_6968" data-name="Path 6968" d="M705.875,1379.547a6.328,6.328,0,0,1,5.377,2.293c2.072,2.674,4.3,10.944-.842,15.44s-10.232-.593-10.986-5.989S698.377,1379.352,705.875,1379.547Z" transform="translate(-594.859 -1376.493)" fill="#f7a491"/>
      <path id="Path_6969" data-name="Path 6969" d="M694.386,1410.46c.615,1.192,1.646,1.852,2.3,1.474s.693-1.65.079-2.842-1.646-1.852-2.3-1.474S693.772,1409.268,694.386,1410.46Z" transform="translate(-591.344 -1395.741)" fill="#f7a491"/>
      <path id="Path_6970" data-name="Path 6970" d="M719.711,1376.572s4.416,7.864,7.574,8.227,3.574,4.542,3.574,4.542-1.129-9.629-4.256-11.486A11.637,11.637,0,0,0,719.711,1376.572Z" transform="translate(-609.066 -1374.402)" fill="#13375b"/>
      <path id="Path_6971" data-name="Path 6971" d="M741.179,1404.556c-.257,1.4.26,2.677,1.154,2.86s1.828-.8,2.084-2.2-.26-2.677-1.154-2.861S741.436,1403.159,741.179,1404.556Z" transform="translate(-623.788 -1392.182)" fill="#f7a491"/>
      <g id="Group_4403" data-name="Group 4403" transform="translate(19.349 79.733)">
        <path id="Path_6972" data-name="Path 6972" d="M646.116,1812.728s7.091,8.5,7.138,9.243-.282,8.815-1.125,9.555-3.321,1.265-2.525,2.1c.6.629,5.234.494,8.3.325.9-.049,2.019-7.2,2.375-8.249.516-1.526,1.769-4.963,1.3-6.027a8.929,8.929,0,0,0-2.86-2.578c-1.619-1.046-7.811-9.662-7.811-9.662Z" transform="translate(-577.791 -1750.566)" fill="#f48c7f"/>
        <path id="Path_6973" data-name="Path 6973" d="M664.138,1838.225s-4.762,13.407-6.626,14.054c-.495.172-2.87.608-3.318,1.658a4.54,4.54,0,0,0,0,1.373h9.925s1.255-5.907,1.752-8.5c0,0,2.627-6.342,2.335-6.918S664.138,1838.225,664.138,1838.225Z" transform="translate(-583.307 -1771.747)" fill="#b75742"/>
        <path id="Path_6974" data-name="Path 6974" d="M455.938,1828.479s-5.791,8.154-5.282,10.733c.273,1.381,1.488,3.189.791,4.489a3.5,3.5,0,0,1-1.494,1.625l-18.065.291c-.984.016-.334-.616.46-1.2a36.412,36.412,0,0,1,6.495-3.586c.271-.13,1.256-.756,1.611-.972a12.5,12.5,0,0,0,2.584-2.278c1.3-1.441,7-13.185,7-13.185Z" transform="translate(-430.09 -1762.234)" fill="#f7a491"/>
        <path id="Path_6975" data-name="Path 6975" d="M437.588,1873.043a16.385,16.385,0,0,0,10.285-.4c.509,1.441,1.185,3.249.826,4.291-.439,1.276-1.063,1.564-1.615,1.579-4.364.115-15.985.271-19.312.313a.543.543,0,0,1-.422-.892C428.176,1876.948,437.232,1873.26,437.588,1873.043Z" transform="translate(-427.222 -1795.42)" fill="#b75742"/>
        <path id="Path_6976" data-name="Path 6976" d="M555.6,1641.194s7.171,8.184,9,9.481,19.381,33.617,19.381,33.617l-6.253,4.565s-15.687-19.56-23.054-30.022c-6.229-8.846-3.935-8.285-7.6-13.67a7.193,7.193,0,0,1,1.1-9.377q.5-.45,1.081-.937c5.422-4.519,42.589-9.605,42.589-9.605l23.772,2.328s-19.423,13.62-20.148,13.983-26.822,4.168-27.366,4.168S555.6,1641.194,555.6,1641.194Z" transform="translate(-508.802 -1625.246)" fill="#b75742"/>
        <path id="Path_6977" data-name="Path 6977" d="M572.876,1631.421s4.078,12.233-2.039,17.942-42.453,5.074-54.414,5.074c0,0-4.893,13.411-5.437,15.586s-24.285,30.265-24.285,30.265l-6.524-4.168s25.553-49.657,27.547-51.832,30.447-10.874,37.515-12.868S572.876,1631.421,572.876,1631.421Z" transform="translate(-463.648 -1628.884)" fill="#f47458"/>
      </g>
      <path id="Path_6978" data-name="Path 6978" d="M610.251,1510.944l21.7-4.8s7.847-10.083,15.384-18.761c2.218,2.2,3.451,5.568,5.684,7.742l-16.566,18.324a3.163,3.163,0,0,1-2.337,1.042l-23,.077-7.87.627v-5.037Z" transform="translate(-528.955 -1450.681)" fill="#f7a491"/>
      <path id="Path_6979" data-name="Path 6979" d="M722.708,1493.131s8.589-8.807,10.8-12.633.571-10.237-3.224-11.244-15.927,15.181-15.927,15.181Z" transform="translate(-605.383 -1438.181)" fill="#96d9c9"/>
      <g id="Group_4404" data-name="Group 4404" transform="translate(34.382 35.562)">
        <path id="Path_6980" data-name="Path 6980" d="M477.722,1483.733h35.787a2.333,2.333,0,0,1,2.159,1.448l11.019,26.875h19.729a1,1,0,0,1,1,1h0a1,1,0,0,1-1,1H490.265a3.921,3.921,0,0,1-3.576-2.314l-11.1-24.716A2.334,2.334,0,0,1,477.722,1483.733Z" transform="translate(-475.386 -1483.733)" fill="#b75742"/>
        <path id="Path_6981" data-name="Path 6981" d="M544.488,1528.136a1.969,1.969,0,1,0,1.476-2.568A2.105,2.105,0,0,0,544.488,1528.136Z" transform="translate(-522.885 -1512.487)" fill="#fff"/>
      </g>
      <path id="Path_6982" data-name="Path 6982" d="M474.418,1585.4H367.5a2.267,2.267,0,0,1-2.267-2.267h0a2.267,2.267,0,0,1,2.267-2.267H474.418a2.267,2.267,0,0,1,2.267,2.267h0A2.267,2.267,0,0,1,474.418,1585.4Z" transform="translate(-365.235 -1514.987)" fill="#184655"/>
      <path id="Path_6983" data-name="Path 6983" d="M714.524,1426.328l4.849-.251a2.122,2.122,0,0,1-2.145,2.02C714.631,1428.307,714.524,1426.328,714.524,1426.328Z" transform="translate(-605.498 -1408.512)" fill="#fff"/>
      <path id="Path_6984" data-name="Path 6984" d="M659.654,1657.5l2.19-9.115a14.787,14.787,0,0,1,13.727-11.277l27.733-1.121.856-2.823-28.7,1.16a17.585,17.585,0,0,0-16.324,13.411l-2.327,9.685C657.6,1657.452,658.557,1657.478,659.654,1657.5Z" transform="translate(-565.798 -1550.958)" fill="#355389"/>
      <path id="Path_6985" data-name="Path 6985" d="M681.64,1577.334s-38.1.652-42.075,0-5.691,4.328-4.506,6.937,4.446,3.616,9.249,3.854,44.762,1.364,45.889.3c.92-.871,13.034-42.287,17.442-57.432a5.712,5.712,0,0,0-3.881-7.078h0a5.718,5.718,0,0,0-7.082,3.827Z" transform="translate(-550.584 -1475.648)" fill="#184655"/>
      <rect id="Rectangle_2735" data-name="Rectangle 2735" width="1.883" height="93.824" transform="translate(107.31 69.321)" fill="#13375b"/>
      <rect id="Rectangle_2736" data-name="Rectangle 2736" width="106.334" height="1.01" transform="translate(2.388 75.395)" fill="#13375b"/>
    </g>
    <g id="Group_4406" data-name="Group 4406" transform="translate(1516.902 170.684)">
      <path id="Path_6986" data-name="Path 6986" d="M1602.752,145.525s13.814,8.941,47.863,7.725c0,0-36.494,13.781-50.763,15.913l-5.873-23.194Z" transform="translate(-1478.518 -127.257)" fill="#e25a44"/>
      <path id="Path_6987" data-name="Path 6987" d="M1615.46,169.775a35.172,35.172,0,0,1-9.411,11.959l-3.06-12.087.2-5.847Z" transform="translate(-1484.716 -139.828)" fill="#b75742"/>
      <path id="Path_6988" data-name="Path 6988" d="M1474.717,100.2s39.893-2.7,46.1-.417l6.413,25.328s-22.707-1.951-44.829,5.427Z" transform="translate(-1396.482 -95.162)" fill="#f47458"/>
      <path id="Path_6989" data-name="Path 6989" d="M1368.218,995.59s-1.922,3.137-1.748,4.066,2.484,10.764,3.758,11.414,4.5.523,3.774,1.8c-.547.965-6.311,2.248-10.156,3-1.123.22-4.747-8.261-5.514-9.448-1.115-1.724-3.738-5.578-3.491-7.039a11.386,11.386,0,0,1,2.727-4.079,17.921,17.921,0,0,0,2.858-5.159Z" transform="translate(-1314.013 -708.241)" fill="#f48c7f"/>
      <path id="Path_6990" data-name="Path 6990" d="M1485.718,999.4s-.65,7.031-.649,7.049c.089,1.065.06,3.76.3,4.69.884,3.492,15-6.95,11.074-7.6a3.847,3.847,0,0,1-2.046-2.086c-.625-1.79.281-4.463.281-4.463Z" transform="translate(-1403.603 -712.947)" fill="#f7a491"/>
      <path id="Path_6991" data-name="Path 6991" d="M1418.106,599.723s4.077,11.277,4.121,11.45c4.738,18.713,17.7,54.327,17.887,58.024.452,9.017-6.987,57.482-6.987,57.482l-10.314,1.338-.225-55.714-10.142-19.88-17.351-39.98Z" transform="translate(-1341.714 -439.684)" fill="#3c8f7c"/>
      <path id="Path_6992" data-name="Path 6992" d="M1366.735,624.093l.876,11.445,6.286,46.425-8.406,49.057s4.378,5.72,8.668,5.593l19.687-53.166,4.681-62.838-3.938-12.7Z" transform="translate(-1321.349 -445.315)" fill="#50bfa5"/>
      <path id="Path_6993" data-name="Path 6993" d="M1354.019,1006.373s10.077,15.074,12.582,15.291c.665.057,3.736-.147,4.617,1.011a13.944,13.944,0,0,1,.828,2.094l-12.643,3.638s-3.417-7.837-4.842-10.888c0,0-5.229-7.013-5.049-7.816S1354.019,1006.373,1354.019,1006.373Z" transform="translate(-1310.355 -719.404)" fill="#13375b"/>
      <path id="Path_6994" data-name="Path 6994" d="M1484,1027.31l.385-6.562s4.193.643,6.019-.1a59.214,59.214,0,0,0,5.252-2.75c8.188.574,14.685.214,14.065,2.5h0Z" transform="translate(-1402.87 -727.329)" fill="#13375b"/>
      <path id="Path_6995" data-name="Path 6995" d="M1546.681,452.451l5.452,4.183c1.051-.81,3.348-4.219,4.836-5.281l-4.98-5.434h0a1.44,1.44,0,0,1-.583-1.3,4.527,4.527,0,0,1,.137-.838c.155-.429.294-.942.449-1.371s-.873-1.293-1.413-1.446-.72,1.918-.954,2.533a67.221,67.221,0,0,0-1.72,7.783Z" transform="translate(-1445.984 -330.472)" fill="#f48c7f"/>
      <path id="Path_6996" data-name="Path 6996" d="M1437.444,480.128c-1.531-1.633-3.692-2.55-5.3-4.248l-24.194,16.66s-18.705-22.12-28.862-14.282a168.68,168.68,0,0,0,12.562,18.075c6.212,7.692,15.7,11.362,17.549,10.512C1411.29,505.888,1436.9,480.786,1437.444,480.128Z" transform="translate(-1330.706 -354.497)" fill="#13375b"/>
      <path id="Path_6997" data-name="Path 6997" d="M1224.99,279.621c.8,2.132,2.184,5.486,2.184,5.486.039.963.238,4.969.491,9.877l6.808-3.729s-1.046-7.921-.785-8.445c.22-.443.735.014,2.549-3.389a6.17,6.17,0,0,0,.446-2.615s-.111-2.008-.581-2.139a.935.935,0,0,0-1.067.591c-.121.364.019,1.161-.1,1.525a2.5,2.5,0,0,1-1.543.935c-.438.032-.659-5.9-.659-5.9s.042-1.694.1-2.254c.049-.477.307-1.89.307-1.89s.257-2.036-.375-2.113c-.372-.045-1.1,1.672-1.525,3.452-.458,1.917-.608,3.91-.806,3.907-.464-.006-.612-3.254-.612-3.254a10.388,10.388,0,0,0,.181-2.224c.327-.9.421-2.521-.352-2.56a13.2,13.2,0,0,0-.9,2.123s-.221,1.462-.369,2.151c-.262,1.215-.1,3.064-.212,3.9-.093.7-.285.438-.354.475a17.049,17.049,0,0,1-.111-2.209,13.06,13.06,0,0,1-.095-2.143,15.616,15.616,0,0,0,.035-2.279c-.079-1.68-1.106-1.383-1.285.184-.067.6-.136,1.247-.2,1.906-.261,2.564.046,4.966-.221,5.019-.346.068-.646-4.337-.646-4.337s-.83-2.358-1.09-.045a19.75,19.75,0,0,0,.04,4.9A19.066,19.066,0,0,0,1224.99,279.621Z" transform="translate(-1224.073 -209.359)" fill="#f8a492"/>
      <path id="Path_6998" data-name="Path 6998" d="M1343.033,374.9s-4.106-3.4-6.469,1.626a2.932,2.932,0,0,0-3.719,1.454s-4.225-.734-4.477,5.481c0,0-2.146-.142-2.121,2.385a6.216,6.216,0,0,0,1.492,4.036s-1.071,1.026-.259,3.254a2.857,2.857,0,0,0,2.34,2s.833,3.232,2.377,4.05a4.68,4.68,0,0,0,3.427.107,2.213,2.213,0,0,0,2.374,1.359c1.643-.36,3.51-2.192,5.456-1.7s6.684-.849,6.684-.849,5.13-3.07,2.837-8.415a4.082,4.082,0,0,0-.329-5.7s1.236-5.049-2.71-7.463S1343.033,374.9,1343.033,374.9Z" transform="translate(-1294.354 -284.261)" fill="#f47458"/>
      <path id="Path_6999" data-name="Path 6999" d="M1374.258,479.8l-8.355-4.3s-7.423,1.083-8.343,1.195-2.655,34.694-2.8,47.647,1.436,15.052,1.436,15.052,12.1,1.223,20.713-.6c8.961-1.9,18.561-8.023,18.561-8.023s-10.708-23.563-13.169-31.027S1374.258,479.8,1374.258,479.8Z" transform="translate(-1313.961 -354.239)" fill="#f7cc7f"/>
      <path id="Path_7000" data-name="Path 7000" d="M1269.872,376.526,1242.43,354.59s-6.252-23.127-6.6-23.984c-.343-.842-6.467-.579-8.941-.521-.794.019,3.444,25.021,5.124,29.1,1.984,4.813,23.2,25.267,23.2,25.267s4.8,11.888,5.091,21c.487,15.132-.589,36.159.129,36.728,4.272,2.02,19.542.444,20.319-1.226C1289.32,422.508,1269.872,376.526,1269.872,376.526Z" transform="translate(-1225.942 -254.151)" fill="#13375b"/>
      <path id="Path_7001" data-name="Path 7001" d="M1370.263,446.058l1.251,4.81s2.329,6.866.594,8.454-9.119-7.626-9.119-7.626l-.847-12.47Z" transform="translate(-1319.046 -329.284)" fill="#f7a491"/>
      <path id="Path_7002" data-name="Path 7002" d="M1362.417,443.267a14.159,14.159,0,0,0,8.907,6.869l-1.061-4.078-8.121-6.832Z" transform="translate(-1319.046 -329.284)" fill="#f47458"/>
      <path id="Path_7003" data-name="Path 7003" d="M1326.409,407.968c.229,1.887,1.487,3.287,2.811,3.127s2.212-1.82,1.984-3.707-1.487-3.287-2.81-3.127S1326.181,406.081,1326.409,407.968Z" transform="translate(-1294.442 -305.224)" fill="#f47458"/>
      <path id="Path_7004" data-name="Path 7004" d="M1346.658,384.671c.131,1.084,1.544,1.806,3.154,1.611s2.81-1.232,2.679-2.317-1.543-1.806-3.154-1.611S1346.528,383.586,1346.658,384.671Z" transform="translate(-1308.388 -290.141)" fill="#f47458"/>
      <path id="Path_7005" data-name="Path 7005" d="M1359.645,394.378a6.583,6.583,0,0,1,9.183,4.173,49.828,49.828,0,0,1,1.29,6.21c.795,5.7-1.489,11.615-4.083,11.929s-10.209-2.516-11.449-10.593C1353.819,401.11,1355.768,396.26,1359.645,394.378Z" transform="translate(-1313.734 -297.985)" fill="#f7a491"/>
      <path id="Path_7006" data-name="Path 7006" d="M1353.051,430.12a1.917,1.917,0,1,1-2.141-2.055A2.12,2.12,0,0,1,1353.051,430.12Z" transform="translate(-1310.212 -321.598)" fill="#f7a491"/>
      <path id="Path_7007" data-name="Path 7007" d="M1388.073,379.647c2.936,1.8,4.265,4.909,2.969,6.949s-4.727,2.235-7.663.437-4.264-4.909-2.969-6.948S1385.137,377.849,1388.073,379.647Z" transform="translate(-1331.27 -287.455)" fill="#f47458"/>
      <path id="Path_7008" data-name="Path 7008" d="M1373.308,387.572c.112.922-.911,1.8-2.285,1.971s-2.578-.447-2.689-1.369.911-1.8,2.285-1.971S1373.2,386.65,1373.308,387.572Z" transform="translate(-1323.299 -292.792)" fill="#f47458"/>
      <path id="Path_7009" data-name="Path 7009" d="M1401.358,406.317a2.139,2.139,0,1,1-2.383-1.89A2.151,2.151,0,0,1,1401.358,406.317Z" transform="translate(-1343.089 -305.336)" fill="#f47458"/>
      <path id="Path_7010" data-name="Path 7010" d="M1406.962,485.645s11.6,27.419,15.726,37.084c.447,1.046,2.69,7.88,2.773,8.563.183,1.514-6.174,4.233-6.97,4.214-.712-.017-10.051-28.975-15.477-43.041a41.805,41.805,0,0,0-7.956-12.949l-2.635-2.176-.255-.815S1403.947,477.572,1406.962,485.645Z" transform="translate(-1339.699 -354.94)" fill="#13375b"/>
      <rect id="Rectangle_2737" data-name="Rectangle 2737" width="2.145" height="192.633" transform="translate(75.987 0.527) rotate(-14.208)" fill="#13375b"/>
      <g id="Group_4405" data-name="Group 4405" transform="translate(104.752 112.556)">
        <path id="Path_7011" data-name="Path 7011" d="M1566.92,453.484a6.54,6.54,0,0,0-.378-1.257,3.587,3.587,0,0,0-.722-1.152,2.19,2.19,0,0,1-.366-.761,1.356,1.356,0,0,0-.163-.3l0-.006a3.056,3.056,0,0,0-.713-.689,3.216,3.216,0,0,1-.769-.834,2.308,2.308,0,0,0-.863-.761c-.344-.168-.608-.172-.731.04-.571.98-3.423,4.108-2.268,5.62a36.135,36.135,0,0,1,2.488,3.181c.357.821,1.611.764,2.361.478C1566.2,456.5,1567.312,455.611,1566.92,453.484Z" transform="translate(-1559.67 -447.599)" fill="#f7a491"/>
      </g>
    </g>
    <rect id="Rectangle_2738" data-name="Rectangle 2738" width="814.341" height="2.155" transform="translate(1028.747 710.496)" fill="#184655"/>
    <g id="Group_4407" data-name="Group 4407" transform="translate(1522.235 208.888)">
      <path id="Path_7012" data-name="Path 7012" d="M1442.7,342.461a.442.442,0,0,1,.69-.106c.3.312.606.619.911.928.671.682.677.729.777.714.24-.037.248-.471.236-.631a5.209,5.209,0,0,1-.1-1.064.78.78,0,0,1,1.309-.589c.527.429,1.034.892,1.535,1.356.04-.763.058-1.529.109-2.291a.3.3,0,0,1,.5-.224l2.318,1.812c.119.093.62.59.764.5s.121-.614.134-.732c.072-.654.106-.885.389-3.008a.354.354,0,0,1,.587-.174c1.632,1.954,1.879,1.75,2.027,2.334a.167.167,0,0,1-.2.208c-.313-.032-.386-.062-1.2-.849q-.317-.306-.617-.626c-.294,2.585-.307,3.243-.953,3.438-.448.135-.524-.006-3.151-2.07,0,.8-.05,1.6-.084,2.4a.344.344,0,0,1-.575.255c-1.88-1.548-1.866-1.665-2.069-1.756-.005,0,0-.141-.035.059-.056.339.267,1.073.029,1.689a1.038,1.038,0,0,1-1.376.674c-.334-.164-.424-.328-1.43-1.295a8.974,8.974,0,0,1-1.139,1.781,1.389,1.389,0,0,1-.671.5.368.368,0,0,1-.46-.434C1441.2,344.534,1441.851,344.36,1442.7,342.461Z" transform="translate(-1404.343 -321.444)" fill="#f47458"/>
      <path id="Path_7013" data-name="Path 7013" d="M1413.594,305.088a12.061,12.061,0,0,0,2.137.184c.141,0,.4.03.494-.111.221-.339-.356-.866-.613-2.193-.112-.576-.393-1.757.382-1.992a4.328,4.328,0,0,1,1.3-.016c.31.008.62,0,.93.005-.554-2.158-.682-2.038-.458-2.52a.273.273,0,0,1,.368-.109c.433.288.309.229,1.034,2.943a.424.424,0,0,1-.39.539c-.419-.011-2.317-.163-2.552-.144.014.022-.007.125-.007.147a6.972,6.972,0,0,0,.631,2.476c.259.672.242,1.577-.613,1.766a8.4,8.4,0,0,1-2.145-.049c.386,1.315.781,2.628,1.158,3.945a.466.466,0,0,1-.429.594c-.848-.076-1.7-.123-2.547-.164a7.878,7.878,0,0,0,1.046,2.175c.338.493-.355,1.095-1.121-.206a7.628,7.628,0,0,1-.975-2.329.47.47,0,0,1,.43-.6c.842.016,1.685.07,2.526.14-.368-1.314-.724-2.634-1.092-3.948A.432.432,0,0,1,1413.594,305.088Z" transform="translate(-1383.886 -293.55)" fill="#66ccb2"/>
      <path id="Path_7014" data-name="Path 7014" d="M1354.365,287.292a.433.433,0,0,1-.431-.405,10.019,10.019,0,0,1,0-3.453c.12-.6,1-.375.914.213a12.224,12.224,0,0,0-.125,2.808,9.373,9.373,0,0,0,2.025-.257.446.446,0,0,1,.566.409c-.045.744-.3,3.557-.329,3.581a.137.137,0,0,1,.073,0c.293.058,1.3-.15,1.759-.121.513.032.676.728.7,1.148.053.853-.583,1.79-.285,2.624.287.8,1.549-.081,2.491.574.726.505.475,1.356.175,2.7a1.037,1.037,0,0,1-.474.813.222.222,0,0,1-.263-.029c-.358-.409-.174-.894.066-2.122.031-.156.131-.42.021-.561-.364-.469-1.43.2-2.291-.362a1.966,1.966,0,0,1-.659-2.023c.086-.57.436-1.27.253-1.851-.489.026-.982.065-1.469.053a.841.841,0,0,1-.918-.838,14.776,14.776,0,0,1,.12-1.827c.031-.4.061-.808.1-1.211A10.576,10.576,0,0,1,1354.365,287.292Z" transform="translate(-1344.383 -283.079)" fill="#07345a"/>
      <path id="Path_7015" data-name="Path 7015" d="M1459.315,387.5c2.033,2.6.119,3.868-.733,3.113a.713.713,0,0,1,.046-1.159c.2-.125.51.072.43.312-.067.2.158.25.25.041.124-.283-.076-.634-.2-.882-.289-.58-.656-1.336-1.371-1.449-1.067-.169-2.224.9-1.638,2.528.845,2.351,4.652,2.323,5.342-.137a3.5,3.5,0,0,0-1.245-3.646c-.211-.166.048-.448.262-.357a3.5,3.5,0,0,1,1.606,4.385,3.549,3.549,0,0,1-3.994,2.115,3.376,3.376,0,0,1-2.915-3.629A2.322,2.322,0,0,1,1459.315,387.5Z" transform="translate(-1414.097 -353.766)" fill="#3c8f7c"/>
      <path id="Path_7016" data-name="Path 7016" d="M1326.922,319.862c.281.424.44,1.289-.134,1.558a.47.47,0,0,1-.683-.265c-.091-.3.076-.579-.2-.818a.631.631,0,0,0-.795.085c-.663.54-.491,1.724-.146,2.394a1.6,1.6,0,0,0,2.788.161,3.614,3.614,0,0,0,.394-1.159c.056-.22.409-.319.521-.083a2.148,2.148,0,0,1-.951,2.524,2.554,2.554,0,0,1-2.759-.041,3.3,3.3,0,0,1-1.288-2.829C1323.748,319.2,1326.011,318.489,1326.922,319.862Z" transform="translate(-1323.671 -307.899)" fill="#f7cc7f"/>
    </g>
    <path id="Path_7017" data-name="Path 7017" d="M1003.649,1293.31a2.123,2.123,0,0,0,2.88.622c2.331-1.161,1.4-2.91,1.4-2.91Z" transform="translate(381.452 -767.519)" fill="#fff"/>
    <path id="Path_7018" data-name="Path 7018" d="M1381.967,446.328a2.123,2.123,0,0,0,2.327,1.807c2.6-.037,2.524-2.016,2.524-2.016Z" transform="translate(155.536 -186.341)" fill="#fff"/>
  </g>
</svg>
