<svg id="pain" xmlns="http://www.w3.org/2000/svg" width="96.049" height="96.049" viewBox="0 0 96.049 96.049">
  <g id="Group_2864" data-name="Group 2864">
    <g id="Group_2863" data-name="Group 2863">
      <path id="Path_2949" data-name="Path 2949" d="M124.882,224a27.316,27.316,0,0,0-20.348,9.047,2.088,2.088,0,1,0,3.111,2.785,23.23,23.23,0,0,1,34.473,0,2.088,2.088,0,1,0,3.111-2.785A27.317,27.317,0,0,0,124.882,224Z" transform="translate(-76.858 -165.535)"/>
      <path id="Path_2950" data-name="Path 2950" d="M48.025,0A48.025,48.025,0,1,0,96.049,48.025,48.08,48.08,0,0,0,48.025,0Zm0,91.873A43.849,43.849,0,1,1,91.873,48.025,43.9,43.9,0,0,1,48.025,91.873Z"/>
      <path id="Path_2951" data-name="Path 2951" d="M100.875,122.436a2.09,2.09,0,0,0-1.155-1.869l-16.7-8.352a2.088,2.088,0,1,0-1.869,3.735l12.971,6.485L81.15,128.92a2.089,2.089,0,0,0,1.867,3.738l16.7-8.352A2.09,2.09,0,0,0,100.875,122.436Z" transform="translate(-59.115 -82.764)"/>
      <path id="Path_2952" data-name="Path 2952" d="M227.728,128.924l-12.971-6.483,12.969-6.483a2.088,2.088,0,1,0-1.867-3.735l-16.7,8.352a2.088,2.088,0,0,0,0,3.735l16.7,8.352a2.089,2.089,0,0,0,1.869-3.738Z" transform="translate(-153.711 -82.769)"/>
    </g>
  </g>
</svg>
