<svg xmlns="http://www.w3.org/2000/svg" width="12.799" height="23.673" viewBox="0 0 12.799 23.673">
  <path id="Path_72" data-name="Path 72" d="M34.394,0l-3.07,0c-3.449,0-5.678,2.287-5.678,5.826V8.512H22.56a.483.483,0,0,0-.483.483v3.892a.483.483,0,0,0,.483.483h3.087v9.82a.483.483,0,0,0,.483.483h4.027a.483.483,0,0,0,.483-.483V13.37h3.609a.483.483,0,0,0,.483-.483V8.995a.483.483,0,0,0-.483-.483h-3.61V6.235c0-1.094.261-1.65,1.686-1.65h2.068a.483.483,0,0,0,.482-.483V.488A.483.483,0,0,0,34.394,0Z" transform="translate(-22.077)" fill="#3758ff"/>
</svg>
