<svg xmlns="http://www.w3.org/2000/svg" width="129.982" height="129.97" viewBox="0 0 129.982 129.97"><g transform="translate(0 -0.023)"><g transform="translate(38.779 97.468)"><path d="M157.777,385.9a2.649,2.649,0,0,0-.145-.477,2.576,2.576,0,0,0-.234-.437,2.467,2.467,0,0,0-.7-.7,2.5,2.5,0,0,0-.439-.234,2.383,2.383,0,0,0-.475-.145,2.5,2.5,0,0,0-.99,0,2.458,2.458,0,0,0-.477.145,2.574,2.574,0,0,0-.437.234,2.537,2.537,0,0,0-.934,1.137,2.459,2.459,0,0,0-.145.477,2.438,2.438,0,0,0,0,.99,2.384,2.384,0,0,0,.145.475,2.349,2.349,0,0,0,.234.439,2.468,2.468,0,0,0,.7.7,2.558,2.558,0,0,0,.437.234,2.458,2.458,0,0,0,.477.145,2.438,2.438,0,0,0,.99,0,2.383,2.383,0,0,0,.475-.145,2.5,2.5,0,0,0,.439-.234,2.468,2.468,0,0,0,.7-.7,2.506,2.506,0,0,0,.234-.439,2.564,2.564,0,0,0,.145-.475,2.438,2.438,0,0,0,0-.99Z" transform="translate(-152.75 -383.857)" fill="#bb85ff"/></g><g transform="translate(0 78.698)"><path d="M116.779,331.516c-.01-.025-.02-.051-.031-.075-2.337-5.468-7.817-7.488-14.3-5.273l-17.687,4.891a11.594,11.594,0,0,0-7.18-7.07l-.067-.024-19.442-6.6a20.053,20.053,0,0,0-16.177-7.444c-6.632,0-12.5,4.55-15.856,9.509H2.539A2.539,2.539,0,0,0,0,321.97v32.007a2.539,2.539,0,0,0,2.539,2.539H17.633a2.539,2.539,0,0,0,2.539-2.539v-2.192h7.079a2.539,2.539,0,0,0,2.539-2.539v-.731c4.126.36,5.484,1.143,9.273,3.328a153.641,153.641,0,0,0,15.252,7.787l.111.047a22.788,22.788,0,0,0,8.168,1.54,20.235,20.235,0,0,0,8.411-1.8l39.094-14c.07-.025.138-.053.205-.084C114.04,343.617,119.608,338.772,116.779,331.516ZM15.094,351.438H5.077v-26.93H15.094Zm9.617-4.731h-4.54v-22.2h4.54Zm83.563-6.029L69.2,354.67c-.034.012-.081.03-.114.044l-.1.044a16.455,16.455,0,0,1-12.643.216,147.068,147.068,0,0,1-14.74-7.529c-4.154-2.4-6.156-3.55-11.81-4.017V322.981C32.2,319.036,36.862,315,41.894,315c8.628,0,12.284,5.612,12.428,5.838a2.539,2.539,0,0,0,1.347,1.074l20.176,6.848c3.222,1.209,4.925,3.969,4.143,6.721a4.947,4.947,0,0,1-6.078,3.414l-22.745-7.208a2.539,2.539,0,0,0-1.534,4.84l22.785,7.22.073.022a9.965,9.965,0,0,0,7.621-.885,9.957,9.957,0,0,0,4.762-6.015q.088-.308.155-.617l19.061-5.281c2.753-.94,6.367-1.279,7.976,2.426C113.729,337.749,109.4,340.142,108.275,340.679Z" transform="translate(0 -309.922)" fill="#bb85ff"/></g><g transform="translate(86.126 31.37)"><path d="M344.279,125.54a2.469,2.469,0,0,0-.147-.477,2.5,2.5,0,0,0-.934-1.137,2.576,2.576,0,0,0-.437-.234,2.529,2.529,0,0,0-1.467-.145,2.384,2.384,0,0,0-.475.145,2.506,2.506,0,0,0-.439.234,2.467,2.467,0,0,0-.7.7,2.578,2.578,0,0,0-.234.437,2.461,2.461,0,0,0-.145.477,2.438,2.438,0,0,0,0,.99,2.385,2.385,0,0,0,.145.475,2.507,2.507,0,0,0,.234.439,2.468,2.468,0,0,0,.7.7,2.505,2.505,0,0,0,.439.234,2.564,2.564,0,0,0,.475.145,2.5,2.5,0,0,0,.5.051,2.546,2.546,0,0,0,.5-.051,2.687,2.687,0,0,0,.475-.145,2.576,2.576,0,0,0,.437-.234,2.467,2.467,0,0,0,.7-.7,2.347,2.347,0,0,0,.234-.439,2.39,2.39,0,0,0,.147-.475,2.564,2.564,0,0,0,0-.99Z" transform="translate(-339.25 -123.498)" fill="#bb85ff"/></g><g transform="translate(7.538 0.023)"><path d="M149.6,8.621H134.5a2.539,2.539,0,0,0-2.539,2.539v2.192h-7.079a2.539,2.539,0,0,0-2.539,2.539v.731c-4.126-.36-5.484-1.143-9.273-3.328A153.618,153.618,0,0,0,97.821,5.506c-.037-.017-.074-.032-.112-.047a21.6,21.6,0,0,0-16.578.261L70.916,9.378,62.3.767a2.539,2.539,0,0,0-3.59,0L30.444,29.037a2.518,2.518,0,0,0,0,3.59L78.752,80.936a2.743,2.743,0,0,0,3.59,0l25.81-25.81c.671.058,1.367.089,2.089.089,6.633,0,12.5-4.55,15.856-9.509h23.5a2.539,2.539,0,0,0,2.539-2.539V11.16A2.539,2.539,0,0,0,149.6,8.621ZM60.509,6.152,66.3,11.938a11.068,11.068,0,0,1-11.572,0ZM41.616,36.619l-5.786-5.786,5.786-5.786a11.069,11.069,0,0,1,0,11.573ZM80.548,75.55l-5.785-5.785a11.053,11.053,0,0,1,11.57,0Zm9.443-9.442a16.133,16.133,0,0,0-18.885,0L45.273,40.276a16.133,16.133,0,0,0,0-18.887L51.066,15.6a16.133,16.133,0,0,0,18.887,0l5.491,5.491a10.062,10.062,0,0,0-7.554,5.535A14.469,14.469,0,1,0,84.527,44.534L93.1,47.443A16.208,16.208,0,0,0,95.788,60.31ZM74.555,41.149l.067.024L79.7,42.9a9.394,9.394,0,1,1-12.751-10.73A11.24,11.24,0,0,0,74.555,41.149Zm24.891,15.5a11.1,11.1,0,0,1-1.622-5.28A19.74,19.74,0,0,0,102.3,53.8Zm22.9-14.5c-2.406,3.945-7.073,7.982-12.1,7.982a18.479,18.479,0,0,1-2.648-.186l-.01,0a14.541,14.541,0,0,1-9.4-5.146c-.052-.076-.272-.365-.305-.413a2.53,2.53,0,0,0-1.4-1.163L76.29,36.377c-3.221-1.209-4.924-3.967-4.143-6.718l0-.005,0-.006a4.946,4.946,0,0,1,6.075-3.405l22.745,7.208a2.539,2.539,0,1,0,1.534-4.84l-18.09-5.732-.158-.158,0,0-9.365-9.365,8.05-2.882.088-.033.027-.011.1-.044A16.453,16.453,0,0,1,95.8,10.162a147.057,147.057,0,0,1,14.741,7.529c4.154,2.4,6.156,3.55,11.81,4.017Zm9.618-1.527h-4.54v-22.2h4.54Zm15.094,0H137.041V13.7h10.017Z" transform="translate(-29.691 -0.023)" fill="#bb85ff"/></g></g></svg>