<svg xmlns="http://www.w3.org/2000/svg" width="161.47" height="44.128" viewBox="0 0 161.47 44.128">
  <g id="pic-5" transform="translate(-36.9 -36.9)">
    <path id="Path_1680" data-name="Path 1680" d="M106.492,120.1a2.455,2.455,0,1,0,2.27,2.448A2.351,2.351,0,0,0,106.492,120.1Zm-8.122,0a2.455,2.455,0,1,0,2.27,2.448A2.351,2.351,0,0,0,98.37,120.1Z" transform="translate(-46.026 -64.685)" fill="#7289da"/>
    <path id="Path_1681" data-name="Path 1681" d="M71.281,36.9H41.462A4.568,4.568,0,0,0,36.9,41.462V71.281a4.568,4.568,0,0,0,4.562,4.562H66.7l-1.179-4.072L68.366,74.4l2.693,2.47,4.807,4.161V41.462A4.6,4.6,0,0,0,71.281,36.9Zm-8.59,28.818s-.8-.957-1.469-1.78a7.056,7.056,0,0,0,4.028-2.626,12.735,12.735,0,0,1-2.559,1.313,15.958,15.958,0,0,1-3.227.957A15.589,15.589,0,0,1,53.7,63.56,16.942,16.942,0,0,1,50.43,62.6a13.04,13.04,0,0,1-1.625-.757c-.067-.045-.134-.067-.2-.111-.045-.022-.067-.045-.089-.045-.4-.223-.623-.378-.623-.378a6.955,6.955,0,0,0,3.894,2.6c-.668.846-1.491,1.825-1.491,1.825-4.918-.156-6.787-3.36-6.787-3.36a29.381,29.381,0,0,1,3.2-12.862A11.028,11.028,0,0,1,52.945,47.2l.223.267a14.6,14.6,0,0,0-5.83,2.893s.49-.267,1.313-.623a17.436,17.436,0,0,1,5.052-1.4,2.192,2.192,0,0,1,.378-.045,18.829,18.829,0,0,1,4.5-.045,18.5,18.5,0,0,1,6.7,2.114,14.613,14.613,0,0,0-5.541-2.8l.312-.356a10.981,10.981,0,0,1,6.231,2.314,29.381,29.381,0,0,1,3.2,12.862C69.479,62.358,67.61,65.562,62.692,65.718Zm33.6-19.294H88.906v8.3l4.918,4.428V51.1H96.45c1.669,0,2.492.8,2.492,2.092v6.164c0,1.291-.779,2.159-2.492,2.159H88.884v4.7h7.388c3.961.022,7.677-1.958,7.677-6.5V53.078C103.972,48.449,100.255,46.424,96.294,46.424ZM135.015,59.71V52.9c0-2.448,4.406-3,5.741-.556l4.072-1.647a7.326,7.326,0,0,0-6.943-4.54c-3.961,0-7.878,2.292-7.878,6.743v6.81c0,4.5,3.917,6.743,7.789,6.743a7.946,7.946,0,0,0,7.121-4.428l-4.362-2c-1.068,2.737-5.541,2.07-5.541-.312Zm-13.463-5.875c-1.535-.334-2.559-.89-2.626-1.847.089-2.292,3.627-2.381,5.7-.178l3.271-2.515a8.116,8.116,0,0,0-6.743-3.16c-3.627,0-7.143,2.047-7.143,5.919,0,3.761,2.893,5.786,6.075,6.275,1.624.223,3.427.868,3.383,1.981-.134,2.114-4.5,2-6.476-.4l-3.16,2.96a8.662,8.662,0,0,0,6.721,3.583c3.627,0,7.655-2.092,7.811-5.919.223-4.829-3.293-6.053-6.81-6.7Zm-14.91,12.351h4.985V46.424h-4.985Zm84.051-19.761H183.3v8.3l4.918,4.428V51.1h2.626c1.669,0,2.492.8,2.492,2.092v6.164c0,1.291-.779,2.159-2.492,2.159h-7.566v4.7h7.41c3.961.022,7.677-1.958,7.677-6.5V53.078c0-4.629-3.716-6.654-7.677-6.654Zm-36.251-.267c-4.095,0-8.167,2.225-8.167,6.787v6.743c0,4.517,4.095,6.787,8.211,6.787,4.095,0,8.167-2.27,8.167-6.787V52.945C162.654,48.4,158.537,46.157,154.442,46.157Zm3.2,13.53c0,1.424-1.6,2.159-3.182,2.159-1.6,0-3.2-.69-3.2-2.159V52.945c0-1.446,1.558-2.225,3.115-2.225,1.625,0,3.271.69,3.271,2.225Zm22.9-6.743c-.111-4.629-3.271-6.5-7.344-6.5h-7.9V66.208h5.051V59.932h.89l4.584,6.275h6.231l-5.385-6.787C179.054,58.664,180.545,56.594,180.545,52.945Zm-7.255,2.67h-2.937V51.1h2.937A2.261,2.261,0,1,1,173.291,55.615Z" fill="#7289da"/>
  </g>
</svg>
