<svg xmlns="http://www.w3.org/2000/svg" width="110.504" height="105.477" viewBox="0 0 110.504 105.477">
  <g id="pic-4" transform="translate(0 -10.676)">
    <path id="Path_1669" data-name="Path 1669" d="M206.29,77.1a8.92,8.92,0,0,0-9.126-1.949,2.512,2.512,0,0,0-1.688,2.009l-.7,4.832a14.9,14.9,0,0,1-14.686,12.748H170.041a2.511,2.511,0,0,0-2.436,1.9l-7.534,30.136a2.511,2.511,0,0,0,2.436,3.119h12.557a2.511,2.511,0,0,0,2.436-1.9l4.546-18.187h9.794a16.288,16.288,0,0,0,15.872-12.4l1.853-7.429A13.208,13.208,0,0,0,206.29,77.1Z" transform="translate(-122.326 -48.903)" fill="#03a9f4"/>
    <g id="Group_1829" data-name="Group 1829" transform="translate(0 86.017)">
      <path id="Path_1670" data-name="Path 1670" d="M2.511,355.79a2.511,2.511,0,0,1-2.436-3.119l2.511-10v-.105l2.511-9.99a2.511,2.511,0,0,1,2.436-1.9h6.389a6.279,6.279,0,0,1,6.093,7.8l-.628,2.511a6.279,6.279,0,0,1-6.092,4.757H6.986l-2.034,8.142A2.511,2.511,0,0,1,2.511,355.79Zm5.731-15.068h5.053a1.256,1.256,0,0,0,1.216-.954l.628-2.511a1.25,1.25,0,0,0-1.216-1.562H9.5Z" transform="translate(0 -330.677)" fill="#283593"/>
      <path id="Path_1671" data-name="Path 1671" d="M90.508,388.393H86.932a6.961,6.961,0,0,1-6.755-8.649h0l.331-1.336a6.7,6.7,0,0,1,6.529-5.088h3.576a6.962,6.962,0,0,1,6.741,8.654l-.332,1.336A6.7,6.7,0,0,1,90.508,388.393Zm-5.455-7.429a1.939,1.939,0,0,0,1.879,2.406h3.576a1.683,1.683,0,0,0,1.637-1.276l.332-1.336a1.939,1.939,0,0,0-1.879-2.406H87.023a1.683,1.683,0,0,0-1.637,1.276Z" transform="translate(-61.141 -363.28)" fill="#283593"/>
      <path id="Path_1672" data-name="Path 1672" d="M130.511,388.4a2.511,2.511,0,0,1-2.436-3.119l2.511-10.045a2.513,2.513,0,0,1,4.877,1.216L132.952,386.5A2.511,2.511,0,0,1,130.511,388.4Z" transform="translate(-97.864 -363.289)" fill="#283593"/>
    </g>
    <g id="Group_1830" data-name="Group 1830" transform="translate(60.273 86.017)">
      <path id="Path_1673" data-name="Path 1673" d="M258.511,355.789a2.511,2.511,0,0,1-2.436-3.119l2.511-10v-.106l2.511-9.99a2.511,2.511,0,0,1,2.436-1.9h6.389a6.279,6.279,0,0,1,6.093,7.8l-.628,2.511a6.279,6.279,0,0,1-6.092,4.757h-6.309l-2.034,8.142A2.512,2.512,0,0,1,258.511,355.789Zm5.731-15.068H269.3a1.256,1.256,0,0,0,1.216-.954l.628-2.511a1.25,1.25,0,0,0-1.216-1.562H265.5Z" transform="translate(-256 -330.676)" fill="#03a9f4"/>
      <path id="Path_1674" data-name="Path 1674" d="M346.508,388.393h-3.576a6.961,6.961,0,0,1-6.755-8.649h0l.331-1.336a6.7,6.7,0,0,1,6.529-5.088h3.576a6.962,6.962,0,0,1,6.756,8.649l-.332,1.336A6.7,6.7,0,0,1,346.508,388.393Zm-5.455-7.429a1.939,1.939,0,0,0,1.879,2.406h3.576a1.683,1.683,0,0,0,1.637-1.276l.332-1.336a1.939,1.939,0,0,0-1.879-2.406h-3.576a1.683,1.683,0,0,0-1.637,1.276Z" transform="translate(-317.141 -363.28)" fill="#03a9f4"/>
      <path id="Path_1675" data-name="Path 1675" d="M386.511,388.4a2.511,2.511,0,0,1-2.436-3.119l2.511-10.045a2.513,2.513,0,0,1,4.877,1.216h0L388.952,386.5A2.511,2.511,0,0,1,386.511,388.4Z" transform="translate(-353.864 -363.289)" fill="#03a9f4"/>
    </g>
    <g id="Group_1831" data-name="Group 1831" transform="translate(40.18 96.059)">
      <path id="Path_1676" data-name="Path 1676" d="M178.2,385.889a2.512,2.512,0,0,1-2.09-1.12l-5.023-7.534a2.512,2.512,0,1,1,4.179-2.788l5.023,7.534a2.511,2.511,0,0,1-2.09,3.908Z" transform="translate(-170.661 -373.329)" fill="#283593"/>
      <path id="Path_1677" data-name="Path 1677" d="M173.177,393.438a2.511,2.511,0,0,1-1.929-4.119l12.557-15.068a2.512,2.512,0,0,1,3.857,3.219h0l-12.557,15.068A2.511,2.511,0,0,1,173.177,393.438Z" transform="translate(-170.666 -373.344)" fill="#283593"/>
    </g>
    <path id="Path_1678" data-name="Path 1678" d="M429.177,355.781a2.511,2.511,0,0,1-2.436-3.119l5.023-20.091a2.513,2.513,0,1,1,4.877,1.216h0l-5.023,20.091A2.511,2.511,0,0,1,429.177,355.781Z" transform="translate(-326.212 -244.651)" fill="#03a9f4"/>
    <path id="Path_1679" data-name="Path 1679" d="M157.221,15.021a12.692,12.692,0,0,0-9.573-4.345H119.219a2.511,2.511,0,0,0-2.471,2.064L106.7,67.99a2.511,2.511,0,0,0,2.471,2.958h15.068a2.511,2.511,0,0,0,2.436-1.9l4.551-18.187h8.081A19.95,19.95,0,0,0,158.974,33.78l1.256-8.584h0A12.792,12.792,0,0,0,157.221,15.021Z" transform="translate(-81.549 0)" fill="#283593"/>
  </g>
</svg>
