<svg xmlns="http://www.w3.org/2000/svg" width="696.471" height="301.948" viewBox="0 0 696.471 301.948">
  <g id="policy-1" transform="translate(-1785.529 -6479)">
    <g id="Group_8104" data-name="Group 8104" transform="translate(562 6358)">
      <g id="Group_7476" data-name="Group 7476" transform="translate(1313.844 121)">
        <path id="Path_7758" data-name="Path 7758" d="M558.28,453.81l-7.406-.17c2.38,3.084,2.914,5.924,1.432,8.328-1.481,2.452-5.026,4.468-10.319,6a95.552,95.552,0,0,0-22-101.055,95.8,95.8,0,0,0-104.867-20.517c-1.408.607-2.817,1.238-4.176,1.894l-.013.006c-4.113-1.255-8.12-2.284-11.986-3.067-19.514-3.96-33.362-1.223-38.987,7.707-5.353,8.493-2.439,21.277,8.184,36.187l0,.007c-1.433,2.647-2.719,5.366-3.909,8.182-.9,2.112-1.7,4.225-2.428,6.386-19.958,1.19-30.642,4.7-34.527,11.064-4.516,7.405,1.651,17.344,21.391,27.008,2.719,1.335,5.633,2.646,8.692,3.957a93.534,93.534,0,0,0,6.871,26.029,95.669,95.669,0,0,0,175.863.9c9.736-2.015,16.146-5.172,18.7-9.348C560.563,460.414,560.344,457.209,558.28,453.81Zm-22.848,15.661a147.468,147.468,0,0,1-24.013,1.942,351.809,351.809,0,0,1-49.226-3.316q2.239-4.874,4.383-10a135.4,135.4,0,0,0,15.941,4.334,80.753,80.753,0,0,0,15.917,1.77c11.144,0,19.128-3.217,23.07-9.476a16.362,16.362,0,0,0,1.586-3.279h-5.681c-.094.173-.194.344-.3.51C514.182,456.6,507.636,459,498.446,459a75.8,75.8,0,0,1-14.9-1.665,129.891,129.891,0,0,1-15-4.058q2.052-5.133,3.982-10.451c3.463-9.548,6.427-19.012,8.825-28.1a241.319,241.319,0,0,0,35.123,2.42q11.64,0,24.118-.94a90.6,90.6,0,0,1,1.857,18.325A89.528,89.528,0,0,1,535.432,469.471Zm-118.35,47.414c-2.763-1-4.165-4.967-4.855-8.117-1.091-4.978-1.288-11.971-.57-20.221.363-4.173.946-8.61,1.732-13.25a246.054,246.054,0,0,1,33.458,11.578c-2.46,4.241-4.947,8.174-7.434,11.739-4.738,6.792-9.372,12.033-13.4,15.154C423.463,515.742,419.845,517.887,417.082,516.884Zm32.266-34.451A251.114,251.114,0,0,0,414.3,470.3q.627-3.231,1.375-6.57,4.951,1.126,10.037,2.176c9.918,2.028,19.812,3.751,29.5,5.144Q452.329,477,449.348,482.434Zm-21.453-20.126q-5.748-1.183-11.32-2.468c1.747-7.27,3.894-14.85,6.4-22.573a221.525,221.525,0,0,0,38.814,19.142q-2.36,5.634-4.84,10.964C447.421,466.008,437.674,464.313,427.895,462.308Zm-31.813-98.137a59.482,59.482,0,0,0,3.521,6.2,84.093,84.093,0,0,0,21.417,21.95,104.883,104.883,0,0,0,11.269,7.016c-3.638,7.927-7.1,16.386-10.288,25.17q-.891,2.457-1.736,4.9c-19.029-12.386-35.139-26.6-45.707-40.354l0-.006a90.471,90.471,0,0,1,9.077-12.789c1.408-1.651,2.865-3.254,4.395-4.807l.631-.631A91.01,91.01,0,0,1,396.082,364.171Zm81.365-13.726c2.763,1,4.165,4.968,4.856,8.118,1.09,4.978,1.288,11.971.57,20.221a201.788,201.788,0,0,1-5.285,30.21q-4.876-.839-9.517-1.9a136.849,136.849,0,0,1-29.116-10.038,205.548,205.548,0,0,1,16.162-28.337c4.738-6.792,9.372-12.032,13.4-15.154,2.1-1.629,4.931-3.372,7.408-3.372A4.441,4.441,0,0,1,477.447,350.445Zm-10.859,61.5q4.747,1.1,9.74,1.966c-2.336,8.789-5.213,17.942-8.565,27.184q-1.938,5.344-4.006,10.507a216.9,216.9,0,0,1-39.1-19.4q1.019-2.978,2.1-5.973c3.114-8.587,6.494-16.851,10.038-24.59A141.686,141.686,0,0,0,466.588,411.949Zm49.469-41.13a89.753,89.753,0,0,1,23.355,40.391c-20.766,1.519-39.795,1.042-56.8-1.42a206.123,206.123,0,0,0,5.314-30.568c.88-10.12.773-22.106-3.33-28.852q1.427.548,2.84,1.145A89.449,89.449,0,0,1,516.057,370.819Zm-63.687-26.393a90.238,90.238,0,0,1,18.379,1.874c-7.077,3.081-14.3,11.655-19.788,19.517a210.453,210.453,0,0,0-16.512,28.919,99.957,99.957,0,0,1-10.124-6.289,78.04,78.04,0,0,1-20.273-20.537,53.231,53.231,0,0,1-3.839-6.861,90.064,90.064,0,0,1,11.644-7.026h0q2.481-1.253,5.053-2.349c.124-.053.247-.107.371-.16l.087-.037q.548-.231,1.1-.453l.3-.117A89.478,89.478,0,0,1,452.369,344.427ZM364.355,355.7c2.929-4.65,9.474-7.049,18.664-7.049a75.8,75.8,0,0,1,14.9,1.665q3.132.634,6.389,1.492h.006a94.039,94.039,0,0,0-19.588,15.1c-1.238,1.214-2.428,2.477-3.593,3.788-1.457,1.6-2.841,3.278-4.176,4.977a96.426,96.426,0,0,0-5.924,8.474l0,.007C362.9,372.1,360.463,361.875,364.355,355.7Zm4.976,43.769c.8-1.845,1.627-3.666,2.525-5.439l0,0c11.128,13.909,27.53,28.128,46.695,40.461-2.717,8.271-5.036,16.4-6.907,24.188A370.454,370.454,0,0,1,373.458,447.4c-2.38-.85-4.686-1.724-6.9-2.6-1.311-.51-2.6-1.044-3.861-1.578-.194-1.943-.34-3.909-.388-5.876-.024-.947-.049-1.869-.049-2.816,0-1.093.024-2.21.049-3.3a91.122,91.122,0,0,1,4.128-23.892c.413-1.311.85-2.6,1.335-3.885C368.262,402.117,368.772,400.781,369.331,399.47ZM353.087,438.9c-17.215-8.4-25.082-16.511-21.561-22.265,2.841-4.662,13.184-7.818,29.015-8.984a93.02,93.02,0,0,0-3.594,20.2c-.146,2.039-.218,4.079-.243,6.143v.534c0,2.064.073,4.128.194,6.167C355.588,440.116,354.325,439.509,353.087,438.9Zm13.063,10.319c2.331.874,4.711,1.748,7.163,2.6,11.273,3.906,23.91,7.537,37.427,10.758q-.736,3.285-1.359,6.473-1.657-.4-3.316-.782A201.422,201.422,0,0,0,366.853,463a88.044,88.044,0,0,1-3.544-14.874Zm3.181,20.371q-.309-.734-.6-1.471a207.92,207.92,0,0,1,36.4,5.131q1.668.381,3.333.79c-.845,4.929-1.469,9.639-1.854,14.066-.729,8.387-.781,18.057,1.558,24.962a90.618,90.618,0,0,1-38.836-43.477Zm118.1,47.954a90.405,90.405,0,0,1-62.38,2.874c6.665-3.493,13.361-11.516,18.518-18.908,2.66-3.813,5.318-8.032,7.942-12.587A254.629,254.629,0,0,1,494.854,514Q491.237,515.933,487.43,517.546Zm28.626-19.3a89.424,89.424,0,0,1-16.387,12.989A259.935,259.935,0,0,0,454,484.489c2.2-4.025,4.362-8.277,6.476-12.715a389.241,389.241,0,0,0,41.525,3.4c3.351.1,6.6.1,9.761.073a173.713,173.713,0,0,0,21.707-1.457A89.51,89.51,0,0,1,516.057,498.243Z" transform="translate(-319.599 -320.673)" fill="#adcbf9"/>
        <g id="Group_7474" data-name="Group 7474" transform="translate(89.415 0)">
          <path id="Path_7759" data-name="Path 7759" d="M762,283.433l-22.629,3.843,14.8-10.674.854,3.273,5.55.854Z" transform="translate(-739.368 -270.909)" fill="#456aa3"/>
          <path id="Path_7760" data-name="Path 7760" d="M739.368,283.317l18.644-10.247,18.5-1.423Z" transform="translate(-739.368 -266.95)" fill="#adcbf9"/>
          <path id="Path_7761" data-name="Path 7761" d="M754.169,253.983l-14.8,10.674,11.243-16.367Z" transform="translate(-739.368 -248.29)" fill="#adcbf9"/>
        </g>
        <g id="Group_7475" data-name="Group 7475" transform="translate(0 57.178)">
          <path id="Path_7762" data-name="Path 7762" d="M357.728,564.675l21.419,8.25-12.393-13.4-1.486,3.039-5.61-.263Z" transform="translate(-345.05 -554.126)" fill="#456aa3"/>
          <path id="Path_7763" data-name="Path 7763" d="M328.775,551.453l-16.243-13.738-17.853-5.061Z" transform="translate(-294.679 -532.654)" fill="#adcbf9"/>
          <path id="Path_7764" data-name="Path 7764" d="M402.617,540.161l12.393,13.4-7.777-18.27Z" transform="translate(-380.913 -534.757)" fill="#adcbf9"/>
        </g>
      </g>
      <path id="Path_7765" data-name="Path 7765" d="M1021.986,1479.839H325.515s76.87-30.834,112.228-18.583,96.127-2.9,114.149-18.8,43.812,22.943,67.31,13.266,33.144-50.436,64.38-41.576,17.9,58.377,38.924,31.4,63.421-42.167,73.274-9.318S914.477,1429.464,1021.986,1479.839Z" transform="translate(898.014 -1057.719)" fill="#a8d29f"/>
      <rect id="Rectangle_3195" data-name="Rectangle 3195" width="13.591" height="10.593" transform="translate(1693.189 201.773)" fill="#fff"/>
      <path id="Path_7766" data-name="Path 7766" d="M2000.036,660.942l-2.4,9.636h-18.458l3.8-14.067a8.814,8.814,0,0,1,8.509-6.516h0A8.814,8.814,0,0,1,2000.036,660.942Z" transform="translate(-284.623 -448.223)" fill="#a0c0ef"/>
      <g id="Group_7477" data-name="Group 7477" transform="translate(1468.725 220.247)">
        <path id="Path_7767" data-name="Path 7767" d="M1436.238,1078.442l10.607,126.116s1.112,7.645-4.575,7.658c-9.35.022-46.536,0-46.536,0s7.037-1.591,6.951-5.172c-.1-4.221-12.4-129.8-12.4-129.8Z" transform="translate(-1282.869 -1009.813)" fill="#4c6fb9"/>
        <path id="Path_7768" data-name="Path 7768" d="M1426.9,1200.837c-9.106.117-44.623.005-46.463,0,.692,0,6.034-.132,6.789-4.152a5.381,5.381,0,0,0,.089-1.02c0-.787-.436-5.776-1.137-13.38-.627-6.819-1.471-15.738-2.417-25.609-3.663-38.255-8.843-90.806-8.843-90.806l45.951,1.193,7.537,89.613,1.471,17.49,1.323,15.736.276,3.278S1432.768,1200.763,1426.9,1200.837Z" transform="translate(-1270.587 -1000.723)" fill="#586db0"/>
        <path id="Path_7769" data-name="Path 7769" d="M1121.028,741.879l-25.836,103.778-3.538,14.213-12.033,48.337H856.066l44.352-166.327Z" transform="translate(-856.066 -741.878)" fill="#6979b8"/>
        <path id="Path_7770" data-name="Path 7770" d="M2009.282,741.878l3.581,1.193-40.227,168.744-4.76-3.61Z" transform="translate(-1744.319 -741.878)" fill="#586db0"/>
        <path id="Path_7771" data-name="Path 7771" d="M1084.385,1572.685H862.2l-6.135-3.61h223.555Z" transform="translate(-856.069 -1402.747)" fill="#4c6fb9"/>
        <rect id="Rectangle_3196" data-name="Rectangle 3196" width="48.105" height="2.286" transform="translate(102.188 200.165)" fill="#6979b8"/>
        <path id="Path_7772" data-name="Path 7772" d="M1470.57,1586.665l-.3,3.578-.011.132s-31.249,3-43.688,7.988c-.313-3.418-.683-7.366-1.092-11.7Z" transform="translate(-1310.984 -1416.8)" fill="#4c6fb9"/>
        <path id="Path_7773" data-name="Path 7773" d="M1448.822,1693.653c-9.106.117-44.623.005-46.463,0,.692,0,6.034-.132,6.789-4.152,3.658.189,24,.839,43.974-6.783l.276,3.278S1454.695,1693.579,1448.822,1693.653Z" transform="translate(-1292.514 -1493.539)" fill="#4c6fb9" opacity="0.4"/>
        <path id="Path_7774" data-name="Path 7774" d="M1675.506,1406.685l-8.129,32.652h-75.266c31.825-10.11,46.889-24.9,52.96-32.652Z" transform="translate(-1444.111 -1273.009)" fill="#4c6fb9" opacity="0.4"/>
        <path id="Path_7775" data-name="Path 7775" d="M1164.543,752.814,1132.66,884.29H912.642L948.37,752.814Z" transform="translate(-901.266 -750.614)" fill="#d2e4ff"/>
        <path id="Path_7776" data-name="Path 7776" d="M897.3,1406.685h2.72l-.545,2-2.632-.3Z" transform="translate(-888.644 -1273.009)" fill="#6979b8"/>
        <path id="Path_7777" data-name="Path 7777" d="M2167.463,741.875v2.2h-2.043l.533-2.2Z" transform="translate(-1902.143 -741.875)" fill="#6979b8"/>
      </g>
      <path id="Path_7778" data-name="Path 7778" d="M1000.985,853.273H1152.2L1202.886,650H1060.26a11,11,0,0,0-10.672,8.338Z" transform="translate(496.879 -448.223)" fill="#fff"/>
      <g id="Group_7479" data-name="Group 7479" transform="translate(1534.492 254.357)">
        <g id="Group_7478" data-name="Group 7478" transform="translate(9.046 0)">
          <path id="Path_7779" data-name="Path 7779" d="M1259.378,1094.644h100.174a3.094,3.094,0,0,0,2.82-2.257l.211-.846a1.71,1.71,0,0,0-1.695-2.258H1260.715a3.094,3.094,0,0,0-2.821,2.258l-.211.846A1.709,1.709,0,0,0,1259.378,1094.644Z" transform="translate(-1251.687 -1053.538)" fill="#a0c0ef"/>
          <path id="Path_7780" data-name="Path 7780" d="M1303.7,916.875h100.174a3.094,3.094,0,0,0,2.82-2.257l.211-.846a1.71,1.71,0,0,0-1.695-2.258H1305.037a3.1,3.1,0,0,0-2.82,2.258l-.211.846A1.709,1.709,0,0,0,1303.7,916.875Z" transform="translate(-1287.098 -911.514)" fill="#a0c0ef"/>
          <path id="Path_7781" data-name="Path 7781" d="M1288.3,978.627h100.174a3.094,3.094,0,0,0,2.82-2.258l.211-.846a1.709,1.709,0,0,0-1.695-2.257H1289.641a3.094,3.094,0,0,0-2.82,2.257l-.211.846A1.71,1.71,0,0,0,1288.3,978.627Z" transform="translate(-1274.798 -960.849)" fill="#a0c0ef"/>
          <path id="Path_7782" data-name="Path 7782" d="M1273.841,1036.636h100.174a3.1,3.1,0,0,0,2.82-2.257l.211-.846a1.71,1.71,0,0,0-1.695-2.257H1275.178a3.094,3.094,0,0,0-2.82,2.257l-.211.846A1.709,1.709,0,0,0,1273.841,1036.636Z" transform="translate(-1263.243 -1007.194)" fill="#a0c0ef"/>
          <path id="Path_7783" data-name="Path 7783" d="M1229.9,1212.869h100.174a3.1,3.1,0,0,0,2.821-2.258l.211-.846a1.71,1.71,0,0,0-1.7-2.258H1231.238a3.094,3.094,0,0,0-2.821,2.258l-.211.846A1.71,1.71,0,0,0,1229.9,1212.869Z" transform="translate(-1228.137 -1147.99)" fill="#a0c0ef"/>
          <path id="Path_7784" data-name="Path 7784" d="M1244.365,1154.86h100.174a3.1,3.1,0,0,0,2.82-2.258l.211-.846a1.709,1.709,0,0,0-1.695-2.257H1245.7a3.094,3.094,0,0,0-2.821,2.257l-.211.846A1.71,1.71,0,0,0,1244.365,1154.86Z" transform="translate(-1239.693 -1101.646)" fill="#a0c0ef"/>
        </g>
        <path id="Path_7785" data-name="Path 7785" d="M1185.241,1395.161h24.33a3.674,3.674,0,0,0,3.349-2.681h0a2.03,2.03,0,0,0-2.012-2.681h-24.33a3.675,3.675,0,0,0-3.349,2.681h0A2.03,2.03,0,0,0,1185.241,1395.161Z" transform="translate(-1183.147 -1293.629)" fill="#a0c0ef"/>
        <path id="Path_7786" data-name="Path 7786" d="M1555.929,1395.161h24.33a3.675,3.675,0,0,0,3.349-2.681h0a2.03,2.03,0,0,0-2.012-2.681h-24.33a3.674,3.674,0,0,0-3.349,2.681h0A2.03,2.03,0,0,0,1555.929,1395.161Z" transform="translate(-1479.299 -1293.629)" fill="#a0c0ef"/>
      </g>
      <g id="Group_7480" data-name="Group 7480" transform="translate(1519.219 367.359)">
        <path id="Path_7787" data-name="Path 7787" d="M1145.486,1490.889H1110a2.771,2.771,0,0,1-2.249-1.023,2.936,2.936,0,0,1-.457-2.574l2.558-10.259a4.828,4.828,0,0,1,4.411-3.528h35.482a2.77,2.77,0,0,1,2.249,1.023,2.937,2.937,0,0,1,.457,2.574l-2.558,10.259A4.827,4.827,0,0,1,1145.486,1490.889Zm-31.218-17.1a4.528,4.528,0,0,0-4.135,3.312l-2.558,10.259a2.659,2.659,0,0,0,.4,2.33,2.492,2.492,0,0,0,2.024.913h35.482a4.528,4.528,0,0,0,4.135-3.312l2.558-10.259a2.658,2.658,0,0,0-.4-2.33,2.491,2.491,0,0,0-2.025-.913Z" transform="translate(-1107.189 -1473.504)" fill="#476ba7"/>
      </g>
      <g id="Group_7481" data-name="Group 7481" transform="translate(1593.881 367.359)">
        <path id="Path_7788" data-name="Path 7788" d="M1516.8,1490.889h-35.482a2.771,2.771,0,0,1-2.249-1.023,2.936,2.936,0,0,1-.456-2.574l2.558-10.259a4.827,4.827,0,0,1,4.411-3.528h35.482a2.772,2.772,0,0,1,2.249,1.023,2.938,2.938,0,0,1,.456,2.574l-2.558,10.259A4.827,4.827,0,0,1,1516.8,1490.889Zm-31.218-17.1a4.528,4.528,0,0,0-4.135,3.312l-2.558,10.259a2.659,2.659,0,0,0,.4,2.33,2.493,2.493,0,0,0,2.025.913H1516.8a4.528,4.528,0,0,0,4.135-3.312l2.558-10.259a2.657,2.657,0,0,0-.4-2.33,2.49,2.49,0,0,0-2.024-.913Z" transform="translate(-1478.506 -1473.504)" fill="#476ba7"/>
      </g>
      <path id="Path_7789" data-name="Path 7789" d="M1563.94,1466.5q-8.084,3.34-16.048,7.3.315-.892.566-1.786c.134-.478-.511-.8-.91-.27a8.535,8.535,0,0,1-.563.668c.135-.428-.371-.667-.8-.353-.029.021-.055.043-.082.065.21-.575-.685-.662-1.019-.1l-.5.833a3.493,3.493,0,0,1-1.606,1.072,2.723,2.723,0,0,1-.237-.894.4.4,0,0,0-.414-.379c-.01-.293-.274-.466-.664-.292a3.655,3.655,0,0,0-1.222.9c-.266-.5-1.118-.141-1.576.335.013-.027.026-.053.039-.08.216-.461-.185-.987-.725-.522a6.525,6.525,0,0,0-1.984,2.908,11.255,11.255,0,0,1-1.015,1c-.177.152-1,.914-1.188.847s-.084-.536,0-.869l.088-.123c.683-.951,3.981-5.432,1.657-5.392a.833.833,0,0,0-.646.394,15.449,15.449,0,0,0-1.9,4.056c-.076.263-.182.6-.269.959q-.1.136-.2.271c-.922,1.209-2.2,2.954-3.693,3.55-.138-1.894.818-4.136,1.54-6.123q.468-1.286.974-2.569a.72.72,0,0,0,.322-.167c1.615-1.359,2.275-3.375,1.543-4.73-.211-.391-.854-.035-1.04.379q-1.668,3.742-3.025,7.512c-.8,2.227-1.706,4.579-1.373,6.634.035.217.289.3.525.246,1.7-.372,3.19-1.889,4.386-3.4a.71.71,0,0,0,.467.412c.794.235,1.877-.647,2.656-1.385a3.1,3.1,0,0,0,.139.749c.084.26.354.319.67.193a6.178,6.178,0,0,0,2.007-1.342,4.328,4.328,0,0,0,2.008-1.611,10.636,10.636,0,0,0,.989-.987,1.516,1.516,0,0,0,.276.5c.29.332,1.022.031,1.489-.182a4.923,4.923,0,0,0,1.226-.806,2.435,2.435,0,0,0,.844-.229.686.686,0,0,0,.2.209.874.874,0,0,0,.974-.092c-.077.216-.155.433-.237.649q-1.16.585-2.317,1.182c-.509.263-.629,1.042-.057,1l2.125-.162a.844.844,0,0,0,.712-.536q.188-.426.36-.851,8.311-4.165,16.774-7.664C1564.9,1467.13,1564.657,1466.205,1563.94,1466.5Zm-24.693,8.154a3.482,3.482,0,0,1-.175.443c-.048.1-.1.2-.158.3A3.761,3.761,0,0,1,1539.247,1474.656Zm-1.56,1.329a1.323,1.323,0,0,0-.018.807,4.864,4.864,0,0,1-.531.352,3.052,3.052,0,0,1,.061-.992c.246-.29.477-.589.691-.895A5.3,5.3,0,0,0,1537.687,1475.985Z" transform="translate(75.922 -1100.505)" fill="#365da2"/>
      <g id="Group_7482" data-name="Group 7482" transform="translate(1528.213 362.457)">
        <path id="Path_7790" data-name="Path 7790" d="M1164.393,1449.363c-1.907,3.546-2.978,7.185-4.528,10.773a28.784,28.784,0,0,1-2.8,5.146c-.8,1.15-2.559,3.649-4.045,3.108-.37-.135-.474-.452-.353-.885.027-.1.059-.194.093-.293a.82.82,0,0,0,.771-.09,2.766,2.766,0,0,0,1.1-1.221c.223-.482.187-.985-.2-1.2a1.1,1.1,0,0,0-1.21.34,4.043,4.043,0,0,0-.775,1.373,4.241,4.241,0,0,0-.524,1.724c.054.819.937,1.109,1.8.92a5.512,5.512,0,0,0,2.686-1.981,23.035,23.035,0,0,0,2.2-3.1,43.018,43.018,0,0,0,3.071-6.68,65.519,65.519,0,0,1,3.3-7.756C1165.2,1449.123,1164.618,1448.945,1164.393,1449.363Zm-10.329,16.1c.065.251-.178.579-.376.811a1.314,1.314,0,0,1-.226.223.775.775,0,0,1-.161.1.243.243,0,0,0-.05.012.216.216,0,0,0-.2-.112c.084-.188.171-.373.255-.55C1153.43,1465.679,1153.929,1464.938,1154.065,1465.464Z" transform="translate(-1151.913 -1449.125)" fill="#365da2"/>
        <path id="Path_7791" data-name="Path 7791" d="M1207.406,1501.7a4.255,4.255,0,0,1-1.211.5,1.155,1.155,0,0,1-.31.009,1.908,1.908,0,0,0,.6-.94c.072-.514-.495-.633-.975-.368a1.476,1.476,0,0,0-.734,1.108.756.756,0,0,0,.059.365,2.689,2.689,0,0,1-1.564.628,5.686,5.686,0,0,0,1.439-1.422.3.3,0,0,0,.021-.323.947.947,0,0,0-1.211-.093,2.426,2.426,0,0,0-1.04,1.252,1.781,1.781,0,0,0-.133.458,3.6,3.6,0,0,1-1.537.348v-.009q.242-.224.475-.456c.233-.232.094-.47-.123-.5a.99.99,0,0,0-.988.773,14.779,14.779,0,0,1-2.437,1.765c-.216.124-.508.376-.652.216a7.592,7.592,0,0,0,.989-.874c.586-.618,1.166-1.721.473-2.1a.4.4,0,0,0-.493.119l-.914,1.214a5.3,5.3,0,0,0-.7,1.09,1.416,1.416,0,0,0-.1.381,6.622,6.622,0,0,1-.966.5l-.083.034q.27-.215.537-.432a2.225,2.225,0,0,0,.988-1.462,1.64,1.64,0,0,0-.637-1.224c-.087-.086-.293-.044-.419.052a6.573,6.573,0,0,0-2.167,2.782,1.085,1.085,0,0,0-.031.911q-1.3.992-2.634,1.939c-.094.067-.323.276-.415.245s-.05-.23-.05-.322a6.333,6.333,0,0,1,.042-.745,7.371,7.371,0,0,1,.405-1.666,9.009,9.009,0,0,1,.676-1.44.355.355,0,0,0,.372-.069,2.268,2.268,0,0,0,.935-1.924c-.023-.234-.4-.2-.573,0a9.345,9.345,0,0,0-2.551,6.229c.019.447.222.822.82.573a4.326,4.326,0,0,0,.775-.5q.487-.347.969-.7.907-.664,1.8-1.349a3.083,3.083,0,0,0,1.068-.24,7.26,7.26,0,0,0,1.231-.589.616.616,0,0,0,.647.307,3.425,3.425,0,0,0,1.08-.545c.36-.218.715-.448,1.06-.694s.66-.493.976-.759c.073.1.2.131.416.137a3.674,3.674,0,0,0,.911-.1,4.813,4.813,0,0,0,.983-.346.62.62,0,0,0,.161.111,1.772,1.772,0,0,0,1.33-.082,5.017,5.017,0,0,0,1.251-.7,1.222,1.222,0,0,0,.366.1,3.657,3.657,0,0,0,1.94-.6C1207.986,1502.045,1207.842,1501.471,1207.406,1501.7Zm-12.982,3.006a5.7,5.7,0,0,1,1.381-1.716.772.772,0,0,1,.134,1.079,4.156,4.156,0,0,1-.715.631q-.41.327-.823.65l-.217.167C1194.089,1505.332,1194.319,1504.91,1194.424,1504.708Zm3.728-1.749a2.733,2.733,0,0,1-.714,1.021c-.044.043-.089.085-.135.127C1197.551,1503.717,1197.855,1503.335,1198.151,1502.959Zm5.8-1.315a4.384,4.384,0,0,1-.846.794C1203.277,1502.058,1203.68,1501.623,1203.949,1501.644Zm1.593-.018c.04-.067.229-.278.2-.134a1.152,1.152,0,0,1-.269.333A.508.508,0,0,1,1205.542,1501.626Z" transform="translate(-1182.148 -1490.385)" fill="#365da2"/>
      </g>
      <g id="Group_7483" data-name="Group 7483" transform="translate(1332.943 192.398)">
        <path id="Path_7792" data-name="Path 7792" d="M457.081,773.041s-17.371,17.932-18.2,24.694,8.265,17.34,8.265,17.34Z" transform="translate(-437.937 -738.926)" fill="#4a75cb"/>
        <path id="Path_7793" data-name="Path 7793" d="M566.565,1686.031s.591,9.533,2.435,9.67c.245.018,9.355.018,9.355.018l11.628-.067a3.773,3.773,0,0,0-3.475-3.394c-3.4-.592-9.088-2.981-11.147-7.474C573.195,1680.057,566.565,1686.031,566.565,1686.031Z" transform="translate(-539.994 -1465.887)" fill="#163560"/>
        <path id="Path_7794" data-name="Path 7794" d="M437.755,1686.031s.591,9.533,2.435,9.67c.245.018,9.355.018,9.355.018l11.664-.042a3.846,3.846,0,0,0-3.51-3.42c-3.4-.592-9.088-2.981-11.148-7.474C444.385,1680.057,437.755,1686.031,437.755,1686.031Z" transform="translate(-437.084 -1465.887)" fill="#163560"/>
        <path id="Path_7795" data-name="Path 7795" d="M473.869,1131.879s-3.041,19.451-14.387,53.98-12.891,49.481-12.891,49.481a49.965,49.965,0,0,1-6.31.445,39.955,39.955,0,0,1-5.861-.786s-.1-37.736,5.125-55.1,1.128-62.6,1.128-62.6Z" transform="translate(-434.42 -1013.965)" fill="#355493"/>
        <path id="Path_7796" data-name="Path 7796" d="M519.979,1122.6a472.091,472.091,0,0,1-4.641,65.3c-5.071,35.99-3.352,51.267-3.352,51.267s-4.175.748-5.642.8c-1.57.052-6.5-.393-6.5-.393s-7.259-36-5.178-54.017-9.94-61.812-9.94-61.812Z" transform="translate(-474.608 -1018.199)" fill="#415da5"/>
        <path id="Path_7797" data-name="Path 7797" d="M543.127,723.889l5.729,4.243,8.28-1.743c-.115-.755-.661-3.884-1.159-6.719-.03-.167-.06-.334-.089-.5-.426-2.412-.794-4.484-.794-4.484l-7.733-3.854-2.883-1.437c.008.051.224,2.677.254,3.06A24.76,24.76,0,0,1,543.127,723.889Z" transform="translate(-521.269 -688.08)" fill="#ffb27d"/>
        <path id="Path_7798" data-name="Path 7798" d="M552.764,758.969c-.181-.076-11.263-3.346-12.467-2.949s-1.917,2.727-1.917,2.727l18.125,4.1S555.08,759.944,552.764,758.969Z" transform="translate(-517.477 -725.301)" fill="#4a75cb"/>
        <path id="Path_7799" data-name="Path 7799" d="M459.668,843.909c1.878,8.569,33.139,9.585,41.2,1.807.917-.887.962-5.011.616-10.573-.676-10.866-2.848-27.211-2.932-35.562a66.117,66.117,0,0,0-1.334-11.9,96.679,96.679,0,0,0-3.965-14.247s-15.269-4.936-18.126-4.1C461.361,773.378,457.79,835.34,459.668,843.909Z" transform="translate(-454.221 -735.887)" fill="#739af0"/>
        <path id="Path_7800" data-name="Path 7800" d="M608.962,901.968c-.676-10.866-2.848-27.211-2.932-35.562a66.124,66.124,0,0,0-1.333-11.9l-9.185-1.621S586.531,889.562,608.962,901.968Z" transform="translate(-561.701 -802.713)" fill="#4a75cb"/>
        <path id="Path_7801" data-name="Path 7801" d="M625.838,1016a2.161,2.161,0,0,0,.689,2.5c1.315,1,2.168,2.633,1.866,3.822s-3.185,3.13-4.185,2.817-3.035-1.88-2.815-2.507-1.369-5.507,1.069-7.385S625.838,1016,625.838,1016Z" transform="translate(-583.551 -931.895)" fill="#ffb27d"/>
        <path id="Path_7802" data-name="Path 7802" d="M589.425,779.156s8.958,1.676,16.1,12.195,11.833,18.339,10.519,22.13-13.3,16.939-15.366,16.939-5.4-1.5-5.588-4.884c0,0,8.438-12.647,6.776-14.541-.71-.81-10.955-9.126-12.418-5.369C587.023,811.842,589.425,779.156,589.425,779.156Z" transform="translate(-557.409 -743.811)" fill="#739af0"/>
        <path id="Path_7803" data-name="Path 7803" d="M553.113,718.283c1.7,3.25,8.026,6.06,10.665,7.093-.03-.167-.06-.334-.089-.5-.426-2.412-.794-4.484-.794-4.484l-7.733-3.854C553.453,716.514,552.412,716.946,553.113,718.283Z" transform="translate(-529.07 -693.785)" fill="#fca56b"/>
        <path id="Path_7804" data-name="Path 7804" d="M553.578,649.5s-13.657,1.57-14.5-6.95-3.18-14.055,5.5-15.418,10.7,1.72,11.678,4.495S557.109,648.877,553.578,649.5Z" transform="translate(-517.289 -622.093)" fill="#ffb27d"/>
        <path id="Path_7805" data-name="Path 7805" d="M536.706,612.041s-2.607,9.231-4.471,8.454-3.567-1.414-3.821,1.47,1.817,6.664-4.261,6.026-11.745-17.7-9.546-20.312C520.952,600.153,545.516,603.061,536.706,612.041Z" transform="translate(-498.097 -603.376)" fill="#233862"/>
      </g>
      <g id="Group_7486" data-name="Group 7486" transform="translate(1689 219.489)">
        <path id="Path_7806" data-name="Path 7806" d="M2176.023,1631.636l-3.219,13.557-4.822-.027-.177-13.53Z" transform="translate(-2091.824 -1451.97)" fill="#ffb27d"/>
        <path id="Path_7807" data-name="Path 7807" d="M1956.4,1627.419l-9.159,12.979-3.57-4.583,5.512-10.181Z" transform="translate(-1912.754 -1447.176)" fill="#ffb27d"/>
        <path id="Path_7808" data-name="Path 7808" d="M2104.63,739.617a9.338,9.338,0,0,1,5.054-.967,2.365,2.365,0,0,0-1.066-.506,7.832,7.832,0,0,1,2.8.729c12.034-4.637,13.927,13.083,13.673,17.2s4.044,5.461,10.305,8.7c11.947,6.189,13,14.476,13,14.476-.093.055-.19.117-.293.188-.593-1-1.813-2.89-2.842-3.174a42.622,42.622,0,0,1,1.655,4.031c-3.524,2.681-10.117,8.621-14.713,12.833a6.753,6.753,0,0,0-.313-2.609l-.568,3.418c-2.459,2.26-4.155,3.851-4.155,3.851.3-3.327-15.046-20.883-23.054-26.141-1.95-2.87-2.643-7.94-2.694-8.339a21.894,21.894,0,0,0,1.639,7.545C2096.27,764.616,2100.218,742.124,2104.63,739.617Z" transform="translate(-2037.176 -738.106)" fill="#b64c41"/>
        <path id="Path_7809" data-name="Path 7809" d="M2125.148,859.132c-.04.018,3.867,2.047,6.805,1.243,2.765-.754,4.571-4.338,4.532-4.346-1.171-.233-1.508-1.841-1.483-8.754l-.529.1-8.9,1.762s.2,2.8.208,5.438C2125.789,856.794,2125.655,858.9,2125.148,859.132Z" transform="translate(-2057.743 -825.324)" fill="#ffb27d"/>
        <path id="Path_7810" data-name="Path 7810" d="M2127.273,849.555s.2,2.8.208,5.438c4.979-.14,7.611-4.683,8.689-7.2Z" transform="translate(-2059.442 -825.738)" fill="#d68d5d"/>
        <path id="Path_7811" data-name="Path 7811" d="M2114.824,770.332a26.172,26.172,0,0,0,3.236-7.648c.447-2.517-.835-11.846-10.21-10.5a12.739,12.739,0,0,0-5.283,2c-2.035,1.375-4.973,4.343-1.688,12.484l.853,2.75Z" transform="translate(-2037.176 -749.246)" fill="#b64c41"/>
        <path id="Path_7812" data-name="Path 7812" d="M1950.894,1253.067l4.717.144,5.106.156a100.776,100.776,0,0,0,18.407-34.177q.231-.734.489-1.485c3.62-10.556,11.125-23.806,15.08-35.8.629-1.91,1.195-3.708,1.7-5.41q.244-.818.471-1.608a127.179,127.179,0,0,0,4.536-23.88l-28.558.229A532.339,532.339,0,0,1,1950.894,1253.067Z" transform="translate(-1918.528 -1067.985)" fill="#80bdcc"/>
        <path id="Path_7813" data-name="Path 7813" d="M2063.492,923.438c.072,13.59-1.994,19.42-1.994,19.42a38.375,38.375,0,0,0,26.76,1.64c.171-.054,12.033-2.761,12.033-2.761-.243-.55-2.406-9.708-2.643-10.213-3.068-6.589-5.4-9.478-5.762-11.5a43.1,43.1,0,0,1-.354-11.385,91.372,91.372,0,0,1,3.524-17.88,93.728,93.728,0,0,1-11.892-3.987c-.948,1.18-3.744,2.373-6.257,2.317-2.895-.064-3.8-1.288-3.692-2.667-3.085,1.716-5.537,3.349-5.537,3.349-2.622,4.554-7.939,8.977-8.324,15.963C2059.258,907.447,2063.489,923.057,2063.492,923.438Z" transform="translate(-2005.178 -856.596)" fill="#e7f1fd"/>
        <path id="Path_7814" data-name="Path 7814" d="M2185.038,984.231c1.249,1.767,3.642,12.506,9.6,13.856-3.068-7.654-5.4-11.01-5.762-13.363a58.064,58.064,0,0,1-.354-13.225c-1.993-3.494-3.481-5.889-3.481-5.889-.157-.565-3.168-9.876-4.132-1.553S2183.643,982.254,2185.038,984.231Z" transform="translate(-2102.164 -915.873)" fill="#5f9aa8"/>
        <path id="Path_7815" data-name="Path 7815" d="M2103.413,790s11.781.194,11.789-7.144,1.534-12.255-5.987-12.69-8.986,2.364-9.585,4.813S2100.349,789.756,2103.413,790Z" transform="translate(-2037.244 -763.68)" fill="#ffb27d"/>
        <path id="Path_7816" data-name="Path 7816" d="M2096.779,764.436c1.818-2.2,3.193-1.724,3.964-1.063,2.546-3.8,10.592,1.7,10.592,1.7a14.018,14.018,0,0,0,4.585,8.281s-2.147,1.326-7.1.053c-3.9-1-6.723-6.547-7.75-8.864a9.345,9.345,0,0,0-2.622,3.471c-.587,1.869-.851,5.716-1.973,5.585C2096.478,773.6,2094.048,767.746,2096.779,764.436Z" transform="translate(-2034.043 -757.222)" fill="#b64c41"/>
        <path id="Path_7817" data-name="Path 7817" d="M2168.688,1695.291a13.066,13.066,0,0,0,.614,5.559s.789,3.6-2.752,3.663-4.41-.267-4.009-2.472,1.164-6.018,1.164-6.018Z" transform="translate(-2087.546 -1502.826)" fill="#ffb27d"/>
        <path id="Path_7818" data-name="Path 7818" d="M2161.225,1727.994l.012.008h7.327l.011-.008a18.9,18.9,0,0,0-.254-5.423c-4.01,3.834-6.521-.1-6.521-.1C2161.15,1724.114,2161.225,1727.994,2161.225,1727.994Z" transform="translate(-2086.565 -1524.544)" fill="#163560"/>
        <path id="Path_7819" data-name="Path 7819" d="M1901.215,1687.368s6.529-7.415,8.534-11.1l4.855,2.487-10.852,10.192-2.539-.334Z" transform="translate(-1878.836 -1487.626)" fill="#ffb27d"/>
        <path id="Path_7820" data-name="Path 7820" d="M1881.31,1700.852h9.059a14.773,14.773,0,0,0,2.49-4.066,4.382,4.382,0,0,1,2.957-2.017v6.083h1.874l1.736-6.468c1.156-2.167.288-4.155-.525-5.866-.946,0-3.689.681-8.512,6.223a6.272,6.272,0,0,1-5.074,2.416.416.416,0,0,1-.071.039C1882.5,1698.454,1881.6,1700,1881.31,1700.852Z" transform="translate(-1862.935 -1497.415)" fill="#163560"/>
        <path id="Path_7821" data-name="Path 7821" d="M1878.612,895.089s7.733,4.324,10.5,5.57c.982.443,2.762,1.271,4.58,2.121,1.1.512,2.209,1.034,3.171,1.487a3.986,3.986,0,0,0,4.723-1.019c4.187-4.889,15.024-15.486,26.215-16.815l.039-.017-.005.012.014,0-.062.121c-.629,1.564-6.764,16.893-6.954,20.126-.2,3.407-.8,55.725-.8,55.725s.4,2.406-4.21,1.4-5.813-2-5.813-2,4.41-32.273,3.207-43.5a24.962,24.962,0,0,1,.469-7.234,57.485,57.485,0,0,1-14.852,5.965,67.634,67.634,0,0,1-7.655-4.193,48.067,48.067,0,0,1-6.455-5.193,94.808,94.808,0,0,1-7.337-8.444Z" transform="translate(-1859.798 -856.596)" fill="#e37970"/>
        <path id="Path_7822" data-name="Path 7822" d="M1974.351,1335.412l5.106.156a100.778,100.778,0,0,0,18.407-34.177q.231-.734.489-1.485c3.62-10.556,11.125-23.806,15.08-35.8.629-1.91,1.195-3.708,1.7-5.41.162-.545.321-1.081.471-1.608l-4.206-3.191s-12.626,20.446-16.535,39.687C1991.469,1310.3,1977.871,1330.411,1974.351,1335.412Z" transform="translate(-1937.268 -1150.186)" fill="#5f9aa8"/>
        <path id="Path_7823" data-name="Path 7823" d="M2145.274,1273.818c-.072,9.357.4,30.869,1.62,39.776h4.522c2.5,0,3.747-.036,3.747-.036,3.057-15.485,5.232-28.3,6.815-39.339,1.3-9.06,2.454-16.828,3.342-23.515.894-6.729,1.515-12.364,1.737-17.124.034-.75.06-1.479.074-2.187s.018-1.4.012-2.074l-24.676-2.406C2142.779,1243.307,2145.314,1268.38,2145.274,1273.818Z" transform="translate(-2071.581 -1128.626)" fill="#80bdcc"/>
        <path id="Path_7824" data-name="Path 7824" d="M2186.971,1340.084c2.5,0,3.747-.036,3.747-.036,3.057-15.485,5.232-28.3,6.815-39.339,1.3-9.06,2.453-16.828,3.342-23.515.894-6.729,1.515-12.364,1.738-17.124l-9.054,5.326s5.779,2.039,3.574,17.474S2190.04,1337.9,2186.971,1340.084Z" transform="translate(-2107.136 -1155.117)" fill="#5f9aa8"/>
        <path id="Path_7825" data-name="Path 7825" d="M2147.672,962.787s1.738,6.28,7.752,5.478,14.564-4.41,14.564-4.41-2.57-8.12-5.765-18.788c-3.869-12.915-8.657-29.564-10.915-40.066a64.925,64.925,0,0,1-1.227-7.16l-5.093-9.684s-7.335,16.7-7.736,20.909S2147.672,962.787,2147.672,962.787Z" transform="translate(-2069.002 -857.986)" fill="#e37970"/>
        <path id="Path_7826" data-name="Path 7826" d="M2182.48,984.813c.269,6.815,1.872,20.045,16.17,27.127.038.018.076.038.114.054-3.869-12.915-8.658-29.565-10.915-40.066C2185.224,975.853,2182.333,981.06,2182.48,984.813Z" transform="translate(-2103.543 -924.912)" fill="#c45446"/>
        <g id="Group_7484" data-name="Group 7484" transform="translate(17.585 38.494)">
          <path id="Path_7827" data-name="Path 7827" d="M1889.107,935.118c.982.443,2.762,1.271,4.58,2.121-.972,1.728-2.19,4.867-2.513,10.056a41.985,41.985,0,0,1-6.647-5.354,88.19,88.19,0,0,1-7.144-8.283l1.229-4.11S1886.345,933.872,1889.107,935.118Z" transform="translate(-1877.383 -929.548)" fill="#ffb27d"/>
        </g>
        <g id="Group_7485" data-name="Group 7485" transform="translate(0 22.189)">
          <path id="Path_7828" data-name="Path 7828" d="M1790,848.683h0a.476.476,0,0,0,.156.655l2.839,1.75.5-.811-2.839-1.75A.476.476,0,0,0,1790,848.683Z" transform="translate(-1789.928 -848.457)" fill="#163560"/>
          <path id="Path_7829" data-name="Path 7829" d="M2103.48,1084.435l-.559.906-3.43-2.114-2.656,4.31,3.214,1.981a8.56,8.56,0,0,1-9.284,1.818c-6.232-2.561-15.087-7.806-26.956-15.971a6.126,6.126,0,0,0-4.965-3.462l-.816-.576a1.225,1.225,0,1,0-1.416,2c14.976,10.612,25.843,17.245,33.223,20.277a11,11,0,0,0,12.35-2.769l.073.045a2.53,2.53,0,0,0,2.747-4.248l.561-.911a1.225,1.225,0,1,0-2.085-1.285Z" transform="translate(-2002.575 -1026.333)" fill="#163560"/>
          <path id="Path_7830" data-name="Path 7830" d="M1801.028,854.106a.751.751,0,0,0-.649,1.053c4.645,10.293,75.875,58.079,85.089,61.527q.659.246,1.285.441c8.2,2.554,14.419-7.539,8.453-13.715q-.456-.472-.972-.95C1887.012,895.781,1812.31,853.629,1801.028,854.106Z" transform="translate(-1798.225 -852.967)" fill="#415da5"/>
          <path id="Path_7831" data-name="Path 7831" d="M1817.41,863.362a735.633,735.633,0,0,1,66.146,33.092S1848,873.566,1817.41,863.362Z" transform="translate(-1811.884 -860.365)" fill="#a0c0ef"/>
        </g>
        <path id="Path_7832" data-name="Path 7832" d="M2056.207,1020.456c2.895.38,4.684.877,5.041,2.952a8.809,8.809,0,0,0,1.26,3.008c2.883.155,9.749.528,15.518.894l.476,7.566a86.379,86.379,0,0,1-17.263-4.086,4.517,4.517,0,0,1-1.965-1.068c-4.153-3.4-6.778-6.473-6.786-7.288S2053.313,1020.076,2056.207,1020.456Z" transform="translate(-1999.693 -963.636)" fill="#ffb27d"/>
        <path id="Path_7833" data-name="Path 7833" d="M2175.074,888.157s12.231.867,15.171,7.415,3.875,28.33.134,34.745c0,0-5.152,1.467-14.263-.237l-.337-.064s-2.906-7.116-.3-8.519c0,0,7.684.4,6.882-2.138S2175.074,888.157,2175.074,888.157Z" transform="translate(-2097.087 -857.986)" fill="#e37970"/>
        <path id="Path_7834" data-name="Path 7834" d="M1860.874,917.968s-6.078-6.427-3.531-7.7,6.011.951,4.562,5S1863.4,916.486,1860.874,917.968Z" transform="translate(-1843.289 -875.363)" fill="#ffb27d"/>
      </g>
      <g id="Group_7487" data-name="Group 7487" transform="translate(1577.625 212.76)">
        <path id="Path_7835" data-name="Path 7835" d="M1408.908,705.316a29.846,29.846,0,0,1,4.527-.287c2.016,0,3.314.376,4,1.123a3.059,3.059,0,0,1,.341,3.237,6.948,6.948,0,0,1-2.564,3.318,9.216,9.216,0,0,1-5.245,1.469,7.926,7.926,0,0,1-1.092-.063l-1.859,5-3.239,0Zm.879,6.35a4.722,4.722,0,0,0,1.063.084,3.683,3.683,0,0,0,3.658-2.28c.479-1.286-.159-2.054-1.789-2.055a6.4,6.4,0,0,0-1.4.124Z" transform="translate(-1402.549 -704.95)" fill="#e37970"/>
        <path id="Path_7836" data-name="Path 7836" d="M1470.883,705.362a32.075,32.075,0,0,1,4.462-.287c2.145,0,3.531.314,4.267,1.1a2.7,2.7,0,0,1,.243,2.926,6.165,6.165,0,0,1-3.833,3.442l-.023.062c.862.395,1.072,1.329.959,2.615a36.147,36.147,0,0,0-.286,3.942l-3.346,0a14.826,14.826,0,0,1,.2-3.257c.262-1.743-.183-2.22-1.505-2.242h-.987l-2.044,5.5-3.239,0Zm1,6.018h1.287a3.362,3.362,0,0,0,3.344-2.01c.478-1.286-.184-1.929-1.677-1.952a9.166,9.166,0,0,0-1.519.1Z" transform="translate(-1452.063 -704.986)" fill="#e37970"/>
        <path id="Path_7837" data-name="Path 7837" d="M1537.49,705.624l-5.2,13.981-3.282,0,5.2-13.981Z" transform="translate(-1502.599 -705.423)" fill="#e37970"/>
        <path id="Path_7838" data-name="Path 7838" d="M1576.372,719.624l.566-13.984,3.582,0-.44,5.913a49.588,49.588,0,0,1-.572,5h.064c.99-1.68,2.057-3.339,3.145-4.936l4.066-5.973,3.475,0-10.068,13.977Z" transform="translate(-1540.438 -705.438)" fill="#e37970"/>
        <path id="Path_7839" data-name="Path 7839" d="M1622.021,716.1l-2.364,3.588-3.389,0,9.617-13.977,4.29,0-.716,13.984-3.518,0,.219-3.589Zm4.547-2.362.2-2.967c.051-.83.18-1.867.273-2.7H1627c-.523.83-1.131,1.887-1.668,2.7l-1.961,2.965Z" transform="translate(-1572.312 -705.489)" fill="#e37970"/>
        <path id="Path_7840" data-name="Path 7840" d="M1704.759,718.452a11.517,11.517,0,0,1-3.935.6c-5,0-6.453-3.013-4.972-7a11.4,11.4,0,0,1,10.655-7.42,7.12,7.12,0,0,1,3.329.625l-1.6,2.51a5.848,5.848,0,0,0-2.552-.521,6.7,6.7,0,0,0-6.332,4.622c-1.041,2.8.019,4.565,2.936,4.567a10.06,10.06,0,0,0,2.894-.454Z" transform="translate(-1635.454 -704.635)" fill="#e37970"/>
        <path id="Path_7841" data-name="Path 7841" d="M1769.659,719.77l2.129-5.725-1.5-8.259,3.732,0,.23,3.362c.073,1.017.1,1.764.12,2.677h.043c.645-.871,1.29-1.68,2.089-2.675l2.708-3.359,3.668,0-7.793,8.148-2.167,5.829Z" transform="translate(-1694.86 -705.555)" fill="#e37970"/>
        <path id="Path_7842" data-name="Path 7842" d="M1402.792,804.693a29.855,29.855,0,0,1,4.527-.287c2.016,0,3.314.376,4,1.123a3.059,3.059,0,0,1,.341,3.237,6.95,6.95,0,0,1-2.564,3.318,9.214,9.214,0,0,1-5.245,1.469,8,8,0,0,1-1.092-.063l-1.859,5-3.239,0Zm.879,6.35a4.719,4.719,0,0,0,1.063.084,3.684,3.684,0,0,0,3.658-2.28c.478-1.286-.159-2.054-1.789-2.056a6.418,6.418,0,0,0-1.4.124Z" transform="translate(-1397.663 -784.345)" fill="#e37970"/>
        <path id="Path_7843" data-name="Path 7843" d="M1480.754,810.918c-1.7,4.584-5.612,7.362-9.838,7.359-4.29,0-5.635-3.137-4.154-7.12,1.558-4.19,5.49-7.32,9.758-7.317C1480.961,803.843,1482.189,807.06,1480.754,810.918Zm-10.515.179c-1.019,2.738-.406,4.668,1.782,4.67,2.209,0,4.231-2.03,5.241-4.748.933-2.51.491-4.668-1.761-4.67C1473.293,806.348,1471.25,808.38,1470.24,811.1Z" transform="translate(-1452.405 -783.893)" fill="#e37970"/>
        <path id="Path_7844" data-name="Path 7844" d="M1541.321,805.008l3.282,0-4.211,11.326,5.748,0-.987,2.655-9.03-.007Z" transform="translate(-1508.281 -784.826)" fill="#e37970"/>
        <path id="Path_7845" data-name="Path 7845" d="M1599.111,805.052l-5.2,13.981-3.282,0,5.2-13.981Z" transform="translate(-1551.829 -784.859)" fill="#e37970"/>
        <path id="Path_7846" data-name="Path 7846" d="M1636.986,817.782a11.519,11.519,0,0,1-3.935.6c-5,0-6.453-3.014-4.972-7a11.4,11.4,0,0,1,10.655-7.42,7.119,7.119,0,0,1,3.329.625l-1.6,2.51a5.849,5.849,0,0,0-2.553-.521,6.7,6.7,0,0,0-6.332,4.622c-1.042,2.8.019,4.565,2.936,4.567a10.068,10.068,0,0,0,2.894-.454Z" transform="translate(-1581.308 -783.992)" fill="#e37970"/>
        <path id="Path_7847" data-name="Path 7847" d="M1701.886,819.1l2.129-5.725-1.5-8.259,3.732,0,.231,3.361c.073,1.017.095,1.764.12,2.677h.043c.646-.871,1.29-1.679,2.089-2.675l2.708-3.359,3.668,0-7.793,8.148-2.167,5.829Z" transform="translate(-1640.715 -784.912)" fill="#e37970"/>
      </g>
    </g>
  </g>
</svg>
