<svg xmlns="http://www.w3.org/2000/svg" width="507.83" height="291.399" viewBox="0 0 507.83 291.399">
  <g id="policy-4" transform="translate(-1359.262 -132.086)">
    <g id="Group_7573" data-name="Group 7573" transform="translate(787.443 -147.039)">
      <g id="Group_7552" data-name="Group 7552" transform="translate(698.304 463.856)">
        <path id="Path_8032" data-name="Path 8032" d="M1397.624,1251.529s-10.666,7.931-12.745,7.45,7.795-8.562,7.795-8.562c-3.716-1.786-15.267-.666-15.267-.666s-3.848,12.407-5.745,11.429,3.967-10.812,3.967-10.812c-4.138-.249-9.214,2.824-9.214,2.824-6.949,5.488.457,14.128.457,14.128a21.118,21.118,0,0,1-5.815,8.16,18.337,18.337,0,0,0-6.7,12.917l1.138.1s1.8-7.714,5.08-11.362c.128-.132.313-.322.541-.552.534-.494.908-.866,1.159-1.142,1.631-1.567,3.885-3.563,4.971-3.756a2.1,2.1,0,0,1-.047-.547c.015.175.03.355.047.547.372,4.366,8.844,8.18,14.055,8.964s3.6-1.358,1.8-4.534-7.479-4.6-8.775-6.061,1.384-1.466,4.524-.032,3.57,5.258,8.607,7.671,12.617-5.947,12.617-5.947c-4.014-.2-9.748-4.564-9.54-5.9s9.731,2.3,11.359,2.476,5.332-1.851,5.906-8.409S1397.624,1251.529,1397.624,1251.529Z" transform="translate(-1297.767 -1207.142)" fill="#82b378"/>
        <g id="Group_7550" data-name="Group 7550" transform="translate(0 18.805)">
          <path id="Path_8033" data-name="Path 8033" d="M1155.687,1179.643s11.78-6.6,6.283-15.55c0,0-4.4-5.5-9.11-6.911,0,0,2.513,13.352,0,13.666s-1.728-15.079-1.728-15.079-12.409-5.969-17.278-5.5c0,0,7.7,13.037,5.183,12.723s-11.152-13.508-11.152-13.508-12.723-2.356-14.765,5.183,1.256,11.309,3.141,11.78,13.979.314,13.665,1.885-8.482,4.084-13.037,2.67c0,0,5.026,12.409,11.623,11.781s8.639-4.712,12.723-5.027,7.068.786,5.026,1.885-8.953.36-12.252,3.164-5.968,4.532.157,5.789,17.121.471,19.32-4.241Z" transform="translate(-1112.476 -1149.136)" fill="#a8d29f"/>
          <path id="Path_8034" data-name="Path 8034" d="M1179.968,1216.938a25.056,25.056,0,0,1-3.141-11.467c-3.77-11.937-36.756-22.619-36.756-22.619,41.939,16.964,34.556,27.331,34.556,27.331,1.13.659,2.825,3.8,4,6.215.168.41.433.978.827,1.75h0c.16.349.288.634.375.833,2.159,5.4,1.016,14.733,1.016,14.733l1.309.352A21.756,21.756,0,0,0,1179.968,1216.938Z" transform="translate(-1133.615 -1174.965)" fill="#82b378"/>
        </g>
        <g id="Group_7551" data-name="Group 7551" transform="translate(51.744 0)">
          <path id="Path_8035" data-name="Path 8035" d="M1343.864,1108.968s-15.529-8.7-8.282-20.5c0,0,5.8-7.247,12.009-9.11,0,0-3.313,17.6,0,18.014s2.277-19.877,2.277-19.877,16.357-7.868,22.776-7.247c0,0-10.146,17.185-6.833,16.771s14.7-17.807,14.7-17.807,16.771-3.106,19.463,6.833-1.656,14.907-4.141,15.529-18.428.414-18.014,2.485,11.18,5.383,17.185,3.52c0,0-6.626,16.357-15.322,15.529s-11.388-6.212-16.771-6.626-9.317,1.035-6.625,2.485,11.8.475,16.15,4.171,7.868,5.974-.207,7.631-22.568.621-25.467-5.591Z" transform="translate(-1333.655 -1068.754)" fill="#a8d29f"/>
          <path id="Path_8036" data-name="Path 8036" d="M1398.887,1113.2s-43.481,14.08-48.45,29.816a33.027,33.027,0,0,1-4.141,15.115s-6.705,10.183-2.882,22.578l1.725-.464s-1.508-12.3,1.338-19.42c.116-.262.285-.639.495-1.1h0c.52-1.017.869-1.766,1.09-2.306,1.55-3.179,3.784-7.323,5.274-8.193C1353.335,1149.227,1343.6,1135.562,1398.887,1113.2Z" transform="translate(-1340.228 -1102.802)" fill="#82b378"/>
        </g>
        <path id="Path_8037" data-name="Path 8037" d="M1245.032,1386.633a30.419,30.419,0,0,0,60.837,0Z" transform="translate(-1214.021 -1312.266)" fill="#f1a34f"/>
        <path id="Path_8038" data-name="Path 8038" d="M1301.161,1508.664h-54.172a3.753,3.753,0,0,0-3.753,3.753h61.678A3.753,3.753,0,0,0,1301.161,1508.664Z" transform="translate(-1212.645 -1405.749)" fill="#f1a34f"/>
        <path id="Path_8039" data-name="Path 8039" d="M1302.819,1387.565h-61.6a.467.467,0,0,1-.467-.467h0a.467.467,0,0,1,.467-.467h61.6a.466.466,0,0,1,.466.467h0A.467.467,0,0,1,1302.819,1387.565Z" transform="translate(-1210.745 -1312.266)" fill="#d86713"/>
      </g>
      <g id="Group_7554" data-name="Group 7554" transform="translate(836.903 320.453)">
        <rect id="Rectangle_3254" data-name="Rectangle 3254" width="131.793" height="250.072" rx="10" transform="translate(144.569 250.072) rotate(180)" fill="#4a75cb"/>
        <rect id="Rectangle_3255" data-name="Rectangle 3255" width="131.793" height="250.072" rx="10" transform="translate(131.793 250.072) rotate(180)" fill="#699ff0"/>
        <g id="Group_7553" data-name="Group 7553" transform="translate(45.25 9.466)">
          <path id="Path_8040" data-name="Path 8040" d="M1899.666,498.906h34.26a1.337,1.337,0,0,0,1.333-1.333h0a1.337,1.337,0,0,0-1.333-1.333h-34.26a1.337,1.337,0,0,0-1.333,1.333h0A1.337,1.337,0,0,0,1899.666,498.906Z" transform="translate(-1898.333 -496.24)" fill="#4a75cb"/>
          <path id="Path_8041" data-name="Path 8041" d="M2072.116,498.906h0a1.337,1.337,0,0,0,1.333-1.333h0a1.337,1.337,0,0,0-1.333-1.333h0a1.337,1.337,0,0,0-1.333,1.333h0A1.337,1.337,0,0,0,2072.116,498.906Z" transform="translate(-2030.439 -496.24)" fill="#4a75cb"/>
        </g>
        <path id="Path_8042" data-name="Path 8042" d="M1960.059,1437.494a8.6,8.6,0,1,0-8.6,8.6A8.6,8.6,0,0,0,1960.059,1437.494Z" transform="translate(-1887.197 -1201.239)" fill="#4a75cb"/>
      </g>
      <rect id="Rectangle_3256" data-name="Rectangle 3256" width="109.574" height="202.268" rx="10" transform="translate(848.152 340.282)" fill="#fff"/>
      <rect id="Rectangle_3257" data-name="Rectangle 3257" width="118.147" height="224.179" rx="10" transform="translate(624.394 346.346)" fill="#4a75cb"/>
      <rect id="Rectangle_3258" data-name="Rectangle 3258" width="118.147" height="224.179" rx="10" transform="translate(635.846 346.346)" fill="#699ff0"/>
      <rect id="Rectangle_3259" data-name="Rectangle 3259" width="109.446" height="181.655" rx="10" transform="translate(640.072 364.269)" fill="#fff"/>
      <path id="Path_8043" data-name="Path 8043" d="M1036.828,602.73h30.713a1.195,1.195,0,1,1,0,2.39h-30.713a1.195,1.195,0,0,1,0-2.39Z" transform="translate(-355.306 -247.899)" fill="#4a75cb"/>
      <path id="Path_8044" data-name="Path 8044" d="M1013.512,602.73a1.195,1.195,0,1,1-1.195,1.2A1.2,1.2,0,0,1,1013.512,602.73Z" transform="translate(-337.445 -247.899)" fill="#4a75cb"/>
      <circle id="Ellipse_255" data-name="Ellipse 255" cx="6.119" cy="6.119" r="6.119" transform="matrix(0.23, -0.973, 0.973, 0.23, 687.434, 564.275)" fill="#4a75cb"/>
      <g id="Group_7555" data-name="Group 7555" transform="translate(903.762 279.125)">
        <path id="Path_8045" data-name="Path 8045" d="M2076.8,321.282l32.857,9.641-20.068-18.4-1.836,4.7-8.372.3Z" transform="translate(-2056.658 -304.712)" fill="#82b378"/>
        <path id="Path_8046" data-name="Path 8046" d="M2043.7,313.327l-25.836-18.434-27.164-5.336Z" transform="translate(-1990.701 -287.117)" fill="#a8d29f"/>
        <path id="Path_8047" data-name="Path 8047" d="M2131.467,286.939l20.068,18.4-13.8-26.211Z" transform="translate(-2098.535 -279.125)" fill="#a8d29f"/>
      </g>
      <g id="Group_7559" data-name="Group 7559" transform="translate(991.311 344.349)">
        <path id="Path_8048" data-name="Path 8048" d="M2548.474,559.175c-2.17-1.328-5.635.259-5.635.259,1.2-1.684,5.57-1.133,5.57-1.133-8.708-1.853-10.526,3.714-10.676,4.236-6.316-5.7-16.429,6.45-16.429,6.45l14.511,19.236s1.324-3.06,3.072-2.1c2.727,1.49,8-4.538,6.315-12.467a21.148,21.148,0,0,0-.644-2.359,4.693,4.693,0,0,0,1.81.448c1.587,0,3.983-4.048,4.307-5.408S2550.643,560.5,2548.474,559.175Z" transform="translate(-2484.721 -557.924)" fill="#233862"/>
        <path id="Path_8049" data-name="Path 8049" d="M2400.933,784.39c-9.191-3.386-18.043-19.114-18.043-19.114l2.9-2.029c2.414,3.532,13.276,10.313,13.276,10.313.248-2.976.608-5.676,1.052-8.122,3.015-16.622,9.913-21.546,11.765-22.592a4.155,4.155,0,0,1,.467-.236s-.006.122-.021.354c-.026.5-.085,1.508-.182,2.89C2411.428,756.144,2408.613,787.221,2400.933,784.39Z" transform="translate(-2378.688 -699.403)" fill="#ffb27d"/>
        <path id="Path_8050" data-name="Path 8050" d="M2528.318,753.216c-4.541-10.183-6.712-13.062-6.788-16.266-.06-2.534,1.189-5.267,3.616-11.971a24.949,24.949,0,0,0,1.208-4.846c1.919-12.923-5.554-26.892-10.2-27.844-1.293-.342-3.483-5.009-3.456-12.53l-.582.114-9.78,1.936s.223,3.078.229,5.978c.006,2.416-.139,4.706-.687,4.995-.7.064-1.12.106-1.12.106s-8.154,11.325-8.84,21.858,6.531,15.109-.054,36.156C2485.144,772.4,2530.827,758.843,2528.318,753.216Z" transform="translate(-2461.652 -651.256)" fill="#ffb27d"/>
        <path id="Path_8051" data-name="Path 8051" d="M2538.841,682.184s.223,3.078.229,5.978c5.472-.154,8.365-5.147,9.551-7.914Z" transform="translate(-2498.155 -651.631)" fill="#e8945b"/>
        <path id="Path_8052" data-name="Path 8052" d="M2529.463,609.9s2.868-4.532,3.557-8.406c.491-2.766-.917-13.021-11.222-11.544a14,14,0,0,0-5.806,2.2c-2.237,1.511-5.466,4.773-1.856,13.721l.938,3.023Z" transform="translate(-2477.987 -582.344)" fill="#233862"/>
        <path id="Path_8053" data-name="Path 8053" d="M2516.908,628.718s12.948.214,12.958-7.852,1.686-13.47-6.581-13.947-9.876,2.6-10.534,5.29S2513.54,628.455,2516.908,628.718Z" transform="translate(-2478.049 -595.419)" fill="#ffb27d"/>
        <path id="Path_8054" data-name="Path 8054" d="M2514.9,1100.293a127.965,127.965,0,0,1-8.161,22.894l-4.27-.3a120.725,120.725,0,0,0,1.974-23.421c-.084-9.41-1.248-20.531-4.966-31.149-12.777-36.489-10.712-63.045-10.712-63.045l24.026,2.81,1.119.132c.1,11.034.385,26.015.634,37.73.22,10.536.414,18.428.414,18.428C2519.579,1074.324,2517.9,1088.367,2514.9,1100.293Z" transform="translate(-2459.7 -900.62)" fill="#163560"/>
        <path id="Path_8055" data-name="Path 8055" d="M2567.042,1081.656c-1.382,14.743-7.464,24.277-7.464,24.277l-2.04,1.483s-1.93-10.387-3.3-22.745c-1.3-11.746-3.086-24.175-5.1-27.969-8.012-15.046-10.425-71.845-10.425-71.845l24.36-1.208c2.45,4.119,3.518,10.874,3.772,18.555.641,19.385-3.917,44.662-4.6,48.318a.016.016,0,0,1,0,.009,1.275,1.275,0,0,0,.16.817C2567.251,1060.94,2567.952,1071.917,2567.042,1081.656Z" transform="translate(-2498.056 -884.051)" fill="#1c468a"/>
        <path id="Path_8056" data-name="Path 8056" d="M2523.474,609.626c5.441,1.4,7.8-.059,7.8-.059a15.408,15.408,0,0,1-5.04-9.1s-2.39-7.543-11.642-1.866c-.848-.727-2.359-1.253-4.357,1.168-3,3.638-.331,10.07-.331,10.07,1.232.144,1.522-4.084,2.168-6.138a10.146,10.146,0,0,1,2.824-3.763c.26.956,2.869,9.995,9.369,13a30.21,30.21,0,0,1-5.2-6.345A9.238,9.238,0,0,0,2523.474,609.626Z" transform="translate(-2475.149 -587.462)" fill="#233862"/>
        <path id="Path_8057" data-name="Path 8057" d="M2626.9,807.182a9.012,9.012,0,0,1-2.281-3.269c-3.011-7.5-6.48-22.033-7.628-24.709-.419-.974-1.22-5.574-2.27-11.5-1.885-10.631-4.566-25.535-7.252-31.44a4.543,4.543,0,0,0-2.456-1.816c-3.656-1.529-9.906-2.167-9.906-2.167l3.264,14.136.957,4.145s2.906,10.24,5.157,18.608c1.088,4.041,2.021,7.648,2.4,9.45,1.166,5.536,13.989,26.812,13.989,26.812h0s.388.259.842,1.554,4.08,8.161,5.635,8.161,1.878-2.332,2.2-3.821S2628.135,807.96,2626.9,807.182Z" transform="translate(-2541.261 -691.492)" fill="#ffb27d"/>
        <path id="Path_8058" data-name="Path 8058" d="M2372.029,797.13c0-.4.335-6.183-.694-7.4s-3.132-2.943-3.793-2.889-3.247,3.489-2.469,6.122,4.058,6.2,4.058,6.2Z" transform="translate(-2364.928 -733.287)" fill="#ffb27d"/>
        <g id="Group_7556" data-name="Group 7556" transform="translate(0.711 44.604)">
          <path id="Path_8059" data-name="Path 8059" d="M2383.035,760.747l-5.994,1.8a.376.376,0,0,1-.468-.252l-3.425-11.429a.376.376,0,0,1,.252-.468l5.993-1.8a.376.376,0,0,1,.468.253l3.426,11.429A.376.376,0,0,1,2383.035,760.747Z" transform="translate(-2371.924 -748.582)" fill="#575b9f"/>
          <path id="Path_8060" data-name="Path 8060" d="M2377.522,762.7l-5.437,1.629a.666.666,0,0,1-.83-.447L2368,753.012a.666.666,0,0,1,.447-.83l5.437-1.629a.666.666,0,0,1,.83.447l3.258,10.872A.667.667,0,0,1,2377.522,762.7Z" transform="translate(-2367.969 -750.07)" fill="#373480"/>
        </g>
        <path id="Path_8061" data-name="Path 8061" d="M2617.891,1402.58c-1.382,14.743-7.464,24.277-7.464,24.277l-2.077,1.891s-1.893-10.8-3.26-23.153C2606.53,1405.7,2612.875,1405.931,2617.891,1402.58Z" transform="translate(-2548.905 -1204.976)" fill="#ffb27d"/>
        <path id="Path_8062" data-name="Path 8062" d="M2500,770.809a15.591,15.591,0,0,0,11.406-1.671c-2.194-10.707-5.313-25.717-8.437-31.665a2.465,2.465,0,0,0-.77-.81l.031-.038c-2.928-2.129-8.914-2.784-8.914-2.784s-1.845,8.184-3.01,9.252-18.07,2.817-18.459.874c-.372-1.856,4.4-9.073,4.75-9.709a7.186,7.186,0,0,0-.768.059c-1.927.254-3.286.447-4.267.614a7.133,7.133,0,0,0-3.2,1.278c-2.275,1.723-7.624,7.015-9.715,19.769,0,0,2.645,3.625,6.371,4.695.1.028.2.052.3.077-.647,10.808-4.626,28.794-3.193,39.2,1.377,10,22.422,7.445,26.594,6.517q4.289-.952,6.65-9.034c.523,3.76,1.7,8.168,4.326,8.442,4.3.445,6.083-.3,6.6-1.929a5.768,5.768,0,0,0,.151-1.947C2506.155,796.38,2501.88,783.141,2500,770.809Z" transform="translate(-2436.715 -692.687)" fill="#575b9f"/>
        <path id="Path_8063" data-name="Path 8063" d="M2560.179,1408.728a127.95,127.95,0,0,1-8.161,22.894l-4.27-.3a120.716,120.716,0,0,0,1.973-23.421C2551.17,1408.635,2554.161,1409.376,2560.179,1408.728Z" transform="translate(-2504.978 -1209.055)" fill="#d9935c"/>
        <g id="Group_7557" data-name="Group 7557" transform="translate(30.313 216.266)">
          <path id="Path_8064" data-name="Path 8064" d="M2513.686,1492.231h-2.726c-.913-.144-1.587-.408-2.523-.53a2.527,2.527,0,0,0-2.207.53.269.269,0,0,0-.025.027h-11.58c-.291-.416-.012-1.38.262-2.089a1.647,1.647,0,0,1,1.084-.991,12.491,12.491,0,0,0,5.866-2.679c1.247-1.127,6.023-4.145,6.023-4.145l.025-.005c.1,0,.6.155,2.777,1.99,1.123.946,3.036-1.337,3.036-1.337a2.726,2.726,0,0,1,.628.851,2.877,2.877,0,0,1,.249,1.778,11.526,11.526,0,0,0,.83,4.294c.27.795.5,1.358.5,1.358S2516.031,1491.937,2513.686,1492.231Z" transform="translate(-2494.5 -1482.349)" fill="#233862"/>
          <path id="Path_8065" data-name="Path 8065" d="M2558.069,1483.853a8.636,8.636,0,0,1-2.936,1.48c-1.23.162-3.53-2.979-3.53-2.979l.025-.005c.1,0,.6.155,2.777,1.99,1.123.946,3.037-1.337,3.037-1.337A2.726,2.726,0,0,1,2558.069,1483.853Z" transform="translate(-2538.244 -1482.349)" fill="#466aa5"/>
          <path id="Path_8066" data-name="Path 8066" d="M2513.686,1517.036h-2.726c-.913-.144-1.587-.408-2.523-.53a2.527,2.527,0,0,0-2.207.53.276.276,0,0,0-.025.027h-11.58c-.291-.416-.012-1.38.262-2.089.352-.313.45,1.358.645,1.625s9.447.1,9.981-.292a5.587,5.587,0,0,1,4.372-.534c1.945.464,4.811-.727,5.52-1.044.27.795.5,1.358.5,1.358S2516.031,1516.742,2513.686,1517.036Z" transform="translate(-2494.5 -1507.154)" fill="#466aa5"/>
        </g>
        <g id="Group_7558" data-name="Group 7558" transform="translate(44.86 216.266)">
          <path id="Path_8067" data-name="Path 8067" d="M2575.866,1492.231h-2.726c-.913-.144-1.587-.408-2.524-.53a2.527,2.527,0,0,0-2.208.53.28.28,0,0,0-.025.027H2556.8c-.292-.416-.012-1.38.262-2.089a1.647,1.647,0,0,1,1.084-.991,12.491,12.491,0,0,0,5.866-2.679c1.247-1.127,6.023-4.145,6.023-4.145l.025-.005c.1,0,.6.155,2.776,1.99,1.123.946,3.037-1.337,3.037-1.337a2.721,2.721,0,0,1,.628.851,2.875,2.875,0,0,1,.249,1.778,11.526,11.526,0,0,0,.83,4.294c.27.795.5,1.358.5,1.358S2578.211,1491.937,2575.866,1492.231Z" transform="translate(-2556.68 -1482.349)" fill="#233862"/>
          <path id="Path_8068" data-name="Path 8068" d="M2620.25,1483.853a8.635,8.635,0,0,1-2.936,1.48c-1.23.162-3.531-2.979-3.531-2.979l.025-.005c.1,0,.6.155,2.776,1.99,1.123.946,3.037-1.337,3.037-1.337A2.726,2.726,0,0,1,2620.25,1483.853Z" transform="translate(-2600.425 -1482.349)" fill="#466aa5"/>
          <path id="Path_8069" data-name="Path 8069" d="M2575.866,1517.036h-2.726c-.913-.144-1.587-.408-2.524-.53a2.527,2.527,0,0,0-2.208.53.288.288,0,0,0-.025.027H2556.8c-.292-.416-.012-1.38.262-2.089.352-.313.451,1.358.645,1.625s9.447.1,9.981-.292a5.586,5.586,0,0,1,4.372-.534c1.945.464,4.811-.727,5.52-1.044.27.795.5,1.358.5,1.358S2578.211,1516.742,2575.866,1517.036Z" transform="translate(-2556.68 -1507.154)" fill="#466aa5"/>
        </g>
        <path id="Path_8070" data-name="Path 8070" d="M2608.9,885.079c-2.89-.966-6.6-3.534-11.054-9.29-11.793-15.242-1-33.154.445-33.487s4.17,11.588,4.17,11.588C2604.341,866.221,2608.615,879.46,2608.9,885.079Z" transform="translate(-2539.175 -775.767)" fill="#373480"/>
        <path id="Path_8071" data-name="Path 8071" d="M2371.326,785.927s1.892-1.716,3.437-.093-.585,4.523-2.143,5.214a11.938,11.938,0,0,0-2.076,1.082Z" transform="translate(-2369.23 -731.981)" fill="#ffb27d"/>
        <path id="Path_8072" data-name="Path 8072" d="M2527.059,677.806s-.223.95-2.588.8c0,0-1.986-.123-1.925-1.167A6.385,6.385,0,0,1,2527.059,677.806Z" transform="translate(-2485.671 -649.295)" fill="#fff"/>
      </g>
      <g id="Group_7561" data-name="Group 7561" transform="translate(866.057 457.519)">
        <path id="Path_8073" data-name="Path 8073" d="M1903.279,1081.943l.017-37.861a2.39,2.39,0,0,0-2.382-2.384l-68.981-.031a2.39,2.39,0,0,0-2.384,2.382l-.017,37.86a2.39,2.39,0,0,0,2.382,2.384l68.982.031A2.389,2.389,0,0,0,1903.279,1081.943Z" transform="translate(-1829.532 -1041.667)" fill="#699ff0"/>
        <rect id="Rectangle_3260" data-name="Rectangle 3260" width="73.747" height="8.435" transform="translate(0.013 6.354)" fill="#365da4"/>
        <rect id="Rectangle_3261" data-name="Rectangle 3261" width="45.122" height="6.632" transform="translate(5.561 17.14)" fill="#afcdfb"/>
        <path id="Path_8074" data-name="Path 8074" d="M1862.477,1172.47l0-4.834a1.8,1.8,0,0,0-1.8-1.8l-5.6,0a1.8,1.8,0,0,0-1.8,1.8l0,4.834a1.8,1.8,0,0,0,1.8,1.8l5.6,0A1.8,1.8,0,0,0,1862.477,1172.47Z" transform="translate(-1847.717 -1136.784)" fill="#afcdfb"/>
        <g id="Group_7560" data-name="Group 7560" transform="translate(22.476 27.831)">
          <path id="Path_8075" data-name="Path 8075" d="M1926.32,1162.7l44.325.02a.7.7,0,0,0,.7-.7v-.681a.7.7,0,0,0-.7-.7l-44.325-.02a.7.7,0,0,0-.7.7v.681A.7.7,0,0,0,1926.32,1162.7Z" transform="translate(-1925.619 -1160.628)" fill="#afcdfb" opacity="0.2"/>
          <path id="Path_8076" data-name="Path 8076" d="M1926.3,1179.5l44.341.02a.689.689,0,0,0,.69-.689v-.65a.689.689,0,0,0-.689-.69l-44.341-.02a.69.69,0,0,0-.69.689v.65A.689.689,0,0,0,1926.3,1179.5Z" transform="translate(-1925.613 -1173.533)" fill="#afcdfb" opacity="0.2"/>
          <path id="Path_8077" data-name="Path 8077" d="M1971.328,1194.511v-.736a.711.711,0,0,0-.711-.711l-44.3-.02a.711.711,0,0,0-.712.711v.736a.712.712,0,0,0,.711.712l44.3.02A.713.713,0,0,0,1971.328,1194.511Z" transform="translate(-1925.607 -1185.46)" fill="#afcdfb" opacity="0.2"/>
        </g>
      </g>
      <g id="Group_7567" data-name="Group 7567" transform="translate(659.001 410.474)">
        <rect id="Rectangle_3262" data-name="Rectangle 3262" width="71.588" height="47.518" rx="5" transform="translate(0 14.988)" fill="#4a75cb"/>
        <g id="Group_7563" data-name="Group 7563" transform="translate(1.935 0)">
          <rect id="Rectangle_3263" data-name="Rectangle 3263" width="57.669" height="29.45" transform="translate(1.111 1.18)" fill="#82b378"/>
          <rect id="Rectangle_3264" data-name="Rectangle 3264" width="57.669" height="29.45" transform="translate(0.804 0.741)" fill="#82b378"/>
          <rect id="Rectangle_3265" data-name="Rectangle 3265" width="57.669" height="29.45" transform="translate(0.395 0.361)" fill="#82b378"/>
          <g id="Group_7562" data-name="Group 7562">
            <rect id="Rectangle_3266" data-name="Rectangle 3266" width="57.669" height="29.45" fill="#a8d29f"/>
            <path id="Path_8078" data-name="Path 8078" d="M962.391,850.014v25.032h53.157V850.014Zm51.143,23.092H964.4V851.954h49.129Z" transform="translate(-960.135 -847.805)" fill="#82b378"/>
            <path id="Path_8079" data-name="Path 8079" d="M962.391,850.014v5.693a4.628,4.628,0,0,0,5.755-5.693Z" transform="translate(-960.135 -847.805)" fill="#82b378"/>
            <path id="Path_8080" data-name="Path 8080" d="M1170.363,849.909h-5.693a4.629,4.629,0,0,0,5.693,5.755Z" transform="translate(-1114.95 -847.724)" fill="#82b378"/>
            <path id="Path_8081" data-name="Path 8081" d="M1170.363,937.607h-5.693a4.628,4.628,0,0,1,5.693-5.755Z" transform="translate(-1114.95 -910.365)" fill="#82b378"/>
            <path id="Path_8082" data-name="Path 8082" d="M962.391,937.663V931.97a4.628,4.628,0,0,1,5.755,5.693Z" transform="translate(-960.135 -910.446)" fill="#82b378"/>
            <path id="Path_8083" data-name="Path 8083" d="M1061.81,883.085a6.239,6.239,0,1,1-6.239-6.238A6.239,6.239,0,0,1,1061.81,883.085Z" transform="translate(-1026.737 -868.36)" fill="#82b378"/>
          </g>
        </g>
        <g id="Group_7566" data-name="Group 7566" transform="translate(39.376 4.433)">
          <circle id="Ellipse_256" data-name="Ellipse 256" cx="11.851" cy="11.851" r="11.851" transform="translate(0 3.681) rotate(-8.934)" fill="#e2810e"/>
          <path id="Path_8084" data-name="Path 8084" d="M1126.034,867.407a11.851,11.851,0,1,0,13.229,10.29A11.851,11.851,0,0,0,1126.034,867.407Z" transform="translate(-1114.982 -865.491)" fill="#ffb93e"/>
          <g id="Group_7564" data-name="Group 7564" transform="translate(1.741 3.017)">
            <path id="Path_8085" data-name="Path 8085" d="M1132.368,893.927a10.8,10.8,0,1,1,9.374-12.053A10.811,10.811,0,0,1,1132.368,893.927Zm-2.6-20.789a10.154,10.154,0,1,0,11.333,8.815A10.165,10.165,0,0,0,1129.77,873.138Z" transform="translate(-1120.231 -872.416)" fill="#ffa412"/>
          </g>
          <g id="Group_7565" data-name="Group 7565" transform="translate(8.106 5.825)">
            <path id="Path_8086" data-name="Path 8086" d="M1153.735,895.332a1.779,1.779,0,0,0-.1-.619,1.3,1.3,0,0,0-.327-.484,2.472,2.472,0,0,0-.584-.4,6.55,6.55,0,0,0-.872-.354,16.943,16.943,0,0,1-1.609-.639,5.379,5.379,0,0,1-1.24-.775,3.17,3.17,0,0,1-.8-1.034,3.569,3.569,0,0,1-.048-2.713,3,3,0,0,1,.715-1.026,3.741,3.741,0,0,1,1.118-.715,5,5,0,0,1,1.463-.357l-.011-1.792,1.443-.009.011,1.817a4.485,4.485,0,0,1,1.409.4,3.386,3.386,0,0,1,1.766,1.961,4.514,4.514,0,0,1,.248,1.51l-2.605.016a2.2,2.2,0,0,0-.455-1.5,1.526,1.526,0,0,0-1.2-.491,1.938,1.938,0,0,0-.7.117,1.317,1.317,0,0,0-.48.313,1.22,1.22,0,0,0-.277.466,1.805,1.805,0,0,0-.086.579,1.641,1.641,0,0,0,.094.56,1.214,1.214,0,0,0,.314.463,2.466,2.466,0,0,0,.588.4,8.358,8.358,0,0,0,.909.384q.876.321,1.6.66a5.435,5.435,0,0,1,1.235.783,3.053,3.053,0,0,1,1.1,2.443,3.26,3.26,0,0,1-.249,1.325,2.967,2.967,0,0,1-.719,1.018,3.618,3.618,0,0,1-1.127.694,5.406,5.406,0,0,1-1.472.344l.01,1.666-1.433.009-.01-1.658a6.047,6.047,0,0,1-1.449-.318,3.831,3.831,0,0,1-1.244-.717,3.431,3.431,0,0,1-.873-1.188,4.179,4.179,0,0,1-.336-1.723l2.605-.016a2.582,2.582,0,0,0,.173.991,1.663,1.663,0,0,0,.45.634,1.612,1.612,0,0,0,.638.331,2.767,2.767,0,0,0,.726.092,2.308,2.308,0,0,0,.743-.113,1.541,1.541,0,0,0,.535-.305,1.229,1.229,0,0,0,.322-.458A1.5,1.5,0,0,0,1153.735,895.332Z" transform="translate(-1147.438 -884.417)" fill="#ffa412"/>
          </g>
        </g>
        <rect id="Rectangle_3267" data-name="Rectangle 3267" width="66.909" height="47.517" rx="5" transform="translate(0 18.704)" fill="#699ff0"/>
        <path id="Path_8087" data-name="Path 8087" d="M1149.732,1007.309h-20.763a6.492,6.492,0,0,1-6.492-6.492h0a6.492,6.492,0,0,1,6.492-6.492h20.763Z" transform="translate(-1080.834 -958.355)" fill="#4a75cb"/>
        <circle id="Ellipse_257" data-name="Ellipse 257" cx="5.088" cy="5.088" r="5.088" transform="translate(43.046 37.374)" fill="#e9f3fe"/>
      </g>
      <g id="Group_7568" data-name="Group 7568" transform="translate(884.662 378.017)">
        <circle id="Ellipse_258" data-name="Ellipse 258" cx="15.806" cy="15.806" r="15.806" transform="translate(0 1.432) rotate(-2.597)" fill="#a8d29f"/>
        <path id="Path_8088" data-name="Path 8088" d="M1938.8,751.562l5.162,5.162a1.505,1.505,0,0,0,1.064.441h.752a1.5,1.5,0,0,0,1.064-.441l10.374-10.373a1.505,1.505,0,0,0-1.064-2.57h-.488a1.507,1.507,0,0,0-1.052.429l-8.5,8.305A1.505,1.505,0,0,1,1944,752.5l-3.07-3.07a1.507,1.507,0,0,0-1.081-.441h0A1.505,1.505,0,0,0,1938.8,751.562Z" transform="translate(-1931.501 -733.968)" fill="#fff"/>
      </g>
      <g id="Group_7571" data-name="Group 7571" transform="translate(571.819 337.869)">
        <g id="Group_7569" data-name="Group 7569" transform="translate(0 14.388)">
          <path id="Path_8089" data-name="Path 8089" d="M601.792,639.9q-.668.086-1.323.165a.912.912,0,0,1-.225-1.809h.006q1.18-.143,2.4-.306h.005a.912.912,0,0,1,.236,1.808Zm3.5-.479a.911.911,0,0,1-.246-1.806q1.182-.171,2.4-.359a.911.911,0,1,1,.279,1.8q-1.224.189-2.415.362Zm-7.236.918-.02,0c-.826.088-1.645.169-2.434.24a.911.911,0,0,1-.163-1.816c.778-.07,1.587-.15,2.4-.237a.911.911,0,0,1,.213,1.81Zm12.045-1.66a.911.911,0,0,1-.262-1.8q1.182-.194,2.392-.4a.912.912,0,1,1,.308,1.8q-1.216.208-2.406.4Zm-16.887,2.093-.053.005c-.839.059-1.663.107-2.448.143a.912.912,0,0,1-.084-1.821c.77-.035,1.58-.083,2.4-.141a.911.911,0,0,1,.18,1.813Zm21.683-2.914a.911.911,0,0,1-.275-1.8q1.183-.211,2.388-.435a.911.911,0,0,1,.333,1.792q-1.211.225-2.4.438Zm-26.539,3.134a.96.96,0,0,1-.1.007c-.854.014-1.684.012-2.466,0a.911.911,0,1,1,.04-1.822c.759.017,1.565.018,2.4,0a.912.912,0,0,1,.132,1.816Zm31.323-4.021a.911.911,0,0,1-.287-1.8q1.182-.227,2.383-.464a.911.911,0,1,1,.353,1.788q-1.206.238-2.393.466Zm4.773-.942a.911.911,0,0,1-.3-1.8q1.181-.24,2.379-.488a.911.911,0,1,1,.371,1.785q-1.2.25-2.387.49Zm4.764-.989a.911.911,0,0,1-.3-1.8q1.181-.251,2.375-.509a.911.911,0,0,1,.386,1.782q-1.2.26-2.382.511C629.272,635.033,629.247,635.037,629.223,635.041ZM583.5,640.875a.915.915,0,0,1-.184,0c-.882-.065-1.717-.156-2.484-.271a.911.911,0,0,1,.27-1.8c.721.108,1.512.194,2.348.256a.912.912,0,0,1,.05,1.813Zm50.473-6.865a.911.911,0,0,1-.311-1.794q1.179-.261,2.371-.528a.912.912,0,1,1,.4,1.779q-1.194.269-2.378.53C634.032,634,634,634.007,633.977,634.011Zm4.746-1.066a.912.912,0,0,1-.318-1.793q1.179-.269,2.368-.544a.911.911,0,0,1,.412,1.776q-1.192.276-2.374.546C638.782,632.936,638.753,632.941,638.724,632.945Zm4.739-1.1a.912.912,0,0,1-.323-1.792q1.178-.277,2.365-.559a.911.911,0,1,1,.422,1.773q-1.189.284-2.37.561C643.525,631.837,643.494,631.842,643.463,631.846Zm-64.755,8.276a.915.915,0,0,1-.357-.025,12.08,12.08,0,0,1-2.45-.94.912.912,0,1,1,.854-1.611,10.253,10.253,0,0,0,2.078.792.912.912,0,0,1-.126,1.783Zm69.487-9.4a.912.912,0,0,1-.328-1.79q1.177-.284,2.362-.573a.911.911,0,0,1,.432,1.771q-1.187.289-2.366.574A.851.851,0,0,1,648.2,630.719Zm4.726-1.153a.912.912,0,0,1-.333-1.789l2.359-.585a.911.911,0,0,1,.441,1.769q-1.184.3-2.363.586A.847.847,0,0,1,652.921,629.566Zm4.72-1.177a.912.912,0,0,1-.337-1.788l2.356-.6a.911.911,0,1,1,.449,1.767l-2.36.6A.909.909,0,0,1,657.641,628.389Zm4.714-1.2a.911.911,0,0,1-.341-1.787l2.353-.607a.912.912,0,1,1,.457,1.765l-2.357.607A.941.941,0,0,1,662.355,627.19Zm4.7-1.217a.911.911,0,0,1-.345-1.786l2.347-.615a.911.911,0,0,1,.464,1.763l-2.351.616A.869.869,0,0,1,667.058,625.972ZM574.59,637.727a.911.911,0,0,1-.854-.369q-.081-.112-.154-.226a12.476,12.476,0,0,1-1.094-2.116.911.911,0,0,1,1.7-.669,10.635,10.635,0,0,0,.935,1.8c.029.046.061.092.093.137a.912.912,0,0,1-.621,1.439Zm97.167-12.991a.912.912,0,0,1-.348-1.786q1.175-.311,2.351-.626a.912.912,0,0,1,.471,1.761l-2.354.627A.961.961,0,0,1,671.757,624.736Zm4.707-1.257a.912.912,0,0,1-.352-1.785l2.355-.636a.911.911,0,0,1,.476,1.76q-1.178.32-2.358.637A.9.9,0,0,1,676.464,623.479Zm4.7-1.274a.912.912,0,0,1-.354-1.784l2.345-.641a.911.911,0,1,1,.482,1.758l-2.347.642A.934.934,0,0,1,681.167,622.205Zm4.691-1.287a.912.912,0,0,1-.357-1.783l2.343-.648a.911.911,0,1,1,.487,1.756l-2.345.65A.924.924,0,0,1,685.858,620.919Zm4.687-1.3a.911.911,0,0,1-.36-1.782l2.341-.655a.911.911,0,1,1,.493,1.755l-2.343.656A.9.9,0,0,1,690.545,619.617Zm4.684-1.315a.911.911,0,0,1-.362-1.781l2.339-.662a.911.911,0,1,1,.5,1.754l-2.341.663A.939.939,0,0,1,695.229,618.3Zm4.679-1.328a.912.912,0,0,1-.365-1.781l2.338-.668a.911.911,0,0,1,.5,1.752l-2.34.669A.93.93,0,0,1,699.908,616.974Zm-127.03,16.258-.033,0a.911.911,0,0,1-.99-.825,8.451,8.451,0,0,1,.183-2.675.911.911,0,1,1,1.776.409,6.667,6.667,0,0,0-.144,2.1A.911.911,0,0,1,572.878,633.232Zm131.707-17.6a.911.911,0,0,1-.367-1.78l2.336-.674a.912.912,0,1,1,.506,1.751l-2.338.675A.9.9,0,0,1,704.585,615.634Zm4.673-1.352a.912.912,0,0,1-.369-1.78l2.334-.68a.911.911,0,1,1,.511,1.75l-2.336.681A.961.961,0,0,1,709.258,614.282Zm4.67-1.363a.912.912,0,0,1-.371-1.779l2.333-.685a.911.911,0,0,1,.515,1.748l-2.335.686A.929.929,0,0,1,713.928,612.919Zm4.667-1.374a.912.912,0,0,1-.373-1.779l2.332-.691a.911.911,0,1,1,.519,1.747l-2.333.692A.9.9,0,0,1,718.594,611.544Zm4.664-1.385a.911.911,0,0,1-.375-1.778l2.33-.7a.911.911,0,1,1,.522,1.746l-2.331.7A.925.925,0,0,1,723.258,610.159ZM573.906,628.606a.911.911,0,0,1-.915-1.341,13.13,13.13,0,0,1,1.477-2.136.911.911,0,1,1,1.4,1.172,11.361,11.361,0,0,0-1.273,1.837A.909.909,0,0,1,573.906,628.606Zm154.013-19.842a.912.912,0,0,1-.377-1.777l2.328-.7a.912.912,0,0,1,.526,1.745l-2.33.7A.909.909,0,0,1,727.919,608.764Zm4.658-1.405a.911.911,0,0,1-.379-1.777l2.327-.706a.912.912,0,0,1,.53,1.745l-2.329.706A.894.894,0,0,1,732.577,607.359Zm4.656-1.415a.911.911,0,0,1-.381-1.776l2.326-.711a.911.911,0,1,1,.534,1.743l-2.328.712A.919.919,0,0,1,737.233,605.944Zm4.653-1.425a.912.912,0,0,1-.383-1.776l2.325-.715a.911.911,0,1,1,.537,1.742l-2.327.716A.934.934,0,0,1,741.886,604.519ZM576.975,624.882a.911.911,0,0,1-.727-1.581c.59-.532,1.249-1.066,1.957-1.588a.912.912,0,0,1,1.081,1.468c-.661.486-1.272.982-1.818,1.474A.908.908,0,0,1,576.975,624.882Zm169.562-21.8a.912.912,0,0,1-.384-1.775l2.324-.72a.912.912,0,0,1,.541,1.741l-2.325.721A.926.926,0,0,1,746.536,603.085Zm4.648-1.444a.911.911,0,0,1-.386-1.774l2.322-.725a.911.911,0,1,1,.544,1.74l-2.324.726A.909.909,0,0,1,751.185,601.641Zm4.646-1.453a.911.911,0,0,1-.388-1.774l2.322-.73a.911.911,0,0,1,.548,1.739l-2.323.731A.966.966,0,0,1,755.831,600.188Zm-174.955,21.8a.912.912,0,0,1-.6-1.676c.671-.422,1.392-.846,2.142-1.261a.912.912,0,1,1,.882,1.6c-.721.4-1.411.8-2.054,1.208A.9.9,0,0,1,580.875,621.985Zm179.6-23.26a.912.912,0,0,1-.39-1.774l2.321-.735a.911.911,0,0,1,.552,1.737l-2.322.736A.931.931,0,0,1,760.475,598.724Zm4.643-1.474a.912.912,0,0,1-.392-1.773l2.32-.741a.911.911,0,1,1,.556,1.736l-2.322.742A.913.913,0,0,1,765.118,597.25ZM585.131,619.623a.912.912,0,0,1-.52-1.721c.711-.352,1.462-.706,2.233-1.053a.912.912,0,0,1,.748,1.663c-.75.337-1.481.682-2.172,1.024A.91.91,0,0,1,585.131,619.623Zm184.63-23.859a.911.911,0,0,1-.394-1.772l2.321-.748a.911.911,0,1,1,.561,1.734l-2.324.749A.883.883,0,0,1,769.761,595.764Zm4.649-1.5a.912.912,0,0,1-.4-1.771c1.434-.466,2.2-.718,2.2-.718a.912.912,0,1,1,.57,1.732s-.767.252-2.206.72A.913.913,0,0,1,774.41,594.261ZM589.57,617.62a.912.912,0,0,1-.463-1.747c.735-.3,1.5-.609,2.286-.908a.912.912,0,1,1,.651,1.7c-.767.293-1.521.593-2.241.891A.924.924,0,0,1,589.57,617.62Zm4.549-1.743a.912.912,0,0,1-.421-1.763c.752-.268,1.533-.537,2.321-.8a.912.912,0,1,1,.577,1.729c-.777.259-1.546.524-2.286.788A.931.931,0,0,1,594.119,615.877Zm4.622-1.544a.912.912,0,0,1-.387-1.774c.762-.239,1.551-.479,2.346-.714a.911.911,0,0,1,.517,1.748c-.785.232-1.564.469-2.317.706A.9.9,0,0,1,598.741,614.334Zm4.673-1.383a.911.911,0,0,1-.36-1.782c.778-.217,1.573-.433,2.364-.643a.911.911,0,0,1,.466,1.762c-.783.207-1.571.421-2.34.636A.881.881,0,0,1,603.414,612.95Zm4.713-1.246a.912.912,0,0,1-.336-1.789c.782-.2,1.583-.391,2.38-.58a.912.912,0,0,1,.42,1.774c-.789.187-1.583.38-2.358.574A.9.9,0,0,1,608.127,611.7Zm4.747-1.125a.912.912,0,0,1-.314-1.794c.8-.179,1.6-.354,2.4-.521a.911.911,0,1,1,.376,1.784c-.783.165-1.582.339-2.374.516C612.93,610.571,612.9,610.576,612.873,610.58Zm4.778-1.006a.911.911,0,0,1-.291-1.8c1.522-.3,2.4-.449,2.436-.456a.911.911,0,1,1,.307,1.8c-.008,0-.894.153-2.391.447Z" transform="translate(-571.819 -591.726)" fill="#a8d29f"/>
        </g>
        <g id="Group_7570" data-name="Group 7570" transform="translate(188.309 0)">
          <path id="Path_8090" data-name="Path 8090" d="M1487.024,577.071l31.763-23.795-31.007,5.847,3.087,4.969-5.539,7.976Z" transform="translate(-1459.924 -547.883)" fill="#82b378"/>
          <path id="Path_8091" data-name="Path 8091" d="M1435.6,553.276l-35.047,11.173-23.815,21.5Z" transform="translate(-1376.741 -547.883)" fill="#a8d29f"/>
          <path id="Path_8092" data-name="Path 8092" d="M1486.31,541.465l31.007-5.847-33.907-5.393Z" transform="translate(-1458.454 -530.226)" fill="#a8d29f"/>
        </g>
      </g>
      <rect id="Rectangle_3268" data-name="Rectangle 3268" width="84.467" height="20.738" rx="5" transform="translate(652.561 505.723)" fill="#a8d29f"/>
      <g id="Group_7572" data-name="Group 7572" transform="translate(669.762 509.715)">
        <path id="Path_8093" data-name="Path 8093" d="M990.473,1265a21.139,21.139,0,0,1,3.2-.221,5.417,5.417,0,0,1,3.435.835,2.7,2.7,0,0,1,.977,2.222,2.818,2.818,0,0,1-1.875,2.614v.048a2.675,2.675,0,0,1,1.417,1.985c.331,1.2.662,2.583.867,2.993h-2.457a13.275,13.275,0,0,1-.741-2.473c-.284-1.324-.74-1.686-1.717-1.7h-.725v4.175h-2.379Zm2.379,4.569h.945c1.2,0,1.906-.6,1.906-1.529,0-.976-.662-1.465-1.764-1.48a6.1,6.1,0,0,0-1.087.078Z" transform="translate(-990.473 -1264.778)" fill="#fff"/>
        <path id="Path_8094" data-name="Path 8094" d="M1036.742,1271.242h-3.907v2.521h4.364v1.969h-6.774v-10.618h6.553v1.97h-4.143v2.2h3.907Z" transform="translate(-1021.078 -1265.035)" fill="#fff"/>
        <path id="Path_8095" data-name="Path 8095" d="M1066.4,1265.113h6.491v1.97h-4.081v2.426h3.812v1.954h-3.812v4.269h-2.41Z" transform="translate(-1048.639 -1265.035)" fill="#fff"/>
        <path id="Path_8096" data-name="Path 8096" d="M1104.251,1265.113v6.114c0,1.827.693,2.757,1.922,2.757,1.26,0,1.954-.882,1.954-2.757v-6.114h2.395v5.956c0,3.276-1.655,4.836-4.427,4.836-2.678,0-4.253-1.48-4.253-4.868v-5.924Z" transform="translate(-1075.787 -1265.035)" fill="#fff"/>
        <path id="Path_8097" data-name="Path 8097" d="M1147.858,1275.731v-10.618h2.8l2.206,3.892a30.772,30.772,0,0,1,1.733,3.639h.047a39.387,39.387,0,0,1-.205-4.427v-3.1h2.206v10.618h-2.521l-2.269-4.1a39.531,39.531,0,0,1-1.843-3.749l-.047.015c.063,1.4.095,2.9.095,4.632v3.2Z" transform="translate(-1111.038 -1265.035)" fill="#fff"/>
        <path id="Path_8098" data-name="Path 8098" d="M1194.346,1265a21.364,21.364,0,0,1,3.245-.221,6.826,6.826,0,0,1,4.348,1.134,4.7,4.7,0,0,1,1.8,4,5.382,5.382,0,0,1-1.764,4.3,7.618,7.618,0,0,1-4.9,1.371,20.632,20.632,0,0,1-2.725-.158Zm2.41,8.665a4.4,4.4,0,0,0,.835.047c2.174.015,3.592-1.182,3.592-3.719a3.045,3.045,0,0,0-3.34-3.371,4.965,4.965,0,0,0-1.087.1Z" transform="translate(-1146.651 -1264.778)" fill="#fff"/>
      </g>
    </g>
  </g>
</svg>
