<svg xmlns="http://www.w3.org/2000/svg" width="491.241" height="240.918" viewBox="0 0 491.241 240.918">
  <g id="policy-3" transform="translate(-1364.827 -181.628)">
    <g id="Group_7549" data-name="Group 7549" transform="translate(964.557 -435.104)">
      <g id="Group_7544" data-name="Group 7544" transform="translate(531.225 616.733)">
        <g id="Group_7528" data-name="Group 7528" transform="translate(0 0)">
          <path id="Path_7939" data-name="Path 7939" d="M1544.393,953.5l12.423,147.7s1.3,8.953-5.358,8.969c-10.95.026-54.5,0-54.5,0s8.241-1.864,8.141-6.057c-.117-4.943-14.519-152.014-14.519-152.014Z" transform="translate(-1364.77 -873.128)" fill="#4c6fb9"/>
          <path id="Path_7940" data-name="Path 7940" d="M1536.083,1098.8c-10.665.137-52.261.006-54.417,0,.81,0,7.067-.154,7.951-4.862a6.266,6.266,0,0,0,.1-1.195c0-.921-.511-6.765-1.332-15.67-.734-7.986-1.723-18.431-2.831-29.994-4.291-44.8-10.356-106.35-10.356-106.35l53.817,1.4,8.827,104.953,1.723,20.484,1.549,18.429.324,3.839S1542.961,1098.712,1536.083,1098.8Z" transform="translate(-1353.018 -864.429)" fill="#586db0"/>
          <path id="Path_7941" data-name="Path 7941" d="M1266.675,616.737l-30.259,121.542-4.143,16.646-14.093,56.611H956.355l51.944-194.8Z" transform="translate(-956.355 -616.736)" fill="#6979b8"/>
          <path id="Path_7942" data-name="Path 7942" d="M2116.66,616.736l4.194,1.4-47.113,197.63-5.576-4.228Z" transform="translate(-1806.34 -616.735)" fill="#586db0"/>
          <path id="Path_7943" data-name="Path 7943" d="M1223.758,1448.161H963.545l-7.186-4.228h261.824Z" transform="translate(-956.358 -1249.132)" fill="#4c6fb9"/>
          <rect id="Rectangle_3253" data-name="Rectangle 3253" width="56.34" height="2.677" transform="translate(119.681 234.429)" fill="#6979b8"/>
          <path id="Path_7944" data-name="Path 7944" d="M1578.578,1461.523l-.352,4.191-.013.154s-36.6,3.509-51.167,9.355c-.367-4-.8-8.627-1.28-13.7Z" transform="translate(-1391.674 -1262.58)" fill="#4c6fb9"/>
          <path id="Path_7945" data-name="Path 7945" d="M1557.065,1570.383c-10.665.137-52.262.007-54.417,0,.811,0,7.067-.154,7.952-4.862,4.284.222,28.105.982,51.5-7.945l.324,3.839S1563.943,1570.3,1557.065,1570.383Z" transform="translate(-1373.999 -1336.013)" fill="#4c6fb9" opacity="0.4"/>
          <path id="Path_7946" data-name="Path 7946" d="M1790.071,1281.543l-9.52,38.242H1692.4c37.273-11.842,54.916-29.164,62.026-38.242Z" transform="translate(-1519.066 -1124.984)" fill="#4c6fb9" opacity="0.4"/>
          <path id="Path_7947" data-name="Path 7947" d="M1307.953,627.672l-37.341,153.983H1012.931l41.844-153.983Z" transform="translate(-999.608 -625.096)" fill="#d2e4ff"/>
          <path id="Path_7948" data-name="Path 7948" d="M997.667,1281.543h3.186l-.638,2.347-3.083-.349Z" transform="translate(-987.53 -1124.984)" fill="#6979b8"/>
          <path id="Path_7949" data-name="Path 7949" d="M2268.1,616.733v2.576h-2.393l.624-2.576Z" transform="translate(-1957.365 -616.733)" fill="#6979b8"/>
        </g>
        <g id="Group_7543" data-name="Group 7543" transform="translate(39.759 13.143)">
          <g id="Group_7530" data-name="Group 7530" transform="translate(34.932)">
            <path id="Path_7950" data-name="Path 7950" d="M1316.1,706.225l-42.573-.1,11.77-33.587,42.573.1Z" transform="translate(-1273.523 -672.542)" fill="#4c6fb9" opacity="0.4"/>
            <g id="Group_7529" data-name="Group 7529" transform="translate(13.1 8.276)">
              <path id="Path_7951" data-name="Path 7951" d="M1357.774,707.738l-23.543-.053a1.007,1.007,0,0,0-.922.568l-4.134,11.8c-.111.314.124.57.522.571l23.542.053a1.007,1.007,0,0,0,.922-.568l4.134-11.8C1358.406,707.995,1358.173,707.739,1357.774,707.738Zm-4.052,12.009-23.856-.054,3.99-11.385,23.856.054Z" transform="translate(-1329.149 -707.685)" fill="#fff"/>
              <path id="Path_7952" data-name="Path 7952" d="M1372.034,765.9l-5.734-.013.579-1.651,5.734.013Z" transform="translate(-1357.551 -750.916)" fill="#fff"/>
              <path id="Path_7953" data-name="Path 7953" d="M1364.09,772.968l-10.408-.024a.526.526,0,0,0-.481.3l-.163.465,11.161.025.163-.465C1364.42,773.1,1364.3,772.968,1364.09,772.968Z" transform="translate(-1347.412 -757.576)" fill="#fff"/>
            </g>
          </g>
          <g id="Group_7532" data-name="Group 7532" transform="translate(110.164 0.17)">
            <path id="Path_7954" data-name="Path 7954" d="M1635.558,706.948l-42.573-.1,11.77-33.587,42.573.1Z" transform="translate(-1592.984 -673.265)" fill="#4c6fb9" opacity="0.4"/>
            <g id="Group_7531" data-name="Group 7531" transform="translate(9.899 9.106)">
              <path id="Path_7955" data-name="Path 7955" d="M1676.212,711.986l-23.542-.053a1.007,1.007,0,0,0-.922.568l-4.253,12.137,24.986.057,4.253-12.137C1676.845,712.243,1676.611,711.987,1676.212,711.986ZM1672.161,724l-23.856-.054,3.99-11.385,23.857.054Z" transform="translate(-1644.557 -711.933)" fill="#fff"/>
              <path id="Path_7956" data-name="Path 7956" d="M1653.631,767.792l-.164.47a.557.557,0,0,1-.51.315l-5.874-.013c-.221,0-.351-.142-.289-.316l.164-.47-11.573-.026-.35,1c-.059.169.066.306.28.306l29.047.066a.54.54,0,0,0,.494-.3l.35-1Z" transform="translate(-1635.02 -754.606)" fill="#fff"/>
            </g>
          </g>
          <g id="Group_7533" data-name="Group 7533" transform="translate(18.375 47.249)">
            <path id="Path_7957" data-name="Path 7957" d="M1245.788,906.863l-42.573-.1,11.77-33.587,42.573.1Z" transform="translate(-1203.214 -873.18)" fill="#4c6fb9" opacity="0.4"/>
            <path id="Path_7958" data-name="Path 7958" d="M1292.625,895.738l-14.045-.032a1.149,1.149,0,0,0-1.051.648l-7.063,20.157c-.126.359.141.651.6.652l14.045.032a1.149,1.149,0,0,0,1.052-.648l7.063-20.157C1293.347,896.031,1293.081,895.739,1292.625,895.738Zm-7.189,19.764-13.518-.031,6.333-18.072,13.518.031Z" transform="translate(-1254.605 -890.401)" fill="#fff"/>
          </g>
          <g id="Group_7534" data-name="Group 7534" transform="translate(0 99.686)">
            <path id="Path_7959" data-name="Path 7959" d="M1167.76,1129.53l-42.573-.1,11.77-33.587,42.573.1Z" transform="translate(-1125.187 -1095.847)" fill="#4c6fb9" opacity="0.4"/>
            <path id="Path_7960" data-name="Path 7960" d="M1202.712,1135.129l-25.55-.058a1.148,1.148,0,0,0-1.051.648l-4.936,14.085c-.126.359.141.651.6.652l25.55.058a1.148,1.148,0,0,0,1.052-.648l4.936-14.085C1203.434,1135.422,1203.167,1135.13,1202.712,1135.129Zm-5.309,14.527-25.112-.057,4.79-13.669,25.112.057Z" transform="translate(-1160.321 -1125.834)" fill="#fff"/>
          </g>
          <g id="Group_7536" data-name="Group 7536" transform="translate(185.724 0.341)">
            <path id="Path_7961" data-name="Path 7961" d="M1956.418,707.674l-42.573-.1,11.77-33.587,42.573.1Z" transform="translate(-1913.844 -673.991)" fill="#4c6fb9" opacity="0.4"/>
            <g id="Group_7535" data-name="Group 7535" transform="translate(13.1 8.276)">
              <path id="Path_7962" data-name="Path 7962" d="M1998.1,709.188l-23.542-.053a1.007,1.007,0,0,0-.922.568l-4.134,11.8c-.11.315.124.57.522.571l23.542.053a1.006,1.006,0,0,0,.921-.568l4.134-11.8C1998.728,709.445,1998.494,709.189,1998.1,709.188Zm-4.051,12.009-23.856-.054,3.99-11.385,23.856.054Z" transform="translate(-1969.47 -709.135)" fill="#fff"/>
              <path id="Path_7963" data-name="Path 7963" d="M2012.355,767.346l-5.734-.013.578-1.651,5.734.013Z" transform="translate(-1997.873 -752.366)" fill="#fff"/>
              <path id="Path_7964" data-name="Path 7964" d="M2004.411,774.417,1994,774.393a.525.525,0,0,0-.481.3l-.163.465,11.162.025.163-.465C2004.741,774.551,2004.619,774.417,2004.411,774.417Z" transform="translate(-1987.733 -759.025)" fill="#fff"/>
            </g>
          </g>
          <g id="Group_7537" data-name="Group 7537" transform="translate(169.167 47.59)">
            <path id="Path_7965" data-name="Path 7965" d="M1886.109,908.313l-42.573-.1,11.77-33.587,42.573.1Z" transform="translate(-1843.536 -874.629)" fill="#4c6fb9" opacity="0.4"/>
            <path id="Path_7966" data-name="Path 7966" d="M1932.947,897.187l-14.045-.032a1.148,1.148,0,0,0-1.051.648l-7.063,20.157c-.126.359.141.651.6.651l14.045.032a1.148,1.148,0,0,0,1.052-.648l7.063-20.157C1933.669,897.48,1933.4,897.188,1932.947,897.187Zm-7.189,19.764-13.518-.031,6.333-18.072,13.518.031Z" transform="translate(-1894.926 -891.85)" fill="#fff"/>
          </g>
          <g id="Group_7538" data-name="Group 7538" transform="translate(150.792 100.027)">
            <path id="Path_7967" data-name="Path 7967" d="M1808.082,1130.98l-42.573-.1,11.77-33.587,42.573.1Z" transform="translate(-1765.508 -1097.296)" fill="#4c6fb9" opacity="0.4"/>
            <path id="Path_7968" data-name="Path 7968" d="M1843.033,1136.578l-25.55-.058a1.148,1.148,0,0,0-1.052.648l-4.936,14.085c-.126.359.141.651.6.652l25.55.058a1.148,1.148,0,0,0,1.051-.648l4.936-14.085C1843.755,1136.871,1843.488,1136.579,1843.033,1136.578Zm-5.31,14.527-25.112-.057,4.79-13.669,25.112.057Z" transform="translate(-1800.642 -1127.283)" fill="#fff"/>
          </g>
          <g id="Group_7539" data-name="Group 7539" transform="translate(93.606 47.419)">
            <path id="Path_7969" data-name="Path 7969" d="M1565.249,907.586l-42.573-.1,11.77-33.587,42.573.1Z" transform="translate(-1522.676 -873.903)" fill="#4c6fb9" opacity="0.4"/>
            <path id="Path_7970" data-name="Path 7970" d="M1600.45,910.04l-5.727-.013a1.21,1.21,0,0,1-1.318-.849l-.18-.984a1.21,1.21,0,0,0-1.318-.849l-6.177-.014a2.65,2.65,0,0,0-1.911.842l-.87.982a2.653,2.653,0,0,1-1.911.842l-5.727-.013a2.06,2.06,0,0,0-1.886,1.163l-3.709,10.583c-.225.644.253,1.168,1.069,1.169l25.139.057a2.06,2.06,0,0,0,1.886-1.163l3.709-10.583C1601.745,910.566,1601.266,910.042,1600.45,910.04Zm-13.48-1.631,2.942.007-.367,1.048-2.942-.007Zm-2.8,12.179c-2.883-.007-4.574-1.856-3.777-4.13s3.781-4.113,6.664-4.107,4.574,1.856,3.777,4.13S1587.057,920.594,1584.174,920.588Zm15.042-7.685-2.943-.007.367-1.048,2.943.007Z" transform="translate(-1558.595 -899.458)" fill="#fff"/>
          </g>
          <g id="Group_7542" data-name="Group 7542" transform="translate(75.231 99.856)">
            <path id="Path_7971" data-name="Path 7971" d="M1487.222,1130.253l-42.573-.1,11.77-33.587,42.573.1Z" transform="translate(-1444.648 -1096.57)" fill="#4c6fb9" opacity="0.4"/>
            <g id="Group_7541" data-name="Group 7541" transform="translate(8.999 10.068)">
              <path id="Path_7972" data-name="Path 7972" d="M1519.178,1139.463l-4.751,13.558,16.507.037,4.751-13.558Zm11.271,12.359-14.671-.033,3.886-11.089,14.671.033Z" transform="translate(-1506.993 -1139.43)" fill="#fff"/>
              <g id="Group_7540" data-name="Group 7540">
                <path id="Path_7973" data-name="Path 7973" d="M1598.519,1139.559l-4.588-.01-4.765,13.6,4.588.01a3.183,3.183,0,0,0,2.914-1.8l3.5-10C1600.52,1140.37,1599.78,1139.561,1598.519,1139.559Zm-5.423,7.417c-.419,0-.665-.27-.549-.6a1.058,1.058,0,0,1,.969-.6c.419,0,.665.27.549.6A1.057,1.057,0,0,1,1593.1,1146.975Zm2.484-2.51c.419,0,.665.27.549.6a1.058,1.058,0,0,1-.969.6c-.419,0-.665-.27-.549-.6A1.058,1.058,0,0,1,1595.581,1144.465Zm-1.259,3.779c-.419,0-.665-.27-.549-.6a1.058,1.058,0,0,1,.969-.6c.419,0,.665.27.549.6A1.058,1.058,0,0,1,1594.322,1148.244Zm2.064-1.312c-.419,0-.665-.27-.549-.6a1.059,1.059,0,0,1,.969-.6c.419,0,.665.27.549.6A1.058,1.058,0,0,1,1596.386,1146.931Z" transform="translate(-1564.131 -1139.495)" fill="#fff"/>
                <path id="Path_7974" data-name="Path 7974" d="M1489.363,1139.324a3.182,3.182,0,0,0-2.914,1.8l-3.5,10c-.349.995.391,1.8,1.652,1.806l4.588.01,4.765-13.6Zm-3.051,7.422c-.419,0-.665-.27-.549-.6a1.058,1.058,0,0,1,.969-.6c.419,0,.665.27.549.6A1.058,1.058,0,0,1,1486.312,1146.746Zm2.484-2.51c.419,0,.665.27.549.6a1.058,1.058,0,0,1-.969.6c-.419,0-.665-.27-.549-.6A1.058,1.058,0,0,1,1488.8,1144.236Zm-1.259,3.778c-.419,0-.665-.27-.549-.6a1.059,1.059,0,0,1,.969-.6c.419,0,.665.27.549.6A1.058,1.058,0,0,1,1487.537,1148.015Zm2.064-1.312c-.419,0-.665-.27-.549-.6a1.057,1.057,0,0,1,.969-.6c.419,0,.665.27.549.6A1.058,1.058,0,0,1,1489.6,1146.7Z" transform="translate(-1482.86 -1139.324)" fill="#fff"/>
              </g>
            </g>
          </g>
        </g>
      </g>
      <path id="Path_7975" data-name="Path 7975" d="M400.27,1524.01H891.511s-54.219-16.39-79.157-9.878-67.8-1.541-80.513-10-30.9,12.2-47.476,7.052-23.378-26.81-45.409-22.1-12.624,31.031-27.454,16.693-44.733-22.414-51.682-4.953S476.1,1497.232,400.27,1524.01Z" transform="translate(0 -666.411)" fill="#a8d29f"/>
      <g id="man_2" data-name="man 2" transform="translate(424.842 650.614)">
        <path id="Path_7976" data-name="Path 7976" d="M1037.4,1579.535s-.667,11.043,1.344,11.2c.268.021,10.2.021,10.2.021l12.683-.079a4.334,4.334,0,0,0-3.791-3.976c-3.707-.694-10.22-3.238-11.322-8.9S1037.4,1579.535,1037.4,1579.535Z" transform="translate(-911.85 -1383.723)" fill="#163560"/>
        <path id="Path_7977" data-name="Path 7977" d="M1139.95,1579.535s-.667,11.043,1.345,11.2c.267.021,10.2.021,10.2.021l12.683-.079a4.334,4.334,0,0,0-3.791-3.976c-3.707-.694-10.22-3.238-11.323-8.9S1139.95,1579.535,1139.95,1579.535Z" transform="translate(-990.251 -1383.723)" fill="#163560"/>
        <path id="Path_7978" data-name="Path 7978" d="M833.065,1014.131l-11.115,3.833s-7.073-14.4-8.8-16.354c-1.965-2.231-3.378-19.4-4.267-34.921-.776-13.578-1.155-25.9-1.155-25.9s3.783.86,6.253,7.248c4.234,10.95,4.2,32.33,6.558,43.354C821.9,997.736,830.776,1013.229,833.065,1014.131Z" transform="translate(-736.35 -898.354)" fill="#699dee"/>
        <path id="Path_7979" data-name="Path 7979" d="M819.344,1102.326c-4.237-4.93-7.073-14.4-8.8-16.353-1.965-2.231-11.264-14.906-2.576-34.837,4.259,12.606.705,19.475,2.044,26.916C811.346,1085.432,818.957,1097.4,819.344,1102.326Z" transform="translate(-733.745 -982.718)" fill="#3b76ca"/>
        <path id="Path_7980" data-name="Path 7980" d="M709.1,1491.755a5.465,5.465,0,0,1-3.5.923c-2.791,0-3.5-.923-3.5-.923v-39.188h7Z" transform="translate(-655.587 -1289.613)" fill="#d86713"/>
        <path id="Path_7981" data-name="Path 7981" d="M596.657,1201.91c0,.027-.007.059-.012.088a36.655,36.655,0,0,1-1,4.855,28.834,28.834,0,0,1-2.83,6.883c-3.793,6.4-10.986,13.516-28.234,15.84-.836.11-1.7.216-2.582.3q-2.414.247-5.078.369c-.113,0-.226.01-.339.012s-.226.01-.342.012a83.613,83.613,0,0,1-16.892-2.531c-12.85-3.049-21.223-9.325-26.517-16.961,0,0,0,0,0,0q-.674-.973-1.285-1.973a42.172,42.172,0,0,1-2.754-5.36,56.147,56.147,0,0,1-4.172-21.139,69.791,69.791,0,0,1,2.233-16.583,30.112,30.112,0,0,1,4.085-9.094,24.551,24.551,0,0,1,1.563-2.076,23.1,23.1,0,0,1,6.338-5.338c6.139-3.5,26.33-6.984,43.433,2.042C593.748,1167.868,598.487,1188.389,596.657,1201.91Z" transform="translate(-504.614 -1054.88)" fill="#a8d29f"/>
        <path id="Path_7982" data-name="Path 7982" d="M613.848,1404.74c-5.021,5.844-9.542,11.831-26.79,13.749-.836.091-1.7.177-2.582.248q-2.414.206-5.078.3c-.113.005-.226.01-.339.01s-.226.01-.341.013a83.615,83.615,0,0,1-16.892-2.531c-12.85-3.049-21.223-9.325-26.517-16.961,0,0,0,0,0,0q-.675-.973-1.285-1.973c9.75-2.326,30.575-6.4,51.266-4.739,11.224.9,22.866,1.9,32.835,2.783C618.459,1395.672,615.5,1402.814,613.848,1404.74Z" transform="translate(-527.097 -1243.67)" fill="#82b378"/>
        <path id="Path_7983" data-name="Path 7983" d="M612.576,950.928q.241-.993.514-1.952c2.466-8.719,6.483-15.04,12.794-16.075.792,2.157,8.52,5.739,15.281,5.389a4.434,4.434,0,0,0,1.86-1.055c5.34-.754,7.88-3.616,7.63-4,.225.018,5.606,1.526,5.606,1.526,4.671,20.427,5.231,31.777-.391,60.908-2.052,10.64,1.086,16.42.391,17.118-1.216,1.219-14.672,1.569-25.491,1.988-1.3.049-2.581.094-3.828.135-7.909.258-14.422.35-14.422.35-.537-.669-1.526-6.843-2.2-15.536C609.239,985.84,608.955,965.536,612.576,950.928Z" transform="translate(-584.879 -892.326)" fill="#699dee"/>
        <path id="Path_7984" data-name="Path 7984" d="M694.515,888.953l6.431,5.328,9.795-1.513c-.092-.943-.58-5.031-1-8.519-.345-2.849-.644-5.295-.644-5.295l-11.7-4.681-.353-.141c.005.059.008.118.01.176.033.468.053.925.064,1.375A29.016,29.016,0,0,1,694.515,888.953Z" transform="translate(-649.794 -847.398)" fill="#e49963"/>
        <path id="Path_7985" data-name="Path 7985" d="M680.217,1301.993c32.742,2.351,42.935,1.927,44.084,3.5,7.229,9.9,7.959,11.614,22.62,31.46,2.8,3.787,6.1,8.233,10.055,13.523h15.309s-16.515-31.514-29.72-52.864c-5.211-8.427-9.908-15.27-12.87-17.969-10.233-9.326-51-9.11-51-9.11s-35.4-.856-38.183,4.387C639.907,1276.062,655.565,1300.219,680.217,1301.993Z" transform="translate(-608.495 -1150.41)" fill="#1c468a"/>
        <path id="Path_7986" data-name="Path 7986" d="M680.217,1301.993c32.742,2.351,42.935,1.927,44.084,3.5,7.229,9.9,7.959,11.614,22.62,31.46l-4.357-39.341c-5.211-8.427-9.908-15.27-12.87-17.969-10.233-9.326-51-9.11-51-9.11s-35.4-.856-38.183,4.387C639.907,1276.062,655.565,1300.219,680.217,1301.993Z" transform="translate(-608.495 -1150.41)" fill="#163560"/>
        <path id="Path_7987" data-name="Path 7987" d="M728.112,954.1l6.443-.684a.954.954,0,0,1,.652,1.192c-.155,1.015-2.279,3.763-3.08,3.9S726.366,955.965,728.112,954.1Z" transform="translate(-675.197 -908.009)" fill="#a8d29f"/>
        <path id="Path_7988" data-name="Path 7988" d="M625.865,1279.068s1.092,19.827,25.746,21.6c32.742,2.353,39.5,1.575,41.638,3.577,10.525,9.838,3.569,11.925,28.243,44.941h15.5s-18.916-62.657-27.482-70.153c-10.4-9.1-52.9-9.79-52.9-9.79s-28.327-2.181-31.112,3.062C624.886,1273.443,625.865,1279.068,625.865,1279.068Z" transform="translate(-596.875 -1149.117)" fill="#1c468a"/>
        <g id="Group_7545" data-name="Group 7545" transform="translate(0.001 99.675)">
          <path id="Path_7989" data-name="Path 7989" d="M564.581,1258.887a35.049,35.049,0,0,1-5.25.668c-.749.035-1.511.047-2.29.04q-.1,0-.2,0l-.6-.012a83.662,83.662,0,0,1-16.892-2.531c-16.786-3.982-25.93-13.474-30.558-24.3a56.152,56.152,0,0,1-4.172-21.14,69.8,69.8,0,0,1,2.233-16.582,30.136,30.136,0,0,1,4.085-9.094q.545-.811,1.16-1.58c.13-.167.266-.332.4-.5C524.066,1195.96,559.016,1234.416,564.581,1258.887Z" transform="translate(-504.619 -1183.863)" fill="#82b378"/>
          <path id="Path_7990" data-name="Path 7990" d="M563.7,1260.5a35.037,35.037,0,0,1-5.25.668c-.467.022-.936.035-1.413.039q-.1,0-.2,0l-.6-.012a83.618,83.618,0,0,1-16.892-2.531c-16.786-3.982-25.93-13.474-30.558-24.3a56.153,56.153,0,0,1-4.172-21.14,69.8,69.8,0,0,1,2.233-16.582,30.138,30.138,0,0,1,4.085-9.094c.364-.54.749-1.069,1.16-1.58C524.112,1198.591,558.213,1236.352,563.7,1260.5Z" transform="translate(-504.619 -1185.475)" fill="#a8d29f"/>
        </g>
        <g id="Group_7546" data-name="Group 7546" transform="translate(40.527 38.607)">
          <path id="Path_7991" data-name="Path 7991" d="M747.533,925.619s-1.073,4.788-3.9,7.1l4.361,5.672s5.283-6.253,5.128-10.73A35.3,35.3,0,0,0,747.533,925.619Z" transform="translate(-727.873 -925.366)" fill="#3b76ca"/>
          <path id="Path_7992" data-name="Path 7992" d="M748.363,925.619s-.817,4.506-3.644,6.823l4.19,5.159s4.6-5.346,5.044-9.935A35.314,35.314,0,0,0,748.363,925.619Z" transform="translate(-728.703 -925.366)" fill="#699dee"/>
          <path id="Path_7993" data-name="Path 7993" d="M681.692,925.619s6.67,6.32,11.032,6.823l-2.985,7.452s-12.992-7.7-13.031-12.307C676.708,927.586,680.284,925.66,681.692,925.619Z" transform="translate(-676.708 -925.366)" fill="#3b76ca"/>
          <path id="Path_7994" data-name="Path 7994" d="M683.714,924.545s6.194,6.573,10.556,7.075l-2.418,6.868s-13.084-7.366-13.122-11.977C678.73,926.512,682.306,924.586,683.714,924.545Z" transform="translate(-678.254 -924.545)" fill="#699dee"/>
        </g>
        <path id="Path_7995" data-name="Path 7995" d="M612.378,1091.634c.674,8.693.493,13.236,3.176,15.792,0,0,5.43,2.044,13.446-.606a11.8,11.8,0,0,0,5.931-5.954c5.282-13.116-4.769-24.019-5.28-32.707s-8.475-15.034-8.475-15.034S611.3,1077.754,612.378,1091.634Z" transform="translate(-586.937 -984.239)" fill="#3b76ca"/>
        <path id="Path_7996" data-name="Path 7996" d="M734.682,970.867s-1.221,11.526-1.438,15.383c-.611,10.848-.834,43.454-.834,43.454a7.407,7.407,0,0,0,1.579,5.117,29.187,29.187,0,0,0,3.884,3.824,14.373,14.373,0,0,0,3.893-7.022c.736-3.05-1.03-28.651-2.812-45.7a152.99,152.99,0,0,0-2.375-15.283S735.123,970.381,734.682,970.867Z" transform="translate(-678.749 -921.123)" fill="#a8d29f"/>
        <path id="Path_7997" data-name="Path 7997" d="M548.67,1594.254h76.6c-3.647-7.972-19.408-13.97-38.3-13.97S552.316,1586.281,548.67,1594.254Z" transform="translate(-538.295 -1387.254)" fill="#f1a34f"/>
        <path id="Path_7998" data-name="Path 7998" d="M707.165,1224.024a48.477,48.477,0,0,1,6.9,2.3c1.7.937,5.121,5.43,4.355,6.133-3.847,3.526-4.44-.383-9.167-1.661-.859-.232-4.812-4.642-4.812-4.642Z" transform="translate(-657.381 -1114.891)" fill="#e49963"/>
        <path id="Path_7999" data-name="Path 7999" d="M687.885,1182.636l7.8-26.972H740.26l-8.048,28.066H673.7v-1.093Z" transform="translate(-633.878 -1062.63)" fill="#c65447"/>
        <path id="Path_8000" data-name="Path 8000" d="M850.148,1207.519a1.3,1.3,0,0,0-1.274-1.786,2.559,2.559,0,0,0-2.3,1.786,1.3,1.3,0,0,0,1.274,1.786A2.559,2.559,0,0,0,850.148,1207.519Z" transform="translate(-765.99 -1100.908)" fill="#f1a34f"/>
        <path id="Path_8001" data-name="Path 8001" d="M602.03,932.9s-8.851,1.44-13.28,6.04-11.925,42.247-10.051,47.528,16.865,16.013,27.6,20.442c0,0,5.281-2.385,5.622-6.473,0,0-18.228-15.332-19.08-19.42S602.03,932.9,602.03,932.9Z" transform="translate(-561.027 -892.325)" fill="#699dee"/>
        <path id="Path_8002" data-name="Path 8002" d="M705.3,874.766c.033.468.053.925.064,1.375,2.264,2.44,7.587,7.643,12.623,8.565-.345-2.849-.644-5.295-.644-5.295l-11.7-4.681Z" transform="translate(-658.04 -847.854)" fill="#d68d5d"/>
        <path id="Path_8003" data-name="Path 8003" d="M714.007,822.16s-14.031.641-14.3-8.1-2.254-14.55,6.693-15.329,10.79,2.5,11.588,5.4S717.65,821.768,714.007,822.16Z" transform="translate(-653.483 -789.661)" fill="#e49963"/>
        <path id="Path_8004" data-name="Path 8004" d="M688.686,785s1.049-11.668,13.548-11.25,7.092-11.4-3.649-13.146c0,0,1.121,4.166-5.635,4.824C678.769,766.81,687.426,783.15,688.686,785Z" transform="translate(-642.459 -760.605)" fill="#1c468a"/>
      </g>
      <g id="Group_7548" data-name="Group 7548" transform="translate(758.873 619.364)">
        <path id="Path_8005" data-name="Path 8005" d="M2268.216,1521.436l-3.77,15.878-5.647-.032-.207-15.846Z" transform="translate(-2179.57 -1311.015)" fill="#ffb27d"/>
        <path id="Path_8006" data-name="Path 8006" d="M2049.36,1517.525l-10.727,15.2-4.181-5.368,6.456-11.923Z" transform="translate(-2008.214 -1306.427)" fill="#ffb27d"/>
        <path id="Path_8007" data-name="Path 8007" d="M2196.309,629.675a10.938,10.938,0,0,1,5.92-1.132,2.77,2.77,0,0,0-1.249-.593,9.177,9.177,0,0,1,3.275.854c14.095-5.431,16.31,15.322,16.014,20.144s4.736,6.4,12.069,10.194c13.992,7.248,15.22,16.954,15.22,16.954-.109.064-.223.137-.344.221-.694-1.176-2.123-3.385-3.328-3.718a49.852,49.852,0,0,1,1.938,4.722c-4.128,3.14-11.849,10.1-17.231,15.03a7.91,7.91,0,0,0-.367-3.056l-.665,4c-2.879,2.647-4.866,4.51-4.866,4.51.356-3.9-17.622-24.457-27-30.615-2.283-3.361-3.094-9.3-3.155-9.767.394,4.708,1.2,7.349,1.919,8.836C2186.519,658.954,2191.142,632.611,2196.309,629.675Z" transform="translate(-2127.276 -627.906)" fill="#163560"/>
        <path id="Path_8008" data-name="Path 8008" d="M2215.934,750.961c-.047.021,4.528,2.4,7.97,1.455,3.238-.883,5.353-5.08,5.308-5.089-1.371-.273-1.766-2.156-1.737-10.252l-.62.122-10.421,2.064s.237,3.28.244,6.369C2216.685,748.224,2216.528,750.684,2215.934,750.961Z" transform="translate(-2146.958 -711.366)" fill="#ffb27d"/>
        <path id="Path_8009" data-name="Path 8009" d="M2228.336,641.677s-5.141-5.473-11.6-.28C2216.741,641.4,2220.5,640.748,2228.336,641.677Z" transform="translate(-2147.575 -636.509)" fill="#e37970"/>
        <path id="Path_8010" data-name="Path 8010" d="M2218.058,739.657s.237,3.28.244,6.369c5.831-.164,8.914-5.484,10.177-8.433Z" transform="translate(-2148.583 -711.762)" fill="#d68d5d"/>
        <path id="Path_8011" data-name="Path 8011" d="M2208.25,663.262s3.056-4.829,3.79-8.958c.523-2.948-.978-13.874-11.958-12.3a14.916,14.916,0,0,0-6.187,2.339c-2.384,1.61-5.825,5.086-1.978,14.621l1,3.221Z" transform="translate(-2127.276 -638.566)" fill="#163560"/>
        <path id="Path_8012" data-name="Path 8012" d="M2041.679,1160.337l5.524.169,5.979.183s13.811-15.377,21.559-40.027q.271-.859.573-1.74c4.24-12.363,13.029-27.881,17.661-41.927.737-2.237,1.4-4.343,1.993-6.336.19-.638.376-1.265.552-1.883a148.971,148.971,0,0,0,5.313-27.967l-33.447.268A623.473,623.473,0,0,1,2041.679,1160.337Z" transform="translate(-2013.739 -943.573)" fill="#a8d29f"/>
        <path id="Path_8013" data-name="Path 8013" d="M2154.985,819.576c.084,15.916-2.335,22.745-2.335,22.745a44.946,44.946,0,0,0,31.341,1.92c.2-.063,14.093-3.234,14.093-3.234-.285-.644-2.818-11.37-3.1-11.961-3.593-7.717-6.322-11.1-6.749-13.473a50.465,50.465,0,0,1-.414-13.334,107.025,107.025,0,0,1,4.127-20.94,109.8,109.8,0,0,1-13.927-4.67c-1.11,1.382-4.384,2.78-7.329,2.714-3.39-.075-4.449-1.508-4.324-3.123-3.613,2.01-6.485,3.922-6.485,3.922-3.07,5.334-9.3,10.513-9.749,18.7C2150.027,800.847,2154.982,819.13,2154.985,819.576Z" transform="translate(-2096.656 -741.291)" fill="#e7f1fd"/>
        <path id="Path_8014" data-name="Path 8014" d="M2276.557,878.074c1.462,2.069,4.265,14.647,11.239,16.228-3.593-8.964-6.322-12.895-6.748-15.65a67.976,67.976,0,0,1-.414-15.489c-2.335-4.092-4.077-6.9-4.077-6.9-.184-.662-3.71-11.566-4.84-1.819S2274.924,875.759,2276.557,878.074Z" transform="translate(-2189.464 -798.015)" fill="#5f9aa8"/>
        <path id="Path_8015" data-name="Path 8015" d="M2194.87,683.2s13.8.228,13.807-8.367,1.8-14.353-7.012-14.862-10.524,2.769-11.225,5.637S2191.282,682.917,2194.87,683.2Z" transform="translate(-2127.342 -652.378)" fill="#ffb27d"/>
        <path id="Path_8016" data-name="Path 8016" d="M2187.786,654.647c2.129-2.581,3.739-2.02,4.643-1.245,2.981-4.455,12.405,1.988,12.405,1.988a16.417,16.417,0,0,0,5.37,9.7s-2.515,1.554-8.312.063c-4.563-1.173-7.874-7.667-9.077-10.381a10.949,10.949,0,0,0-3.071,4.065c-.688,2.189-1,6.694-2.31,6.541C2187.434,665.377,2184.587,658.524,2187.786,654.647Z" transform="translate(-2124.278 -646.198)" fill="#163560"/>
        <path id="Path_8017" data-name="Path 8017" d="M2260.541,1585.092a15.3,15.3,0,0,0,.719,6.51s.924,4.211-3.223,4.289-5.165-.313-4.7-2.9,1.362-7.048,1.362-7.048Z" transform="translate(-2175.476 -1359.68)" fill="#ffb27d"/>
        <path id="Path_8018" data-name="Path 8018" d="M2252.012,1618.739l.014.01h8.581l.014-.01c.469-2.2-.3-6.351-.3-6.351-4.7,4.49-7.636-.113-7.636-.113C2251.924,1614.2,2252.012,1618.739,2252.012,1618.739Z" transform="translate(-2174.538 -1380.462)" fill="#c45446"/>
        <path id="Path_8019" data-name="Path 8019" d="M1992,1579.069s7.647-8.684,9.995-13l5.686,2.913-12.71,11.936-2.974-.391Z" transform="translate(-1975.757 -1345.135)" fill="#ffb27d"/>
        <path id="Path_8020" data-name="Path 8020" d="M1972.095,1592.764H1982.7a17.3,17.3,0,0,0,2.917-4.762,5.133,5.133,0,0,1,3.463-2.362v7.124h2.2l2.032-7.575c1.353-2.538.337-4.865-.615-6.871-1.108,0-4.321.8-9.969,7.288a7.348,7.348,0,0,1-5.942,2.829.525.525,0,0,1-.083.045C1973.485,1589.955,1972.436,1591.769,1972.095,1592.764Z" transform="translate(-1960.542 -1354.501)" fill="#c45446"/>
        <path id="Path_8021" data-name="Path 8021" d="M1969.607,786.374s9.057,5.064,12.292,6.524c1.151.519,3.235,1.489,5.365,2.484,1.286.6,2.587,1.211,3.713,1.742a4.668,4.668,0,0,0,5.532-1.193c4.9-5.726,17.6-18.137,30.7-19.693l.045-.02-.006.014.017,0-.073.141c-.737,1.832-7.922,19.785-8.145,23.571-.235,3.991-.939,65.265-.939,65.265s.47,2.817-4.93,1.643-6.808-2.347-6.808-2.347,5.165-37.8,3.756-50.944a29.243,29.243,0,0,1,.55-8.473,67.325,67.325,0,0,1-17.394,6.986,79.157,79.157,0,0,1-8.965-4.911,56.282,56.282,0,0,1-7.559-6.082,110.992,110.992,0,0,1-8.593-9.889Z" transform="translate(-1957.54 -741.291)" fill="#e37970"/>
        <path id="Path_8022" data-name="Path 8022" d="M2065.137,1239.166l5.979.183s13.811-15.377,21.558-40.027q.271-.859.573-1.74c4.24-12.363,13.03-27.881,17.661-41.927.737-2.237,1.4-4.343,1.993-6.336.19-.638.376-1.265.552-1.883l-4.925-3.738s-14.788,23.946-19.366,46.481C2085.186,1209.755,2069.26,1233.309,2065.137,1239.166Z" transform="translate(-2031.673 -1022.233)" fill="#82b378"/>
        <path id="Path_8023" data-name="Path 8023" d="M2236.541,1171.648c-.084,10.959.47,36.154,1.9,46.584h5.3c2.928,0,4.388-.042,4.388-.042,3.58-18.136,6.127-33.142,7.982-46.073,1.521-10.611,2.874-19.708,3.914-27.54,1.047-7.881,1.775-14.48,2.036-20.056q.06-1.317.086-2.561t.014-2.43l-28.9-2.817C2233.618,1135.914,2236.587,1165.279,2236.541,1171.648Z" transform="translate(-2160.2 -1001.602)" fill="#a8d29f"/>
        <path id="Path_8024" data-name="Path 8024" d="M2277.756,1243.581c2.927,0,4.387-.042,4.387-.042,3.581-18.136,6.127-33.142,7.982-46.073,1.521-10.611,2.873-19.708,3.913-27.54,1.047-7.881,1.775-14.48,2.036-20.056l-10.6,6.238s6.768,2.387,4.186,20.465S2281.35,1241.022,2277.756,1243.581Z" transform="translate(-2194.222 -1026.951)" fill="#82b378"/>
        <path id="Path_8025" data-name="Path 8025" d="M2239.9,865.362s2.035,7.355,9.078,6.416,17.058-5.165,17.058-5.165-3.01-9.51-6.752-22c-4.531-15.126-10.139-34.625-12.782-46.925a75.991,75.991,0,0,1-1.437-8.386l-5.965-11.342s-8.591,19.558-9.06,24.488S2239.9,865.362,2239.9,865.362Z" transform="translate(-2157.731 -742.621)" fill="#e37970"/>
        <path id="Path_8026" data-name="Path 8026" d="M2149.444,904.319c3.39.445,4.689,2.247,5.108,4.677a10.322,10.322,0,0,0,1.476,3.523c3.376.181,11.417.619,18.173,1.047l.557,8.861a101.169,101.169,0,0,1-20.218-4.786,5.289,5.289,0,0,1-2.3-1.251c-4.863-3.983-7.624-10.654-7.633-11.609S2146.054,903.874,2149.444,904.319Z" transform="translate(-2092.428 -838.991)" fill="#ffb27d"/>
        <path id="Path_8027" data-name="Path 8027" d="M2273.267,876.818c.315,7.982,2.193,23.476,18.938,31.771.045.021.089.045.134.063-4.531-15.126-10.139-34.625-12.783-46.925C2276.48,866.325,2273.1,872.424,2273.267,876.818Z" transform="translate(-2190.784 -806.664)" fill="#c45446"/>
        <path id="Path_8028" data-name="Path 8028" d="M2265.976,777.957s14.324,1.016,17.768,8.685,4.539,33.18.156,40.693c0,0-6.033,1.718-16.7-.277l-.394-.075s-3.4-8.334-.352-9.978c0,0,9,.47,8.06-2.5S2265.976,777.957,2265.976,777.957Z" transform="translate(-2184.606 -742.621)" fill="#e37970"/>
        <g id="Group_7547" data-name="Group 7547" transform="translate(0 38.968)">
          <path id="Path_8029" data-name="Path 8029" d="M1925.394,793.477a8.613,8.613,0,0,1,9.652,6.02l-1.439,4.814c-2.375.328-4.454-.291-6.37-3.032s-2.442-1.689-3.66-3.728C1921.925,794.785,1924.509,793.754,1925.394,793.477Z" transform="translate(-1923.037 -793.381)" fill="#ffb27d"/>
          <path id="Path_8030" data-name="Path 8030" d="M1981.9,825.872c1.151.519,3.235,1.489,5.365,2.484-1.139,2.024-2.565,5.7-2.944,11.778a49.18,49.18,0,0,1-7.785-6.271,103.256,103.256,0,0,1-8.367-9.7l1.439-4.814S1978.664,824.412,1981.9,825.872Z" transform="translate(-1957.54 -813.233)" fill="#ffb27d"/>
        </g>
      </g>
      <path id="Path_8031" data-name="Path 8031" d="M1923.685,806.39l-19.489.856a.269.269,0,0,1-.28-.25h0a.269.269,0,0,1,.24-.285l19.4-2.089a.887.887,0,0,1,.98.822h0A.887.887,0,0,1,1923.685,806.39Z" transform="translate(-1149.546 -143.638)" fill="#163560"/>
    </g>
  </g>
</svg>
