<svg xmlns="http://www.w3.org/2000/svg" xmlns:xlink="http://www.w3.org/1999/xlink" width="447.133" height="230.772" viewBox="0 0 447.133 230.772">
  <defs>
    <clipPath id="clip-path">
      <path id="Path_7938" data-name="Path 7938" d="M1809.35,699.351c-27.919,25.676-62.655,25.627-97.988,11.389h0c-20.679-8.327-42.551-22.779-54.44-41.4-16.079-24.848-10.471-46.222,1.929-72.954,16.458-35.505,43.094-56.553,82.3-52.211,50.307,5.569,82.066,42.158,90.756,90.756C1836.288,659.408,1827.053,683.075,1809.35,699.351Z" transform="translate(-1647.023 -543.609)" fill="none"/>
    </clipPath>
  </defs>
  <g id="policy-2" transform="translate(-1383.393 -190.969)">
    <path id="Path_7848" data-name="Path 7848" d="M1809.35,699.351c-27.919,25.676-62.655,25.627-97.988,11.389h0c-20.679-8.327-42.551-22.779-54.44-41.4-16.079-24.848-10.471-46.222,1.929-72.954,16.458-35.505,43.094-56.553,82.3-52.211,50.307,5.569,82.066,42.158,90.756,90.756C1836.288,659.408,1827.053,683.075,1809.35,699.351Z" transform="translate(-135.479 -351.393)" fill="#e8f0ff"/>
    <g id="Group_7494" data-name="Group 7494" transform="translate(1471.395 342.091)">
      <g id="Group_7489" data-name="Group 7489" transform="translate(42.387 31.657)">
        <path id="Path_7850" data-name="Path 7850" d="M1691.579,1399.843s-5.547-6.472-.342-10.583c0,0,3.8-2.3,6.9-2.115,0,0-4.393,7.367-2.972,8.1s4.3-8.561,4.3-8.561,8.652-.839,11.436.5c0,0-7.4,6.053-5.839,6.414s9.547-5.581,9.547-5.581,8.053,1.371,7.623,6.283-3.2,6.43-4.424,6.3-8.354-2.854-8.509-1.855,4.139,4.265,7.146,4.418c0,0-5.678,6.261-9.451,4.455s-4.1-4.672-6.447-5.746-4.36-1.072-3.389.024,5.228,2.161,6.573,4.54,2.552,3.984-1.352,3.4-10.25-3.444-10.528-6.715Z" transform="translate(-1682.203 -1386.424)" fill="#6d89cf"/>
        <g id="Group_7488" data-name="Group 7488" transform="translate(0 7.969)">
          <path id="Path_7851" data-name="Path 7851" d="M1709.911,1423.46s-21.872-.843-26.7,5.412a15.821,15.821,0,0,1-4.355,6.113l-.512,1.4s3.79-4,5.146-4.239C1683.487,1432.144,1681.366,1424.394,1709.911,1423.46Z" transform="translate(-1673.833 -1423.422)" fill="#6d89cf"/>
          <path id="Path_7852" data-name="Path 7852" d="M1662.431,1475.1a13.735,13.735,0,0,0-5.021,9.676l.852.076s1.5-6.414,4.21-8.923S1662.431,1475.1,1662.431,1475.1Z" transform="translate(-1657.41 -1463.538)" fill="#6d89cf"/>
        </g>
      </g>
      <g id="Group_7491" data-name="Group 7491" transform="translate(0 14.086)">
        <path id="Path_7853" data-name="Path 7853" d="M1492.982,1327.7s8.824-4.942,4.707-11.648c0,0-3.294-4.118-6.824-5.177,0,0,1.883,10,0,10.236s-1.295-11.3-1.295-11.3-9.295-4.471-12.942-4.118c0,0,5.765,9.766,3.883,9.53s-8.354-10.119-8.354-10.119-9.53-1.765-11.06,3.883.941,8.471,2.354,8.824,10.471.235,10.236,1.412-6.354,3.059-9.766,2c0,0,3.765,9.3,8.707,8.824s6.471-3.53,9.53-3.765,5.294.588,3.765,1.412-6.707.27-9.177,2.37-4.471,3.395.118,4.336,12.824.353,14.471-3.177Z" transform="translate(-1460.615 -1304.845)" fill="#93b3f4"/>
        <g id="Group_7490" data-name="Group 7490" transform="translate(4.836 5.909)">
          <path id="Path_7854" data-name="Path 7854" d="M1483.067,1332.278s24.708,8,27.532,16.943a18.773,18.773,0,0,0,2.353,8.589v1.765s-2.588-6-4-6.824C1508.952,1352.75,1514.482,1344.985,1483.067,1332.278Z" transform="translate(-1483.067 -1332.278)" fill="#6d89cf"/>
          <path id="Path_7855" data-name="Path 7855" d="M1617.517,1446.815a16.3,16.3,0,0,1,1.638,12.83l-.98-.264s.952-7.758-1.042-11.66S1617.517,1446.815,1617.517,1446.815Z" transform="translate(-1587.632 -1421.283)" fill="#6d89cf"/>
        </g>
      </g>
      <g id="Group_7493" data-name="Group 7493" transform="translate(38.76 0)">
        <path id="Path_7856" data-name="Path 7856" d="M1648.215,1269.568s-11.632-6.514-6.2-15.355c0,0,4.343-5.428,9-6.824,0,0-2.481,13.183,0,13.493s1.706-14.889,1.706-14.889,12.253-5.894,17.06-5.428c0,0-7.6,12.873-5.118,12.563s11.012-13.339,11.012-13.339,12.563-2.326,14.579,5.118-1.241,11.167-3.1,11.632-13.8.31-13.493,1.861,8.375,4.033,12.873,2.637c0,0-4.963,12.253-11.477,11.632s-8.53-4.653-12.563-4.963-6.979.776-4.963,1.861,8.84.355,12.1,3.125,5.894,4.475-.155,5.716-16.906.465-19.077-4.188Z" transform="translate(-1640.568 -1239.445)" fill="#93b3f4"/>
        <g id="Group_7492" data-name="Group 7492" transform="translate(1.504 7.789)">
          <path id="Path_7857" data-name="Path 7857" d="M1701.065,1275.607s-32.57,10.546-36.292,22.334a24.743,24.743,0,0,1-3.1,11.322v2.327s3.412-7.91,5.273-9C1666.944,1302.594,1659.655,1292.357,1701.065,1275.607Z" transform="translate(-1658.629 -1275.607)" fill="#6d89cf"/>
          <path id="Path_7858" data-name="Path 7858" d="M1650.59,1426.589a21.481,21.481,0,0,0-2.16,16.912l1.292-.347s-1.254-10.227,1.374-15.37S1650.59,1426.589,1650.59,1426.589Z" transform="translate(-1647.548 -1392.933)" fill="#6d89cf"/>
        </g>
      </g>
      <path id="Path_7859" data-name="Path 7859" d="M1591.249,1520.859a22.786,22.786,0,0,0,22.786-22.785h-45.571A22.786,22.786,0,0,0,1591.249,1520.859Z" transform="translate(-1545.234 -1442.369)" fill="#ed6966"/>
      <path id="Path_7860" data-name="Path 7860" d="M1606.972,1520.684a22.8,22.8,0,0,1-25.616-22.612h5.661A22.79,22.79,0,0,0,1606.972,1520.684Z" transform="translate(-1555.35 -1442.368)" fill="#ea8888"/>
      <path id="Path_7861" data-name="Path 7861" d="M1613.2,1599H1567a2.811,2.811,0,0,1,2.811-2.811h40.578A2.811,2.811,0,0,1,1613.2,1599Z" transform="translate(-1544.088 -1519.355)" fill="#ed6966"/>
      <rect id="Rectangle_3197" data-name="Rectangle 3197" width="46.839" height="0.699" transform="translate(22.48 55.705)" fill="#e75755"/>
    </g>
    <g id="Group_7496" data-name="Group 7496" transform="translate(1707.553 193.204)">
      <path id="Path_7862" data-name="Path 7862" d="M2620.595,1546.225s-.663,10.692-2.731,10.846c-.275.021-10.492.021-10.492.021l-13.042-.076s.085-3.142,3.9-3.807,10.194-3.344,12.5-8.382C2613.159,1539.526,2620.595,1546.225,2620.595,1546.225Z" transform="translate(-2586.3 -1328.563)" fill="#0b0754"/>
      <path id="Path_7863" data-name="Path 7863" d="M2659.906,971.667s-6.157,3.5-7.881,3.5-8.489-1.308-10.375-.344-5.3,4.841-5.94,6.108c-1.152,2.277,4.636,1.271,7.373-.668a1.724,1.724,0,0,1,1.367-.282c1.417.309,4.361.844,5.783.318,1.912-.708,11.98-1.493,11.98-1.493Z" transform="translate(-2618.65 -880.456)" fill="#ea8888"/>
      <path id="Path_7864" data-name="Path 7864" d="M2771.709,727.209s-6.383,45.364-16.952,49.427c-5.215,2.005-28.263,6.55-35.08,7.006,0,0-1.67-1.355-1.263-6.87,0,0,24.147-8.865,27.577-13.686,5.1-7.175-3.169-29.312,3.237-36.051S2766.424,717.4,2771.709,727.209Z" transform="translate(-2683.608 -683.682)" fill="#e75755"/>
      <path id="Path_7865" data-name="Path 7865" d="M2720.09,1096.981a79.513,79.513,0,0,1-6.235,8.921c-6.86,8.66-14.328,15.8-15.628,22.551a30.554,30.554,0,0,1-1.206,4.32c-.543,1.546-1.215,3.172-1.99,4.853a149.5,149.5,0,0,1-11.61,19.849c-7.514,11.134-13.664,18.6-13.664,18.6s-1.97,1.537-7.605,1.535c-1.568,0-6.848-.859-6.848-.859.519-1.3,6.751-16.08,14.311-34.866l9.484-23.562q.63-1.566,1.255-3.116c.962-2.395,1.91-4.751,2.835-7.046,7.1-17.641,12.753-31.688,12.753-31.688s28.372-10.748,31.318-3.783C2729.689,1078.435,2727.71,1084.06,2720.09,1096.981Z" transform="translate(-2634.141 -957.88)" fill="#3662c1"/>
      <path id="Path_7866" data-name="Path 7866" d="M2830.864,1416.938s9.013,5.791,8.138,7.672c-.116.25-5.1,9.171-5.1,9.171l-6.424,11.35s-2.7-1.606-1.424-5.259,2.05-10.53-1.224-15C2821.39,1420.165,2830.864,1416.938,2830.864,1416.938Z" transform="translate(-2766.565 -1229.821)" fill="#0b0754"/>
      <path id="Path_7867" data-name="Path 7867" d="M2661.013,1161.011s6.344-5.892,7.337-9.536c0,0-23.209-27.808-28.244-34.041-.231-.285-.172-.6.133-.944,3.8-4.286,46.031-13,51.55-21.585a26.615,26.615,0,0,0,3.566-8.221,19.441,19.441,0,0,0,.262-8.859l-42.175-1.22s-35.114,21.865-39.091,36.772S2661.013,1161.011,2661.013,1161.011Z" transform="translate(-2601.835 -962.791)" fill="#6d89cf"/>
      <path id="Path_7868" data-name="Path 7868" d="M2735.354,1123.491c3.8-4.286,46.03-13,51.549-21.585a26.618,26.618,0,0,0,3.566-8.221v-5.338l-17.925-2.819s-5.083,15.641-20.138,21.507C2738.306,1112.528,2735.635,1122.277,2735.354,1123.491Z" transform="translate(-2696.95 -969.793)" fill="#3662c1"/>
      <path id="Path_7869" data-name="Path 7869" d="M2850.233,665.3c8.532,2.205,22.676-5.7,22.676-5.7a20.937,20.937,0,0,1-7.527-11.8c-.1-.409-.2-.827-.28-1.257-.893-.19-2.579-.548-4.381-.929l-6.516,5.838a55.971,55.971,0,0,0,.964,6.591q.211,1.091.49,2.339A20.1,20.1,0,0,0,2850.233,665.3Z" transform="translate(-2787.085 -624.632)" fill="#fdb3b1"/>
      <path id="Path_7870" data-name="Path 7870" d="M2837.617,739.307c-1.221,16.436.385,41.434-1,45.764-1.2,3.735-14.829,1.514-20.271.267-2.014-.461-4.453-1.121-6.973-1.9-7.028-2.176-14.686-5.283-15.507-7.59a1.964,1.964,0,0,1-.076-.266,2.111,2.111,0,0,1,.015-.967c.274-1.175,1.329-2.448,1.454-5.359.139-3.251.118-7.078.24-11.195.007-.464.013-.969.063-1.43l0-.168c0-.089,0-.175.006-.264.118-4.59.358-9.417.636-14.2.177-3.006.381-5.983.617-8.836.613-7.363,1.439-13.911,2.532-18.05,1.787-6.748,5.726-11.149,9.312-14.374l2.594-2.225a15,15,0,0,0,9.41-1.254c3.349-1.591,4.506-2.73,5.09-2.3C2833.5,700.924,2839.06,719.213,2837.617,739.307Z" transform="translate(-2742.76 -663.274)" fill="#ed6966"/>
      <path id="Path_7871" data-name="Path 7871" d="M2809.552,875c-7.028-2.176-14.685-5.283-15.507-7.59a2,2,0,0,1-.076-.266q.006-.483.015-.967c.274-1.175,1.329-2.448,1.454-5.359.139-3.251.118-7.079.24-11.2.007-.464.013-.969.063-1.43l0-.168c0-.089,0-.175.006-.264l28.413-36.2S2843.259,851.335,2809.552,875Z" transform="translate(-2742.94 -754.838)" fill="#e75755"/>
      <path id="Path_7872" data-name="Path 7872" d="M2868.67,651.453a55.929,55.929,0,0,0,.964,6.591c6.364-2.057,9.25-7.8,10.214-10.243-.1-.409-.2-.827-.28-1.257-.894-.19-2.579-.548-4.382-.929Z" transform="translate(-2801.551 -624.632)" fill="#ea8888"/>
      <path id="Path_7873" data-name="Path 7873" d="M2836.674,599.882s13.878-2.316,12.3-10.936-.845-14.725-9.772-13.61-10.043,4.717-10.217,7.722S2833.023,600.262,2836.674,599.882Z" transform="translate(-2770.412 -569.387)" fill="#fdb3b1"/>
      <path id="Path_7874" data-name="Path 7874" d="M2602.768,913.005l-34.644.74-9.85-30.313-1.224.4,10.412,32.045,35.35-.755Z" transform="translate(-2557.051 -811.225)" fill="#e75755"/>
      <path id="Path_7875" data-name="Path 7875" d="M2676.524,1014.973s-11.358,2.995-15.618,2.68-7.8-2.34-8.338-3.4-1.662-2.933,1.238-2.587,6.859.963,6.982.405-2.364-.5-2.364-.5-.751-1.093.2-1.133,3.707-.788,4.732-.276,1.972,2.406,2.722,2.327,9.5-3.944,9.5-3.944Z" transform="translate(-2631.469 -909.39)" fill="#fdb3b1"/>
      <path id="Path_7876" data-name="Path 7876" d="M2779.953,739.68s-1.343,45.792-11.4,51c-4.962,2.567-27.368,9.625-34.094,10.831,0,0-1.81-1.162-2.013-6.689,0,0,23.022-11.473,25.9-16.643,4.283-7.694-6.382-28.784-.757-36.188S2773.619,730.515,2779.953,739.68Z" transform="translate(-2694.669 -694.292)" fill="#ed6966"/>
      <path id="Path_7877" data-name="Path 7877" d="M2829.742,571.362s.159-2.957-1.666-4.652c0,0,.636-2.965-.538-3.454s-1.417,2-1.955,1.613a11.981,11.981,0,0,1-3.959-4.986c-1.026-2.737-10.42.578-11.516,1.071s-4.614-1.316-5.3-2.782a20.593,20.593,0,0,0,2.835-2.737c.88-1.173,7.039-9.091,15.641-6.843s9.775,6.354,9.287,9.873S2833.265,570.181,2829.742,571.362Z" transform="translate(-2751.446 -548.193)" fill="#232065"/>
      <g id="Group_7495" data-name="Group 7495" transform="translate(62.789 147.849)">
        <path id="Path_7878" data-name="Path 7878" d="M2906.053,1314.073c-5.419-5.536-14.967-9.347-26-9.8v-18.306h17.04c.422,0,.8-.368,1.038-.936a3.752,3.752,0,0,0,.267-1.429v-.825c0-1.3-.587-2.364-1.3-2.364h-17.04v-43.6a2.2,2.2,0,0,0-2.189-2.189h0a2.2,2.2,0,0,0-2.189,2.189v43.6h-17.041c-.717,0-1.3,1.064-1.3,2.364v.825a3.711,3.711,0,0,0,.284,1.469c.239.546.609.9,1.021.9h17.041v18.306c-11.029.448-20.577,4.26-26,9.8q-.591.6-1.113,1.232h58.6C2906.82,1314.885,2906.447,1314.475,2906.053,1314.073Z" transform="translate(-2848.569 -1234.625)" fill="#fc9290"/>
        <path id="Path_7879" data-name="Path 7879" d="M2905.942,1557.927c-7.7.712-14.309,4.427-18.138,9.715q-.438.6-.823,1.231h-5.421q.386-.629.823-1.231c4.272-5.9,12.01-9.84,20.848-9.84Q2904.606,1557.8,2905.942,1557.927Z" transform="translate(-2874.453 -1488.194)" fill="#fdacab"/>
      </g>
      <path id="Rectangle_3198" data-name="Rectangle 3198" d="M8.127,0H55.156a8.128,8.128,0,0,1,8.128,8.128v0a8.128,8.128,0,0,1-8.128,8.128H8.127A8.127,8.127,0,0,1,0,8.128v0A8.127,8.127,0,0,1,8.127,0Z" transform="translate(59.688 133.19)" fill="#e75755"/>
    </g>
    <g id="Group_7500" data-name="Group 7500" transform="translate(1383.393 190.969)">
      <g id="man" transform="translate(0 0)">
        <path id="Path_7880" data-name="Path 7880" d="M1585.011,756.333c-.973,2.616-2.659,5.653-4.429,6.408a6.858,6.858,0,0,0-2.844,2.065l-1.62-.941-1.935-1.125s.046-.215.141-.565.238-.834.435-1.372a1.875,1.875,0,0,0,.23-1.722,4,4,0,0,1,.33-3.341c.621-.9,1.22-3.124,1.593-3.058.905.155-.445,3.211-.057,3.777a.668.668,0,0,0,.869.3l.015-.009c2.539-1.116,5.619-7.135,6.982-6.323C1585.229,750.731,1585.426,755.218,1585.011,756.333Z" transform="translate(-1461.721 -704.573)" fill="#fdb3b1"/>
        <g id="Group_7497" data-name="Group 7497" transform="translate(114.295 42.902)">
          <path id="Path_7881" data-name="Path 7881" d="M1582.906,749.5l3.181,2.235a.5.5,0,0,0,.7-.121l8.148-11.594a.5.5,0,0,0-.121-.7l-3.181-2.235a.5.5,0,0,0-.7.121l-8.148,11.594A.5.5,0,0,0,1582.906,749.5Z" transform="translate(-1582.695 -737)" fill="#232065"/>
          <path id="Path_7882" data-name="Path 7882" d="M1596.61,759.08l1.865,1.31a.381.381,0,0,0,.529-.093l8.285-11.789a.381.381,0,0,0-.092-.529l-1.865-1.31a.381.381,0,0,0-.529.092l-8.285,11.789A.381.381,0,0,0,1596.61,759.08Z" transform="translate(-1593.486 -744.532)" fill="#120e59"/>
        </g>
        <path id="Path_7883" data-name="Path 7883" d="M1339.745,717.8s16.184,28.228,22.056,33.423l21.529-16.051a7.858,7.858,0,0,1,4.492,4.094s-13.074,26.636-25.946,27.765-30.939-31.926-30.939-31.926Z" transform="translate(-1270.868 -679.033)" fill="#120e59"/>
        <g id="Group_7498" data-name="Group 7498" transform="translate(15.685 104.001)">
          <path id="Path_7884" data-name="Path 7884" d="M1141.435,1540.063h-9.351a5.669,5.669,0,0,1-2.558-4.285c-.457-3.013-3.833-4.656-4.564-7.12s3.013-5.931,3.013-5.931l.626-.807.651-.838,6.207,1.462s.154,1.479.247,3.361a42.992,42.992,0,0,1,.027,4.305c-.182,3.285.919,6.824,3.838,7.463C1141.729,1538.146,1141.633,1539.427,1141.435,1540.063Z" transform="translate(-1124.868 -1413.3)" fill="#120e59"/>
          <path id="Path_7885" data-name="Path 7885" d="M1373.328,1569.366h-21.385c-1.028-1.255-.649-5.887-.494-7.4.032-.3.054-.482.054-.482s7.3-5.841,8.306-1.368c.031.14.068.277.108.413,1.264,4.183,6.932,6.084,10.205,6.614A3.707,3.707,0,0,1,1373.328,1569.366Z" transform="translate(-1302.491 -1442.603)" fill="#120e59"/>
          <path id="Path_7886" data-name="Path 7886" d="M1321.97,1048.006s-1.109,13.835-2.412,30.465c-1.771,22.591-3.9,50.34-4.112,55.6-.364,9.128-1.826,23.73-1.826,23.73s-3.466,3.469-10.4,2.007a238.887,238.887,0,0,1-7.949-42.9l-.082-1.09c-1.643-22.451-4.2-69.727-4.2-69.727Z" transform="translate(-1255.207 -1040.614)" fill="#ed6966"/>
          <path id="Path_7887" data-name="Path 7887" d="M1321.97,1048.006s-1.109,13.835-2.412,30.465l-24.291,38.436-.082-1.09c-1.643-22.451-4.2-69.727-4.2-69.727Z" transform="translate(-1255.207 -1040.614)" fill="#e75755"/>
          <path id="Path_7888" data-name="Path 7888" d="M1197.884,1029.7s-19.987,50.1-33.129,73.651-17.249,30.117-17.249,30.117-7.53-3.012-8.214-5.065c0,0,5.025-45.457,13.827-56.539,4.973-6.261,10.815-25.052,11.089-31.623s1.779-19.576,1.779-19.576Z" transform="translate(-1136.185 -1020.668)" fill="#ed6966"/>
        </g>
        <path id="Path_7889" data-name="Path 7889" d="M1310.541,647.622c-7.81,2.464-21.324-4.187-21.324-4.187s7.2-5.4,6.824-16.642l6.039,4.867,4.1,3.306a49.134,49.134,0,0,1-.465,5.364c-.118.9-.265,1.9-.452,2.994A18.688,18.688,0,0,1,1310.541,647.622Z" transform="translate(-1238.134 -607.628)" fill="#fdb3b1"/>
        <path id="Path_7890" data-name="Path 7890" d="M1330.948,652.267a49.132,49.132,0,0,1-.465,5.364c-4.545-.78-9.7-8.127-9.7-8.127a14.48,14.48,0,0,1,6.064-.543Z" transform="translate(-1262.9 -624.93)" fill="#ea8888"/>
        <path id="Path_7891" data-name="Path 7891" d="M1322.859,586.128s-12.9,2.143-14.112-5.912-3.692-13.2,4.494-14.912,10.252,1.124,11.31,3.714S1326.184,585.362,1322.859,586.128Z" transform="translate(-1252.422 -558.975)" fill="#fdb3b1"/>
        <path id="Path_7892" data-name="Path 7892" d="M1295.5,769.474a1.263,1.263,0,0,1-.821.313c-2.933-.04-11.486,1.589-18.723.846a53.909,53.909,0,0,1-17.3-4.992c-.77-.345-2.542-1.291-2.5-2.152.026-.942.12-2.309.237-4.031a215.644,215.644,0,0,0,.428-28.158c-.125-2.212-.191-4.406-.2-6.565-.059-16.1,3.133-30.256,9.547-35.048.548-.393,3.911,1.251,7,2.776a12.79,12.79,0,0,0,8.408,1.018l2.7,2.385a26.96,26.96,0,0,1,8.448,13.493c1.331,5.358,2.112,15.02,2.542,25.032.2,4.537.353,9.113.393,13.455V748c.038.431.038.9.038,1.331C1295.855,760.478,1295.7,769.317,1295.5,769.474Z" transform="translate(-1212.193 -656.929)" fill="#232065"/>
        <path id="Path_7893" data-name="Path 7893" d="M1257.261,846.612a215.643,215.643,0,0,0,.428-28.158c-.125-2.212-.191-4.406-.2-6.565,2.672-6.482,4.856-11.182,4.856-11.182h6.734S1274.018,834.432,1257.261,846.612Z" transform="translate(-1213.06 -744.083)" fill="#120e59"/>
        <g id="Group_7499" data-name="Group 7499" transform="translate(0 110.909)">
          <path id="Path_7894" data-name="Path 7894" d="M1108.046,1074.233l-28.723-4.093a6.885,6.885,0,0,0-7.765,5.828l-1.774,12.447a6.886,6.886,0,0,0,5.828,7.765l28.723,4.093a6.886,6.886,0,0,0,7.766-5.828l1.774-12.447A6.885,6.885,0,0,0,1108.046,1074.233Z" transform="translate(-1065.909 -1066.339)" fill="#120e59"/>
          <path id="Path_7895" data-name="Path 7895" d="M1095.805,1064.346h0a6.917,6.917,0,0,0-4.759-4.156h-.007a6.708,6.708,0,0,0-.663-.129l-5.719-.814.382-2.686a2.275,2.275,0,0,0-1.93-2.572l-1.492-.213-6.005-.856-1.083-.154a2.276,2.276,0,0,0-2.571,1.93l-.382,2.686-9.872-1.408a6.913,6.913,0,0,0-7.8,5.85l-1.793,12.592a6.91,6.91,0,0,0,5.85,7.793l28.671,4.087a6.728,6.728,0,0,0,1.5.047h.005a6.775,6.775,0,0,0,2.238-.565,6.9,6.9,0,0,0,4.056-5.334l1.8-12.591A6.84,6.84,0,0,0,1095.805,1064.346Zm-22.436-9.451a.85.85,0,0,1,.705-.717.864.864,0,0,1,.255,0l1.276.181,4.726.675,2.576.367a.85.85,0,0,1,.721.959l-.382,2.686-10.26-1.463Z" transform="translate(-1052.047 -1052.741)" fill="#232065"/>
        </g>
        <path id="Path_7896" data-name="Path 7896" d="M1165.137,1015.348q.011-.23.029-.472a9.972,9.972,0,0,1,1.568-2.812l-3.782-1.963-1.5,2.475c-2.262,1.8-2.3,1.831-1.891,5.277.357,2.987-1.6,3.023-1.55,5.155s2.795,1.085,2.795,1.085c4.259-2,4.612-3.006,4.481-5.034.4.573.856.907,1.24.658.338-.22-.337-1.093-.631-3.115A3.622,3.622,0,0,0,1165.137,1015.348Z" transform="translate(-1135.189 -908.376)" fill="#fdb3b1"/>
        <path id="Path_7897" data-name="Path 7897" d="M1168.547,766.27a22.065,22.065,0,0,0,5.054.281s7.2-22.241,8.126-24.273,21.386-26.079,21.386-26.079l-8.523-21.329s-22.128,36.963-24.375,42.157c-3.713,8.583-5,27.825-5,27.825A9.264,9.264,0,0,0,1168.547,766.27Z" transform="translate(-1140.839 -661.042)" fill="#232065"/>
        <path id="Path_7898" data-name="Path 7898" d="M1302.07,558.279s1.324-.221,1.11-2.045-.211-4.207,1.272-3.763,1.556,1.631,2.166.938.62-3.613,5.032-3.817,6.2,1.332,8.255.43,2.16-4.007,2.16-4.007a3.53,3.53,0,0,1-1.464,1.461s3.422-4.681-.54-7.891-8-1.109-10.3-.97c-5.052.306-8.316.609-9.966,3.929S1298.828,555.084,1302.07,558.279Z" transform="translate(-1245.756 -537.814)" fill="#232065"/>
      </g>
    </g>
    <g id="Group_7527" data-name="Group 7527" transform="translate(1511.543 192.217)">
      <g id="Group_7526" data-name="Group 7526" transform="translate(0 0)" clip-path="url(#clip-path)">
        <g id="Group_7525" data-name="Group 7525" transform="translate(-0.411 39.34)">
          <g id="Group_7507" data-name="Group 7507">
            <g id="Group_7503" data-name="Group 7503" transform="translate(80.442 3.172)">
              <path id="Path_7899" data-name="Path 7899" d="M2049.432,1030.332s-13.054-2.628-15.235-2.42-9.737,3.6-9.822,4.224.29,1.116,1.612,1.171,5.653-.617,5.391-.084-12.712,3.321-12.785,5.844,6.907,7.024,12.709,7.186,17.016-6.867,17.99-6.978C2057.556,1038.335,2049.432,1030.332,2049.432,1030.332Z" transform="translate(-2018.593 -966.102)" fill="#ea8888"/>
              <g id="Group_7501" data-name="Group 7501" transform="translate(23.976)">
                <path id="Path_7900" data-name="Path 7900" d="M2208.074,776.2c-5.1,6.35-9.35,11.274-11.591,13.063a50.485,50.485,0,0,1-6.617,4.336c-18.612,10.5-54.407,21.161-54.407,21.161s-.026-.017-.071-.051a15.641,15.641,0,0,1-4.469-5.372c-1.363-2.757-1.083-4.468-.677-5.364a2.362,2.362,0,0,1,.539-.792s42.9-27.415,46.326-30.27c1.945-1.62,8.991-18.022,14.73-31.928q1.2,1.745,2.332,3.544A121.268,121.268,0,0,1,2208.074,776.2Z" transform="translate(-2129.909 -740.987)" fill="#e75755"/>
              </g>
              <g id="Group_7502" data-name="Group 7502" transform="translate(82.607 82.201)">
                <path id="Path_7901" data-name="Path 7901" d="M2421.948,1124.19q-.405,1.15-.851,2.286a71.313,71.313,0,0,1-5.011,10.269v0q-1.728,2.933-3.731,5.7a76.267,76.267,0,0,1-10.235,11.51c.02-.287.042-.574.063-.86.03-.442.063-.881.093-1.317q.1-1.448.2-2.845.04-.542.078-1.074c.163-2.3.319-4.486.464-6.534q.063-.883.123-1.734c.012-.169.024-.336.035-.5.025-.333.047-.663.071-.989.022-.3.042-.586.063-.875,0-.031,0-.059.007-.088q.03-.441.061-.871c.035-.485.069-.957.1-1.422.021-.289.041-.572.061-.852q.045-.656.09-1.278c.008-.1.015-.2.021-.3.016-.2.029-.4.043-.587l.02-.289a.252.252,0,0,0,0-.036c.027-.372.052-.735.078-1.086,0-.019,0-.037,0-.056.019-.257.037-.509.054-.753,0-.083.012-.164.017-.243.01-.14.021-.279.029-.416.009-.111.017-.223.024-.332.054-.766.1-1.467.149-2.1.007-.09.013-.179.018-.265s.014-.177.019-.263c.011-.166.023-.326.033-.48.079-1.109.135-1.918.169-2.393,0-.049.007-.095.01-.137,0-.014,0-.027,0-.041,0-.044,0-.083.007-.116l.015-.2Z" transform="translate(-2402.119 -1122.628)" fill="#fb867e"/>
                <path id="Path_7902" data-name="Path 7902" d="M2421.948,1124.19q-.405,1.15-.851,2.286a71.313,71.313,0,0,1-5.011,10.269v0q-1.728,2.933-3.731,5.7a76.267,76.267,0,0,1-10.235,11.51c.02-.287.042-.574.063-.86.03-.442.063-.881.093-1.317q.1-1.448.2-2.845.04-.542.078-1.074c.163-2.3.319-4.486.464-6.534q.063-.883.123-1.734c.012-.169.024-.336.035-.5.025-.333.047-.663.071-.989.022-.3.042-.586.063-.875,0-.031,0-.059.007-.088q.03-.441.061-.871c.035-.485.069-.957.1-1.422.021-.289.041-.572.061-.852q.045-.656.09-1.278c.008-.1.015-.2.021-.3.016-.2.029-.4.043-.587l.02-.289a.252.252,0,0,0,0-.036c.027-.372.052-.735.078-1.086,0-.019,0-.037,0-.056.019-.257.037-.509.054-.753,0-.083.012-.164.017-.243.01-.14.021-.279.029-.416.009-.111.017-.223.024-.332.054-.766.1-1.467.149-2.1.007-.09.013-.179.018-.265s.014-.177.019-.263c.011-.166.023-.326.033-.48.079-1.109.135-1.918.169-2.393,0-.049.007-.095.01-.137,0-.014,0-.027,0-.041,0-.044,0-.083.007-.116l.015-.2Z" transform="translate(-2402.119 -1122.628)" fill="#ea8888"/>
              </g>
              <path id="Path_7903" data-name="Path 7903" d="M2423.389,802.718a68.32,68.32,0,0,1-2.832,34.942q-.405,1.15-.851,2.286a71.352,71.352,0,0,1-5.011,10.269v0q-1.728,2.933-3.731,5.7c-3.825-.552-6.936-1-8.854-1.053a2.489,2.489,0,0,1-1.617-.682c-.38-.329-.02-18,1.145-40.253.034-.858.067-1.8.179-2.654l.008-.314q.109-2.2.231-4.449.073-1.294.151-2.6c.359-5.935.805-12.006,1.29-18.061q.071-.872.138-1.739c.765-9.318,1.663-18.478,2.724-26.672a121.276,121.276,0,0,1,13.906,31.673Q2422.146,795.752,2423.389,802.718Z" transform="translate(-2318.122 -753.897)" fill="#ed6966"/>
            </g>
            <g id="Group_7506" data-name="Group 7506">
              <path id="Path_7904" data-name="Path 7904" d="M1670.655,811.13c-.213-6.23-.53-13.651-.949-21.666-.034-.858-.071-1.8-.179-2.654l-.013-.314c-.034-.711-.068-1.425-.1-2.142-.02-.405-.042-.811-.064-1.218q-.1-1.831-.211-3.689c-.36-5.935-.807-12.006-1.286-18.061-.051-.581-.1-1.162-.143-1.739-.706-8.633-1.528-17.129-2.49-24.846v0c-.007-.044-.012-.086-.017-.13-.12-.969-.247-1.932-.372-2.875-.252-1.9-.513-3.752-.785-5.533q-.557.912-1.1,1.84-3.192,5.456-5.952,11.434a182.658,182.658,0,0,0-9.615,26.108c-.017.059-.034.116-.051.176a56.647,56.647,0,0,0-1.822,8.928v0c-.052.417-.1.836-.138,1.253h0c-1.281,13.281,2.5,25.71,9.688,36.814.245.383.5.765.755,1.145q.76,1.132,1.572,2.245.57.788,1.167,1.565c.081.11.166.218.252.327a90.935,90.935,0,0,0,9.214,10.176q.821.783,1.663,1.553l.42.382a2.7,2.7,0,0,0,.756-.491C1671.094,829.505,1671.035,822.2,1670.655,811.13Z" transform="translate(-1645.117 -726.259)" fill="#2b276a"/>
              <path id="Path_7905" data-name="Path 7905" d="M1672.057,859.485C1662.05,849,1653.709,836.128,1646.9,823.1v0a56.619,56.619,0,0,1,1.822-8.928c.017-.059.034-.117.051-.176a182.644,182.644,0,0,1,9.615-26.108c6.142,8.78,10.448,16.86,10.713,20.114.047.578.093,1.158.143,1.739.479,6.055.927,12.126,1.286,18.061q.114,1.857.211,3.689c.022.407.044.812.064,1.218.037.718.071,1.432.1,2.142l.013.314c.108.853.145,1.8.179,2.654C1671.527,845.834,1671.844,853.255,1672.057,859.485Z" transform="translate(-1646.52 -774.614)" fill="#15115b"/>
              <g id="Group_7505" data-name="Group 7505" transform="translate(2.258 1.84)">
                <path id="Path_7906" data-name="Path 7906" d="M1957.27,1042.827s13.316.013,15.412.649,8.829,5.462,8.789,6.088-.506,1.036-1.812.827-5.419-1.726-5.267-1.151,11.8,5.776,11.372,8.263-8.162,5.515-13.881,4.524-15.317-10.1-16.25-10.407C1947.719,1049.06,1957.27,1042.827,1957.27,1042.827Z" transform="translate(-1888.547 -976.482)" fill="#fdb3b1"/>
                <g id="Group_7504" data-name="Group 7504">
                  <path id="Path_7907" data-name="Path 7907" d="M1726.733,805.693a15.655,15.655,0,0,1-3.85,4.354,11.1,11.1,0,0,1-1.053.743s-25.624-9.594-44.2-19.732c-6.139-3.352-11.508-6.762-14.927-9.9a70.333,70.333,0,0,1-7.107-8.808,182.691,182.691,0,0,1,9.615-26.108q2.766-5.967,5.952-11.434c.741,2.207,1.5,4.462,2.271,6.7v0c4.069,11.869,8.24,23.248,9.725,24.667,3.225,3.086,44.132,33.388,44.132,33.388a2.849,2.849,0,0,1,.674,1.614A7.193,7.193,0,0,1,1726.733,805.693Z" transform="translate(-1655.599 -734.803)" fill="#2b276a"/>
                </g>
              </g>
            </g>
          </g>
          <g id="Group_7510" data-name="Group 7510" transform="translate(96.223 91.45)">
            <g id="Group_7509" data-name="Group 7509">
              <path id="Path_7908" data-name="Path 7908" d="M2125.562,1150.841l-6.08,8.2-.6.807-.292.392-.748,1.011-.407.549-.749,1.011-.789,1.064-.738.994-.012.014v0l-.692.934-.009.012-.1.139-.012.015s0,0,0,0l-.13.174h0l-.748.929v.08l-.7.945h0l-.9,1.221h0l-.682.92v0l-.748,1.008v0l-1.251,1.687v0h0l-.123.167-.426.574v0l-.984,1.327-1.305,1.68v.081l-.677.913-.071.095v0l-.941,1.27h0l-.877,1.183-.008.012h0l-2.171,2.931v0l-3.233,4.361-5.415,7.306-.674.91-.4.535c.208.031.414.059.619.086a.01.01,0,0,0,.007,0c.719.1,1.438.184,2.154.26.2.024.4.046.6.066l.378.037c.3.031.608.057.91.083.128.012.255.024.383.034l.179.015c.2.017.4.032.6.046l.115.008c.442.034.886.061,1.327.086.2.012.4.022.6.03.157.01.314.017.471.024.03,0,.059,0,.089,0,.262.012.523.023.783.031.2.006.4.013.6.017.228.008.456.013.684.017.2.005.4.007.6.01s.425,0,.638,0,.4,0,.6,0c.111,0,.221,0,.331,0s.245,0,.366,0c.08,0,.159,0,.238,0s.157,0,.236,0c.112,0,.223,0,.335-.007.029,0,.055,0,.083,0,.057,0,.113,0,.17,0,.081,0,.16,0,.242-.007q2.348-.064,4.658-.257h0q2.662-.218,5.268-.606,2.819-.418,5.569-1.025l.093-.02a.113.113,0,0,1-.007.024l1.724-.424c.24-.057.48-.116.718-.177q3.4-.861,6.663-2,.547-.19,1.089-.387l.27-.1q1.016-.37,2.014-.77c.181-.071.361-.143.542-.216v0l.11-.042h0q.319-.13.633-.262c.159-.066.316-.132.473-.2q.278-.117.553-.238l.355-.155v0c.206-.091.412-.182.618-.275h0q3.031-1.363,5.915-2.963.3-.167.606-.339l0,0,10.581-14.279Z" transform="translate(-2091.861 -1150.841)" fill="#93b3f4"/>
              <g id="Group_7508" data-name="Group 7508" transform="translate(4.673 6.369)">
                <path id="Path_7909" data-name="Path 7909" d="M2126.585,1203.459v.844l.616-.831.008-.011v0Zm-1.159,1.114a4.623,4.623,0,0,0-.628.309l-1.351,1.822-1.035,1.395,0,1.833,1.226-1.651,2.945-3.975A3.49,3.49,0,0,0,2125.427,1204.574Zm-4.989,6.192-.154.207-.589.8-2.661,3.59v1.833l1.881-2.537,1.506-2.031.789-1.064.586-.792h-1.356Zm22.5-30.356-6.332,8.543-.056.076-.383.517-.493.664-.257.341v.005l-1.174,1.586-.488.577v.079l-.319.432-.429.577-1.748,2.357v0l-.037.049-.088.118v0l-.556.75v.079l-1.661,2.161-.643.868-.106.143-1.783,2.406-.532.718-.009.012-1.045,1.412-1.351,1.822-1.035,1.395-.748,1.011-1.228,1.655-.154.207-.589.8-2.661,3.59-.746,1.008-1.265,1.705-1.464,1.975c.128.012.255.024.383.034l.179.015c.2.017.4.032.6.046l.115.008,1.538-2.077h0l.652-.882,1.881-2.537,1.506-2.031.789-1.064.586-.792h0l.616-.833,1.226-1.651,2.945-3.975,0,0,.616-.831.008-.011v0l.958-1.211v-.079l.748-1.01.6-.806,1.065-1.437.748-1.01.844-1.138.323-.436.125-.167h0l.388-.525.75-1.01.791-1.067.792-1.069.08-.1v0l.748-1.01.574-.775.268-.356,0-.006.689-.931.059-.079.15-.2,2.885-3.893a3.983,3.983,0,0,1,5.572-.829l14.742,10.926a4.385,4.385,0,0,1,.911,6.135l-8.895,12-.524.707c.159-.066.316-.132.473-.2q.278-.116.553-.238l.355-.155v0c.206-.091.412-.182.618-.275l0,0,11.554-15.588Zm-22.5,30.356-.154.207-.589.8-2.661,3.59v1.833l1.881-2.537,1.506-2.031.789-1.064.586-.792h-1.356Zm4.989-6.192a4.623,4.623,0,0,0-.628.309l-1.351,1.822-1.035,1.395,0,1.833,1.226-1.651,2.945-3.975A3.49,3.49,0,0,0,2125.427,1204.574Zm1.159-1.114v.844l.616-.831.008-.011v0Z" transform="translate(-2113.559 -1180.409)" fill="#6d89cf"/>
              </g>
              <path id="Path_7910" data-name="Path 7910" d="M2172.279,1329.129a.113.113,0,0,0,.007-.024l-.093.02q-2.748.605-5.569,1.025-2.606.385-5.268.606h0q-2.31.2-4.658.257l-.242.007c-.057,0-.113,0-.17,0-.027,0-.054,0-.082,0-.016-.226-.021-.452-.017-.679a8.752,8.752,0,0,1,.162-1.6,8.951,8.951,0,0,1,1.606-3.647l.018-.024a9.047,9.047,0,0,1,1.329-1.43,8.771,8.771,0,0,1,.746-.579,8.923,8.923,0,0,1,2.288-1.145q.37-.124.748-.213a8.806,8.806,0,0,1,1.781-.243c.25-.01.5-.009.748,0a8.966,8.966,0,0,1,1.661.235q.378.089.747.213a8.69,8.69,0,0,1,.844.329c.253.113.5.24.746.378a8.6,8.6,0,0,1,.787.5q.071.048.142.1.3.22.572.461v0a.234.234,0,0,1,.034.029c.142.125.277.252.408.383a10.162,10.162,0,0,1,.748.841v.01q.152.192.289.395v.012a8.621,8.621,0,0,1,.746,1.282v.01c.1.209.186.422.267.636v0a8.946,8.946,0,0,1,.4,1.41Z" transform="translate(-2142.328 -1284.713)" fill="#6d89cf"/>
            </g>
            <path id="Path_7911" data-name="Path 7911" d="M2114.2,1221.362h0l-.748.939v.069l-.7.945-.9,1.221h0l-.682.92v0l-.748,1.008h0l-1.251,1.687h0l-.123.167-.426.574v0l-.984,1.327-1.305,1.692v.069l-.677.913-.071.095v0l-.942,1.27-.877,1.183-.008.012h0l-2.171,2.931v0l-3.233,4.361-5.415,7.306-.674.91-.4.535c.208.031.414.059.619.086a.01.01,0,0,0,.007,0c.719.1,1.438.184,2.154.26.2.024.4.046.6.066l.378.037c.3.031.608.057.91.083.128.012.255.024.383.034l.179.015c.2.017.4.032.6.046l.115.008c.442.034.886.061,1.327.086.2.012.4.022.6.03.157.01.314.017.471.024.03,0,.059,0,.089,0q.233-1.1.535-2.22c.3-1.131.655-2.274,1.045-3.419.3-.881.622-1.763.961-2.641q.2-.522.41-1.04c.027-.069.056-.139.083-.207h0c.414-1.023.85-2.038,1.3-3.04v-.068c.246-.549.5-1.026.75-1.567.417-.891.841-1.766,1.266-2.622l.005-.012c.577-1.162,1.158-2.286,1.727-3.363.076-.142.15-.232.226-.356v-.067c.251-.475.5-.941.748-1.393q.549-1.013,1.071-1.947c.032-.056.063-.113.094-.169.218-.392.43-.706.638-1.072v-.068c.5-.895.968-1.714,1.38-2.443q.372-.661.682-1.217.119-.213.226-.411c.329-.6.584-1.089.748-1.447.054-.118.1-.223.13-.312Z" transform="translate(-2091.861 -1206.036)" fill="#6d89cf" opacity="0.5"/>
          </g>
          <g id="Group_7521" data-name="Group 7521" transform="translate(55.32 99.093)">
            <g id="Group_7512" data-name="Group 7512" transform="translate(9.301 29.053)">
              <path id="Path_7912" data-name="Path 7912" d="M2008.022,1322.846l0,4.128c0,.042,0,.083-.005.123v0a1.56,1.56,0,0,1-.268.763,1.59,1.59,0,0,1-.746.594,1.351,1.351,0,0,1-.219.068l-.071.015a1.371,1.371,0,0,1-.14.019,1.272,1.272,0,0,1-.142.007l-.466,0h-1.945l-1.59,0h-.746l-1.661,0h-3.277l-2.286,0h-.746l-2.95,0-.954,0h-.746l-3.335,0h-1.582l-1.263,0-5.067,0H1976.6l-.873,0h-.354l-2.058,0h-4.494v0h0q-1.266-.274-2.536-.576c-.2-.049-.4-.1-.6-.147q-.844-.2-1.69-.42c-.248-.063-.5-.127-.747-.193q-.641-.165-1.281-.339-.694-.187-1.388-.382l-.6-.172q-1.72-.491-3.438-1.028h0l-.133-.042q-.519-.159-1.035-.329c-.2-.062-.4-.128-.6-.194-3.23-1.052-6.445-2.222-9.62-3.5h.917l17.193.012H1964l4.626,0h1.037v0h2.225v0h2.82l0,0h2.421l0,0h.226l3.754,0h.873l.748,0h.5l3.748,0,1.248,0h2.045l3.446,0h.723l.748,0h4.65l2.286,0h.084l.662,0h1.783l.748,0h1.035l0,0h.068a1.518,1.518,0,0,1,.211.025,1.414,1.414,0,0,1,.29.081,1.606,1.606,0,0,1,.746.6A1.575,1.575,0,0,1,2008.022,1322.846Z" transform="translate(-1945.139 -1321.213)" fill="#f18a88"/>
              <path id="Path_7913" data-name="Path 7913" d="M1975.731,1328.542h-.354l-2.058,0h-3.772l-.723,0h0q-1.266-.274-2.536-.576c-.2-.049-.4-.1-.6-.147q-.844-.2-1.69-.42c-.248-.063-.5-.127-.747-.193q-.641-.165-1.281-.339-.694-.187-1.388-.382l-.6-.172q-1.72-.491-3.438-1.028h0l-.133-.042q-.519-.159-1.035-.329c-.2-.062-.4-.128-.6-.194-3.23-1.052-6.445-2.222-9.62-3.5h.917l17.193.012H1964l4.626,0h1.017l.02,0h1.751a14.926,14.926,0,0,0,1.265,3.5,11.99,11.99,0,0,0,2.582,3.4c.069.064.142.126.214.189.013.013.029.025.044.039C1975.586,1328.422,1975.659,1328.483,1975.731,1328.542Z" transform="translate(-1945.139 -1321.213)" fill="#ed6966"/>
              <g id="Group_7511" data-name="Group 7511" transform="translate(18.106 0.012)">
                <rect id="Rectangle_3199" data-name="Rectangle 3199" width="0.747" height="7.309" transform="translate(36.027 0.025)" fill="#ed6966"/>
                <rect id="Rectangle_3200" data-name="Rectangle 3200" width="0.747" height="7.309" transform="translate(33.498 0.023)" fill="#ed6966"/>
                <rect id="Rectangle_3201" data-name="Rectangle 3201" width="0.747" height="7.309" transform="translate(30.465 0.021)" fill="#ed6966"/>
                <rect id="Rectangle_3202" data-name="Rectangle 3202" width="0.747" height="7.31" transform="translate(25.815 0.018)" fill="#ed6966"/>
                <rect id="Rectangle_3203" data-name="Rectangle 3203" width="0.747" height="7.309" transform="translate(20.898 0.015)" fill="#ed6966"/>
                <rect id="Rectangle_3204" data-name="Rectangle 3204" width="0.747" height="7.309" transform="translate(13.361 0.009)" fill="#ed6966"/>
                <rect id="Rectangle_3205" data-name="Rectangle 3205" width="0.747" height="7.309" transform="translate(6.303 0.004)" fill="#ed6966"/>
                <path id="Path_7914" data-name="Path 7914" d="M2029.954,1321.268l-.005,6.169c-.248-.063-.5-.127-.746-.193l0-5.977Z" transform="translate(-2029.203 -1321.268)" fill="#ed6966"/>
                <rect id="Rectangle_3206" data-name="Rectangle 3206" width="0.747" height="7.309" transform="translate(38.435 0.027)" fill="#ed6966"/>
                <rect id="Rectangle_3207" data-name="Rectangle 3207" width="0.748" height="7.31" transform="translate(40.026 0.027)" fill="#ed6966"/>
                <rect id="Rectangle_3208" data-name="Rectangle 3208" width="0.747" height="7.309" transform="translate(41.562 0.029)" fill="#ed6966"/>
                <path id="Path_7915" data-name="Path 7915" d="M2228.273,1321.428l0,7.258a1.535,1.535,0,0,1-.281.025h-.467l0-7.31h.467A1.545,1.545,0,0,1,2228.273,1321.428Z" transform="translate(-2184.806 -1321.373)" fill="#ed6966"/>
                <path id="Path_7916" data-name="Path 7916" d="M2233.094,1322.5l0,5.9a1.6,1.6,0,0,1-.747.595l0-7.095A1.6,1.6,0,0,1,2233.094,1322.5Z" transform="translate(-2188.589 -1321.767)" fill="#ed6966"/>
              </g>
            </g>
            <g id="Group_7514" data-name="Group 7514" transform="translate(8.627 21.743)">
              <path id="Path_7917" data-name="Path 7917" d="M2010.947,1288.911l0,4.128a1.575,1.575,0,0,1-.273.888,1.6,1.6,0,0,1-.747.595,1.456,1.456,0,0,1-.291.082,1.545,1.545,0,0,1-.281.025l-65.75-.045a1.6,1.6,0,0,1-1.588-1.51c0-.028,0-.055,0-.082l0-4.128c0-.027,0-.054,0-.082a1.6,1.6,0,0,1,1.4-1.5,1.46,1.46,0,0,1,.188-.011l65.751.045a1.551,1.551,0,0,1,.28.026,1.472,1.472,0,0,1,.291.082,1.6,1.6,0,0,1,.746.6A1.575,1.575,0,0,1,2010.947,1288.911Z" transform="translate(-1942.012 -1287.274)" fill="#f18a88"/>
              <path id="Path_7918" data-name="Path 7918" d="M1978.656,1294.608l-35.225-.024a1.508,1.508,0,0,1-1.417-1.51c0-.028,0-.055,0-.082l0-4.128c0-.027,0-.054,0-.082a1.535,1.535,0,0,1,1.252-1.5,1.182,1.182,0,0,1,.168-.011l30.9.021,0,.012A13.094,13.094,0,0,0,1978.656,1294.608Z" transform="translate(-1942.012 -1287.274)" fill="#ed6966"/>
              <g id="Group_7513" data-name="Group 7513" transform="translate(24.159 0.016)">
                <rect id="Rectangle_3209" data-name="Rectangle 3209" width="0.747" height="7.309" transform="translate(36.026 0.025)" fill="#ed6966"/>
                <rect id="Rectangle_3210" data-name="Rectangle 3210" width="0.747" height="7.31" transform="translate(33.497 0.023)" fill="#ed6966"/>
                <rect id="Rectangle_3211" data-name="Rectangle 3211" width="0.747" height="7.309" transform="translate(30.463 0.021)" fill="#ed6966"/>
                <rect id="Rectangle_3212" data-name="Rectangle 3212" width="0.747" height="7.31" transform="translate(25.814 0.018)" fill="#ed6966"/>
                <rect id="Rectangle_3213" data-name="Rectangle 3213" width="0.747" height="7.309" transform="translate(20.897 0.014)" fill="#ed6966"/>
                <rect id="Rectangle_3214" data-name="Rectangle 3214" width="0.747" height="7.309" transform="translate(13.359 0.009)" fill="#ed6966"/>
                <rect id="Rectangle_3215" data-name="Rectangle 3215" width="0.747" height="7.31" transform="translate(6.302 0.004)" fill="#ed6966"/>
                <rect id="Rectangle_3216" data-name="Rectangle 3216" width="0.747" height="7.31" fill="#ed6966"/>
                <rect id="Rectangle_3217" data-name="Rectangle 3217" width="0.747" height="7.309" transform="translate(38.434 0.027)" fill="#ed6966"/>
                <rect id="Rectangle_3218" data-name="Rectangle 3218" width="0.747" height="7.309" transform="translate(40.025 0.027)" fill="#ed6966"/>
                <rect id="Rectangle_3219" data-name="Rectangle 3219" width="0.747" height="7.309" transform="translate(41.561 0.029)" fill="#ed6966"/>
                <path id="Path_7919" data-name="Path 7919" d="M2253.243,1287.508l0,7.259a1.539,1.539,0,0,1-.281.025h-.467l.005-7.309h.467A1.534,1.534,0,0,1,2253.243,1287.508Z" transform="translate(-2209.777 -1287.453)" fill="#ed6966"/>
                <path id="Path_7920" data-name="Path 7920" d="M2258.065,1288.58l0,5.9a1.607,1.607,0,0,1-.747.595l0-7.095A1.6,1.6,0,0,1,2258.065,1288.58Z" transform="translate(-2213.561 -1287.847)" fill="#ed6966"/>
              </g>
            </g>
            <g id="Group_7516" data-name="Group 7516" transform="translate(0 14.439)">
              <path id="Path_7921" data-name="Path 7921" d="M1970.893,1255l0,4.128a1.575,1.575,0,0,1-.273.888,1.6,1.6,0,0,1-.747.595,1.49,1.49,0,0,1-.291.082l-.092.014c-.025,0-.049.005-.074.007l-.037,0-.077,0-65.75-.045a1.6,1.6,0,0,1-1.588-1.51c0-.027,0-.054,0-.082l0-4.128c0-.027,0-.055,0-.082a1.6,1.6,0,0,1,1.59-1.508l65.75.045.084,0a1.545,1.545,0,0,1,.2.023,1.555,1.555,0,0,1,.429.143c.028.014.055.028.082.044a.02.02,0,0,1,.009.005c.027.016.053.032.08.05a.055.055,0,0,1,.013.009.7.7,0,0,1,.072.052,1.434,1.434,0,0,1,.158.138c.016.015.031.031.045.047l.008.009a.4.4,0,0,1,.027.03l0,.006c.016.019.032.038.047.058s.043.056.063.086A1.572,1.572,0,0,1,1970.893,1255Z" transform="translate(-1901.958 -1253.363)" fill="#f18a88"/>
              <path id="Path_7922" data-name="Path 7922" d="M1938.6,1260.7l-35.225-.024a1.509,1.509,0,0,1-1.417-1.51c0-.027,0-.054,0-.082l0-4.128c0-.027,0-.055,0-.082a1.508,1.508,0,0,1,1.419-1.508l30.9.021q.018.083.041.169a13.034,13.034,0,0,0,4.266,7.132Z" transform="translate(-1901.958 -1253.363)" fill="#ed6966"/>
              <g id="Group_7515" data-name="Group 7515" transform="translate(24.155 0.016)">
                <rect id="Rectangle_3220" data-name="Rectangle 3220" width="0.747" height="7.309" transform="translate(36.03 0.025)" fill="#ed6966"/>
                <rect id="Rectangle_3221" data-name="Rectangle 3221" width="0.747" height="7.309" transform="translate(33.501 0.023)" fill="#ed6966"/>
                <rect id="Rectangle_3222" data-name="Rectangle 3222" width="0.747" height="7.31" transform="translate(30.467 0.021)" fill="#ed6966"/>
                <rect id="Rectangle_3223" data-name="Rectangle 3223" width="0.747" height="7.31" transform="translate(25.818 0.018)" fill="#ed6966"/>
                <rect id="Rectangle_3224" data-name="Rectangle 3224" width="0.747" height="7.309" transform="translate(20.901 0.015)" fill="#ed6966"/>
                <rect id="Rectangle_3225" data-name="Rectangle 3225" width="0.747" height="7.31" transform="translate(13.364 0.01)" fill="#ed6966"/>
                <rect id="Rectangle_3226" data-name="Rectangle 3226" width="0.747" height="7.309" transform="translate(6.306 0.005)" fill="#ed6966"/>
                <rect id="Rectangle_3227" data-name="Rectangle 3227" width="0.747" height="7.309" transform="translate(0.008 0) rotate(0.064)" fill="#ed6966"/>
                <rect id="Rectangle_3228" data-name="Rectangle 3228" width="0.747" height="7.309" transform="translate(38.438 0.027)" fill="#ed6966"/>
                <rect id="Rectangle_3229" data-name="Rectangle 3229" width="0.747" height="7.309" transform="translate(40.029 0.028)" fill="#ed6966"/>
                <rect id="Rectangle_3230" data-name="Rectangle 3230" width="0.747" height="7.309" transform="translate(41.565 0.029)" fill="#ed6966"/>
                <path id="Path_7923" data-name="Path 7923" d="M2213.188,1253.6l-.005,7.259a1.585,1.585,0,0,1-.28.025h-.467l.005-7.31h.467A1.535,1.535,0,0,1,2213.188,1253.6Z" transform="translate(-2169.717 -1253.542)" fill="#ed6966"/>
                <path id="Path_7924" data-name="Path 7924" d="M2218.009,1254.669l0,5.9a1.6,1.6,0,0,1-.747.595l0-7.095A1.6,1.6,0,0,1,2218.009,1254.669Z" transform="translate(-2173.501 -1253.936)" fill="#ed6966"/>
              </g>
            </g>
            <g id="Group_7518" data-name="Group 7518" transform="translate(4.839 7.301)">
              <path id="Path_7925" data-name="Path 7925" d="M1993.359,1221.864l0,4.128a1.573,1.573,0,0,1-.273.888,1.6,1.6,0,0,1-.747.6,1.513,1.513,0,0,1-.291.081,1.575,1.575,0,0,1-.28.026l-65.75-.045a1.571,1.571,0,0,1-.711-.169,1.6,1.6,0,0,1-.873-1.276c0-.021,0-.043,0-.065s0-.055,0-.082l0-4.128c0-.027,0-.054,0-.082a1.6,1.6,0,0,1,1.4-1.5,1.444,1.444,0,0,1,.188-.011l65.75.045a1.58,1.58,0,0,1,.281.026,1.513,1.513,0,0,1,.291.082,1.6,1.6,0,0,1,.746.6A1.574,1.574,0,0,1,1993.359,1221.864Z" transform="translate(-1924.424 -1220.227)" fill="#f18a88"/>
              <path id="Path_7926" data-name="Path 7926" d="M1961.068,1227.56l-35.225-.024a1.284,1.284,0,0,1-.634-.169,1.606,1.606,0,0,1-.779-1.276c0-.021,0-.043,0-.065s0-.055,0-.082l0-4.128c0-.027,0-.054,0-.082a1.535,1.535,0,0,1,1.252-1.5,1.134,1.134,0,0,1,.168-.011l30.9.021,0,.011a13.17,13.17,0,0,0,4.116,7.132C1960.932,1227.448,1961,1227.505,1961.068,1227.56Z" transform="translate(-1924.424 -1220.227)" fill="#ed6966"/>
              <g id="Group_7517" data-name="Group 7517" transform="translate(24.159 0.016)">
                <rect id="Rectangle_3231" data-name="Rectangle 3231" width="0.747" height="7.31" transform="translate(36.026 0.025)" fill="#ed6966"/>
                <rect id="Rectangle_3232" data-name="Rectangle 3232" width="0.747" height="7.309" transform="translate(33.497 0.023)" fill="#ed6966"/>
                <rect id="Rectangle_3233" data-name="Rectangle 3233" width="0.747" height="7.309" transform="translate(30.463 0.021)" fill="#ed6966"/>
                <rect id="Rectangle_3234" data-name="Rectangle 3234" width="0.747" height="7.309" transform="translate(25.814 0.018)" fill="#ed6966"/>
                <rect id="Rectangle_3235" data-name="Rectangle 3235" width="0.747" height="7.309" transform="translate(20.897 0.014)" fill="#ed6966"/>
                <rect id="Rectangle_3236" data-name="Rectangle 3236" width="0.747" height="7.309" transform="translate(13.359 0.009)" fill="#ed6966"/>
                <rect id="Rectangle_3237" data-name="Rectangle 3237" width="0.747" height="7.309" transform="translate(6.302 0.004)" fill="#ed6966"/>
                <rect id="Rectangle_3238" data-name="Rectangle 3238" width="0.747" height="7.309" fill="#ed6966"/>
                <rect id="Rectangle_3239" data-name="Rectangle 3239" width="0.747" height="7.309" transform="translate(38.434 0.026)" fill="#ed6966"/>
                <rect id="Rectangle_3240" data-name="Rectangle 3240" width="0.747" height="7.309" transform="translate(40.025 0.027)" fill="#ed6966"/>
                <rect id="Rectangle_3241" data-name="Rectangle 3241" width="0.747" height="7.309" transform="translate(41.561 0.029)" fill="#ed6966"/>
                <path id="Path_7927" data-name="Path 7927" d="M2235.655,1220.46l-.005,7.259a1.562,1.562,0,0,1-.28.025h-.467l.005-7.309h.467A1.606,1.606,0,0,1,2235.655,1220.46Z" transform="translate(-2192.188 -1220.405)" fill="#ed6966"/>
                <path id="Path_7928" data-name="Path 7928" d="M2240.476,1221.531l0,5.9a1.6,1.6,0,0,1-.747.595l0-7.095A1.6,1.6,0,0,1,2240.476,1221.531Z" transform="translate(-2195.972 -1220.798)" fill="#ed6966"/>
              </g>
            </g>
            <g id="Group_7520" data-name="Group 7520" transform="translate(0.01)">
              <path id="Path_7929" data-name="Path 7929" d="M1970.939,1187.965l0,4.128a1.579,1.579,0,0,1-.273.888,1.6,1.6,0,0,1-.747.6,1.5,1.5,0,0,1-.291.081c-.031.005-.062.01-.093.014l-.052.005-.052,0c-.028,0-.056,0-.084,0l-65.75-.045a1.6,1.6,0,0,1-1.588-1.51c0-.028,0-.055,0-.082l0-4.128c0-.027,0-.054,0-.082a1.6,1.6,0,0,1,1.59-1.508l65.75.045a1.557,1.557,0,0,1,.281.026,1.482,1.482,0,0,1,.291.082,1.6,1.6,0,0,1,.747.6A1.575,1.575,0,0,1,1970.939,1187.965Z" transform="translate(-1902.004 -1186.328)" fill="#f18a88"/>
              <path id="Path_7930" data-name="Path 7930" d="M1938.648,1193.661l-35.225-.024a1.508,1.508,0,0,1-1.418-1.51c0-.028,0-.055,0-.082l0-4.128c0-.027,0-.054,0-.082a1.507,1.507,0,0,1,1.419-1.508l30.9.021a13.1,13.1,0,0,0,4.307,7.3Z" transform="translate(-1902.004 -1186.328)" fill="#ed6966"/>
              <g id="Group_7519" data-name="Group 7519" transform="translate(24.159 0.016)">
                <rect id="Rectangle_3242" data-name="Rectangle 3242" width="0.747" height="7.309" transform="translate(36.03 0.025) rotate(0.064)" fill="#ed6966"/>
                <rect id="Rectangle_3243" data-name="Rectangle 3243" width="0.747" height="7.31" transform="translate(33.497 0.023)" fill="#ed6966"/>
                <rect id="Rectangle_3244" data-name="Rectangle 3244" width="0.747" height="7.309" transform="translate(30.463 0.021)" fill="#ed6966"/>
                <rect id="Rectangle_3245" data-name="Rectangle 3245" width="0.747" height="7.31" transform="translate(25.814 0.018)" fill="#ed6966"/>
                <rect id="Rectangle_3246" data-name="Rectangle 3246" width="0.747" height="7.309" transform="translate(20.897 0.015)" fill="#ed6966"/>
                <rect id="Rectangle_3247" data-name="Rectangle 3247" width="0.747" height="7.309" transform="translate(13.359 0.009)" fill="#ed6966"/>
                <rect id="Rectangle_3248" data-name="Rectangle 3248" width="0.747" height="7.309" transform="translate(6.302 0.004)" fill="#ed6966"/>
                <rect id="Rectangle_3249" data-name="Rectangle 3249" width="0.748" height="7.31" fill="#ed6966"/>
                <rect id="Rectangle_3250" data-name="Rectangle 3250" width="0.747" height="7.309" transform="translate(38.434 0.027)" fill="#ed6966"/>
                <rect id="Rectangle_3251" data-name="Rectangle 3251" width="0.747" height="7.31" transform="translate(40.025 0.028)" fill="#ed6966"/>
                <rect id="Rectangle_3252" data-name="Rectangle 3252" width="0.747" height="7.309" transform="translate(41.561 0.029)" fill="#ed6966"/>
                <path id="Path_7931" data-name="Path 7931" d="M2213.234,1186.561l0,7.259a1.554,1.554,0,0,1-.281.025h-.467l.005-7.309h.467A1.553,1.553,0,0,1,2213.234,1186.561Z" transform="translate(-2169.768 -1186.506)" fill="#ed6966"/>
                <path id="Path_7932" data-name="Path 7932" d="M2218.056,1187.632l0,5.9a1.6,1.6,0,0,1-.747.595l0-7.1A1.6,1.6,0,0,1,2218.056,1187.632Z" transform="translate(-2173.552 -1186.899)" fill="#ed6966"/>
              </g>
            </g>
          </g>
          <path id="Path_7933" data-name="Path 7933" d="M2087.136,1254.891q-2.239.712-4.537,1.293c-.238.061-.478.12-.718.177q-.854.21-1.717.4l-.093.02q-2.748.605-5.569,1.025-2.606.385-5.268.606h0q-2.31.2-4.658.257c-.082,0-.161.005-.242.007-.057,0-.113,0-.171,0h-.083c-.112,0-.223.005-.334.007-.079,0-.157,0-.236,0s-.159,0-.238,0c-.122,0-.243,0-.366,0s-.22,0-.331,0c-.2,0-.4,0-.6,0s-.426,0-.638,0-.4-.005-.6-.01c-.228,0-.456-.008-.684-.017-.2,0-.4-.01-.6-.017-.26-.007-.522-.019-.783-.031-.031,0-.059,0-.09,0-.157-.007-.314-.013-.471-.024-.2-.008-.4-.019-.6-.03-.44-.025-.885-.052-1.327-.086l-.115-.008c-.2-.014-.4-.029-.6-.046l-.179-.015c-.128-.01-.255-.022-.383-.034-.3-.026-.606-.052-.91-.083-.125-.012-.252-.024-.378-.037-.2-.02-.4-.042-.6-.066-.716-.076-1.436-.164-2.154-.26,0,0-.006,0-.007,0-.206-.027-.412-.055-.62-.086l-.208-.03c-.055,0-.113-.014-.169-.023-.142-.019-.285-.04-.427-.063-.041-.005-.079-.012-.118-.019l-.023,0h0a.124.124,0,0,1-.035-.005q-.805-.119-1.612-.26l-.564-.1-.564-.1-.633-.12c-.2-.037-.4-.076-.6-.115q-1.477-.289-2.955-.61h0v0h0q-1.266-.274-2.536-.576c-.2-.049-.4-.1-.6-.147l-.291-.071a23.347,23.347,0,0,1,12-22.454c.3-.164.6-.321.9-.471q.432-.263.881-.512a23.345,23.345,0,0,1,34.493,22.731Z" transform="translate(-1953.984 -1120.921)" fill="#9e332e"/>
          <g id="Group_7524" data-name="Group 7524" transform="translate(92.074 105.364)">
            <path id="Path_7934" data-name="Path 7934" d="M2124.678,1227.532a23.222,23.222,0,0,0-8.558-8.834q-.137-.081-.274-.159c-.246-.142-.495-.279-.746-.409-.1-.052-.194-.1-.292-.15-.247-.126-.495-.248-.746-.363-.135-.062-.27-.125-.407-.184-.248-.11-.5-.214-.748-.314s-.523-.2-.789-.3l-.059-.02q-.342-.122-.689-.233c-.052-.017-.1-.034-.158-.049h-.068a1.007,1.007,0,0,0-.177-.076c-.154-.047-.309-.091-.464-.135l-.235-.064c-.1-.027-.194-.052-.292-.076-.248-.064-.5-.123-.748-.177-.135-.031-.27-.059-.407-.085-.248-.05-.5-.1-.748-.139s-.525-.084-.788-.12c-.245-.032-.49-.06-.736-.085a.033.033,0,0,0-.012,0c-.28-.028-.56-.051-.842-.069q-.372-.023-.748-.036-.828-.025-1.66.007c-.248.01-.5.024-.748.042q-.892.063-1.783.2c-.249.036-.5.078-.746.123a22.67,22.67,0,0,0-2.286.542q-.228.066-.456.138h0l-.037.012-.069.022a23.392,23.392,0,0,0-4.17,1.793l-.017.01c-.247.137-.491.277-.731.42-.044.025-.088.052-.13.079a23.212,23.212,0,0,0-5.645,4.8c-.049.056-.1.113-.142.169a23.327,23.327,0,0,0-4.076,7.126.039.039,0,0,0,0,.012l-.061.172a23.042,23.042,0,0,0-.75,2.647v.067a22.541,22.541,0,0,0-.544,4.409v0a23.114,23.114,0,0,0,.873,6.9c.037.137.078.272.12.409q.2.658.442,1.312c.039.007.078.014.118.019.142.022.285.044.427.063.056.01.113.019.169.023l.208.03q.311.046.619.086a.01.01,0,0,0,.007,0c.719.1,1.438.184,2.154.26.2.024.4.046.6.066l.378.037c.3.031.608.057.91.083.128.012.255.024.383.034l.179.015c.2.017.4.032.6.046l.115.008c.442.034.886.061,1.327.086.2.012.4.022.6.03.157.01.314.017.471.024.031,0,.059,0,.089,0,.262.012.524.023.783.031.2.006.4.013.6.017.228.008.456.013.684.017.2.005.4.007.6.01s.426,0,.638,0,.4,0,.6,0c.111,0,.221,0,.331,0s.245,0,.366,0c.08,0,.159,0,.238,0s.157,0,.236,0c.112,0,.223,0,.334-.007.029,0,.056,0,.083,0,.058,0,.114,0,.17,0l.242-.007q2.348-.064,4.658-.257h0q2.662-.218,5.268-.606,2.819-.418,5.569-1.025l.093-.021a.131.131,0,0,1-.007.024l1.724-.424q.36-.086.718-.177,3.4-.861,6.663-2,.546-.19,1.089-.387l.27-.1q1.016-.37,2.014-.77c.181-.071.361-.143.542-.216v0l.109-.042v0c.213-.086.424-.174.633-.262.159-.066.316-.132.473-.2.019-.169.037-.337.051-.508A23.228,23.228,0,0,0,2124.678,1227.532Z" transform="translate(-2079.099 -1215.444)" fill="#9e332e"/>
            <path id="Path_7935" data-name="Path 7935" d="M2116.395,1232.094a23.226,23.226,0,0,0-6.777-7.667c-.089-.066-.18-.13-.274-.194q-.367-.259-.744-.5l-.292-.185q-.37-.228-.748-.444c-.135-.078-.271-.154-.407-.226-.246-.137-.5-.267-.748-.394s-.523-.255-.789-.375c-.248-.113-.5-.221-.748-.324-.089-.037-.179-.074-.269-.11-.191-.076-.382-.149-.574-.219-.164-.061-.328-.119-.491-.176l-.255-.084q-.821-.274-1.66-.483c-.248-.062-.5-.12-.748-.174q-.812-.178-1.639-.294c-.047-.009-.1-.015-.144-.021-.248-.035-.5-.064-.746-.089-.1-.012-.2-.021-.3-.029h-.073a.3.3,0,0,0-.056-.012h-.145c-.317-.034-.682-.055-.988-.069-.25-.01-.5-.015-.748-.015q-.889-.007-1.783.059c-.094.007-.186.014-.28.022h-.1l-.039.012h-.091a21.366,21.366,0,0,0-2.342.349c-.25.049-.5.1-.748.162a23.1,23.1,0,0,0-4.17,1.4q-.375.165-.748.348c-.044.02-.086.042-.13.064q-.467.229-.924.481a23.32,23.32,0,0,0-5.619,4.314l-.12.127-.04.042v0a23.247,23.247,0,0,0-4.565,7.125l-.005.012a23.462,23.462,0,0,0-1.685,7.3,23.225,23.225,0,0,0,.674,7.308c.08.318.167.632.263.946l.564.1q.807.14,1.612.26a.125.125,0,0,0,.035.005h0l.023,0c.039.007.078.014.118.018.142.022.285.044.427.063.056.01.114.018.169.023l.208.03q.311.046.619.086s.005,0,.007,0q1.078.144,2.155.26c.2.024.4.046.6.066.127.013.253.025.378.037.3.031.607.057.91.083.128.012.255.024.383.034l.179.015c.2.017.4.032.6.046l.115.008c.442.034.886.061,1.327.086.2.012.4.022.6.03.157.01.314.017.471.024.031,0,.059,0,.09,0,.262.012.523.023.783.031.2.006.4.013.6.017.228.008.456.013.684.016.2.005.4.007.6.01s.426,0,.638,0,.4,0,.6,0c.112,0,.221,0,.331,0s.244,0,.366,0c.079,0,.159,0,.238,0s.157,0,.237,0c.112,0,.223,0,.334-.007h.083c.057,0,.114,0,.17,0l.242-.007q2.348-.064,4.658-.257h0q2.662-.218,5.268-.606,2.819-.418,5.569-1.025l.093-.02a.1.1,0,0,1-.007.024l1.724-.424c.24-.057.48-.117.718-.177q3.4-.861,6.663-2,.547-.19,1.089-.387l.27-.1q1.016-.37,2.014-.77A23.225,23.225,0,0,0,2116.395,1232.094Z" transform="translate(-2072.598 -1219.025)" fill="#f18a88"/>
            <g id="Group_7522" data-name="Group 7522" transform="translate(2.202 3.305)">
              <path id="Path_7936" data-name="Path 7936" d="M2122.731,1241.8a21.132,21.132,0,0,0-5.494-6.467c-.2-.16-.41-.316-.62-.468-.1-.071-.194-.14-.292-.206-.245-.174-.495-.341-.746-.5-.135-.086-.27-.171-.407-.253q-.37-.225-.748-.434c-.26-.145-.523-.284-.788-.415-.249-.125-.5-.243-.748-.356-.279-.127-.559-.247-.843-.358-.246-.1-.5-.2-.746-.286-.027-.01-.052-.02-.079-.028q-.542-.192-1.094-.354c-.162-.049-.324-.095-.486-.139-.248-.068-.5-.13-.748-.187q-.884-.2-1.783-.336c-.248-.036-.5-.066-.746-.093-.074-.009-.15-.017-.226-.024-.157-.015-.316-.029-.473-.041h0q-.79-.061-1.585-.061c-.25,0-.5.005-.748.014a20.988,20.988,0,0,0-3.9.5c-.25.056-.5.116-.748.184a21.235,21.235,0,0,0-4.17,1.585c-.223.113-.444.23-.665.351-.027.015-.056.03-.083.047a21.2,21.2,0,0,0-3.238,2.21c-.07.054-.136.11-.2.169-.219.184-.434.375-.645.569-.256.234-.5.474-.748.722a20.966,20.966,0,0,0-4.061,5.833.019.019,0,0,0-.005.012.443.443,0,0,0-.026.054,21.219,21.219,0,0,0-1.129,2.993v.044a.26.26,0,0,0-.031.056,19.725,19.725,0,0,0-.721,3.461v.159c-.02.176-.037.353-.052.53q-.078.9-.078,1.8a20.927,20.927,0,0,0,.677,5.288c.018.074.039.147.059.219.12.447.257.89.407,1.33.142.022.285.044.427.063.055.01.113.018.169.023l.208.03c.208.031.414.059.62.086-.078-.206-.154-.413-.223-.621-.1-.3-.2-.6-.291-.91s-.168-.533-.242-.842v-.079a19.756,19.756,0,0,1-.458-6.389,20.213,20.213,0,0,1,.718-3.8q.228-.785.513-1.54v0a19.491,19.491,0,0,1,.864-1.958.017.017,0,0,1,.005-.012,19.653,19.653,0,0,1,2.647-3.959c.24-.281.488-.554.748-.82a19.491,19.491,0,0,1,2.7-2.345h0c.079-.057.157-.115.238-.169h.017c.371-.262.738-.51,1.13-.745.228-.14.461-.274.7-.4.018-.01.036-.021.054-.029a19.768,19.768,0,0,1,4.169-1.7c.248-.071.5-.135.748-.2a19.79,19.79,0,0,1,3.9-.534q.37-.015.74-.015h.009c.227,0,.454,0,.68.012h0c.231.008.465.02.7.037.3.02.608.049.908.083q.375.043.744.1c.6.091,1.2.209,1.783.355.144.036.287.073.429.111l.319.089c.265.076.529.159.79.245q.438.147.869.313c.252.1.5.2.748.3.284.123.564.253.843.388q.378.185.748.385.4.215.786.449c.252.15.5.309.748.472.137.09.272.182.406.277.088.061.178.123.264.187h0a20,20,0,0,1,7.981,19.516q.547-.19,1.089-.387l.27-.1A21.116,21.116,0,0,0,2122.731,1241.8Z" transform="translate(-2082.822 -1230.789)" fill="#ed6966"/>
            </g>
            <g id="Group_7523" data-name="Group 7523" transform="translate(13.68 9.22)">
              <path id="Path_7937" data-name="Path 7937" d="M2145.3,1280.883a5.079,5.079,0,0,1-1.038-1.688l-3.83,1.553q-.005.339.017.679c.029,0,.056,0,.083,0,.057,0,.114,0,.17,0l.242-.007q2.348-.064,4.658-.257C2145.5,1281.074,2145.4,1280.983,2145.3,1280.883Zm0,0a5.079,5.079,0,0,1-1.038-1.688l-3.83,1.553q-.005.339.017.679c.029,0,.056,0,.083,0,.057,0,.114,0,.17,0l.242-.007q2.348-.064,4.658-.257C2145.5,1281.074,2145.4,1280.983,2145.3,1280.883Zm0,0a5.079,5.079,0,0,1-1.038-1.688l-3.83,1.553q-.005.339.017.679c.029,0,.056,0,.083,0,.057,0,.114,0,.17,0l.242-.007q2.348-.064,4.658-.257C2145.5,1281.074,2145.4,1280.983,2145.3,1280.883Zm0,0a5.079,5.079,0,0,1-1.038-1.688l-3.83,1.553q-.005.339.017.679c.029,0,.056,0,.083,0,.057,0,.114,0,.17,0l.242-.007q2.348-.064,4.658-.257C2145.5,1281.074,2145.4,1280.983,2145.3,1280.883Zm0,0a5.079,5.079,0,0,1-1.038-1.688l-3.83,1.553q-.005.339.017.679c.029,0,.056,0,.083,0,.057,0,.114,0,.17,0l.242-.007q2.348-.064,4.658-.257C2145.5,1281.074,2145.4,1280.983,2145.3,1280.883Zm0,0a5.079,5.079,0,0,1-1.038-1.688l-3.83,1.553q-.005.339.017.679c.029,0,.056,0,.083,0,.057,0,.114,0,.17,0l.242-.007q2.348-.064,4.658-.257C2145.5,1281.074,2145.4,1280.983,2145.3,1280.883Zm11.246-4.147a7.25,7.25,0,0,0-.351-1.1,8.546,8.546,0,0,0-.4-.839,6.885,6.885,0,0,0-.408-.655.413.413,0,0,0-.034-.045v0a5.177,5.177,0,0,0-.714-.807l-.009-.009a6.409,6.409,0,0,0-.778-.608,6.784,6.784,0,0,0-.746-.419,6.453,6.453,0,0,0-.7-.287c-.046-.015-.093-.032-.14-.046-.074-.025-.149-.049-.225-.071l0,0h0l-.083-.022a10.873,10.873,0,0,0-2.286-.387c-.03,0-.062-.005-.094-.006-.214-.014-.431-.024-.653-.034q-1.287-.05-2.747-.012-.628.021-1.155.005c-.269-.007-.518-.022-.748-.042l-.041,0a4.857,4.857,0,0,1-1.366-.3,2.418,2.418,0,0,1-.912-.618,3.265,3.265,0,0,1-.581-.958c-.016-.039-.031-.077-.044-.116a3.567,3.567,0,0,1-.219-1.006,2.433,2.433,0,0,1,.03-.571,2.481,2.481,0,0,1,.136-.485,2.586,2.586,0,0,1,.65-.922,3.12,3.12,0,0,1,.564-.415,4.609,4.609,0,0,1,.628-.309,3.486,3.486,0,0,1,1.155-.267h0a2.774,2.774,0,0,1,.748.066,2.845,2.845,0,0,1,.643.227,4.334,4.334,0,0,1,1.928,2.414l1.329-.539.748-.3,2.286-.927.392-.158c-.122-.3-.251-.586-.39-.858v-.079c-.135-.253-.278-.436-.43-.672a.031.031,0,0,0-.008-.012c-.042-.067-.086-.133-.131-.2a7.515,7.515,0,0,0-.594-.765c-.064-.071-.125-.138-.194-.206v0a7.227,7.227,0,0,0-.746-.68,6.225,6.225,0,0,0-.843-.565c-.106-.063-.216-.12-.325-.174-.139-.068-.281-.13-.422-.187a6.828,6.828,0,0,0-1.063-.331c-.2-.044-.394-.077-.6-.1-.155-.022-.312-.037-.471-.049-.058,0-.113-.007-.171-.008l-.106-.007a8.583,8.583,0,0,0-1.781.128c-.246.042-.5.1-.748.162-.022,0-.042.01-.064.015l-.16-.4-.756-1.863-.429-1.057-.875.355-.748.3-1.011.41,1.01,2.49.071.174.247.608c-.108.056-.214.113-.317.172a9.949,9.949,0,0,0-.941.586h0a8.952,8.952,0,0,0-1.157.961c-.074.074-.147.148-.216.223a.042.042,0,0,0-.012.012,7.217,7.217,0,0,0-1.3,1.888,5.966,5.966,0,0,0-.375,1.043v0a5.935,5.935,0,0,0-.186,1.354,6.419,6.419,0,0,0,.5,2.556c.064.155.13.307.2.453v0a6.964,6.964,0,0,0,.576,1c.058.085.116.167.179.245a4.981,4.981,0,0,0,.545.609l.066.061a6.232,6.232,0,0,0,1.467,1,6.216,6.216,0,0,0,.758.309,9.636,9.636,0,0,0,1.816.419c.328.046.667.078,1.019.1l.309.015c.243.01.493.018.746.022q1.084.021,2.286-.036l.068,0c.236-.013.464-.022.68-.025a11.089,11.089,0,0,1,1.175.039,5.3,5.3,0,0,1,.606.086,4.1,4.1,0,0,1,.748.215h0a2.552,2.552,0,0,1,.951.647,3.506,3.506,0,0,1,.64,1.057.725.725,0,0,0,.066.094v.079a2.864,2.864,0,0,1,.162.954,2.361,2.361,0,0,1-.04.436,2.438,2.438,0,0,1-.215.638,2.9,2.9,0,0,1-.551.755q2.819-.418,5.569-1.025l.093-.021q.048-.189.081-.385a6.072,6.072,0,0,0,.089-.88A5.864,5.864,0,0,0,2156.551,1276.736Zm-11.246,4.147a5.079,5.079,0,0,1-1.038-1.688l-3.83,1.553q-.005.339.017.679c.029,0,.056,0,.083,0,.057,0,.114,0,.17,0l.242-.007q2.348-.064,4.658-.257C2145.5,1281.074,2145.4,1280.983,2145.3,1280.883Zm0,0a5.079,5.079,0,0,1-1.038-1.688l-3.83,1.553q-.005.339.017.679c.029,0,.056,0,.083,0,.057,0,.114,0,.17,0l.242-.007q2.348-.064,4.658-.257C2145.5,1281.074,2145.4,1280.983,2145.3,1280.883Zm0,0a5.079,5.079,0,0,1-1.038-1.688l-3.83,1.553q-.005.339.017.679c.029,0,.056,0,.083,0,.057,0,.114,0,.17,0l.242-.007q2.348-.064,4.658-.257C2145.5,1281.074,2145.4,1280.983,2145.3,1280.883Zm0,0a5.079,5.079,0,0,1-1.038-1.688l-3.83,1.553q-.005.339.017.679c.029,0,.056,0,.083,0,.057,0,.114,0,.17,0l.242-.007q2.348-.064,4.658-.257C2145.5,1281.074,2145.4,1280.983,2145.3,1280.883Zm0,0a5.079,5.079,0,0,1-1.038-1.688l-3.83,1.553q-.005.339.017.679c.029,0,.056,0,.083,0,.057,0,.114,0,.17,0l.242-.007q2.348-.064,4.658-.257C2145.5,1281.074,2145.4,1280.983,2145.3,1280.883Zm0,0a5.079,5.079,0,0,1-1.038-1.688l-3.83,1.553q-.005.339.017.679c.029,0,.056,0,.083,0,.057,0,.114,0,.17,0l.242-.007q2.348-.064,4.658-.257C2145.5,1281.074,2145.4,1280.983,2145.3,1280.883Zm0,0a5.079,5.079,0,0,1-1.038-1.688l-3.83,1.553-.927.375c.044.108.088.214.135.318.079,0,.159,0,.238,0s.157,0,.237,0c.112,0,.223,0,.334-.007.029,0,.056,0,.083,0,.057,0,.114,0,.17,0l.242-.007q2.348-.064,4.658-.257C2145.5,1281.074,2145.4,1280.983,2145.3,1280.883Z" transform="translate(-2136.114 -1258.25)" fill="#ed6966"/>
            </g>
          </g>
        </g>
      </g>
    </g>
    <text id="SELLER_AGREEMENT" data-name="SELLER 
AGREEMENT" transform="translate(1600.184 233.932) rotate(0.038)" font-size="17" font-family="MyriadPro-Bold, Myriad Pro" font-weight="700"><tspan x="-29.113" y="0">SELLER </tspan><tspan x="-47.532" y="21">AGREEMENT</tspan></text>
  </g>
</svg>
