<svg xmlns="http://www.w3.org/2000/svg" xmlns:xlink="http://www.w3.org/1999/xlink" width="240.641" height="211.501" viewBox="0 0 240.641 211.501"><defs><linearGradient id="a" x1="0.5" y1="1" x2="0.5" gradientUnits="objectBoundingBox"><stop offset="0" stop-color="#bb85ff"/><stop offset="1" stop-color="#e4cfff"/></linearGradient><linearGradient id="b" x1="0.5" y1="1" x2="0.5" gradientUnits="objectBoundingBox"><stop offset="0" stop-color="#e0c7ff"/><stop offset="1" stop-color="#f8f2ff"/></linearGradient></defs><g transform="translate(0 -31)"><path d="M233.591,31h-78.02V52.15a7.031,7.031,0,0,1-4.371,6.486,6.1,6.1,0,0,1-2.679.564,6.611,6.611,0,0,1-4.935-2.115L120.321,33.961,97.055,57.085a6.685,6.685,0,0,1-7.614,1.551A7.031,7.031,0,0,1,85.07,52.15V31H7.05A6.981,6.981,0,0,0,0,38.05v197.4a6.982,6.982,0,0,0,7.05,7.05H233.591a6.982,6.982,0,0,0,7.05-7.05V38.05A6.981,6.981,0,0,0,233.591,31Z" transform="translate(0 0)" fill="url(#a)"/><g transform="translate(85.07 31)"><path d="M251.5,31H181v91.65a7.031,7.031,0,0,0,4.371,6.486,6.685,6.685,0,0,0,7.614-1.551l23.266-23.124,23.266,23.124a6.611,6.611,0,0,0,4.935,2.115,6.1,6.1,0,0,0,2.679-.564,7.031,7.031,0,0,0,4.371-6.486Zm7.05,155.1h42.3a7.05,7.05,0,0,0,0-14.1h-42.3a7.05,7.05,0,1,0,0,14.1Zm42.3,14.1h-42.3a7.05,7.05,0,1,0,0,14.1h42.3a7.05,7.05,0,0,0,0-14.1Z" transform="translate(-181 -31)" fill="url(#b)"/></g></g></svg>