<svg xmlns="http://www.w3.org/2000/svg" width="34" height="34" viewBox="0 0 34 34">
  <path id="quic-img" d="M67,47.078v16.27A3.656,3.656,0,0,1,63.348,67h-26.7A3.656,3.656,0,0,1,33,63.348V47.078ZM47.062,50.066a3.992,3.992,0,0,0-3.91,3.214,1,1,0,0,0,1.956.384,1.992,1.992,0,1,1,1.954,2.379,1,1,0,1,0,0,1.992,1.991,1.991,0,1,1-1.992,1.992,1,1,0,0,0-1.992,0,4.107,4.107,0,0,0,.038.555,3.985,3.985,0,1,0,6.578-3.543,3.982,3.982,0,0,0-2.632-6.973Zm8.864,0H53.37a1,1,0,0,0,0,1.993h1.559V63.016a1,1,0,1,0,1.992,0V51.063a1,1,0,0,0-1-1ZM38.046,36.984v1.993a3.985,3.985,0,0,0,7.97,0V36.984h7.968v1.993a3.985,3.985,0,0,0,7.969,0V36.984h1.4A3.657,3.657,0,0,1,67,40.637v4.449H33v-4.45a3.656,3.656,0,0,1,3.652-3.652h1.4ZM57.97,33a1.992,1.992,0,0,1,1.992,1.992v3.985a1.992,1.992,0,1,1-3.984,0V34.992A1.992,1.992,0,0,1,57.97,33ZM42.03,33a1.992,1.992,0,0,1,1.992,1.992v3.985a1.992,1.992,0,1,1-3.984,0V34.992A1.992,1.992,0,0,1,42.03,33Z" transform="translate(-33 -33)" fill="#f58e21"/>
</svg>
