<svg xmlns="http://www.w3.org/2000/svg" width="41.434" height="24.481" viewBox="0 0 41.434 24.481">
  <path id="reg-img" d="M54.114,36.841a8.37,8.37,0,0,0-1.538.145l-.23.044-.058-.227a10.473,10.473,0,0,0-20.305.2l-.062.256-.252-.075a8.218,8.218,0,0,0-2.35-.342,8.32,8.32,0,0,0,0,16.64H54.114a8.32,8.32,0,1,0,0-16.64Zm-8.828,5.638H42.965v7.447a1.248,1.248,0,0,1-2.5,0V42.479H38.157a1.247,1.247,0,0,1-1.116-1.806l3.56-7.12a1.248,1.248,0,0,1,2.232,0l3.5,7a1.207,1.207,0,0,1,.2.674,1.25,1.25,0,0,1-1.249,1.248Z" transform="translate(-21 -29)" fill="#0fb0d6"/>
</svg>
