<svg xmlns="http://www.w3.org/2000/svg" width="65.528" height="83.044" viewBox="0 0 65.528 83.044">
  <g id="report" transform="translate(-53.995)">
    <g id="Group_1851" data-name="Group 1851" transform="translate(53.995 5.001)">
      <g id="Group_1850" data-name="Group 1850">
        <path id="Path_1722" data-name="Path 1722" d="M107.347,30.833V40.7H66.172V30.833H53.995v78.043h65.528V30.833ZM70.522,101.74l-6.886-6.886,3.441-3.441,3.445,3.445,6.692-6.692,3.441,3.441Zm0-19.479-6.886-6.886,3.441-3.441,3.445,3.445,6.692-6.692,3.441,3.441Zm0-19.48L63.636,55.9l3.441-3.441L70.522,55.9l6.692-6.692,3.441,3.441ZM109.786,101.4H85.426V96.53h24.359V101.4Zm0-9.74H85.426V86.791h24.359v4.866Zm0-9.74H85.426V77.051h24.359v4.866Zm0-9.74H85.426V67.311h24.359v4.866Zm0-9.74H85.426V57.571h24.359v4.866Zm0-9.74H85.426V47.832h24.359V52.7Z" transform="translate(-53.995 -30.833)" fill="#fff"/>
      </g>
    </g>
    <g id="Group_1853" data-name="Group 1853" transform="translate(71.038)">
      <g id="Group_1852" data-name="Group 1852">
        <rect id="Rectangle_1288" data-name="Rectangle 1288" width="31.444" height="9.998" fill="#fff"/>
      </g>
    </g>
  </g>
</svg>
