<svg xmlns="http://www.w3.org/2000/svg" width="30.511" height="25.48" viewBox="0 0 30.511 25.48">
  <g id="right-quote" transform="translate(30.511 33.339) rotate(180)">
    <g id="Group_1824" data-name="Group 1824" transform="translate(0 7.858)">
      <path id="Path_1662" data-name="Path 1662" d="M9.766,19.406a8.084,8.084,0,0,0-2.234-.326,7.02,7.02,0,0,0-2.8.574c.7-2.578,2.4-7.025,5.765-7.526a.8.8,0,0,0,.653-.576l.736-2.634a.8.8,0,0,0-.662-1.008,5.593,5.593,0,0,0-.753-.051c-4.044,0-8.05,4.221-9.74,10.266C-.263,21.67-.553,27,1.89,30.357a7.3,7.3,0,0,0,5.93,2.981h.031A7.1,7.1,0,0,0,9.766,19.406Z" transform="translate(0 -7.858)" fill="#fff"/>
      <path id="Path_1663" data-name="Path 1663" d="M62.659,22.758a7.115,7.115,0,0,0-4.268-3.352,8.084,8.084,0,0,0-2.234-.326,7.022,7.022,0,0,0-2.8.574c.7-2.578,2.4-7.025,5.765-7.526a.8.8,0,0,0,.653-.576l.736-2.634a.8.8,0,0,0-.662-1.008,5.586,5.586,0,0,0-.753-.051c-4.044,0-8.05,4.221-9.74,10.266C48.363,21.67,48.072,27,50.517,30.358a7.3,7.3,0,0,0,5.93,2.98h.032a7.1,7.1,0,0,0,6.18-10.581Z" transform="translate(-33.064 -7.858)" fill="#fff"/>
    </g>
  </g>
</svg>
