<svg xmlns="http://www.w3.org/2000/svg" xmlns:xlink="http://www.w3.org/1999/xlink" width="834.483" height="727.434" viewBox="0 0 834.483 727.434"><defs><linearGradient id="a" x1="0.447" y1="0.262" x2="0.746" y2="1.056" gradientUnits="objectBoundingBox"><stop offset="0" stop-color="#d3b1ff"/><stop offset="1" stop-color="#bb85ff"/></linearGradient><linearGradient id="b" x1="0.351" y1="-0.454" x2="0.536" y2="0.611" gradientUnits="objectBoundingBox"><stop offset="0" stop-color="#bebebe"/><stop offset="1" stop-color="#474747"/></linearGradient><linearGradient id="c" x1="0.183" y1="-0.147" x2="0.603" y2="0.55" gradientUnits="objectBoundingBox"><stop offset="0" stop-color="#505050"/><stop offset="1" stop-color="#989898"/></linearGradient></defs><g transform="translate(-814.612 -271.281)"><g transform="translate(948.733 405.229)"><path d="M321.371,173.574a1.012,1.012,0,1,0,2.024,0v-2.027a1.013,1.013,0,0,0-1.725-.716.987.987,0,0,0-.3.716v2.027Zm44.036-46.145a1.015,1.015,0,0,0,.722-1.725,1,1,0,0,0-.722-.3H363.38a1.015,1.015,0,0,0-.716,1.728,1,1,0,0,0,.716.3Zm-8.1,0a1.014,1.014,0,0,0,.719-1.725,1,1,0,0,0-.719-.3h-2.024a1.016,1.016,0,0,0-.721,1.728,1.006,1.006,0,0,0,.721.3Zm-8.1,0a1.014,1.014,0,0,0,.721-1.725.993.993,0,0,0-.721-.3h-2.022a1.014,1.014,0,1,0,0,2.027Zm-8.1,0a1.014,1.014,0,0,0,.719-1.725,1,1,0,0,0-.719-.3h-2.027a1.014,1.014,0,1,0,0,2.027Zm-7.612,1.007a1.013,1.013,0,0,0-.548-1.941,1.221,1.221,0,0,0-.173.048,17.35,17.35,0,0,0-1.957.886,1.013,1.013,0,1,0,.948,1.79,15.04,15.04,0,0,1,1.731-.783Zm-6.191,4.3a1.014,1.014,0,0,0-1.242-1.56,1.1,1.1,0,0,0-.282.224,18.786,18.786,0,0,0-1.317,1.692,1.014,1.014,0,0,0,1.376,1.429.976.976,0,0,0,.294-.282,16.513,16.513,0,0,1,1.172-1.5Zm-3.481,6.68a1.013,1.013,0,0,0-1.63-1.015,1.025,1.025,0,0,0-.341.545,17.554,17.554,0,0,0-.369,2.122,1.013,1.013,0,0,0,1.974.405,1.094,1.094,0,0,0,.039-.19,15.175,15.175,0,0,1,.327-1.868Zm-.425,7.832a1.015,1.015,0,0,0-1.725-.721,1,1,0,0,0-.3.721v2.027a1.013,1.013,0,0,0,1.722.719,1,1,0,0,0,.3-.719v-2.027Zm0,8.1a1.012,1.012,0,1,0-2.024,0v2.027a1.013,1.013,0,0,0,1.722.719,1,1,0,0,0,.3-.719v-2.027Zm0,8.1a1.013,1.013,0,0,0-1.725-.721,1,1,0,0,0-.3.721v2.022a1.012,1.012,0,0,0,1.722.721,1,1,0,0,0,.3-.721Z" transform="translate(-278.342 -125.402)" fill="#bb85ff" fill-rule="evenodd"/><path d="M351.037,143.281a1.015,1.015,0,0,0-1.725-.721,1,1,0,0,0-.3.721v2.027a1.013,1.013,0,0,0,1.722.719,1,1,0,0,0,.3-.719v-2.027ZM307,189.426a1.012,1.012,0,1,0,0,2.025h2.025a1.012,1.012,0,1,0,0-2.025Zm8.1,0a1.012,1.012,0,1,0,0,2.025h2.027a1.012,1.012,0,1,0,0-2.025Zm8.1,0a1.012,1.012,0,1,0,0,2.025h2.022a1.012,1.012,0,1,0,0-2.025Zm8.1,0a1.012,1.012,0,1,0,0,2.025h2.024a1.012,1.012,0,1,0,0-2.025Zm7.609-1.009a1.014,1.014,0,0,0,.548,1.943.973.973,0,0,0,.176-.05,18.021,18.021,0,0,0,1.955-.884,1.013,1.013,0,1,0-.948-1.79,14.8,14.8,0,0,1-1.731.78Zm6.194-4.3a1.014,1.014,0,0,0,1.239,1.563,1.1,1.1,0,0,0,.282-.224,18.291,18.291,0,0,0,1.317-1.692,1.013,1.013,0,0,0-1.376-1.429,1.045,1.045,0,0,0-.294.282,16.069,16.069,0,0,1-1.169,1.5Zm3.481-6.678a1.012,1.012,0,0,0,1.969.47,18.71,18.71,0,0,0,.372-2.122,1.014,1.014,0,0,0-1.977-.405.88.88,0,0,0-.036.19,17.736,17.736,0,0,1-.327,1.868Zm.425-7.832a1.012,1.012,0,1,0,2.024,0v-2.027a1.013,1.013,0,0,0-1.725-.716.987.987,0,0,0-.3.716v2.027Zm0-8.1a1.012,1.012,0,0,0,1.722.719,1,1,0,0,0,.3-.719v-2.027a1.014,1.014,0,0,0-1.725-.719.993.993,0,0,0-.3.719v2.027Zm0-8.1a1.013,1.013,0,0,0,1.722.719,1,1,0,0,0,.3-.719v-2.027a1.014,1.014,0,0,0-1.725-.719,1,1,0,0,0-.3.719Z" transform="translate(-305.983 -95.109)" fill="#bb85ff" fill-rule="evenodd"/></g><path d="M485.811,100.667a60.255,60.255,0,0,0-22.63,13.089l-13.526-7.807-.129-.07a7.567,7.567,0,0,0-10.207,2.835l-.059.109-10.4,18.019a7.568,7.568,0,0,0,2.766,10.33l.109.056,13.408,7.743q-.638,2.848-.993,5.766a60.357,60.357,0,0,0,0,14.625q.357,2.919.993,5.766l-13.517,7.8v0a7.568,7.568,0,0,0-2.766,10.33l10.371,17.963a1.807,1.807,0,0,0,.168.3,7.581,7.581,0,0,0,10.111,2.718,2.2,2.2,0,0,0,.3-.179l13.366-7.718a60.33,60.33,0,0,0,10.618,7.8,59.652,59.652,0,0,0,12.016,5.288v15.6a7.59,7.59,0,0,0,7.572,7.57h20.922a7.585,7.585,0,0,0,7.57-7.57v-15.6a59.585,59.585,0,0,0,12.016-5.288,60.351,60.351,0,0,0,10.62-7.8l13.369,7.721a1.853,1.853,0,0,0,.338.193,7.574,7.574,0,0,0,10.07-2.732,1.833,1.833,0,0,0,.168-.3l10.369-17.961,0,0a7.569,7.569,0,0,0-2.771-10.338l-13.509-7.8q.633-2.844.993-5.769a60.761,60.761,0,0,0,0-14.627q-.357-2.915-.993-5.763l13.509-7.8a7.568,7.568,0,0,0,2.771-10.335l-.059-.1-10.405-18.019h0a7.564,7.564,0,0,0-10.327-2.766l-.005,0,0,0-13.523,7.807a60.14,60.14,0,0,0-22.633-13.089V85.07a7.585,7.585,0,0,0-7.57-7.57H493.384a7.59,7.59,0,0,0-7.572,7.57v15.6Zm-61.765,125.9a30.685,30.685,0,0,0-10.332,5.978l-6.076-3.507a4.719,4.719,0,0,0-6.454,1.737l-5.179,8.97a4.723,4.723,0,0,0,1.734,6.443l.109.062,5.959,3.439q-.222,1.112-.361,2.243a30.845,30.845,0,0,0,0,7.463q.138,1.128.361,2.245l-6.062,3.5,26.3-38.572Zm-3.493,5.853a26.516,26.516,0,0,1,5.9-2.517,1.956,1.956,0,0,0,1.5-1.9v-8.434a.832.832,0,0,1,.193-.528l.05-.05a.828.828,0,0,1,.579-.243h10.349a.818.818,0,0,1,.579.243l0,0a.823.823,0,0,1,.24.582V228a1.961,1.961,0,0,0,1.421,1.879,26.627,26.627,0,0,1,11.163,6.437,1.955,1.955,0,0,0,2.374.322l7.312-4.222,0,0a.857.857,0,0,1,1.13.3l5.176,8.962a.83.83,0,0,1,.073.632.808.808,0,0,1-.377.5v.006l-7.195,4.153a1.954,1.954,0,0,0-1.032,2.215,26.725,26.725,0,0,1,.59,3.2,27.115,27.115,0,0,1,0,6.552,26.576,26.576,0,0,1-.59,3.2l.005,0a1.951,1.951,0,0,0,.92,2.153l7.307,4.22a.8.8,0,0,1,.372.5.83.83,0,0,1-.073.632l-5.176,8.965a.835.835,0,0,1-.5.375.851.851,0,0,1-.57-.047l-7.365-4.25a1.945,1.945,0,0,0-2.329.282,27.025,27.025,0,0,1-5.221,3.934,26.617,26.617,0,0,1-5.9,2.517,1.959,1.959,0,0,0-1.5,1.9v8.434a.816.816,0,0,1-.243.579.807.807,0,0,1-.579.243H428.778a.832.832,0,0,1-.526-.187l-.053-.056a.816.816,0,0,1-.243-.579v-8.434a1.956,1.956,0,0,0-1.421-1.879,26.583,26.583,0,0,1-5.981-2.542,26.955,26.955,0,0,1-5.224-3.934h0a1.946,1.946,0,0,0-2.321-.282l-7.315,4.22a.846.846,0,0,1-1.132-.3l-5.176-8.962a.843.843,0,0,1,.308-1.135l0,0,7.192-4.155a1.949,1.949,0,0,0,1.032-2.217,27.138,27.138,0,0,1-.587-3.2,27.478,27.478,0,0,1,0-6.549,27.233,27.233,0,0,1,.587-3.207h0a1.94,1.94,0,0,0-.923-2.153l-7.142-4.125a1.728,1.728,0,0,0-.218-.131.851.851,0,0,1-.319-.464.868.868,0,0,1,.034-.545,2.25,2.25,0,0,0,.134-.243l5.084-8.806a.814.814,0,0,1,.5-.375.823.823,0,0,1,.629.073l7.209,4.164a1.955,1.955,0,0,0,2.43-.221,26.867,26.867,0,0,1,5.221-3.937Zm-22.818,32.72,26.31-38.572v-7a4.706,4.706,0,0,1,1.264-3.207c.039-.045.078-.092.123-.14a4.739,4.739,0,0,1,3.344-1.387h10.349a4.74,4.74,0,0,1,3.347,1.387l0,.006,0,0a4.726,4.726,0,0,1,1.39,3.339v7a30.5,30.5,0,0,1,5.447,2.475,31.041,31.041,0,0,1,4.882,3.5l6.071-3.5v0l.006,0a4.719,4.719,0,0,1,6.454,1.737l5.173,8.962a4.718,4.718,0,0,1-1.725,6.451l0,0-6.065,3.5q.222,1.112.358,2.243a30.868,30.868,0,0,1,0,7.466c-.089.749-.21,1.5-.358,2.243l6.059,3.5a4.712,4.712,0,0,1,1.734,6.451l-5.173,8.965a4.72,4.72,0,0,1-6.317,1.809,1.41,1.41,0,0,1-.143-.076l-6.071-3.5a30.888,30.888,0,0,1-10.329,5.979v7a4.74,4.74,0,0,1-4.737,4.731H428.778a4.688,4.688,0,0,1-3.2-1.261c-.048-.039-.092-.081-.14-.126a4.717,4.717,0,0,1-1.387-3.344v-7a30.808,30.808,0,0,1-10.332-5.981l-6.076,3.507a4.721,4.721,0,0,1-6.454-1.734L396,271.569a4.726,4.726,0,0,1,1.736-6.431Zm0,.006,0-.006,0,.006Zm36.215-26.207a16.727,16.727,0,1,1-11.826,4.9,16.682,16.682,0,0,1,11.826-4.9ZM424.9,246.6a12.81,12.81,0,1,1-3.753,9.06,12.759,12.759,0,0,1,3.753-9.06Zm78.948-52.9a35.654,35.654,0,1,1,25.212-10.444,35.542,35.542,0,0,1-25.212,10.444Zm-27.286-8.367a38.6,38.6,0,1,1,27.286,11.3,38.484,38.484,0,0,1-27.286-11.3Zm-.805-76.006a55.923,55.923,0,0,1,12.469-5.31,1.953,1.953,0,0,0,1.5-1.9V85.07a3.676,3.676,0,0,1,3.66-3.66h20.922a3.676,3.676,0,0,1,3.66,3.66v17.052A1.954,1.954,0,0,0,519.386,104a56.149,56.149,0,0,1,23.444,13.537,1.951,1.951,0,0,0,2.374.324l14.784-8.534,0-.006a3.689,3.689,0,0,1,5,1.348l.006,0,10.4,18.017.059.109a3.692,3.692,0,0,1-1.337,5l-14.661,8.464a1.953,1.953,0,0,0-1.032,2.217,56.7,56.7,0,0,1,0,27.149h0a1.949,1.949,0,0,0,.923,2.156l14.767,8.523a3.7,3.7,0,0,1,1.337,5.005h0l-10.4,18.022-.064.1a3.69,3.69,0,0,1-5.005,1.342L545.3,198.3a1.951,1.951,0,0,0-2.427.224,56.088,56.088,0,0,1-23.408,13.554,1.953,1.953,0,0,0-1.5,1.9v17.052a3.676,3.676,0,0,1-3.66,3.658H493.384a3.676,3.676,0,0,1-3.66-3.658V213.982A1.96,1.96,0,0,0,488.3,212.1a55.856,55.856,0,0,1-12.55-5.333,56.561,56.561,0,0,1-10.936-8.246l0,0a1.947,1.947,0,0,0-2.321-.285l-14.681,8.476-.109.059a3.687,3.687,0,0,1-5-1.342h0l-10.458-18.114a3.7,3.7,0,0,1,1.342-5.014h0l14.655-8.464a1.951,1.951,0,0,0,1.032-2.215,56.564,56.564,0,0,1,0-27.149l-.006,0a1.936,1.936,0,0,0-.92-2.15l-14.661-8.467-.1-.062a3.695,3.695,0,0,1-1.342-5.011l10.4-18.014.064-.1a3.694,3.694,0,0,1,4.924-1.393l.078.05,14.781,8.534a1.954,1.954,0,0,0,2.332-.282,56.382,56.382,0,0,1,10.939-8.246Zm28.092,16.906a31.811,31.811,0,1,1-22.5,9.317,31.706,31.706,0,0,1,22.5-9.317Zm-19.731,12.083a27.9,27.9,0,1,1-8.171,19.731A27.816,27.816,0,0,1,484.114,138.322Z" transform="translate(843.327 193.781)" fill="#bb85ff" fill-rule="evenodd" opacity="0.7"/><path d="M360.357,343.46a1.55,1.55,0,1,1,.112-3.1c1.309.048,2.293-1.107,3.305-2.3,1.538-1.8,3.118-3.663,6.177-3.663s4.639,1.86,6.174,3.663c1.009,1.188,1.991,2.341,3.3,2.3h.129c1.306.042,2.29-1.11,3.3-2.3,1.538-1.8,3.123-3.663,6.174-3.663s4.645,1.86,6.177,3.663c1.012,1.188,1.994,2.341,3.3,2.3h.131c1.306.042,2.285-1.11,3.3-2.3,1.532-1.8,3.115-3.663,6.174-3.663s4.636,1.86,6.174,3.663c1.01,1.188,1.991,2.341,3.3,2.3h.129c1.309.042,2.293-1.11,3.3-2.3,1.538-1.8,3.118-3.663,6.177-3.663s4.639,1.86,6.174,3.663c1.01,1.188,1.991,2.341,3.3,2.3h.129c1.306.042,2.287-1.11,3.3-2.3,1.538-1.8,3.118-3.663,6.177-3.663s4.639,1.86,6.174,3.663c1.012,1.188,1.991,2.341,3.3,2.3h.129c1.309.042,2.287-1.11,3.3-2.3,1.535-1.8,3.121-3.663,6.174-3.663s4.642,1.86,6.177,3.663c1.012,1.188,1.991,2.341,3.3,2.3h.129c1.309.042,2.287-1.11,3.3-2.3,1.538-1.8,3.118-3.663,6.177-3.663s4.639,1.86,6.174,3.663c1.01,1.188,1.991,2.341,3.3,2.3h.129c1.309.042,2.29-1.11,3.3-2.3,1.538-1.8,3.118-3.663,6.174-3.663s4.642,1.86,6.177,3.663c1.009,1.188,1.994,2.341,3.3,2.3h.131c1.3.042,2.285-1.11,3.294-2.3,1.538-1.8,3.118-3.663,6.177-3.663s4.639,1.86,6.174,3.663c1.012,1.188,1.991,2.341,3.3,2.3h.131c1.306.042,2.287-1.11,3.3-2.3,1.535-1.8,3.121-3.663,6.177-3.663s4.639,1.86,6.174,3.663c1.01,1.188,1.988,2.341,3.3,2.3h.129c1.309.042,2.29-1.11,3.3-2.3,1.538-1.8,3.121-3.663,6.177-3.663s4.639,1.86,6.174,3.663c1.01,1.188,1.994,2.341,3.3,2.3h.129c1.309.042,2.293-1.11,3.3-2.3,1.535-1.8,3.115-3.663,6.174-3.663s4.639,1.86,6.174,3.663c1.01,1.188,1.994,2.341,3.3,2.3h.131c1.3.042,2.285-1.11,3.3-2.3,1.535-1.8,3.121-3.663,6.174-3.663s4.639,1.86,6.174,3.663c1.012,1.188,1.991,2.341,3.3,2.3h.131c1.306.042,2.287-1.11,3.3-2.3,1.535-1.8,3.121-3.663,6.177-3.663s4.639,1.86,6.174,3.663c1.009,1.188,1.991,2.341,3.3,2.3h.131c1.306.042,2.29-1.11,3.3-2.3,1.535-1.8,3.118-3.663,6.174-3.663s4.639,1.86,6.174,3.663c1.012,1.191,2,2.346,3.308,2.3a1.55,1.55,0,1,1,.112,3.1c-2.8.1-4.27-1.622-5.777-3.389-1.074-1.261-2.176-2.561-3.817-2.561s-2.749,1.3-3.817,2.561c-1.5,1.759-2.956,3.465-5.721,3.392-2.771.073-4.222-1.633-5.721-3.392-1.071-1.261-2.178-2.561-3.817-2.561s-2.746,1.3-3.823,2.561c-1.5,1.759-2.95,3.465-5.718,3.392-2.768.073-4.22-1.633-5.719-3.392-1.074-1.261-2.178-2.561-3.82-2.561s-2.743,1.3-3.817,2.561c-1.5,1.759-2.956,3.465-5.721,3.392-2.766.073-4.222-1.633-5.721-3.392-1.074-1.261-2.178-2.561-3.817-2.561s-2.746,1.3-3.817,2.561c-1.5,1.759-2.956,3.465-5.721,3.392-2.768.073-4.225-1.633-5.721-3.392-1.074-1.261-2.176-2.561-3.817-2.561s-2.749,1.3-3.82,2.561c-1.5,1.759-2.953,3.465-5.718,3.392-2.771.073-4.222-1.633-5.721-3.392-1.074-1.261-2.178-2.561-3.817-2.561s-2.749,1.3-3.823,2.561c-1.5,1.759-2.95,3.465-5.718,3.392-2.766.073-4.22-1.633-5.721-3.392-1.071-1.261-2.178-2.561-3.817-2.561s-2.746,1.3-3.817,2.561c-1.5,1.759-2.956,3.465-5.721,3.392-2.768.073-4.225-1.633-5.721-3.392-1.074-1.261-2.176-2.561-3.82-2.561s-2.743,1.3-3.817,2.561c-1.5,1.759-2.953,3.465-5.719,3.392-2.768.073-4.225-1.633-5.721-3.392-1.074-1.261-2.178-2.561-3.817-2.561s-2.749,1.3-3.82,2.561c-1.5,1.759-2.953,3.465-5.719,3.392-2.771.073-4.225-1.633-5.721-3.392-1.074-1.261-2.181-2.561-3.823-2.561s-2.743,1.3-3.817,2.561c-1.5,1.759-2.95,3.465-5.719,3.392-2.768.073-4.222-1.633-5.721-3.392-1.071-1.261-2.176-2.561-3.817-2.561s-2.746,1.3-3.82,2.561c-1.5,1.759-2.953,3.465-5.718,3.392-2.768.073-4.222-1.633-5.721-3.392-1.074-1.261-2.178-2.561-3.817-2.561s-2.749,1.3-3.82,2.561c-1.5,1.759-2.953,3.465-5.721,3.392-2.766.073-4.222-1.633-5.718-3.392-1.074-1.261-2.178-2.561-3.817-2.561s-2.749,1.3-3.82,2.561c-1.5,1.759-2.953,3.465-5.718,3.392-2.771.073-4.223-1.633-5.721-3.392-1.074-1.261-2.181-2.561-3.823-2.561s-2.743,1.3-3.817,2.561c-1.5,1.759-2.95,3.465-5.719,3.392-2.768.073-4.222-1.633-5.721-3.392-1.071-1.261-2.178-2.561-3.817-2.561s-2.746,1.3-3.82,2.561C364.624,341.838,363.158,343.561,360.357,343.46Z" transform="translate(737.732 655.25)" fill="#bb85ff" fill-rule="evenodd" opacity="0.7"/><path d="M600.249,372.83a1.554,1.554,0,0,1-2.2-2.2l8.716-8.719-8.716-8.716a1.554,1.554,0,1,1,2.2-2.2l9.815,9.815a1.549,1.549,0,0,1,0,2.2l-9.815,9.818ZM584.923,353.2l8.713,8.716-8.713,8.719a1.554,1.554,0,0,0,2.2,2.2l9.815-9.818a1.554,1.554,0,0,0,0-2.2L587.12,351a1.554,1.554,0,1,0-2.2,2.2Zm54.718,19.633a1.554,1.554,0,0,1-2.2-2.2l8.713-8.719-8.713-8.716a1.554,1.554,0,1,1,2.2-2.2l9.815,9.815a1.549,1.549,0,0,1,0,2.2l-9.815,9.818Zm-13.129,0,9.815-9.818a1.56,1.56,0,0,0,0-2.2L626.512,351a1.555,1.555,0,1,0-2.2,2.2l8.716,8.716-8.716,8.719a1.555,1.555,0,0,0,2.2,2.2Zm-13.131,0,9.812-9.818a1.549,1.549,0,0,0,0-2.2L613.381,351a1.555,1.555,0,1,0-2.2,2.2l8.719,8.716-8.719,8.719a1.555,1.555,0,0,0,2.2,2.2Z" transform="translate(682.988 222.247)" fill="#bb85ff" fill-rule="evenodd" opacity="0.7"/><path d="M317.326,106.647a1.554,1.554,0,1,1-2.2-2.2l8.719-8.716-8.719-8.719a1.554,1.554,0,1,1,2.2-2.2l9.815,9.815a1.553,1.553,0,0,1,0,2.2l-9.815,9.815ZM302,87.014l8.716,8.719L302,104.449a1.554,1.554,0,1,0,2.2,2.2l9.815-9.815a1.558,1.558,0,0,0,0-2.2L304.2,84.816a1.554,1.554,0,1,0-2.2,2.2Zm54.715,19.633a1.554,1.554,0,1,1-2.2-2.2l8.716-8.716-8.716-8.719a1.554,1.554,0,1,1,2.2-2.2l9.818,9.815a1.553,1.553,0,0,1,0,2.2l-9.818,9.815Zm-13.129,0,9.818-9.815a1.558,1.558,0,0,0,0-2.2l-9.818-9.815a1.554,1.554,0,1,0-2.2,2.2l8.716,8.719-8.716,8.716a1.554,1.554,0,1,0,2.2,2.2Zm-13.129,0,9.818-9.815a1.563,1.563,0,0,0,0-2.2l-9.818-9.815a1.554,1.554,0,1,0-2.2,2.2l8.716,8.719-8.716,8.716a1.554,1.554,0,1,0,2.2,2.2Z" transform="translate(634.774 206.109)" fill="#afafaf" fill-rule="evenodd" opacity="0.7"/><path d="M511.037,227.883a1.549,1.549,0,1,1,.112,3.1c-2.8.1-4.27-1.619-5.777-3.392-1.071-1.258-2.178-2.559-3.82-2.559s-2.743,1.3-3.817,2.559c-1.5,1.762-2.953,3.47-5.721,3.395-2.766.076-4.222-1.633-5.718-3.395-1.074-1.258-2.178-2.559-3.82-2.559s-2.746,1.3-3.817,2.559c-1.5,1.762-2.953,3.47-5.721,3.395-2.768.076-4.222-1.633-5.719-3.395-1.074-1.258-2.181-2.559-3.82-2.559s-2.746,1.3-3.82,2.559c-1.5,1.762-2.95,3.47-5.721,3.395-2.766.076-4.22-1.633-5.716-3.395-1.074-1.258-2.181-2.559-3.823-2.559s-2.743,1.3-3.817,2.559c-1.5,1.762-2.953,3.47-5.721,3.395-2.766.076-4.222-1.633-5.721-3.395-1.071-1.258-2.176-2.559-3.817-2.559s-2.743,1.3-3.817,2.559c-1.507,1.773-2.973,3.493-5.777,3.392a1.549,1.549,0,0,1,.109-3.1c1.314.045,2.3-1.11,3.311-2.3,1.535-1.8,3.118-3.66,6.174-3.66s4.639,1.86,6.174,3.66c1.009,1.188,1.994,2.341,3.3,2.3h.129c1.306.039,2.287-1.113,3.3-2.3,1.538-1.8,3.121-3.66,6.174-3.66s4.639,1.86,6.177,3.66c1.012,1.188,1.991,2.341,3.3,2.3h.129c1.309.039,2.287-1.113,3.3-2.3,1.532-1.8,3.118-3.66,6.174-3.66s4.639,1.86,6.177,3.66c1.007,1.188,1.988,2.341,3.3,2.3H473c1.309.039,2.29-1.113,3.3-2.3,1.535-1.8,3.118-3.66,6.174-3.66s4.639,1.86,6.177,3.66c1.01,1.188,1.991,2.341,3.3,2.3h.126c1.309.039,2.29-1.113,3.3-2.3,1.535-1.8,3.118-3.66,6.174-3.66s4.639,1.86,6.177,3.66C508.741,226.773,509.726,227.927,511.037,227.883Z" transform="translate(837.061 453.205)" fill="#afafaf" fill-rule="evenodd" opacity="0.7"/><path d="M394.919,282.45a8.686,8.686,0,0,1,6.16,2.553h.006a8.722,8.722,0,0,1,0,12.332l-.092.087a8.718,8.718,0,1,1-6.073-14.971Zm3.971,4.748a5.609,5.609,0,1,0-.07,8.011l.067-.073a5.617,5.617,0,0,0,0-7.936Z" transform="translate(777.844 392.933)" fill="#bb85ff" fill-rule="evenodd" opacity="0.7"/><path d="M264.587,82.929a1.555,1.555,0,0,1,3.109,0V87.94h5.014a1.555,1.555,0,1,1,0,3.109H267.7v5.014a1.555,1.555,0,1,1-3.109,0V91.049h-5.011a1.555,1.555,0,1,1,0-3.109h5.011Z" transform="translate(556.593 200.74)" fill="#bb85ff" fill-rule="evenodd" opacity="0.7"/><path d="M457.219,264.313a1.555,1.555,0,1,1,3.109,0v5.011h5.011a1.555,1.555,0,1,1,0,3.109h-5.011v5.014a1.555,1.555,0,0,1-3.109,0v-5.014h-5.014a1.555,1.555,0,0,1,0-3.109h5.014Z" transform="translate(902.617 526.56)" fill="#bb85ff" fill-rule="evenodd" opacity="0.7"/><path d="M348.691,237.436Zm4.927-18.755a9.478,9.478,0,1,1-2.774,6.7,9.449,9.449,0,0,1,2.774-6.7Zm2.047-9.39a16.564,16.564,0,0,0-3.714,1.58,16.756,16.756,0,0,0-3.258,2.455.585.585,0,0,1-.7.087l-4.4-2.545-.025-.014a1.1,1.1,0,0,0-.8-.092,1.08,1.08,0,0,0-.66.509l-.02.031-3.1,5.363a1.124,1.124,0,0,0-.106.831,1.108,1.108,0,0,0,.509.663l.031.02,4.365,2.519a.586.586,0,0,1,.277.643h0a16.5,16.5,0,0,0-.369,2,17.01,17.01,0,0,0,0,4.083,16.541,16.541,0,0,0,.369,2,.585.585,0,0,1-.308.66l-4.365,2.522h0a1.093,1.093,0,0,0-.509.663,1.126,1.126,0,0,0,.106.831l3.118,5.4,0,0a1.093,1.093,0,0,0,1.488.4l.034-.017L348,237.352a.585.585,0,0,1,.694.084,16.764,16.764,0,0,0,7,4.046.586.586,0,0,1,.422.559v5.078a1.073,1.073,0,0,0,.322.769,1.085,1.085,0,0,0,.769.322h6.233a1.1,1.1,0,0,0,1.088-1.091v-5.078a.585.585,0,0,1,.447-.568,16.654,16.654,0,0,0,3.716-1.583,16.843,16.843,0,0,0,3.258-2.455.579.579,0,0,1,.721-.064l4.373,2.522a1.068,1.068,0,0,0,.828.106,1.1,1.1,0,0,0,.663-.506l.02-.028,3.1-5.369h0a1.069,1.069,0,0,0,.106-.828,1.084,1.084,0,0,0-.5-.663l-4.4-2.539a.582.582,0,0,1-.271-.643h0a17.707,17.707,0,0,0,.366-2,16.993,16.993,0,0,0,0-4.083,17.657,17.657,0,0,0-.366-2,.577.577,0,0,1,.3-.663l4.368-2.519a1.1,1.1,0,0,0,.5-.663,1.067,1.067,0,0,0-.106-.828l-.017-.034-3.1-5.366v0a1.108,1.108,0,0,0-.663-.509,1.093,1.093,0,0,0-.828.106h0l-4.4,2.545a.583.583,0,0,1-.707-.1,16.691,16.691,0,0,0-6.982-4.032.581.581,0,0,1-.425-.559v-5.081a1.1,1.1,0,0,0-1.088-1.088H357.2a1.085,1.085,0,0,0-.769.322,1.067,1.067,0,0,0-.322.766v5.081A.59.59,0,0,1,355.665,209.291Z" transform="translate(701.783 418.417)" fill="#afafaf" fill-rule="evenodd" opacity="0.44"/><path d="M380.931,113.208Zm13.956-32.977h-6.071a.481.481,0,0,0-.338.143l-.033.031a.49.49,0,0,0-.109.308v4.949a1.145,1.145,0,0,1-.881,1.113,15.7,15.7,0,0,0-6.524,3.786,1.147,1.147,0,0,1-1.423.131l-4.228-2.441a.5.5,0,0,0-.666.173l-2.981,5.165a1.073,1.073,0,0,1-.081.145.54.54,0,0,0-.02.319.5.5,0,0,0,.19.268,1.2,1.2,0,0,1,.126.081l4.192,2.419a1.139,1.139,0,0,1,.537,1.261h0a15.557,15.557,0,0,0-.344,1.882,16.132,16.132,0,0,0,0,3.839,14.893,14.893,0,0,0,.347,1.879,1.148,1.148,0,0,1-.607,1.3l-4.22,2.436v0a.486.486,0,0,0-.221.294.5.5,0,0,0,.045.372l3.034,5.257a.474.474,0,0,0,.294.218.494.494,0,0,0,.372-.042l4.287-2.478a1.149,1.149,0,0,1,1.365.165,15.637,15.637,0,0,0,6.568,3.8,1.147,1.147,0,0,1,.836,1.1v4.949a.48.48,0,0,0,.143.338l.031.034a.49.49,0,0,0,.308.109h6.071a.486.486,0,0,0,.338-.143.48.48,0,0,0,.143-.338v-4.949a1.145,1.145,0,0,1,.881-1.113,15.666,15.666,0,0,0,6.524-3.786,1.148,1.148,0,0,1,1.367-.165l4.315,2.492a.482.482,0,0,0,.341.028.474.474,0,0,0,.294-.218l3.034-5.257a.508.508,0,0,0,.045-.372.477.477,0,0,0-.218-.294l-4.287-2.475a1.144,1.144,0,0,1-.54-1.261l0,0a15.389,15.389,0,0,0,.347-1.879,16.115,16.115,0,0,0,0-3.839,15.535,15.535,0,0,0-.347-1.882,1.146,1.146,0,0,1,.607-1.3l4.22-2.436v0a.486.486,0,0,0,.221-.294.508.508,0,0,0-.045-.372l-3.034-5.257a.484.484,0,0,0-.294-.218.474.474,0,0,0-.369.045h0l-4.289,2.475a1.145,1.145,0,0,1-1.393-.19,15.835,15.835,0,0,0-3.037-2.282A15.633,15.633,0,0,0,396.2,86.76a1.14,1.14,0,0,1-.833-1.1V80.712a.5.5,0,0,0-.14-.341l0,0a.486.486,0,0,0-.338-.143Zm-9.969,14.717a9.806,9.806,0,1,1-2.875,6.938A9.765,9.765,0,0,1,384.919,94.948Z" transform="translate(760.471 198.687)" fill="#bb85ff" fill-rule="evenodd" opacity="0.44"/><path d="M580.91,448.576a60.006,60.006,0,0,1-22.628-13.087l-13.526,7.81-.129.067a7.578,7.578,0,0,1-10.209-2.835l-.059-.109-10.4-18.019a7.573,7.573,0,0,1,2.763-10.327l.112-.059,13.406-7.74q-.629-2.848-.987-5.769a60.342,60.342,0,0,1,0-14.625q.352-2.919.99-5.769l-13.517-7.8,0,0a7.574,7.574,0,0,1-2.763-10.327l10.371-17.966a2.118,2.118,0,0,1,.171-.3,7.57,7.57,0,0,1,10.109-2.712,2.075,2.075,0,0,1,.3.173l13.369,7.718a60.14,60.14,0,0,1,22.633-13.089v-15.6a7.585,7.585,0,0,1,7.572-7.57h20.925a7.59,7.59,0,0,1,7.57,7.57v15.6a60.1,60.1,0,0,1,22.633,13.092l13.369-7.721a1.964,1.964,0,0,1,.341-.193,7.56,7.56,0,0,1,10.064,2.732,1.756,1.756,0,0,1,.171.3l10.372,17.964,0,0a7.568,7.568,0,0,1-2.771,10.335l-13.512,7.8q.633,2.848.99,5.769a60.358,60.358,0,0,1,0,14.625q-.352,2.919-.99,5.769l13.512,7.8a7.566,7.566,0,0,1,2.771,10.335l-.061.1-10.4,18.017,0,0a7.579,7.579,0,0,1-10.33,2.768l-.006-.006v.006l-13.526-7.81a60.314,60.314,0,0,1-10.618,7.8,59.7,59.7,0,0,1-12.013,5.285v15.6a7.59,7.59,0,0,1-7.57,7.57H588.482a7.585,7.585,0,0,1-7.572-7.57v-15.6ZM519.145,322.684A30.734,30.734,0,0,1,508.81,316.7l-6.076,3.507a4.715,4.715,0,0,1-6.448-1.734L491.1,309.5a4.731,4.731,0,0,1,1.731-6.445l.109-.056,5.962-3.442c-.148-.741-.268-1.49-.361-2.24a30.885,30.885,0,0,1,0-7.466c.092-.752.213-1.5.361-2.243l-6.062-3.5,26.3,38.572Zm-3.5-5.856a26.613,26.613,0,0,0,5.906,2.517,1.961,1.961,0,0,1,1.5,1.9v8.436a.819.819,0,0,0,.19.526l.053.05a.828.828,0,0,0,.579.243h10.349a.828.828,0,0,0,.579-.243l0,.006a.827.827,0,0,0,.24-.582v-8.436a1.951,1.951,0,0,1,1.421-1.879,26.534,26.534,0,0,0,5.981-2.542,26.882,26.882,0,0,0,5.182-3.9,1.958,1.958,0,0,1,2.374-.324l7.312,4.222,0,0a.823.823,0,0,0,.623.073.8.8,0,0,0,.5-.375l5.179-8.962a.844.844,0,0,0,.073-.632.826.826,0,0,0-.383-.5l0,0-7.192-4.152a1.956,1.956,0,0,1-1.032-2.217,26.009,26.009,0,0,0,.587-3.2,27.471,27.471,0,0,0,0-6.546,26.149,26.149,0,0,0-.587-3.207h0a1.949,1.949,0,0,1,.923-2.153l7.3-4.217a.811.811,0,0,0,.375-.5.843.843,0,0,0-.073-.632l-5.179-8.962a.8.8,0,0,0-.5-.375.843.843,0,0,0-.573.042l-7.36,4.253a1.949,1.949,0,0,1-2.329-.282,27.061,27.061,0,0,0-5.226-3.934,26.5,26.5,0,0,0-5.9-2.517,1.958,1.958,0,0,1-1.5-1.9v-8.436a.8.8,0,0,0-.243-.576.828.828,0,0,0-.579-.243H523.879a.836.836,0,0,0-.528.19l-.05.053a.805.805,0,0,0-.243.576v8.436a1.954,1.954,0,0,1-1.423,1.879,26.769,26.769,0,0,0-11.2,6.476v0a1.946,1.946,0,0,1-2.321.285l-7.312-4.22a.818.818,0,0,0-.632-.076.791.791,0,0,0-.5.375l-5.176,8.962a.848.848,0,0,0,.3,1.135v0l7.192,4.152a1.95,1.95,0,0,1,1.032,2.215,27.108,27.108,0,0,0,0,12.958l-.006,0a1.949,1.949,0,0,1-.92,2.153l-7.145,4.125a1.751,1.751,0,0,1-.218.134.835.835,0,0,0-.316.461.821.821,0,0,0,.031.542,1.949,1.949,0,0,1,.134.246l5.086,8.805a.791.791,0,0,0,.5.375.818.818,0,0,0,.632-.076L508,312.673a1.946,1.946,0,0,1,2.427.221,27.021,27.021,0,0,0,5.221,3.934Zm-22.815-32.719,26.31,38.575v7a4.714,4.714,0,0,0,1.264,3.2c.039.047.081.092.126.137a4.713,4.713,0,0,0,3.344,1.39h10.349a4.708,4.708,0,0,0,3.344-1.39l0,0,0-.006a4.706,4.706,0,0,0,1.387-3.333v-7a31.033,31.033,0,0,0,5.45-2.478,30.708,30.708,0,0,0,4.885-3.5l6.068,3.5,0,0,.005,0a4.717,4.717,0,0,0,6.451-1.734L567,309.51a4.73,4.73,0,0,0-1.725-6.454l0,.006-6.065-3.5c.143-.741.263-1.49.358-2.24a30.885,30.885,0,0,0,0-7.466c-.1-.752-.215-1.5-.361-2.243l6.063-3.5A4.721,4.721,0,0,0,567,277.658l-5.176-8.965a4.716,4.716,0,0,0-6.32-1.806c-.045.022-.1.045-.14.073l-6.068,3.5a30.594,30.594,0,0,0-4.885-3.5,31.037,31.037,0,0,0-5.45-2.478v-7a4.74,4.74,0,0,0-4.731-4.731H523.879a4.706,4.706,0,0,0-3.207,1.264c-.045.039-.092.078-.137.126a4.712,4.712,0,0,0-1.39,3.342v7a30.731,30.731,0,0,0-10.335,5.981l-6.076-3.507a4.715,4.715,0,0,0-6.448,1.734l-5.187,8.985a4.724,4.724,0,0,0,1.737,6.431Zm0,0,0,0,0,0Zm36.215,26.2a16.722,16.722,0,1,0-11.823-4.9,16.681,16.681,0,0,0,11.823,4.9Zm-9.06-7.662a12.823,12.823,0,1,0-3.75-9.063,12.773,12.773,0,0,0,3.75,9.063Zm78.953,52.9a35.654,35.654,0,1,0,25.209,10.441,35.55,35.55,0,0,0-25.209-10.441Zm-27.286,8.367a38.581,38.581,0,1,0,27.286-11.3,38.457,38.457,0,0,0-27.286,11.3Zm-.805,76.006a55.916,55.916,0,0,0,12.466,5.307,1.955,1.955,0,0,1,1.5,1.9v17.052a3.671,3.671,0,0,0,3.658,3.658h20.925a3.676,3.676,0,0,0,3.658-3.658V447.124a1.957,1.957,0,0,1,1.421-1.879,55.853,55.853,0,0,0,12.547-5.33,56.52,56.52,0,0,0,10.9-8.207,1.954,1.954,0,0,1,2.374-.324l14.784,8.534,0,0a3.685,3.685,0,0,0,5-1.345h.005l10.4-18.014.059-.106a3.688,3.688,0,0,0-1.337-5.005l-14.664-8.464a1.956,1.956,0,0,1-1.032-2.217,56.286,56.286,0,0,0,1.239-6.719,57.333,57.333,0,0,0,0-13.707,56.126,56.126,0,0,0-1.239-6.722l.006,0a1.951,1.951,0,0,1,.92-2.15l14.77-8.529a3.686,3.686,0,0,0,1.337-5h.006l-10.405-18.019-.061-.1a3.694,3.694,0,0,0-5.005-1.345L640.4,350.943a1.947,1.947,0,0,1-2.427-.221,56.351,56.351,0,0,0-10.939-8.243,55.685,55.685,0,0,0-12.469-5.31,1.955,1.955,0,0,1-1.5-1.9V318.212a3.676,3.676,0,0,0-3.658-3.658H588.482a3.671,3.671,0,0,0-3.658,3.658v17.052a1.963,1.963,0,0,1-1.423,1.882,55.6,55.6,0,0,0-12.547,5.332,56.283,56.283,0,0,0-10.942,8.243l0,0a1.947,1.947,0,0,1-2.318.285l-14.681-8.476-.112-.059a3.687,3.687,0,0,0-5,1.342l0,0-10.458,18.117a3.694,3.694,0,0,0,1.342,5.011v0l14.658,8.462a1.953,1.953,0,0,1,1.029,2.217,56.694,56.694,0,0,0,0,27.149h0a1.949,1.949,0,0,1-.92,2.156l-14.661,8.464-.1.062a3.694,3.694,0,0,0-1.342,5.011l10.4,18.014.062.1a3.692,3.692,0,0,0,4.924,1.393l.078-.05,14.784-8.534a1.955,1.955,0,0,1,2.329.282,56.528,56.528,0,0,0,10.942,8.249Zm28.092-16.906a31.816,31.816,0,1,0-22.5-9.32,31.718,31.718,0,0,0,22.5,9.32Zm-19.731-12.086a27.9,27.9,0,1,0-8.171-19.728A27.822,27.822,0,0,0,579.215,410.924Z" transform="translate(974.154 508.584)" fill="#bb85ff" fill-rule="evenodd" opacity="0.7"/><path d="M474.167,357.267h-2.114a1.05,1.05,0,1,0,0,2.1h4.2a1.052,1.052,0,0,0,.747-1.79,1.04,1.04,0,0,0-.747-.31ZM729.7,534.893a1.05,1.05,0,1,0,0-2.1h-2.1a1.05,1.05,0,0,0,0,2.1ZM525.2,451.217a1.051,1.051,0,0,0-1.787-.747,1.038,1.038,0,0,0-.313.747v2.1a1.05,1.05,0,0,0,1.787.747,1.036,1.036,0,0,0,.313-.747v-2.1Zm0,8.4a1.05,1.05,0,1,0-2.1,0v2.1a1.05,1.05,0,0,0,1.787.744,1.03,1.03,0,0,0,.313-.744v-2.1Zm0,8.395a1.05,1.05,0,0,0-2.1,0v2.1a1.051,1.051,0,0,0,1.787.749,1.038,1.038,0,0,0,.313-.749v-2.1Zm0,8.4a1.05,1.05,0,0,0-2.1,0v2.1a1.051,1.051,0,0,0,1.787.747,1.027,1.027,0,0,0,.313-.747v-2.1Zm0,8.4a1.05,1.05,0,0,0-2.1,0v2.1a1.051,1.051,0,0,0,1.787.749,1.033,1.033,0,0,0,.313-.749v-2.1Zm0,8.4a1.049,1.049,0,0,0-1.787-.744,1.036,1.036,0,0,0-.313.744v2.1a1.05,1.05,0,0,0,1.787.747,1.027,1.027,0,0,0,.313-.747v-2.1Zm0,8.4a1.05,1.05,0,0,0-2.1,0v2.1a1.051,1.051,0,0,0,1.787.749,1.038,1.038,0,0,0,.313-.749v-2.1Zm0,8.4a1.05,1.05,0,0,0-2.1,0v2.1a1.05,1.05,0,1,0,2.1,0v-2.1Zm.64,8.073a1.05,1.05,0,0,0-2.038.045,1.082,1.082,0,0,0,.008.492,21.188,21.188,0,0,0,.674,2.106,1.049,1.049,0,0,0,2.027-.42,1.031,1.031,0,0,0-.064-.33,17.377,17.377,0,0,1-.607-1.893Zm3.521,7.091a1.049,1.049,0,1,0-1.65,1.3q.68.868,1.443,1.667a1.049,1.049,0,1,0,1.51-1.457c-.459-.481-.895-.987-1.3-1.507Zm6.02,5.156a1.051,1.051,0,0,0-1.44,1.4,1.037,1.037,0,0,0,.425.439c.643.358,1.3.68,1.98.973a1.052,1.052,0,0,0,1.208-1.65,1.077,1.077,0,0,0-.386-.285,18.875,18.875,0,0,1-1.787-.875Zm7.55,2.368a1.049,1.049,0,0,0-.2,2.089c.735.073,1.463.109,2.2.109a1.053,1.053,0,0,0,.747-1.79,1.035,1.035,0,0,0-.747-.31c-.668,0-1.328-.034-2-.1Zm8.294.1a1.05,1.05,0,0,0,0,2.1h2.1a1.053,1.053,0,0,0,.749-1.79,1.042,1.042,0,0,0-.749-.31Zm8.4,0a1.05,1.05,0,0,0,0,2.1h2.1a1.053,1.053,0,0,0,.747-1.79,1.04,1.04,0,0,0-.747-.31Zm8.4,0a1.052,1.052,0,0,0-.749,1.787,1.066,1.066,0,0,0,.749.313h2.1a1.05,1.05,0,1,0,0-2.1Zm8.4,0a1.05,1.05,0,0,0,0,2.1h2.1a1.05,1.05,0,1,0,0-2.1Zm8.4,0a1.05,1.05,0,1,0,0,2.1h2.1a1.052,1.052,0,0,0,.747-1.79,1.04,1.04,0,0,0-.747-.31Zm8.4,0a1.05,1.05,0,0,0,0,2.1h2.1a1.05,1.05,0,1,0,0-2.1Zm8.4,0a1.05,1.05,0,1,0,0,2.1h2.1a1.052,1.052,0,0,0,.744-1.79,1.038,1.038,0,0,0-.744-.31Zm8.4,0a1.05,1.05,0,0,0,0,2.1h2.1a1.05,1.05,0,1,0,0-2.1Zm8.4,0a1.05,1.05,0,0,0,0,2.1h2.1a1.052,1.052,0,0,0,.747-1.79,1.035,1.035,0,0,0-.747-.31Zm8.395,0a1.05,1.05,0,0,0,0,2.1h2.1a1.053,1.053,0,0,0,.749-1.79,1.041,1.041,0,0,0-.749-.31Zm8.4,0a1.05,1.05,0,0,0,0,2.1h2.1a1.052,1.052,0,0,0,.747-1.79,1.035,1.035,0,0,0-.747-.31Zm8.4,0a1.05,1.05,0,0,0,0,2.1h2.1a1.053,1.053,0,0,0,.747-1.79,1.04,1.04,0,0,0-.747-.31Zm8.4,0a1.05,1.05,0,0,0,0,2.1h2.1a1.05,1.05,0,1,0,0-2.1Zm8.4,0a1.05,1.05,0,0,0,0,2.1h2.1a1.05,1.05,0,1,0,0-2.1Zm8.4,0a1.051,1.051,0,0,0-.747,1.787,1.064,1.064,0,0,0,.747.313h2.1a1.05,1.05,0,1,0,0-2.1Zm8.4,0a1.052,1.052,0,0,0-.749,1.787,1.066,1.066,0,0,0,.749.313h2.1a1.05,1.05,0,1,0,0-2.1Zm8.4,0a1.05,1.05,0,1,0,0,2.1h2.1a1.05,1.05,0,1,0,0-2.1Zm8.4,0a1.05,1.05,0,0,0,0,2.1h2.1a1.052,1.052,0,0,0,.744-1.79,1.033,1.033,0,0,0-.744-.31Zm8.4,0a1.05,1.05,0,0,0,0,2.1h2.1a1.052,1.052,0,0,0,.744-1.79,1.038,1.038,0,0,0-.744-.31Zm8.4,0a1.05,1.05,0,1,0,0,2.1h2.1a1.051,1.051,0,0,0,.744-1.79,1.034,1.034,0,0,0-.744-.31Zm8.4,0a1.05,1.05,0,1,0,0,2.1h2.1a1.052,1.052,0,0,0,.747-1.79,1.04,1.04,0,0,0-.747-.31ZM523.1,445.314a1.052,1.052,0,0,0,1.787.749,1.038,1.038,0,0,0,.313-.749v-2.1a1.05,1.05,0,0,0-2.1,0v2.1Zm0-8.4a1.051,1.051,0,0,0,1.787.747,1.027,1.027,0,0,0,.313-.747v-2.1a1.05,1.05,0,0,0-2.1,0v2.1Zm0-8.4a1.051,1.051,0,0,0,1.787.749,1.038,1.038,0,0,0,.313-.749v-2.1a1.05,1.05,0,0,0-1.787-.744,1.036,1.036,0,0,0-.313.744v2.1Zm0-8.395a1.05,1.05,0,0,0,1.787.744,1.03,1.03,0,0,0,.313-.744v-2.1a1.05,1.05,0,1,0-2.1,0v2.1Zm0-8.4a1.049,1.049,0,0,0,1.787.744,1.025,1.025,0,0,0,.313-.744v-2.1a1.051,1.051,0,0,0-1.787-.747,1.038,1.038,0,0,0-.313.747v2.1Zm0-8.4a1.05,1.05,0,0,0,1.787.747,1.031,1.031,0,0,0,.313-.747v-2.1a1.05,1.05,0,1,0-2.1,0v2.1Zm0-8.4a1.05,1.05,0,0,0,1.787.744,1.025,1.025,0,0,0,.313-.744v-2.1a1.05,1.05,0,1,0-2.1,0v2.1Zm0-8.4a1.05,1.05,0,0,0,1.787.747,1.032,1.032,0,0,0,.313-.747v-2.1a1.05,1.05,0,1,0-2.1,0v2.1Zm-.02-8.341a1.05,1.05,0,1,0,2.1-.112c-.033-.735-.1-1.462-.21-2.192a1.051,1.051,0,0,0-2.078.316c.073.679.157,1.295.19,1.988Zm2.1-.112L522.89,376.2l2.287,1.873Zm-4.046-7.567a1.05,1.05,0,0,0,1.991-.473,1,1,0,0,0-.106-.45,19.656,19.656,0,0,0-1.065-1.932,1.049,1.049,0,1,0-1.779,1.113c.35.573.666,1.141.959,1.742Zm-4.821-6.289a1.05,1.05,0,1,0,1.376-1.586,20.4,20.4,0,0,0-1.734-1.362,1.049,1.049,0,0,0-1.482,1.429,1.074,1.074,0,0,0,.274.288,19.685,19.685,0,0,1,1.566,1.23Zm-6.89-3.9a1.052,1.052,0,0,0,1.026-1.778,1.039,1.039,0,0,0-.386-.221c-.7-.226-1.4-.414-2.128-.57a1.052,1.052,0,0,0-.83,1.882,1.034,1.034,0,0,0,.394.171c.654.145,1.283.313,1.924.517Zm-7.975-.945a1.05,1.05,0,1,0,0-2.1h-2.1a1.05,1.05,0,0,0-.744,1.787,1.036,1.036,0,0,0,.744.313Zm-8.394,0a1.052,1.052,0,0,0,.744-1.79,1.038,1.038,0,0,0-.744-.31h-2.1a1.05,1.05,0,1,0,0,2.1Zm-8.4,0a1.051,1.051,0,0,0,.744-1.79,1.034,1.034,0,0,0-.744-.31h-2.1a1.051,1.051,0,0,0-.747,1.787,1.038,1.038,0,0,0,.747.313ZM370.76,174.99a1.05,1.05,0,0,0-2.1,0v.378a1.053,1.053,0,0,0,1.79.749,1.041,1.041,0,0,0,.31-.749v-.378Zm0,6.678a1.05,1.05,0,0,0-2.1,0v2.1a1.05,1.05,0,1,0,2.1,0v-2.1Zm0,8.4a1.05,1.05,0,0,0-2.1,0v2.1a1.05,1.05,0,1,0,2.1,0v-2.1Zm0,8.4a1.05,1.05,0,0,0-2.1,0v2.1a1.05,1.05,0,1,0,2.1,0v-2.1Zm0,8.4a1.05,1.05,0,1,0-2.1,0v2.1a1.051,1.051,0,0,0,1.79.744,1.038,1.038,0,0,0,.31-.744v-2.1Zm0,8.4a1.051,1.051,0,0,0-1.787-.749,1.04,1.04,0,0,0-.313.749v2.1a1.051,1.051,0,0,0,1.79.747,1.04,1.04,0,0,0,.31-.747v-2.1Zm0,8.4a1.05,1.05,0,0,0-1.787-.747,1.038,1.038,0,0,0-.313.747v2.1a1.051,1.051,0,0,0,1.79.744,1.034,1.034,0,0,0,.31-.744v-2.1Zm0,8.4a1.05,1.05,0,1,0-2.1,0v2.1a1.051,1.051,0,0,0,1.79.744,1.038,1.038,0,0,0,.31-.744v-2.1Zm0,8.394a1.05,1.05,0,0,0-1.787-.744,1.036,1.036,0,0,0-.313.744v2.1a1.05,1.05,0,1,0,2.1,0v-2.1Zm0,8.4a1.05,1.05,0,0,0-2.1,0v2.1a1.052,1.052,0,0,0,1.79.747,1.04,1.04,0,0,0,.31-.747v-2.1Zm0,8.4a1.05,1.05,0,0,0-1.787-.744,1.036,1.036,0,0,0-.313.744v2.1a1.05,1.05,0,1,0,2.1,0v-2.1Zm0,8.4a1.05,1.05,0,0,0-2.1,0v2.1a1.053,1.053,0,0,0,1.79.747,1.04,1.04,0,0,0,.31-.747v-2.1Zm0,8.4a1.05,1.05,0,0,0-2.1,0v2.1a1.05,1.05,0,1,0,2.1,0v-2.1Zm0,8.4a1.05,1.05,0,1,0-2.1,0v2.1a1.053,1.053,0,0,0,1.79.747,1.035,1.035,0,0,0,.31-.747v-2.1Zm0,8.4a1.05,1.05,0,0,0-2.1,0v2.1a1.05,1.05,0,1,0,2.1,0v-2.1Zm0,8.4a1.05,1.05,0,1,0-2.1,0v2.1a1.05,1.05,0,1,0,2.1,0v-2.1Zm0,8.4a1.05,1.05,0,0,0-2.1,0v2.1a1.051,1.051,0,0,0,1.79.747,1.04,1.04,0,0,0,.31-.747v-2.1Zm.014,8.372a1.05,1.05,0,0,0-2.1.056c.017.71.053,1.437.106,2.148a1.049,1.049,0,1,0,2.092-.159c-.047-.68-.084-1.365-.1-2.044Zm.99,8.118a1.037,1.037,0,0,0-.587-.721,1.051,1.051,0,0,0-1.46,1.186q.235,1.049.523,2.089a1.05,1.05,0,0,0,2.058-.235.934.934,0,0,0-.039-.33q-.268-.986-.495-1.988Zm2.553,7.774a1.048,1.048,0,1,0-1.916.853c.288.657.59,1.309.912,1.949a1.051,1.051,0,0,0,1.974-.638.94.94,0,0,0-.1-.31c-.3-.612-.593-1.233-.87-1.854Zm4.007,7.131a1.05,1.05,0,0,0-1.717,1.211c.411.587.833,1.166,1.272,1.734a1.051,1.051,0,0,0,1.658-1.292c-.419-.54-.819-1.088-1.214-1.653Zm5.3,6.241a1.05,1.05,0,0,0-1.46,1.51c.517.5,1.037.984,1.58,1.46a1.035,1.035,0,0,0,1,.213,1.05,1.05,0,0,0,.383-1.79q-.772-.68-1.5-1.393Zm6.39,5.117a1.05,1.05,0,1,0-1.146,1.759c.6.394,1.208.769,1.826,1.133a1.052,1.052,0,0,0,1.281-1.644,1.158,1.158,0,0,0-.218-.168c-.59-.347-1.172-.7-1.742-1.079Zm7.248,3.795a1.051,1.051,0,0,0-1.088,1.762,1,1,0,0,0,.3.187c.666.266,1.334.52,2.013.758a1.049,1.049,0,0,0,.923-1.865,1.086,1.086,0,0,0-.235-.117c-.643-.227-1.284-.467-1.916-.724Zm7.838,2.318a1.052,1.052,0,0,0-.724,1.938,1.063,1.063,0,0,0,.344.129c.7.134,1.406.252,2.114.352a1.051,1.051,0,0,0,.573-2,1.017,1.017,0,0,0-.28-.078c-.679-.1-1.351-.213-2.027-.341Zm8.16.755a1.05,1.05,0,0,0,0,2.1h2.1a1.053,1.053,0,0,0,.747-1.79,1.04,1.04,0,0,0-.747-.31Zm8.4,0a1.05,1.05,0,0,0,0,2.1h2.1a1.054,1.054,0,0,0,.749-1.79,1.041,1.041,0,0,0-.749-.31Zm8.4,0a1.05,1.05,0,0,0,0,2.1h2.1a1.052,1.052,0,0,0,.747-1.79,1.04,1.04,0,0,0-.747-.31Zm8.4,0a1.05,1.05,0,1,0,0,2.1h2.1a1.05,1.05,0,1,0,0-2.1Zm8.4,0a1.05,1.05,0,0,0,0,2.1h2.1a1.05,1.05,0,1,0,0-2.1Zm8.4,0a1.05,1.05,0,0,0,0,2.1h2.1a1.051,1.051,0,0,0,.744-1.79,1.039,1.039,0,0,0-.744-.31Zm8.4,0a1.051,1.051,0,0,0-.747,1.787,1.038,1.038,0,0,0,.747.313h2.1a1.051,1.051,0,0,0,.744-1.79,1.034,1.034,0,0,0-.744-.31Z" transform="translate(755.338 367.015)" fill="#bb85ff" fill-rule="evenodd" opacity="0.7"/><g transform="translate(1067.796 346.891)"><path d="M378.282,243.354h50.272a6.183,6.183,0,0,1,.724.042c4.111-1.1,4.273-4.98,4.5-10.651a75.762,75.762,0,0,1,.805-9.34c1.4-8.6,10.545-23.964,14.988-31.056l.064-.1,0-.006c1.275-2.027,2.148-3.356,2.318-3.616a56.316,56.316,0,1,0-97.088,0c.171.26,1.046,1.588,2.318,3.616l0,.006.067.1c4.443,7.091,13.584,22.46,14.983,31.056a75.819,75.819,0,0,1,.808,9.34c.232,5.671.394,9.547,4.508,10.651A6.171,6.171,0,0,1,378.282,243.354Z" transform="translate(-347.131 -103.824)" fill-rule="evenodd" fill="url(#a)"/><path d="M374,187.833a1.232,1.232,0,0,1-2.464,0V150.939c0-.473-.011-.931-.028-1.376-.814-.19-1.591-.405-2.329-.638a19.941,19.941,0,0,1-7.027-3.658,7,7,0,0,1-2.78-5.165,4.991,4.991,0,0,1,.238-1.518,4.782,4.782,0,0,1,3.132-3.135,5.991,5.991,0,0,1,3.445-.062,8.022,8.022,0,0,1,3.442,2.013c1.991,1.907,3.669,5.168,4.2,10.128a45.152,45.152,0,0,0,15.22,0c.528-4.961,2.206-8.221,4.194-10.128a8.03,8.03,0,0,1,3.445-2.013,5.991,5.991,0,0,1,3.445.062,4.782,4.782,0,0,1,3.132,3.135,4.987,4.987,0,0,1,.235,1.518,7,7,0,0,1-2.78,5.165,19.926,19.926,0,0,1-7.024,3.658c-.738.232-1.516.447-2.329.638-.017.445-.028.9-.028,1.376v36.894a1.232,1.232,0,0,1-2.464,0V150.939c0-.3.006-.593.011-.884a47.752,47.752,0,0,1-14.9,0c.006.291.011.584.011.884v36.894Zm20.944-48.661c-1.521,1.457-2.822,3.962-3.35,7.8.467-.123.923-.254,1.359-.394a17.494,17.494,0,0,0,6.16-3.165,4.668,4.668,0,0,0,1.921-3.308,2.587,2.587,0,0,0-.118-.78,2.369,2.369,0,0,0-1.555-1.544,3.53,3.53,0,0,0-2.041-.014,5.577,5.577,0,0,0-2.377,1.407Zm-23.665,7.8c-.531-3.836-1.829-6.342-3.35-7.8a5.586,5.586,0,0,0-2.38-1.407,3.52,3.52,0,0,0-2.039.014,2.369,2.369,0,0,0-1.555,1.544,2.684,2.684,0,0,0-.12.78,4.668,4.668,0,0,0,1.921,3.308,17.511,17.511,0,0,0,6.163,3.165Q370.576,146.787,371.277,146.971Z" transform="translate(-325.146 -47.523)" fill="#fff" fill-rule="evenodd"/><path d="M386.607,168.177c0,5.4-5.274,9.781-11.781,9.781s-11.778-4.379-11.778-9.781,6.2-5.73,6.2-5.73Z" transform="translate(-318.539 1.48)" fill-rule="evenodd" fill="url(#b)"/><path d="M362.261,153.56h49.948a6.125,6.125,0,0,1,1.373,12.091,6.124,6.124,0,0,1-4.782,9.938H408a6.123,6.123,0,0,1-4.9,9.781h-31.73a6.114,6.114,0,0,1-4.9-9.781h-.8a6.115,6.115,0,0,1-4.782-9.938,6.124,6.124,0,0,1,1.37-12.091Z" transform="translate(-330.948 -14.483)" fill-rule="evenodd" fill="url(#c)"/></g></g></svg>