<svg id="sad" xmlns="http://www.w3.org/2000/svg" width="96.049" height="96.049" viewBox="0 0 96.049 96.049">
  <g id="Group_2860" data-name="Group 2860">
    <g id="Group_2859" data-name="Group 2859">
      <path id="Path_2941" data-name="Path 2941" d="M48.025,0A48.025,48.025,0,1,0,96.049,48.025,48.08,48.08,0,0,0,48.025,0Zm0,91.873A43.849,43.849,0,1,1,91.873,48.025,43.9,43.9,0,0,1,48.025,91.873Z"/>
      <path id="Path_2942" data-name="Path 2942" d="M108.528,134.264a6.264,6.264,0,1,0-6.264,6.264A6.272,6.272,0,0,0,108.528,134.264Zm-8.352,0a2.088,2.088,0,1,1,2.088,2.088A2.091,2.091,0,0,1,100.176,134.264Z" transform="translate(-70.944 -94.592)"/>
      <path id="Path_2943" data-name="Path 2943" d="M230.264,128a6.264,6.264,0,1,0,6.264,6.264A6.272,6.272,0,0,0,230.264,128Zm0,8.352a2.088,2.088,0,1,1,2.088-2.088A2.09,2.09,0,0,1,230.264,136.352Z" transform="translate(-165.535 -94.592)"/>
      <path id="Path_2944" data-name="Path 2944" d="M124.882,224a27.316,27.316,0,0,0-20.348,9.047,2.088,2.088,0,1,0,3.111,2.785,23.23,23.23,0,0,1,34.473,0,2.088,2.088,0,1,0,3.111-2.785A27.32,27.32,0,0,0,124.882,224Z" transform="translate(-76.858 -165.535)"/>
    </g>
  </g>
</svg>
