<svg xmlns="http://www.w3.org/2000/svg" width="1920.417" height="348.233" viewBox="0 0 1920.417 348.233">
  <g id="schedule" transform="translate(0 -6388)">
    <g id="Rectangle_1257" data-name="Rectangle 1257" transform="translate(0 6388)" fill="#3758ff" stroke="#707070" stroke-width="1" opacity="0.23">
      <rect width="1920" height="347" stroke="none"/>
      <rect x="0.5" y="0.5" width="1919" height="346" fill="none"/>
    </g>
    <path id="Path_2232" data-name="Path 2232" d="M277.95,423.958l227.136-347H50.814Z" transform="translate(94.126 6311.042)" fill="#464646" style="mix-blend-mode: screen;isolation: isolate"/>
    <path id="Path_2229" data-name="Path 2229" d="M242.265,211.324,336.5,67.355H148.027Z" transform="translate(461.157 6802.136) rotate(180)" fill="#464646" style="mix-blend-mode: screen;isolation: isolate"/>
    <path id="Path_2233" data-name="Path 2233" d="M252.545,192.511l-50.108,76.551H302.654Z" transform="translate(1617.763 6465.864)" fill="#464646" style="mix-blend-mode: screen;isolation: isolate"/>
    <path id="Path_2230" data-name="Path 2230" d="M305.773,282,421.4,105.359H190.147Z" transform="translate(1348.6 6282.641)" fill="#464646" style="mix-blend-mode: screen;isolation: isolate"/>
    <g id="Group_2083" data-name="Group 2083" transform="translate(100.137 6577.283)" style="mix-blend-mode: screen;isolation: isolate">
      <path id="Path_2238" data-name="Path 2238" d="M0,.107l187.2,2.619.033,2.362L.035,2.469Z" transform="translate(-0.127 156.185) rotate(-57.044)" fill="#464646"/>
    </g>
    <path id="Path_2235" data-name="Path 2235" d="M138.119,137.7,22.724,313.993H253.514Z" transform="translate(1666.029 6250.652)" fill="#464646" style="mix-blend-mode: screen;isolation: isolate"/>
  </g>
</svg>
