<svg xmlns="http://www.w3.org/2000/svg" width="37.865" height="39.341" viewBox="0 0 37.865 39.341">
  <path id="seam-img" d="M45.647,26.165l-1.754-1.55a.853.853,0,0,0-1.224.08l-1.306,1.429a9.4,9.4,0,0,0-3.835-1.347l-.082-1.958a.859.859,0,0,0-.9-.816l-2.326.122a.86.86,0,0,0-.816.9l.082,1.958a9.858,9.858,0,0,0-3.672,1.755L28.389,25.43a.853.853,0,0,0-1.224.082l-1.55,1.754a.853.853,0,0,0,.08,1.224L27.124,29.8a9.4,9.4,0,0,0-1.347,3.835l-1.958.082a.858.858,0,0,0-.816.9l.122,2.326a.86.86,0,0,0,.9.816l1.958-.082a9.858,9.858,0,0,0,1.755,3.672L26.43,42.77a.853.853,0,0,0,.082,1.224l1.754,1.55a.853.853,0,0,0,1.224-.08L30.8,44.035a9.4,9.4,0,0,0,3.835,1.346l.082,1.959a.858.858,0,0,0,.9.816l2.326-.123a.858.858,0,0,0,.816-.9l-.082-1.959a9.84,9.84,0,0,0,3.672-1.754l1.428,1.306a.853.853,0,0,0,1.224-.082l1.55-1.754a.853.853,0,0,0-.08-1.224l-1.429-1.306a9.4,9.4,0,0,0,1.346-3.835l1.959-.082a.859.859,0,0,0,.816-.9l-.123-2.326a.858.858,0,0,0-.9-.816l-1.959.082a9.84,9.84,0,0,0-1.754-3.672l1.306-1.428a.937.937,0,0,0-.082-1.224Zm-6.12,12.076a4.708,4.708,0,1,1-.327-6.65A4.709,4.709,0,0,1,39.527,38.241Zm10.2,18.85,1.1.449a.509.509,0,0,0,.693-.286l.571-1.346a.509.509,0,0,0-.285-.694l-1.1-.449a6.605,6.605,0,0,0,0-2.53l1.1-.448a.509.509,0,0,0,.285-.694l-.57-1.346a.51.51,0,0,0-.694-.286l-1.1.45a6.266,6.266,0,0,0-1.795-1.8l.449-1.1a.509.509,0,0,0-.286-.693l-1.346-.571a.509.509,0,0,0-.694.285l-.449,1.1a6.605,6.605,0,0,0-2.53,0l-.448-1.1a.509.509,0,0,0-.694-.285l-1.346.57a.51.51,0,0,0-.286.694l.45,1.1a6.241,6.241,0,0,0-1.8,1.795l-1.1-.449a.509.509,0,0,0-.693.286l-.572,1.346a.51.51,0,0,0,.286.694l1.1.449a6.566,6.566,0,0,0,0,2.53l-1.1.448a.51.51,0,0,0-.286.694l.572,1.346a.509.509,0,0,0,.693.286l1.1-.449a6.25,6.25,0,0,0,1.795,1.795l-.49,1.143a.509.509,0,0,0,.286.693l1.346.571a.509.509,0,0,0,.694-.285l.449-1.1a6.605,6.605,0,0,0,2.53,0l.448,1.1a.509.509,0,0,0,.694.285l1.346-.57a.51.51,0,0,0,.286-.694l-.449-1.1a6.577,6.577,0,0,0,1.836-1.836ZM47.034,54.6a2.936,2.936,0,1,1-1.591-3.834A2.926,2.926,0,0,1,47.034,54.6Zm1.55-12.28a.408.408,0,0,0-.407.407v1.143a.409.409,0,0,0,.408.408h.938a4.536,4.536,0,0,0,.775,1.836l-.693.653a.442.442,0,0,0,0,.612l.816.816a.444.444,0,0,0,.612,0l.693-.653a5.187,5.187,0,0,0,1.836.775v.938a.409.409,0,0,0,.408.408h1.143a.409.409,0,0,0,.408-.408v-.938a4.548,4.548,0,0,0,1.836-.775l.652.693a.442.442,0,0,0,.612,0l.816-.816a.442.442,0,0,0,0-.612l-.693-.652a5.2,5.2,0,0,0,.775-1.836h.938a.409.409,0,0,0,.408-.408V42.77a.409.409,0,0,0-.408-.408h-.938a4.536,4.536,0,0,0-.775-1.836l.693-.653a.442.442,0,0,0,0-.612l-.816-.816a.444.444,0,0,0-.612,0l-.693.653a5.187,5.187,0,0,0-1.836-.775v-.938a.409.409,0,0,0-.408-.408H53.929a.409.409,0,0,0-.408.408v.938a4.548,4.548,0,0,0-1.836.775l-.652-.693a.442.442,0,0,0-.612,0l-.816.816a.442.442,0,0,0,0,.612l.652.693a5.205,5.205,0,0,0-.775,1.836l-.9-.04Zm4.325-.613a2.308,2.308,0,1,1,0,3.264A2.245,2.245,0,0,1,52.909,41.709Z" transform="translate(-23 -22)" fill="#f58e21"/>
</svg>
