<svg id="settings_1_" data-name="settings (1)" xmlns="http://www.w3.org/2000/svg" width="38.235" height="38.235" viewBox="0 0 38.235 38.235">
  <g id="Group_1290" data-name="Group 1290" transform="translate(0 12.745)">
    <g id="Group_1289" data-name="Group 1289">
      <path id="Path_487" data-name="Path 487" d="M23.578,169.559h-.7a.627.627,0,0,1-.59-.412c-.078-.2-.161-.4-.251-.6a.628.628,0,0,1,.127-.711l.5-.5a1.916,1.916,0,0,0,0-2.7l-1.8-1.8a1.916,1.916,0,0,0-2.7,0l-.5.5a.631.631,0,0,1-.711.127c-.2-.09-.4-.173-.6-.255a.626.626,0,0,1-.414-.591v-.7A1.912,1.912,0,0,0,14.02,160H11.471a1.912,1.912,0,0,0-1.912,1.912v.7a.627.627,0,0,1-.412.59c-.2.078-.4.161-.6.251a.63.63,0,0,1-.711-.127l-.5-.5a1.916,1.916,0,0,0-2.7,0l-1.8,1.807a1.916,1.916,0,0,0,0,2.7l.5.5a.628.628,0,0,1,.127.711c-.09.2-.173.4-.252.6a.626.626,0,0,1-.595.411h-.7A1.912,1.912,0,0,0,0,171.471v2.549a1.912,1.912,0,0,0,1.912,1.912h.7a.627.627,0,0,1,.59.412c.078.2.161.4.251.6a.628.628,0,0,1-.127.711l-.5.5a1.916,1.916,0,0,0,0,2.7l1.8,1.8a1.916,1.916,0,0,0,2.7,0l.5-.5a.631.631,0,0,1,.711-.127c.2.09.4.173.6.255a.626.626,0,0,1,.417.591v.7a1.912,1.912,0,0,0,1.912,1.912H14.02a1.912,1.912,0,0,0,1.912-1.912v-.7a.627.627,0,0,1,.412-.59c.2-.078.4-.161.6-.251a.63.63,0,0,1,.711.127l.5.5a1.917,1.917,0,0,0,2.7,0l1.8-1.8a1.916,1.916,0,0,0,0-2.7l-.5-.5a.628.628,0,0,1-.127-.711c.09-.2.173-.4.255-.6a.626.626,0,0,1,.591-.414h.7a1.912,1.912,0,0,0,1.912-1.912v-2.549A1.912,1.912,0,0,0,23.578,169.559Zm.637,4.461a.637.637,0,0,1-.637.637h-.7a1.918,1.918,0,0,0-1.784,1.232q-.1.268-.219.527a1.917,1.917,0,0,0,.382,2.139l.5.5a.637.637,0,0,1,0,.9h0l-1.8,1.8a.637.637,0,0,1-.9,0l-.5-.5a1.916,1.916,0,0,0-2.139-.382c-.173.078-.349.152-.526.219a1.918,1.918,0,0,0-1.232,1.783v.7a.637.637,0,0,1-.637.637H11.471a.637.637,0,0,1-.637-.637v-.7A1.918,1.918,0,0,0,9.6,181.093q-.268-.1-.527-.219a1.918,1.918,0,0,0-2.139.382l-.5.5a.637.637,0,0,1-.9,0h0l-1.8-1.8a.637.637,0,0,1,0-.9l.5-.5a1.917,1.917,0,0,0,.382-2.139c-.078-.173-.152-.349-.219-.526a1.918,1.918,0,0,0-1.783-1.234h-.7a.637.637,0,0,1-.637-.637v-2.549a.637.637,0,0,1,.637-.637h.7A1.918,1.918,0,0,0,4.4,169.6q.1-.268.219-.527a1.918,1.918,0,0,0-.382-2.139l-.5-.5a.637.637,0,0,1,0-.9h0l1.8-1.8a.637.637,0,0,1,.9,0l.5.5a1.916,1.916,0,0,0,2.139.382c.173-.078.349-.152.526-.219a1.917,1.917,0,0,0,1.234-1.783v-.7a.637.637,0,0,1,.637-.637H14.02a.637.637,0,0,1,.637.637v.7a1.918,1.918,0,0,0,1.232,1.784q.268.1.527.219a1.916,1.916,0,0,0,2.139-.382l.5-.5a.641.641,0,0,1,.9,0l1.8,1.8a.637.637,0,0,1,0,.9l-.5.5a1.918,1.918,0,0,0-.382,2.139c.078.173.152.349.219.526a1.918,1.918,0,0,0,1.783,1.232h.7a.637.637,0,0,1,.637.637v2.549Z" transform="translate(0 -160)" fill="#0088c4"/>
    </g>
  </g>
  <g id="Group_1292" data-name="Group 1292" transform="translate(7.006 19.755)">
    <g id="Group_1291" data-name="Group 1291">
      <path id="Path_488" data-name="Path 488" d="M99.42,253.48c-.006-.153-.017-.305-.036-.457s-.045-.325-.078-.484c-.022-.1-.052-.206-.08-.31q-.054-.2-.12-.388c-.031-.089-.064-.177-.1-.264a5.677,5.677,0,0,0-.281-.6c-.008-.015-.013-.031-.022-.045a5.653,5.653,0,0,0-.574-.835c-.018-.023-.04-.045-.059-.067-.088-.1-.178-.2-.273-.3-.05-.052-.1-.1-.154-.15s-.127-.118-.191-.174-.156-.132-.236-.195l-.1-.078A5.7,5.7,0,0,0,93.7,248c-.064,0-.127.01-.191.012-.136,0-.272.011-.409.025-.072.008-.145.016-.217.026a5.84,5.84,0,0,0-.618.115,5.738,5.738,0,0,0,0,11.113.145.145,0,0,1,.032.006,6.092,6.092,0,0,0,.668.127c.148.018.3.022.446.029.1.005.191.02.3.02.182,0,.37-.012.563-.031a.622.622,0,0,0,.064-.008c.155-.017.312-.04.472-.072.064-.012.123-.028.184-.042.112-.026.224-.053.338-.087.089-.027.176-.058.263-.089s.178-.064.268-.1.166-.074.249-.112c.107-.049.213-.1.319-.155h0a7.541,7.541,0,0,0,1.633-1.18,2.006,2.006,0,0,0,.342-.418,6.8,6.8,0,0,0,.96-2.619c.018-.123.034-.246.043-.372s.015-.23.018-.345c0-.036.005-.071.005-.107C99.432,253.65,99.424,253.567,99.42,253.48Zm-1.27.417c0,.053,0,.106-.008.158-.011.154-.031.308-.057.463a4.47,4.47,0,0,1-2.239,3.123c-.079.041-.157.08-.235.116l-.053.026a4.6,4.6,0,0,1-1.162.352l-.085.013c-.08.011-.158.021-.236.028-.1.009-.206.014-.311.016H93.63a4.467,4.467,0,0,1-.451-.028l-.076-.009a4.712,4.712,0,0,1-.521-.1,4.461,4.461,0,0,1,0-8.642h0a4.614,4.614,0,0,1,1.12-.14,4.405,4.405,0,0,1,.545.037c.048.006.1.015.144.022.138.022.274.049.408.083l.131.034a4.5,4.5,0,0,1,.972.409c.049.029.1.059.145.089.1.064.2.127.294.2.052.038.1.075.154.115a4.6,4.6,0,0,1,.359.319c.045.046.087.1.131.144.073.08.145.161.213.247.047.059.092.12.137.182.064.092.127.187.185.284l.1.159a4.374,4.374,0,0,1,.219.467c.025.064.047.127.07.191.041.117.077.236.108.356.016.064.034.12.047.182a4.49,4.49,0,0,1,.081.522c0,.047,0,.094.007.14C98.153,253.6,98.155,253.75,98.15,253.9Z" transform="translate(-87.959 -248)" fill="#0088c4"/>
    </g>
  </g>
  <g id="Group_1294" data-name="Group 1294" transform="translate(6.951)">
    <g id="Group_1293" data-name="Group 1293">
      <path id="Path_489" data-name="Path 489" d="M116.634,13.382h-2a.622.622,0,0,1-.594-.418,13.273,13.273,0,0,0-.716-1.728.624.624,0,0,1,.122-.719l1.421-1.423a1.912,1.912,0,0,0,0-2.7l-2.71-2.705a1.912,1.912,0,0,0-2.7,0l-1.42,1.42a.624.624,0,0,1-.719.123,13.239,13.239,0,0,0-1.728-.719.622.622,0,0,1-.421-.594v-2A1.912,1.912,0,0,0,103.251,0H99.428a1.912,1.912,0,0,0-1.912,1.912v2a.622.622,0,0,1-.418.594,13.28,13.28,0,0,0-1.728.719.623.623,0,0,1-.719-.122L93.228,3.685a1.916,1.916,0,0,0-2.7,0l-2.7,2.7a1.912,1.912,0,0,0,0,2.7l2.09,2.093a.637.637,0,0,0,.9-.9L88.722,8.194a.637.637,0,0,1,0-.9l2.7-2.7a.637.637,0,0,1,.9,0l1.424,1.421a1.9,1.9,0,0,0,2.19.359A12.057,12.057,0,0,1,97.5,5.719a1.9,1.9,0,0,0,1.288-1.8v-2a.637.637,0,0,1,.637-.637h3.824a.637.637,0,0,1,.637.637v2a1.9,1.9,0,0,0,1.288,1.8,12.019,12.019,0,0,1,1.563.65,1.9,1.9,0,0,0,2.189-.36l1.424-1.42a.637.637,0,0,1,.9,0l2.7,2.705a.637.637,0,0,1,0,.9l-1.421,1.424a1.9,1.9,0,0,0-.359,2.19,12.057,12.057,0,0,1,.649,1.562,1.9,1.9,0,0,0,1.8,1.288h2a.637.637,0,0,1,.637.637v3.824a.637.637,0,0,1-.637.637h-2a1.9,1.9,0,0,0-1.8,1.288,12.009,12.009,0,0,1-.65,1.563,1.9,1.9,0,0,0,.36,2.189l1.421,1.424a.637.637,0,0,1,0,.9l-2.706,2.7a.637.637,0,0,1-.9,0l-2.094-2.09a.637.637,0,1,0-.915.887l.016.016,2.093,2.09a1.912,1.912,0,0,0,2.7,0l2.7-2.7a1.912,1.912,0,0,0,0-2.7L113.439,23.9a.625.625,0,0,1-.123-.719,13.241,13.241,0,0,0,.719-1.728.622.622,0,0,1,.594-.421h2a1.912,1.912,0,0,0,1.912-1.912V15.294A1.912,1.912,0,0,0,116.634,13.382Z" transform="translate(-87.261)" fill="#0088c4"/>
    </g>
  </g>
  <g id="Group_1296" data-name="Group 1296" transform="translate(14.993 8.925)">
    <g id="Group_1295" data-name="Group 1295">
      <path id="Path_490" data-name="Path 490" d="M200.113,114.472a8.293,8.293,0,0,0-11.715,0,.637.637,0,0,0,.9.9,7.01,7.01,0,1,1,9.98,9.847l-.066.066a.637.637,0,1,0,.885.917l.016-.016A8.293,8.293,0,0,0,200.113,114.472Z" transform="translate(-188.219 -112.049)" fill="#0088c4"/>
    </g>
  </g>
</svg>
