<svg xmlns="http://www.w3.org/2000/svg" width="454.578" height="345.022" viewBox="0 0 454.578 345.022"><g transform="translate(-198 -1052.646)"><path d="M269.122,380.883c2.5.575,5.286,1.115,8.33,1.673l.457-2.491c-3.028-.555-5.786-1.09-8.217-1.65l-.568,2.468Z" transform="translate(108.012 684.355)" fill="#ddc5ff"/><path d="M532.114,679.972a151.817,151.817,0,0,0,16.7,3.252l.345-2.509a149.332,149.332,0,0,1-16.424-3.2l-.624,2.454Zm-31.664-12.318A132.481,132.481,0,0,0,515.9,674.8l.915-2.361a130.091,130.091,0,0,1-15.155-7.011l-1.21,2.225Zm-27.423-20.04a127.957,127.957,0,0,0,13.041,10.935l1.494-2.045a125.61,125.61,0,0,1-12.783-10.719l-1.752,1.828Zm-21.38-26.365a144.987,144.987,0,0,0,9.877,13.834l1.97-1.592a142.154,142.154,0,0,1-9.7-13.592l-2.143,1.351Zm-15.034-30.395q3.147,8.24,6.763,15.562l2.273-1.118q-3.554-7.223-6.67-15.348l-2.365.9Zm-9.562-32.5q1.872,8.583,4.17,16.421l2.43-.711q-2.267-7.756-4.126-16.25Zm-5.311-33.393q.313,2.35.593,4.755.715,6.152,1.625,11.99l2.5-.389q-.9-5.789-1.612-11.894-.281-2.425-.6-4.8l-2.511.333ZM415.178,492.1q2.14,7.758,3.841,16.313l2.484-.491q-1.711-8.65-3.884-16.5ZM403.46,460.8a165.935,165.935,0,0,1,6.589,15.369l2.374-.883a168.52,168.52,0,0,0-6.689-15.6L403.46,460.8Zm-18.1-27.979a130.035,130.035,0,0,1,9.9,13.428l2.129-1.371a132.759,132.759,0,0,0-10.093-13.69l-1.937,1.632Zm-24.7-22.3a122.246,122.246,0,0,1,13.115,10.3l1.7-1.88a124.776,124.776,0,0,0-13.386-10.516Zm-29.706-15.169a147.5,147.5,0,0,1,15.326,6.688l1.146-2.258a149.847,149.847,0,0,0-15.589-6.8l-.883,2.373Zm-32.336-8.861c5.165,1.031,10.664,2.25,16.367,3.785l.658-2.445c-5.772-1.555-11.328-2.786-16.53-3.824l-.5,2.484Z" transform="translate(103.416 683.484)" fill="#ddc5ff"/><path d="M114.764,0A114.764,114.764,0,1,1,0,114.764,114.764,114.764,0,0,1,114.764,0Z" transform="translate(262.81 1101.019)" fill="#bfbfbf"/><circle cx="99.283" cy="99.283" r="99.283" transform="translate(278.29 1116.499)" fill="#eddeff"/><g transform="translate(367.039 1052.646)"><circle cx="11.548" cy="11.548" r="11.548" transform="translate(0 0)" fill="#bfbfbf"/><circle cx="7.845" cy="7.845" r="7.845" transform="translate(3.704 3.704)" fill="#fff"/><rect width="12.445" height="28.001" transform="translate(17.63 49.542) rotate(180)" fill="#bfbfbf"/></g><rect width="202.026" height="168.016" transform="translate(199.744 1127.307)" fill="#f4f2f7"/><g transform="translate(214.574 1142.575)"><circle cx="17.083" cy="17.083" r="17.083" fill="#007cff"/><circle cx="14.869" cy="14.869" r="14.869" transform="translate(2.215 2.215)" fill="#fff" opacity="0.9"/><circle cx="10.398" cy="10.398" r="10.398" transform="translate(6.686 6.686)" fill="none" stroke="#007cff" stroke-miterlimit="10" stroke-width="3"/><path d="M92.5,488.888a4.819,4.819,0,1,0,6.816,0A4.819,4.819,0,0,0,92.5,488.888Z" transform="translate(-78.82 -475.213)" fill="none" stroke="#007cff" stroke-miterlimit="10" stroke-width="3"/><path d="M95.591,491.983a1.348,1.348,0,1,0,1.907,0A1.348,1.348,0,0,0,95.591,491.983Z" transform="translate(-79.461 -475.853)" fill="#007cff"/></g><g transform="translate(240.39 1141.74)"><path d="M112.269,476.014l-1.25-4.054-3.883,3.883,1.223,4.08,4.08,1.223,3.883-3.883Z" transform="translate(-107.137 -471.96)" fill="#ba59ff"/><path d="M112.269,476.014l-1.25-4.054-3.883,3.883,1.223,4.08,4.08,1.223,3.883-3.883Z" transform="translate(-107.137 -471.96)" fill="#ba59ff" opacity="0.2"/></g><g transform="translate(298.29 1146.332)"><path d="M175.727,477.4s4.576.629,5.085,1.036.508,1.892.508,1.892h2.543s-1.119,2.887-2.746,2.684l-.3-1.018h-5.085Z" transform="translate(-175.725 -477.4)" fill="#ba59ff"/><path d="M183.86,480.33s-1.119,2.884-2.745,2.684l-.3-1.018h-5.09v-4.6s4.581.632,5.09,1.033.508,1.9.508,1.9Z" transform="translate(-175.725 -477.4)" fill="#ba59ff" opacity="0.9"/><path d="M182.941,480.521a9.111,9.111,0,0,1-.886,2.684l-.3-1.018a6.33,6.33,0,0,0,0-3.562c.508.409.508,1.9.508,1.9Z" transform="translate(-176.664 -477.591)" fill="#ba59ff" opacity="0.2" style="isolation:isolate"/></g><rect width="10.83" height="12.264" transform="translate(300.029 1164.478)" fill="#007cff"/><rect width="10.83" height="12.264" transform="translate(300.029 1164.478)" opacity="0.2" style="isolation:isolate"/><rect width="10.83" height="17.083" transform="translate(290.225 1159.658)" fill="#007cff"/><rect width="10.83" height="17.083" transform="translate(290.225 1159.658)" opacity="0.2" style="isolation:isolate"/><rect width="9.287" height="8.832" transform="translate(280.421 1167.909)" fill="#007cff"/><rect width="9.287" height="8.832" transform="translate(280.421 1167.909)" opacity="0.2" style="isolation:isolate"/><rect width="9.287" height="8.832" transform="translate(284.276 1167.909)" fill="#007cff"/><rect width="10.83" height="17.083" transform="translate(294.08 1159.658)" fill="#007cff"/><rect width="9.287" height="12.264" transform="translate(305.427 1164.478)" fill="#007cff"/><g transform="translate(296.282 1162.113)"><path d="M180.043,499.442a3.348,3.348,0,1,1-3.348-3.348A3.348,3.348,0,0,1,180.043,499.442Z" transform="translate(-173.347 -496.094)" fill="#fff" opacity="0.9"/><g transform="translate(2.471 1.72)"><path d="M177.523,498.132v3.4h-.481v-2.979h-.768v-.422Z" transform="translate(-176.274 -498.132)" fill="#1a2e35"/></g></g><rect width="10.83" height="17.083" transform="translate(294.08 1159.658)" fill="#fff" opacity="0.3" style="isolation:isolate"/><rect width="3.864" height="6.132" transform="translate(347.909 1170.609)" fill="#007cff"/><rect width="3.864" height="8.445" transform="translate(354.519 1168.296)" fill="#007cff"/><rect width="3.864" height="11.53" transform="translate(361.128 1165.212)" fill="#007cff"/><rect width="3.864" height="16.156" transform="translate(367.737 1160.585)" fill="#007cff"/><rect width="3.864" height="23.868" transform="translate(374.348 1152.874)" fill="#fff" opacity="0.9"/><g transform="translate(230.973 1144.361)"><path d="M97.351,491.075l14.458-14.457-1.369-1.369L95.982,489.706" transform="translate(-95.982 -475.094)" fill="#ba77ff"/><path d="M176.517,492.972V476.06h-1.936v16.912" transform="translate(-108.229 -475.22)" fill="#ba77ff"/><path d="M234.645,498.89a40.493,40.493,0,0,0,10.967-4.219,42.9,42.9,0,0,0,18.1-18.749l-1.735-.857a40.968,40.968,0,0,1-17.291,17.908,43.265,43.265,0,0,1-7.393,3.2c-.94.3-1.7.509-2.216.636-.258.063-.458.108-.59.136l-.147.03-.041.008.35,1.9Z" transform="translate(-117.534 -475.065)" fill="#ba77ff"/></g><path d="M268.264,473.673l-3.876,2.368,4.629,2.111Z" transform="translate(108.75 669.513)" fill="#ba59ff"/><g transform="translate(222.815 1181.194)" opacity="0.2" style="isolation:isolate"><path d="M244.395,547.382c-3.253-3.593-10.625-4.55-14.56-2.948a12.245,12.245,0,0,0-1.671.826c-1.552-6.331-.954-14.167-.5-20.117.192-2.511.358-4.68.358-6.446h-2.917c0,1.655-.161,3.772-.349,6.224-.5,6.59-1.172,15.338.94,22.383a9.285,9.285,0,0,0-1.612,2.685c-1.83,4.649.074,10.038,1.372,12.837,2.883,6.215,4.014,11.651,3.356,15.979a13.683,13.683,0,0,0-7.242-6.4,14.819,14.819,0,0,0-13.276,1.087c-3.5,2.277-4.525,7.232-2.491,12.052,1.718,4.074,6.037,8.308,12.539,6.844a18.978,18.978,0,0,0,8.644-4.219,14.829,14.829,0,0,1-2.663,5.237c-2.36,3.032-8.078,8.118-19.848,8.118-12.128,0-15.58-4.955-18.92-9.748a25.037,25.037,0,0,0-5.058-5.845c-3.58-2.751-9-3-13.813-.632a16.006,16.006,0,0,0-3.892,2.69,15.315,15.315,0,0,1,2-2.947c.662-.764,1.372-1.513,2.123-2.305,3.216-3.391,6.861-7.235,6.515-12.761a11.061,11.061,0,0,0-8.419-10.264c-3.175-.742-6.766-.327-10.24.073-1.22.142-2.408.279-3.555.371v-.005l-.178.017c-4.825.369-8.9-.1-11.439-4.556-3.476-6.088-.433-10.585,1.691-12.723a18.592,18.592,0,0,1,8.026-4.527,11.62,11.62,0,0,0-3.012,6.684,10.453,10.453,0,0,0,4.23,9.587,11.889,11.889,0,0,0,14.732-.806,10.454,10.454,0,0,0,3.279-5.633c.8-4.057-1.422-8.63-5.317-11.111,3.833-.163,7.933-.689,10.9-4.318a4.724,4.724,0,0,0,.807-4.114,6.665,6.665,0,0,0-3.391-4.483,25.051,25.051,0,0,0-2.838-1.069c-3.393-1.129-5.453-1.988-5.453-4.395h-2.917c0,4.684,4.305,6.116,7.449,7.162a23.082,23.082,0,0,1,2.5.935,3.763,3.763,0,0,1,1.8,2.488,1.936,1.936,0,0,1-.218,1.629c-2.508,3.065-6.067,3.174-10.188,3.3a32.437,32.437,0,0,0-5.974.554,21.806,21.806,0,0,0-16.492,6.063c-4.607,4.64-5.392,10.553-2.154,16.224a11.455,11.455,0,0,0,4.391,4.478c-6.338,1.487-13.114,4.723-16.059,12.574a47.35,47.35,0,0,0-1.508,5.343c-.987,4.065-2.105,8.672-5.085,13.381-4.25,6.718-15.067,9.8-22.688,6.463-6.973-3.052-7.741-10.925-6.281-16.741.175-.694.382-1.394.622-2.09a16.654,16.654,0,0,0,14.381,7.375,10.323,10.323,0,0,0,7.74-17.257c-2.8-3.6-7.185-5.527-11.16-4.912-4.61.714-8.345,3.981-10.95,8.081a20.95,20.95,0,0,1-.839-7.436c.29-4.1,3.139-7.446,5.893-10.678.878-1.03,1.785-2.1,2.6-3.172,2.267-3,3.158-5.97,2.646-8.827-.614-3.427-3.142-6.521-7.732-9.457-2.008-1.285-2.867-2.37-2.961-3.743-.133-1.936,1.239-3.325,2.829-4.935,1.742-1.764,3.715-3.763,3.715-6.8H93.7c0,1.844-1.332,3.192-2.874,4.754-1.822,1.845-3.886,3.936-3.663,7.183.207,3.013,2.406,4.79,4.3,6,3.813,2.44,5.978,4.969,6.434,7.515.367,2.052-.321,4.2-2.1,6.554-.761,1.008-1.6,1.994-2.492,3.039-3.06,3.591-6.224,7.3-6.581,12.364a23.852,23.852,0,0,0,1.905,11.074,28.209,28.209,0,0,0-1.62,4.66c-1.875,7.466-.148,16.583,7.94,20.122a20.113,20.113,0,0,0,8.059,1.611c7.218,0,14.628-3.443,18.262-9.186,3.236-5.112,4.466-10.18,5.454-14.252a45.634,45.634,0,0,1,1.4-5.007c3.84-10.24,15.557-11.342,22.558-12l.81-.077h0c1.215-.095,2.427-.234,3.609-.371,3.373-.39,6.56-.759,9.241-.131a8.064,8.064,0,0,1,6.174,7.607c.265,4.258-2.642,7.325-5.721,10.571-.741.783-1.508,1.59-2.213,2.405-4.3,4.969-4.9,10.763-4.743,16.608v.022a85.954,85.954,0,0,0,.445,9.105c.014.517.041,1.039.041,1.547h2.916c0-.485-.025-.977-.038-1.466l.025,0c0-.006-.014-.111-.033-.288-.046-1.486-.122-2.974-.212-4.431-.095-1.518-.184-3.015-.227-4.488a12.882,12.882,0,0,1,7.212-11.826c3.822-1.882,8.041-1.753,10.747.328a22.489,22.489,0,0,1,4.444,5.2c3.592,5.154,7.662,11,21.312,11,13.011,0,19.463-5.79,22.15-9.243a16.308,16.308,0,0,0,3.647-11.343l.022-.044c2.77-5.627,2.032-13.1-2.191-22.2-1.875-4.043-2.35-7.885-1.3-10.542.057-.144.118-.286.184-.424a14.958,14.958,0,0,0,5.409,6.234,10.855,10.855,0,0,0,8.3,1.505,6.792,6.792,0,0,0,4.385-3.46C246.53,552.149,246.29,549.475,244.395,547.382Zm-90.264-9.031a9.839,9.839,0,0,1,1.857-.656,13.213,13.213,0,0,1,5.242,1.582c2.726,1.531,5.131,4.89,4.452,8.348a7.534,7.534,0,0,1-2.379,4.038,9.015,9.015,0,0,1-11.02.63,7.6,7.6,0,0,1-3.079-6.964A8.746,8.746,0,0,1,154.13,538.351Zm-52.264,30.2c2.949-.458,6.25,1.045,8.415,3.822a8.037,8.037,0,0,1,1.462,8.059c-1.307,3.086-4.51,4.347-7.072,4.5-5.122.28-10.185-2.8-12.816-7.76C94.051,572.855,97.5,569.223,101.866,568.548ZM217.7,589.538c-4.742,1.067-7.869-1.95-9.211-5.133-1.245-2.95-1.165-6.808,1.395-8.472a11.022,11.022,0,0,1,6-1.693,12.7,12.7,0,0,1,4.619.875,10.486,10.486,0,0,1,6.576,7.292q.109.432.181.873C224.969,587.166,220.849,588.828,217.7,589.538Zm24.792-35.988a3.893,3.893,0,0,1-2.552,2,8.093,8.093,0,0,1-5.984-1.146,12.72,12.72,0,0,1-4.88-6.257,8.818,8.818,0,0,1,1.857-1.016c2.968-1.207,8.98-.355,11.3,2.205C243.3,550.522,243.386,551.86,242.493,553.551Z" transform="translate(-86.319 -518.697)"/></g><rect width="31.287" height="13.428" rx="1.727" transform="translate(281.353 1272.019)" fill="#007cff"/><g transform="translate(288.428 1276.789)"><path d="M164.043,635.345l.2-.423a1.958,1.958,0,0,0,1.254.441c.658,0,.94-.256.94-.587,0-.929-2.3-.342-2.3-1.753,0-.587.457-1.086,1.455-1.086a2.238,2.238,0,0,1,1.222.337l-.179.434a1.97,1.97,0,0,0-1.043-.309c-.646,0-.923.271-.923.6,0,.929,2.3.347,2.3,1.742,0,.582-.467,1.081-1.471,1.081A2.252,2.252,0,0,1,164.043,635.345Z" transform="translate(-164.043 -631.936)" fill="#fff"/><path d="M169.041,632.46h-1.3v-.472h3.144v.472h-1.3v3.328h-.537Z" transform="translate(-164.619 -631.944)" fill="#fff"/><path d="M174.256,634.838h-2.019l-.418.95h-.559l1.72-3.8h.538l1.726,3.8h-.57Zm-.19-.434-.82-1.862-.82,1.862Z" transform="translate(-165.168 -631.944)" fill="#fff"/><path d="M179.194,635.788l-.82-1.168c-.076.006-.158.012-.24.012H177.2v1.156h-.543v-3.8h1.482c.989,0,1.585.5,1.585,1.325a1.2,1.2,0,0,1-.836,1.2l.9,1.276Zm-.017-2.475c0-.544-.364-.853-1.059-.853H177.2v1.71h.923C178.813,634.17,179.177,633.855,179.177,633.312Z" transform="translate(-166.008 -631.944)" fill="#fff"/><path d="M181.922,632.46h-1.3v-.472h3.143v.472h-1.3v3.328h-.538Z" transform="translate(-166.626 -631.944)" fill="#fff"/></g><rect width="205.514" height="7.957" rx="1.339" transform="translate(198 1122.449)" fill="#1a2e35"/><rect width="205.516" height="7.961" rx="1.543" transform="translate(198.001 1122.445)" fill="#ba59ff"/><path d="M262.979,450.407v3.743H61.682a1.3,1.3,0,0,1-1.3-1.3V449.1h201.3A1.3,1.3,0,0,1,262.979,450.407Z" transform="translate(140.538 673.342)" fill="#ba77ff"/><rect width="9.287" height="12.264" transform="translate(305.427 1164.478)" fill="#fff" opacity="0.1" style="isolation:isolate"/><g transform="translate(376.042 1132.383)"><g transform="translate(0 0)"><circle cx="21.743" cy="21.743" r="21.743" transform="translate(0 9.991) rotate(-13.283)" fill="#007cff"/></g><g transform="translate(34.089 46.306)"><path d="M308.209,520.83a5.1,5.1,0,1,0,5.1-5.1A5.1,5.1,0,0,0,308.209,520.83Z" transform="translate(-308.209 -515.729)" fill="#007cff"/></g><g transform="translate(42.095 55.418)"><path d="M317.693,529.249a2.726,2.726,0,1,0,2.726-2.726A2.726,2.726,0,0,0,317.693,529.249Z" transform="translate(-317.693 -526.523)" fill="#007cff"/></g><g transform="translate(48.085 59.063)"><path d="M324.789,532.581a1.74,1.74,0,1,0,1.741-1.741A1.74,1.74,0,0,0,324.789,532.581Z" transform="translate(-324.789 -530.84)" fill="#007cff"/></g><g transform="translate(19.815 14.529)"><path d="M295.572,496.015c-.1-1.467-.1-1.6-.1-1.727,0-4.075,4.075-6.455,4.075-9.976,0-2.086-1.434-3.031-3.292-3.031a4.906,4.906,0,0,0-4.042,2.119l-.913-3a6.15,6.15,0,0,1,5.216-2.315,6.486,6.486,0,0,1,6.846,6.194c0,3.944-5.052,6.618-5.052,11.311v.424Zm-.652,6.52v-4.042h4.041v4.042Z" transform="translate(-291.301 -478.086)" fill="#fff" opacity="0.6" style="isolation:isolate"/></g></g><path d="M374.052,764.176s-.557,8.68-2.237,8.8c-.223.016-8.518,0-8.518,0l-10.588-.084a3.436,3.436,0,0,1,3.171-3.084c3.1-.533,8.281-2.7,10.166-6.783C368.027,758.725,374.052,764.176,374.052,764.176Z" transform="translate(94.987 624.685)" fill="#ba59ff"/><path d="M324.608,764.461s-1.616,8.546-3.3,8.46c-.223-.011-8.5,0-8.5,0H302.694a3.362,3.362,0,0,1,3.19-3.356c3.138-.149,8.549-3.405,10.919-7.23C319.3,758.312,324.608,764.461,324.608,764.461Z" transform="translate(102.78 624.747)" fill="#ba59ff"/><path d="M336.4,651.655s2.731,17.717,12.993,49.179,11.64,45.08,11.64,45.08l11.083-.286s.169-34.361-4.558-50.181-.9-57-.9-57Z" transform="translate(97.528 643.838)" fill="#474747"/><path d="M329.176,635.013s-15.088,30.469-18.926,54.59,5.373,53.893,5.373,53.893a45.253,45.253,0,0,0,10.656,1.965s-.476-42.724.772-51.445,36.285-43.591,33.549-52.2S329.176,635.013,329.176,635.013Z" transform="translate(101.749 644.397)" fill="#474747"/><path d="M358.738,565.417s15.582,14.959,16.328,21.118-7.56,15.773-7.56,15.773Z" transform="translate(94.048 655.218)" fill="#ba59ff"/><path d="M352.91,563.14l-5.9,3.85-8.513-1.606c.119-.687.688-3.535,1.206-6.115.031-.152.062-.3.091-.452.444-2.2.826-4.081.826-4.081l7.961-3.492,2.969-1.3c-.008.046-.236,2.436-.267,2.785A20.284,20.284,0,0,0,352.91,563.14Z" transform="translate(97.202 657.629)" fill="#fbd4cf"/><path d="M340.46,562.738c.166-.069,10.263-3.025,11.358-2.661s1.74,2.487,1.74,2.487l-16.512,3.7A8.2,8.2,0,0,1,340.46,562.738Z" transform="translate(97.428 656.055)" fill="#ba59ff"/><path d="M366.042,630.947c-1.727,7.8-30.194,8.662-37.515,1.563-.832-.809-.865-4.565-.54-9.628.637-9.893,2.647-24.772,2.74-32.375a60.2,60.2,0,0,1,1.238-10.836,87.976,87.976,0,0,1,3.638-12.965s13.912-4.464,16.512-3.694C364.641,566.722,367.77,623.149,366.042,630.947Z" transform="translate(98.869 655.606)" fill="#ba77ff"/><path d="M328.022,625.705c.637-9.893.982-26.228,1.075-33.831.046-3.672,2.224-5.971,2.9-9.38l8.366-1.458S348.471,614.453,328.022,625.705Z" transform="translate(98.834 652.784)" fill="#ba59ff"/><path d="M350.908,553.075c-1.753,2.955-8.267,5.5-10.984,6.434.031-.152.062-.3.091-.453.444-2.2.826-4.081.826-4.081l7.961-3.492C350.562,551.464,351.631,551.86,350.908,553.075Z" transform="translate(96.979 657.389)" fill="#f1bcae"/><path d="M337.619,550.918s12.084,5.839,15.606-1.742,7.451-11.935-.116-15.984-10.421-1.856-12.211.388S334.567,549.2,337.619,550.918Z" transform="translate(97.499 660.591)" fill="#fbd4cf"/><path d="M342.278,532.089s-.565,9.348,1.4,9.232,3.743-.156,3.049,2.584-3.817,5.558,1.991,6.926,16.52-12.543,15.332-15.655C360.623,526.2,337.044,520.978,342.278,532.089Z" transform="translate(96.73 661.393)" fill="#1631a2"/><path d="M327.425,626.343a7.248,7.248,0,0,0-2.414,3.086c-.68,2.6-.247,5.035,2.305,6.012.942.361,1.07-1.874,1.768-2.834s3.186-1.492,2.616-2.954-1.682-4.32-1.682-4.32Z" transform="translate(99.348 645.882)" fill="#fbd4cf"/><path d="M331.7,627.551a8.024,8.024,0,0,1,1.742,2.852c.162,1.118.227,2.845.264,3.581s-.334,1.346-1.016.146-1.268-2.8-1.732-2.794S331.7,627.551,331.7,627.551Z" transform="translate(98.394 645.536)" fill="#fbd4cf"/><path d="M339.832,565.068s-9.909,1.752-17.554,12.967S311.8,596.421,313.2,600.472s8.359,16.61,9.765,18.309c1.2,1.455,4.691,1.351,6.973.367,0,0-4.422-18.686-2.643-20.7.761-.863,10.567-9.145,12.12-5.13C341.981,599.956,339.832,565.068,339.832,565.068Z" transform="translate(101.198 655.272)" fill="#ba77ff"/></g></svg>