<svg xmlns="http://www.w3.org/2000/svg" width="1524.721" height="429.388" viewBox="0 0 1524.721 429.388"><g transform="translate(-198 -984.484)"><g transform="translate(377.134 1061.775)"><path d="M657.373,738.132c.033-.008,3.075-.74,8.186-2.487l-.819-2.4c-2.512.858-4.51,1.465-5.876,1.856-.683.2-1.208.338-1.56.431l-.4.1-.126.031.592,2.462Z" transform="translate(-329.526 -432.709)" fill="#ddc5ff"/><path d="M1490.28,384.75a149.012,149.012,0,0,1,16.5-3.261l-.351-2.508a151.437,151.437,0,0,0-16.786,3.317Zm-31.2,12.282a129.88,129.88,0,0,1,15.206-7.119l-.925-2.358a132.441,132.441,0,0,0-15.5,7.258l1.221,2.219Zm-26.913,19.909a125.777,125.777,0,0,1,12.787-10.857l-1.506-2.036a128.389,128.389,0,0,0-13.044,11.076l1.764,1.818Zm-20.931,26.171a143.038,143.038,0,0,1,9.666-13.733l-1.981-1.578a145.46,145.46,0,0,0-9.836,13.975l2.15,1.336Zm-14.7,30.212q3.075-8.2,6.609-15.476l-2.279-1.1q-3.577,7.393-6.7,15.69l2.371.889Zm-9.32,32.365q1.818-8.559,4.059-16.364l-2.434-.7q-2.262,7.9-4.1,16.533Zm-5.2,33.4q.435-3.135.81-6.368.622-5.337,1.389-10.432l-2.5-.377q-.772,5.139-1.4,10.516-.372,3.206-.8,6.313Zm-6.893,33.328q2.243-7.869,4.029-16.548l-2.481-.508q-1.761,8.6-3.984,16.362l2.436.694ZM1362.858,604.2a165.571,165.571,0,0,0,6.9-15.6l-2.365-.907a163.325,163.325,0,0,1-6.793,15.364Zm-18.943,28.364a131.408,131.408,0,0,0,10.358-13.6l-2.109-1.4a128.932,128.932,0,0,1-10.158,13.338Zm-25.737,22.43a125.339,125.339,0,0,0,13.643-10.33l-1.663-1.909a122.921,122.921,0,0,1-13.368,10.122Zm-30.668,15.025a153.279,153.279,0,0,0,15.78-6.591l-1.108-2.277a151,151,0,0,1-15.52,6.481l.848,2.386Zm-33.01,8.639c5.206-1,10.808-2.182,16.658-3.683l-.63-2.453c-5.783,1.484-11.332,2.654-16.507,3.649l.478,2.487Zm-33.774,5.19q.745.015,1.468.015a45.489,45.489,0,0,0,10.079-.994c1.686-.389,3.53-.766,5.51-1.145l-.475-2.487c-2,.382-3.873.765-5.6,1.164a43.052,43.052,0,0,1-9.51.93q-.7,0-1.413-.016l-.054,2.533ZM1187.1,677.43a146.126,146.126,0,0,0,16.553,4.387l.5-2.483a143.777,143.777,0,0,1-16.265-4.312l-.786,2.408Zm-31.252-13.777c5.1,2.866,10.221,5.413,15.286,7.65l1.023-2.317c-4.992-2.205-10.042-4.716-15.069-7.54l-1.24,2.208Zm-27.966-19.59a164.909,164.909,0,0,0,13.49,10.5l1.451-2.076a162.433,162.433,0,0,1-13.284-10.339Zm-23.136-25.114a143.354,143.354,0,0,0,10.845,13.226l1.86-1.718a141.313,141.313,0,0,1-10.654-12.993l-2.051,1.485Zm-16.375-29.958a132.3,132.3,0,0,0,7.228,15.5l2.222-1.216a129.665,129.665,0,0,1-7.089-15.206l-2.359.919Zm-8.245-33.11a139.1,139.1,0,0,0,3.078,16.811l2.458-.609a136.554,136.554,0,0,1-3.021-16.505l-2.515.3Zm-.939-33.985q.053,2.2.054,4.451,0,3.056-.1,6.193-.086,2.647-.085,5.246c0,.351,0,.7,0,1.052l2.533-.017q0-.517,0-1.035,0-2.557.085-5.164.1-3.177.1-6.275,0-2.277-.054-4.512l-2.532.062Zm-4.222-33.289a150.2,150.2,0,0,1,2.991,16.524l2.514-.313a152.67,152.67,0,0,0-3.043-16.8l-2.462.592Zm-11.778-31.347a129.727,129.727,0,0,1,6.877,15.3l2.372-.887a132.21,132.21,0,0,0-7.012-15.6l-2.237,1.186Zm-19.421-27.276a130.072,130.072,0,0,1,10.605,13.006l2.062-1.47a132.356,132.356,0,0,0-10.812-13.26l-1.856,1.723Zm-25.635-21.646A147.079,147.079,0,0,1,1031.6,418.4l1.631-1.937a149.65,149.65,0,0,0-13.7-10.241l-1.4,2.11ZM988.314,392.8c5.106,2.037,10.235,4.365,15.315,7.006l1.168-2.247c-5.159-2.681-10.365-5.044-15.546-7.111Zm-32.327-9.369a168.265,168.265,0,0,1,16.392,3.893l.707-2.432a170.792,170.792,0,0,0-16.641-3.951l-.458,2.49ZM922.5,381.484c3.358-.263,6.588-.389,9.66-.389q1.368,0,2.694.033,2.154.053,4.433.2l.16-2.527q-2.325-.148-4.531-.2-1.357-.034-2.756-.034c-3.14,0-6.436.128-9.858.4l.2,2.525Zm-32.976,6.466a156.065,156.065,0,0,1,16.312-4.153l-.491-2.484a158.762,158.762,0,0,0-16.576,4.219l.756,2.418Zm-30.8,13.428a151.987,151.987,0,0,1,15.03-7.552l-1.01-2.322a154.461,154.461,0,0,0-15.281,7.679l1.261,2.2Zm-26.967,19.965a141.008,141.008,0,0,1,12.894-10.771l-1.505-2.036A143.547,143.547,0,0,0,830.025,419.5l1.737,1.844ZM810.3,447.1a140.83,140.83,0,0,1,9.952-13.526l-1.946-1.62a143.169,143.169,0,0,0-10.131,13.769L810.3,447.1Zm-14.935,30.042A156.819,156.819,0,0,1,802,461.7l-2.269-1.124a159.486,159.486,0,0,0-6.742,15.689l2.377.875Zm-8.527,32.511q1.444-8.579,3.508-16.461l-2.451-.638q-2.083,8-3.555,16.679l2.5.42ZM783.295,543.3q.608-5.2.945-10.641.2-3.189.471-6.292l-2.523-.224q-.277,3.14-.476,6.361-.329,5.374-.933,10.5l2.515.294Zm-7.225,33.335a165.033,165.033,0,0,0,4.444-16.492l-2.476-.533a162.658,162.658,0,0,1-4.375,16.239l2.408.786Zm-14.083,31.087a151.852,151.852,0,0,0,7.907-15.154l-2.306-1.044a149.243,149.243,0,0,1-7.777,14.9l2.176,1.3Zm-20.635,27.2a156.849,156.849,0,0,0,11.072-13.025l-2.017-1.531a154.139,154.139,0,0,1-10.893,12.814l1.838,1.742Zm-25.909,22.23c4.481-3.133,9.018-6.609,13.514-10.459l-1.647-1.924c-4.429,3.793-8.9,7.219-13.319,10.307l1.451,2.076Zm-29.664,16.9c4.673-2.127,9.813-4.7,15.217-7.774l-1.252-2.2c-5.333,3.035-10.4,5.572-15.015,7.669l1.05,2.305Z" transform="translate(-333.881 -377.443)" fill="#ddc5ff"/><path d="M1679.028,379.832q2.3-.065,4.481-.063,2,0,3.89.048l.064-2.532q-1.918-.048-3.954-.049-2.211,0-4.552.065l.072,2.531Z" transform="translate(-488.8 -377.236)" fill="#ddc5ff"/><path d="M269.122,380.883c2.5.575,5.286,1.115,8.33,1.673l.457-2.491c-3.028-.555-5.786-1.09-8.217-1.65l-.568,2.468Z" transform="translate(-269.122 -377.42)" fill="#ddc5ff"/><path d="M532.114,679.972a151.817,151.817,0,0,0,16.7,3.252l.345-2.509a149.332,149.332,0,0,1-16.424-3.2l-.624,2.454Zm-31.664-12.318A132.481,132.481,0,0,0,515.9,674.8l.915-2.361a130.091,130.091,0,0,1-15.155-7.011l-1.21,2.225Zm-27.423-20.04a127.957,127.957,0,0,0,13.041,10.935l1.494-2.045a125.61,125.61,0,0,1-12.783-10.719l-1.752,1.828Zm-21.38-26.365a144.987,144.987,0,0,0,9.877,13.834l1.97-1.592a142.154,142.154,0,0,1-9.7-13.592l-2.143,1.351Zm-15.034-30.395q3.147,8.24,6.763,15.562l2.273-1.118q-3.554-7.223-6.67-15.348l-2.365.9Zm-9.562-32.5q1.872,8.583,4.17,16.421l2.43-.711q-2.267-7.756-4.126-16.25Zm-5.311-33.393q.313,2.35.593,4.755.715,6.152,1.625,11.99l2.5-.389q-.9-5.789-1.612-11.894-.281-2.425-.6-4.8l-2.511.333ZM415.178,492.1q2.14,7.758,3.841,16.313l2.484-.491q-1.711-8.65-3.884-16.5ZM403.46,460.8a165.935,165.935,0,0,1,6.589,15.369l2.374-.883a168.52,168.52,0,0,0-6.689-15.6L403.46,460.8Zm-18.1-27.979a130.035,130.035,0,0,1,9.9,13.428l2.129-1.371a132.759,132.759,0,0,0-10.093-13.69l-1.937,1.632Zm-24.7-22.3a122.246,122.246,0,0,1,13.115,10.3l1.7-1.88a124.776,124.776,0,0,0-13.386-10.516Zm-29.706-15.169a147.5,147.5,0,0,1,15.326,6.688l1.146-2.258a149.847,149.847,0,0,0-15.589-6.8l-.883,2.373Zm-32.336-8.861c5.165,1.031,10.664,2.25,16.367,3.785l.658-2.445c-5.772-1.555-11.328-2.786-16.53-3.824l-.5,2.484Z" transform="translate(-273.718 -378.291)" fill="#ddc5ff"/><path d="M615.415,739.671q2.346.067,4.564.065,2.031,0,3.943-.049l-.063-2.532q-1.88.047-3.879.048-2.18,0-4.492-.064l-.072,2.532Z" transform="translate(-323.081 -433.316)" fill="#ddc5ff"/></g><circle cx="114.764" cy="114.764" r="114.764" transform="translate(862.363 1101.019)" fill="#ba77ff"/><circle cx="99.283" cy="99.283" r="99.283" transform="translate(877.845 1116.499)" fill="#eddeff"/><g transform="translate(966.594 1052.646)"><circle cx="11.548" cy="11.548" r="11.548" transform="translate(0 0)" fill="#ba77ff"/><circle cx="7.845" cy="7.845" r="7.845" transform="translate(3.704 3.704)" fill="#fff"/><rect width="12.445" height="28.001" transform="translate(17.63 49.542) rotate(180)" fill="#ba77ff"/></g><circle cx="114.764" cy="114.764" r="114.764" transform="translate(1459.985 1099.914)" fill="#ba77ff"/><circle cx="99.283" cy="99.283" r="99.283" transform="translate(1475.467 1115.396)" fill="#eddeff"/><g transform="translate(1564.216 1051.542)"><circle cx="11.548" cy="11.548" r="11.548" transform="translate(0 0)" fill="#ba77ff"/><circle cx="7.845" cy="7.845" r="7.845" transform="translate(3.703 3.704)" fill="#fff"/><rect width="12.445" height="28.001" transform="translate(17.63 49.542) rotate(180)" fill="#ba77ff"/></g><circle cx="114.764" cy="114.764" r="114.764" transform="translate(562.586 1101.102)" fill="#ba77ff"/><circle cx="99.283" cy="99.283" r="99.283" transform="translate(578.067 1116.582)" fill="#eddeff"/><g transform="translate(664.786 1329.458)"><circle cx="11.548" cy="11.548" r="11.548" transform="translate(0 26.445)" fill="#ba77ff"/><circle cx="7.845" cy="7.845" r="7.845" transform="translate(3.704 30.149)" fill="#fff"/><rect width="12.445" height="28.001" transform="translate(5.467 0)" fill="#ba77ff"/></g><path d="M114.764,0A114.764,114.764,0,1,1,0,114.764,114.764,114.764,0,0,1,114.764,0Z" transform="translate(262.81 1101.019)" fill="#bfbfbf"/><circle cx="99.283" cy="99.283" r="99.283" transform="translate(278.29 1116.499)" fill="#eddeff"/><g transform="translate(367.039 1052.646)"><circle cx="11.548" cy="11.548" r="11.548" transform="translate(0 0)" fill="#bfbfbf"/><circle cx="7.845" cy="7.845" r="7.845" transform="translate(3.704 3.704)" fill="#fff"/><rect width="12.445" height="28.001" transform="translate(17.63 49.542) rotate(180)" fill="#bfbfbf"/></g><circle cx="114.764" cy="114.764" r="114.764" transform="translate(1161.492 1099.616)" fill="#ba77ff"/><circle cx="99.283" cy="99.283" r="99.283" transform="translate(1176.973 1115.097)" fill="#eddeff"/><g transform="translate(1263.692 1327.973)"><circle cx="11.548" cy="11.548" r="11.548" transform="translate(0 26.445)" fill="#ba77ff"/><circle cx="7.845" cy="7.845" r="7.845" transform="translate(3.704 30.149)" fill="#fff"/><rect width="12.445" height="28.001" transform="translate(5.467)" fill="#ba77ff"/></g><rect width="108.252" height="116.778" rx="3.78" transform="translate(950.695 1292.742)" fill="#f2f3eb"/><rect width="46.339" height="14.19" rx="3.78" transform="translate(955.984 1297.151)" fill="#ba77ff"/><rect width="46.339" height="14.19" rx="3.78" transform="translate(1007.423 1297.151)" fill="#ba77ff"/><rect width="97.778" height="22.087" rx="3.78" transform="translate(955.984 1317.326)" fill="#ba59ff"/><circle cx="2.661" cy="2.661" r="2.661" transform="translate(1002.324 1326.195)" fill="#eddeff"/><rect width="97.778" height="22.087" rx="3.78" transform="translate(955.984 1348.854)" fill="#ba59ff"/><circle cx="2.661" cy="2.661" r="2.661" transform="translate(1002.324 1357.723)" fill="#eddeff"/><rect width="97.778" height="22.087" rx="3.78" transform="translate(955.984 1380.381)" fill="#ba59ff"/><circle cx="2.661" cy="2.661" r="2.661" transform="translate(1002.324 1389.25)" fill="#eddeff"/><g transform="translate(927.7 1131.688)"><g transform="translate(0 67.975)"><path d="M972.463,566.656a15.351,15.351,0,0,0-1.894-.654l-.265.931c.565.161,1.01.315,1.312.427.151.056.266.1.342.133l.085.035.024.011.4-.884Z" transform="translate(-928.945 -544.537)" fill="#ba77ff"/><path d="M966.364,549.8a19.637,19.637,0,0,0,2.709-2.8l-.76-.6a18.7,18.7,0,0,1-2.576,2.666l.627.737Zm-6.7,3.887a23.348,23.348,0,0,0,3.519-1.65l-.484-.839a22.26,22.26,0,0,1-3.373,1.581l.337.908Zm-7.586,1.535a25.668,25.668,0,0,0,3.851-.475l-.192-.949a24.73,24.73,0,0,1-3.706.458Zm-7.631-.558a15.841,15.841,0,0,1,1.942.208q.907.156,1.812.247l.1-.963q-.871-.087-1.745-.237a16.887,16.887,0,0,0-2.061-.221l-.046.967Zm-7.365.972a25.789,25.789,0,0,1,3.654-.788l-.133-.959a26.74,26.74,0,0,0-3.791.818l.27.929Zm-6.858,2.987a29.692,29.692,0,0,1,3.334-1.709l-.387-.887a30.5,30.5,0,0,0-3.443,1.766l.5.832Zm-5.71,4.737a18.629,18.629,0,0,1,2.643-2.6l-.612-.75a19.576,19.576,0,0,0-2.78,2.738l.749.614Zm-2.053,6.577-.026-.1a5.078,5.078,0,0,1-.151-1.241,6.261,6.261,0,0,1,.388-2.111l-.912-.325a7.223,7.223,0,0,0-.445,2.436,6.076,6.076,0,0,0,.18,1.476l.028.109.938-.241Zm3.775,6.009a7.8,7.8,0,0,1-2.409-2.614l-.833.494a8.769,8.769,0,0,0,2.715,2.931l.528-.811Zm6.811.084a8.733,8.733,0,0,1-3.476.864l.015.967a9.691,9.691,0,0,0,3.864-.951l-.4-.88Zm5.94-4.42a27.878,27.878,0,0,1-2.8,2.484l.589.768a28.841,28.841,0,0,0,2.894-2.57l-.686-.682Zm5.455-5.393a23.519,23.519,0,0,0-2.885,2.6l.7.664a22.631,22.631,0,0,1,2.766-2.494Zm6.951-3.438a19.634,19.634,0,0,0-3.645,1.382l.431.866a18.721,18.721,0,0,1,3.466-1.314Zm7.732-.572a22.386,22.386,0,0,0-2.365-.127c-.495,0-1,.017-1.525.054l.068.965c.5-.035.983-.052,1.456-.052a21.417,21.417,0,0,1,2.262.122l.1-.962Z" transform="translate(-921.311 -541.483)" fill="#ba77ff"/><path d="M980.224,542.731a17.557,17.557,0,0,0,.764-1.834l-.913-.322a16.977,16.977,0,0,1-.723,1.735l.872.421Z" transform="translate(-930.355 -540.575)" fill="#ba77ff"/></g><path d="M984.735,513.373v9.961s-5.111,5.807-12.583,0l-.4-9.486-.019-.474s-10.569-13.687,0-21.982c8.557-6.717,14.733,1.655,14.733,1.655S993.8,503.006,984.735,513.373Z" transform="translate(-928.436 -464.53)" fill="#ba77ff"/><path d="M985.606,518.4v9.544a8.043,8.043,0,0,1-1.732,1.364c-1.849,1.123-5.082,2.149-9.167-.222a14.916,14.916,0,0,1-1.683-1.142l-.4-9.486A34.1,34.1,0,0,0,985.606,518.4Z" transform="translate(-929.307 -469.146)" fill="#a3d7fe"/><path d="M984.258,531.075c-1.849,1.123-5.082,2.149-9.167-.222l1.636-1.142h6.428Z" transform="translate(-929.691 -470.907)" fill="#1631a2"/><path d="M975.092,504.089l4.316,2.7,4.851-7.052,1.737,1.659-5.452,8.711-5.451-3.733Z" transform="translate(-929.691 -466.236)" fill="#fff"/><rect width="4.619" height="13.067" rx="2.309" transform="translate(47.867 0)" fill="#ba77ff"/><rect width="4.619" height="13.067" rx="2.309" transform="translate(74.362 10.384) rotate(45)" fill="#ba77ff"/><rect width="4.619" height="13.067" rx="2.309" transform="translate(36 19.624) rotate(135)" fill="#ba77ff"/></g><path d="M1719.832,491.779V655.263a5.729,5.729,0,0,1-5.13,5.7l-78.267,8.324a5.761,5.761,0,0,1-2.314-.223v-.009a5.714,5.714,0,0,1-4.026-5.469V495.4a5.727,5.727,0,0,1,5.469-5.72l78.267-3.62a5.714,5.714,0,0,1,5.091,2.632A5.616,5.616,0,0,1,1719.832,491.779Z" transform="translate(-104.053 667.584)" fill="#f4f2f7"/><path d="M1718.922,488.691l-81.355,4.966s-5.934.832-5.246,11.615c.543,8.682,1.462,120.459,1.8,163.784a5.714,5.714,0,0,1-4.026-5.469V495.4a5.727,5.727,0,0,1,5.469-5.72l78.267-3.62A5.714,5.714,0,0,1,1718.922,488.691Z" transform="translate(-104.053 667.584)" fill="#cecece"/><rect width="45.605" height="6.222" rx="3.111" transform="translate(1549.426 1169.682) rotate(-3.983)" fill="#cecece"/><path d="M1674.974,568.169l-34.556,2.2V535.812l34.556-2.2Z" transform="translate(-105.661 660.173)" fill="#cecece"/><path d="M1700.3,490.857l-7.277,4.175-26.081,1.867-7.4-3.554Z" transform="translate(-108.641 666.836)" fill="#cecece"/><path d="M1710.382,670.767l-66.575,5.145a3.146,3.146,0,0,1-3.39-3.137V589.894a3.147,3.147,0,0,1,2.9-3.137l66.575-5.146a3.147,3.147,0,0,1,3.389,3.138v82.88A3.147,3.147,0,0,1,1710.382,670.767Z" transform="translate(-105.661 652.695)" fill="#cecece"/><g transform="translate(1534.757 1259.895)"><path d="M1771.225,649.934l-.145.745-.068.31-11.422,55.87-8,1.093,4.394,3.359,2.517,1.916-3.455.726-8.151-3.988-.4-.193-26.917,5.275a.114.114,0,0,0-.03-.019L1680.3,695.949l-.939,6.911,38.95,18.372v3.455h-2.913L1675.38,704.5V693.587l-6.543-1.82-17.1-57.456-3.078-10.347-.01-.039-2.362.387-2.758.455-.03-.039-3.078-4.626,59.886-8.179,1.268,3.823-50.013,6.727.378,1,3.62,9.554,55.656-7.463,51.378,20.869Z" transform="translate(-1640.418 -611.923)" fill="#6676fd"/><path d="M1681.446,706.992l38.95,18.372v3.455h-2.913l-40.014-20.191V697.72l-6.543-1.82-17.1-57.456h2.265c21.236,47.98,64.213,79.729,65.548,80.716l-39.249-19.078Z" transform="translate(-1642.506 -616.055)" fill="#515bd7"/><path d="M1724.761,739.341v.7h-2.913l-40.015-20.191v-9.408h2.265v8.3Z" transform="translate(-1646.871 -627.273)" fill="#6676fd"/><g transform="translate(35.544 95.361)"><ellipse cx="3.934" cy="4.667" rx="3.934" ry="4.667" fill="#515bd7"/><ellipse cx="2.466" cy="2.926" rx="2.466" ry="2.926" transform="translate(0.541 1.741)" fill="#6676fd"/></g><g transform="translate(65.403 110.339)"><ellipse cx="3.934" cy="4.667" rx="3.934" ry="4.667" fill="#515bd7"/><ellipse cx="2.466" cy="2.926" rx="2.466" ry="2.926" transform="translate(0.541 1.741)" fill="#6676fd"/></g><g transform="translate(105.469 100.028)"><ellipse cx="3.75" cy="4.449" rx="3.75" ry="4.449" fill="#515bd7"/><ellipse cx="2.351" cy="2.789" rx="2.351" ry="2.789" transform="translate(0.516 1.66)" fill="#6676fd"/></g><path d="M1778.149,731.046l-3.456.726-8.15-3.988,2.749-1.5,6.34,2.846Z" transform="translate(-1660.07 -629.742)" fill="#515bd7"/><path d="M1651.559,622.473l.378,1-3.281.494-2.371.348-2.788.416-3.078-4.627,59.886-8.179,1.268,3.823Z" transform="translate(-1640.418 -611.923)" fill="#ba77ff"/><path d="M1784.749,656.3l-.146.745L1733.071,721.4l-5.856-60.186,48.9-8.411Z" transform="translate(-1653.943 -618.292)" fill="#515bd7"/><path d="M1774.019,652.451l-.213,1.055-55.4,6.969-60.05-24.934,55.656-7.463Z" transform="translate(-1643.212 -614.44)" fill="#1631a2"/></g><rect width="202.026" height="168.016" transform="translate(199.744 1127.307)" fill="#f4f2f7"/><g transform="translate(214.574 1142.575)"><circle cx="17.083" cy="17.083" r="17.083" fill="#007cff"/><circle cx="14.869" cy="14.869" r="14.869" transform="translate(2.215 2.215)" fill="#fff" opacity="0.9"/><circle cx="10.398" cy="10.398" r="10.398" transform="translate(6.686 6.686)" fill="none" stroke="#007cff" stroke-miterlimit="10" stroke-width="3"/><path d="M92.5,488.888a4.819,4.819,0,1,0,6.816,0A4.819,4.819,0,0,0,92.5,488.888Z" transform="translate(-78.82 -475.213)" fill="none" stroke="#007cff" stroke-miterlimit="10" stroke-width="3"/><path d="M95.591,491.983a1.348,1.348,0,1,0,1.907,0A1.348,1.348,0,0,0,95.591,491.983Z" transform="translate(-79.461 -475.853)" fill="#007cff"/></g><g transform="translate(240.39 1141.74)"><path d="M112.269,476.014l-1.25-4.054-3.883,3.883,1.223,4.08,4.08,1.223,3.883-3.883Z" transform="translate(-107.137 -471.96)" fill="#ba59ff"/><path d="M112.269,476.014l-1.25-4.054-3.883,3.883,1.223,4.08,4.08,1.223,3.883-3.883Z" transform="translate(-107.137 -471.96)" fill="#ba59ff" opacity="0.2"/></g><g transform="translate(298.29 1146.332)"><path d="M175.727,477.4s4.576.629,5.085,1.036.508,1.892.508,1.892h2.543s-1.119,2.887-2.746,2.684l-.3-1.018h-5.085Z" transform="translate(-175.725 -477.4)" fill="#ba59ff"/><path d="M183.86,480.33s-1.119,2.884-2.745,2.684l-.3-1.018h-5.09v-4.6s4.581.632,5.09,1.033.508,1.9.508,1.9Z" transform="translate(-175.725 -477.4)" fill="#ba59ff" opacity="0.9"/><path d="M182.941,480.521a9.111,9.111,0,0,1-.886,2.684l-.3-1.018a6.33,6.33,0,0,0,0-3.562c.508.409.508,1.9.508,1.9Z" transform="translate(-176.664 -477.591)" fill="#ba59ff" opacity="0.2" style="isolation:isolate"/></g><rect width="10.83" height="12.264" transform="translate(300.029 1164.478)" fill="#007cff"/><rect width="10.83" height="12.264" transform="translate(300.029 1164.478)" opacity="0.2" style="isolation:isolate"/><rect width="10.83" height="17.083" transform="translate(290.225 1159.658)" fill="#007cff"/><rect width="10.83" height="17.083" transform="translate(290.225 1159.658)" opacity="0.2" style="isolation:isolate"/><rect width="9.287" height="8.832" transform="translate(280.421 1167.909)" fill="#007cff"/><rect width="9.287" height="8.832" transform="translate(280.421 1167.909)" opacity="0.2" style="isolation:isolate"/><rect width="9.287" height="8.832" transform="translate(284.276 1167.909)" fill="#007cff"/><rect width="10.83" height="17.083" transform="translate(294.08 1159.658)" fill="#007cff"/><rect width="9.287" height="12.264" transform="translate(305.427 1164.478)" fill="#007cff"/><g transform="translate(296.282 1162.113)"><path d="M180.043,499.442a3.348,3.348,0,1,1-3.348-3.348A3.348,3.348,0,0,1,180.043,499.442Z" transform="translate(-173.347 -496.094)" fill="#fff" opacity="0.9"/><g transform="translate(2.471 1.72)"><path d="M177.523,498.132v3.4h-.481v-2.979h-.768v-.422Z" transform="translate(-176.274 -498.132)" fill="#1a2e35"/></g></g><rect width="10.83" height="17.083" transform="translate(294.08 1159.658)" fill="#fff" opacity="0.3" style="isolation:isolate"/><rect width="3.864" height="6.132" transform="translate(347.909 1170.609)" fill="#007cff"/><rect width="3.864" height="8.445" transform="translate(354.519 1168.296)" fill="#007cff"/><rect width="3.864" height="11.53" transform="translate(361.128 1165.212)" fill="#007cff"/><rect width="3.864" height="16.156" transform="translate(367.737 1160.585)" fill="#007cff"/><rect width="3.864" height="23.868" transform="translate(374.348 1152.874)" fill="#fff" opacity="0.9"/><g transform="translate(230.973 1144.361)"><path d="M97.351,491.075l14.458-14.457-1.369-1.369L95.982,489.706" transform="translate(-95.982 -475.094)" fill="#ba77ff"/><path d="M176.517,492.972V476.06h-1.936v16.912" transform="translate(-108.229 -475.22)" fill="#ba77ff"/><path d="M234.645,498.89a40.493,40.493,0,0,0,10.967-4.219,42.9,42.9,0,0,0,18.1-18.749l-1.735-.857a40.968,40.968,0,0,1-17.291,17.908,43.265,43.265,0,0,1-7.393,3.2c-.94.3-1.7.509-2.216.636-.258.063-.458.108-.59.136l-.147.03-.041.008.35,1.9Z" transform="translate(-117.534 -475.065)" fill="#ba77ff"/></g><path d="M268.264,473.673l-3.876,2.368,4.629,2.111Z" transform="translate(108.75 669.513)" fill="#ba59ff"/><g transform="translate(222.815 1181.194)" opacity="0.2" style="isolation:isolate"><path d="M244.395,547.382c-3.253-3.593-10.625-4.55-14.56-2.948a12.245,12.245,0,0,0-1.671.826c-1.552-6.331-.954-14.167-.5-20.117.192-2.511.358-4.68.358-6.446h-2.917c0,1.655-.161,3.772-.349,6.224-.5,6.59-1.172,15.338.94,22.383a9.285,9.285,0,0,0-1.612,2.685c-1.83,4.649.074,10.038,1.372,12.837,2.883,6.215,4.014,11.651,3.356,15.979a13.683,13.683,0,0,0-7.242-6.4,14.819,14.819,0,0,0-13.276,1.087c-3.5,2.277-4.525,7.232-2.491,12.052,1.718,4.074,6.037,8.308,12.539,6.844a18.978,18.978,0,0,0,8.644-4.219,14.829,14.829,0,0,1-2.663,5.237c-2.36,3.032-8.078,8.118-19.848,8.118-12.128,0-15.58-4.955-18.92-9.748a25.037,25.037,0,0,0-5.058-5.845c-3.58-2.751-9-3-13.813-.632a16.006,16.006,0,0,0-3.892,2.69,15.315,15.315,0,0,1,2-2.947c.662-.764,1.372-1.513,2.123-2.305,3.216-3.391,6.861-7.235,6.515-12.761a11.061,11.061,0,0,0-8.419-10.264c-3.175-.742-6.766-.327-10.24.073-1.22.142-2.408.279-3.555.371v-.005l-.178.017c-4.825.369-8.9-.1-11.439-4.556-3.476-6.088-.433-10.585,1.691-12.723a18.592,18.592,0,0,1,8.026-4.527,11.62,11.62,0,0,0-3.012,6.684,10.453,10.453,0,0,0,4.23,9.587,11.889,11.889,0,0,0,14.732-.806,10.454,10.454,0,0,0,3.279-5.633c.8-4.057-1.422-8.63-5.317-11.111,3.833-.163,7.933-.689,10.9-4.318a4.724,4.724,0,0,0,.807-4.114,6.665,6.665,0,0,0-3.391-4.483,25.051,25.051,0,0,0-2.838-1.069c-3.393-1.129-5.453-1.988-5.453-4.395h-2.917c0,4.684,4.305,6.116,7.449,7.162a23.082,23.082,0,0,1,2.5.935,3.763,3.763,0,0,1,1.8,2.488,1.936,1.936,0,0,1-.218,1.629c-2.508,3.065-6.067,3.174-10.188,3.3a32.437,32.437,0,0,0-5.974.554,21.806,21.806,0,0,0-16.492,6.063c-4.607,4.64-5.392,10.553-2.154,16.224a11.455,11.455,0,0,0,4.391,4.478c-6.338,1.487-13.114,4.723-16.059,12.574a47.35,47.35,0,0,0-1.508,5.343c-.987,4.065-2.105,8.672-5.085,13.381-4.25,6.718-15.067,9.8-22.688,6.463-6.973-3.052-7.741-10.925-6.281-16.741.175-.694.382-1.394.622-2.09a16.654,16.654,0,0,0,14.381,7.375,10.323,10.323,0,0,0,7.74-17.257c-2.8-3.6-7.185-5.527-11.16-4.912-4.61.714-8.345,3.981-10.95,8.081a20.95,20.95,0,0,1-.839-7.436c.29-4.1,3.139-7.446,5.893-10.678.878-1.03,1.785-2.1,2.6-3.172,2.267-3,3.158-5.97,2.646-8.827-.614-3.427-3.142-6.521-7.732-9.457-2.008-1.285-2.867-2.37-2.961-3.743-.133-1.936,1.239-3.325,2.829-4.935,1.742-1.764,3.715-3.763,3.715-6.8H93.7c0,1.844-1.332,3.192-2.874,4.754-1.822,1.845-3.886,3.936-3.663,7.183.207,3.013,2.406,4.79,4.3,6,3.813,2.44,5.978,4.969,6.434,7.515.367,2.052-.321,4.2-2.1,6.554-.761,1.008-1.6,1.994-2.492,3.039-3.06,3.591-6.224,7.3-6.581,12.364a23.852,23.852,0,0,0,1.905,11.074,28.209,28.209,0,0,0-1.62,4.66c-1.875,7.466-.148,16.583,7.94,20.122a20.113,20.113,0,0,0,8.059,1.611c7.218,0,14.628-3.443,18.262-9.186,3.236-5.112,4.466-10.18,5.454-14.252a45.634,45.634,0,0,1,1.4-5.007c3.84-10.24,15.557-11.342,22.558-12l.81-.077h0c1.215-.095,2.427-.234,3.609-.371,3.373-.39,6.56-.759,9.241-.131a8.064,8.064,0,0,1,6.174,7.607c.265,4.258-2.642,7.325-5.721,10.571-.741.783-1.508,1.59-2.213,2.405-4.3,4.969-4.9,10.763-4.743,16.608v.022a85.954,85.954,0,0,0,.445,9.105c.014.517.041,1.039.041,1.547h2.916c0-.485-.025-.977-.038-1.466l.025,0c0-.006-.014-.111-.033-.288-.046-1.486-.122-2.974-.212-4.431-.095-1.518-.184-3.015-.227-4.488a12.882,12.882,0,0,1,7.212-11.826c3.822-1.882,8.041-1.753,10.747.328a22.489,22.489,0,0,1,4.444,5.2c3.592,5.154,7.662,11,21.312,11,13.011,0,19.463-5.79,22.15-9.243a16.308,16.308,0,0,0,3.647-11.343l.022-.044c2.77-5.627,2.032-13.1-2.191-22.2-1.875-4.043-2.35-7.885-1.3-10.542.057-.144.118-.286.184-.424a14.958,14.958,0,0,0,5.409,6.234,10.855,10.855,0,0,0,8.3,1.505,6.792,6.792,0,0,0,4.385-3.46C246.53,552.149,246.29,549.475,244.395,547.382Zm-90.264-9.031a9.839,9.839,0,0,1,1.857-.656,13.213,13.213,0,0,1,5.242,1.582c2.726,1.531,5.131,4.89,4.452,8.348a7.534,7.534,0,0,1-2.379,4.038,9.015,9.015,0,0,1-11.02.63,7.6,7.6,0,0,1-3.079-6.964A8.746,8.746,0,0,1,154.13,538.351Zm-52.264,30.2c2.949-.458,6.25,1.045,8.415,3.822a8.037,8.037,0,0,1,1.462,8.059c-1.307,3.086-4.51,4.347-7.072,4.5-5.122.28-10.185-2.8-12.816-7.76C94.051,572.855,97.5,569.223,101.866,568.548ZM217.7,589.538c-4.742,1.067-7.869-1.95-9.211-5.133-1.245-2.95-1.165-6.808,1.395-8.472a11.022,11.022,0,0,1,6-1.693,12.7,12.7,0,0,1,4.619.875,10.486,10.486,0,0,1,6.576,7.292q.109.432.181.873C224.969,587.166,220.849,588.828,217.7,589.538Zm24.792-35.988a3.893,3.893,0,0,1-2.552,2,8.093,8.093,0,0,1-5.984-1.146,12.72,12.72,0,0,1-4.88-6.257,8.818,8.818,0,0,1,1.857-1.016c2.968-1.207,8.98-.355,11.3,2.205C243.3,550.522,243.386,551.86,242.493,553.551Z" transform="translate(-86.319 -518.697)"/></g><rect width="31.287" height="13.428" rx="1.727" transform="translate(281.353 1272.019)" fill="#007cff"/><g transform="translate(288.428 1276.789)"><path d="M164.043,635.345l.2-.423a1.958,1.958,0,0,0,1.254.441c.658,0,.94-.256.94-.587,0-.929-2.3-.342-2.3-1.753,0-.587.457-1.086,1.455-1.086a2.238,2.238,0,0,1,1.222.337l-.179.434a1.97,1.97,0,0,0-1.043-.309c-.646,0-.923.271-.923.6,0,.929,2.3.347,2.3,1.742,0,.582-.467,1.081-1.471,1.081A2.252,2.252,0,0,1,164.043,635.345Z" transform="translate(-164.043 -631.936)" fill="#fff"/><path d="M169.041,632.46h-1.3v-.472h3.144v.472h-1.3v3.328h-.537Z" transform="translate(-164.619 -631.944)" fill="#fff"/><path d="M174.256,634.838h-2.019l-.418.95h-.559l1.72-3.8h.538l1.726,3.8h-.57Zm-.19-.434-.82-1.862-.82,1.862Z" transform="translate(-165.168 -631.944)" fill="#fff"/><path d="M179.194,635.788l-.82-1.168c-.076.006-.158.012-.24.012H177.2v1.156h-.543v-3.8h1.482c.989,0,1.585.5,1.585,1.325a1.2,1.2,0,0,1-.836,1.2l.9,1.276Zm-.017-2.475c0-.544-.364-.853-1.059-.853H177.2v1.71h.923C178.813,634.17,179.177,633.855,179.177,633.312Z" transform="translate(-166.008 -631.944)" fill="#fff"/><path d="M181.922,632.46h-1.3v-.472h3.143v.472h-1.3v3.328h-.538Z" transform="translate(-166.626 -631.944)" fill="#fff"/></g><rect width="205.514" height="7.957" rx="1.339" transform="translate(198 1122.449)" fill="#1a2e35"/><rect width="205.516" height="7.961" rx="1.543" transform="translate(198.001 1122.445)" fill="#ba59ff"/><path d="M262.979,450.407v3.743H61.682a1.3,1.3,0,0,1-1.3-1.3V449.1h201.3A1.3,1.3,0,0,1,262.979,450.407Z" transform="translate(140.538 673.342)" fill="#ba77ff"/><rect width="9.287" height="12.264" transform="translate(305.427 1164.478)" fill="#fff" opacity="0.1" style="isolation:isolate"/><g transform="translate(376.042 1132.383)"><g transform="translate(0 0)"><circle cx="21.743" cy="21.743" r="21.743" transform="translate(0 9.991) rotate(-13.283)" fill="#007cff"/></g><g transform="translate(34.089 46.306)"><path d="M308.209,520.83a5.1,5.1,0,1,0,5.1-5.1A5.1,5.1,0,0,0,308.209,520.83Z" transform="translate(-308.209 -515.729)" fill="#007cff"/></g><g transform="translate(42.095 55.418)"><path d="M317.693,529.249a2.726,2.726,0,1,0,2.726-2.726A2.726,2.726,0,0,0,317.693,529.249Z" transform="translate(-317.693 -526.523)" fill="#007cff"/></g><g transform="translate(48.085 59.063)"><path d="M324.789,532.581a1.74,1.74,0,1,0,1.741-1.741A1.74,1.74,0,0,0,324.789,532.581Z" transform="translate(-324.789 -530.84)" fill="#007cff"/></g><g transform="translate(19.815 14.529)"><path d="M295.572,496.015c-.1-1.467-.1-1.6-.1-1.727,0-4.075,4.075-6.455,4.075-9.976,0-2.086-1.434-3.031-3.292-3.031a4.906,4.906,0,0,0-4.042,2.119l-.913-3a6.15,6.15,0,0,1,5.216-2.315,6.486,6.486,0,0,1,6.846,6.194c0,3.944-5.052,6.618-5.052,11.311v.424Zm-.652,6.52v-4.042h4.041v4.042Z" transform="translate(-291.301 -478.086)" fill="#fff" opacity="0.6" style="isolation:isolate"/></g></g><path d="M659.08,415.455a77.5,77.5,0,0,1-13.212,1.762c-18.246,1.229-46.141.184-64.019-.745-10.221-.523-17.172-1.016-17.172-1.016a23.218,23.218,0,0,1-3.146-2.159c-4.278-3.436-10.8-10.85-5.188-21.236,7.937-14.674,17.849-38.863,17.849-38.863l22.2-11.5v-2.777s-11.1-8.324-4.365-12.293c0,0-.165-.609-.4-1.626-1.19-5.314-4.23-21.788,4.762-19.785,0,0,7.531-12.292,13.88-9.515,0,0,7.531-28.157,25.38,9.912,0,0,6.34,16.648,15.458,17.442,0,0,2.778,8.334-11.5,6.747,0,0,3.572,3.562,5.952,4.753,0,0-7.54,2.381-11.1,0A17.271,17.271,0,0,1,633.381,336c-1.3,1.558-3.571,3.707-5.662,2.923V341.7s20.346,4.772,23.618,18.526L669,393.493a20.674,20.674,0,0,1,2.295,6.136C672.34,404.963,671.237,412.3,659.08,415.455Z" transform="translate(63.597 698.806)" fill="#ba77ff"/><path d="M609.326,360.3l8.8,27.73,14.4-27.73Z" transform="translate(55.002 687.18)" fill="#f1bcae"/><path d="M646.2,329.8s3.572,3.562,5.952,4.753c0,0-7.54,2.381-11.1,0A17.238,17.238,0,0,1,639.969,336c-1.3,1.558-3.571,3.707-5.662,2.923V341.7c-18.2,33.559-31.323,0-31.323,0v-2.777s-11.1-8.324-4.365-12.293c0,0-.165-.609-.4-1.626-1.19-5.314-4.23-21.788,4.762-19.785,0,0,7.531-12.292,13.88-9.515,0,0,7.531-28.157,25.379,9.912,0,0,6.34,16.648,15.458,17.442C657.7,323.056,660.48,331.39,646.2,329.8Z" transform="translate(57.008 698.806)" fill="#fbd4cf"/><path d="M583.208,429.565c-10.221-.523-17.172-1.016-17.172-1.016a23.22,23.22,0,0,1-3.145-2.159l18.991-56.682Z" transform="translate(62.237 685.713)" fill="#ba59ff"/><path d="M675.442,429.42a77.5,77.5,0,0,1-13.212,1.762l-.214-9.5L659.17,375.3c.813,8.286,11.964,25.2,11.964,25.2l-1.654,25.225,18.178-12.138C688.7,418.928,687.6,426.265,675.442,429.42Z" transform="translate(47.235 684.841)" fill="#ba59ff"/><path d="M646.26,329.8s3.572,3.562,5.952,4.753c0,0-7.54,2.381-11.1,0A17.238,17.238,0,0,1,640.026,336c2.672-22.678-6.4-4.4-6.4-4.4,1.249-8.082-8.4-10.889-11.819-10.415S607.8,310.754,607.8,310.754c.94,10.551-5.594,13.067-5.594,13.067v7.772L598.279,325c-1.19-5.314-4.23-21.788,4.762-19.785,0,0,7.531-12.292,13.88-9.515,0,0,7.531-28.157,25.38,9.912,0,0,6.34,16.648,15.458,17.442C657.759,323.056,660.537,331.39,646.26,329.8Z" transform="translate(56.951 698.806)" fill="#1631a2"/><path d="M566.345,405.346l2.178,46.669s-.933,5.911,9.334,5.6h74.358s7.777.623,7.777-6.533l2.8-43.557s2.178-5.289-8.089-5.289H571.012S566.228,402.848,566.345,405.346Z" transform="translate(61.699 680.645)" fill="#fff"/><g transform="translate(654.611 1244.661)"><path d="M615.248,593.878l-.039,13.377-.029,11.229v15.583c-7.56,18.42-17.365-2.546-17.365-2.546V611.969l1.433-.735.765-.4V598.486Z" transform="translate(-597.816 -593.878)" fill="#f5d5d6"/><path d="M615.181,625.307V637.27c-7.56,18.42-17.365-2.546-17.365-2.546V615.172l1.433-.735,1.829,14.335S610.467,633.679,615.181,625.307Z" transform="translate(-597.816 -597.081)" fill="#ba59ff"/><path d="M615.654,593.878l-.039,13.377c-4.7,7.085-10.783,4.569-15.2,1v-9.766Z" transform="translate(-598.222 -593.878)" fill="#f8b8af"/></g><g transform="translate(677.874 1244.661)"><path d="M625.373,593.878l.039,13.377.029,11.229v15.583c7.56,18.42,17.365-2.546,17.365-2.546V611.969l-1.433-.735-.764-.4V598.486Z" transform="translate(-625.373 -593.878)" fill="#f5d5d6"/><path d="M625.453,625.307V637.27c7.56,18.42,17.365-2.546,17.365-2.546V615.172l-1.432-.735-1.829,14.335S630.167,633.679,625.453,625.307Z" transform="translate(-625.385 -597.081)" fill="#ba59ff"/><path d="M625.373,593.878l.039,13.377c4.7,7.085,10.783,4.569,15.2,1v-9.766Z" transform="translate(-625.373 -593.878)" fill="#f8b8af"/></g><circle cx="5.711" cy="5.711" r="5.711" transform="translate(670.653 1104.865)" fill="#cecece"/><path d="M615.509,374.4s5.476,3.445,9.53,0l-4.765,10.8Z" transform="translate(54.038 684.982)" fill="#fbd4cf"/><path d="M584.656,467.836s-23.979,36.3,0,42.935l5.311,63.469s12.859,13.689,21.571,0l1.659-60.979,2.493,59.32s12.026,16.179,22.4,0l4.978-62.224s29.868,10.812,4.978-42.506Z" transform="translate(60.507 670.423)" fill="#474747"/><path d="M651.925,490.187s-14.522-34.845-22.61,0V567.76s5.6,13.274,14.313-2.074c0,0,1.471,20.616-17.31,7.4l-2.6-98.39S651.1,454.1,651.925,490.187Z" transform="translate(52.759 670.266)" fill="#7a7a7a"/><path d="M584.98,490.187s14.522-34.845,22.609,0V567.76s-5.6,13.274-14.312-2.074c0,0-1.471,20.616,17.31,7.4l2.6-98.39S585.809,454.1,584.98,490.187Z" transform="translate(58.796 670.266)" fill="#7a7a7a"/><path d="M977.318,597.8c-.184-.794-.291-1.239-.291-1.239l1.558-4.045c3.427-2.808,4.327-17.9,4.327-17.9-1.713.561-6.34-1.732-6.34-1.732-6.708-6.185-9.96,8.43-9.96,8.43-1.22-16.871-5.139.31-5.139.31L956.5,583.8l-.717,1.21-.571.968c-.407,0-.8.009-1.2.019-61.135,1.094-66.061,62.412-66.061,62.412l2.072,1.539s-.01.184-.03.533c-.057,1.084-.174,3.7-.183,7.046,0,1.172.009,2.43.038,3.747.175,7.172.949,15.98,3.495,20.733,4.771,8.924,1.713,41.95,1.713,41.95l-5.295,5.13,1.839,2.062,2.052,2.294-2.992,2.033-.077.048-3.388,2.294-2.062,1.394-3.281,2.227,5.671,16.784,6.456-.117V754.1h-1.5V750.82a5,5,0,0,0,.784-3.359c-.009-.116-.019-.222-.029-.339a13.57,13.57,0,0,0-.756-3.232l.62-1.907.552-1.7,1.249,1.568V759.58h24.576l.31-2.178-9.883-5.566-1.684-.949-.572-.328H903.92v-9.022h4.975l1.558-15.448,20.221-22.66c10.579-7,4.665-18.3,4.665-18.3L928.5,662.874l-1.258-4.1,1.365-.755,1.752-.978-2.933-15.042-.184-.958c3.291-2.623,9.97-3.117,13.638-3.175h.572c.648-.01,1.161,0,1.509.009.31.01.484.019.484.019h21.14c-3.117-9.669-16.185-9.611-16.185-9.611a.1.1,0,0,0-.038-.049,1.738,1.738,0,0,0-.968-.523,11.484,11.484,0,0,0-2.168-.319,42.243,42.243,0,0,0-4.288-.039c-6.582.28-5.8-2.585-5.624-3.049a.343.343,0,0,1,.019-.068l17.733-11.2c.058.116.126.223.193.338.126.242.271.494.407.735a72.243,72.243,0,0,0,12.486,16.272,46.038,46.038,0,0,0,4.7,4c4.7,3.456,8.731,4.636,10.522,2.3,3.146-4.094-1.21-26-3.329-35.61C977.753,599.707,977.5,598.584,977.318,597.8ZM918.642,698.4l-4.976,5.033,2.148-18.3a38.434,38.434,0,0,0,2.827,7.259C920.713,696.529,918.642,698.4,918.642,698.4Zm46.577-87.482-4.569-5.43-.058-.068-2.749-3.262,2.816-3.291,3.931-4.588h2.023s.078,1.4.213,3.524c.087,1.3.2,2.865.339,4.539a102.612,102.612,0,0,0,1.675,12.884Z" transform="translate(12.537 654.292)" fill="#f4f2f7"/><path d="M956.336,590.862l-11.76,17.326L926.2,621.4s-8.208-.988-8.46-7.211c0,0-3.678,9.127-.8,12.457h-8.169s5.295,8.7-5.9,7.463l-1.558,31.632-10.376-5.508c.009-3.349.126-5.962.183-7.046.02-.349.03-.533.03-.533l-2.072-1.539S894,589.8,955.135,588.7Z" transform="translate(11.412 651.589)" fill="#fff"/><path d="M970.036,581.651s-8.4-32.01,17.735-22.227c0,0,5.6,7.6,13.378,1.693,0,0,1.556,13.067-6.845,11.2s-8.383-9.333-14.147,6.846c0,0-1.1-17.112-5.143.311Z" transform="translate(-1.003 656.441)" fill="#1631a2"/><path d="M975.486,648.3h-21.14s-.175-.009-.485-.019c-.445-.009-1.171-.019-2.081-.009l6.515-10.154a1.737,1.737,0,0,1,.968.523.1.1,0,0,1,.038.049S972.37,638.634,975.486,648.3Z" transform="translate(1.641 643.889)" fill="#fbd4cf"/><path d="M954.636,632.633a46.482,46.482,0,0,0-5.4,9.641c-2.235-.057-11.615-.116-15.719,3.166l.184.958c-5.16.571-13.087.542-11.383-5.314,2.487-8.557,9.96-41.844,25.979-41.534,0,0,10.154,5.44,1.423,14.78-4.452,4.753-8.45,10.841-8.131,14.374-.174.464-.958,3.329,5.624,3.049C947.211,631.753,953.861,631.453,954.636,632.633Z" transform="translate(6.269 649.899)" fill="#ba77ff"/><path d="M996.771,641.571c-1.791,2.332-5.817,1.152-10.522-2.3a46.031,46.031,0,0,1-4.7-4l-.939-19.475,3.62,4.308c-1.006-4.172-1.684-12.631-2.013-17.423h10.492C994.158,608.933,1000.363,636.887,996.771,641.571Z" transform="translate(-2.851 649.411)" fill="#ba77ff"/><path d="M984.118,640.686c-5.7-4.172-12.37-11.683-17.19-20.269l6.979-8.634,8.189,9.738Z" transform="translate(-0.719 647.993)" fill="#ba59ff"/><path d="M936.8,697.875l-8.091-26.348,1.365-.755c-6.727.794-16.911,1.6-24.382.446-12.138-1.868-7.153-18.043-7.153-18.043a42.013,42.013,0,0,1-7.086,10.057c-.183,3.5-1,23.414,3.35,31.526,4.771,8.924,1.713,41.95,1.713,41.95l-5.295,5.13,1.839,2.062,2.052,2.294-2.992,2.033,2.992,4.8,5.528,2.109,4.742-.851h4.975l1.558-15.448,20.221-22.66C942.712,709.181,936.8,697.875,936.8,697.875Zm-16.7,13.271-4.976,5.033,2.149-18.3a38.429,38.429,0,0,0,2.827,7.259C922.172,709.278,920.1,711.146,920.1,711.146Z" transform="translate(11.078 641.543)" fill="#474747"/><path d="M995.931,574.618s-.9,15.09-4.326,17.9l-1.558,4.045s.106.446.29,1.239.436,1.907.736,3.281c-3.417.5-7.308,1-10.89,1.258-.135-1.674-.252-3.242-.339-4.539-.135-2.12-.213-3.524-.213-3.524h-2.023l-6.747,7.88c-7.473-1.666-5.1-11.819-5.1-11.819l3.756-6.534,4.976-2.178s3.92-17.181,5.139-.31c0,0,3.252-14.615,9.96-8.43C989.591,572.885,994.218,575.179,995.931,574.618Z" transform="translate(-0.481 654.292)" fill="#fbd4cf"/><path d="M919.784,787.32l-.31,2.178H894.9V771.765L893.65,770.2l-.552,1.7-.62,1.907a13.57,13.57,0,0,1,.756,3.232c.009.116.019.223.029.339a5,5,0,0,1-.784,3.359v3.281h1.5v4.007l-6.456.117-5.671-16.784,3.281-2.227,2.062-1.394,3.388-2.294,3.069-2.081c-4.666,9.95,10.269,8.091,10.269,8.091v9.022h3.726l.572.328,1.684.949Z" transform="translate(12.537 624.374)" fill="#474747"/><path d="M893.839,777.425l-8.1-7.908,2.062-1.394,3.388-2.294,2.516,6.456-.62,1.907A13.57,13.57,0,0,1,893.839,777.425Z" transform="translate(11.932 623.99)" fill="#fbd4cf"/><path d="M910.625,782.8l-5.13,3.272-8.189-5.411v-4.511h9.021v6.321h3.727Z" transform="translate(10.129 622.382)" fill="#fbd4cf"/><path d="M892.478,784.827h1.5v4.007l-6.456.117-5.671-16.784,5.343-3.621a22.058,22.058,0,0,0,6.069,9.641,5,5,0,0,1-.784,3.359Z" transform="translate(12.537 623.566)" fill="#ba59ff"/><path d="M922.193,790.145l-.31,2.178H897.307V781.491c4.83,3.33,10.521,3.621,15,3.088Z" transform="translate(10.129 621.549)" fill="#ba59ff"/><g transform="translate(1144.662 1079.802)"><rect width="92.247" height="103.774" rx="13.99" transform="translate(0)" fill="#eaeae8"/><rect width="69.933" height="23.311" rx="11.656" transform="translate(9.541 9.973)" fill="#ba77ff"/><line x2="69.933" transform="translate(9.541 39.787)" fill="none" stroke="#fff" stroke-linecap="round" stroke-miterlimit="10" stroke-width="2"/><line x2="69.933" transform="translate(9.541 46.289)" fill="none" stroke="#fff" stroke-linecap="round" stroke-miterlimit="10" stroke-width="2"/><line x2="69.933" transform="translate(9.541 52.792)" fill="none" stroke="#fff" stroke-linecap="round" stroke-miterlimit="10" stroke-width="2"/><rect width="40.809" height="15.312" rx="3.945" transform="translate(9.541 64.713)" fill="#ba77ff"/><rect width="26.584" height="29.727" rx="3.945" transform="translate(52.891 64.713)" fill="#6676fd"/></g><path d="M1371.121,587.5c4.976-4.772,2.691-14.306,2.691-14.306l-8.5-37.333c-5.034-22.456-9.747-26.869-10.918-27.644a1.177,1.177,0,0,0-.28-.155c-3.136-4.569-12.351-8.479-18.74-10.754-2.11-.745-3.92-1.316-5.1-1.674-.039-.01-.078-.019-.106-.03-.862-.261-1.365-.4-1.365-.4v-7.472q1.118-1.279,2.12-2.527c18.971-24.025.368-38.746.368-38.746-.407-13.067-31.526-9.961-31.526-9.961l-1.238-3.107-8.508,5.391c-6.088,3.291-1.335,11.809.88,15.177.582.881.988,1.413.988,1.413-2.885,27.944,2.584,36.152,8,37.943,4.308,1.423,8.586-1.229,8.586-1.229v8.092a2.6,2.6,0,0,0-1.646.455,8.2,8.2,0,0,0-2.361,2.623c-.088.154-.136.242-.136.242-10.579-.214-20.326,10.163-20.326,10.163-4.114.165-6.853,4.1-8.673,8.8a64.421,64.421,0,0,0-3.358,16.088l-18.866-33.607-.107-.184-.939-1.675-.832,1.036a11.31,11.31,0,0,1-1.452-5.6c0-3.311-4.356-5.6-4.356-5.6l-6.843-8.091c-2.284-4.143-3.32-1.452-3.32-1.452l4.153,9.127-1.045,2.284c-1.656-.416-2.691,1.868-2.691,1.868-5.6,2.488,4.143,14.1,4.143,14.1l-1.23,1.094-.629.561.165.3,29.077,52.636c6.756,15.952,16.251,11.625,20.172,8.886a15.611,15.611,0,0,0,1.81-1.462l6.417,32.3.223,1.142-.552,4.549-2.768,22.776c29.667,13.9,67.823-4.763,67.823-4.763.919-7.647-2.962-19.281-3.93-22.021-.135-.377-.213-.59-.213-.59l4.163-5.208Zm-21.362-24.886s9.118,14.519,0,17.839Z" transform="translate(-42.325 675.789)" fill="#fff"/><path d="M1338.6,495.209s.542.145,1.471.426a64.131,64.131,0,0,1-23.444,5,2.6,2.6,0,0,1,1.646-.455v-8.092s-21.779,13.483-16.591-36.713c0,0-.406-.533-.988-1.413-2.216-3.368-6.969-11.886-.881-15.177l8.509-5.391,1.238,3.107s31.119-3.107,31.526,9.961c0,0,19.92,15.757-2.488,41.273Z" transform="translate(-52.125 675.789)" fill="#fbd4cf"/><path d="M1343.1,493.059q-1,1.249-2.12,2.527v2.681c-7.937,1.626-17.82,4.636-20.326,9.766v-8.092s-4.278,2.652-8.586,1.229l6.718-4.549,2.081-12.854Z" transform="translate(-54.498 667.94)" fill="#f1bcae"/><path d="M1338.6,487.737v1.035H1321.6l-6.428-11.819c7.464-18.671-5.6-8.711-5.6-8.711,1.229-7.724-4.21-12.041-8.866-14.277-2.216-3.368-6.969-11.886-.881-15.177l8.509-5.391,1.238,3.107s31.119-3.107,31.526,9.961C1341.091,446.464,1361.011,462.222,1338.6,487.737Z" transform="translate(-52.125 675.789)" fill="#1631a2"/><path d="M1301.609,538.918s21.822,72.495-6.3,44.7S1301.609,538.918,1301.609,538.918Z" transform="translate(-50.164 659.347)" fill="#f4f2f7"/><path d="M1253.111,514.014l-14.983,7.772-.165-.3,1.859-1.656s-9.747-11.615-4.143-14.1c0,0,1.036-2.284,2.691-1.868l1.045-2.284-4.153-9.127s1.036-2.691,3.32,1.452l6.843,8.091s4.356,2.284,4.356,5.6a11.31,11.31,0,0,0,1.452,5.6l.832-1.036Z" transform="translate(-42.325 666.722)" fill="#fbd4cf"/><path d="M1288.118,587.414c-3.92,2.739-13.416,7.066-20.172-8.886l-29.077-52.636-.165-.3.629-.561,14.413-7.1.106.184,18.866,33.607a64.429,64.429,0,0,1,3.358-16.088l.01.01s8.866-16.077,17.994,0C1300.052,546.169,1293.413,571.307,1288.118,587.414Z" transform="translate(-43.066 662.616)" fill="#ba59ff"/><path d="M1348.393,508.792c-7.355,5.789-19.232,12.2-30.906,5.953a8.207,8.207,0,0,1,2.361-2.623,2.6,2.6,0,0,1,1.646-.455v-.678c5.285.165,12.409-.707,21.691-3.9.029.01.068.019.106.03C1344.474,507.475,1346.284,508.046,1348.393,508.792Z" transform="translate(-55.343 664.307)" fill="#ba59ff"/><path d="M1392.5,601.312l-14.935,18.672-6.427-25.718c9.118-3.32,0-17.839,0-17.839,9.36-29.3,7.608-45.812,4.636-54.4,1.172.775,5.885,5.188,10.919,27.644l8.5,37.333S1397.474,596.54,1392.5,601.312Z" transform="translate(-63.702 661.979)" fill="#ba59ff"/><path d="M1371.139,659.776s-38.156,18.662-67.823,4.763l3.32-27.325-.223-1.142c18.332-1.229,43.734-2.8,59.367-3.772l1.215,4.866S1372.184,651.065,1371.139,659.776Z" transform="translate(-53.135 644.796)" fill="#ba59ff"/><path d="M1590.825,628s25.371-38.1,20.81,6.892" transform="translate(-97.934 647.813)" fill="none" stroke="#7a7a7a" stroke-miterlimit="10" stroke-width="1"/><path d="M1793.888,583.277s-16.342-41.1,14.031-7.6" transform="translate(-128.891 655.667)" fill="none" stroke="#7a7a7a" stroke-miterlimit="10" stroke-width="1"/><path d="M1598.715,626.312s21.864-25.2,18.3,9.957" transform="translate(-99.163 647.092)" fill="none" stroke="#7a7a7a" stroke-miterlimit="10" stroke-width="1"/><path d="M1821.36,628.033l-14.723,26.347s-1.868,3.726-6.223,0l-2.71-2.711-.822-.822-2.643-2.449-.261-.242-1.926,5.217-.145.378-.02-.01-28.186-13.26-27.634,4.656-11.78,1.984,12.244,41.273-18.052,6.011-5.41-30.258-2.672-14.955-6.039-2.478-14.645-6-.058-.03-5.808-1.238-9.166-12.322-3.485-4.685-10.1-1.819h-.009l-9.747-1.753-.891-.165v-4.153s-32.087-10.569-33.7-5.9a1.784,1.784,0,0,1-1.364,1.268,5.992,5.992,0,0,0-3.5,1.578,1.647,1.647,0,0,1-2.275.184c-3.252-2.6-9.669-8.856-3.165-13.348a1.8,1.8,0,0,1,.571-.252c1.238-.28,6.088-1.006,15.438,2.169,11,3.736,28,4.771,28,4.771l1.868-1.867.436.087,7.821,1.645.659.135.068-.213,1.6-5.391s-11.828-30.277,23.017-23.434c0,0,15.768-10.58,6.021,6.223,0,0-1.249,8.712,5.391,10.164,3.756.822,4.579,2.972,4.6,4.684a6.511,6.511,0,0,1-.446,2.352l16.078-12,.3-.222.832,1.036s41.07-37.75,50.4-20.743c0,0,.2,10.163-6.64,5.6,0,0-1.036,4.559-4.355,1.655,0,0-1.452-7.25-33.317,21.295-.03.019-.049.048-.078.068,0,0-4.143,7.259-8.914,10.376,0,0-.03.242-.078.669a64.3,64.3,0,0,0-.377,8.265,15.966,15.966,0,0,0,.891,5.431,3.135,3.135,0,0,0,.8,1.19l7.055,2.691,9.961-8.082a9.641,9.641,0,0,1,10.783-.832l55.588,16.59-2.082,4.772.688.358,3.262,1.714.048-.049,19.03-16.126S1824.264,623.058,1821.36,628.033Z" transform="translate(-99.93 655.584)" fill="#474747"/><path d="M1371.139,660.783s-38.156,18.662-67.823,4.763l2.768-22.776,61.125-4.007C1368.177,641.5,1372.058,653.137,1371.139,660.783Z" transform="translate(-53.135 643.789)" fill="#474747"/><path d="M1762.451,573.074s-1.036,4.559-4.355,1.655c0,0-1.452-7.25-33.317,21.295-.03.019-.049.048-.078.068,0,0-4.143,7.259-8.914,10.376,0,0-.03.242-.078.669a64.3,64.3,0,0,0-.377,8.265,15.966,15.966,0,0,0,.891,5.431c-4.9.551-13.4,4.51-26.511,19.881l-.058-.03-5.808-1.238-9.166-12.322-3.485-4.685-10.1-1.819h-.009l-9.747-1.753-.891-.165v-4.153s-32.087-10.569-33.7-5.9a1.784,1.784,0,0,1-1.364,1.268,5.992,5.992,0,0,0-3.5,1.578,1.647,1.647,0,0,1-2.275.184c-3.252-2.6-9.669-8.856-3.165-13.348a1.8,1.8,0,0,1,.571-.252c1.238-.28,6.088-1.006,15.438,2.169,11,3.736,28,4.771,28,4.771l1.868-1.867.436.087,7.821,1.645.659.135.068-.213,1.6-5.391s-11.828-30.277,23.017-23.434c0,0,15.768-10.58,6.021,6.223,0,0-1.249,8.712,5.391,10.164,3.756.822,4.579,2.972,4.6,4.684a6.511,6.511,0,0,1-.446,2.352l16.078-12,.3-.222.832,1.036s41.07-37.75,50.4-20.743C1769.091,567.469,1769.295,577.632,1762.451,573.074Z" transform="translate(-99.93 655.584)" fill="#fff"/><path d="M1712.437,598.826c-6.456,6.147-21.043,16.262-41.351,7.831l.659.135.068-.213,1.6-5.391s-11.828-30.277,23.018-23.434c0,0,15.767-10.58,6.021,6.223,0,0-1.249,8.712,5.391,10.164C1711.594,594.964,1712.417,597.113,1712.437,598.826Z" transform="translate(-110.439 653.808)" fill="#1631a2"/><path d="M1652.755,609.646l-1.413,15.632-.891-.165v-4.153s-32.087-10.569-33.7-5.9a1.784,1.784,0,0,1-1.364,1.268,5.992,5.992,0,0,0-3.5,1.578,1.647,1.647,0,0,1-2.275.184c-3.252-2.6-9.669-8.856-3.165-13.348a1.8,1.8,0,0,1,.571-.252c1.238-.28,6.088-1.006,15.438,2.169,11,3.736,28,4.771,28,4.771l1.868-1.867Z" transform="translate(-99.93 649.173)" fill="#fbd4cf"/><path d="M1692.41,612.248V607.89s-12.86-4.978-4.148-8.3l4.148,2.121v-2.951s-6.43-1.452,0-4.77l2.281-1.244s-4.148-4.564,4.564-4.564c0,0,10.578,13.689,4.978,16.593,0,0,12.03,21.157-2.9,12.653Z" transform="translate(-112.645 651.67)" fill="#fbd4cf"/><path d="M1783.479,573.074s-1.036,4.559-4.355,1.655c0,0-1.452-7.25-33.317,21.295l-7.221-8.625.3-.222.832,1.036s41.07-37.75,50.4-20.743C1790.119,567.469,1790.323,577.632,1783.479,573.074Z" transform="translate(-120.958 655.584)" fill="#fbd4cf"/><path d="M1733.008,623.144l-15.932-10.386c3.2,1.356,10.724,1.9,16.31,2.121A64.325,64.325,0,0,0,1733.008,623.144Z" transform="translate(-117.605 647.841)" fill="#f4f2f7"/><path d="M1685.285,637.048l-3.485-4.685-10.1-1.819c5.218-.988,10.638-2.333,11.422-3.784Z" transform="translate(-110.536 645.659)" fill="#f4f2f7"/><path d="M1705.549,577.347a26.944,26.944,0,0,1-3.03,6.63s.62-6.02-4.152-3.949a6.23,6.23,0,0,0-.91.513c-5.875,3.784-22.736,22.311-22.736,22.311l.832,4.975-3.669-1.249,1.6-5.391s-11.828-30.277,23.017-23.434C1696.5,577.754,1707.1,570.64,1705.549,577.347Z" transform="translate(-110.512 653.808)" fill="#ba77ff"/><path d="M1707.021,584.4s.62-6.02-4.152-3.949c-.262.117-2.432,1.62-2.432,1.62s6.923-6.982,9.614-4.3A26.949,26.949,0,0,1,1707.021,584.4Z" transform="translate(-115.013 653.389)" fill="#ba59ff"/><path d="M1742.381,638.947l.339,1.916A17.281,17.281,0,0,1,1742.381,638.947Z" transform="translate(-121.549 643.76)" fill="#fff"/><path d="M1757.747,657.314l-11.78,1.984-3.184-18.081C1744.671,649.541,1752.017,654.574,1757.747,657.314Z" transform="translate(-121.611 643.406)" fill="#7a7a7a"/><path d="M1731.658,678.274l-2.672-14.955-6.039-2.478,5-2.5s3.31-10.377,4.762,0C1733.478,663.813,1732.626,671.876,1731.658,678.274Z" transform="translate(-118.521 641.456)" fill="#7a7a7a"/><path d="M1856.541,639.107l-14.722,26.347s-1.868,3.726-6.223,0l-2.71-2.711-.822-.822-2.643-2.449,4.782-10.88,3.262,1.714.048-.049,19.029-16.126S1859.445,634.131,1856.541,639.107Z" transform="translate(-135.111 644.511)" fill="#fbd4cf"/><path d="M1772.789,650.257l-1.659-9.041,10.786,9.041-7.052-2.37Z" transform="translate(-126.028 643.406)" fill="#7a7a7a"/><path d="M1857.18,639.107l-14.723,26.347s-1.868,3.726-6.223,0l-2.71-2.711a55.735,55.735,0,0,0,4.627-12.486l19.03-16.126S1860.084,634.131,1857.18,639.107Z" transform="translate(-135.751 644.511)" fill="#ba77ff"/><path d="M1777.438,723.319l-29.474,6.5s-4.026,1.079-4.135-4.652l.225-3.826.068-1.162.075-3.6,11.308-3.654.887,3.576.068,0,24.695,3.51S1783.086,722.185,1777.438,723.319Z" transform="translate(-121.774 632.233)" fill="#fbd4cf"/><path d="M1777.438,723.98l-29.474,6.5s-4.026,1.079-4.135-4.652l.225-3.826a55.813,55.813,0,0,0,12.407-4.837l24.695,3.51S1783.086,722.845,1777.438,723.98Z" transform="translate(-121.774 631.572)" fill="#ba77ff"/><path d="M1826.633,670.41l.164-.368-.145.377Z" transform="translate(-134.677 638.915)" fill="none" stroke="#1631a2" stroke-miterlimit="10" stroke-width="1"/><path d="M1714.373,567.6l4.808-3.319V552.045l23.4-1.452v20.155l-23.4,2.266v-4.169Z" transform="translate(-117.185 657.527)" fill="#ddc5ff"/><path d="M1596.443,626.759s10.425,12.083,22.558,11.9l-1.866,31.553-15.08-4.252-8.565-28.913Z" transform="translate(-98.349 645.659)" fill="#ba77ff"/><path d="M1732.659,569.224l-2.458-1.83c-1.047-1.147-1.714-3.238-1.06-4.648.513-1.107,2.194-3.534,4,.5,0,0,4.605-4.6,5.478.176C1739.424,567.826,1732.659,569.224,1732.659,569.224Z" transform="translate(-119.445 655.904)" fill="#ba59ff"/><path d="M1612.082,641.342l-1.868,33.1s-.367-.068-1.036-.2c-5.546-1.132-31.613-7.259-34.119-22.437l10.822-21.275.7-1.365S1602.132,641.652,1612.082,641.342Z" transform="translate(-95.478 645.284)" fill="#515bd7"/><path d="M1609.178,674.495c-5.546-1.132-31.613-7.259-34.119-22.437l10.822-21.275C1586.819,641.6,1591.349,659.327,1609.178,674.495Z" transform="translate(-95.478 645.032)" fill="#6676fd"/><path d="M1824.135,600.47s-.185.368-.552,1.007v.009c-2.284,3.92-11.7,17.8-31.023,17.974l-7-25.011-.058-.213.387-.232,3.029-1.839-1.7-2.9,25.351-14.8,10.008,19.775-.609,3.04Z" transform="translate(-128.269 653.809)" fill="#ba77ff"/><path d="M1823.583,605.094c-2.284,3.92-11.7,17.8-31.023,17.974l-7.056-25.224.387-.232C1791.748,603.507,1805.193,613.486,1823.583,605.094Z" transform="translate(-128.269 650.201)" fill="#ba59ff"/><path d="M1822.577,594.237l-.61,3.039-9.5-17.752-26.909,14.926-.058-.213.387-.232,3.03-1.839-1.7-2.9,25.35-14.8Z" transform="translate(-128.269 653.809)" fill="#515bd7"/><path d="M374.052,764.176s-.557,8.68-2.237,8.8c-.223.016-8.518,0-8.518,0l-10.588-.084a3.436,3.436,0,0,1,3.171-3.084c3.1-.533,8.281-2.7,10.166-6.783C368.027,758.725,374.052,764.176,374.052,764.176Z" transform="translate(94.987 624.685)" fill="#ba59ff"/><path d="M324.608,764.461s-1.616,8.546-3.3,8.46c-.223-.011-8.5,0-8.5,0H302.694a3.362,3.362,0,0,1,3.19-3.356c3.138-.149,8.549-3.405,10.919-7.23C319.3,758.312,324.608,764.461,324.608,764.461Z" transform="translate(102.78 624.747)" fill="#ba59ff"/><path d="M336.4,651.655s2.731,17.717,12.993,49.179,11.64,45.08,11.64,45.08l11.083-.286s.169-34.361-4.558-50.181-.9-57-.9-57Z" transform="translate(97.528 643.838)" fill="#474747"/><path d="M329.176,635.013s-15.088,30.469-18.926,54.59,5.373,53.893,5.373,53.893a45.253,45.253,0,0,0,10.656,1.965s-.476-42.724.772-51.445,36.285-43.591,33.549-52.2S329.176,635.013,329.176,635.013Z" transform="translate(101.749 644.397)" fill="#474747"/><path d="M358.738,565.417s15.582,14.959,16.328,21.118-7.56,15.773-7.56,15.773Z" transform="translate(94.048 655.218)" fill="#ba59ff"/><path d="M352.91,563.14l-5.9,3.85-8.513-1.606c.119-.687.688-3.535,1.206-6.115.031-.152.062-.3.091-.452.444-2.2.826-4.081.826-4.081l7.961-3.492,2.969-1.3c-.008.046-.236,2.436-.267,2.785A20.284,20.284,0,0,0,352.91,563.14Z" transform="translate(97.202 657.629)" fill="#fbd4cf"/><path d="M340.46,562.738c.166-.069,10.263-3.025,11.358-2.661s1.74,2.487,1.74,2.487l-16.512,3.7A8.2,8.2,0,0,1,340.46,562.738Z" transform="translate(97.428 656.055)" fill="#ba59ff"/><path d="M366.042,630.947c-1.727,7.8-30.194,8.662-37.515,1.563-.832-.809-.865-4.565-.54-9.628.637-9.893,2.647-24.772,2.74-32.375a60.2,60.2,0,0,1,1.238-10.836,87.976,87.976,0,0,1,3.638-12.965s13.912-4.464,16.512-3.694C364.641,566.722,367.77,623.149,366.042,630.947Z" transform="translate(98.869 655.606)" fill="#ba77ff"/><path d="M328.022,625.705c.637-9.893.982-26.228,1.075-33.831.046-3.672,2.224-5.971,2.9-9.38l8.366-1.458S348.471,614.453,328.022,625.705Z" transform="translate(98.834 652.784)" fill="#ba59ff"/><path d="M350.908,553.075c-1.753,2.955-8.267,5.5-10.984,6.434.031-.152.062-.3.091-.453.444-2.2.826-4.081.826-4.081l7.961-3.492C350.562,551.464,351.631,551.86,350.908,553.075Z" transform="translate(96.979 657.389)" fill="#f1bcae"/><path d="M337.619,550.918s12.084,5.839,15.606-1.742,7.451-11.935-.116-15.984-10.421-1.856-12.211.388S334.567,549.2,337.619,550.918Z" transform="translate(97.499 660.591)" fill="#fbd4cf"/><path d="M342.278,532.089s-.565,9.348,1.4,9.232,3.743-.156,3.049,2.584-3.817,5.558,1.991,6.926,16.52-12.543,15.332-15.655C360.623,526.2,337.044,520.978,342.278,532.089Z" transform="translate(96.73 661.393)" fill="#1631a2"/><path d="M327.425,626.343a7.248,7.248,0,0,0-2.414,3.086c-.68,2.6-.247,5.035,2.305,6.012.942.361,1.07-1.874,1.768-2.834s3.186-1.492,2.616-2.954-1.682-4.32-1.682-4.32Z" transform="translate(99.348 645.882)" fill="#fbd4cf"/><path d="M331.7,627.551a8.024,8.024,0,0,1,1.742,2.852c.162,1.118.227,2.845.264,3.581s-.334,1.346-1.016.146-1.268-2.8-1.732-2.794S331.7,627.551,331.7,627.551Z" transform="translate(98.394 645.536)" fill="#fbd4cf"/><path d="M339.832,565.068s-9.909,1.752-17.554,12.967S311.8,596.421,313.2,600.472s8.359,16.61,9.765,18.309c1.2,1.455,4.691,1.351,6.973.367,0,0-4.422-18.686-2.643-20.7.761-.863,10.567-9.145,12.12-5.13C341.981,599.956,339.832,565.068,339.832,565.068Z" transform="translate(101.198 655.272)" fill="#ba77ff"/></g></svg>