<svg id="Group_4545" data-name="Group 4545" xmlns="http://www.w3.org/2000/svg" width="202.146" height="328.898" viewBox="0 0 202.146 328.898">
  <path id="Path_7511" data-name="Path 7511" d="M1866.34,600.751s-4.991-8.87,0-10.674,7.249-.14,7.487,1.88-1.9,9.983-1.9,9.983Z" transform="translate(-1715.884 -568.506)" fill="#ffb27d"/>
  <path id="Path_7512" data-name="Path 7512" d="M1696.613,681.973a161.412,161.412,0,0,1-25.019,2.57,139.507,139.507,0,0,1-19.231-.865q-2.267-.26-4.359-.58c-14.734-2.234-22.87-6.2-22.87-6.2s13.462-28.18,24.336-27.1c12.759,1.272,34.378,12.721,36.528,9.51,2.419-3.618,4.444-34.642,4.444-34.642,5.657-3.874,9.035.209,9.035.209S1710.527,679.463,1696.613,681.973Z" transform="translate(-1542.157 -593)" fill="#f99746"/>
  <path id="Path_7513" data-name="Path 7513" d="M1760.164,797.739a161.413,161.413,0,0,1-25.019,2.57,139.525,139.525,0,0,1-19.231-.865c-3.394-10.8-5.835-21.822.991-15.174C1728.949,795.995,1760.164,797.739,1760.164,797.739Z" transform="translate(-1605.708 -708.767)" fill="#ed7d2b"/>
  <path id="Path_7514" data-name="Path 7514" d="M1620.871,1660.639s-.968,11.2,1.4,12.368l30.306-.062s0-3.5-4.868-4.275-13.419-3.627-14.866-9.975S1620.871,1660.639,1620.871,1660.639Z" transform="translate(-1538.915 -1344.14)" fill="#233862"/>
  <path id="Path_7515" data-name="Path 7515" d="M1600.3,1082.24c-.15,7.325-.5,14.881-1.191,21.672-3.273,32.222-4.424,71.155-4.894,78.661-.815,13.03-3.389,33.846-3.389,33.846s-5.106,4.847-15.057,2.533c0,0-8.246-29.981-10.087-61.55-.028-.518-.057-1.039-.083-1.559-.214-4.174-.437-8.947-.666-14.092-1.517-34.469-3.164-85.673-3.164-85.673l38.029-8.93S1600.672,1063.979,1600.3,1082.24Z" transform="translate(-1496.094 -901.326)" fill="#2a4e96"/>
  <path id="Path_7516" data-name="Path 7516" d="M1600.3,1082.24c-9.638,16.628-28.009,47.263-35.367,59.511-1.517-34.469-3.164-85.673-3.164-85.673l38.029-8.93S1600.672,1063.979,1600.3,1082.24Z" transform="translate(-1496.094 -901.326)" fill="#233862"/>
  <path id="Path_7517" data-name="Path 7517" d="M1329.178,1057.7s-6.188,7.278-6.745,9.3-1.548,9.288-1.017,11.472,4.646-6.091,6.142-6.975-1.124,3.292-.612,3.989,3.467-2.437,4.619-3.5,1.038-6.768,2.422-10.144S1329.178,1057.7,1329.178,1057.7Z" transform="translate(-1321.264 -908.995)" fill="#ffb27d"/>
  <path id="Path_7518" data-name="Path 7518" d="M1333.007,1619.35s-5.394,4.922-4.342,8.42,5.92,5.829,6.578,10.1,3.289,6.606,5.657,6.606h11.29s1.743-3.008-2.467-3.915-5.8-5.93-5.534-10.593a82.179,82.179,0,0,0-.395-10.882l-8.946-2.073Z" transform="translate(-1326.545 -1315.583)" fill="#233862"/>
  <path id="Path_7519" data-name="Path 7519" d="M1436.176,1051.9s-35.6,76.169-54.544,109.591-24.865,42.748-24.865,42.748-10.853-4.275-11.84-7.19c0,0,7.244-64.521,19.931-80.25,7.168-8.887,15.589-35.559,15.984-44.885s8.711-31.588,8.711-31.588Z" transform="translate(-1338.466 -896.364)" fill="#2a4e96"/>
  <path id="Path_7520" data-name="Path 7520" d="M1548.034,801.734a61.694,61.694,0,0,1-34.194,8.586c-8.793-.384-26.236-2.877-29.051-9.871-.661-1.642-.176-3.725.815-6.924,2.573-8.313,8.571-24.141,6.76-59.238a57.634,57.634,0,0,1,.236-9.21c1.887-17.287,11.795-27.525,21.371-30.87,23.353-8.162,31.138,3.146,31.138,3.146s10.323,8.178,11.879,25.246C1560.1,756.738,1548.034,801.734,1548.034,801.734Z" transform="translate(-1439.915 -642.611)" fill="#f99746"/>
  <path id="Path_7521" data-name="Path 7521" d="M1617.52,637.312s10.715,6.518,22.337,4.674c0,0,2.3-.584,1.168-3.282a34.443,34.443,0,0,0,1.032-3.6,54.324,54.324,0,0,0,1.331-5.871l-6.6-6.932-6.247-6.625C1628.82,631.512,1617.52,637.312,1617.52,637.312Z" transform="translate(-1536.622 -587.677)" fill="#ffb27d"/>
  <path id="Path_7522" data-name="Path 7522" d="M1661.557,637.668s3.589,9.594,12.512,13.424c1.019-3.723,1.682-7.618,1.682-7.618l-6.947-5.186Z" transform="translate(-1568.634 -603.663)" fill="#ed985f"/>
  <path id="Path_7523" data-name="Path 7523" d="M1676.906,575.076s-20.454,2.557-21.89-10.012-5.042-20.7,7.956-22.868,16.088,2.354,17.6,6.435S1682.189,574.087,1676.906,575.076Z" transform="translate(-1562.74 -533.853)" fill="#ffb27d"/>
  <path id="Path_7524" data-name="Path 7524" d="M1631.439,519.437c-.177-.219-.6-.405-1.541-.493a3.845,3.845,0,0,1,1.789-.432c.248-1.31,1.037-3.615,3.325-4.1a2.844,2.844,0,0,0-1.455,2c2.727-2.6,8.427-4.348,23.96-2.529,20.47,2.4,13.207,15.287,10.49,16.753s-9.246-3.083-14.213-2.877-6.18,7.326-7.9,8.245-.991-.793-3.225-1.906-2.593,2.645-2.029,5.119-2.681,5.586-2.681,5.586l-3.028-3.518c-3.028-3.518-5.458-18.029-3.907-21.043C1631.163,519.977,1631.3,519.707,1631.439,519.437Z" transform="translate(-1545.62 -513.137)" fill="#2c3a64"/>
  <g id="Group_4544" data-name="Group 4544" transform="translate(111.603 10.109)">
    <path id="Path_7525" data-name="Path 7525" d="M1771.229,589.449l-34.724.309-.237-5.224,34.616-2.683Z" transform="translate(-1734.547 -573.197)" fill="#2a4e96"/>
    <path id="Path_7526" data-name="Path 7526" d="M1858.5,581.263l-37.805.547-.432-9.5,37.7-2.921Z" transform="translate(-1795.603 -564.139)" fill="#2a4e96"/>
    <path id="Path_7527" data-name="Path 7527" d="M1967.223,573.88l-31.88.039-.583-12.822,31.751-2.889Z" transform="translate(-1878.836 -556.011)" fill="#233862"/>
    <path id="Path_7528" data-name="Path 7528" d="M2048.356,570.192h0a1.782,1.782,0,0,0,1.7-1.861l-.748-16.47a1.782,1.782,0,0,0-1.861-1.7h0a1.782,1.782,0,0,0-1.7,1.862l.748,16.471A1.783,1.783,0,0,0,2048.356,570.192Z" transform="translate(-1959.516 -550.158)" fill="#233862"/>
    <path id="Path_7529" data-name="Path 7529" d="M1731.816,595.08h0a1.585,1.585,0,0,1-1.655-1.511l-.194-4.274a1.585,1.585,0,0,1,1.511-1.655h0a1.585,1.585,0,0,1,1.655,1.511l.194,4.274A1.584,1.584,0,0,1,1731.816,595.08Z" transform="translate(-1729.965 -577.404)" fill="#2a4e96"/>
  </g>
  <path id="Path_7530" data-name="Path 7530" d="M1488.582,883.486c2.573-8.313,8.571-24.141,6.76-59.239a57.577,57.577,0,0,1,.236-9.21h0c7.685-.661,19.433,7.648,19.433,7.648S1507.779,866.8,1488.582,883.486Z" transform="translate(-1442.893 -732.571)" fill="#ed7d2b"/>
  <path id="Path_7531" data-name="Path 7531" d="M1416.621,694.905s-19.707,3.387-29.985,15.935-26.812,30.241-30.721,36.436-14.761,48.36-14.761,48.36.716,1.355,3.709,2.145a7.058,7.058,0,0,0,4.943-.416s14.378-24.606,19.788-36.9c2.248-5.107,41.13-25.333,55.747-23.237C1431.082,738.052,1416.621,694.905,1416.621,694.905Z" transform="translate(-1335.723 -645.27)" fill="#f99746"/>
  <path id="Path_7532" data-name="Path 7532" d="M1863.541,572.665s4.239,2.593,6.774,1.5,2.312-2.1,2.312-2.1S1864.967,569.934,1863.541,572.665Z" transform="translate(-1715.462 -555.397)" fill="#ffb27d"/>
  <path id="Path_7533" data-name="Path 7533" d="M1483.384,742.675s-8.648,54.6-70.01,70.5l-6.684,13.188,11.742,1.987s69.858-20.238,68.917-86.639Z" transform="translate(-1383.363 -679.293)" fill="#bc3f3f"/>
  <path id="Path_7534" data-name="Path 7534" d="M1675.1,713.329l-2.833.277v4.1l4.173,4.338,3.968-.965v-5.69l-2.852-2.06Z" transform="translate(-1576.419 -658.663)" fill="#a02e2e"/>
  <path id="Path_7535" data-name="Path 7535" d="M1617.953,673.566s-2.742.619-9.01,5.827c0,0,6.234,13.232,19.385,14.816,0,0-.212-6.141.739-9.785C1629.068,684.424,1618.644,680.693,1617.953,673.566Z" transform="translate(-1530.388 -629.758)" fill="#ed7d2b"/>
  <path id="Path_7536" data-name="Path 7536" d="M1682.639,703.643s6.417,3.407,6.893,8.715c0,0,2.453-3.887,1.742-6.578a21.935,21.935,0,0,0-2.911-5.776S1688.581,703.247,1682.639,703.643Z" transform="translate(-1583.959 -648.977)" fill="#ed7d2b"/>
</svg>
