<svg xmlns="http://www.w3.org/2000/svg" width="35.288" height="26.252" viewBox="0 0 35.288 26.252">
  <g id="type" transform="translate(-634.383 -2035.75)">
    <g id="Icon_material-format-color-text" data-name="Icon material-format-color-text" transform="translate(626.391 2031.25)">
      <path id="Path_47" data-name="Path 47" d="M0,30H18.007v2.1H0Z" transform="translate(7.993 -1.728)" fill="#cbcbcb"/>
      <path id="Path_48" data-name="Path 48" d="M16.5,4.5l-8.25,21h3.375l1.68-4.5H22.68l1.68,4.5h3.375L19.5,4.5ZM14.43,18,18,8.505,21.57,18Z" fill="#cbcbcb"/>
    </g>
    <path id="Icon_material-brush" data-name="Icon material-brush" d="M8.218,15.978a3.126,3.126,0,0,0-3.131,3.131A2.118,2.118,0,0,1,3,21.2a5.4,5.4,0,0,0,4.174,2.087,4.173,4.173,0,0,0,4.174-4.174A3.126,3.126,0,0,0,8.218,15.978ZM22.525,6.2l-1.4-1.4a1.039,1.039,0,0,0-1.471,0l-9.35,9.35,2.87,2.87,9.35-9.35A1.039,1.039,0,0,0,22.525,6.2Z" transform="translate(646.842 2038.72)" fill="#cbcbcb"/>
  </g>
</svg>
