<svg xmlns="http://www.w3.org/2000/svg" width="26.322" height="26.322" viewBox="0 0 26.322 26.322"><g transform="translate(0 -0.001)"><circle cx="13.16" cy="13.16" r="13.16" transform="translate(0.001 0.002)" fill="#fff"/><path d="M322.327,157.873h-8.109a36.387,36.387,0,0,1,.007,8.724h8.119a13.173,13.173,0,0,0-.017-8.724Z" transform="translate(-296.757 -149.099)" fill="#efecec"/><path d="M261.223,9.691h8.109l0-.011A13.169,13.169,0,0,0,258.105.972C260.12,2.076,260.708,5.575,261.223,9.691Z" transform="translate(-243.762 -0.917)" fill="#429945"/><path d="M258.113,323.638a13.169,13.169,0,0,0,11.232-8.733c0-.013.008-.025.013-.037h-8.12C260.727,319.006,260.136,322.53,258.113,323.638Z" transform="translate(-243.77 -297.37)" fill="#0b0b0b"/><path d="M0,162.26A13.142,13.142,0,0,0,.735,166.6h17.41a36.391,36.391,0,0,0-.006-8.724H.752A13.134,13.134,0,0,0,0,162.26Z" transform="translate(0 -149.098)" fill="#efefef"/><path d="M13.537,8.762l0,.011H30.92c-.515-4.116-1.781-7.615-3.8-8.719C26.734.02,26.34,0,25.942,0A13.163,13.163,0,0,0,13.537,8.762Z" transform="translate(-12.781)" fill="#49a948"/><path d="M30.629,314.867H13.219l.013.037a13.165,13.165,0,0,0,12.413,8.787c.4,0,.793-.02,1.182-.054C28.85,322.529,30.118,319.005,30.629,314.867Z" transform="translate(-12.484 -297.369)" fill="#151515"/><path d="M0,30.254A13.164,13.164,0,0,0,8.11,42.409V18.1A13.163,13.163,0,0,0,0,30.254Z" transform="translate(0 -17.092)" fill="#e73b36"/></g></svg>