<svg xmlns="http://www.w3.org/2000/svg" width="30.183" height="35.671" viewBox="0 0 30.183 35.671">
  <g id="y-phone" transform="translate(-30.234 -27.673)">
    <path id="Path_7166" data-name="Path 7166" d="M41.243,31.879c.663,1.13,1.22,2.323,1.8,3.5.391.793.745,1.6,1.1,2.415a2.25,2.25,0,0,1-.835,2.893c-.684.464-1.385.9-2.074,1.358a2.292,2.292,0,0,0-.914,3.048,34,34,0,0,0,6.57,10.143,2.253,2.253,0,0,0,3.112.4c.67-.432,1.334-.875,2.006-1.305a2.24,2.24,0,0,1,3.134.439c1.221,1.415,2.435,2.837,3.616,4.284A7.007,7.007,0,0,1,59.7,60.57,2.618,2.618,0,0,1,59,63.8a7.588,7.588,0,0,1-4.068,2.031,6.835,6.835,0,0,1-3.133-.515,18.673,18.673,0,0,1-5.93-3.582A38.061,38.061,0,0,1,36.3,49.316a30.964,30.964,0,0,1-2.942-8.729c-.15-.958-.22-1.928-.355-3.153.154-.888.322-2.014.551-3.128a3.167,3.167,0,0,1,1.05-1.783,18.09,18.09,0,0,1,2.521-1.891,2.883,2.883,0,0,1,4.121,1.247Zm13.731,1.9a13.209,13.209,0,0,1,8.209,12.448A14.312,14.312,0,0,1,60.6,54.165a.9.9,0,0,1-1.482.229c-.216-.163-.433-.326-.645-.494a.851.851,0,0,1-.21-1.237A30.068,30.068,0,0,0,59.7,49.757a9.539,9.539,0,0,0,.551-4.762,10.641,10.641,0,0,0-11.726-9.4c-.41.038-.819.1-1.227.16a.809.809,0,0,1-1.011-.673c-.073-.291-.14-.584-.207-.876a.87.87,0,0,1,.761-1.184,14.124,14.124,0,0,1,8.131.765Zm-4.646,5.8a5.938,5.938,0,0,1,5.4,3.075,6.092,6.092,0,0,1-.137,6.285c-.3.541-.592.6-1.1.247-.338-.235-.666-.487-.994-.738-.474-.361-.5-.508-.236-1.045a3.407,3.407,0,0,0-2.485-4.978,4.974,4.974,0,0,0-.935-.033.58.58,0,0,1-.648-.489c-.115-.486-.241-.97-.34-1.459a.611.611,0,0,1,.578-.812,4.144,4.144,0,0,1,.423-.05c.155-.009.313,0,.469,0Z" transform="translate(-2.766 -2.527)" fill="#f7b500" fill-rule="evenodd"/>
  </g>
</svg>
